<?xml version="1.0" encoding="utf-8"?>
<!-- Generator: Adobe Illustrator 27.8.0, SVG Export Plug-In . SVG Version: 6.00 Build 0)  -->
<svg version="1.1" id="Layer_1" xmlns="http://www.w3.org/2000/svg" xmlns:xlink="http://www.w3.org/1999/xlink" x="0px" y="0px"
	 viewBox="0 0 24 24" style="enable-background:new 0 0 24 24;" xml:space="preserve">
<style type="text/css">
	.st0{fill:#7E3080;}
</style>
<g>
	<path class="st0" d="M0,4.8c0-0.7,0.5-1.2,1.2-1.2h9.6c0.7,0,1.2,0.5,1.2,1.2S11.5,6,10.8,6H1.2C0.6,6,0,5.5,0,4.8z"/>
	<path class="st0" d="M0,12c0-0.7,0.5-1.2,1.2-1.2h21.6c0.7,0,1.2,0.5,1.2,1.2c0,0.7-0.5,1.2-1.2,1.2H1.2C0.6,13.2,0,12.7,0,12z"/>
	<path class="st0" d="M1.2,18C0.6,18,0,18.5,0,19.2c0,0.7,0.5,1.2,1.2,1.2h14.4c0.7,0,1.2-0.5,1.2-1.2c0-0.7-0.5-1.2-1.2-1.2H1.2z"
		/>
</g>
</svg>
