<?xml version="1.0" encoding="utf-8"?>
<!-- Generator: Adobe Illustrator 27.8.0, SVG Export Plug-In . SVG Version: 6.00 Build 0)  -->
<svg version="1.1" id="Layer_1" xmlns="http://www.w3.org/2000/svg" xmlns:xlink="http://www.w3.org/1999/xlink" x="0px" y="0px"
	 viewBox="0 0 22.5 26.6" style="enable-background:new 0 0 22.5 26.6;" xml:space="preserve">
<style type="text/css">
	.st0{fill:#7E3080;stroke:#7E3080;stroke-width:0.3118;stroke-miterlimit:10;}
</style>
<path class="st0" d="M13.7,22.8c0.1,0.9-0.2,1.7-0.9,2.3c-0.5,0.4-1.1,0.7-1.7,0.7c-0.8,0-1.5-0.3-2-0.9s-0.7-1.3-0.7-2.1
	c-0.4,0-2.7,0-3.1,0c-1,0-2.1,0.1-3.1,0.1c-0.3,0-0.6,0-1-0.1c-0.5-0.1-0.7-0.5-0.5-1c0.2-0.4,0.4-0.7,0.7-1c1-1.4,1.9-3,2.5-4.6
	c0.2-0.7,0.3-1.4,0.4-2.2c0.1-1.3,0.2-2.6,0.3-4C4.8,8.9,5,7.8,5.5,6.7C6.2,5,7.5,4,9.2,3.5c0.1,0,0.2,0,0.3-0.1
	c-0.3-1-0.1-1.8,0.8-2.3c0.7-0.5,1.4-0.4,2.1,0c0.8,0.6,1,1.4,0.7,2.3c0.3,0.1,0.6,0.2,0.9,0.3c1.6,0.6,2.6,1.7,3.2,3.3
	c0.5,1.3,0.7,2.7,0.8,4.1c0.1,1,0.1,2.1,0.2,3.1c0.1,1.4,0.5,2.6,1.1,3.8c0.5,1.1,1.2,2.1,1.9,3.1c0.2,0.2,0.4,0.5,0.5,0.8
	c0.2,0.5,0.1,0.9-0.4,1c-0.5,0.1-1.1,0.1-1.7,0.1c-1.5,0-3-0.1-4.5-0.1c-1,0-0.1,0-1.1,0C13.9,22.8,13.8,22.8,13.7,22.8z M1.5,22.1
	c0,0,0.1,0,0.2,0c0.3,0,0.6,0,0.9,0c1.9,0,3.9-0.1,5.8-0.2c1.6,0,3.2,0,4.9,0c1.6,0,3.2,0.1,4.8,0.1c0.9,0,1.7,0,2.6,0
	c0.1,0,0.3,0,0.5-0.1c-0.2-0.2-0.4-0.4-0.5-0.5c-0.9-1.1-1.6-2.3-2.2-3.6c-0.5-1.2-0.9-2.4-1-3.8c0-1.1-0.1-2.2-0.2-3.3
	c-0.1-1.2-0.3-2.5-0.8-3.6c-0.6-1.5-1.7-2.5-3.2-2.9c-1.3-0.3-2.6-0.3-4,0C8,4.7,7.1,5.4,6.5,6.5C6,7.4,5.7,8.3,5.5,9.3
	c-0.2,1.4-0.3,2.8-0.4,4.2c-0.1,0.9-0.1,1.9-0.4,2.8c-0.5,1.6-1.3,3.1-2.3,4.5C2.2,21.2,1.9,21.7,1.5,22.1z M12.9,22.8
	c-1.2,0-2.3,0-3.5,0c-0.1,0-0.2,0.1-0.2,0.2c0,0.7,0.2,1.2,0.7,1.6c0.6,0.4,1.2,0.5,1.8,0.2C12.6,24.5,13.1,23.6,12.9,22.8z
	 M11.3,3.3c0.2,0,0.5,0,0.8,0c0.1,0,0.2,0,0.2-0.1c0.2-0.4,0.1-1-0.3-1.4c-0.4-0.3-1-0.3-1.4,0c-0.4,0.3-0.5,0.9-0.3,1.3
	c0,0.1,0.1,0.1,0.2,0.1C10.7,3.3,11,3.3,11.3,3.3z"/>
</svg>
