<?xml version="1.0" encoding="utf-8"?>
<!-- Generator: Adobe Illustrator 27.8.0, SVG Export Plug-In . SVG Version: 6.00 Build 0)  -->
<svg version="1.1" id="Layer_1" xmlns="http://www.w3.org/2000/svg" xmlns:xlink="http://www.w3.org/1999/xlink" x="0px" y="0px"
	 viewBox="0 0 18.81 22.22" style="enable-background:new 0 0 18.81 22.22;" xml:space="preserve">
<style type="text/css">
	.st0{fill:#7E3080;stroke:#7E3080;stroke-width:0.3118;stroke-miterlimit:10;}
</style>
<path class="st0" d="M11.42,18.91c0.07,0.76-0.14,1.41-0.71,1.92c-0.4,0.36-0.87,0.55-1.4,0.55c-0.66,0.01-1.21-0.23-1.65-0.71
	c-0.44-0.48-0.6-1.06-0.55-1.69c-0.33,0-2.21-0.01-2.52,0C3.74,19,2.89,19.03,2.05,19.04c-0.26,0-0.53-0.02-0.79-0.07
	c-0.44-0.09-0.61-0.43-0.4-0.82c0.16-0.29,0.35-0.57,0.55-0.84c0.86-1.17,1.55-2.44,2.03-3.81c0.2-0.58,0.26-1.18,0.3-1.79
	c0.08-1.08,0.13-2.17,0.23-3.25c0.09-0.96,0.28-1.9,0.67-2.79c0.6-1.38,1.64-2.24,3.1-2.59c0.07-0.02,0.13-0.03,0.21-0.05
	C7.7,2.24,7.87,1.57,8.57,1.11c0.56-0.37,1.16-0.36,1.71,0.03c0.67,0.47,0.82,1.13,0.59,1.89c0.26,0.08,0.52,0.14,0.77,0.23
	c1.33,0.47,2.17,1.43,2.66,2.72c0.41,1.08,0.55,2.21,0.63,3.35c0.06,0.85,0.12,1.69,0.16,2.54c0.05,1.11,0.43,2.12,0.91,3.1
	c0.43,0.9,0.97,1.73,1.55,2.53c0.15,0.2,0.29,0.42,0.41,0.64c0.2,0.38,0.06,0.74-0.36,0.81c-0.45,0.08-0.92,0.1-1.39,0.09
	c-1.23-0.02-2.45-0.07-3.68-0.1c-0.84-0.02-0.1-0.02-0.93-0.03C11.54,18.9,11.49,18.91,11.42,18.91z M1.4,18.35
	c0.04,0.01,0.09,0.03,0.14,0.03c0.25,0.01,0.5,0.03,0.74,0.02c1.59-0.04,3.17-0.1,4.76-0.13c1.33-0.02,2.67-0.02,4-0.01
	c1.31,0.01,2.61,0.06,3.92,0.09c0.71,0.02,1.41,0.03,2.12,0.04c0.11,0,0.22-0.03,0.37-0.05c-0.15-0.17-0.29-0.3-0.4-0.45
	c-0.7-0.93-1.31-1.91-1.79-2.97c-0.45-0.99-0.77-2.01-0.82-3.1c-0.04-0.91-0.1-1.82-0.18-2.73c-0.08-1.02-0.23-2.02-0.63-2.97
	c-0.5-1.21-1.36-2.05-2.65-2.38C9.9,3.47,8.81,3.47,7.73,3.78C6.75,4.05,6,4.64,5.49,5.52C5.06,6.24,4.81,7.03,4.71,7.85
	c-0.13,1.14-0.21,2.28-0.3,3.42c-0.06,0.76-0.08,1.53-0.32,2.26c-0.43,1.32-1.05,2.55-1.85,3.69C1.97,17.6,1.69,17.97,1.4,18.35z
	 M10.74,18.93c-0.96,0-1.91,0-2.86,0c-0.12,0-0.13,0.07-0.13,0.16c-0.04,0.56,0.17,1.01,0.61,1.34c0.46,0.34,0.97,0.4,1.49,0.18
	C10.53,20.34,10.93,19.56,10.74,18.93z M9.41,2.9c0.2,0.01,0.42,0.03,0.64,0.03c0.06,0,0.14-0.04,0.17-0.09
	c0.2-0.35,0.09-0.85-0.25-1.12C9.65,1.44,9.16,1.44,8.83,1.72C8.5,1.98,8.39,2.47,8.59,2.82c0.03,0.05,0.11,0.1,0.17,0.1
	C8.96,2.93,9.17,2.91,9.41,2.9z"/>
</svg>
