<svg xmlns="http://www.w3.org/2000/svg" width="30" height="30" viewBox="0 0 30 30">
  <g id="ring" transform="translate(-150 -46)">
    <rect id="Rectangle_287" data-name="Rectangle 287" width="30" height="30" rx="9" transform="translate(150 46)" fill="#37083b"/>
    <path id="Path_1284" data-name="Path 1284" d="M30.316,15.8a6.615,6.615,0,0,0-3.048-3.542,5.552,5.552,0,0,0-1.133-.494l1.792-3.4L26.506,6.841,21.563,6.8,20.142,8.345l1.771,3.4c-.062.021-.124.041-.206.062a6.652,6.652,0,0,0-1.215.6,6.859,6.859,0,0,0-2.78,3.4,6.693,6.693,0,1,0,12.975,2.307A5.72,5.72,0,0,0,30.316,15.8Zm-5.149-4.284c-.062,0-.1-.021-.165-.021l.412-2.842,1.606.021Zm-1.277-.1-.721-2.78,1.73.021-.783,2.78h-.1C23.993,11.413,23.952,11.413,23.89,11.413Zm3.192-3.254h-1.3l.659-.7Zm-1.195-.824-.659.7-.638-.721Zm-1.215.8H23.4l.638-.7ZM23.5,7.315l-.638.7-.638-.721Zm-1.833.124.618.7H21.028Zm1.009,1.174.371,2.863c-.041,0-.1.021-.144.021l-1.874-2.9Zm1.359,14.7A5.225,5.225,0,0,1,18.8,18.086a5.047,5.047,0,0,1,.7-2.595,5.214,5.214,0,0,1,9.206.268,5.134,5.134,0,0,1,.535,2.307A5.2,5.2,0,0,1,24.035,23.317Z" transform="translate(140.7 45.2)" fill="#fff"/>
  </g>
</svg>
