<?xml version="1.0" encoding="utf-8"?>
<!-- Generator: Adobe Illustrator 27.8.0, SVG Export Plug-In . SVG Version: 6.00 Build 0)  -->
<svg version="1.1" id="Layer_1" xmlns="http://www.w3.org/2000/svg" xmlns:xlink="http://www.w3.org/1999/xlink" x="0px" y="0px"
	 viewBox="0 0 17.49 16.28" style="enable-background:new 0 0 17.49 16.28;" xml:space="preserve">
<style type="text/css">
	.st0{fill:#4C0C4B;stroke:#4C0C4B;stroke-width:0.1417;stroke-miterlimit:10;}
</style>
<g>
	<g>
		<path class="st0" d="M10.92,10.91c0.42,0.02,0.79,0.03,1.16,0.07c2.46,0.28,4.54,2.15,5.1,4.57c0.07,0.31-0.01,0.41-0.33,0.41
			c-4.52,0.01-9.04,0.02-13.56,0.03c-0.89,0-1.77,0.01-2.66,0.01c-0.29,0-0.37-0.1-0.31-0.38c0.51-2.36,2.48-4.23,4.87-4.6
			c0.39-0.06,0.78-0.06,1.17-0.09c0.07,0,0.14,0,0.21,0c0.05-0.12,0.03-0.19-0.07-0.25c-0.87-0.54-1.3-1.35-1.43-2.35
			c-0.02-0.2-0.08-0.31-0.27-0.4C4.32,7.71,3.94,7.4,3.7,6.94C3.42,6.4,3.39,5.81,3.62,5.27c0.3-0.7,0.49-1.43,0.7-2.16
			c0.3-1.04,1.02-1.75,1.97-2.25C8.12-0.11,10.51,0.18,12,1.55c0.61,0.56,0.96,1.26,1.14,2.07C13.22,4,13.35,4.38,13.5,4.75
			c0.19,0.47,0.33,0.93,0.28,1.44c-0.07,0.64-0.39,1.12-0.9,1.49c-0.12,0.09-0.24,0.18-0.38,0.24c-0.18,0.07-0.23,0.19-0.26,0.38
			c-0.11,0.91-0.47,1.67-1.21,2.24C10.95,10.6,10.96,10.77,10.92,10.91z M11.68,8.61c-0.42,0.27-0.87,0.4-1.36,0.43
			c-0.04,0-0.09,0.07-0.11,0.12c-0.09,0.21-0.23,0.36-0.44,0.43C9.41,9.71,9.02,9.55,8.85,9.22C8.69,8.89,8.8,8.49,9.1,8.28
			c0.31-0.21,0.72-0.15,0.97,0.12c0.05,0.05,0.12,0.12,0.19,0.12c0.72,0.05,1.42-0.41,1.66-1.08c0.06-0.17,0.13-0.34,0.23-0.48
			c0.35-0.54,0.37-1.11,0.18-1.7c-0.04-0.13-0.09-0.16-0.23-0.14c-1.12,0.13-2.22,0.04-3.26-0.45c-0.31-0.14-0.6-0.34-0.91-0.51
			C7.66,4.47,7.33,4.7,6.94,4.85C6.38,5.06,5.8,5.09,5.21,5.01C5.13,5,5.07,4.99,5.03,5.09C4.81,5.66,4.72,6.25,5.05,6.8
			c0.28,0.47,0.42,0.96,0.49,1.49c0.14,1.12,0.73,1.93,1.85,2.24c1.05,0.28,2.1,0.22,3.09-0.24C11.16,9.96,11.51,9.34,11.68,8.61z
			 M6.58,11.42c-1.48-0.07-2.79,0.32-3.93,1.25c-0.9,0.74-1.5,1.68-1.81,2.81c2.57,0,5.11,0,7.66,0c0-0.07,0.01-0.11,0.01-0.16
			c0-0.71,0-1.43,0-2.14c0-0.13-0.03-0.18-0.17-0.2c-0.52-0.07-0.98-0.27-1.41-0.57c-0.24-0.17-0.35-0.39-0.35-0.67
			C6.58,11.64,6.58,11.54,6.58,11.42z M10.95,11.43c0,0.08,0,0.16,0,0.23c0.02,0.34-0.13,0.59-0.42,0.78
			c-0.42,0.27-0.87,0.48-1.37,0.54C9.02,13,8.99,13.06,8.99,13.2c0.01,0.7,0,1.39,0,2.09c0,0.06,0,0.11,0.01,0.17
			c2.55,0,5.09,0,7.64,0C16.06,13.13,13.7,11.22,10.95,11.43z M11.99,4.65c0-0.11,0-0.2,0-0.29c-0.04-0.95-0.42-1.71-1.28-2.16
			C9.57,1.59,8.37,1.54,7.16,1.94C5.97,2.33,5.37,3.13,5.3,4.36c-0.01,0.13,0.02,0.2,0.16,0.19c0.17-0.01,0.33,0.01,0.5,0
			c0.71-0.04,1.32-0.28,1.74-0.9c0.1-0.15,0.25-0.16,0.4-0.03C9.22,4.58,10.56,4.77,11.99,4.65z M12.56,7.3
			c0.31-0.23,0.57-0.52,0.68-0.92c0.13-0.48,0.04-0.94-0.17-1.38c-0.2-0.43-0.34-0.88-0.43-1.34c-0.14-0.75-0.49-1.4-1.1-1.87
			c-1.5-1.14-3.13-1.36-4.86-0.59C5.58,1.7,4.86,2.53,4.65,3.76c-0.08,0.46-0.22,0.89-0.43,1.3C4.01,5.47,3.91,5.91,4.01,6.38
			c0.09,0.4,0.47,0.87,0.78,0.96C4.72,7.21,4.64,7.08,4.57,6.95C4.22,6.2,4.32,5.47,4.65,4.75c0.11-0.23,0.16-0.46,0.19-0.71
			C4.95,3.06,5.4,2.29,6.26,1.82c1.52-0.83,3.09-0.84,4.64-0.07c0.89,0.44,1.39,1.2,1.53,2.19c0.05,0.33,0.13,0.64,0.26,0.94
			c0.22,0.5,0.32,1.02,0.19,1.55C12.81,6.73,12.67,7.01,12.56,7.3z M10.46,10.86c-0.55,0.22-1.11,0.35-1.68,0.32
			c-0.57-0.02-1.14-0.09-1.71-0.14c0,0.21,0,0.45,0,0.68c0,0.13,0.05,0.22,0.16,0.3c1.01,0.71,2.11,0.65,3.1-0.04
			c0.06-0.04,0.12-0.13,0.12-0.19C10.47,11.49,10.46,11.19,10.46,10.86z"/>
	</g>
</g>
</svg>
