<?xml version="1.0" encoding="UTF-8"?>
<svg id="Layer_2" data-name="Layer 2" xmlns="http://www.w3.org/2000/svg" viewBox="0 0 12.38 16.97">
  <defs>
    <style>
      .cls-1 {
        fill: #4c0c4b;
        stroke-width: 0px;
      }
    </style>
  </defs>
  <g id="Layer_1-2" data-name="Layer 1">
    <g>
      <path class="cls-1" d="m6.05,0c-1.18-.01-2.36.38-3.41,1.12C.53,2.61-.84,5.56.59,8.88c1.24,2.87,3.05,5.37,5.01,7.76.38.46.82.44,1.23-.07,1.63-1.97,3.12-4.03,4.31-6.31.59-1.13,1.11-2.31,1.22-3.6C12.66,3.09,9.76-.01,6.05,0Zm4.29,9.85c-1,1.93-2.32,3.86-4.15,6.08-1.7-2.07-3.53-4.52-4.78-7.42C.09,5.45,1.52,3.01,3.15,1.86c.88-.63,1.86-.96,2.83-.96,1.62,0,3.09.64,4.12,1.76,1,1.09,1.49,2.49,1.36,3.93-.1,1.15-.6,2.25-1.12,3.26Z"/>
      <path class="cls-1" d="m6.19,3.66c-1.38,0-2.54,1.16-2.53,2.54.01,1.37,1.14,2.49,2.52,2.49,1.4,0,2.55-1.14,2.53-2.53-.01-1.36-1.16-2.5-2.52-2.5Zm-.03,4.11c-.88-.01-1.59-.73-1.58-1.59,0-.86.74-1.59,1.59-1.6.89,0,1.65.77,1.62,1.64-.03.87-.75,1.56-1.63,1.55Z"/>
    </g>
  </g>
</svg>