<?xml version="1.0" encoding="utf-8"?>
<!-- Generator: Adobe Illustrator 27.8.0, SVG Export Plug-In . SVG Version: 6.00 Build 0)  -->
<svg version="1.1" id="Layer_1" xmlns="http://www.w3.org/2000/svg" xmlns:xlink="http://www.w3.org/1999/xlink" x="0px" y="0px"
	 viewBox="0 0 17.49 17.73" style="enable-background:new 0 0 17.49 17.73;" xml:space="preserve">
<style type="text/css">
	.st0{fill:none;stroke:#4C0C4B;stroke-width:1.1339;stroke-miterlimit:10;}
</style>
<g>
	<path class="st0" d="M15.42,15.63l-0.61,0.8c-0.21,0.27-0.53,0.45-0.88,0.47c-0.78,0.05-2.45-0.15-4.73-1.47
		C5.95,13.54,3.51,10.5,2.42,6.9C1.68,4.45,1.87,2.82,2.09,2.08c0.1-0.33,0.33-0.61,0.65-0.75L3.65,0.9
		c0.38-0.18,0.83-0.04,1.06,0.31l2.28,3.62c0.25,0.39,0.13,0.91-0.26,1.15L5.72,6.63C5.59,6.7,5.53,6.85,5.57,7
		c0.01,0.05,0.03,0.1,0.05,0.16c0.66,2.2,2.14,4.05,4.14,5.18c0.05,0.03,0.1,0.06,0.14,0.08c0.13,0.07,0.29,0.05,0.39-0.06
		l0.85-0.85c0.33-0.33,0.86-0.33,1.18,0l3.03,3.03C15.65,14.83,15.68,15.3,15.42,15.63z"/>
</g>
</svg>
