<?xml version="1.0" encoding="UTF-8"?>
<svg id="Layer_2" xmlns="http://www.w3.org/2000/svg" viewBox="0 0 18.4 18.38">
  <defs>
    <style>
      .cls-1 {
        fill: #b7b7b8;
        stroke: #b7b7b8;
        stroke-miterlimit: 10;
        stroke-width: .24px;
      }
    </style>
  </defs>
  <g id="Layer_1-2" data-name="Layer_1">
    <path class="cls-1" d="M17.91,8.33h-7.3c-.2,0-.37.17-.37.37h0v3.09h-1.91v-1.65c0-1.37-.8-2.62-2.04-3.21,1.06-.52,1.8-1.53,1.97-2.69h1.73c.2,0,.37-.17.37-.37s-.17-.37-.37-.37h-1.69C8.2,1.52,6.5.01,4.53.13c-1.89.11-3.37,1.67-3.37,3.57.01,1.37.8,2.62,2.04,3.22-1.24.59-2.03,1.84-2.04,3.22v7.38h-.64c-.2-.02-.38.14-.4.34s.14.38.34.4c.02,0,.04,0,.05,0h8.7c.2.02.38-.14.4-.34s-.14-.38-.34-.4c-.02,0-.04,0-.05,0h-.88v-1.4c3.19,0,6.4-.02,9.58-.02.2,0,.37-.17.37-.37h0v-7.03c0-.2-.17-.37-.37-.37ZM14.83,9.07v1.71h-1.13v-1.71h1.13ZM4.73.86c1.49,0,2.73,1.15,2.84,2.63H1.92c.1-1.48,1.33-2.64,2.82-2.63h0ZM1.96,4.23h5.57c-.28,1.54-1.75,2.56-3.29,2.28-1.16-.21-2.07-1.12-2.28-2.28h0ZM6.6,15.38c-.91,0-1.74-.52-2.14-1.34l-.56-1.15c-.09-.18-.3-.26-.48-.17-.18.09-.26.3-.17.48h0l.55,1.17c.51,1.08,1.6,1.76,2.8,1.75h1.01v1.4H1.89v-1.4h1.52c.2,0,.37-.17.37-.37s-.17-.37-.37-.37h-1.52v-5.24c.04-1.57,1.35-2.81,2.92-2.77,1.51.04,2.73,1.26,2.77,2.77v1.65h-.23l-.84-1.75c-.09-.18-.3-.26-.48-.17-.18.09-.26.3-.17.48l1.05,2.18h4.26c.78,0,1.41.63,1.41,1.41,0,.78-.62,1.41-1.4,1.44h-4.59ZM17.56,15.36h-4.76c.78-.9.69-2.26-.2-3.04-.39-.35-.9-.54-1.43-.53h-.18v-2.71h1.97v2.08c0,.2.17.37.37.37h1.87c.2,0,.37-.17.37-.37v-2.08h1.97v6.29Z"/>
  </g>
</svg>