<?xml version="1.0" encoding="utf-8"?>
<!-- Generator: Adobe Illustrator 27.8.0, SVG Export Plug-In . SVG Version: 6.00 Build 0)  -->
<svg version="1.1" id="Layer_1" xmlns="http://www.w3.org/2000/svg" xmlns:xlink="http://www.w3.org/1999/xlink" x="0px" y="0px"
	 viewBox="0 0 18.6 18.6" style="enable-background:new 0 0 18.6 18.6;" xml:space="preserve">
<style type="text/css">
	.st0{fill:#4C0C4B;}
</style>
<path class="st0" d="M10.92,9.82c3.95-0.77,6.89-4.28,6.89-8.35C17.82,1.21,17.6,1,17.34,1s-0.47,0.21-0.47,0.47
	c0,3.59-2.57,6.69-6.04,7.4c-0.25-0.6-0.84-1.02-1.53-1.02S8.02,8.28,7.77,8.87C4.3,8.16,1.73,5.05,1.73,1.47
	C1.73,1.21,1.52,1,1.26,1S0.78,1.21,0.78,1.47c0,4.07,2.94,7.58,6.89,8.35c0.11,0.61,0.57,1.1,1.15,1.27v1.5
	c-0.8-0.43-1.84-0.26-2.45,0.53c-0.61,0.79-0.49,1.93,0.21,2.64l1.92,1.94c0.44,0.44,1.14,0.44,1.57,0l1.92-1.94
	c0.7-0.71,0.82-1.85,0.21-2.64c-0.61-0.79-1.64-0.96-2.45-0.53v-1.5C10.36,10.91,10.81,10.43,10.92,9.82z M10.57,13.82
	c0.23-0.25,0.61-0.25,0.85-0.01c0.23,0.25,0.24,0.65,0.01,0.9l-1.27,1.37c-0.23,0.25-0.53,0.38-0.86,0.38
	c-0.32,0-0.63-0.13-0.86-0.38l-1.27-1.37c-0.23-0.25-0.23-0.65,0.01-0.9c0.23-0.25,0.62-0.24,0.85,0.01L9.3,15.2L10.57,13.82z
	 M9.3,10.22c-0.39,0-0.71-0.32-0.71-0.71S8.91,8.8,9.3,8.8s0.71,0.32,0.71,0.71S9.69,10.22,9.3,10.22z"/>
</svg>
