<?xml version="1.0" encoding="UTF-8"?>
<svg id="Layer_2" data-name="Layer 2" xmlns="http://www.w3.org/2000/svg" viewBox="0 0 17.1 17.1">
  <defs>
    <style>
      .cls-1 {
        fill: #606060;
        stroke-width: 0px;
      }
    </style>
  </defs>
  <g id="Layer_1-2" data-name="Layer 1">
    <g>
      <path class="cls-1" d="m15.3,9.14h0s-13.5,0-13.5,0c-.99,0-1.8.81-1.8,1.8v4.37c0,.99.81,1.8,1.8,1.8h13.5c.99,0,1.8-.81,1.8-1.8v-4.36c0-.99-.81-1.8-1.8-1.8Zm.78,6.11c0,.48-.4.88-.89.88H1.91c-.49,0-.89-.39-.89-.88v-4.26c0-.49.4-.88.89-.88h13.29c.49,0,.89.39.89.88v4.26Z"/>
      <path class="cls-1" d="m15.3,0H1.8C.81,0,0,.81,0,1.8v4.36c0,.99.81,1.8,1.8,1.8h13.5c.99,0,1.8-.81,1.8-1.8V1.8c0-.99-.81-1.8-1.8-1.8Zm.78,6.11c0,.48-.4.88-.89.88H1.91c-.49,0-.89-.39-.89-.88V1.85c0-.49.4-.88.89-.88h13.29c.49,0,.89.39.89.88v4.26Z"/>
    </g>
  </g>
</svg>