<?xml version="1.0" encoding="UTF-8"?>
<svg id="Layer_2" data-name="Layer 2" xmlns="http://www.w3.org/2000/svg" viewBox="0 0 21.33 23.12">
  <defs>
    <style>
      .cls-1 {
        fill: #af2a30;
      }

      .cls-1, .cls-2, .cls-3 {
        fill-rule: evenodd;
        stroke-width: 0px;
      }

      .cls-2 {
        fill: #f99d28;
      }

      .cls-3 {
        fill: #fff;
      }
    </style>
  </defs>
  <g id="Layer_1-2" data-name="Layer 1">
    <g>
      <path class="cls-2" d="m6.02,5.02C11.31-.23,17.71-1.57,20.27,2c2.56,3.59.31,10.79-4.98,16.02-5.29,5.25-11.69,6.6-14.24,3.02-2.54-3.57-.31-10.77,4.98-16.02"/>
      <path class="cls-1" d="m9.54,2.23c-.57.43-1.17.94-1.76,1.5C3.14,8.3,1.22,14.58,3.51,17.72c2.36,3.14,8.06,1.99,12.76-2.63,2.54-2.46,4.25-5.35,4.96-8.02.21-1.97-.08-3.71-.96-5.03-2.03-2.79-6.38-2.58-10.73.2"/>
      <path class="cls-3" d="m12.15,20.63c-2.48,1.85-5.03,2.79-7.53,2.4,1.05.06,1.89-1.11,2.6-2.67.7-1.6,1.13-3.08,1.46-4.47.49-2.2.53-3.77.27-4.1-.43-.57-1.39-.41-2.48.21-.53.29-1.21.1-.39-.9.84-1,4.12-3.41,5.31-3.79,1.31-.37,2.79.14,2.28,1.56-.35,1.01-4.92,13-1.52,11.75M15.88,2.07c.62.62.23,1.97-.8,3.02-1.05,1.05-2.44,1.42-3.04.82-.64-.6-.25-1.97.8-3.04,1.07-1.07,2.46-1.4,3.04-.8"/>
    </g>
  </g>
</svg>