<?xml version="1.0" encoding="utf-8"?>
<!-- Generator: Adobe Illustrator 27.8.0, SVG Export Plug-In . SVG Version: 6.00 Build 0)  -->
<svg version="1.1" id="Layer_1" xmlns="http://www.w3.org/2000/svg" xmlns:xlink="http://www.w3.org/1999/xlink" x="0px" y="0px"
	 viewBox="0 0 17.49 17.73" style="enable-background:new 0 0 17.49 17.73;" xml:space="preserve">
<style type="text/css">
	.st0{fill-rule:evenodd;clip-rule:evenodd;fill:#4C0C4B;}
</style>
<path class="st0" d="M15.81,11.66c0,1.48-1.2,2.68-2.68,2.68H4.35c-1.48,0-2.68-1.2-2.68-2.68V6.07c0-0.49,0.14-0.96,0.37-1.35
	L6.33,9c0.64,0.64,1.5,1,2.41,1c0.91,0,1.77-0.35,2.41-1l4.29-4.29c0.23,0.4,0.37,0.86,0.37,1.35L15.81,11.66L15.81,11.66z
	 M13.14,3.39H4.35c-0.61,0-1.17,0.21-1.62,0.55l4.33,4.33c0.45,0.45,1.05,0.69,1.69,0.69c0.64,0,1.24-0.25,1.68-0.69l4.33-4.33
	C14.31,3.6,13.75,3.39,13.14,3.39L13.14,3.39z M13.14,2.36H4.35c-2.05,0-3.71,1.66-3.71,3.71v5.59c0,2.05,1.66,3.71,3.71,3.71h8.78
	c2.05,0,3.71-1.66,3.71-3.71V6.07C16.85,4.02,15.18,2.36,13.14,2.36L13.14,2.36z"/>
</svg>
