<?xml version="1.0" encoding="UTF-8"?>
<svg id="Layer_2" data-name="Layer 2" xmlns="http://www.w3.org/2000/svg" viewBox="0 0 19.74 18.67">
  <defs>
    <style>
      .cls-1 {
        fill: #4c0c4b;
        stroke-width: 0px;
      }
    </style>
  </defs>
  <g id="Layer_1-2" data-name="Layer 1">
    <g>
      <g>
        <path class="cls-1" d="m1.1,16.51c.04-.11.07-.22.13-.32.22-.41.56-.63,1.03-.64.58,0,1.15,0,1.73,0,2.23,0,4.47.01,6.7,0,.77,0,1.35.53,1.31,1.32-.01.24,0,.49-.01.73-.05.52-.38.9-.88,1.04-.03,0-.05.02-.08.03H2.08c-.17-.08-.36-.14-.52-.24-.27-.17-.38-.45-.47-.74,0-.39,0-.78,0-1.17Zm5.45-.18c-1.39,0-2.78,0-4.17,0-.37,0-.5.14-.5.51,0,.16,0,.33,0,.49,0,.44.12.56.56.56,2.74,0,5.48,0,8.22,0,.05,0,.1,0,.15,0,.26-.02.4-.16.4-.42,0-.21,0-.43,0-.64,0-.38-.13-.5-.5-.5-1.38,0-2.77,0-4.15,0Z"/>
        <path class="cls-1" d="m11.4,8.74c-.24.18-.45.36-.68.51-.26.17-.55.31-.82.47-.05.03-.1.09-.1.14,0,.37-.14.67-.41.92-.17.16-.32.33-.49.49-.47.45-1.16.46-1.63,0-.92-.91-1.84-1.82-2.75-2.74-.46-.46-.45-1.15,0-1.62.13-.13.26-.25.38-.39.3-.33.65-.55,1.08-.5.91-1.66,2.18-2.95,3.75-3.94.27-.17.47-.28.51-.65.04-.45.93-1.28,1.38-1.38.4-.09.77-.01,1.06.28.94.92,1.87,1.85,2.79,2.8.44.45.41,1.13-.01,1.58-.19.2-.38.39-.58.58-.23.22-.51.32-.83.32-.05,0-.13.03-.14.07-.23.55-.59,1.01-.96,1.47,0,0,0,.02-.02.04.43.38.87.75,1.3,1.13,1.54,1.39,3.08,2.77,4.61,4.17.27.25.51.55.69.87.53.94-.1,2.1-1.18,2.2-.49.05-.9-.17-1.24-.49-.43-.39-.84-.81-1.23-1.24-1.49-1.66-2.97-3.33-4.45-5-.02-.03-.04-.06-.06-.09Zm-4.64-2.42c.03.05.05.11.09.15.85.85,1.69,1.69,2.54,2.53.04.04.15.06.2.04.21-.11.42-.22.61-.36.8-.56,1.51-1.23,2.13-1.98.32-.39.58-.82.86-1.24.09-.13.06-.23-.06-.35-.8-.79-1.6-1.59-2.4-2.39q-.2-.2-.44-.07c-.09.05-.18.1-.27.16-.71.46-1.34,1.01-1.9,1.64-.41.46-.77.96-1.15,1.45-.09.12-.14.27-.21.42Zm5.2,1.91c.28.32.54.64.82.94,1.48,1.65,2.96,3.3,4.46,4.94.19.21.43.4.67.55.33.2.56.15.83-.12.28-.28.33-.5.12-.83-.15-.24-.34-.48-.55-.67-1.72-1.56-3.45-3.11-5.17-4.66-.23-.21-.47-.41-.71-.61-.16.16-.31.31-.47.47Zm-7.01-.5c.07.11.13.23.21.31.42.43.85.85,1.27,1.28.44.44.88.89,1.33,1.33.24.24.43.24.67,0,.16-.15.31-.31.46-.46.18-.19.18-.4,0-.58-.9-.9-1.79-1.8-2.69-2.69-.18-.18-.38-.18-.56,0-.18.17-.36.35-.53.53-.06.07-.1.17-.16.29Zm10.11-3.83c-.06-.11-.09-.22-.16-.29-.89-.9-1.79-1.8-2.69-2.69-.18-.18-.39-.18-.58,0-.17.16-.34.33-.5.5-.19.19-.18.4,0,.59.89.89,1.79,1.79,2.68,2.68.19.18.39.19.58,0,.18-.17.35-.34.51-.52.07-.07.1-.17.16-.28Z"/>
      </g>
      <g>
        <path class="cls-1" d="m3.84,13.23c-.11-.05-.17-.07-.23-.11-.82-.49-1.63-.98-2.45-1.48-.18-.11-.22-.25-.13-.38.08-.13.22-.14.39-.03.82.49,1.65.99,2.47,1.48.12.07.21.16.15.3-.04.09-.13.15-.2.22Z"/>
        <path class="cls-1" d="m3.24,14.13c-.74-.08-1.42-.15-2.11-.21-.3-.03-.59-.06-.89-.09-.16-.02-.26-.11-.24-.27.02-.16.13-.23.29-.21.98.1,1.96.19,2.94.29.16.02.25.1.25.27,0,.15-.13.24-.25.23Z"/>
        <path class="cls-1" d="m4.31,12.26s-.12-.07-.17-.13c-.55-.82-1.1-1.64-1.64-2.45-.09-.14-.08-.26.05-.36.12-.09.27-.05.36.09.22.33.44.67.67,1,.32.49.65.97.97,1.46.12.18.02.39-.24.39Z"/>
      </g>
    </g>
  </g>
</svg>