<?xml version="1.0" encoding="utf-8"?>
<!-- Generator: Adobe Illustrator 27.8.0, SVG Export Plug-In . SVG Version: 6.00 Build 0)  -->
<svg version="1.1" id="Layer_1" xmlns="http://www.w3.org/2000/svg" xmlns:xlink="http://www.w3.org/1999/xlink" x="0px" y="0px"
	 viewBox="0 0 15.93 16.49" style="enable-background:new 0 0 15.93 16.49;" xml:space="preserve">
<style type="text/css">
	.st0{fill:#4C0C4B;}
</style>
<g>
	<path class="st0" d="M6.14,16.09c-0.13,0-0.26,0-0.39,0c-0.13-0.02-0.27-0.03-0.4-0.06c-0.45-0.1-0.84-0.3-1.13-0.66
		c-0.26-0.31-0.38-0.67-0.44-1.07c-0.01-0.04-0.02-0.05-0.05-0.06c-0.07-0.01-0.15-0.02-0.22-0.04c-0.35-0.08-0.67-0.23-0.94-0.48
		c-0.36-0.33-0.53-0.76-0.6-1.23c-0.01-0.05-0.02-0.06-0.07-0.07c-0.09-0.01-0.19-0.03-0.28-0.05c-0.64-0.16-1.09-0.54-1.33-1.15
		c-0.19-0.47-0.19-0.97-0.13-1.46c0.06-0.42,0.17-0.83,0.32-1.23c0.27-0.74,0.65-1.43,1.09-2.09C2.39,5.19,3.39,4.09,4.51,3.1
		c0.79-0.7,1.64-1.32,2.57-1.82c0.72-0.39,1.47-0.7,2.29-0.83c0.42-0.07,0.84-0.08,1.26,0.02c0.58,0.14,1.02,0.45,1.3,0.99
		c0.11,0.22,0.18,0.46,0.21,0.71c0,0.03,0,0.07,0.06,0.08c0.11,0.01,0.21,0.03,0.31,0.06c0.62,0.16,1.06,0.53,1.3,1.12
		c0.07,0.18,0.12,0.37,0.15,0.56c0.01,0.04,0.02,0.06,0.07,0.07c0.11,0.02,0.23,0.04,0.34,0.07c0.45,0.13,0.82,0.38,1.08,0.78
		c0.25,0.38,0.35,0.81,0.36,1.26c0.01,0.49-0.09,0.97-0.23,1.43c-0.21,0.67-0.52,1.3-0.88,1.91c-0.49,0.82-1.06,1.58-1.69,2.29
		c-0.82,0.91-1.71,1.74-2.7,2.47c-0.81,0.59-1.67,1.1-2.61,1.46c-0.38,0.15-0.78,0.26-1.18,0.32C6.39,16.06,6.27,16.08,6.14,16.09z
		 M11,2.62c-0.01-0.09-0.01-0.19-0.03-0.28c-0.05-0.35-0.24-0.6-0.59-0.69c-0.16-0.05-0.33-0.06-0.5-0.05
		c-0.3,0.02-0.58,0.08-0.87,0.17C8.35,1.97,7.74,2.28,7.16,2.64C6.44,3.08,5.78,3.59,5.15,4.15C4.52,4.72,3.93,5.33,3.4,5.99
		C2.86,6.65,2.38,7.35,1.98,8.11C1.74,8.57,1.54,9.04,1.41,9.55c-0.08,0.32-0.13,0.64-0.08,0.97c0.05,0.33,0.22,0.58,0.55,0.68
		c0.16,0.05,0.33,0.06,0.51,0.06c0.31-0.01,0.61-0.08,0.91-0.17c0.74-0.23,1.42-0.6,2.07-1.01c1.17-0.75,2.2-1.67,3.12-2.71
		c0.53-0.6,1.01-1.23,1.43-1.91c0.34-0.55,0.64-1.12,0.85-1.74C10.9,3.36,10.98,3,11,2.62z M4.98,14.19
		c0.04,0.24,0.13,0.44,0.34,0.56c0.13,0.08,0.27,0.11,0.41,0.12c0.34,0.04,0.67-0.02,1-0.1c0.59-0.15,1.13-0.4,1.65-0.7
		c1.04-0.59,1.97-1.32,2.83-2.15c0.7-0.67,1.34-1.41,1.9-2.2c0.45-0.64,0.85-1.3,1.14-2.03c0.17-0.42,0.3-0.85,0.34-1.31
		c0.02-0.23,0.01-0.45-0.08-0.67c-0.1-0.26-0.36-0.45-0.62-0.45c0,0.02-0.01,0.03-0.01,0.05c-0.05,0.18-0.09,0.37-0.15,0.55
		c-0.21,0.65-0.51,1.26-0.85,1.84c-0.49,0.82-1.06,1.58-1.7,2.29c-0.56,0.63-1.15,1.21-1.79,1.75c-0.7,0.59-1.44,1.13-2.24,1.57
		c-0.56,0.31-1.15,0.58-1.77,0.76C5.25,14.12,5.12,14.15,4.98,14.19z M12.08,3.45c-0.08,0.38-0.19,0.74-0.34,1.1
		c-0.26,0.64-0.59,1.24-0.97,1.82C10.3,7.11,9.74,7.8,9.14,8.45c-0.53,0.58-1.1,1.12-1.71,1.62c-0.65,0.54-1.34,1.03-2.08,1.44
		c-0.57,0.32-1.17,0.59-1.8,0.76c-0.13,0.04-0.26,0.07-0.38,0.1c0.02,0.34,0.25,0.59,0.6,0.67c0.31,0.07,0.62,0.04,0.93-0.03
		c0.5-0.1,0.97-0.29,1.43-0.52c0.01,0,0.01-0.01,0.02-0.02c-0.44-0.02-0.65-0.4-0.6-0.69c0.06-0.36,0.39-0.59,0.73-0.5
		c0.17,0.04,0.3,0.14,0.38,0.29c0.12,0.21,0.11,0.42-0.01,0.64c1.1-0.63,2.07-1.41,2.96-2.3c0.89-0.89,1.67-1.86,2.3-2.96
		c-0.41,0.23-0.8-0.01-0.9-0.3c-0.12-0.33,0.06-0.69,0.4-0.79c0.17-0.05,0.33-0.03,0.48,0.06c0.19,0.12,0.28,0.29,0.29,0.52
		c0.01-0.01,0.01-0.01,0.02-0.02c0.27-0.55,0.49-1.12,0.57-1.74C12.81,4.45,12.8,4.23,12.74,4C12.66,3.68,12.39,3.46,12.08,3.45z"/>
	<path class="st0" d="M2.28,10.35c0.07-0.16,0.13-0.32,0.2-0.47c0.42-0.93,0.97-1.79,1.59-2.59C4.61,6.6,5.2,5.96,5.84,5.36
		c0.78-0.73,1.62-1.39,2.53-1.95c0.53-0.32,1.07-0.6,1.65-0.82c0.02-0.01,0.04-0.01,0.07-0.02c0.01,0.18-0.02,0.34-0.06,0.5
		C9.94,3.4,9.82,3.72,9.67,4.03C9.66,4.05,9.63,4.08,9.61,4.09C8.69,4.57,7.86,5.18,7.07,5.86C6.45,6.41,5.87,7,5.34,7.64
		c-0.58,0.7-1.11,1.44-1.53,2.25C3.8,9.91,3.78,9.93,3.75,9.95c-0.37,0.17-0.74,0.32-1.15,0.39c-0.1,0.02-0.21,0.02-0.31,0.03
		C2.29,10.36,2.29,10.36,2.28,10.35z"/>
	<path class="st0" d="M9.77,9.45c0,0.33-0.27,0.6-0.6,0.6c-0.33,0-0.61-0.28-0.6-0.61c0-0.33,0.28-0.6,0.61-0.6
		C9.5,8.85,9.78,9.12,9.77,9.45z"/>
</g>
</svg>
