<?xml version="1.0" encoding="UTF-8"?>
<svg id="Layer_2" data-name="Layer 2" xmlns="http://www.w3.org/2000/svg" viewBox="0 0 13 13">
  <defs>
    <style>
      .cls-1 {
        fill: #7e3080;
        stroke-width: 0px;
      }
    </style>
  </defs>
  <g id="Layer_1-2" data-name="Layer 1">
    <g>
      <path class="cls-1" d="m7.37,9.16c-.13.01-.27-.02-.38-.09-.08-.09-.12-.21-.11-.32,0-.1.01-.2.04-.3.02-.11.05-.22.08-.33l.35-1.2c.04-.12.06-.24.07-.36,0-.13.02-.22.02-.28,0-.24-.09-.46-.27-.62-.22-.17-.5-.25-.78-.24-.2,0-.4.04-.59.1-.21.06-.43.14-.66.23l-.1.39c.07-.02.15-.05.25-.08.09-.03.18-.04.28-.04.13-.01.26.02.38.09.08.09.11.21.1.32,0,.1-.01.2-.03.3-.02.1-.05.21-.08.33l-.35,1.21c-.03.11-.05.23-.07.34-.01.1-.02.2-.02.3,0,.24.11.46.3.61.23.17.51.26.79.24.2,0,.4-.02.59-.09.17-.06.39-.14.67-.25l.09-.37c-.08.03-.15.06-.23.08-.1.02-.2.03-.31.03Z"/>
      <path class="cls-1" d="m7.74,3.47c-.16-.15-.37-.23-.59-.22-.22,0-.43.07-.59.22-.3.25-.33.7-.07,1,.02.03.05.05.07.07.34.3.85.3,1.18,0,.3-.26.33-.71.07-1-.02-.02-.04-.05-.07-.07Z"/>
      <path class="cls-1" d="m6.5,0C2.91,0,0,2.91,0,6.5s2.91,6.5,6.5,6.5,6.5-2.91,6.5-6.5S10.09,0,6.5,0Zm0,12.41c-3.26,0-5.91-2.65-5.91-5.91S3.24.59,6.5.59s5.91,2.65,5.91,5.91-2.65,5.91-5.91,5.91Z"/>
    </g>
  </g>
</svg>