<?xml version="1.0" encoding="UTF-8"?>
<svg id="Layer_2" data-name="Layer 2" xmlns="http://www.w3.org/2000/svg" viewBox="0 0 14.36 14.36">
  <defs>
    <style>
      .cls-1 {
        fill: #4c0c4b;
        stroke: #4c0c4b;
        stroke-miterlimit: 10;
        stroke-width: .28px;
      }
    </style>
  </defs>
  <g id="Layer_1-2" data-name="Layer 1">
    <g>
      <path class="cls-1" d="m.15,2.36c0-.58,0-1.16,0-1.74,0-.34.14-.48.48-.48,1.16,0,2.32,0,3.48,0,.21,0,.45-.01.46.29,0,.33-.26.3-.49.3-.98,0-1.96.01-2.94,0-.31,0-.41.07-.4.39.02.98,0,1.96,0,2.94,0,.22.03.49-.3.49-.33,0-.29-.28-.29-.5,0-.56,0-1.13,0-1.69Z"/>
      <path class="cls-1" d="m12,.15c.57,0,1.13.01,1.7,0,.35,0,.52.11.52.49-.01,1.16,0,2.32,0,3.48,0,.22,0,.45-.3.45-.3,0-.29-.24-.29-.45,0-.98-.02-1.96,0-2.94.01-.37-.11-.44-.45-.43-.97.02-1.93,0-2.9,0-.22,0-.49.03-.48-.31,0-.3.25-.28.46-.28.58,0,1.16,0,1.74,0Z"/>
      <path class="cls-1" d="m2.36,14.21c-.58,0-1.16,0-1.74,0-.34,0-.48-.14-.48-.48,0-1.16,0-2.32,0-3.48,0-.21,0-.45.29-.45.3,0,.3.23.3.44,0,1,.01,1.99,0,2.99,0,.31.08.4.4.4.98-.02,1.96,0,2.95,0,.22,0,.49-.03.49.3,0,.33-.28.29-.5.29-.57,0-1.13,0-1.7,0Z"/>
      <path class="cls-1" d="m14.21,12c0,.56-.01,1.13,0,1.69.01.39-.15.52-.53.52-1.14-.01-2.29,0-3.43,0-.22,0-.45,0-.45-.29,0-.3.23-.3.45-.3,1.01,0,2.02,0,3.03,0,.28,0,.35-.08.35-.35-.02-1,0-1.99,0-2.99,0-.22-.03-.49.3-.48.33,0,.28.28.29.5,0,.56,0,1.13,0,1.69Z"/>
      <path class="cls-1" d="m12.06,11.04c-.09-.08-.2-.13-.3-.19-.75-.48-1.61-.66-2.46-.89-.44-.12-.74-.67-.54-1,.72-1.19,1.07-2.51,1.23-3.86.19-1.66-.87-2.9-2.43-3.03-1.73-.14-3.06.89-3.19,2.56-.11,1.46.41,2.8,1.05,4.08.3.59.09,1.1-.53,1.27-.79.21-1.58.41-2.28.86-.09.1-.22.13-.32.22-.11.1-.22.21-.15.37.08.17.21.23.39.13.63-.42,1.34-.67,2.05-.89.38-.09.43.28.62.45,1.1,1.01,2.9,1.01,3.93,0,.21-.19.27-.61.7-.44.65.24,1.33.42,1.9.85.15.11.34.12.46-.08.12-.19-.03-.31-.15-.41Zm-7.11-6.04c-.04-2.21,2.04-2.82,3.5-2.06.68.36,1.05,1.17.9,1.94-.38-.34-.76-.66-1.13-1-.19-.18-.4-.22-.65-.15-.52.13-1.04.24-1.51.51-.14.08-.28.17-.4.27-.14.11-.29.24-.15.45.16.22.32.14.49.01.45-.34.97-.5,1.51-.62.21-.05.38-.02.53.13.2.2.41.39.62.58.38.33.54.73.4,1.23-.17.57-.26,1.15-.44,1.71-.12.36-.33.66-.6.92-.59.59-1.09.59-1.69,0-.12-.11-.23-.24-.31-.38-.63-1.1-1.04-2.29-1.06-3.54Zm3.48,5.94c-.84.52-2.02.45-2.74-.18-.15-.13-.38-.27,0-.41.15-.06.2-.23.23-.36.1-.42.32-.43.62-.21.42.18.84.17,1.26,0q.39-.23.69.37s.01.06.03.08c.38.36.37.42-.1.71Z"/>
    </g>
  </g>
</svg>