<?xml version="1.0" encoding="utf-8"?>
<!-- Generator: Adobe Illustrator 27.8.0, SVG Export Plug-In . SVG Version: 6.00 Build 0)  -->
<svg version="1.1" id="Layer_1" xmlns="http://www.w3.org/2000/svg" xmlns:xlink="http://www.w3.org/1999/xlink" x="0px" y="0px"
	 viewBox="0 0 17.49 15.5" style="enable-background:new 0 0 17.49 15.5;" xml:space="preserve">
<style type="text/css">
	.st0{fill:#4C0C4B;}
</style>
<g>
	<g>
		<g>
			<g>
				<path class="st0" d="M10.11,8.45c0.28-0.3,0.45-0.71,0.45-1.15c0-0.94-0.76-1.7-1.7-1.7c-0.94,0-1.7,0.76-1.7,1.7
					c0,0.94,0.76,1.7,1.7,1.7C9.35,9.01,9.8,8.79,10.11,8.45 M8.85,8.2c-0.49,0-0.89-0.4-0.89-0.89s0.4-0.89,0.89-0.89l0,0
					c0.49,0,0.89,0.4,0.89,0.89S9.34,8.2,8.85,8.2z"/>
				<path class="st0" d="M15.65,1.7L4.57,0.45c-0.43-0.06-0.87,0.06-1.2,0.34C3.04,1.05,2.83,1.43,2.79,1.85l-0.2,1.66H1.95
					c-0.89,0-1.56,0.79-1.56,1.68v8.3c-0.02,0.85,0.65,1.56,1.5,1.58c0.02,0,0.04,0,0.06,0h11.14c0.89,0,1.7-0.69,1.7-1.58v-0.32
					c0.28-0.05,0.54-0.16,0.77-0.32c0.33-0.28,0.54-0.67,0.59-1.1l0.93-8.24C17.18,2.62,16.54,1.81,15.65,1.7z M13.98,13.49
					c0,0.45-0.45,0.77-0.89,0.77H1.95c-0.4,0.01-0.74-0.31-0.75-0.71c0-0.02,0-0.04,0-0.06v-1.5l3.14-2.31
					c0.38-0.29,0.91-0.26,1.26,0.06l2.21,1.95c0.34,0.28,0.76,0.44,1.2,0.45c0.34,0,0.68-0.09,0.97-0.26l4-2.31L13.98,13.49
					L13.98,13.49z M13.98,8.6l-4.42,2.58c-0.38,0.22-0.86,0.18-1.2-0.1L6.13,9.11C5.49,8.56,4.56,8.53,3.88,9.03L1.2,10.97V5.19
					c0-0.45,0.3-0.87,0.75-0.87h11.14c0.48,0.02,0.86,0.4,0.89,0.87L13.98,8.6L13.98,8.6z M16.28,3.4
					C16.28,3.4,16.28,3.41,16.28,3.4l-0.95,8.24c0,0.21-0.1,0.42-0.26,0.55c-0.08,0.08-0.26,0.12-0.26,0.16V5.19
					c-0.03-0.92-0.78-1.66-1.7-1.68h-9.7l0.18-1.58c0.04-0.2,0.15-0.39,0.3-0.53c0.18-0.12,0.39-0.18,0.61-0.16l11.05,1.28
					C15.99,2.56,16.32,2.95,16.28,3.4z"/>
			</g>
		</g>
	</g>
</g>
</svg>
