<?xml version="1.0" encoding="utf-8"?>
<!-- Generator: Adobe Illustrator 27.8.0, SVG Export Plug-In . SVG Version: 6.00 Build 0)  -->
<svg version="1.1" id="Layer_2_00000088820463275636683620000010650358843494549435_"
	 xmlns="http://www.w3.org/2000/svg" xmlns:xlink="http://www.w3.org/1999/xlink" x="0px" y="0px" viewBox="0 0 161 132.8"
	 style="enable-background:new 0 0 161 132.8;" xml:space="preserve">
<style type="text/css">
	.st0{fill:#212121;}
	.st1{font-family:'Lato-Regular';}
	.st2{font-size:22.96px;}
	.st3{fill:#FFFFFF;}
</style>
<g>
	<text transform="matrix(1 0 0 1 2.34 118.07)" class="st0 st1 st2">No result found</text>
	<g>
		<path d="M126.1,28.6c1.4,0.3,2.5,1.1,3.2,2.5c1.5,3.3-0.6,7.1-3.9,7.1c-4.2,0-8.4,0-12.6,0c-1.8,0-3.6,0-5.3,0
			c-2.7,0-4.9-2.5-4.9-5.6c0-3.5,2.9-6.1,6-5.4c0.1,0,0.1,0,0.1,0c0.1-0.6,0.1-1.3,0.3-1.9c0.7-2.8,2.3-4.5,4.8-5s4.6,0.5,6.1,2.7
			c0.1,0.2,0.2,0.3,0.4,0.2c3.1-1.1,5.9,1.5,5.7,5.1C126.1,28.5,126.1,28.5,126.1,28.6L126.1,28.6z M120.9,24.6
			c0.1,0.9,0.2,1.6,0.3,2.4c0.1,0.5-0.2,0.8-0.6,0.8c-0.4,0-0.6-0.3-0.6-0.8c0-0.2,0-0.5-0.1-0.7c-0.4-2.9-2.7-5-5.3-4.7
			c-2.6,0.2-4.6,2.8-4.5,5.7c0,0.4,0.1,0.8,0.4,1c0.1,0.1,0.2,0.2,0.4,0.3c1,1,1.5,2.2,1.6,3.6c0,0.4-0.2,0.8-0.5,0.8
			c-0.3,0.1-0.6-0.2-0.7-0.6c0-0.1,0-0.2-0.1-0.3c-0.4-2.5-2.7-4.1-4.8-3.3c-1.7,0.6-2.8,2.6-2.5,4.5c0.3,2.1,1.8,3.6,3.6,3.6
			c1.6,0,3.2,0,4.8,0c4.4,0,8.8,0,13.2,0c2.1,0,3.6-2.2,3-4.4c-0.7-2.5-3.4-3.3-5.1-1.5c-0.4,0.4-0.7,0.5-1,0.2s-0.3-0.7,0.1-1.2
			c0.5-0.5,1-0.9,1.7-1.2c0.8-0.3,0.8-0.4,0.7-1.3c0-0.1,0-0.3-0.1-0.4C124.4,25.1,122.4,23.8,120.9,24.6L120.9,24.6z"/>
		<path class="st3" d="M120.9,24.6c0.1,0.9,0.2,1.6,0.3,2.4c0.1,0.5-0.2,0.8-0.6,0.8c-0.4,0-0.6-0.3-0.6-0.8c0-0.2,0-0.5-0.1-0.7
			c-0.4-2.9-2.7-5-5.3-4.7c-2.6,0.2-4.6,2.8-4.5,5.7c0,0.4,0.1,0.8,0.4,1c0.1,0.1,0.2,0.2,0.4,0.3c1,1,1.5,2.2,1.6,3.6
			c0,0.4-0.2,0.8-0.5,0.8c-0.3,0.1-0.6-0.2-0.7-0.6c0-0.1,0-0.2-0.1-0.3c-0.4-2.5-2.7-4.1-4.8-3.3c-1.7,0.6-2.8,2.6-2.5,4.5
			c0.3,2.1,1.8,3.6,3.6,3.6c1.6,0,3.2,0,4.8,0c4.4,0,8.8,0,13.2,0c2.1,0,3.6-2.2,3-4.4c-0.7-2.5-3.4-3.3-5.1-1.5
			c-0.4,0.4-0.7,0.5-1,0.2s-0.3-0.7,0.1-1.2c0.5-0.5,1-0.9,1.7-1.2c0.8-0.3,0.8-0.4,0.7-1.3c0-0.1,0-0.3-0.1-0.4
			C124.4,25.1,122.4,23.8,120.9,24.6L120.9,24.6z"/>
	</g>
	<path d="M126.1,75l-19.7-19.7c9.4-10.6,9-26.8-1.1-36.8C94.8,8,77.8,8,67.3,18.5s-10.5,27.5,0,38c10.1,10.1,26.3,10.5,36.8,1.1
		l19.7,19.7C125.4,78.6,127.6,76.4,126.1,75z"/>
	<path class="st3" d="M86.4,62.1c-13.6,0-24.7-11-24.7-24.7s11.1-24.7,24.7-24.7s24.7,11,24.7,24.7S100,62.1,86.4,62.1L86.4,62.1z"
		/>
	<g>
		<path d="M67.2,44.4c2.2,0.4,3.9,1.5,4.9,3.5c2.4,4.5-0.9,9.7-6,9.7c-6.4,0-12.9,0-19.3,0c-2.7,0-5.5,0-8.2,0
			c-4.2,0-7.6-3.4-7.5-7.6c0-4.8,4.4-8.4,9.2-7.4c0.1,0,0.1,0,0.2,0c0.1-0.9,0.2-1.8,0.4-2.6c1.1-3.8,3.6-6.2,7.4-6.9
			c3.8-0.7,7,0.6,9.4,3.7c0.2,0.2,0.3,0.4,0.7,0.2c4.8-1.5,9.1,2,8.7,7C67.2,44.2,67.2,44.2,67.2,44.4L67.2,44.4z M59.2,38.9
			c0.2,1.2,0.4,2.2,0.5,3.3c0.1,0.7-0.4,1.1-0.9,1.1c-0.6,0-0.9-0.4-0.9-1.1c0-0.3,0-0.7-0.1-1c-0.6-4-4.2-6.8-8.1-6.5
			c-4,0.4-7.1,3.8-7,7.8c0,0.6,0.1,1,0.7,1.3c0.2,0.1,0.4,0.3,0.6,0.4c1.5,1.3,2.3,3,2.5,5c0.1,0.6-0.3,1-0.8,1.1s-1-0.3-1.1-0.9
			c0-0.2-0.1-0.3-0.1-0.5c-0.6-3.5-4.1-5.6-7.4-4.5c-2.6,0.9-4.2,3.5-3.9,6.1c0.4,2.9,2.7,4.9,5.5,5c2.4,0,4.9,0,7.3,0
			c6.8,0,13.5,0,20.3,0c3.2,0,5.5-3,4.6-6c-1-3.5-5.3-4.6-7.9-2c-0.6,0.6-1.1,0.7-1.5,0.2c-0.5-0.4-0.4-1,0.2-1.6
			c0.7-0.7,1.6-1.3,2.6-1.6c1.1-0.4,1.2-0.5,1.1-1.7c0-0.2-0.1-0.4-0.1-0.6C64.7,39.6,61.6,37.8,59.2,38.9L59.2,38.9z"/>
		<path class="st3" d="M59.1,38.9c0.2,1.2,0.4,2.2,0.5,3.3c0.1,0.7-0.4,1.1-0.9,1.1c-0.6,0-0.9-0.4-0.9-1.1c0-0.3,0-0.7-0.1-1
			c-0.6-4-4.2-6.8-8.1-6.5c-4,0.4-7.1,3.8-7,7.8c0,0.6,0.1,1,0.7,1.3c0.2,0.1,0.4,0.3,0.6,0.4c1.5,1.3,2.3,3,2.5,5
			c0.1,0.6-0.3,1-0.8,1.1s-1-0.3-1.1-0.9c0-0.2-0.1-0.3-0.1-0.5c-0.6-3.5-4.1-5.6-7.4-4.5c-2.6,0.9-4.2,3.5-3.9,6.1
			c0.4,2.9,2.7,4.9,5.5,5c2.4,0,4.9,0,7.3,0c6.8,0,13.5,0,20.3,0c3.2,0,5.5-3,4.6-6c-1-3.5-5.3-4.6-7.9-2c-0.6,0.6-1.1,0.7-1.5,0.2
			c-0.5-0.4-0.4-1,0.2-1.6c0.7-0.7,1.6-1.3,2.6-1.6c1.1-0.4,1.2-0.5,1.1-1.7c0-0.2-0.1-0.4-0.1-0.6C64.7,39.6,61.5,37.8,59.1,38.9
			L59.1,38.9z"/>
	</g>
	<g>
		<path d="M90.2,37.1c-0.3,0-0.5,0.2-0.5,0.5s0.2,0.5,0.5,0.5s0.5-0.2,0.5-0.5S90.4,37.1,90.2,37.1z"/>
		<path d="M75.5,36L75.5,36L75.5,36L87,48.7c0.1,0.1,0.2,0.1,0.4,0.1s0.3-0.1,0.4-0.1L99.3,36l0,0l0,0c0.1-0.2,0.1-0.4,0-0.6l0,0
			l-3.8-4.7c-0.1-0.1-0.2-0.2-0.4-0.2H79.5c-0.1,0-0.3,0.1-0.4,0.2l-3.8,4.7l0,0C75.3,35.6,75.3,35.8,75.5,36L75.5,36z M84.8,31.5
			h5.1l2.2,3.8h-9.6L84.8,31.5L84.8,31.5z M82.4,36.2h9.8l-4.9,11.1L82.4,36.2L82.4,36.2z M93.3,36.2h4.5L89,46L93.3,36.2z
			 M81.4,36.2l4.3,9.8l-8.9-9.8H81.4z M97.9,35.2h-4.7L91,31.4h3.9L97.9,35.2z M79.8,31.5h3.9l-2.2,3.8h-4.7L79.8,31.5z"/>
		<path d="M88.3,37.1h-3.5c-0.3,0-0.5,0.2-0.5,0.5s0.2,0.5,0.5,0.5h3.5c0.3,0,0.5-0.2,0.5-0.5S88.5,37.1,88.3,37.1z"/>
	</g>
</g>
</svg>
