<?xml version="1.0" encoding="UTF-8"?>
<svg id="Layer_2" data-name="Layer 2" xmlns="http://www.w3.org/2000/svg" viewBox="0 0 144.01 102.92">
  <defs>
    <style>
      .cls-1, .cls-2 {
        stroke-width: 0px;
      }

      .cls-2 {
        fill: #fff;
      }

      .cls-3 {
        fill: #212121;
        font-family: Lato-Regular, Lato;
        font-size: 21.15px;
      }
    </style>
  </defs>
  <g id="Layer_1-2" data-name="Layer 1">
    <g>
      <text class="cls-3" transform="translate(0 99.06)"><tspan x="0" y="0">No result found</tspan></text>
      <g>
        <path class="cls-1" d="m114.03,16.61c1.32.28,2.32,1.03,2.94,2.35,1.41,3-.51,6.53-3.58,6.54-3.85.01-7.71,0-11.56,0-1.64,0-3.27.01-4.91,0-2.53-.03-4.53-2.31-4.51-5.12.02-3.25,2.65-5.61,5.52-4.95.05.01.09.02.13.02.08-.59.11-1.19.25-1.76.65-2.54,2.14-4.15,4.45-4.63,2.3-.48,4.19.43,5.62,2.5.11.16.19.24.4.17,2.86-1,5.48,1.37,5.24,4.73,0,.04,0,.08,0,.16Zm-4.84-3.67c.11.78.23,1.51.3,2.24.04.46-.21.75-.56.75-.33,0-.55-.27-.57-.71-.01-.22-.03-.45-.06-.67-.35-2.66-2.5-4.57-4.88-4.33-2.41.23-4.23,2.53-4.17,5.23,0,.38.07.7.42.88.13.06.23.19.33.29.88.89,1.39,2,1.51,3.33.04.39-.17.7-.49.75-.31.05-.57-.19-.63-.59-.02-.1-.03-.21-.04-.31-.33-2.32-2.45-3.76-4.44-3.01-1.54.58-2.55,2.36-2.31,4.1.26,1.93,1.62,3.32,3.32,3.35,1.46.02,2.92,0,4.37,0,4.05,0,8.11,0,12.16,0,1.93,0,3.3-2.02,2.77-4.06-.6-2.33-3.17-3.08-4.73-1.38-.36.39-.66.44-.92.16-.28-.3-.24-.66.12-1.07.44-.5.96-.86,1.56-1.07.69-.25.74-.33.66-1.17-.01-.13-.04-.26-.06-.39-.35-1.85-2.23-3.02-3.65-2.31Z"/>
        <path class="cls-2" d="m109.18,12.94c.11.78.23,1.51.3,2.24.04.46-.21.75-.56.75-.33,0-.55-.27-.57-.71-.01-.22-.03-.45-.06-.67-.35-2.66-2.5-4.57-4.88-4.33-2.41.23-4.23,2.53-4.17,5.23,0,.38.07.7.42.88.13.06.23.19.33.29.88.89,1.39,2,1.51,3.33.04.39-.17.7-.49.75-.31.05-.57-.19-.63-.59-.02-.1-.03-.21-.04-.31-.33-2.32-2.45-3.76-4.44-3.01-1.54.58-2.55,2.36-2.31,4.1.26,1.93,1.62,3.32,3.32,3.35,1.46.02,2.92,0,4.37,0,4.05,0,8.11,0,12.16,0,1.93,0,3.3-2.02,2.77-4.06-.6-2.33-3.17-3.08-4.73-1.38-.36.39-.66.44-.92.16-.28-.3-.24-.66.12-1.07.44-.5.96-.86,1.56-1.07.69-.25.74-.33.66-1.17-.01-.13-.04-.26-.06-.39-.35-1.85-2.23-3.02-3.65-2.31Z"/>
      </g>
      <path class="cls-1" d="m114.06,59.34l-18.18-18.15c8.69-9.74,8.29-24.67-.98-33.94-9.67-9.67-25.32-9.67-34.99,0-9.67,9.67-9.67,25.32,0,34.99,9.27,9.27,24.2,9.67,33.94.98l18.15,18.18c1.38,1.34,3.41-.69,2.06-2.06Z"/>
      <path class="cls-2" d="m77.4,47.49c-12.56,0-22.74-10.18-22.74-22.74S64.84,2.01,77.4,2.01s22.74,10.18,22.74,22.74-10.18,22.74-22.74,22.74Z"/>
      <g>
        <path class="cls-1" d="m59.79,31.14c2.03.38,3.57,1.41,4.53,3.22,2.17,4.12-.79,8.96-5.5,8.97-5.92.02-11.84,0-17.77,0-2.51,0-5.03.02-7.54,0-3.88-.04-6.96-3.17-6.94-7.03.03-4.46,4.08-7.7,8.48-6.8.07.01.14.03.19.03.13-.81.17-1.64.39-2.41,1-3.48,3.29-5.7,6.84-6.36,3.53-.66,6.44.58,8.64,3.44.17.22.29.33.61.23,4.4-1.38,8.43,1.88,8.05,6.49,0,.05,0,.11.01.21Zm-7.44-5.04c.16,1.07.35,2.07.46,3.07.07.63-.33,1.03-.86,1.03-.51,0-.84-.38-.88-.98-.02-.31-.04-.62-.08-.92-.54-3.65-3.84-6.27-7.5-5.95-3.7.32-6.51,3.47-6.41,7.17.01.53.1.96.64,1.2.19.09.35.26.51.4,1.36,1.22,2.13,2.75,2.31,4.57.05.54-.27.96-.76,1.03-.48.07-.88-.26-.97-.81-.02-.14-.05-.29-.07-.43-.51-3.18-3.77-5.16-6.82-4.13-2.37.8-3.92,3.24-3.56,5.63.4,2.64,2.49,4.56,5.1,4.59,2.24.03,4.48,0,6.72,0,6.23,0,12.46,0,18.7,0,2.97,0,5.07-2.77,4.26-5.57-.93-3.2-4.87-4.23-7.28-1.89-.55.53-1.02.61-1.42.22-.43-.41-.37-.91.19-1.47.68-.68,1.48-1.18,2.4-1.47,1.06-.34,1.14-.46,1.02-1.6-.02-.18-.05-.36-.09-.54-.54-2.54-3.43-4.14-5.61-3.17Z"/>
        <path class="cls-2" d="m52.33,26.11c.16,1.07.35,2.07.46,3.07.07.63-.33,1.03-.86,1.03-.51,0-.84-.38-.88-.98-.02-.31-.04-.62-.08-.92-.54-3.65-3.84-6.27-7.5-5.95-3.7.32-6.51,3.47-6.41,7.17.01.53.1.96.64,1.2.19.09.35.26.51.4,1.36,1.22,2.13,2.75,2.31,4.57.05.54-.27.96-.76,1.03-.48.07-.88-.26-.97-.81-.02-.14-.05-.29-.07-.43-.51-3.18-3.77-5.16-6.82-4.13-2.37.8-3.92,3.24-3.56,5.63.4,2.64,2.49,4.56,5.1,4.59,2.24.03,4.48,0,6.72,0,6.23,0,12.46,0,18.7,0,2.97,0,5.07-2.77,4.26-5.57-.93-3.2-4.87-4.23-7.28-1.89-.55.53-1.02.61-1.42.22-.43-.41-.37-.91.19-1.47.68-.68,1.48-1.18,2.4-1.47,1.06-.34,1.14-.46,1.02-1.6-.02-.18-.05-.36-.09-.54-.54-2.54-3.43-4.14-5.61-3.17Z"/>
      </g>
      <g>
        <path class="cls-1" d="m80.91,24.45c-.24,0-.43.19-.43.43s.19.43.43.43.43-.19.43-.43-.19-.43-.43-.43Z"/>
        <path class="cls-1" d="m67.38,23.44s0,0,0,0c0,0,0,0,0,0l10.61,11.73c.08.09.2.14.32.14s.24-.05.32-.14l10.61-11.73s0,0,0,0c0,0,0,0,0,0,.14-.16.14-.39.02-.55,0,0,0,0,0,0l-3.45-4.31c-.08-.1-.21-.16-.34-.16h-14.32c-.13,0-.26.06-.34.16l-3.45,4.31s0,0,0,0c-.13.16-.12.39.02.55Zm8.59-4.17h4.69l2.07,3.45h-8.83l2.07-3.45Zm-2.17,4.31h9.03l-4.52,10.23-4.52-10.23Zm9.97,0h4.18l-8.17,9.03,3.98-9.03Zm-10.92,0l3.98,9.03-8.17-9.03h4.18Zm15.17-.86h-4.29l-2.07-3.45h3.6l2.76,3.45Zm-16.67-3.45h3.6l-2.07,3.45h-4.29l2.76-3.45Z"/>
        <path class="cls-1" d="m79.18,24.45h-3.2c-.24,0-.43.19-.43.43s.19.43.43.43h3.2c.24,0,.43-.19.43-.43s-.19-.43-.43-.43Z"/>
      </g>
    </g>
  </g>
</svg>