<?xml version="1.0" encoding="UTF-8"?>
<svg id="Layer_2" data-name="Layer 2" xmlns="http://www.w3.org/2000/svg" viewBox="0 0 19.58 17.75">
  <defs>
    <style>
      .cls-1 {
        fill: #4c0c4b;
        stroke-width: 0px;
      }
    </style>
  </defs>
  <g id="Layer_1-2" data-name="Layer 1">
    <path class="cls-1" d="m19.38,12.94c-.15-1.62-.29-3.24-.44-4.86-.12-1.36-.24-2.73-.36-4.09-.03-.37-.22-.53-.59-.53-.6,0-3.89,0-4.5,0h-.19c0-.05-.01-.08-.01-.11-.1-1.49-.99-2.68-2.4-3.16-.24-.08-.5-.12-.75-.18h-.69s-.1.03-.15.04c-1.2.2-2.08.84-2.64,1.91-.24.46-.35.96-.37,1.5h-.21c-.61,0-3.91,0-4.51,0-.33,0-.5.16-.55.48,0,.05,0,.1-.01.16-.1,1.1-.19,2.2-.29,3.29-.11,1.24-.22,2.47-.33,3.71-.11,1.26-.21,2.52-.34,3.78-.06.61-.03,1.19.33,1.71.52.75,1.26,1.12,2.16,1.16.71.03,4.11,0,4.82,0,2.27,0,7.24,0,9.51,0,.63,0,1.21-.15,1.73-.52.65-.47,1.04-1.09,1-1.91-.04-.79-.13-1.59-.2-2.38ZM8.33,1.19c.96-.59,1.96-.59,2.92,0,.82.51,1.23,1.27,1.29,2.25h-5.5c.06-.97.47-1.74,1.29-2.25Zm9.47,15.42c-.31.15-.63.2-.97.2-2.93,0-11.16,0-14.09,0-.55,0-1.05-.14-1.44-.56-.24-.26-.37-.57-.34-.94.19-2.17.38-4.35.57-6.52.13-1.44.26-2.88.38-4.31,0-.03.01-.06.02-.09h4.31v.19c0,.42,0,.85,0,1.28,0,.31.21.52.49.52.28,0,.49-.22.49-.52,0-.48,0-.96,0-1.46h5.1v.18c0,.43,0,.85,0,1.28,0,.31.21.52.49.52.28,0,.49-.21.49-.52,0-.48,0-.96,0-1.46h4.31c.02.16.04.32.05.49.19,2.16.38,4.32.57,6.49.12,1.3.23,2.61.35,3.91.05.56-.27,1.07-.81,1.33Z"/>
  </g>
</svg>