<?xml version="1.0" encoding="UTF-8"?>
<svg id="Layer_2" data-name="Layer 2" xmlns="http://www.w3.org/2000/svg" viewBox="0 0 29.04 29.14">
  <defs>
    <style>
      .cls-1 {
        fill: #7e3080;
        stroke-width: 0px;
      }
    </style>
  </defs>
  <g id="Layer_1-2" data-name="Layer 1">
    <g>
      <path class="cls-1" d="m27.76,7.06v6.06c.16,0,.31,0,.46,0,.39,0,.53.14.53.53,0,.57,0,1.13,0,1.7,0,.42-.12.54-.55.54-1.09,0-2.19,0-3.28,0-3.63,0-7.25,0-10.88,0-.21,0-.41,0-.62,0-.34-.02-.46-.14-.46-.48,0-.61,0-1.21,0-1.82,0-.31.15-.46.47-.47.16,0,.33,0,.52,0v-6.06c-.24,0-.48,0-.72,0-.25,0-.45-.05-.54-.3-.09-.26.05-.42.24-.57,1.2-.95,2.4-1.91,3.6-2.87,1.31-1.04,2.62-2.08,3.92-3.12.33-.27.45-.27.79,0,2.47,1.96,4.94,3.93,7.41,5.89.11.08.24.16.3.27.06.11.09.31.03.4-.08.13-.25.25-.4.28-.26.04-.54.01-.85.01Zm-.4-.89c-2.2-1.75-4.34-3.46-6.5-5.17-2.16,1.72-4.3,3.42-6.49,5.17h12.98Zm-10.46,6.93h2.5v-6.02h-2.5v6.02Zm5.43-6.02v6.02h2.49v-6.02h-2.49Zm5.55,6.94h-14.02v1h14.02v-1Zm-13.01-6.94v6.03h1.13v-6.03h-1.13Zm11.99,6.03v-6.02h-1.13v6.02h1.13Zm-5.44,0v-6.02h-1.11v6.02h1.11Z"/>
      <path class="cls-1" d="m15.05,26.37c.2,0,.37,0,.55,0,.29.01.44.15.44.44,0,.63.01,1.25,0,1.88,0,.33-.14.45-.51.45-1.37,0-2.74,0-4.11,0-3.51,0-7.02,0-10.53,0-.54,0-.63-.09-.64-.62,0-.53,0-1.06,0-1.58,0-.42.13-.55.57-.55.13,0,.27,0,.42,0v-6.06c-.26,0-.51,0-.76,0-.2,0-.37-.04-.45-.25-.08-.23-.01-.42.18-.57.55-.44,1.1-.88,1.65-1.31,1.99-1.58,3.98-3.16,5.97-4.75.3-.24.42-.24.72,0,2.51,2.01,5.02,4.02,7.53,6.02.2.16.29.35.21.59-.08.22-.27.28-.5.28-.24,0-.49,0-.75,0v6.06ZM1.65,19.42h13.03c-2.22-1.76-4.38-3.46-6.54-5.17-2.16,1.72-4.29,3.42-6.49,5.17Zm5.03,6.94v-6.03h-2.5v6.03h2.5Zm5.42,0v-6.03h-2.49v6.03h2.49Zm-10.97,1.9h14.01v-1H1.14v1Zm1.01-7.93v6.03h1.12v-6.03h-1.12Zm10.87,0v6.03h1.13v-6.03h-1.13Zm-5.43,0v6.03h1.11v-6.03h-1.11Z"/>
      <path class="cls-1" d="m11.27,3.25c-.56-.49-1.13-.98-1.69-1.47-.09-.08-.18-.15-.26-.23-.19-.2-.21-.43-.06-.6.17-.2.43-.21.65-.02.83.72,1.65,1.44,2.47,2.17.12.1.24.2.35.31.26.25.25.49-.02.72-.92.81-1.85,1.63-2.77,2.44-.23.21-.49.21-.67,0-.17-.18-.14-.44.09-.64.59-.52,1.19-1.04,1.79-1.56.04-.04.09-.07.2-.15H3.71c0,.17,0,.33,0,.49,0,3.26,0,6.53,0,9.79,0,.24-.03.46-.3.53-.32.09-.56-.12-.56-.48,0-.77,0-1.54,0-2.32,0-2.78,0-5.55,0-8.33,0-.47.13-.59.59-.59,2.48,0,4.97,0,7.45,0,.12,0,.23,0,.35,0l.03-.06Z"/>
      <path class="cls-1" d="m24.07,18.34c-.54.62-1.03,1.18-1.51,1.74-.08.09-.15.18-.23.26-.19.19-.44.21-.6.07-.2-.18-.22-.42-.02-.65.58-.65,1.16-1.3,1.74-1.95.23-.26.47-.53.7-.79.27-.3.52-.31.79,0,.82.93,1.64,1.86,2.46,2.8.21.24.2.49,0,.68-.19.18-.43.14-.66-.11-.46-.52-.91-1.05-1.37-1.57-.1-.11-.19-.22-.36-.31,0,.12,0,.24,0,.36,0,2.88,0,5.77,0,8.65,0,.53-.09.63-.63.63-2.19,0-4.38,0-6.57,0-.09,0-.2.03-.26-.02-.13-.1-.27-.22-.32-.36-.06-.19.03-.37.24-.44.13-.04.27-.05.4-.05,1.95,0,3.91,0,5.86,0,.11,0,.21,0,.34,0v-8.91Z"/>
      <path class="cls-1" d="m22.41,3.95c.01.86-.67,1.55-1.53,1.56-.85,0-1.58-.7-1.59-1.55-.01-.82.71-1.52,1.58-1.52.85,0,1.54.67,1.55,1.51Zm-.87-.01c0-.34-.33-.68-.67-.68-.36,0-.67.31-.67.68,0,.34.31.66.65.67.35.01.69-.31.69-.66Z"/>
      <path class="cls-1" d="m9.68,17.22c-.02.84-.73,1.53-1.56,1.5-.85-.03-1.55-.76-1.52-1.58.03-.83.76-1.52,1.57-1.5.87.02,1.53.72,1.51,1.58Zm-1.53.58c.36,0,.67-.33.66-.68,0-.35-.34-.67-.69-.66-.34,0-.65.32-.65.67,0,.35.32.67.67.67Z"/>
    </g>
  </g>
</svg>