<?xml version="1.0" encoding="UTF-8"?>
<svg id="Layer_2" data-name="Layer 2" xmlns="http://www.w3.org/2000/svg" viewBox="0 0 23.2 16.22">
  <defs>
    <style>
      .cls-1 {
        fill: #7e3080;
        stroke-width: 0px;
      }
    </style>
  </defs>
  <g id="Layer_1-2" data-name="Layer 1">
    <g>
      <rect class="cls-1" x="2.27" y="1.91" width=".95" height=".95"/>
      <rect class="cls-1" x="20.33" y="1.91" width=".95" height=".95"/>
      <rect class="cls-1" x="20.33" y="13.36" width=".95" height=".95"/>
      <rect class="cls-1" x="2.27" y="13.36" width=".95" height=".95"/>
      <path class="cls-1" d="m22.72,5.72c.26,0,.48-.21.48-.48V.48c0-.26-.21-.48-.48-.48H.48c-.26,0-.48.21-.48.48v4.77c0,.26.21.48.48.48,1.32,0,2.39,1.07,2.39,2.39s-1.07,2.39-2.39,2.39c-.26,0-.48.21-.48.48v4.77c0,.26.21.48.48.48h22.24c.26,0,.48-.21.48-.48v-4.77c0-.26-.21-.48-.48-.48-1.32,0-2.39-1.07-2.39-2.39s1.07-2.39,2.39-2.39Zm-3.31,2.86c.21,1.47,1.36,2.62,2.83,2.83v3.85H.95v-3.85c1.83-.26,3.09-1.95,2.83-3.78-.21-1.47-1.36-2.62-2.83-2.83V.95h21.29v3.85c-1.83.26-3.09,1.95-2.83,3.78Z"/>
      <path class="cls-1" d="m8.89,3.34c-1.05,0-1.91.85-1.91,1.91s.85,1.91,1.91,1.91,1.91-.85,1.91-1.91-.85-1.91-1.91-1.91Zm0,2.86c-.53,0-.95-.43-.95-.95s.43-.95.95-.95.95.43.95.95-.43.95-.95.95Z"/>
      <path class="cls-1" d="m14.61,9.06c-1.05,0-1.91.85-1.91,1.91s.85,1.91,1.91,1.91,1.91-.85,1.91-1.91-.85-1.91-1.91-1.91Zm0,2.86c-.53,0-.95-.43-.95-.95s.43-.95.95-.95.95.43.95.95-.43.95-.95.95Z"/>
      <rect class="cls-1" x="6.35" y="7.63" width="10.79" height=".95" transform="translate(-2.29 10.68) rotate(-45)"/>
    </g>
  </g>
</svg>