<svg width="20" height="14" viewBox="0 0 20 14" fill="none" xmlns="http://www.w3.org/2000/svg">
<g clip-path="url(#clip0_1188_2808)">
<path d="M4.72 12.72H19.23" stroke="#212121" stroke-width="1.02" stroke-miterlimit="10"/>
<path d="M4.72 1.41003H19.23" stroke="#212121" stroke-width="1.02" stroke-miterlimit="10"/>
<path d="M1.31 2.62C2.03349 2.62 2.62 2.03349 2.62 1.31C2.62 0.586507 2.03349 0 1.31 0C0.586507 0 0 0.586507 0 1.31C0 2.03349 0.586507 2.62 1.31 2.62Z" fill="#212121"/>
<path d="M4.72 7.06995H19.23" stroke="#212121" stroke-width="1.02" stroke-miterlimit="10"/>
<path d="M1.31 8.28003C2.03349 8.28003 2.62 7.69353 2.62 6.97003C2.62 6.24654 2.03349 5.66003 1.31 5.66003C0.586507 5.66003 0 6.24654 0 6.97003C0 7.69353 0.586507 8.28003 1.31 8.28003Z" fill="#212121"/>
<path d="M1.31 13.9301C2.03349 13.9301 2.62 13.3436 2.62 12.6201C2.62 11.8966 2.03349 11.3101 1.31 11.3101C0.586507 11.3101 0 11.8966 0 12.6201C0 13.3436 0.586507 13.9301 1.31 13.9301Z" fill="#212121"/>
</g>
<defs>
<clipPath id="clip0_1188_2808">
<rect width="19.23" height="13.93" fill="white"/>
</clipPath>
</defs>
</svg>
