<svg width="29" height="21" viewBox="0 0 29 21" fill="none" xmlns="http://www.w3.org/2000/svg">
<g clip-path="url(#clip0_1274_2185)">
<path d="M7.11557 17.1758H28.9899" stroke="#212121" stroke-width="1.02" stroke-miterlimit="10"/>
<path d="M7.11557 2.12549H28.9899" stroke="#212121" stroke-width="1.02" stroke-miterlimit="10"/>
<path d="M1.97487 3.94975C3.06557 3.94975 3.94975 3.06557 3.94975 1.97487C3.94975 0.884181 3.06557 0 1.97487 0C0.884181 0 0 0.884181 0 1.97487C0 3.06557 0.884181 3.94975 1.97487 3.94975Z" fill="#212121"/>
<path d="M7.11557 9.6582H28.9899" stroke="#212121" stroke-width="1.02" stroke-miterlimit="10"/>
<path d="M1.97487 11.4825C3.06557 11.4825 3.94975 10.5983 3.94975 9.50759C3.94975 8.4169 3.06557 7.53271 1.97487 7.53271C0.884181 7.53271 0 8.4169 0 9.50759C0 10.5983 0.884181 11.4825 1.97487 11.4825Z" fill="#212121"/>
<path d="M1.97487 19C3.06557 19 3.94975 18.1159 3.94975 17.0252C3.94975 15.9345 3.06557 15.0503 1.97487 15.0503C0.884181 15.0503 0 15.9345 0 17.0252C0 18.1159 0.884181 19 1.97487 19Z" fill="#212121"/>
</g>
<defs>
<clipPath id="clip0_1274_2185">
<rect width="28.99" height="21" fill="white"/>
</clipPath>
</defs>
</svg>
