<svg width="20" height="20" viewBox="0 0 20 20" fill="none" xmlns="http://www.w3.org/2000/svg">
<path d="M16.1463 1H3.85366C2.2802 1 1 2.2802 1 3.85366V16.1463C1 17.7198 2.2802 19 3.85366 19H16.1463C17.7198 19 19 17.7198 19 16.1463V3.85366C19 2.2802 17.7198 1 16.1463 1ZM18.561 3.85366V9.78049H10.2195V1.43902H16.1463C17.478 1.43902 18.561 2.52201 18.561 3.85366ZM3.85366 1.43902H9.78049V9.78049H1.43902V3.85366C1.43902 2.52201 2.52201 1.43902 3.85366 1.43902ZM1.43902 16.1463V10.2195H9.78049V18.561H3.85366C2.52201 18.561 1.43902 17.478 1.43902 16.1463ZM16.1463 18.561H10.2195V10.2195H18.561V16.1463C18.561 17.478 17.478 18.561 16.1463 18.561Z" fill="black" stroke="#212121" stroke-width="0.5"/>
<path d="M3.80142 5.82928H5.33801V7.36586C5.33801 7.48677 5.43662 7.58537 5.55752 7.58537C5.67842 7.58537 5.77703 7.48677 5.77703 7.36586V5.82928H7.31362C7.43452 5.82928 7.53313 5.73067 7.53313 5.60977C7.53313 5.48886 7.43452 5.39025 7.31362 5.39025H5.77703V3.85367C5.77703 3.73276 5.67842 3.63416 5.55752 3.63416C5.43662 3.63416 5.33801 3.73276 5.33801 3.85367V5.39025H3.80142C3.68052 5.39025 3.58191 5.48886 3.58191 5.60977C3.58191 5.73067 3.68052 5.82928 3.80142 5.82928Z" fill="black" stroke="#212121" stroke-width="0.5"/>
<path d="M5.86792 14.3902L6.95433 13.3038C7.04008 13.2181 7.04008 13.0792 6.95433 12.9934C6.86858 12.9076 6.72968 12.9076 6.64392 12.9934L5.55751 14.0798L4.4711 12.9934C4.38535 12.9076 4.24645 12.9076 4.16069 12.9934C4.07494 13.0791 4.07494 13.218 4.16069 13.3038L5.2471 14.3902L4.16069 15.4766C4.07494 15.5624 4.07494 15.7013 4.16069 15.787C4.20356 15.8299 4.26015 15.8513 4.31589 15.8513C4.37162 15.8513 4.42822 15.8299 4.47109 15.787L5.5575 14.7006L6.64391 15.787C6.68678 15.8299 6.74337 15.8513 6.79911 15.8513C6.85485 15.8513 6.91144 15.8299 6.95431 15.787C7.04006 15.7013 7.04006 15.5624 6.95431 15.4766L5.86792 14.3902Z" fill="black" stroke="#212121" stroke-width="0.5"/>
<path d="M12.5725 5.82928H16.0847C16.2064 5.82928 16.3042 5.73067 16.3042 5.60977C16.3042 5.48887 16.2064 5.39026 16.0847 5.39026H12.5725C12.4507 5.39026 12.353 5.48887 12.353 5.60977C12.353 5.73067 12.4507 5.82928 12.5725 5.82928Z" fill="black" stroke="#212121" stroke-width="0.5"/>
<path d="M16.0528 14.1828H12.4273C12.3056 14.1828 12.2078 14.2806 12.2078 14.4023C12.2078 14.5241 12.3056 14.6218 12.4273 14.6218H16.0528C16.1746 14.6218 16.2723 14.5241 16.2723 14.4023C16.2723 14.2806 16.1746 14.1828 16.0528 14.1828Z" fill="black" stroke="#212121" stroke-width="0.5"/>
<path d="M14.2401 13.0749C14.4408 13.0749 14.6045 12.9112 14.6045 12.7105C14.6045 12.5099 14.4408 12.3461 14.2401 12.3461C14.0395 12.3461 13.8757 12.5098 13.8757 12.7105C13.8757 12.9112 14.0394 13.0749 14.2401 13.0749Z" fill="black" stroke="#212121" stroke-width="0.5"/>
<path d="M14.2401 15.7056C14.0395 15.7056 13.8757 15.8693 13.8757 16.07C13.8757 16.2706 14.0394 16.4344 14.2401 16.4344C14.4408 16.4344 14.6045 16.2707 14.6045 16.07C14.6045 15.8694 14.4408 15.7056 14.2401 15.7056Z" fill="black" stroke="#212121" stroke-width="0.5"/>
</svg>
