<?xml version="1.0" encoding="UTF-8"?>
<svg id="Layer_2" data-name="Layer 2" xmlns="http://www.w3.org/2000/svg" viewBox="0 0 17.98 18.61">
  <defs>
    <style>
      .cls-1 {
        fill: #4c0c4b;
        stroke: #4c0c4b;
        stroke-miterlimit: 10;
        stroke-width: .21px;
      }
    </style>
  </defs>
  <g id="Layer_1-2" data-name="Layer 1">
    <g>
      <path class="cls-1" d="m17.55,8.9c-.66-.55-1.64-.52-2.28.06l-2.16,1.97c-.31-.42-.79-.68-1.33-.68h-2.29c-.29,0-.57-.05-.83-.15-.65-.24-1.92-.56-3.2-.03-.24.1-.49.25-.73.45l-2.24,1.87c-.35-.2-.8-.16-1.1.14l-1.02,1.02c-.35.35-.35.93,0,1.28l3.41,3.41c.35.35.93.35,1.28,0l1.02-1.02c.35-.35.35-.93,0-1.28l-.04-.04.25-.25c.47-.47,1.09-.71,1.72-.67,1.6.1,4.8,0,5.94-1.12l3.66-3.66c.37-.37.34-.97-.06-1.3h0Zm-11.87,7.91l-1.02,1.02c-.13.13-.34.13-.47,0l-3.41-3.41h0c-.13-.13-.13-.34,0-.47l1.02-1.02c.13-.13.34-.13.47,0,.11.11,3.47,3.47,3.41,3.41.13.13.13.34,0,.47Zm11.53-7.02l-3.66,3.66c-.98.98-4.12,1.05-5.49.96-.79-.05-1.58.25-2.17.83l-.25.25c-3.71-3.74-2.43-2.45-2.71-2.73l2.16-1.81c.19-.16.39-.28.58-.36,1.1-.45,2.22-.17,2.78.04.33.12.67.18,1.03.18h2.29c.6,0,1.08.49,1.07,1.08,0,.18-.15.33-.34.33h-5.14c-.16,0-.29.13-.29.29s.13.29.29.29h5.14c.5,0,.91-.4.91-.9,0-.15-.02-.29-.06-.43l2.29-2.09c.43-.39,1.08-.4,1.53-.04.14.12.15.32.02.45h0Z"/>
      <path class="cls-1" d="m9.02,5.95c.1.1.14.24.12.37l-.15.89c-.14.81.71,1.43,1.45,1.05l.79-.42c.12-.06.27-.06.39,0l.79.42c.73.39,1.58-.23,1.45-1.05l-.15-.89c-.02-.14.02-.28.12-.37l.64-.62c.59-.58.26-1.58-.55-1.7l-.89-.13c-.14-.02-.26-.11-.32-.23l-.4-.8c-.37-.74-1.42-.74-1.78,0l-.4.81c-.06.12-.18.21-.32.23l-.89.13c-.82.12-1.14,1.12-.55,1.7l.64.62Zm0-1.75l.89-.13c.32-.05.6-.25.75-.54l.4-.81c.15-.31.6-.31.75,0l.4.8c.14.29.42.5.75.54l.89.13c.35.05.48.47.23.72l-.64.62c-.23.23-.34.56-.29.88l.15.89c.06.34-.3.6-.61.44l-.79-.42c-.29-.15-.64-.15-.93,0l-.79.42c-.31.16-.67-.1-.61-.44l.15-.89c.06-.32-.05-.65-.29-.88l-.64-.62c-.25-.24-.11-.67.23-.72Z"/>
      <path class="cls-1" d="m11.42,1.1c.16,0,.29-.13.29-.29v-.41c0-.16-.13-.29-.29-.29s-.29.13-.29.29v.41c0,.16.13.29.29.29Z"/>
      <path class="cls-1" d="m9.01,1.53c.08.14.26.18.39.11.14-.08.18-.26.11-.39l-.21-.36c-.08-.14-.26-.18-.39-.11-.14.08-.18.26-.11.39l.21.36Z"/>
      <path class="cls-1" d="m7.17,3.02l.36.21c.14.08.31.03.39-.11.08-.14.03-.31-.11-.39l-.36-.21c-.14-.08-.31-.03-.39.11-.08.14-.03.31.11.39Z"/>
      <path class="cls-1" d="m6.67,5.43h.41c.16,0,.29-.13.29-.29s-.13-.29-.29-.29h-.41c-.16,0-.29.13-.29.29s.13.29.29.29Z"/>
      <path class="cls-1" d="m15.46,5.14c0,.16.13.29.29.29h.41c.16,0,.29-.13.29-.29s-.13-.29-.29-.29h-.41c-.16,0-.29.13-.29.29Z"/>
      <path class="cls-1" d="m15.31,3.22l.36-.21c.14-.08.18-.26.11-.39-.08-.14-.26-.18-.39-.11l-.36.21c-.14.08-.18.26-.11.39.08.14.26.18.39.11Z"/>
      <path class="cls-1" d="m13.44,1.64c.14.08.31.03.39-.11l.21-.36c.08-.14.03-.31-.11-.39-.14-.08-.31-.03-.39.11l-.21.36c-.08.14-.03.31.11.39Z"/>
    </g>
  </g>
</svg>