<?xml version="1.0" encoding="UTF-8"?>
<svg id="Layer_2" data-name="Layer 2" xmlns="http://www.w3.org/2000/svg" viewBox="0 0 22.04 18.95">
  <defs>
    <style>
      .cls-1 {
        fill: #ae285d;
        stroke-width: 0px;
      }
    </style>
  </defs>
  <g id="Layer_1-2" data-name="Layer 1">
    <g>
      <path class="cls-1" d="m11.04,0c1.13,1.94,2.27,3.86,3.36,5.8-1.79,3.16-3.58,6.35-5.43,9.49-.72,1.2-1.4,2.42-2.12,3.62-2.29.02-4.58.02-6.85,0,.07-.15.13-.3.22-.46C3.84,12.31,7.46,6.18,11.04,0h0Z"/>
      <path class="cls-1" d="m11.04,11.78c2.29,0,4.58-.02,6.87.02,1.37,2.38,2.77,4.74,4.12,7.14-2.29.02-4.58,0-6.87,0-1.35-2.4-2.77-4.76-4.12-7.16Z"/>
    </g>
  </g>
</svg>