<?xml version="1.0" encoding="UTF-8"?>
<svg id="Layer_2" data-name="Layer 2" xmlns="http://www.w3.org/2000/svg" viewBox="0 0 22.86 22.01">
  <defs>
    <style>
      .cls-1 {
        fill: #7e3080;
        stroke-width: 0px;
      }

      .cls-1, .cls-2 {
        fill-rule: evenodd;
      }

      .cls-2 {
        fill: none;
        stroke: #7e3080;
        stroke-miterlimit: 10;
      }
    </style>
  </defs>
  <g id="Layer_1-2" data-name="Layer 1">
    <g>
      <path class="cls-2" d="m10.35,1.45c.2-.41.62-.67,1.08-.67s.88.26,1.08.67l2.11,4.24,4.69.69c.45.07.83.39.97.82.14.44.02.92-.3,1.24l-3.39,3.32.79,4.67c.08.45-.11.91-.48,1.18-.37.27-.86.31-1.27.09l-4.2-2.2-4.2,2.2c-.41.21-.9.18-1.27-.09-.37-.27-.56-.73-.48-1.18l.79-4.67-3.39-3.32c-.33-.32-.45-.8-.3-1.24.14-.44.52-.75.97-.82l4.69-.69,2.11-4.24Z"/>
      <g>
        <path class="cls-1" d="m11.13,17.64v4.07c0,.16.13.3.3.3s.3-.13.3-.3v-4.07c0-.16-.13-.3-.3-.3s-.3.13-.3.3Z"/>
        <path class="cls-1" d="m18.62,12.58l3.84,1.33c.16.05.33-.03.38-.18.05-.16-.03-.33-.18-.38l-3.84-1.33c-.16-.05-.33.03-.38.18-.05.16.03.33.18.38Z"/>
        <path class="cls-1" d="m4.05,12.02L.2,13.35c-.16.05-.24.22-.18.38.05.16.22.24.38.18l3.84-1.33c.16-.05.24-.22.18-.38-.05-.16-.22-.24-.38-.18h0Z"/>
        <path class="cls-1" d="m16.52,3.82l2.31-3.35c.09-.14.06-.32-.08-.41-.14-.09-.32-.06-.41.08l-2.31,3.35c-.09.14-.06.32.08.41.14.09.32.06.41-.08h0Z"/>
        <path class="cls-1" d="m7.13,3.46L4.52.34c-.11-.13-.29-.14-.42-.04-.13.11-.14.29-.04.42l2.62,3.12c.11.13.29.14.42.04.13-.11.14-.29.04-.42Z"/>
      </g>
    </g>
  </g>
</svg>