<?xml version="1.0" encoding="UTF-8"?>
<svg id="Layer_2" xmlns="http://www.w3.org/2000/svg" viewBox="0 0 18.48 18.48">
  <defs>
    <style>
      .cls-1 {
        fill: #b7b7b8;
      }
    </style>
  </defs>
  <g id="Layer_1-2" data-name="Layer_1">
    <g>
      <path class="cls-1" d="M9.24,18.48C4.82,18.48,1.01,15.33.18,11c-.09-.5-.13-1.02-.17-1.52v-.17c-.02-.16.02-.29.1-.38.08-.08.18-.13.31-.13H.42c.39,0,.45.36.45.51.15,3.56,1.85,6.11,5.04,7.58,1.04.48,2.15.72,3.31.72,2.8,0,5.48-1.45,6.99-3.77.98-1.51,1.44-3.19,1.38-4.99-.13-3.54-2.6-6.68-6-7.63-.84-.23-1.68-.35-2.47-.35-2,0-3.86.74-5.53,2.21l-.2.15v.15s.06.08.06.08l.12.06h1.33s.78,0,.78,0c.28,0,.47.18.47.44,0,.26-.19.43-.47.43h-3.44c-.3,0-.48-.17-.48-.46,0-1.15,0-2.3,0-3.45,0-.27.19-.47.43-.47s.44.2.44.49v2.24l.51-.42c.19-.16.36-.3.55-.44C5.34.63,7.19,0,9.18,0c.36,0,.72.02,1.08.06,4.08.44,7.4,3.57,8.09,7.62.83,4.93-2.35,9.58-7.24,10.61-.61.13-1.24.19-1.87.19h0Z"/>
      <path class="cls-1" d="M14.52,6.97c0-.36-.12-.54-.46-.66-1.51-.57-3.02-1.13-4.53-1.7-.2-.07-.38-.07-.57,0-1.52.57-3.03,1.14-4.55,1.71-.32.12-.44.29-.44.63,0,1.72,0,3.44,0,5.15,0,.35.12.52.46.64,1.5.56,3,1.12,4.5,1.69.22.08.42.09.65,0,1.5-.57,3-1.12,4.5-1.69.34-.13.46-.3.46-.66,0-.85,0-1.71,0-2.56s0-1.71,0-2.56ZM8.93,13.31s0,.1-.02.18c-.28-.1-.54-.2-.8-.29-1.02-.38-2.05-.77-3.07-1.15-.11-.04-.19-.07-.19-.22,0-1.45,0-2.91,0-4.36,0-.03,0-.07.02-.13.56.21,1.11.42,1.66.62.74.28,1.48.56,2.22.83.12.04.18.09.17.23,0,1.43,0,2.86,0,4.29ZM9.12,8.25c-1.17-.43-2.33-.87-3.49-1.3-.04-.01-.07-.04-.13-.07.74-.28,1.46-.55,2.18-.82.47-.18.93-.35,1.4-.52.09-.03.21-.04.29-.01,1.17.43,2.34.87,3.51,1.31.02,0,.04.02.1.06-.72.27-1.41.53-2.1.79-.5.19-.99.38-1.49.55-.08.03-.19.04-.27.01ZM13.46,12.03c-1.25.46-2.5.93-3.75,1.4-.03.01-.07.02-.14.04v-.24c0-1.38,0-2.76,0-4.14,0-.16.04-.24.2-.3,1.23-.45,2.45-.91,3.67-1.37.05-.02.1-.03.17-.05,0,.08.01.15.01.22,0,1.4,0,2.79,0,4.19,0,.12,0,.21-.15.27Z"/>
    </g>
  </g>
</svg>