<?xml version="1.0" encoding="UTF-8"?>
<svg id="Layer_2" xmlns="http://www.w3.org/2000/svg" viewBox="0 0 125 125">
  <defs>
    <style>
      .cls-1 {
        fill: #f2f0f0;
      }

      .cls-2 {
        fill: #fff;
      }

      .cls-3 {
        fill: #5f259f;
      }
    </style>
  </defs>
  <g id="Layer_1-2" data-name="Layer_1">
    <g>
      <rect class="cls-1" width="125" height="125" rx="30.35" ry="30.35"/>
      <g>
        <circle class="cls-3" cx="62.5" cy="62.5" r="51.32"/>
        <path class="cls-2" d="M85.79,49.11c0-2.01-1.72-3.73-3.73-3.73h-6.88l-15.77-18.06c-1.43-1.72-3.73-2.29-6.02-1.72l-5.45,1.72c-.86.29-1.15,1.43-.57,2.01l17.2,16.34h-26.09c-.86,0-1.43.57-1.43,1.43v2.87c0,2.01,1.72,3.73,3.73,3.73h4.01v13.76c0,10.32,5.45,16.34,14.62,16.34,2.87,0,5.16-.29,8.03-1.43v9.17c0,2.58,2.01,4.59,4.59,4.59h4.01c.86,0,1.72-.86,1.72-1.72v-41h6.6c.86,0,1.43-.57,1.43-1.43v-2.87h0ZM67.44,73.76c-1.72.86-4.01,1.15-5.73,1.15-4.59,0-6.88-2.29-6.88-7.45v-13.76h12.62v20.07Z"/>
      </g>
    </g>
  </g>
</svg>