<svg width="12" height="12" viewBox="0 0 12 12" fill="none" xmlns="http://www.w3.org/2000/svg">
<path d="M11.611 9.85516C10.3323 8.55738 9.05359 7.27869 7.7749 6C9.05359 4.72131 10.3323 3.44262 11.6301 2.14484C12.7752 0.999745 11.0003 -0.775155 9.85516 0.369942C8.55738 1.66772 7.27869 2.94641 6 4.2251C4.72131 2.94641 3.44262 1.66772 2.14484 0.389027C0.999745 -0.75607 -0.775155 1.01883 0.369942 2.16393C1.66772 3.44262 2.94641 4.72131 4.2251 6C2.94641 7.27869 1.66772 8.55738 0.389027 9.85516C-0.75607 11.0003 1.01883 12.7752 2.16393 11.6301C3.44262 10.3323 4.72131 9.05359 6 7.7749C7.27869 9.05359 8.55738 10.3323 9.85516 11.6301C10.9812 12.7561 12.7561 10.9812 11.611 9.85516Z" fill="black"/>
</svg>
