<?xml version="1.0" encoding="utf-8"?>
<!-- Generator: Adobe Illustrator 27.8.0, SVG Export Plug-In . SVG Version: 6.00 Build 0)  -->
<svg version="1.1" id="Layer_1" xmlns="http://www.w3.org/2000/svg" xmlns:xlink="http://www.w3.org/1999/xlink" x="0px" y="0px"
	 viewBox="0 0 15.93 15.5" style="enable-background:new 0 0 15.93 15.5;" xml:space="preserve">
<style type="text/css">
	.st0{fill:#4C0C4B;stroke:#4C0C4B;stroke-width:0.085;stroke-miterlimit:10;}
</style>
<g>
	<path class="st0" d="M6.7,9.33C8.02,8,9.28,6.73,10.54,5.45c0.17-0.17,0.33-0.33,0.5-0.5c0.28-0.28,0.59-0.34,0.88-0.06
		c0.3,0.29,0.21,0.61-0.06,0.88C10.75,6.9,9.64,8.02,8.52,9.13C8.1,9.56,7.67,9.99,7.24,10.41c-0.42,0.41-0.67,0.41-1.07,0.02
		C5.48,9.75,4.79,9.06,4.11,8.37c-0.35-0.36-0.38-0.7-0.09-0.96c0.35-0.3,0.65-0.15,0.92,0.13C5.5,8.12,6.07,8.69,6.7,9.33z"/>
	<path class="st0" d="M1.39,10.41c-0.01,0.06,0,0.12-0.01,0.18c-0.04,0.69,0.27,1.16,0.88,1.46c0.26,0.13,0.52,0.24,0.76,0.39
		c0.13,0.09,0.23,0.18,0.3,0.28l0,0c0,0,0.44,0.88,0.64,1.21c0.54,0.47,1.15,0.4,1.77,0.36C6,14.27,6.3,14.37,6.54,14.48
		c0.26,0.12,0.49,0.32,0.75,0.5c0,0,0.51,0.46,1.33,0c0.31-0.21,0.57-0.43,0.87-0.57c0.23-0.1,0.5-0.13,0.75-0.12
		c0.59,0.03,1.88,0.09,2.24-1.11c0-0.08,0.02-0.14,0.06-0.18c0.01-0.06,0.02-0.12,0.04-0.17c0.17-0.43,0.6-0.55,0.98-0.72
		c0.71-0.33,1.09-0.86,0.97-1.64c-0.1-0.68,0.06-1.25,0.49-1.79c0.47-0.6,0.47-1.27,0-1.88c-0.41-0.53-0.6-1.08-0.49-1.75
		c0.13-0.83-0.27-1.41-1.03-1.7c-0.57-0.21-0.93-0.58-1.14-1.14c-0.3-0.79-0.89-1.16-1.74-1.04C9.99,1.24,9.45,1.11,8.95,0.7
		C8.32,0.19,7.62,0.19,6.98,0.7c-0.5,0.4-1.03,0.55-1.66,0.46C4.46,1.03,3.87,1.41,3.56,2.21C3.36,2.76,2.99,3.1,2.45,3.33
		C1.58,3.7,1.31,4.12,1.41,5.06c0.07,0.65-0.07,1.18-0.47,1.69c-0.49,0.63-0.5,1.31-0.01,1.94C1.33,9.21,1.54,9.75,1.39,10.41z
		 M1.72,7.05c0.52-0.76,0.56-0.9,0.52-1.84C2.02,4.59,2.37,4.19,3.04,3.95c0.57-0.2,0.95-0.62,1.17-1.18
		c0.06-0.15,0.14-0.3,0.22-0.45c0.14-0.25,0.35-0.39,0.64-0.37C5.24,1.97,5.41,1.98,5.57,2c0.57,0.07,1.09-0.04,1.55-0.4
		c0.1-0.08,0.22-0.15,0.32-0.23c0.35-0.27,0.7-0.29,1.04,0c0.66,0.57,1.41,0.75,2.26,0.59c0.39-0.08,0.68,0.1,0.82,0.48
		c0.3,0.82,0.84,1.37,1.67,1.69C13.69,4.3,13.78,4.5,13.71,5c-0.12,0.81,0.05,1.52,0.57,2.17c0.37,0.47,0.37,0.65,0,1.12
		c-0.5,0.64-0.7,1.34-0.57,2.13c0.08,0.47-0.1,0.79-0.54,0.95c-0.8,0.28-1.3,0.84-1.59,1.62c-0.14,0.39-0.43,0.56-0.84,0.49
		c-0.85-0.14-1.6,0.04-2.26,0.61c-0.32,0.27-0.67,0.29-1,0.01c-0.67-0.58-1.43-0.76-2.29-0.61C4.78,13.54,4.5,13.37,4.36,13
		c-0.29-0.79-0.8-1.36-1.62-1.64c-0.44-0.15-0.6-0.47-0.53-0.92C2.35,9.64,2.17,8.94,1.66,8.3C1.27,7.8,1.31,7.65,1.72,7.05z"/>
</g>
</svg>
