<?xml version="1.0" encoding="UTF-8"?>
<svg id="Layer_2" data-name="Layer 2" xmlns="http://www.w3.org/2000/svg" viewBox="0 0 18.12 13.59">
  <defs>
    <style>
      .cls-1 {
        fill: #7e3080;
        stroke-width: 0px;
      }
    </style>
  </defs>
  <g id="Layer_1-2" data-name="Layer 1">
    <g>
      <path class="cls-1" d="m16.24,13.59H1.89c-1.04,0-1.89-.85-1.89-1.89V1.89C0,.85.85,0,1.89,0h14.35c1.04,0,1.89.85,1.89,1.89v9.82c0,1.04-.85,1.89-1.89,1.89ZM1.89.76c-.62,0-1.13.51-1.13,1.13v9.82c0,.62.51,1.13,1.13,1.13h14.35c.62,0,1.13-.51,1.13-1.13V1.89c0-.62-.51-1.13-1.13-1.13H1.89Z"/>
      <path class="cls-1" d="m5.66,6.8c-1.04,0-1.89-.85-1.89-1.89s.85-1.89,1.89-1.89,1.89.85,1.89,1.89-.85,1.89-1.89,1.89Zm0-3.02c-.62,0-1.13.51-1.13,1.13s.51,1.13,1.13,1.13,1.13-.51,1.13-1.13-.51-1.13-1.13-1.13Z"/>
      <path class="cls-1" d="m8.68,10.57c-.21,0-.38-.17-.38-.38v-.76c0-.62-.51-1.13-1.13-1.13h-3.02c-.62,0-1.13.51-1.13,1.13v.76c0,.21-.17.38-.38.38s-.38-.17-.38-.38v-.76c0-1.04.85-1.89,1.89-1.89h3.02c1.04,0,1.89.85,1.89,1.89v.76c0,.21-.17.38-.38.38Z"/>
      <path class="cls-1" d="m15.48,4.53h-4.53c-.21,0-.38-.17-.38-.38s.17-.38.38-.38h4.53c.21,0,.38.17.38.38s-.17.38-.38.38Z"/>
      <path class="cls-1" d="m15.48,7.55h-4.53c-.21,0-.38-.17-.38-.38s.17-.38.38-.38h4.53c.21,0,.38.17.38.38s-.17.38-.38.38Z"/>
      <path class="cls-1" d="m15.48,10.57h-4.53c-.21,0-.38-.17-.38-.38s.17-.38.38-.38h4.53c.21,0,.38.17.38.38s-.17.38-.38.38Z"/>
    </g>
  </g>
</svg>