<?xml version="1.0" encoding="utf-8"?>
<!-- Generator: Adobe Illustrator 27.8.0, SVG Export Plug-In . SVG Version: 6.00 Build 0)  -->
<svg version="1.1" id="Layer_1" xmlns="http://www.w3.org/2000/svg" xmlns:xlink="http://www.w3.org/1999/xlink" x="0px" y="0px"
	 viewBox="0 0 17.17 14.43" style="enable-background:new 0 0 17.17 14.43;" xml:space="preserve">
<style type="text/css">
	.st0{fill:#4C0C4B;}
</style>
<g>
	<path class="st0" d="M4.38,2.85c-1.69,0-3.08,1.38-3.08,3.08C1.3,7.62,2.69,9,4.38,9s3.08-1.38,3.08-3.08
		C7.46,4.23,6.07,2.85,4.38,2.85z M4.38,8.11c-1.22,0-2.19-0.97-2.19-2.19c0-1.22,0.97-2.19,2.19-2.19c1.22,0,2.19,0.97,2.19,2.19
		C6.57,7.14,5.6,8.11,4.38,8.11z"/>
	<path class="st0" d="M7.63,13.75v-0.88h3.66l2.24-2.67c0.17-0.18,0.26-0.37,0.26-0.59c0-0.21-0.08-0.41-0.24-0.56
		c-0.15-0.15-0.34-0.23-0.54-0.23c-0.23,0-0.42,0.08-0.57,0.23l-1.72,2.07c-0.08,0.1-0.21,0.16-0.34,0.16l-7.23,0
		c-1.12,0-2.02,0.91-2.02,2.02v0.44H0.25v-0.44c0-1.6,1.3-2.9,2.9-2.9l7.06,0l1.57-1.94c0.18-0.18,0.38-0.31,0.62-0.4
		c0.1-0.02,0.3-0.05,0.54-0.05c0.27,0,0.53,0.04,0.77,0.11c0.19,0.09,0.34,0.19,0.46,0.31c0.64,0.64,0.65,1.69,0.02,2.34l-2.4,2.82
		c-0.08,0.1-0.21,0.15-0.34,0.15H7.63z"/>
	<path class="st0" d="M16.82,2.49c-0.33-0.52-0.67-1.03-1-1.55c-0.11-0.18-0.27-0.26-0.48-0.26c-0.76,0-1.51,0-2.27,0
		c-0.76,0-1.53,0-2.29,0c-0.21,0-0.36,0.08-0.47,0.25C9.97,1.46,9.63,1.97,9.3,2.49C9.15,2.71,9.17,2.9,9.35,3.11
		c1.11,1.25,2.23,2.51,3.35,3.76c0.22,0.25,0.51,0.25,0.73,0c1.12-1.25,2.23-2.5,3.35-3.76C16.95,2.9,16.96,2.71,16.82,2.49z
		 M15.12,1.13c-0.28,0.43-0.54,0.84-0.82,1.27c-0.28-0.43-0.54-0.84-0.82-1.27C14.02,1.13,14.56,1.13,15.12,1.13z M13.88,2.56
		c-0.55,0-1.09,0-1.64,0c0.27-0.42,0.54-0.84,0.82-1.27C13.33,1.72,13.6,2.13,13.88,2.56z M12.64,1.13
		c-0.27,0.42-0.54,0.84-0.82,1.27C11.55,1.97,11.28,1.55,11,1.13C11.55,1.13,12.09,1.13,12.64,1.13z M10.58,1.28
		c0.27,0.42,0.54,0.84,0.82,1.26c-0.55,0-1.09,0-1.64,0C10.03,2.12,10.3,1.71,10.58,1.28z M12.58,6.17
		c-0.91-1.02-1.82-2.04-2.74-3.08c0.61,0,1.21,0,1.81,0c0.31,1.02,0.63,2.05,0.95,3.07C12.6,6.16,12.59,6.16,12.58,6.17z
		 M13.07,6.08c-0.01,0-0.01,0-0.02,0c-0.31-1.01-0.62-2.01-0.93-3.03c0.63,0,1.26,0,1.89,0C13.69,4.07,13.38,5.07,13.07,6.08z
		 M13.53,6.17c-0.01,0-0.01-0.01-0.02-0.01c0.31-1.02,0.63-2.04,0.95-3.07c0.6,0,1.19,0,1.81,0C15.35,4.12,14.44,5.14,13.53,6.17z
		 M14.72,2.55c0.28-0.43,0.54-0.84,0.82-1.27c0.28,0.43,0.54,0.84,0.82,1.27C15.81,2.55,15.28,2.55,14.72,2.55z"/>
</g>
</svg>
