<?xml version="1.0" encoding="utf-8"?>
<!-- Generator: Adobe Illustrator 27.8.0, SVG Export Plug-In . SVG Version: 6.00 Build 0)  -->
<svg version="1.1" id="Layer_1" xmlns="http://www.w3.org/2000/svg" xmlns:xlink="http://www.w3.org/1999/xlink" x="0px" y="0px"
	 viewBox="0 0 18.53 19.4" style="enable-background:new 0 0 18.53 19.4;" xml:space="preserve">
<style type="text/css">
	.st0{fill:#4C0C4B;}
</style>
<g>
	<g>
		<path class="st0" d="M11.48,7.58c0.14-0.15,0.14-0.38,0-0.52c-0.14-0.14-0.38-0.14-0.52,0C10.01,8,8.49,8,7.55,7.06
			c-0.15-0.14-0.38-0.14-0.52,0c-0.14,0.14-0.14,0.38,0,0.52C8.25,8.81,10.25,8.81,11.48,7.58L11.48,7.58z"/>
		<path class="st0" d="M12.37,18.24h-1.91l1.73-7.31c0.15,0.07,0.3,0.14,0.45,0.23c0.18,0.1,0.41,0.03,0.5-0.15
			c0.1-0.18,0.03-0.41-0.15-0.5c-0.53-0.29-1.1-0.52-1.68-0.68c2.47-1.14,3.55-4.07,2.41-6.54S9.66-0.27,7.18,0.88
			S3.63,4.95,4.77,7.42c0.49,1.06,1.34,1.92,2.41,2.41c-3.37,0.93-5.71,4-5.72,7.5v0.68c0,0.53,0.43,0.96,0.96,0.96h9.94
			c0.2,0,0.37-0.17,0.37-0.37S12.58,18.24,12.37,18.24L12.37,18.24z M11.49,10.65l-0.47,1.99l-0.53-2.25
			C10.83,10.46,11.16,10.55,11.49,10.65L11.49,10.65z M9.25,1.17c2.21,0,4.04,1.73,4.18,3.94c-0.78-0.23-1.47-0.69-1.98-1.31
			C11.33,3.67,11.15,3.63,11,3.7c-1.11,0.53-2.39,0.53-3.5,0C7.35,3.63,7.17,3.67,7.06,3.8C6.54,4.42,5.85,4.88,5.07,5.11
			C5.21,2.9,7.04,1.17,9.25,1.17z M5.1,5.87C6,5.64,6.81,5.16,7.44,4.48c1.16,0.47,2.46,0.47,3.61,0c0.63,0.68,1.45,1.16,2.35,1.39
			c-0.28,2.29-2.37,3.93-4.66,3.65C6.83,9.28,5.33,7.78,5.1,5.87z M8.01,10.4l-0.53,2.25l-0.47-1.99
			C7.34,10.54,7.67,10.46,8.01,10.4z M2.43,18.24c-0.12,0-0.22-0.1-0.22-0.22v-0.68c0-2.75,1.61-5.25,4.11-6.4l1.73,7.31H2.43z
			 M9.7,18.24H8.8l-0.94-3.98L8.8,10.3c0.15-0.01,0.3-0.02,0.45-0.02c0.15,0,0.3,0,0.45,0.01l0.94,3.96L9.7,18.24z"/>
		<path class="st0" d="M6.16,18.24h1.91l-1.73-7.31c-0.15,0.07-0.3,0.14-0.45,0.23c-0.18,0.1-0.41,0.03-0.5-0.15
			c-0.1-0.18-0.03-0.41,0.15-0.5c0.53-0.29,1.1-0.52,1.68-0.68C4.74,8.69,3.66,5.76,4.8,3.29s4.07-3.55,6.54-2.41
			s3.55,4.07,2.41,6.54c-0.49,1.06-1.34,1.92-2.41,2.41c3.37,0.93,5.71,4,5.72,7.5v0.68c0,0.53-0.43,0.96-0.96,0.96H6.16
			c-0.2,0-0.37-0.17-0.37-0.37S5.95,18.24,6.16,18.24L6.16,18.24z M7.04,10.65l0.47,1.99l0.53-2.25C7.7,10.46,7.36,10.55,7.04,10.65
			L7.04,10.65z M9.28,1.17c-2.21,0-4.04,1.73-4.18,3.94C5.88,4.88,6.57,4.42,7.08,3.8c0.11-0.13,0.29-0.17,0.45-0.1
			c1.11,0.53,2.39,0.53,3.5,0c0.15-0.07,0.34-0.03,0.45,0.1c0.52,0.62,1.21,1.08,1.98,1.31C13.32,2.9,11.49,1.17,9.28,1.17z
			 M13.43,5.87c-0.9-0.23-1.71-0.71-2.35-1.39c-1.16,0.47-2.46,0.47-3.61,0C6.84,5.16,6.02,5.64,5.12,5.87
			C5.4,8.16,7.49,9.8,9.78,9.51C11.69,9.28,13.2,7.78,13.43,5.87z M10.51,10.4l0.53,2.25l0.47-1.99
			C11.19,10.54,10.85,10.46,10.51,10.4z M16.1,18.24c0.12,0,0.22-0.1,0.22-0.22v-0.68c0-2.75-1.61-5.25-4.11-6.4l-1.73,7.31H16.1z
			 M8.83,18.24h0.9l0.94-3.98L9.73,10.3c-0.15-0.01-0.3-0.02-0.45-0.02c-0.15,0-0.3,0-0.45,0.01l-0.94,3.96L8.83,18.24z"/>
		<path class="st0" d="M14.45,15.86H12.4c-0.2,0-0.37,0.17-0.37,0.37s0.17,0.37,0.37,0.37h2.04c0.2,0,0.37-0.17,0.37-0.37
			S14.65,15.86,14.45,15.86z"/>
	</g>
</g>
</svg>
