<?xml version="1.0" encoding="utf-8"?>
<!-- Generator: Adobe Illustrator 27.8.0, SVG Export Plug-In . SVG Version: 6.00 Build 0)  -->
<svg version="1.1" id="Layer_1" xmlns="http://www.w3.org/2000/svg" xmlns:xlink="http://www.w3.org/1999/xlink" x="0px" y="0px"
	 viewBox="0 0 16.05 13.16" style="enable-background:new 0 0 16.05 13.16;" xml:space="preserve">
<style type="text/css">
	.st0{fill:#4C0C4B;}
</style>
<g>
	<circle class="st0" cx="7.71" cy="4.65" r="0.56"/>
	<circle class="st0" cx="9.18" cy="6.16" r="0.66"/>
	<circle class="st0" cx="7.95" cy="1.43" r="0.42"/>
	<path class="st0" d="M15.84,4.9c-1.12-1.13-2.27-2.23-3.36-3.39c-0.43-0.46-0.88-0.7-1.5-0.6c-0.12,0.02-0.24,0-0.36,0
		c-0.57,0-0.49,0.05-0.49-0.49c0-0.15,0-0.27,0-0.34H9.06c0,0.95,0,1.91,0.01,2.86c0,0.13,0.07,0.29,0.16,0.38
		c0.89,0.9,1.79,1.8,2.69,2.69c0.27,0.27,0.54,0.55,0.82,0.83c-0.32,0.32-0.61,0.62-0.91,0.9c-0.09,0.08-0.24,0.15-0.36,0.15
		c-2.31,0.01-4.62,0.01-6.93,0c-0.09,0-0.21-0.02-0.28-0.08c-0.32-0.3-0.63-0.62-0.97-0.96c0.07-0.08,0.11-0.14,0.16-0.19
		c1.11-1.11,2.22-2.22,3.33-3.34c0.09-0.09,0.17-0.23,0.17-0.35c0.01-0.97,0.01-1.94,0.01-2.9H5.87C5.91,0.21,5.9,0.4,5.89,0.7
		C5.88,0.87,5.82,0.93,5.66,0.92C5.24,0.92,4.82,0.91,4.4,0.93C4.26,0.94,4.09,1,3.99,1.1C2.72,2.36,1.45,3.63,0.18,4.9
		c-0.16,0.15-0.17,0.22,0,0.39c2.31,2.3,4.61,4.6,6.91,6.9c0.3,0.3,0.61,0.6,0.9,0.88c2.68-2.68,5.33-5.33,8-8
		C15.95,5.02,15.9,4.96,15.84,4.9z M2.52,6.07c-0.32-0.34-0.64-0.67-1-1.05c0.46-0.45,0.96-0.92,1.44-1.4
		c0.49-0.48,0.96-0.97,1.46-1.44C4.53,2.09,4.71,2.02,4.86,2c0.27-0.03,0.54,0,0.81-0.01c0.17,0,0.22,0.07,0.23,0.23
		c0.02,0.33-0.06,0.58-0.32,0.83C4.6,3.99,3.66,4.95,2.71,5.9C2.65,5.96,2.59,6.01,2.52,6.07z M7.97,11.51
		c-0.79-0.79-1.62-1.62-2.49-2.5c1.71,0,3.37,0,5.05,0C9.66,9.86,8.82,10.68,7.97,11.51z M13.44,6.05c-0.65-0.65-1.32-1.33-2-2.02
		c-0.38-0.38-0.76-0.76-1.14-1.14c-0.14-0.14-0.24-0.64-0.15-0.8C10.17,2.04,10.26,2,10.32,2c0.32-0.01,0.65-0.01,0.97,0
		c0.07,0,0.15,0.04,0.2,0.08c0.99,0.99,1.98,1.99,2.97,2.98C14.13,5.38,13.8,5.7,13.44,6.05z"/>
</g>
</svg>
