<svg width="16" height="17" viewBox="0 0 16 17" fill="none" xmlns="http://www.w3.org/2000/svg">
<path d="M13.5652 7.99999C13.5652 7.72324 13.4553 7.45783 13.2596 7.26214C13.0639 7.06645 12.7985 6.95651 12.5218 6.95651H3.47829C3.20155 6.95651 2.93613 7.06645 2.74044 7.26214C2.54475 7.45783 2.43481 7.72324 2.43481 7.99999V9.04347H13.5652V7.99999Z" fill="#70576E"/>
<path d="M2.43481 15.1087C2.43481 15.5065 2.54475 15.8881 2.74044 16.1694C2.93613 16.4507 3.20155 16.6087 3.47829 16.6087H12.5218C12.7985 16.6087 13.0639 16.4507 13.2596 16.1694C13.4553 15.8881 13.5652 15.5065 13.5652 15.1087V14.6087H2.43481V15.1087Z" fill="#70576E"/>
<path d="M5.56525 3.82609C5.56525 3.18034 5.82178 2.56105 6.27839 2.10444C6.735 1.64783 7.35429 1.3913 8.00004 1.3913C8.64578 1.3913 9.26508 1.64783 9.72169 2.10444C10.1783 2.56105 10.4348 3.18034 10.4348 3.82609V6.26087H11.8261V3.82609C11.8261 2.81135 11.423 1.83817 10.7055 1.12064C9.98796 0.403105 9.01478 0 8.00004 0C6.9853 0 6.01212 0.403105 5.29458 1.12064C4.57705 1.83817 4.17395 2.81135 4.17395 3.82609V6.26087H5.56525V3.82609Z" fill="#70576E"/>
<path d="M15.3043 9.73914H0.695652C0.511154 9.73914 0.334212 9.81243 0.203752 9.94289C0.0732917 10.0733 0 10.2503 0 10.4348V13.2174C0 13.4019 0.0732917 13.5788 0.203752 13.7093C0.334212 13.8398 0.511154 13.913 0.695652 13.913H15.3043C15.4888 13.913 15.6658 13.8398 15.7962 13.7093C15.9267 13.5788 16 13.4019 16 13.2174V10.4348C16 10.2503 15.9267 10.0733 15.7962 9.94289C15.6658 9.81243 15.4888 9.73914 15.3043 9.73914ZM3.86087 12.0452C3.92788 12.0832 3.98039 12.1423 4.01016 12.2134C4.03994 12.2844 4.0453 12.3633 4.02541 12.4377C4.00552 12.5121 3.96149 12.5778 3.90024 12.6245C3.83899 12.6712 3.76397 12.6962 3.68696 12.6957C3.56522 12.6957 3.53739 12.6644 3.13043 12.4278V12.8696C3.13043 12.9618 3.09379 13.0503 3.02856 13.1155C2.96333 13.1808 2.87486 13.2174 2.78261 13.2174C2.69036 13.2174 2.60189 13.1808 2.53666 13.1155C2.47143 13.0503 2.43478 12.9618 2.43478 12.8696V12.4278C2.03478 12.6574 2.00348 12.6957 1.87826 12.6957C1.80125 12.6962 1.72623 12.6712 1.66498 12.6245C1.60373 12.5778 1.5597 12.5121 1.53981 12.4377C1.51991 12.3633 1.52528 12.2844 1.55505 12.2134C1.58483 12.1423 1.63734 12.0832 1.70435 12.0452L2.08696 11.8261L1.70435 11.607C1.66461 11.5841 1.62976 11.5537 1.60178 11.5174C1.57381 11.4811 1.55326 11.4396 1.54131 11.3954C1.52936 11.3511 1.52624 11.3049 1.53213 11.2595C1.53803 11.214 1.55281 11.1702 1.57565 11.1304C1.59849 11.0907 1.62893 11.0558 1.66524 11.0279C1.70155 10.9999 1.74301 10.9794 1.78726 10.9674C1.83151 10.9555 1.87768 10.9523 1.92313 10.9582C1.96859 10.9641 2.01243 10.9789 2.05217 11.0017L2.43478 11.2244V10.7826C2.43478 10.6904 2.47143 10.6019 2.53666 10.5367C2.60189 10.4714 2.69036 10.4348 2.78261 10.4348C2.87486 10.4348 2.96333 10.4714 3.02856 10.5367C3.09379 10.6019 3.13043 10.6904 3.13043 10.7826V11.2244L3.51304 11.0017C3.5933 10.9556 3.68859 10.9433 3.77796 10.9674C3.86732 10.9915 3.94344 11.0502 3.98957 11.1304C4.03569 11.2107 4.04804 11.306 4.02391 11.3954C3.99977 11.4847 3.94113 11.5608 3.86087 11.607L3.47826 11.8261L3.86087 12.0452ZM7.33913 12.0452C7.40614 12.0832 7.45865 12.1423 7.48842 12.2134C7.5182 12.2844 7.52357 12.3633 7.50367 12.4377C7.48378 12.5121 7.43975 12.5778 7.3785 12.6245C7.31725 12.6712 7.24223 12.6962 7.16522 12.6957C7.04348 12.6957 7.01565 12.6644 6.6087 12.4278V12.8696C6.6087 12.9618 6.57205 13.0503 6.50682 13.1155C6.44159 13.1808 6.35312 13.2174 6.26087 13.2174C6.16862 13.2174 6.08015 13.1808 6.01492 13.1155C5.94969 13.0503 5.91304 12.9618 5.91304 12.8696V12.4278C5.51304 12.6574 5.48174 12.6957 5.35652 12.6957C5.27951 12.6962 5.20449 12.6712 5.14324 12.6245C5.08199 12.5778 5.03796 12.5121 5.01807 12.4377C4.99817 12.3633 5.00354 12.2844 5.03332 12.2134C5.06309 12.1423 5.1156 12.0832 5.18261 12.0452L5.56522 11.8261L5.18261 11.607C5.10235 11.5608 5.04371 11.4847 5.01957 11.3954C4.99544 11.306 5.00779 11.2107 5.05391 11.1304C5.10004 11.0502 5.17616 10.9915 5.26552 10.9674C5.35489 10.9433 5.45018 10.9556 5.53043 11.0017L5.91304 11.2244V10.7826C5.91304 10.6904 5.94969 10.6019 6.01492 10.5367C6.08015 10.4714 6.16862 10.4348 6.26087 10.4348C6.35312 10.4348 6.44159 10.4714 6.50682 10.5367C6.57205 10.6019 6.6087 10.6904 6.6087 10.7826V11.2244L6.9913 11.0017C7.07156 10.9556 7.16685 10.9433 7.25622 10.9674C7.34558 10.9915 7.4217 11.0502 7.46783 11.1304C7.51395 11.2107 7.5263 11.306 7.50217 11.3954C7.47803 11.4847 7.41939 11.5608 7.33913 11.607L6.95652 11.8261L7.33913 12.0452ZM10.8174 12.0452C10.8844 12.0832 10.9369 12.1423 10.9667 12.2134C10.9965 12.2844 11.0018 12.3633 10.9819 12.4377C10.962 12.5121 10.918 12.5778 10.8568 12.6245C10.7955 12.6712 10.7205 12.6962 10.6435 12.6957C10.5252 12.6957 10.4974 12.6644 10.087 12.4278V12.8696C10.087 12.9618 10.0503 13.0503 9.98508 13.1155C9.91985 13.1808 9.83138 13.2174 9.73913 13.2174C9.64688 13.2174 9.55841 13.1808 9.49318 13.1155C9.42795 13.0503 9.3913 12.9618 9.3913 12.8696V12.4278C9.00174 12.6539 8.96 12.6957 8.83478 12.6957C8.75777 12.6962 8.68275 12.6712 8.6215 12.6245C8.56025 12.5778 8.51622 12.5121 8.49633 12.4377C8.47643 12.3633 8.4818 12.2844 8.51158 12.2134C8.54135 12.1423 8.59386 12.0832 8.66087 12.0452L9.04348 11.8261L8.66087 11.607C8.62113 11.5841 8.58628 11.5537 8.5583 11.5174C8.53033 11.4811 8.50978 11.4396 8.49783 11.3954C8.48588 11.3511 8.48276 11.3049 8.48866 11.2595C8.49455 11.214 8.50934 11.1702 8.53217 11.1304C8.55501 11.0907 8.58545 11.0558 8.62176 11.0279C8.65807 10.9999 8.69953 10.9794 8.74378 10.9674C8.78803 10.9555 8.8342 10.9523 8.87965 10.9582C8.92511 10.9641 8.96896 10.9789 9.0087 11.0017L9.3913 11.2244V10.7826C9.3913 10.6904 9.42795 10.6019 9.49318 10.5367C9.55841 10.4714 9.64688 10.4348 9.73913 10.4348C9.83138 10.4348 9.91985 10.4714 9.98508 10.5367C10.0503 10.6019 10.087 10.6904 10.087 10.7826V11.2244L10.4696 11.0017C10.5498 10.9556 10.6451 10.9433 10.7345 10.9674C10.8238 10.9915 10.9 11.0502 10.9461 11.1304C10.9922 11.2107 11.0046 11.306 10.9804 11.3954C10.9563 11.4847 10.8976 11.5608 10.8174 11.607L10.4348 11.8261L10.8174 12.0452ZM14.2957 12.0452C14.3627 12.0832 14.4152 12.1423 14.4449 12.2134C14.4747 12.2844 14.4801 12.3633 14.4602 12.4377C14.4403 12.5121 14.3963 12.5778 14.335 12.6245C14.2738 12.6712 14.1988 12.6962 14.1217 12.6957C14.0035 12.6957 13.9757 12.6644 13.5652 12.4278V12.8696C13.5652 12.9618 13.5286 13.0503 13.4633 13.1155C13.3981 13.1808 13.3096 13.2174 13.2174 13.2174C13.1251 13.2174 13.0367 13.1808 12.9714 13.1155C12.9062 13.0503 12.8696 12.9618 12.8696 12.8696V12.4278C12.48 12.6539 12.4383 12.6957 12.313 12.6957C12.236 12.6962 12.161 12.6712 12.0998 12.6245C12.0385 12.5778 11.9945 12.5121 11.9746 12.4377C11.9547 12.3633 11.9601 12.2844 11.9898 12.2134C12.0196 12.1423 12.0721 12.0832 12.1391 12.0452L12.5217 11.8261L12.1391 11.607C12.0994 11.5841 12.0645 11.5537 12.0366 11.5174C12.0086 11.4811 11.988 11.4396 11.9761 11.3954C11.9641 11.3511 11.961 11.3049 11.9669 11.2595C11.9728 11.214 11.9876 11.1702 12.0104 11.1304C12.0333 11.0907 12.0637 11.0558 12.1 11.0279C12.1363 10.9999 12.1778 10.9794 12.222 10.9674C12.2663 10.9555 12.3125 10.9523 12.3579 10.9582C12.4034 10.9641 12.4472 10.9789 12.487 11.0017L12.8696 11.2244V10.7826C12.8696 10.6904 12.9062 10.6019 12.9714 10.5367C13.0367 10.4714 13.1251 10.4348 13.2174 10.4348C13.3096 10.4348 13.3981 10.4714 13.4633 10.5367C13.5286 10.6019 13.5652 10.6904 13.5652 10.7826V11.2244L13.9478 11.0017C14.0281 10.9556 14.1234 10.9433 14.2127 10.9674C14.3021 10.9915 14.3782 11.0502 14.4243 11.1304C14.4705 11.2107 14.4828 11.306 14.4587 11.3954C14.4346 11.4847 14.3759 11.5608 14.2957 11.607L13.913 11.8261L14.2957 12.0452Z" fill="#70576E"/>
</svg>
