<svg width="26" height="23" viewBox="0 0 26 23" fill="none" xmlns="http://www.w3.org/2000/svg">
<g clip-path="url(#clip0_1274_2182)">
<path d="M22.9012 15.301C22.724 13.3869 22.5586 11.461 22.3814 9.54689C22.2396 7.93998 22.0978 6.32127 21.956 4.71437C21.9206 4.27719 21.6961 4.08815 21.2589 4.08815C20.55 4.08815 16.6627 4.08815 15.9419 4.08815H15.7174C15.7174 4.02907 15.7056 3.99362 15.7056 3.95818C15.5875 2.18586 14.5359 0.791635 12.8699 0.212678C12.5864 0.118155 12.2792 0.0708927 11.9838 0H11.1685C11.1685 0 11.0503 0.0354464 10.9913 0.0472618C9.57341 0.283571 8.53365 1.03976 7.87199 2.31583C7.58842 2.85934 7.45845 3.45011 7.43481 4.08815H7.18669C6.46595 4.08815 2.56685 4.08815 1.85792 4.08815C1.46801 4.08815 1.26715 4.27719 1.20807 4.65529C1.20807 4.71437 1.20807 4.77344 1.19626 4.84434C1.0781 6.14404 0.971763 7.44374 0.853608 8.74344C0.723638 10.2086 0.593668 11.6737 0.463698 13.127C0.333728 14.6157 0.215574 16.1045 0.0619728 17.5932C-0.00891994 18.314 0.0265264 18.9992 0.451883 19.6137C1.06629 20.4998 1.94063 20.937 3.00402 20.9842C3.84292 21.0197 7.86017 20.9842 8.69907 20.9842C11.3812 20.9842 17.2535 20.9842 19.9356 20.9842C20.6799 20.9842 21.3652 20.807 21.9796 20.3698C22.7476 19.8145 23.2084 19.0701 23.1612 18.1131C23.1139 17.1679 23.0076 16.2344 22.9249 15.301H22.9012ZM9.84517 1.40604C10.9795 0.708927 12.161 0.708927 13.2953 1.40604C14.2641 2.00863 14.7486 2.9066 14.8195 4.06452H8.32097C8.39187 2.91842 8.8763 2.00863 9.84517 1.40604ZM21.0344 19.6491C20.6681 19.8263 20.29 19.8854 19.8883 19.8854C16.4264 19.8854 6.70226 19.8854 3.24033 19.8854C2.59048 19.8854 1.99971 19.72 1.5389 19.2237C1.25533 18.9165 1.10173 18.5503 1.13718 18.1131C1.36167 15.5373 1.58617 12.9734 1.81066 10.3976C1.96426 8.69617 2.11786 6.99475 2.25965 5.29332C2.25965 5.25788 2.27146 5.22243 2.28328 5.18698H7.37574V5.41148C7.37574 5.91954 7.37574 6.41579 7.37574 6.92386C7.37574 7.29013 7.62386 7.53826 7.95469 7.53826C8.28553 7.53826 8.53365 7.27832 8.53365 6.92386C8.53365 6.35671 8.53365 5.77776 8.53365 5.1988H14.5595V5.41148C14.5595 5.91954 14.5595 6.41579 14.5595 6.92386C14.5595 7.29013 14.8077 7.53826 15.1385 7.53826C15.4693 7.53826 15.7174 7.29013 15.7174 6.92386C15.7174 6.35671 15.7174 5.77776 15.7174 5.1988H20.8099C20.8335 5.38785 20.8572 5.57689 20.869 5.77776C21.0935 8.32989 21.318 10.8938 21.5425 13.446C21.6843 14.9938 21.8142 16.5298 21.956 18.0776C22.0151 18.7393 21.637 19.3419 20.999 19.6491H21.0344Z" fill="#212121"/>
</g>
<defs>
<clipPath id="clip0_1274_2182">
<rect width="25.3427" height="23" fill="white"/>
</clipPath>
</defs>
</svg>
