<svg width="20" height="18" viewBox="0 0 20 18" fill="none" xmlns="http://www.w3.org/2000/svg">
<g clip-path="url(#clip0_1188_2805)">
<path d="M19.38 12.95C19.23 11.33 19.09 9.7 18.94 8.08C18.82 6.72 18.7 5.35 18.58 3.99C18.55 3.62 18.36 3.46 17.99 3.46C17.39 3.46 14.1 3.46 13.49 3.46H13.3C13.3 3.41 13.29 3.38 13.29 3.35C13.19 1.85 12.3 0.67 10.89 0.18C10.65 0.1 10.39 0.06 10.14 0H9.45C9.45 0 9.35 0.03 9.3 0.04C8.1 0.24 7.22 0.88 6.66 1.96C6.42 2.42 6.31 2.92 6.29 3.46H6.08C5.47 3.46 2.17 3.46 1.57 3.46C1.24 3.46 1.07 3.62 1.02 3.94C1.02 3.99 1.02 4.04 1.01 4.1C0.909998 5.2 0.819998 6.3 0.719998 7.4C0.609998 8.64 0.499998 9.88 0.389998 11.11C0.279998 12.37 0.179998 13.63 0.0499983 14.89C-0.0100017 15.5 0.0199983 16.08 0.379998 16.6C0.899998 17.35 1.64 17.72 2.54 17.76C3.25 17.79 6.65 17.76 7.36 17.76C9.63 17.76 14.6 17.76 16.87 17.76C17.5 17.76 18.08 17.61 18.6 17.24C19.25 16.77 19.64 16.14 19.6 15.33C19.56 14.53 19.47 13.74 19.4 12.95H19.38ZM8.33 1.19C9.29 0.6 10.29 0.6 11.25 1.19C12.07 1.7 12.48 2.46 12.54 3.44H7.04C7.1 2.47 7.51 1.7 8.33 1.19ZM17.8 16.63C17.49 16.78 17.17 16.83 16.83 16.83C13.9 16.83 5.67 16.83 2.74 16.83C2.19 16.83 1.69 16.69 1.3 16.27C1.06 16.01 0.929998 15.7 0.959998 15.33C1.15 13.15 1.34 10.98 1.53 8.8C1.66 7.36 1.79 5.92 1.91 4.48C1.91 4.45 1.92 4.42 1.93 4.39H6.24V4.58C6.24 5.01 6.24 5.43 6.24 5.86C6.24 6.17 6.45 6.38 6.73 6.38C7.01 6.38 7.22 6.16 7.22 5.86C7.22 5.38 7.22 4.89 7.22 4.4H12.32V4.58C12.32 5.01 12.32 5.43 12.32 5.86C12.32 6.17 12.53 6.38 12.81 6.38C13.09 6.38 13.3 6.17 13.3 5.86C13.3 5.38 13.3 4.89 13.3 4.4H17.61C17.63 4.56 17.65 4.72 17.66 4.89C17.85 7.05 18.04 9.22 18.23 11.38C18.35 12.69 18.46 13.99 18.58 15.3C18.63 15.86 18.31 16.37 17.77 16.63H17.8Z" fill="#212121"/>
</g>
<defs>
<clipPath id="clip0_1188_2805">
<rect width="19.58" height="17.77" fill="white"/>
</clipPath>
</defs>
</svg>
