<?xml version="1.0" encoding="UTF-8"?>
<svg id="Layer_2" data-name="Layer 2" xmlns="http://www.w3.org/2000/svg" viewBox="0 0 26.72 20.57">
  <defs>
    <style>
      .cls-1 {
        fill: #ea1f48;
        stroke-width: 0px;
      }
    </style>
  </defs>
  <g id="Layer_1-2" data-name="Layer 1">
    <g>
      <path class="cls-1" d="m0,12.49v-.13c.04-.17.19-.16.31-.22.12-.04.23-.09.35-.13.12-.03.23-.09.35-.13.1-.03.21-.07.31-.1.12-.04.24-.08.35-.12.12-.04.23-.09.35-.13.08-.03.17-.05.25-.07.13-.04.26-.08.39-.12.16-.04.31-.09.47-.12.06-.01.13-.03.19-.04.11-.03.22-.03.33-.05.12-.01.23-.04.35-.04.2,0,.39,0,.59,0,.02,0,.04,0,.05,0,.12,0,.23.02.34.03.11.02.22.03.32.06.22.05.43.13.65.2.09.05.19.09.29.13.04.02.08.04.12.06.09.05.18.09.27.13.11.05.21.12.32.17.01,0,.03.01.04.02.11.06.2.14.31.19.21.14.42.28.63.43.02.02.05.03.07.05.09.07.19.14.28.21.05.05.11.08.16.13.06.04.11.08.16.13.21.15.38.32.56.5.04.04.08.08.13.11.07.09.15.17.2.27.08.13.09.29.12.43,0,.04,0,.08,0,.12-.01.05-.02.09-.02.14-.02.08-.03.17-.07.25-.13.28-.34.49-.64.6-.07.02-.13.04-.2.04-.21.01-.41,0-.62,0-.04,0-.07,0-.11,0-.12-.02-.23-.03-.35-.03-.1-.02-.21-.03-.32-.03-.11-.03-.23-.02-.34-.03-.1-.03-.21-.02-.32-.03-.11-.03-.23-.03-.34-.04-.1-.03-.21-.02-.32-.03-.11-.03-.23-.01-.35-.04-.22-.03-.43-.05-.65-.06-.1-.03-.21-.01-.32-.03-.1-.03-.21-.02-.31-.04-.16-.03-.32-.03-.48-.06-.08-.02-.14-.08-.19-.13-.03-.03-.05-.05-.08-.08-.08-.08-.16-.16-.24-.24-.02-.03-.05-.05-.08-.08-.09-.1-.21-.17-.3-.27-.02-.03-.05-.05-.08-.08-.07-.08-.17-.13-.24-.21-.03-.03-.07-.07-.11-.09-.08-.07-.16-.13-.24-.19-.06-.05-.13-.1-.19-.15-.04-.02-.07-.05-.1-.08-.23-.15-.45-.31-.69-.43-.21-.1-.41-.23-.64-.29-.12-.04-.23-.08-.36-.11-.11-.03-.25-.02-.3-.17Z"/>
      <path class="cls-1" d="m11.36,20.53c-.19.01-.39.02-.58.03-.25-.02-.5-.02-.76-.06-.14-.02-.28-.04-.41-.09-.11-.04-.22-.07-.32-.11-.07-.04-.16-.06-.23-.1-.14-.08-.28-.13-.41-.22-.07-.04-.13-.08-.2-.13-.06-.05-.13-.09-.19-.13-.11-.08-.2-.17-.32-.23-.09-.12-.2-.22-.31-.32-.3-.35-.67-.63-.98-.97-.22-.23-.48-.42-.69-.66-.11-.11-.21-.21-.32-.32-.1-.12-.24-.19-.34-.31-.02-.01-.03-.03-.05-.05-.1-.1-.21-.21-.31-.31-.1-.1-.2-.2-.31-.31-.02-.01-.03-.03-.05-.04-.12-.09-.23-.18-.3-.31,0-.02,0-.03.02-.04.01,0,.03-.01.05-.02.07-.01.15,0,.22,0,.05.02.1.02.15.02.06,0,.12,0,.18.01.2.02.39.04.59.05.05,0,.09,0,.14,0,.11.03.23.02.35.03.1.02.21.03.32.03.12,0,.23.04.34.03.05,0,.09,0,.13.01.2.03.39.03.59.05.05,0,.09,0,.14.01.22.02.43.03.65.05.04,0,.07,0,.11,0,.13.01.25-.03.37-.03.1,0,.21-.01.31-.03.12,0,.23-.04.34-.06.09-.01.17-.04.26-.06.14-.03.27-.08.4-.13.13-.04.25-.1.38-.15.12-.05.24-.11.35-.18.08-.04.17-.08.24-.14.09-.06.18-.11.26-.18.03-.03.07-.05.1-.07.11-.07.2-.17.31-.26.13-.1.23-.22.35-.34.12-.11.23-.23.35-.35.11-.1.21-.21.32-.32.22-.22.44-.44.66-.66.22-.22.44-.44.66-.66.22-.22.44-.44.66-.66.11-.1.21-.21.32-.32.12-.11.23-.23.35-.35.12-.11.23-.23.35-.35.11-.1.21-.21.32-.32.12-.11.23-.23.35-.35.11-.1.21-.21.32-.32.12-.11.23-.23.35-.35.11-.1.21-.21.32-.32.22-.22.44-.44.66-.66.22-.22.44-.44.66-.66.22-.22.44-.44.66-.66.22-.22.44-.44.66-.66.12-.11.23-.23.35-.35.11-.1.21-.21.32-.32.12-.11.23-.23.35-.35.11-.1.21-.21.32-.32.12-.11.23-.23.35-.35.11-.1.21-.21.32-.32.22-.22.44-.44.66-.66.22-.22.44-.44.66-.66.22-.22.44-.44.66-.66.22-.22.44-.44.66-.66.11-.1.21-.21.32-.32.12-.11.23-.23.35-.35.12-.11.23-.23.35-.35.11-.1.21-.21.32-.32.12-.12.23-.24.36-.35.06-.09.15-.16.22-.24.05-.05.12-.05.19-.04.03.03.07.07.1.1.01.19-.15.29-.22.44,0,.04-.01.07-.03.1-.08.1-.14.21-.21.31-.03.03-.05.06-.07.1-.05.09-.13.17-.18.26-.04.08-.1.14-.14.21-.1.13-.18.27-.27.41-.03.05-.06.09-.09.14-.05.07-.09.14-.14.21-.06.08-.12.17-.17.26-.02.02-.03.05-.05.07-.07.11-.15.22-.22.33-.02.03-.05.07-.07.11-.06.09-.12.17-.18.26-.14.2-.27.41-.41.61-.03.05-.06.09-.09.14-.05.07-.09.14-.14.21-.06.08-.12.17-.17.26-.02.02-.03.05-.05.07-.07.11-.15.22-.22.33-.02.03-.05.07-.07.11-.06.09-.12.18-.18.26-.14.2-.26.41-.41.61-.03.04-.07.09-.1.14-.04.06-.09.13-.13.19-.06.08-.11.16-.16.24-.03.04-.06.09-.09.14-.07.1-.14.21-.21.31-.02.02-.03.05-.05.07-.06.09-.12.19-.19.28-.04.06-.09.13-.13.19-.09.14-.19.28-.28.43-.02.03-.05.07-.07.1-.05.07-.1.15-.15.22-.06.08-.11.16-.16.24-.03.04-.06.09-.09.14-.07.1-.14.21-.21.31-.01.02-.03.05-.05.07-.06.09-.12.19-.19.28-.07.11-.14.21-.21.32-.08.11-.15.23-.23.33-.02.03-.04.05-.06.08-.04.07-.09.14-.13.21-.07.08-.11.18-.18.25-.03.04-.06.08-.08.12-.07.11-.14.21-.21.32-.02.02-.03.05-.05.07-.07.09-.13.18-.19.27-.04.06-.09.13-.13.19-.11.15-.21.31-.31.46-.02.03-.04.06-.06.09-.05.07-.09.14-.14.21-.06.08-.12.17-.17.26-.03.04-.06.08-.08.12-.07.1-.14.21-.21.31-.02.02-.03.05-.05.07-.06.09-.13.18-.19.28-.07.1-.14.21-.21.32-.08.11-.15.22-.22.34-.02.03-.04.06-.06.09-.05.08-.11.16-.16.24-.05.07-.1.15-.15.22-.03.04-.06.08-.08.12-.07.1-.14.2-.21.3-.01.02-.03.05-.04.07-.06.09-.14.18-.19.28-.05.06-.09.12-.13.19-.1.14-.21.29-.31.44-.02.03-.05.07-.07.1-.05.08-.11.16-.16.24-.05.07-.1.15-.15.22-.02.03-.05.07-.07.11-.07.11-.14.22-.21.33-.01.02-.02.04-.04.05-.07.1-.14.21-.21.32-.07.1-.14.2-.2.3-.07.1-.14.21-.21.32-.02.03-.05.07-.07.1-.05.08-.11.16-.16.24-.04.06-.09.12-.13.19-.03.04-.06.09-.09.14-.08.11-.15.23-.23.34,0,.01-.02.02-.02.04-.09.1-.17.22-.27.31-.01.02-.03.03-.05.05-.09.09-.18.18-.27.27-.03.03-.05.05-.08.07-.21.16-.42.31-.65.44-.09.05-.18.1-.27.14-.02.01-.04.02-.06.03-.11.05-.22.1-.34.14-.12.03-.25.07-.37.11-.17.05-.35.04-.53.06Z"/>
    </g>
  </g>
</svg>