<?xml version="1.0" encoding="utf-8"?>
<!-- Generator: Adobe Illustrator 27.8.0, SVG Export Plug-In . SVG Version: 6.00 Build 0)  -->
<svg version="1.1" id="Layer_1" xmlns="http://www.w3.org/2000/svg" xmlns:xlink="http://www.w3.org/1999/xlink" x="0px" y="0px"
	 viewBox="0 0 16.05 16.05" style="enable-background:new 0 0 16.05 16.05;" xml:space="preserve">
<style type="text/css">
	.st0{fill:#4C0C4B;}
</style>
<g>
	<g>
		<g>
			<path class="st0" d="M7.44,6.25l0.58,0.33c0,0,0.01,0,0.02,0l0.58-0.33c0.01,0,0.01-0.01,0.01-0.02L8.22,3.48
				c0-0.01-0.01-0.02-0.02-0.03L8.03,3.26c0,0-0.01,0-0.01,0L7.84,3.45C7.83,3.46,7.83,3.47,7.82,3.48L7.43,6.24
				C7.43,6.24,7.43,6.25,7.44,6.25z"/>
			<path class="st0" d="M8.02,0L7.47,2.66C7.45,2.74,7.48,2.83,7.55,2.88l0.46,0.37c0,0,0.01,0,0.01,0l0.46-0.37
				c0.07-0.05,0.1-0.14,0.08-0.23L8.02,0C8.02,0,8.02,0,8.02,0z"/>
		</g>
		<g>
			<path class="st0" d="M8.86,6.36L9.03,7c0,0.01,0.01,0.01,0.01,0.01l0.64,0.17c0.01,0,0.01,0,0.02-0.01l1.67-2.23
				c0.01-0.01,0.01-0.02,0.01-0.03l0.01-0.26c0,0,0-0.01-0.01-0.01l-0.26,0.01c-0.01,0-0.02,0-0.03,0.01L8.87,6.34
				C8.86,6.34,8.86,6.35,8.86,6.36z"/>
			<path class="st0" d="M13.69,2.35l-2.27,1.49c-0.07,0.05-0.11,0.13-0.1,0.22l0.06,0.59c0,0.01,0,0.01,0.01,0.01l0.59,0.07
				c0.09,0.01,0.17-0.03,0.22-0.1L13.69,2.35C13.7,2.35,13.69,2.35,13.69,2.35z"/>
		</g>
		<g>
			<path class="st0" d="M9.79,7.44L9.46,8.01c0,0,0,0.01,0,0.02l0.33,0.58c0,0.01,0.01,0.01,0.02,0.01l2.76-0.39
				c0.01,0,0.02-0.01,0.03-0.02l0.19-0.18c0,0,0-0.01,0-0.01L12.6,7.84c-0.01-0.01-0.02-0.01-0.03-0.01L9.81,7.43
				C9.8,7.43,9.8,7.43,9.79,7.44z"/>
			<path class="st0" d="M16.04,8.02l-2.66-0.55c-0.08-0.02-0.17,0.01-0.23,0.08l-0.37,0.46c0,0,0,0.01,0,0.01l0.37,0.46
				c0.05,0.07,0.14,0.1,0.23,0.08L16.04,8.02C16.05,8.02,16.05,8.02,16.04,8.02z"/>
		</g>
		<g>
			<path class="st0" d="M9.69,8.86L9.04,9.03c-0.01,0-0.01,0.01-0.01,0.01L8.86,9.69c0,0.01,0,0.01,0.01,0.02l2.23,1.67
				c0.01,0.01,0.02,0.01,0.03,0.01l0.26,0.01c0,0,0.01,0,0.01-0.01l-0.01-0.26c0-0.01,0-0.02-0.01-0.03L9.7,8.87
				C9.7,8.86,9.69,8.86,9.69,8.86z"/>
			<path class="st0" d="M13.7,13.69l-1.49-2.27c-0.05-0.07-0.13-0.11-0.22-0.1l-0.59,0.06c-0.01,0-0.01,0-0.01,0.01l-0.07,0.59
				c-0.01,0.09,0.03,0.17,0.1,0.22L13.7,13.69C13.69,13.7,13.7,13.69,13.7,13.69z"/>
		</g>
		<g>
			<path class="st0" d="M8.61,9.79L8.03,9.46c0,0-0.01,0-0.02,0L7.44,9.79c-0.01,0-0.01,0.01-0.01,0.02l0.39,2.76
				c0,0.01,0.01,0.02,0.02,0.03l0.18,0.19c0,0,0.01,0,0.01,0l0.18-0.19c0.01-0.01,0.01-0.02,0.01-0.03l0.39-2.76
				C8.62,9.8,8.61,9.8,8.61,9.79z"/>
			<path class="st0" d="M8.03,16.04l0.55-2.66c0.02-0.08-0.01-0.17-0.08-0.23l-0.46-0.37c0,0-0.01,0-0.01,0l-0.46,0.37
				c-0.07,0.05-0.1,0.14-0.08,0.23L8.03,16.04C8.02,16.05,8.02,16.05,8.03,16.04z"/>
		</g>
		<g>
			<path class="st0" d="M7.18,9.69L7.01,9.04c0-0.01-0.01-0.01-0.01-0.01L6.36,8.86c-0.01,0-0.01,0-0.02,0.01l-1.67,2.23
				c-0.01,0.01-0.01,0.02-0.01,0.03l-0.01,0.26c0,0,0,0.01,0.01,0.01l0.26-0.01c0.01,0,0.02,0,0.03-0.01L7.18,9.7
				C7.18,9.7,7.19,9.69,7.18,9.69z"/>
			<path class="st0" d="M2.35,13.7l2.27-1.49c0.07-0.05,0.11-0.13,0.1-0.22L4.66,11.4c0-0.01,0-0.01-0.01-0.01l-0.59-0.07
				c-0.09-0.01-0.17,0.03-0.22,0.1L2.35,13.7C2.35,13.69,2.35,13.7,2.35,13.7z"/>
		</g>
		<g>
			<path class="st0" d="M6.25,8.61l0.33-0.58c0,0,0-0.01,0-0.02L6.25,7.44c0-0.01-0.01-0.01-0.02-0.01L3.48,7.82
				c-0.01,0-0.02,0.01-0.03,0.02L3.26,8.02c0,0,0,0.01,0,0.01l0.19,0.18c0.01,0.01,0.02,0.01,0.03,0.01l2.76,0.39
				C6.24,8.62,6.25,8.61,6.25,8.61z"/>
			<path class="st0" d="M0,8.03l2.66,0.55c0.08,0.02,0.17-0.01,0.23-0.08l0.37-0.46c0,0,0-0.01,0-0.01L2.89,7.55
				c-0.05-0.07-0.14-0.1-0.23-0.08L0,8.03C0,8.02,0,8.02,0,8.03z"/>
		</g>
		<g>
			<path class="st0" d="M6.36,7.18L7,7.01c0.01,0,0.01-0.01,0.01-0.01l0.17-0.64c0-0.01,0-0.01-0.01-0.02L4.95,4.67
				C4.94,4.66,4.93,4.66,4.92,4.66L4.66,4.65c0,0-0.01,0-0.01,0.01l0.01,0.26c0,0.01,0,0.02,0.01,0.03l1.67,2.23
				C6.34,7.18,6.35,7.19,6.36,7.18z"/>
			<path class="st0" d="M2.35,2.35l1.49,2.27c0.05,0.07,0.13,0.11,0.22,0.1l0.59-0.06c0.01,0,0.01,0,0.01-0.01l0.07-0.59
				c0.01-0.09-0.03-0.17-0.1-0.22L2.35,2.35C2.35,2.35,2.35,2.35,2.35,2.35z"/>
		</g>
	</g>
	<g>
		<path class="st0" d="M7.31,6.28L6.98,3.3c0-0.01-0.02-0.01-0.02,0L6.76,4.93c0,0.01-0.01,0.01-0.01,0L5.46,3.91
			c-0.01-0.01-0.02,0-0.01,0.01l1.85,2.37C7.3,6.3,7.31,6.29,7.31,6.28z"/>
		<path class="st0" d="M6.07,0.61L5.54,1.79c-0.02,0.04-0.06,0.06-0.1,0.04L4.23,1.36C4.08,1.3,3.91,1.46,3.96,1.61l0.43,1.05
			c0.02,0.04,0.04,0.07,0.07,0.1l2.01,1.61C6.5,4.39,6.55,4.37,6.56,4.33l0.32-2.56c0-0.04,0-0.08-0.01-0.11L6.44,0.6
			C6.37,0.46,6.14,0.46,6.07,0.61z"/>
	</g>
	<g>
		<path class="st0" d="M8.76,6.28l1.89-2.33c0.01-0.01,0-0.02-0.01-0.01l-1.31,1c0,0-0.01,0-0.01,0L9.14,3.29
			c0-0.01-0.02-0.01-0.02,0L8.74,6.28C8.74,6.28,8.75,6.29,8.76,6.28z"/>
		<path class="st0" d="M11.92,1.41L10.7,1.86c-0.04,0.01-0.08,0-0.1-0.04l-0.51-1.19c-0.06-0.15-0.29-0.16-0.36-0.01L9.28,1.65
			C9.26,1.69,9.26,1.73,9.26,1.77l0.27,2.56c0,0.04,0.05,0.06,0.08,0.04l2.05-1.57c0.03-0.02,0.05-0.05,0.07-0.09l0.45-1.05
			C12.24,1.52,12.07,1.36,11.92,1.41z"/>
	</g>
	<g>
		<path class="st0" d="M9.78,7.32l2.99-0.29c0.01,0,0.01-0.02,0-0.02l-1.63-0.23c-0.01,0-0.01-0.01,0-0.01l1.04-1.27
			c0.01-0.01,0-0.02-0.01-0.01L9.77,7.3C9.76,7.31,9.77,7.32,9.78,7.32z"/>
		<path class="st0" d="M15.47,6.14l-1.18-0.55c-0.04-0.02-0.05-0.06-0.04-0.1l0.49-1.21c0.06-0.15-0.09-0.32-0.24-0.27l-1.05,0.41
			c-0.04,0.02-0.07,0.04-0.1,0.07L11.71,6.5c-0.03,0.03-0.01,0.08,0.03,0.08l2.56,0.35c0.04,0.01,0.08,0,0.11-0.01l1.06-0.42
			C15.62,6.44,15.61,6.21,15.47,6.14z"/>
	</g>
	<g>
		<path class="st0" d="M9.77,8.76l2.31,1.92c0.01,0.01,0.02,0,0.01-0.01l-0.98-1.32c0,0,0-0.01,0-0.01l1.64-0.16
			c0.01,0,0.01-0.02,0-0.02L9.77,8.74C9.76,8.74,9.76,8.75,9.77,8.76z"/>
		<path class="st0" d="M14.6,11.97l-0.44-1.22c-0.01-0.04,0.01-0.08,0.04-0.1l1.2-0.5c0.15-0.06,0.16-0.29,0.02-0.36l-1.04-0.46
			c-0.04-0.02-0.08-0.02-0.12-0.02l-2.56,0.24c-0.04,0-0.06,0.05-0.04,0.08l1.55,2.06c0.02,0.03,0.05,0.05,0.09,0.07l1.04,0.46
			C14.49,12.29,14.66,12.13,14.6,11.97z"/>
	</g>
	<g>
		<path class="st0" d="M8.74,9.78L9,12.77c0,0.01,0.02,0.01,0.02,0l0.25-1.62c0-0.01,0.01-0.01,0.01,0l1.26,1.05
			c0.01,0.01,0.02,0,0.01-0.01L8.76,9.77C8.75,9.76,8.74,9.77,8.74,9.78z"/>
		<path class="st0" d="M9.85,15.48l0.56-1.17c0.02-0.04,0.06-0.05,0.1-0.04l1.2,0.5c0.15,0.06,0.32-0.09,0.27-0.24l-0.4-1.06
			c-0.01-0.04-0.04-0.07-0.07-0.1l-1.98-1.65c-0.03-0.03-0.08-0.01-0.08,0.03L9.07,14.3c-0.01,0.04,0,0.08,0.01,0.11l0.4,1.06
			C9.55,15.62,9.78,15.62,9.85,15.48z"/>
	</g>
	<g>
		<path class="st0" d="M7.29,9.77l-1.94,2.29c-0.01,0.01,0,0.02,0.01,0.01l1.33-0.97c0,0,0.01,0,0.01,0.01l0.14,1.64
			c0,0.01,0.02,0.01,0.02,0l0.45-2.97C7.31,9.77,7.3,9.76,7.29,9.77z"/>
		<path class="st0" d="M4.02,14.57l1.23-0.42c0.04-0.01,0.08,0.01,0.1,0.04l0.49,1.2c0.06,0.15,0.29,0.17,0.36,0.02l0.47-1.03
			c0.02-0.04,0.02-0.08,0.02-0.12L6.47,11.7c0-0.04-0.05-0.06-0.08-0.04l-2.08,1.53c-0.03,0.02-0.06,0.05-0.07,0.09l-0.47,1.04
			C3.7,14.46,3.87,14.62,4.02,14.57z"/>
	</g>
	<g>
		<path class="st0" d="M6.26,8.75l-3,0.23c-0.01,0-0.01,0.02,0,0.02l1.62,0.26c0.01,0,0.01,0.01,0,0.01l-1.06,1.25
			c-0.01,0.01,0,0.02,0.01,0.01l2.43-1.77C6.27,8.76,6.27,8.75,6.26,8.75z"/>
		<path class="st0" d="M0.54,9.8l1.16,0.58c0.04,0.02,0.05,0.06,0.04,0.1l-0.51,1.19c-0.06,0.15,0.09,0.32,0.24,0.27l1.06-0.39
			c0.04-0.01,0.07-0.04,0.1-0.07l1.67-1.96c0.03-0.03,0.01-0.08-0.03-0.08L1.73,9.03c-0.04-0.01-0.08,0-0.11,0.01L0.55,9.44
			C0.4,9.5,0.4,9.73,0.54,9.8z"/>
	</g>
	<g>
		<path class="st0" d="M6.28,7.3L4.01,5.33C4,5.32,3.99,5.33,4,5.34l0.95,1.34c0,0,0,0.01-0.01,0.01L3.31,6.81
			c-0.01,0-0.01,0.02,0,0.02l2.97,0.48C6.28,7.32,6.29,7.3,6.28,7.3z"/>
		<path class="st0" d="M1.52,3.97l0.41,1.23c0.01,0.04-0.01,0.08-0.05,0.1L0.67,5.78C0.52,5.84,0.5,6.07,0.64,6.14l1.03,0.48
			c0.04,0.02,0.08,0.03,0.12,0.02l2.57-0.19c0.04,0,0.06-0.05,0.04-0.08l-1.5-2.1C2.87,4.25,2.84,4.22,2.81,4.21L1.78,3.72
			C1.63,3.66,1.47,3.82,1.52,3.97z"/>
	</g>
</g>
</svg>
