<?xml version="1.0" encoding="UTF-8"?>
<svg id="Layer_2" data-name="Layer 2" xmlns="http://www.w3.org/2000/svg" viewBox="0 0 14.01 10.5">
  <defs>
    <style>
      .cls-1 {
        fill: #4c0c4b;
        stroke-width: 0px;
      }
    </style>
  </defs>
  <g id="Layer_1-2" data-name="Layer 1">
    <g>
      <path class="cls-1" d="m7,0C8.56,0,10.12,0,11.68,0c.33,0,.66.04.97.18.58.26.98.69,1.22,1.28.1.26.15.53.15.8,0,2,0,3.99,0,5.99,0,.95-.65,1.84-1.59,2.14-.26.08-.54.1-.81.1-2.46,0-4.92,0-7.39,0-.65,0-1.3,0-1.96,0-.97-.02-1.65-.5-2.07-1.36C.05,8.84,0,8.53,0,8.22,0,6.24,0,4.27,0,2.3,0,1.58.28.99.82.52,1.17.2,1.6.04,2.08,0c.12,0,.25,0,.37,0,1.52,0,3.03,0,4.55,0Zm0,.65h0c-1.57,0-3.14,0-4.71,0-.16,0-.32.02-.47.05-.6.15-1.15.72-1.15,1.48,0,2.04,0,4.08,0,6.12,0,.32.1.62.3.88.35.44.8.65,1.37.65,3.04,0,6.08,0,9.12,0,.12,0,.25,0,.37,0,.2,0,.39-.04.56-.13.62-.29.96-.77.96-1.46,0-2.01,0-4.02,0-6.03,0-.57-.25-1.01-.72-1.31-.28-.19-.6-.25-.93-.25-1.56,0-3.13,0-4.69,0Z"/>
      <path class="cls-1" d="m9.11,5.36c.13.12.24.22.36.33.93.88,1.85,1.75,2.78,2.63.13.13.17.26.1.39-.08.15-.25.24-.39.2-.08-.03-.16-.08-.22-.14-.7-.66-1.39-1.32-2.08-1.99-.32-.3-.64-.6-.95-.9-.06-.05-.09-.03-.13.01-.32.32-.64.63-.97.95-.1.1-.21.19-.31.29-.2.19-.37.19-.56,0-.43-.41-.85-.83-1.28-1.24-.05-.05-.08-.03-.12,0-.26.25-.52.49-.79.74-.64.61-1.29,1.22-1.93,1.83-.13.13-.27.26-.41.38-.1.09-.22.09-.34.02-.13-.07-.2-.18-.19-.32,0-.1.06-.16.12-.23.2-.19.41-.39.61-.58.75-.71,1.51-1.43,2.26-2.14.06-.05.12-.11.18-.16.06-.05.06-.08,0-.13-.46-.44-.91-.88-1.37-1.33-.56-.54-1.11-1.09-1.67-1.64-.04-.04-.08-.08-.12-.13-.09-.12-.09-.27.01-.38.12-.13.29-.18.42-.09.08.05.14.11.21.18.54.53,1.08,1.06,1.63,1.59.87.85,1.74,1.69,2.61,2.54.12.12.25.24.37.37.05.05.08.05.13,0,.93-.9,1.86-1.8,2.79-2.71.62-.6,1.22-1.2,1.84-1.81.05-.05.1-.1.16-.14.11-.09.22-.08.34-.02.12.07.21.17.18.32-.01.07-.06.15-.11.2-.17.18-.34.34-.52.51-.49.49-.99.97-1.48,1.46-.38.37-.77.74-1.16,1.12Z"/>
    </g>
  </g>
</svg>