<?xml version="1.0" encoding="utf-8"?>
<!-- Generator: Adobe Illustrator 27.8.0, SVG Export Plug-In . SVG Version: 6.00 Build 0)  -->
<svg version="1.1" id="Layer_1" xmlns="http://www.w3.org/2000/svg" xmlns:xlink="http://www.w3.org/1999/xlink" x="0px" y="0px"
	 viewBox="0 0 17.49 17.73" style="enable-background:new 0 0 17.49 17.73;" xml:space="preserve">
<style type="text/css">
	.st0{fill:none;stroke:#4C0C4B;stroke-width:1.1339;stroke-miterlimit:10;}
	.st1{fill:none;stroke:#4C0C4B;stroke-width:1.1339;stroke-linecap:round;stroke-miterlimit:10;}
</style>
<g>
	<path class="st0" d="M9.09,1.86l1.74,3.93l4.28,0.44c0.36,0.04,0.51,0.49,0.24,0.73l-3.2,2.87l0.9,4.21
		c0.08,0.36-0.31,0.63-0.62,0.45l-3.72-2.16L4.98,14.5c-0.32,0.18-0.7-0.1-0.62-0.45l0.9-4.21l-3.2-2.87
		C1.79,6.72,1.94,6.27,2.3,6.24L6.58,5.8l1.74-3.93C8.47,1.53,8.94,1.53,9.09,1.86z"/>
	<line class="st1" x1="3.21" y1="1.79" x2="4.03" y2="2.65"/>
	<line class="st1" x1="14.24" y1="1.83" x2="13.38" y2="2.65"/>
	<line class="st1" x1="16.5" y1="12.04" x2="15.38" y2="11.62"/>
	<line class="st1" x1="0.99" y1="12" x2="2.03" y2="11.62"/>
	<line class="st1" x1="8.71" y1="15.6" x2="8.71" y2="16.11"/>
</g>
</svg>
