<svg width="30" height="30" viewBox="0 0 30 30" fill="none" xmlns="http://www.w3.org/2000/svg">
<g id="Group 1476">
<path id="Rectangle 287" d="M21 0H9C4.02944 0 0 4.02944 0 9V21C0 25.9706 4.02944 30 9 30H21C25.9706 30 30 25.9706 30 21V9C30 4.02944 25.9706 0 21 0Z" fill="#7E3080"/>
<g id="Group 1475">
<path id="Vector" d="M23 10.122L19.8781 7L17.7148 9.16326L20.8368 12.2852L23 10.122Z" fill="white"/>
<path id="Vector_2" d="M10.2002 19.8L13.6344 19.4879L19.544 13.5783L16.422 10.4563L10.5124 16.3659L10.2002 19.8Z" fill="white"/>
<path id="Vector_3" fill-rule="evenodd" clip-rule="evenodd" d="M17.4 23H7V21.4H17.4V23Z" fill="white"/>
</g>
</g>
</svg>
