<?xml version="1.0" encoding="UTF-8"?>
<svg id="Layer_2" data-name="Layer 2" xmlns="http://www.w3.org/2000/svg" xmlns:xlink="http://www.w3.org/1999/xlink" viewBox="0 0 100.85 104.26">
  <defs>
    <style>
      .cls-1 {
        fill: url(#linear-gradient);
      }

      .cls-1, .cls-2, .cls-3, .cls-4, .cls-5, .cls-6, .cls-7 {
        stroke-width: 0px;
      }

      .cls-2 {
        fill: url(#linear-gradient-6);
      }

      .cls-3 {
        fill: url(#linear-gradient-5);
      }

      .cls-4 {
        fill: url(#linear-gradient-2);
      }

      .cls-5 {
        fill: url(#linear-gradient-7);
      }

      .cls-6 {
        fill: url(#linear-gradient-3);
      }

      .cls-7 {
        fill: url(#linear-gradient-4);
      }
    </style>
    <linearGradient id="linear-gradient" x1="23.06" y1="58.69" x2="73.29" y2="58.69" gradientUnits="userSpaceOnUse">
      <stop offset="0" stop-color="#541355"/>
      <stop offset="1" stop-color="#7e3080"/>
    </linearGradient>
    <linearGradient id="linear-gradient-2" x1="64.13" y1="46.03" x2="96.47" y2="46.03" xlink:href="#linear-gradient"/>
    <linearGradient id="linear-gradient-3" x1="6.23" y1="91.06" x2="82.11" y2="91.06" xlink:href="#linear-gradient"/>
    <linearGradient id="linear-gradient-4" x1="0" y1="37.87" x2="49.72" y2="37.87" xlink:href="#linear-gradient"/>
    <linearGradient id="linear-gradient-5" x1="38.93" y1="9.31" x2="49.72" y2="9.31" xlink:href="#linear-gradient"/>
    <linearGradient id="linear-gradient-6" x1="3.41" y1="84.74" x2="19.97" y2="84.74" xlink:href="#linear-gradient"/>
    <linearGradient id="linear-gradient-7" x1="84.36" y1="74.09" x2="100.85" y2="74.09" xlink:href="#linear-gradient"/>
  </defs>
  <g id="Layer_1-2" data-name="Layer 1">
    <g>
      <path class="cls-1" d="m73.29,54.75c0-.24-.13-.47-.34-.59l-3.45-1.98,3.45-1.99c.21-.12.34-.35.34-.59s-.13-.47-.34-.59c-5.88-3.38-11.76-6.75-17.64-10.13-.21-.12-.47-.12-.68,0l-31.22,18.03c-.21.12-.34.35-.34.59,0,.24.13.47.34.59,1.15.66,2.3,1.32,3.45,1.98l-3.45,1.99c-.21.12-.34.35-.34.59,0,.24.13.47.34.59l3.45,1.98-3.45,1.99c-.21.12-.34.35-.34.59,0,.24.13.47.34.59l17.64,10.13c.1.06.22.09.34.09s.23-.03.34-.09l31.22-18.03c.21-.12.34-.35.34-.59,0-.24-.13-.47-.34-.59l-3.45-1.98,3.45-1.99c.21-.12.34-.35.34-.59Zm-18.32-14.5c5.43,3.12,10.85,6.24,16.28,9.35l-11.75,6.78c-.37-.21-1.06-.6-1.95-1.12l6.68-3.85c.16-.09.28-.25.32-.43.04-.18.01-.37-.09-.53-.14-.22-.35-.67-.15-1.14.14-.32.02-.69-.28-.86l-7.22-4.15c-.17-.1-.39-.12-.58-.05-.93.35-2.19.29-3.23-.14-.19-.08-.42-.07-.6.04l-7.07,4.08c-.26-.15-.51-.29-.74-.43l-1.37-.79,11.75-6.78Zm8.04,10.3l-6.82,3.94c-2.78-1.6-6.61-3.8-9.49-5.46l6.11-3.53c1.17.41,2.49.46,3.59.14l6.51,3.74c-.06.39-.02.79.11,1.17h0Zm-26.16.16c.66.38,1.31.75,1.97,1.13l-6.67,3.85c-.16.09-.28.25-.32.43-.04.18-.01.37.09.53.14.22.35.67.15,1.14-.14.32-.02.69.28.86l7.22,4.14c.17.1.39.12.58.05.93-.35,2.19-.29,3.23.14.08.04.17.05.26.05.12,0,.24-.03.34-.09l1.11-.64c1.98-1.15,3.97-2.29,5.95-3.44l2.1,1.2-11.74,6.78c-5.43-3.12-10.86-6.23-16.28-9.35l11.74-6.78Zm-3.48,5.84l6.81-3.93c2.87,1.65,5.74,3.3,8.62,4.95l.88.51c-1.76,1.01-3.51,2.03-5.27,3.04l-.83.48c-1.17-.41-2.49-.46-3.59-.14l-6.5-3.73c.06-.39.02-.79-.11-1.17h0Zm-5.14,4.29c4.28,2.46,8.55,4.91,12.83,7.37.1.06.22.09.34.09s.23-.03.34-.09l12.08-6.98v3.58s-12.42,7.18-12.42,7.18l-16.28-9.35,3.11-1.8Zm13.17,16.3l-16.28-9.35,3.11-1.8,12.83,7.37c.1.06.22.09.34.09s.23-.03.34-.09l12.1-6.98v3.58s-12.44,7.19-12.44,7.19Zm13.8-7.97l-.02-9.12c0-.24-.13-.47-.34-.59,0,0-12.87-7.39-16.62-9.54l3.66-2.11s15.83,9.12,16.96,9.73l.02,9.52-3.66,2.11Zm16.06-9.27l-11.05,6.38v-3.58s7.94-4.59,7.94-4.59l3.11,1.79Zm-11.06,1.23v-3.58s7.95-4.59,7.95-4.59l3.11,1.79-11.06,6.38Zm-20.78-2.33c-.19-.32-.08-.74.25-.93l2.97-1.72c.32-.19.74-.08.93.25.19.32.08.74-.25.93l-2.97,1.72c-.11.06-.22.09-.34.09-.23,0-.46-.12-.59-.34h0Zm17.92-10.35c.19.32.08.74-.25.93l-2.61,1.51c-.11.06-.22.09-.34.09-.23,0-.46-.12-.59-.34-.19-.32-.08-.74.25-.93l2.61-1.51c.32-.19.74-.08.93.25h0Z"/>
      <g>
        <path class="cls-4" d="m88.71,80.9c-.82,0-1.49-.67-1.49-1.49,0-.26.07-.52.2-.74,12.49-21.66,5.05-49.35-16.61-61.84-1.85-1.06-3.77-2-5.75-2.79-.76-.31-1.13-1.17-.83-1.94.31-.76,1.17-1.13,1.94-.83,24.73,9.93,36.74,38.03,26.81,62.76-.85,2.11-1.84,4.16-2.98,6.13-.27.46-.76.75-1.29.74h0Z"/>
        <path class="cls-6" d="m48.23,104.26c-17.22-.04-33.12-9.21-41.77-24.11-.44-.69-.24-1.61.46-2.06.69-.44,1.61-.24,2.06.46.02.04.04.07.06.11,12.5,21.64,40.17,29.05,61.82,16.55,3.16-1.83,6.1-4.03,8.73-6.57.59-.57,1.54-.55,2.11.04s.55,1.54-.04,2.11h0c-8.97,8.66-20.96,13.49-33.42,13.46h0Z"/>
        <path class="cls-7" d="m2.66,67.92c-.7,0-1.3-.48-1.45-1.16C-4.69,40.76,11.61,14.9,37.61,9.01c3.49-.79,7.05-1.19,10.62-1.19.82,0,1.49.67,1.49,1.49s-.67,1.49-1.49,1.49c-25.01.02-45.26,20.31-45.24,45.32,0,3.36.38,6.7,1.12,9.98.18.8-.32,1.6-1.12,1.79,0,0,0,0,0,0-.11.03-.23.04-.34.04Z"/>
        <path class="cls-3" d="m40.42,18.62c-.82,0-1.49-.67-1.49-1.49,0-.4.16-.77.44-1.05l6.76-6.77-6.76-6.76c-.58-.58-.58-1.53,0-2.11.58-.58,1.53-.58,2.11,0l7.81,7.82c.58.58.58,1.52,0,2.11l-7.81,7.81c-.28.28-.66.44-1.05.45h0Z"/>
        <path class="cls-2" d="m4.9,91.57c-.13,0-.26-.02-.39-.05-.79-.21-1.27-1.03-1.05-1.82,0,0,0,0,0,0l2.86-10.68c.21-.79,1.03-1.26,1.82-1.05l10.68,2.86c.8.19,1.3.99,1.11,1.79-.19.8-.99,1.3-1.79,1.11-.03,0-.06-.02-.09-.02l-9.23-2.47-2.47,9.23c-.17.65-.76,1.11-1.44,1.11h0Z"/>
        <path class="cls-5" d="m88.7,80.89c-.67,0-1.26-.45-1.44-1.1l-2.87-10.68c-.19-.8.31-1.6,1.11-1.79.77-.18,1.54.27,1.77,1.02l2.48,9.23,9.23-2.48c.8-.21,1.61.27,1.82,1.06.21.79-.26,1.6-1.05,1.82l-10.68,2.86c-.12.03-.25.05-.38.06h0Z"/>
      </g>
    </g>
  </g>
</svg>