<svg width="18" height="18" viewBox="0 0 18 18" fill="none" xmlns="http://www.w3.org/2000/svg">
<path d="M12.1478 5.72783C12.2033 7.19865 11.2117 8.5329 9.78975 8.9001C9.58972 8.95185 9.45 9.1305 9.45 9.33457V9.9C9.45 10.1484 9.2484 10.35 9 10.35C8.7516 10.35 8.55 10.1484 8.55 9.9V9.33457C8.55 8.71987 8.96715 8.1828 9.56475 8.02867C10.5802 7.76632 11.2882 6.81323 11.2482 5.7618C11.2048 4.6143 10.2357 3.64522 9.08797 3.60157C8.46675 3.57795 7.884 3.8007 7.43962 4.22887C6.99502 4.65705 6.75 5.23282 6.75 5.85C6.75 6.0984 6.5484 6.3 6.3 6.3C6.0516 6.3 5.85 6.0984 5.85 5.85C5.85 4.986 6.1929 4.18005 6.81547 3.58065C7.43782 2.98147 8.25142 2.6703 9.1224 2.70247C10.7568 2.76457 12.0857 4.09343 12.1478 5.72783ZM9 11.25C8.75137 11.25 8.55 11.4514 8.55 11.7C8.55 11.9486 8.75137 12.15 9 12.15C9.24862 12.15 9.45 11.9486 9.45 11.7C9.45 11.4514 9.24862 11.25 9 11.25ZM18 3.15V11.7C18 13.437 16.587 14.85 14.85 14.85H9.4113L6.39315 17.8681C6.30698 17.9543 6.19222 18 6.075 18C6.01695 18 5.95845 17.9887 5.90265 17.9658C5.73458 17.896 5.625 17.732 5.625 17.55V14.85H3.15C1.413 14.85 0 13.437 0 11.7V3.15C0 1.413 1.413 0 3.15 0H14.85C16.587 0 18 1.413 18 3.15ZM17.1 3.15C17.1 1.90935 16.0906 0.9 14.85 0.9H3.15C1.90935 0.9 0.9 1.90935 0.9 3.15V11.7C0.9 12.9406 1.90935 13.95 3.15 13.95H6.075C6.3234 13.95 6.525 14.1516 6.525 14.4V16.4635L8.90685 14.0818C8.99122 13.9975 9.10575 13.95 9.225 13.95H14.85C16.0906 13.95 17.1 12.9406 17.1 11.7V3.15Z" fill="#7E3080"/>
</svg>
