<?xml version="1.0" encoding="UTF-8"?>
<svg id="Layer_2" data-name="Layer 2" xmlns="http://www.w3.org/2000/svg" viewBox="0 0 37 37">
  <defs>
    <style>
      .cls-1 {
        fill: #fff;
        stroke: #7e3080;
      }

      .cls-1, .cls-2 {
        stroke-miterlimit: 10;
      }

      .cls-3 {
        stroke-width: 0px;
      }

      .cls-3, .cls-2 {
        fill: #7e3080;
      }

      .cls-2 {
        stroke: #fff;
        stroke-width: .57px;
      }
    </style>
  </defs>
  <g id="Layer_1-2" data-name="Layer 1">
    <g>
      <path class="cls-1" d="m30.86,36.5H6.14c-3.11,0-5.64-2.82-5.64-6.3V6.8C.5,3.32,3.02.5,6.14.5h24.72c3.11,0,5.64,2.82,5.64,6.3v23.4c0,3.48-2.52,6.3-5.64,6.3Z"/>
      <g>
        <rect class="cls-2" x="15.69" y="9.73" width="4.51" height="3.65"/>
        <rect class="cls-2" x="20.31" y="8.51" width="4.51" height="4.87"/>
      </g>
      <path class="cls-3" d="m28.03,13.91c-.11-.14-.27-.22-.45-.22h-14.09c-.12-.47-.32-1.27-.52-2.07-.41-1.64-1.87-2.78-3.56-2.78-.31,0-.57.25-.57.57s.25.57.57.57c1.17,0,2.18.79,2.46,1.92l2.04,8.15c.16.62.52,1.14,1,1.5-.97.92-.75,2.61.4,3.26-1.02,1.33-.03,3.34,1.67,3.32,1.53.02,2.57-1.68,1.85-3.03h2.96c-.72,1.35.32,3.05,1.85,3.03,2.75-.1,2.75-4.05,0-4.16h-7.27c-1.26-.05-1.26-1.85,0-1.9h7.73c1.23,0,2.3-.84,2.6-2.03l1.41-5.66c.04-.17,0-.35-.1-.48h0Z"/>
    </g>
  </g>
</svg>