<?xml version="1.0" encoding="utf-8"?>
<!-- Generator: Adobe Illustrator 27.8.0, SVG Export Plug-In . SVG Version: 6.00 Build 0)  -->
<svg version="1.1" id="Layer_1" xmlns="http://www.w3.org/2000/svg" xmlns:xlink="http://www.w3.org/1999/xlink" x="0px" y="0px"
	 viewBox="0 0 22.23 16.45" style="enable-background:new 0 0 22.23 16.45;" xml:space="preserve">
<style type="text/css">
	.st0{fill:#4C0C4B;}
</style>
<path class="st0" d="M21.25,3.82c0-1.45-1.19-2.64-2.64-2.64c0,0-5.62-0.16-7.5-0.16c-1.87,0-7.5,0.16-7.5,0.16
	c-1.45,0-2.64,1.19-2.64,2.64c0,0-0.16,3.3-0.16,4.41s0.16,4.41,0.16,4.41c0,1.45,1.19,2.64,2.64,2.64c0,0,5.62,0.16,7.5,0.16
	c1.87,0,7.5-0.16,7.5-0.16c1.45,0,2.64-1.19,2.64-2.64c0,0,0.16-3.3,0.16-4.41C21.41,7.12,21.25,3.82,21.25,3.82z M9.14,11.44V5.01
	l5.2,3.22L9.14,11.44z"/>
</svg>
