<?xml version="1.0" encoding="UTF-8"?>
<svg id="Layer_2" data-name="Layer 2" xmlns="http://www.w3.org/2000/svg" viewBox="0 0 37 37">
  <defs>
    <style>
      .cls-1 {
        fill: #7e3080;
        stroke: #fff;
        stroke-width: .28px;
      }

      .cls-1, .cls-2 {
        stroke-miterlimit: 10;
      }

      .cls-2 {
        fill: #fff;
        stroke: #7e3080;
      }
    </style>
  </defs>
  <g id="Layer_1-2" data-name="Layer 1">
    <g>
      <path class="cls-2" d="m30.86,36.5H6.14c-3.11,0-5.64-2.82-5.64-6.3V6.8C.5,3.32,3.02.5,6.14.5h24.72c3.11,0,5.64,2.82,5.64,6.3v23.4c0,3.48-2.52,6.3-5.64,6.3Z"/>
      <g>
        <path class="cls-1" d="m22,27.84h-7c-1.45-.02-2.64-1.16-2.73-2.61l-.83-12.61c0-.18.06-.37.18-.5.13-.14.31-.22.5-.23h12.75c.38,0,.68.3.68.68,0,.02,0,.03,0,.05l-.79,12.61c-.09,1.46-1.3,2.6-2.77,2.61h0Zm-9.11-14.57l.7,11.89c.05.74.67,1.32,1.41,1.32h7c.74,0,1.36-.58,1.41-1.32l.74-11.84-11.26-.05Z"/>
        <path class="cls-1" d="m26.7,13.26H10.3c-.38,0-.68-.31-.68-.68s.31-.68.68-.68h16.4c.38,0,.68.31.68.68s-.31.68-.68.68Z"/>
        <path class="cls-1" d="m21.23,13.26h-5.47c-.38,0-.68-.31-.68-.68v-1.64c.02-.97.81-1.75,1.78-1.78h3.28c.99.02,1.78.83,1.78,1.82v1.59c0,.38-.31.68-.68.68h0Zm-4.78-1.37h4.1v-.91c0-.23-.18-.41-.41-.41h-3.28c-.23,0-.41.18-.41.41v.91Z"/>
        <path class="cls-1" d="m21.23,24.19c-.38,0-.68-.31-.68-.68v-7.29c0-.38.31-.68.68-.68s.68.31.68.68v7.29c0,.38-.31.68-.68.68Z"/>
        <path class="cls-1" d="m15.77,24.19c-.38,0-.68-.31-.68-.68v-7.29c0-.38.31-.68.68-.68s.68.31.68.68v7.29c0,.38-.31.68-.68.68Z"/>
        <path class="cls-1" d="m18.5,24.19c-.38,0-.68-.31-.68-.68v-7.29c0-.38.31-.68.68-.68s.68.31.68.68v7.29c0,.38-.31.68-.68.68Z"/>
      </g>
    </g>
  </g>
</svg>