<svg width="36" height="36" viewBox="0 0 36 36" fill="none" xmlns="http://www.w3.org/2000/svg">
<rect x="0.5" y="0.5" width="35" height="35" rx="9.5" fill="white" stroke="#4C0C4B"/>
<path d="M10.6429 12.8571H11.3142L11.8707 25.1019C11.9183 26.1484 12.8093 27 13.8571 27H21.5714C22.6193 27 23.5103 26.1484 23.5579 25.1019L24.1144 12.8571H24.7857C25.1408 12.8571 25.4286 12.5694 25.4286 12.2143C25.4286 11.8592 25.1408 11.5714 24.7857 11.5714H21.5714C21.5714 10.1535 20.4179 9 19 9H16.4286C15.0106 9 13.8571 10.1535 13.8571 11.5714H10.6429C10.2878 11.5714 10 11.8592 10 12.2143C10 12.5694 10.2878 12.8571 10.6429 12.8571ZM22.8271 12.8571L22.2732 25.0436C22.2567 25.407 21.9353 25.7143 21.5714 25.7143H13.8571C13.4931 25.7143 13.1716 25.407 13.1554 25.0436L12.6014 12.8571H22.8271ZM16.4286 10.2857H19C19.7091 10.2857 20.2857 10.8624 20.2857 11.5714H15.1429C15.1429 10.8624 15.7195 10.2857 16.4286 10.2857Z" fill="#4C0C4B"/>
<path d="M15.7856 15.4283C15.4305 15.4283 15.1428 15.7161 15.1428 16.0712V22.4998C15.1428 22.8548 15.4305 23.1426 15.7856 23.1426C16.1407 23.1426 16.4285 22.8548 16.4285 22.4998V16.0712C16.4285 15.7161 16.1407 15.4283 15.7856 15.4283Z" fill="#4C0C4B"/>
<path d="M19.6429 15.4283C19.2878 15.4283 19 15.7161 19 16.0712V22.4998C19 22.8548 19.2878 23.1426 19.6429 23.1426C19.9979 23.1426 20.2857 22.8548 20.2857 22.4998V16.0712C20.2857 15.7161 19.9979 15.4283 19.6429 15.4283Z" fill="#4C0C4B"/>
</svg>
