<?xml version="1.0" encoding="UTF-8"?>
<svg id="Layer_2" data-name="Layer 2" xmlns="http://www.w3.org/2000/svg" viewBox="0 0 18.49 19.41">
  <defs>
    <style>
      .cls-1 {
        fill: #7d2282;
        stroke-width: 0px;
      }
    </style>
  </defs>
  <g id="Layer_1-2" data-name="Layer 1">
    <g>
      <path class="cls-1" d="m16.18,1.39h-1.39c0-.76-.62-1.39-1.39-1.39s-1.39.62-1.39,1.39h-5.55c0-.76-.62-1.39-1.39-1.39s-1.39.62-1.39,1.39h-1.39C1.04,1.39,0,2.42,0,3.7v13.4c0,1.27,1.04,2.31,2.31,2.31h13.87c1.27,0,2.31-1.04,2.31-2.31V3.7c0-1.27-1.04-2.31-2.31-2.31Zm-3.24,0c0-.25.21-.46.46-.46s.46.21.46.46v.92c0,.25-.21.46-.46.46s-.46-.21-.46-.46v-.92Zm-8.32,0c0-.25.21-.46.46-.46s.46.21.46.46v.92c0,.25-.21.46-.46.46s-.46-.21-.46-.46v-.92ZM.92,3.7c0-.76.62-1.39,1.39-1.39h1.39c0,.76.62,1.39,1.39,1.39s1.39-.62,1.39-1.39h5.55c0,.76.62,1.39,1.39,1.39s1.39-.62,1.39-1.39h1.39c.76,0,1.39.62,1.39,1.39v1.85H.92v-1.85Zm16.64,13.4c0,.76-.62,1.39-1.39,1.39H2.31c-.76,0-1.39-.62-1.39-1.39V6.47h16.64v10.63Z"/>
      <path class="cls-1" d="m3.7,11.56h1.39c.51,0,.92-.41.92-.92v-1.39c0-.51-.41-.92-.92-.92h-1.39c-.51,0-.92.41-.92.92v1.39c0,.51.41.92.92.92Zm0-2.31h1.39v1.39s-1.39,0-1.39,0v-1.39Z"/>
      <path class="cls-1" d="m8.55,11.56h1.39c.51,0,.92-.41.92-.92v-1.39c0-.51-.41-.92-.92-.92h-1.39c-.51,0-.92.41-.92.92v1.39c0,.51.41.92.92.92Zm0-2.31h1.39v1.39s-1.39,0-1.39,0v-1.39Z"/>
      <path class="cls-1" d="m13.4,11.56h1.39c.51,0,.92-.41.92-.92v-1.39c0-.51-.41-.92-.92-.92h-1.39c-.51,0-.92.41-.92.92v1.39c0,.51.41.92.92.92Zm0-2.31h1.39v1.39s-1.39,0-1.39,0v-1.39Z"/>
      <path class="cls-1" d="m3.7,16.64h1.39c.51,0,.92-.41.92-.92v-1.39c0-.51-.41-.92-.92-.92h-1.39c-.51,0-.92.41-.92.92v1.39c0,.51.41.92.92.92Zm0-2.31h1.39v1.39s-1.39,0-1.39,0v-1.39Z"/>
      <path class="cls-1" d="m8.55,16.64h1.39c.51,0,.92-.41.92-.92v-1.39c0-.51-.41-.92-.92-.92h-1.39c-.51,0-.92.41-.92.92v1.39c0,.51.41.92.92.92Zm0-2.31h1.39v1.39s-1.39,0-1.39,0v-1.39Z"/>
      <path class="cls-1" d="m13.4,16.64h1.39c.51,0,.92-.41.92-.92v-1.39c0-.51-.41-.92-.92-.92h-1.39c-.51,0-.92.41-.92.92v1.39c0,.51.41.92.92.92Zm0-2.31h1.39v1.39s-1.39,0-1.39,0v-1.39Z"/>
    </g>
  </g>
</svg>