<?xml version="1.0" encoding="utf-8"?>
<!-- Generator: Adobe Illustrator 27.8.0, SVG Export Plug-In . SVG Version: 6.00 Build 0)  -->
<svg version="1.1" id="Layer_1" xmlns="http://www.w3.org/2000/svg" xmlns:xlink="http://www.w3.org/1999/xlink" x="0px" y="0px"
	 viewBox="0 0 16.45 16.45" style="enable-background:new 0 0 16.45 16.45;" xml:space="preserve">
<style type="text/css">
	.st0{fill:#4C0C4B;}
</style>
<g>
	<g>
		<path class="st0" d="M6.07,5.8c0,0.42-0.27,0.77-0.77,0.77c-0.46,0-0.77-0.35-0.77-0.73c0-0.42,0.31-0.81,0.77-0.81
			C5.77,5.03,6.07,5.38,6.07,5.8z"/>
		<rect x="4.54" y="6.95" class="st0" width="1.54" height="5"/>
		<path class="st0" d="M9.77,7.03C8.96,7.03,8.5,7.49,8.3,7.8H8.27L8.19,7.15H6.8c0,0.42,0.04,0.92,0.04,1.5v3.31h1.54V9.22
			c0-0.15,0-0.27,0.04-0.38c0.12-0.27,0.31-0.62,0.73-0.62c0.54,0,0.77,0.46,0.77,1.08v2.65h1.54V9.11
			C11.46,7.68,10.73,7.03,9.77,7.03z"/>
	</g>
	<path class="st0" d="M12.29,1.23H3.7c-1.63,0-2.96,1.33-2.96,2.96v8.6c0,1.63,1.33,2.96,2.96,2.96h8.6c1.63,0,2.96-1.33,2.96-2.96
		v-8.6C15.26,2.56,13.93,1.23,12.29,1.23z M14.15,12.6c0,1.13-0.92,2.05-2.05,2.05H3.89c-1.13,0-2.05-0.92-2.05-2.05V4.39
		c0-1.13,0.92-2.05,2.05-2.05h8.21c1.13,0,2.05,0.92,2.05,2.05V12.6z"/>
</g>
</svg>
