<?xml version="1.0" encoding="UTF-8"?>
<svg id="Layer_2" data-name="Layer 2" xmlns="http://www.w3.org/2000/svg" viewBox="0 0 16.01 15.93">
  <defs>
    <style>
      .cls-1 {
        fill: #7e3080;
        stroke-width: 0px;
      }
    </style>
  </defs>
  <g id="Layer_1-2" data-name="Layer 1">
    <g>
      <path class="cls-1" d="m2.12,15.93c-1.17,0-2.12-.95-2.12-2.12V3.8C0,2.64.95,1.68,2.12,1.68h3.41c.32,0,.58.26.58.58s-.26.58-.58.58h-3.41c-.52,0-.95.43-.95.95v10.01c0,.52.43.95.95.95h10.77c.52,0,.95-.43.95-.95v-3.41c0-.32.26-.58.58-.58s.58.26.58.58v3.41c0,1.17-.95,2.12-2.12,2.12H2.12Z"/>
      <path class="cls-1" d="m15.47,1.02l-.48-.48c-.72-.72-1.89-.72-2.61,0l-7.32,7.32c-.05.05-.09.11-.11.18l-.96,3.48c-.04.14,0,.3.11.4.1.1.26.14.4.11l3.48-.96c.07-.02.13-.06.18-.11l7.32-7.32c.72-.72.72-1.89,0-2.61ZM5.29,10.72l.55-2,1.44,1.44-2,.55Zm2.72-.91l-1.81-1.81,5.61-5.61,1.81,1.81-5.61,5.61Zm6.56-6.56l-.41.41-1.81-1.81.41-.41c.37-.37.98-.37,1.36,0l.45.45c.37.38.37.98,0,1.36Z"/>
    </g>
  </g>
</svg>