<?xml version="1.0" encoding="UTF-8"?>
<svg id="Layer_2" xmlns="http://www.w3.org/2000/svg" viewBox="0 0 125 125">
  <defs>
    <style>
      .cls-1 {
        fill: #000001;
      }

      .cls-2 {
        fill: #cead73;
      }

      .cls-3 {
        fill: #b9a27b;
      }

      .cls-4 {
        fill: #b99b6c;
      }

      .cls-5 {
        fill: #28bdf6;
      }

      .cls-6 {
        fill: #c9a66c;
      }

      .cls-7 {
        fill: #d0ad6c;
      }

      .cls-8 {
        fill: #a58a5a;
      }

      .cls-9 {
        fill: #bca174;
      }

      .cls-10 {
        fill: #c0a26b;
      }

      .cls-11 {
        fill: #b89a6b;
      }

      .cls-12 {
        fill: #b2986c;
      }

      .cls-13 {
        fill: #baa27a;
      }

      .cls-14 {
        fill: #a48757;
      }

      .cls-15 {
        fill: #b4996c;
      }

      .cls-16 {
        fill: #b2976c;
      }

      .cls-17 {
        fill: #0ea9e4;
      }

      .cls-18 {
        fill: #ba9a65;
      }

      .cls-19 {
        fill: #a38654;
      }

      .cls-20 {
        fill: #ba9b65;
      }

      .cls-21 {
        fill: #c5a36b;
      }

      .cls-22 {
        fill: #af9365;
      }

      .cls-23 {
        fill: #010002;
      }

      .cls-24 {
        fill: #a48a5f;
      }

      .cls-25 {
        fill: #ae956d;
      }

      .cls-26 {
        fill: #b69a6c;
      }

      .cls-27 {
        fill: #f2f0f0;
      }

      .cls-28 {
        fill: #caa86d;
      }

      .cls-29 {
        fill: #af9262;
      }

      .cls-30 {
        fill: #a3895c;
      }

      .cls-31 {
        fill: #c6a56f;
      }

      .cls-32 {
        fill: #c8a66a;
      }

      .cls-33 {
        fill: #c4a56d;
      }

      .cls-34 {
        fill: #ac9163;
      }

      .cls-35 {
        fill: #af8f5a;
      }

      .cls-36 {
        fill: #ba9e70;
      }

      .cls-37 {
        fill: #b99c6c;
      }

      .cls-38 {
        fill: #a78b5c;
      }

      .cls-39 {
        fill: #b29565;
      }

      .cls-40 {
        fill: #a98b5b;
      }

      .cls-41 {
        fill: #9e8253;
      }

      .cls-42 {
        fill: #b89c6d;
      }

      .cls-43 {
        fill: #b99e71;
      }

      .cls-44 {
        fill: #d2ac6e;
      }

      .cls-45 {
        fill: #c4a56b;
      }

      .cls-46 {
        fill: #bea378;
      }

      .cls-47 {
        fill: #c2a679;
      }

      .cls-48 {
        fill: #b19464;
      }

      .cls-49 {
        fill: #c9a769;
      }

      .cls-50 {
        fill: #a58c62;
      }

      .cls-51 {
        fill: #b89f76;
      }

      .cls-52 {
        fill: #b09362;
      }

      .cls-53 {
        fill: #dab476;
      }

      .cls-54 {
        fill: #af9569;
      }

      .cls-55 {
        fill: #bba175;
      }

      .cls-56 {
        fill: #bb9f70;
      }

      .cls-57 {
        fill: #c5a46b;
      }

      .cls-58 {
        fill: #cda96c;
      }

      .cls-59 {
        fill: #38c7fe;
      }

      .cls-60 {
        fill: #2ec0f8;
      }

      .cls-61 {
        fill: #c1a16c;
      }

      .cls-62 {
        fill: #b59869;
      }

      .cls-63 {
        fill: #c09f64;
      }

      .cls-64 {
        fill: #cba769;
      }

      .cls-65 {
        fill: #d7b173;
      }

      .cls-66 {
        fill: #c7ae85;
      }

      .cls-67 {
        fill: #d7b377;
      }

      .cls-68 {
        fill: #af9467;
      }

      .cls-69 {
        fill: #08a5e2;
      }

      .cls-70 {
        fill: #cfab6c;
      }

      .cls-71 {
        fill: #d7b475;
      }

      .cls-72 {
        fill: #2abef7;
      }

      .cls-73 {
        fill: #c3a46c;
      }

      .cls-74 {
        fill: #c1a166;
      }

      .cls-75 {
        fill: #b79e75;
      }

      .cls-76 {
        fill: #c1a168;
      }

      .cls-77 {
        fill: #cfaa6b;
      }

      .cls-78 {
        fill: #b79b6d;
      }

      .cls-79 {
        fill: #baa17a;
      }

      .cls-80 {
        fill: #0a7fab;
      }

      .cls-81 {
        fill: #ae9264;
      }

      .cls-82 {
        fill: #caaa6f;
      }

      .cls-83 {
        fill: #c0a77c;
      }

      .cls-84 {
        fill: #b79968;
      }

      .cls-85 {
        fill: #d5af71;
      }

      .cls-86 {
        fill: #c1a577;
      }

      .cls-87 {
        fill: #d1ab6d;
      }

      .cls-88 {
        fill: #c6a468;
      }

      .cls-89 {
        fill: #aa8d5d;
      }

      .cls-90 {
        fill: #bfa67c;
      }

      .cls-91 {
        fill: #e4be80;
      }

      .cls-92 {
        fill: #c5ac83;
      }

      .cls-93 {
        fill: #c5a265;
      }

      .cls-94 {
        fill: #deb87a;
      }

      .cls-95 {
        fill: #09a6e3;
      }

      .cls-96 {
        fill: #af9366;
      }

      .cls-97 {
        fill: #0fa5d9;
      }

      .cls-98 {
        fill: #d0ac6b;
      }

      .cls-99 {
        fill: #2ec1f9;
      }

      .cls-100 {
        fill: #c2a77b;
      }

      .cls-101 {
        fill: #ddb779;
      }

      .cls-102 {
        fill: #ac8f5e;
      }

      .cls-103 {
        fill: #b1976d;
      }

      .cls-104 {
        fill: #c0a36e;
      }

      .cls-105 {
        fill: #bea275;
      }

      .cls-106 {
        fill: #cda96d;
      }

      .cls-107 {
        fill: #b19261;
      }

      .cls-108 {
        fill: #b19971;
      }

      .cls-109 {
        fill: #b59665;
      }

      .cls-110 {
        fill: #a78a5b;
      }

      .cls-111 {
        fill: #a58a5d;
      }

      .cls-112 {
        fill: #d0ad71;
      }

      .cls-113 {
        fill: #c7a267;
      }

      .cls-114 {
        fill: #9a7d4e;
      }

      .cls-115 {
        fill: #0aa8e2;
      }

      .cls-116 {
        fill: #32c3fb;
      }

      .cls-117 {
        fill: #a98b5a;
      }

      .cls-118 {
        fill: #d6b072;
      }

      .cls-119 {
        fill: #12abe3;
      }

      .cls-120 {
        fill: #b89b6d;
      }

      .cls-121 {
        fill: #cca667;
      }

      .cls-122 {
        fill: #c5a468;
      }

      .cls-123 {
        fill: #0da8e3;
      }

      .cls-124 {
        fill: #d4b172;
      }

      .cls-125 {
        fill: #dcb678;
      }

      .cls-126 {
        fill: #e2bc7e;
      }

      .cls-127 {
        fill: #24bcf5;
      }

      .cls-128 {
        fill: #bca073;
      }

      .cls-129 {
        fill: #c2a677;
      }

      .cls-130 {
        fill: #b59a6d;
      }

      .cls-131 {
        fill: #9c7f50;
      }

      .cls-132 {
        fill: #d8b274;
      }

      .cls-133 {
        fill: #b89c6e;
      }

      .cls-134 {
        fill: #caaf81;
      }

      .cls-135 {
        fill: #a88e60;
      }

      .cls-136 {
        fill: #b99c6d;
      }

      .cls-137 {
        fill: #ba9d6f;
      }

      .cls-138 {
        fill: #06a4e0;
      }

      .cls-139 {
        fill: #ae9364;
      }

      .cls-140 {
        fill: #c6a466;
      }

      .cls-141 {
        fill: #c0a477;
      }

      .cls-142 {
        fill: #d1ad6e;
      }

      .cls-143 {
        fill: #ab8e5d;
      }

      .cls-144 {
        fill: #dbb577;
      }

      .cls-145 {
        fill: #cda968;
      }

      .cls-146 {
        fill: #e0ba7d;
      }

      .cls-147 {
        fill: #ac8f5f;
      }

      .cls-148 {
        fill: #bfa67d;
      }

      .cls-149 {
        fill: #ac9061;
      }

      .cls-150 {
        fill: #d7b376;
      }

      .cls-151 {
        fill: #b79c6e;
      }

      .cls-152 {
        fill: #b99e70;
      }

      .cls-153 {
        fill: #af9770;
      }

      .cls-154 {
        fill: #020002;
      }

      .cls-155 {
        fill: #ab9062;
      }

      .cls-156 {
        fill: #c9a970;
      }

      .cls-157 {
        fill: #caa76b;
      }

      .cls-158 {
        fill: #b89b6b;
      }

      .cls-159 {
        fill: #d3ad6f;
      }

      .cls-160 {
        fill: #af915f;
      }

      .cls-161 {
        fill: #b2976a;
      }

      .cls-162 {
        fill: #c0a26e;
      }

      .cls-163 {
        fill: #c8a468;
      }

      .cls-164 {
        fill: #d7b274;
      }

      .cls-165 {
        fill: #ba9d6d;
      }

      .cls-166 {
        fill: #cea86a;
      }

      .cls-167 {
        fill: #ad905f;
      }

      .cls-168 {
        fill: #ceaa69;
      }

      .cls-169 {
        fill: #34c5fd;
      }

      .cls-170 {
        fill: #dfb97c;
      }

      .cls-171 {
        fill: #a18554;
      }
    </style>
  </defs>
  <g id="Layer_1-2" data-name="Layer_1">
    <g>
      <rect class="cls-27" width="125" height="125" rx="30.35" ry="30.35"/>
      <g>
        <path class="cls-65" d="M112.4,28.27c.13.6.27,1.21.4,1.81-.13.34-.05.7-.06,1.05.28.53.16,1.12.26,1.68-.08.36-.35.58-.65.71-1.14.48-1.99,1.27-2.62,2.33-.28.47-.75.67-1.25.9-.83.38-1.63.92-1.74,1.96-.06.64-.38,1.04-.93,1.29-.96.43-1.74,1.04-2.27,1.99-.32.58-.87.9-1.52,1.17-.79.32-1.55.92-1.64,1.92-.06.69-.45,1.08-1.02,1.34-.9.41-1.62.98-2.12,1.86-.34.6-.88.97-1.59,1.24-.76.3-1.51.89-1.62,1.83-.08.72-.44,1.15-1.05,1.43-.85.4-1.58.92-2.06,1.79-.45.83-1.14,1.35-2.18,1.24-.82-.08-1.17.42-1.08,1.17.15,1.26-.41,2-1.53,2.44-.63.25-1.08.72-1.43,1.32-.52.9-1.19,1.58-2.38,1.43-.51-.07-.88.19-1.05.71-.2.63-.68,1.06-1.17,1.45-1.46,1.15-2.93,2.28-3.87,3.93-.21.36-.53.34-.87.31-1.06-.09-2.12,0-3.18-.05-.75-.03-1.18.25-1.32,1.02-.07.4-.09.88-.57,1.1-2.86.12-5.73.1-8.6.11-2.47,0-4.93.12-7.4-.01-.47,0-.94.03-1.4-.08-.31-.11-.66-.16-.77-.55.41-.72.91-1.3,1.83-1.32.07,0,.17,0,.19-.05.44-1.22,1.96-1.34,2.48-2.49.68-1.5,1.8-2.61,3.3-3.29.52-.24.84-.54,1.05-1.09.33-.9,1.19-1.46,1.97-1.7,1.84-.56,2.83-1.98,3.93-3.33.04-.05.06-.12.11-.17.78-.78,1.93-1.28,1.92-2.65,0-.12.23-.23.39-.27,1.95-.45,2.91-2.04,4.06-3.44.7-.84,1.92-1.29,1.91-2.65,0-.13.23-.23.39-.27,1.95-.45,2.9-2.05,4.06-3.44.7-.84,1.93-1.28,1.91-2.65,0-.13.23-.24.39-.27,1.99-.46,3-2.05,4.1-3.53.16-.21.27-.52.53-.56.87-.12,1.14-.64,1.12-1.45,0-.44.27-.76.7-.86,1.88-.44,2.84-1.95,3.9-3.33.31-.4.55-.82,1.11-.89.58-.08.6-.53.61-.97.01-.58.19-1.08.82-1.2,1.39-.27,2.17-1.32,3.03-2.27.37-.42.62-1.04,1.02-1.32.91-.62,1.68-1.22,1.74-2.42,0-.17.28-.28.47-.32,1.94-.47,2.93-2.04,4.02-3.49.21-.29.32-.66.74-.75.71.27.97,1.02,1.53,1.46.23.37.56.65.84.98.12.34.38.56.62.8.13.22.26.45.42.66.21.45.5.85.73,1.28.18.23.28.52.55.67.04.04.06.09.05.15.22.62.31,1.31.82,1.8.11.28.23.55.34.83-.03.42.09.81.24,1.2v-.02c.15.25-.02.64.34.8Z"/>
        <path class="cls-53" d="M105.92,17.66c-.69,1.3-1.58,2.45-2.69,3.44-.5.45-.98.9-1.67.95-.76.06-.94.48-.87,1.14.07.68-.07,1.2-.93,1.12-.34-.03-.51.17-.66.48-.67,1.34-1.84,2.26-2.89,3.29-.09.09-.22.17-.34.18-1.11.09-1.8.52-1.55,1.8.05.24-.11.56-.33.54-1.38-.16-1.5,1.19-2.16,1.84-.97.96-1.71,2.17-3.19,2.4-.73.11-.69.6-.66,1.1.04.69-.08,1.2-.94,1.12-.34-.03-.51.17-.66.48-.68,1.34-1.84,2.26-2.89,3.29-.09.09-.22.17-.34.18-1.11.09-1.8.53-1.55,1.8.05.24-.11.55-.33.54-1.39-.1-1.49,1.26-2.2,1.92-.92.85-1.59,2.05-2.95,2.26-.76.12-.93.5-.86,1.15.07.69-.08,1.19-.94,1.12-.34-.03-.5.18-.66.48-.68,1.34-1.84,2.26-2.89,3.29-.09.09-.22.17-.34.18-1.12.09-1.79.54-1.55,1.8.05.24-.12.56-.34.53-1.38-.16-1.5,1.19-2.16,1.84-.97.95-1.78,1.96-3.17,2.47-.84.31-2.02.69-2.1,2-.02.41-.36.53-.67.65-1.83.7-3.09,1.96-3.77,3.79-.15.4-.38.67-.87.67-.53,0-.95.37-.98.82-.05.71-.4.82-.97.76-.48-.05-.84.14-1.06.57-.13.26-.31.42-.62.43-1.41.28-2.74,0-4.03-.58-1.14-.79-2.42-1.1-3.78-1.15-.48-.02-1.01.02-1.23-.57.06-.93-.06-1.82-.36-2.72-.56-1.71.06-2.52,1.86-2.6.33-.02.66-.03.99,0,.71.05,1.08-.25,1.28-.95.32-1.12,1.11-1.87,2.23-2.2.5-.15.9-.39,1.18-.83.04-.06.08-.11.12-.16,1-1.43,2.66-2.21,3.35-4.04.49-1.31,2.2-1.81,3.39-2.65.5-.35,1-.72,1.16-1.31.3-1.09,1-1.49,2.07-1.39.19.02.4.06.58-.11-.09-.45-.53-.53-.83-.76-.51-.37-.92-.81-.71-1.5.21-.69.73-.99,1.43-1,.26,0,.53-.02.79,0,1.56.07,2.71-.48,3.22-2.06.26-.82.94-.92,1.68-.93,1.39-.02,1.41-.03,1.46-1.43.02-.69.26-1.2.86-1.57,1.08-.65,2.1-1.35,2.51-2.68.21-.67.91-.66,1.52-.68,1.41-.03,1.44-.04,1.48-1.42.02-.73.29-1.26.93-1.63,1.07-.63,2.04-1.32,2.43-2.62.18-.62.83-.67,1.42-.69,1.51-.05,1.53-.06,1.6-1.5.03-.7.32-1.18.91-1.54,1.05-.64,2.05-1.31,2.43-2.62.2-.68.89-.69,1.5-.71,1.44-.04,1.46-.04,1.52-1.48.03-.7.3-1.19.89-1.55,1.05-.64,2.1-1.28,2.43-2.61.07-.29.33-.52.63-.6,1.29-.35,2.05-1.24,2.56-2.41.11-.25.29-.45.52-.59.79-.48,1.51-1.06,2.2-1.67.13.02.26.04.39.06.26.19.57.28.88.34.57.2,1.15.4,1.72.62h-.02c.6.27,1.2.55,1.82.8.11.06.23.12.34.17.35.17.65.42,1.02.57.3.25.64.43.99.59.19.17.43.28.64.42.27.34.66.54,1,.8.25.24.48.5.79.67.02.03.03.06.02.1Z"/>
        <path class="cls-125" d="M96.33,12.54c-.23.95-1.11,1.24-1.8,1.7-.43.29-.8.52-.82,1.13-.02.44-1.77,1.94-2.23,1.97-.41.02-.81.17-.86.54-.19,1.41-1.26,2.06-2.31,2.63-.77.42-.99.93-.96,1.74.05,1.45.01,1.48-1.38,1.44-.96-.03-1.72,0-1.95,1.24-.19,1.02-1.21,1.48-2.03,1.9-.88.46-1.04,1.05-1.01,1.92.05,1.31,0,1.36-1.32,1.3-1.02-.04-1.78.04-2.02,1.29-.19.99-1.18,1.43-1.96,1.83-.91.47-1.1,1.08-1.06,1.99.05,1.26,0,1.3-1.27,1.26-1.03-.04-1.86,0-2.1,1.32-.18.98-1.19,1.41-1.98,1.82-.87.45-1.06,1.04-1.02,1.91.05,1.32,0,1.36-1.31,1.31-1-.04-1.71.04-2.05,1.26-.32,1.18-1.39,1.69-2.62,1.73-.5.01-1,.03-1.49,0-.71-.05-1.08.37-1.2.95-.11.54.28.99.77,1.13.67.19.86.74,1.28,1.21-.18.05-.27.1-.35.09-1.32-.1-2.41-.11-2.96,1.59-.42,1.28-2.08,1.61-3.11,2.46-.85.7-1.92,1.23-1.87,2.58.01.29-.19.5-.43.63-1.15.65-2.06,1.53-2.74,2.66-.13.22-.34.35-.56.38-1.56.2-2.34,1.18-2.62,2.63-.09.46-.34.6-.76.6-.63,0-1.26-.03-1.89,0-1.34.08-1.75.66-1.45,1.96.19.79.69,1.51.51,2.38-.04.22.01.47-.21.63-.22.2-.48.2-.73.12-1.17-.34-2.37-.33-3.57-.25-.86.06-1.58-.39-2.35-.67-2.43-.89-5.03-1.31-7.28-2.68-.21-.29-.54-.53-.37-.96,1.03-.21,2.03-.57,3.09-.59.49-.01.77-.13.85-.71.17-1.3.94-2.24,2.09-2.83.68-.35,1.12-.78,1.34-1.58.29-1.02,1.1-1.73,2.07-2.13.56-.23.98-.52,1.27-1.03.48-.83,1.15-1.44,2.03-1.83.44-.19.76-.5.87-1.01.29-1.31,1.2-2.09,2.38-2.57.46-.19.79-.48,1.03-.88.5-.85,1.17-1.51,2.09-1.91.37-.16.71-.39.81-.82.36-1.48,1.26-2.4,2.73-2.82.75-.21.54-.82.37-1.31-.38-1.07-.3-1.24.77-1.47.65-.14,1.31-.18,1.97-.18,2.48-.03,4.97.1,7.45-.07,1.37-.49,2.15-1.62,2.96-2.71.97-1.49,2.4-2.54,3.62-3.8.75-.71,1.46-1.45,2.19-2.18.4-.4.83-.76,1.15-1.23.13-.18.29-.34.47-.47.61-.45,1.1-1.03,1.63-1.56,1.13-1.07,2.12-2.28,3.3-3.3.4-.35.74-.76.85-1.31.05-3.28,0-6.55.03-9.82,0-.45-.09-.94.25-1.33,2.49-.17,4.99-.03,7.48-.08.79,0,1.59-.02,2.38.01.7.13,1.41.07,2.11.18.47.04.94-.1,1.4.09.07.01.13.02.2.04.45.2.95-.07,1.39.16.96-.1,1.87.1,2.77.37Z"/>
        <path class="cls-132" d="M19.06,107.48c-.51-.5-1.02-1.01-1.53-1.51-.1-.43-.45-.66-.77-.9h0c-.13-.37-.33-.7-.64-.95-.15-.21-.25-.45-.43-.65-.15-.37-.44-.65-.6-1.01-.16-.38-.41-.71-.62-1.07-.03-.15-.02-.29.05-.43.66-.46,1.03-1.18,1.55-1.77.95-1.09,2.23-1.76,3.39-2.57.6-.42,1.11-.85,1.33-1.54.24-.77.74-1.04,1.5-1.01.26.01.53-.01.8,0,.66.03,1.06-.27.95-.94-.23-1.5.67-2.27,1.79-2.88.65-.35,1.11-.85,1.33-1.54.24-.76.74-1.05,1.5-1.01.26.01.53-.01.8,0,.66.03,1.05-.29.95-.95-.22-1.49.67-2.27,1.8-2.88.65-.35,1.01-.89,1.35-1.52.67-1.25,1.56-2.35,2.63-3.28.35-.31.6-.58.62-1.05.04-.74.48-1.05,1.18-1.05,1,0,1.96-.18,2.94-.4-.08-.57-1.03-.31-.84-1.02.59-.3,1.17,0,1.74.08.49.06.98.14,1.48.11.7-.07,1.37.01,1.95.48.35.28.78.31,1.21.34,1.24.1,2.46.35,3.66.66.24.1.5.18.71.34.79,1.45,2.16,1.61,3.58,1.51,1.37-.1,1.55.1,1.63,1.49.09,1.65-.52,2.74-1.97,3.56-1.18.67-2.02,1.81-2.85,2.88-.45.58-.94.92-1.67.84-.82-.09-1.3.28-1.8.94-1.03,1.36-2.02,2.81-3.85,3.28-.82.21-.65,1.01-.61,1.61.1,1.44-.53,2.41-1.77,3.05-.3.15-.55.37-.79.59-.84.75-1.5,1.68-2.32,2.45-.91.86-1.65,1.85-2.47,2.77-.56.63-1.44.91-2.03,1.57-.79.88-1.75,1.62-2.1,2.83-.14.49-.59.58-1.06.52-.38-.05-.77-.17-1.18-.01.05.06.06.1.09.11.33.17,1.03-.01.96.46-.09.57-.77.56-1.26.43-1.28-.35-2.55-.37-3.84-.11-.19.04-.4.03-.58.11-.23.1-.38.28-.38.53,0,.3.21.39.46.43.16.03.33.03.49.07.23.06.48.13.46.43-.01.29-.26.35-.5.4-.51.1-1.08-.04-1.49.41-.1.06-.19.06-.28-.01h0c-.2-.28-.55-.37-.82-.55-.44-.27-.87-.55-1.34-.78-.2-.17-.44-.28-.65-.42-.25-.31-.57-.51-.94-.65h-.01c-.24-.32-.46-.65-.87-.77Z"/>
        <path class="cls-85" d="M31.48,112.99c-.14,0-.27,0-.41,0-.05-.25.08-.41.29-.51.47-.15.98-.18,1.4-.48.43-.3.44-.56-.08-.76-.34-.13-.7-.21-1.05-.32-.24-.08-.59-.09-.55-.45.03-.3.32-.39.59-.46.26-.06.52-.09.78-.15.51-.1,1.06,0,1.34-.72.18-.47.87-.37,1.37-.36.75.02,1.34-.07,1.89-.76.57-.71,1.53-.84,2.31-.77-.3,0-.8.09-1.03-.44-.21-.49.13-.81.42-1.13.99-1.11,1.95-2.24,3.27-2.99.2-.12.36-.3.49-.49,1.23-1.79,2.92-3.15,4.39-4.72.84-.89,1.88-1.55,2.88-2.23.4-.27.72-.56.92-1,.83-1.8,2.27-3.05,3.85-4.17.57-.41,1-.96,1.58-1.35.19-.12.25-.31.08-.51-.08-.1-.17-.21-.22-.33-.26-.62-.1-1.73.34-2.05.69-.5.97.29,1.43.49.48.21.65.72.99,1.08.37-.32.26-.71.26-1.05.01-1.76,0-3.51.01-5.27.01-1.32.25-1.55,1.59-1.56,2.42-.01,4.84,0,7.26-.03-1.58-.03-3.15-.07-4.73-.02-1.96.06-3.9-.14-5.85-.23-.4-.02-.8-.09-1.13-.34-.24-.18-.5-.41-.07-.68.68-.24,1.38-.1,2.07-.11,3.44,0,6.88-.01,10.33,0,1.24,0,2.42-.34,3.62-.51.98-.16,1.98-.05,2.96-.27.78.08,1.45-.47,2.23-.39.48.05.89.09,1.1.64.44,1.15,1.54,1.5,2.69.91.24-.12.43-.32.68-.4.38-.13.73-.09.94.3.19.35.25.73-.12.98-.51.34-.87.8-1.2,1.3-.39.58-1,.62-1.6.57-.99-.08-1.62.24-1.96,1.25-.41,1.2-1.66,1.56-2.58,2.22-.67.49-1.36.93-1.94,1.54-.33.35-.6.71-.63,1.2-.04.59-.38.96-.85,1.27-.81.53-1.52,1.17-2.06,1.99-.32.49-.78.75-1.36.92-1.08.32-1.84,1.04-2.08,2.17-.12.57-.39.96-.84,1.28-.57.4-1.13.81-1.61,1.32-.31.33-.7.49-1.14.55-2.37.32-3.85,1.61-4.37,3.97-.22,1.02-.79,1.73-1.83,2.02-.61.17-1.15.52-1.73.76-1.24.52-2.03,1.46-2.51,2.68-.42,1.08-1.24,1.5-2.33,1.52-1.16.03-2.32-.01-3.48.02-.56.02-1.07.13-.66.88.15.29.11.5-.13.69-.6.48-.4.73.24.88.24.05.63.06.55.41-.06.27-.42.28-.68.3-.76.05-1.52-.13-2.16-.05.07,0,.26,0,.45,0,.38.02.95-.1.98.41.03.54-.57.36-.93.48,1.11.04,2.2.26,3.3.26.24,0,.62.02.61.35,0,.33-.38.31-.63.34-.63.08-1.23-.17-1.87-.16-2.99.03-5.99.02-8.98.02,3.03,0,6.07,0,9.1,0,.29,0,.61-.08.87.11.2.15.36.35-.03.48-2.35,0-4.7,0-7.05,0-.42,0-.83,0-1.25,0-.51,0-1.03,0-1.54,0-.33-.1-.66-.1-1-.09-.9,0-1.79-.23-2.69-.03-.14,0-.28,0-.42,0-.32-.45-.76-.25-1.17-.21Z"/>
        <path class="cls-144" d="M40.02,75.63c.3.29.72.3,1.08.45.2.09.48.15.46.44-.02.33-.31.26-.53.3-1,.19-1.99.45-3.03.39-.65-.04-1.04.17-.97.89.06.63-.05,1.11-.84,1.17-.4.03-.3.55-.54.78-.86.83-1.65,1.72-2.07,2.86-.36.98-1.35,1.21-2.08,1.71-.72.49-.88,1.03-.85,1.82.05,1.52.01,1.56-1.51,1.51-.92-.03-1.65-.03-1.87,1.15-.2,1.05-1.29,1.33-2.06,1.84-.73.48-.98,1.02-.94,1.87.07,1.51.02,1.51-1.51,1.51-.26,0-.53.01-.79,0-.5-.02-.74.16-.89.69-.23.79-.71,1.36-1.49,1.83-1.3.78-2.7,1.56-3.6,2.81-.43.59-.79,1.12-1.44,1.44-.49.02-.34-.46-.52-.69-.21-.26-.16-.68-.51-.87-.11-.28-.23-.55-.34-.83-.11-.97-.37-1.9-.79-2.78-.06-.34-.13-.67-.19-1.01.12-.33.09-.65,0-.98-.03-.24-.05-.49-.12-.73.01-.42-.13-.82-.2-1.23-.04-.72.08-1.44-.09-2.15-.05-.55.05-1.11-.08-1.66-.05-.22-.03-.45-.03-.67,0-.46,0-.91,0-1.37,0-.9,0-1.8,0-2.7,1.06-.66,1.41-1.87,2.12-2.8,1.34-1.75,3.09-3.03,4.96-4.16.27-.16.44-.4.55-.68.79-1.91,2.23-3.22,3.9-4.34.9-.6,1.65-1.35,1.43-2.61-.08-.49-.22-.82-.82-.7-.56.11-.87-.22-.79-.72.08-.49-.18-.9-.15-1.36.72-.27,1.05.31,1.49.66.12.15.22.31.34.46.75.86,1.6,1.52,2.83,1.44.82.17,1.49.64,2.18,1.06.42.26.85.48,1.32.6.62.37,1.25.71,1.91,1,1.69.73,3.14,1.94,4.96,2.42.38.1.73.33.93.7.13.66,1.13.46,1.18,1.2Z"/>
        <path class="cls-166" d="M112.8,94.92c-.13.54-.26,1.08-.39,1.62-.33.62-.45,1.3-.59,1.97.02.38-.12.71-.35,1-.41.54-.64,1.15-.82,1.8h0c-.27.19-.34.56-.63.73-.86.24-1.33.93-1.82,1.6-.3.41-.61.74-1.14.89-1.76.5-2.75,1.98-2.63,3.87-.02.2-.16.33-.29.47-.2.18-.47.26-.66.45-.36.16-.7.35-1.01.6-.37.18-.74.35-.99.7-.04.04-.1.06-.16.05-.6.14-1.18.31-1.63.75-.8.48-1.75.47-2.6.8-.67.07-1.32.32-2,.34-.41.29-.91.09-1.34.27-.68.16-1.4.04-2.07.29-.39,0-.78,0-1.17,0-.68.14-1.38.04-2.06.18-.78.04-1.55,0-2.33.02-1.45,0-2.9,0-4.35,0-2.31-.22-4.63-.03-6.95-.11-.46-.02-1.3.21-1.29-.27.01-.59.84-.38,1.33-.39,1.86-.03,3.71,0,5.57-.01.43,0,.86.03,1.26-.23-.89,0-1.78.03-2.66-.02-.47-.02-1.01-.05-.97-.71.03-.59.54-.59.97-.61.96-.04,1.92,0,2.88-.02,1.25-.03,2.49-.1,3.74-.25,1.31-.16,2.69.03,4.04.04-.51,0-1.03-.09-1.51.01-1.25.27-2.03-.41-2.76-1.24-.39-.44-.12-.94.63-1.07.92-.16,1.85-.04,2.78-.08.41-.02.87.12,1.2-.28-1.24-1.23-1.25-1.34-.1-2.84.75-.98,1.71-1.73,2.67-2.49,1.12-.89,2.46-1.5,3.08-3.06.5-1.25,1.74-2.14,2.84-3,1.03-.81,2.21-1.42,3.14-2.37.05-.05.1-.11.16-.11,1.23-.06,1.64-1.07,2.2-1.9.45-.66,1.16-.97,1.83-1.32.54-.28.87-.61.94-1.27.12-1.05.9-1.67,1.81-1.98.55-.19.93-.41,1.18-.92.51-1.02,1.33-1.72,2.36-2.17.36-.16.72-.39,1.11-.07.1.45.02.91.05,1.37,0,.46,0,.93,0,1.39.06.75-.13,1.49-.1,2.23-.1.68-.12,1.36-.1,2.04-.18.63-.3,1.26-.13,1.92.03.23.03.45-.14.63-.24.24-.12.5-.06.76Z"/>
        <path class="cls-118" d="M55.94,78.42c.36.54.93.55,1.49.6,3.37.28,6.74.18,10.12.21.4,0,1.13-.21,1.12.26-.02.6-.75.31-1.15.31-2.39.03-4.77.04-7.16,0-.78-.01-1.06.26-1.04,1.04.04,2.05.02,4.11.01,6.17,0,.35.09.8-.39.91-.52.11-.53-.32-.63-.68-.2-.74-1.15-.69-1.49-1.35-.08-.15-.33.08-.43.26-.44.74-.29,1.54.43,2.07.28.21.25.33-.02.51-1.54,1-2.97,2.16-4.25,3.45-.54.55-1.31,1.06-1.46,2.02-.1.62-.64,1.02-1.23,1.41-1.52.99-2.93,2.13-4.17,3.51-.54.6-.77,1.77-1.97,1.69-.19-.01-.25.26-.3.46-.21.91-.86,1.39-1.6,1.89-.84.55-1.57,1.28-2.27,2.01-.21.22-.35.52-.61.74-.24.2-.58.42-.43.81.16.45.59.33.94.36.41.03.84-.09,1.43.27-1.17.26-2.24-.1-3.12.51-.16.11-.49.14-.51.26-.32,1.36-1.4.88-2.24.93-.76.05-.75.02-.85.78-.05.34-.36.22-.56.22-.81.01-1.59.14-2.52.43.77.22,1.35.41,1.95.56.26.07.58.07.58.41,0,.3-.15.59-.44.73-.59.29-1.18.6-1.88.47-.27.21-.59.06-.88.09-.58-.06-1.11-.35-1.71-.28-.13-.02-.26-.04-.39-.06-.22-.21-.51-.26-.79-.29-.4-.09-.75-.38-1.19-.29-.28-.11-.55-.23-.83-.34-.4-.5-1.09-.46-1.56-.84.05-.54.43-.59.86-.59.34,0,.7.09,1.05-.14-.24-.39-.57-.25-.83-.25-.47,0-.84-.15-.79-.64.04-.43.12-.92.78-.96,1.51-.1,3.01-.43,4.5.16.34.14.71.06,1.13-.31-.5-.03-.88-.03-1.24-.07-.21-.02-.39-.13-.39-.37,0-.24.18-.36.39-.37.46-.03.92-.07,1.38.09.55.19.95.02.93-.62-.03-.8.67-1.1,1.07-1.58.75-.9,1.52-1.8,2.63-2.33.61-.29,1.02-.89,1.28-1.54.07-.18.11-.47.24-.51,1.34-.44,1.79-1.81,2.76-2.62.75-.63,1.41-1.33,2.31-1.82.85-.46,1.26-1.47,1.06-2.57-.2-1.1.12-1.85,1.38-2.02.97-.13,1.51-.95,2.06-1.62.49-.6,1.15-1.09,1.41-1.88.12-.37.51-.58.89-.48,1.47.38,2.18-.64,2.96-1.54.83-.97,1.65-1.9,2.83-2.53.71-.39,1.39-1.14,1.19-2.2-.11-.61.27-1.31-.09-1.82-.47-.66-1.17-.06-1.76-.06-1.65-.01-2.73-.61-3.12-1.8.12-.11.26-.13.42-.09.09.03.18.08.26.14.99.74,2.13.7,3.28.66.32-.01.64-.17.97-.08.1.03.18.09.25.17Z"/>
        <path class="cls-91" d="M23.51,14.39s.08-.05.14-.05c.72-.19,1.4-.46,2.04-.84.58-.22,1.2-.36,1.78-.59.28-.06.55-.14.83-.16.39-.33.98-.04,1.36-.43.31.06.61.05.91-.05.23.02.45-.09.68-.1.24,0,.47-.01.7-.1.37-.07.77.12,1.12-.13h-.02c.57-.19,1.17-.01,1.75-.1.51-.11,1.01-.1,1.52-.02.71,1.05.53,2.2-.55,2.74-1.6.8-2.55,2.02-2.88,3.78-.18.95-.83,1.5-1.75,1.85-1.51.58-3.04,1.14-3.95,2.66-.31.53-.48,1.08-.62,1.66-.36,1.49-.97,1.93-2.47,1.74-.95-.12-1.78.09-2.45.78-.57.59-1.26,1.07-1.77,1.73-.49.64-.59,1.28-.23,2.03.48,1.01-.1,2.04-1.19,1.86-3.03-.51-4.23,1.75-5.76,3.56-.2.24-.27.66-.69.59-.21-.03-.22-.3-.23-.5-.01-.55-.03-1.1.09-1.65,0-.55,0-1.1,0-1.64.06-.4.21-.79.2-1.2.08-.32.12-.65.07-.98.02-.13.03-.26.05-.38.25-.63.34-1.31.48-1.96.05-.34.21-.65.22-.99.21-.59.41-1.19.6-1.79.38-.57.55-1.24.86-1.85,0-.06.02-.12.04-.17.17-.28.36-.56.54-.84.23-.45.49-.88.75-1.32.17-.2.28-.43.42-.65.35-.27.54-.67.8-1.01.23-.26.53-.46.62-.82.5-.51,1.01-1.02,1.51-1.53.46-.12.7-.53,1.04-.8.38-.14.63-.44.85-.76.2-.13.39-.27.59-.4.52-.05.87-.45,1.33-.63.23-.17.51-.27.66-.54Z"/>
        <path class="cls-121" d="M104.28,108.46c-.34-1.26.18-2.21.99-3.14.55-.64,1.13-.97,1.96-1.1.65-.1.84-.87,1.22-1.34.43-.54.86-.99,1.6-.99.14.24-.11.4-.13.6-.25.3-.43.64-.59.99-.18.19-.27.43-.42.64-.31.25-.5.57-.65.93v.02c-.32.25-.68.47-.77.9-.51.5-1.02,1.01-1.54,1.51-.41.12-.64.45-.87.77h0c-.25.11-.48.28-.78.21Z"/>
        <path class="cls-38" d="M11.79,83.19c0,.99-.02,1.99-.02,2.98-.06.09-.11.09-.17,0,0-1.33-.03-2.65-.03-3.98,0-13.83,0-27.65,0-41.48,0-.43.02-.86.03-1.29.14-.03.25.02.31.15.15.31.16.64.16.97,0,3.34.04,6.68-.02,10.02.05,3.05.03,6.1.01,9.15.01,5.16.05,10.33-.01,15.49.05,2.28.02,4.57.02,6.85,0,.4-.01.8-.3,1.13Z"/>
        <path class="cls-114" d="M81.59,113.21c1.53,0,3.05.02,4.58.03.07.04.09.07.07.11-.02.04-.04.05-.07.05-.5.01-.99.03-1.49.03-14.72,0-29.44,0-44.16,0-.36,0-.73-.02-1.09-.03-.07-.03-.09-.07-.07-.1.02-.03.04-.05.07-.05,2.45-.01,4.9-.02,7.35-.03.32-.32.73-.27,1.12-.28,2.94-.04,5.88-.05,8.82.01,3.11-.12,6.23.07,9.34-.02,2-.02,4,.07,6,0,3.17.43,6.36.04,9.53.29Z"/>
        <path class="cls-80" d="M78.78,11.76c-.23.54-.11,1.11-.11,1.67-.01,2.91,0,5.83-.01,8.74,0,.38.12.8-.21,1.13-.1-.07-.18-.17-.22-.29-.04-.12-.06-.24-.07-.36-.03-3.1,0-6.2-.02-9.3,0-.39.1-.8-.25-1.11-.89-.36-1.82-.09-2.72-.19-1.93.03-3.86.04-5.79,0-.19,0-.37,0-.56,0-1.06.04-2.13.03-3.19,0-4.08.05-8.15.05-12.22,0-2.01.03-4.03.04-6.04,0-.53-.01-1.05,0-1.58-.03-.17-.02-.34-.05-.49-.14-.04-.04-.08-.08-.12-.12.02-.05.04-.11.05-.16,2.25-.01,4.5-.03,6.75-.03,8.51,0,17.01,0,25.52,0,.4,0,.79.02,1.19.04.04.05.08.1.11.15Z"/>
        <path class="cls-41" d="M113.4,39.43c.01,7.27.03,14.54.03,21.81,0,2.35-.02,4.69-.03,7.04-.14.03-.25-.02-.31-.15-.33-1.13-.12-2.28-.16-3.42-.03-.95-.03-1.9.01-2.85-.04-5.01-.05-10.02,0-15.02-.04-2.1-.01-4.2-.01-6.3,0-.33,0-.66.16-.96.07-.13.17-.18.31-.15Z"/>
        <path class="cls-131" d="M113.25,68.27c.05,0,.1,0,.15,0,0,5.9,0,11.8,0,17.7-.05.09-.11.1-.17,0,0-.46-.01-.93-.02-1.39-.26-.29-.3-.66-.3-1.02,0-4.73-.05-9.46.02-14.19.02-.39-.04-.8.31-1.1Z"/>
        <path class="cls-8" d="M78.78,11.76c-.07-.03-.11-.08-.11-.15,2.5,0,5,0,7.5,0,.07.03.09.07.07.1-.02.03-.04.05-.07.05h-7.39Z"/>
        <path class="cls-135" d="M45.22,11.61c-.01.06-.04.11-.08.15-.11.13-.25.24-.41.24-1.79.09-3.58.23-5.36-.08-.13-.07-.18-.17-.14-.31,2,0,3.99,0,5.99,0Z"/>
        <path class="cls-120" d="M12.4,95.93c.64.82.89,1.75.79,2.78-.33-.91-.61-1.83-.79-2.78Z"/>
        <path class="cls-128" d="M13.52,99.54c.76.24.56,1.12,1.03,1.56,0,.13.01.25.02.38.08.1.07.19-.04.27-.47-.67-.75-1.43-1.01-2.2Z"/>
        <path class="cls-47" d="M25.7,13.56c-.61.45-1.24.87-2.06.78.61-.48,1.37-.64,2.06-.95.07.04.09.08.07.11-.02.04-.05.06-.07.06Z"/>
        <path class="cls-108" d="M113.38,36.22c0,.67.01,1.34.02,2.01-.12.05-.22.02-.28-.1-.16-.92-.43-1.84-.22-2.79.05-.1.14-.16.26-.16.35.28.05.71.22,1.03Z"/>
        <path class="cls-9" d="M13.57,25.7c-.08.64-.24,1.25-.6,1.79-.05.09-.1.09-.15,0,.14-.72.32-1.42.73-2.05.11.08.12.17.03.26Z"/>
        <path class="cls-15" d="M110.65,101.3c-.14-.79.27-1.32.82-1.8-.18.64-.39,1.27-.82,1.8Z"/>
        <path class="cls-152" d="M23.91,110.63c.61.12,1.24.18,1.56.84-.62-.21-1.25-.4-1.77-.82.07,0,.14-.01.22-.02Z"/>
        <path class="cls-36" d="M111.48,25.46c-.73-.39-.83-1.08-.82-1.8.39.55.62,1.17.82,1.8Z"/>
        <path class="cls-86" d="M12.76,28.48c-.04.7-.1,1.4-.57,1.98-.01-.69.14-1.35.4-1.98.06-.09.11-.09.17,0Z"/>
        <path class="cls-96" d="M91.75,113.03c.61-.4,1.38-.01,1.99-.39.11.14.34.04.44.21-.79.26-1.62.25-2.43.35-.06-.04-.08-.08-.06-.12.02-.04.04-.06.06-.06Z"/>
        <path class="cls-15" d="M99.71,111.41c.38-.61.9-.91,1.63-.75-.49.36-1.06.57-1.63.75Z"/>
        <path class="cls-149" d="M95.13,112.44c.67,0,1.28-.46,1.98-.22-.61.35-1.28.44-1.97.47-.1-.08-.1-.16-.01-.24Z"/>
        <path class="cls-9" d="M25.7,13.56c0-.06,0-.11,0-.17.55-.35,1.2-.39,1.79-.6.07.04.09.08.07.12-.02.04-.05.06-.07.06-.55.34-1.15.52-1.79.59Z"/>
        <path class="cls-117" d="M33.07,113.2c.9-.35,1.84-.08,2.76-.16-.24.53-.66.24-1.02.21-.58-.02-1.16-.04-1.75-.06Z"/>
        <path class="cls-47" d="M13.57,25.7c0-.09-.02-.18-.03-.26.23-.54.25-1.2.81-1.57,0,.72-.38,1.29-.78,1.83Z"/>
        <path class="cls-130" d="M112.84,32.86c.03-.61-.02-1.21-.19-1.79.06-.09.11-.09.17,0,.31.7.35,1.45.39,2.2-.06.06-.13.07-.21.03-.13-.11-.05-.31-.16-.43Z"/>
        <path class="cls-78" d="M28.67,112.45c.59-.41,1.08.07,1.6.18.06.04.09.08.07.11-.02.04-.04.06-.06.06-.57.03-1.09-.14-1.61-.35Z"/>
        <path class="cls-83" d="M34.81,113.25c.33-.12.73.1,1.02-.21.28.02.59-.1.81.18.07.04.09.07.07.11-.02.04-.04.06-.07.06-.61,0-1.24.12-1.83-.14Z"/>
        <path class="cls-56" d="M101.13,14.35c-.72-.02-1.3-.35-1.82-.81.72,0,1.29.38,1.82.81Z"/>
        <path class="cls-153" d="M113.05,89.56c.06-.73.12-1.46.19-2.19.05-.09.11-.09.17,0,0,.54-.02,1.08-.03,1.62-.09.19,0,.42-.11.61-.08.04-.15.03-.22-.03Z"/>
        <path class="cls-3" d="M11.77,87.57c0,.2,0,.4,0,.6.2.5.04,1.02.09,1.53,0,.17.03.35-.12.49-.28-.86-.15-1.74-.15-2.62.06-.09.12-.08.17,0Z"/>
        <path class="cls-160" d="M11.75,90.18c.02-.14.03-.27.05-.41.04-.11.1-.11.16-.02,0,.8,0,1.6,0,2.4.04.12,0,.18-.14.17-.02-.72-.05-1.43-.07-2.15Z"/>
        <path class="cls-102" d="M111.82,98.5c-.05-.73.08-1.41.59-1.97-.13.68-.2,1.37-.59,1.97Z"/>
        <path class="cls-103" d="M86.17,11.76c0-.05,0-.1,0-.16.8,0,1.6,0,2.39,0,.02.03.04.05.06.08-.02.03-.04.05-.06.08-.8,0-1.6,0-2.39,0Z"/>
        <path class="cls-16" d="M109.85,102.48c.07-.2.13-.39.2-.59.15-.25.22-.59.61-.59-.13.55-.45,1-.78,1.45-.11-.08-.12-.17-.03-.27Z"/>
        <path class="cls-165" d="M99.32,13.55c-.65-.04-1.26-.24-1.81-.59.14-.11.29-.11.43-.02.53.03.97.29,1.38.61Z"/>
        <path class="cls-50" d="M86.17,113.4c0-.05,0-.11,0-.16.8,0,1.6,0,2.39,0,0,0,.06.08.06.08s-.06.08-.06.08c-.8,0-1.6,0-2.39.01Z"/>
        <path class="cls-79" d="M36.04,11.62c.73,0,1.46-.01,2.19-.02.05.11.02.2-.08.27-.46.22-.94.16-1.42.12-.19-.07-.39-.15-.6-.14-.12-.04-.15-.12-.09-.23Z"/>
        <path class="cls-19" d="M113.05,89.56c.05,0,.11,0,.16.02.19.18.13.39.05.6-.02.52-.03,1.04-.05,1.56-.06.1-.11.1-.17,0,0-.73,0-1.46.01-2.19Z"/>
        <path class="cls-136" d="M110.05,22.92c-.35-.42-.71-.83-.8-1.4.06-.08.13-.08.19,0,.25.35.53.68.64,1.1.06.11.05.21-.04.3Z"/>
        <path class="cls-42" d="M21.52,109.24c.57.09.98.45,1.4.8-.09.09-.19.1-.3.04-.43-.11-.76-.39-1.1-.64-.06-.04-.08-.08-.06-.13.02-.04.04-.06.06-.06Z"/>
        <path class="cls-35" d="M88.57,113.23c.63-.4,1.33-.12,1.99-.19.06.04.08.09.06.13-.02.04-.04.06-.07.06-.12.01-.24.02-.36.03-.54.1-1.09.14-1.63-.03h0Z"/>
        <path class="cls-55" d="M102.48,15.16c-.42-.08-.8-.22-1.01-.63.55-.07.87.37,1.28.6-.08.11-.17.12-.27.04Z"/>
        <path class="cls-68" d="M113.03,91.75c.06,0,.12,0,.17,0-.07.6-.14,1.19-.21,1.79-.3-.6-.21-1.19.04-1.78Z"/>
        <path class="cls-40" d="M113.03,33.26c.06,0,.12,0,.17,0,.02.52.04,1.04.05,1.56.07.15.1.29-.06.4-.05,0-.1.01-.15.02-.45-.66-.44-1.32-.01-1.99Z"/>
        <path class="cls-18" d="M90.56,11.96c-.66-.07-1.36.2-1.99-.19,0,0,0,0,0,0,.54-.17,1.08-.12,1.62-.03.12.01.25.02.37.03.06.04.09.08.07.12-.02.04-.04.06-.06.06Z"/>
        <path class="cls-39" d="M11.96,32.83c0,.6,0,1.21,0,1.81-.06.09-.12.1-.19,0,.02-.66.04-1.32.06-1.98.11,0,.16.05.13.16Z"/>
        <path class="cls-129" d="M22.92,14.96c-.46.22-.76.81-1.41.6.36-.24.68-.53,1.12-.64.11-.07.21-.05.29.04Z"/>
        <path class="cls-13" d="M11.61,38.04l.02-1.99c.11-.06.19-.03.23.09.01.15.01.3.01.46.08.46.27.91,0,1.37-.07.1-.16.13-.27.08Z"/>
        <path class="cls-129" d="M15.76,21.52c-.15.53-.47.97-.8,1.4-.09-.09-.1-.19-.04-.29.11-.43.39-.76.64-1.11.06-.08.13-.08.19,0Z"/>
        <path class="cls-12" d="M101.5,110.61c.08-.58.54-.65.98-.76.1-.09.19-.08.27.03-.42.24-.84.49-1.25.73Z"/>
        <path class="cls-161" d="M26.29,111.82c.47-.34.82,0,1.2.21.07.04.09.08.07.12-.02.04-.04.06-.07.06-.45.04-.8-.25-1.2-.38Z"/>
        <path class="cls-109" d="M34.84,11.96c-.6,0-1.2,0-1.8,0,.56-.4,1.21-.13,1.82-.23.02.04.04.08.06.12-.03.04-.05.07-.08.11Z"/>
        <path class="cls-61" d="M11.77,36.43c0-.13,0-.25,0-.38-.17-.41-.12-.82-.03-1.23-.01-.06,0-.12.03-.17.06,0,.13,0,.19,0,0,.6,0,1.19,0,1.79-.07.09-.13.09-.2,0Z"/>
        <path class="cls-43" d="M22.63,110.08c.1-.01.2-.02.3-.04.36.08.74.13.78.62-.42-.09-.76-.31-1.07-.59Z"/>
        <path class="cls-134" d="M12.14,30.85c.31.26.31.53.03.82-.06.1-.12.1-.18,0-.03-.29-.05-.57.15-.82Z"/>
        <path class="cls-125" d="M90.18,11.74c-.54.01-1.08.02-1.62.03,0-.05,0-.11,0-.16.54-.02,1.09-.12,1.62.13Z"/>
        <path class="cls-29" d="M109.85,102.48c.01.09.02.18.03.27-.15.24-.3.49-.44.73-.06.09-.12.08-.19,0,.07-.41.21-.78.6-1.01Z"/>
        <path class="cls-100" d="M14.92,22.63c.01.1.02.2.04.29-.02.38-.27.6-.57.77,0-.44.27-.75.53-1.07Z"/>
        <path class="cls-15" d="M105.07,16.92c-.42-.16-.79-.36-1.02-.77.08-.1.16-.11.25-.02.29.19.62.33.75.69,0,.03.01.07.02.1Z"/>
        <path class="cls-107" d="M11.82,92.33c.05-.06.09-.11.14-.17.37.34.14.79.21,1.18-.06.06-.12.06-.18,0-.06-.33-.12-.67-.17-1Z"/>
        <path class="cls-151" d="M108.26,20.12c-.38-.24-.75-.5-.8-1,.41.15.63.48.79.86.06.03.09.06.07.09-.02.03-.04.05-.06.05Z"/>
        <path class="cls-11" d="M33.06,11.95c-.34.37-.81.14-1.2.23-.2.09-.38.14-.38-.18.53-.02,1.06-.04,1.59-.05Z"/>
        <path class="cls-161" d="M112.06,27.49c-.26-.36-.57-.72-.24-1.2.23.37.26.78.24,1.2Z"/>
        <path class="cls-52" d="M102.75,109.88c-.09-.01-.18-.02-.27-.03.23-.39.6-.53,1.01-.6.06.04.08.09.06.13-.02.04-.04.06-.06.06-.24.15-.49.3-.73.44Z"/>
        <path class="cls-166" d="M88.56,113.23c.54.01,1.08.02,1.63.03-.53.23-1.08.15-1.62.13,0-.05,0-.1,0-.16Z"/>
        <path class="cls-133" d="M14.54,101.74c.01-.09.02-.18.04-.27.36.24.52.6.59,1.01-.06.08-.13.08-.2,0-.14-.25-.29-.5-.43-.75Z"/>
        <path class="cls-137" d="M14.97,102.49c.07,0,.13,0,.2,0,.25.3.54.58.59,1-.06.08-.13.08-.19,0-.2-.33-.4-.66-.6-.99Z"/>
        <path class="cls-46" d="M20.93,15.96c-.07.47-.33.73-.81.78-.04.07-.09.07-.14,0,.23-.37.59-.58.95-.79Z"/>
        <path class="cls-105" d="M19.98,16.75s.09,0,.14,0c-.27.4-.52.8-1.09.78.26-.32.54-.62.95-.77Z"/>
        <path class="cls-84" d="M12,31.67c.06,0,.12,0,.18,0-.08.39.17.84-.22,1.17-.04-.05-.09-.11-.13-.16.06-.33.11-.67.17-1Z"/>
        <path class="cls-81" d="M95.13,112.44c0,.08,0,.16.01.24-.29.24-.64.15-.97.16-.17-.02-.34-.04-.44-.21.47-.03.95.06,1.39-.2Z"/>
        <path class="cls-141" d="M16.93,19.93c-.17.41-.37.79-.78,1.01-.1-.08-.11-.16-.02-.25.19-.29.33-.61.67-.75.04,0,.08,0,.12-.01Z"/>
        <path class="cls-25" d="M36.64,113.4c0-.06,0-.12,0-.17.53,0,1.06,0,1.59.01.06.04.08.07.06.11-.02.04-.04.05-.06.05-.53,0-1.06,0-1.59,0Z"/>
        <path class="cls-37" d="M102.48,15.16c.09-.01.18-.02.27-.04.24.15.49.3.73.44.06.04.08.08.06.13-.02.04-.04.06-.06.06-.41-.07-.78-.22-1.01-.6Z"/>
        <path class="cls-148" d="M15.57,103.48c.06,0,.13,0,.19,0,.25.11.39.3.4.58.1.09.09.17-.02.25-.3-.2-.43-.52-.57-.82Z"/>
        <path class="cls-75" d="M109.25,103.48c.06,0,.12,0,.19,0-.14.31-.27.62-.57.83-.11-.08-.11-.16-.01-.24,0-.28.14-.47.4-.58Z"/>
        <path class="cls-148" d="M109.44,21.52c-.06,0-.13,0-.19,0-.25-.11-.39-.3-.4-.58-.1-.09-.09-.17.01-.24.3.2.43.52.57.83Z"/>
        <path class="cls-155" d="M108.85,104.06c0,.08,0,.16.01.24-.21.25-.41.5-.62.75-.04-.48.23-.77.6-.99Z"/>
        <path class="cls-26" d="M16.75,105.07c.51.08.78.37.77.9-.32-.24-.58-.55-.77-.9Z"/>
        <path class="cls-34" d="M107.48,105.97c-.01-.52.26-.81.76-.9-.18.36-.44.66-.76.9Z"/>
        <path class="cls-151" d="M19.06,107.48c.52,0,.79.28.87.77-.36-.18-.64-.44-.87-.77Z"/>
        <path class="cls-24" d="M113.4,87.36c-.06,0-.11,0-.17,0,0-.46,0-.93,0-1.39.06,0,.11,0,.17,0,0,.46,0,.93,0,1.39Z"/>
        <path class="cls-78" d="M19.95,108.25c.48-.04.77.22,1,.6-.07.1-.16.1-.24.02-.25-.21-.5-.41-.75-.62Z"/>
        <path class="cls-139" d="M104.28,108.46c.24-.14.5-.24.78-.21-.25.21-.51.41-.76.62-.09.09-.17.08-.24-.02.07-.13.14-.26.22-.39Z"/>
        <path class="cls-90" d="M20.7,108.87c.08,0,.16-.01.24-.02.28,0,.47.14.58.39,0,.06,0,.13,0,.19-.31-.14-.62-.27-.82-.57Z"/>
        <path class="cls-51" d="M104.06,108.85c.08,0,.16,0,.24.02-.2.29-.51.43-.82.57,0-.06,0-.13,0-.19.11-.25.3-.39.58-.39Z"/>
        <path class="cls-158" d="M12.76,28.48h-.08s-.08,0-.08,0c-.08-.36.12-.67.22-.99.05,0,.1,0,.15,0,.03.35-.01.69-.21.99Z"/>
        <path class="cls-22" d="M105.07,108.25c.08-.49.36-.77.87-.77-.23.33-.52.58-.87.77Z"/>
        <path class="cls-43" d="M110.05,22.92c.01-.1.02-.2.04-.3.18.29.35.59.53.88-.37-.02-.54-.23-.56-.58Z"/>
        <path class="cls-78" d="M108.87,20.69c0,.08,0,.16-.01.24-.3-.2-.59-.41-.6-.82,0-.05,0-.1-.01-.14.32.15.45.45.62.72Z"/>
        <path class="cls-147" d="M90.56,11.96c0-.06,0-.12,0-.19.47.03.98-.19,1.41.19-.47,0-.94,0-1.41,0Z"/>
        <path class="cls-26" d="M105.07,16.92s0-.07-.02-.1c.4.11.69.34.84.74-.41-.04-.67-.28-.83-.64Z"/>
        <path class="cls-54" d="M11.61,38.04c.05,0,.1,0,.15,0,.37.47.38.93,0,1.39h-.07s-.07,0-.07,0c0-.46,0-.93,0-1.39Z"/>
        <path class="cls-48" d="M93.56,12.16c-.46-.05-.96.16-1.39-.16.47,0,.97-.23,1.39.16Z"/>
        <path class="cls-92" d="M97.94,12.95c-.14,0-.29.01-.43.02-.33.02-.62-.03-.79-.37.42.07.85.12,1.22.35Z"/>
        <path class="cls-100" d="M22.92,14.96c-.1-.01-.2-.02-.29-.04.29-.18.58-.35.87-.53-.01.37-.23.54-.58.57Z"/>
        <path class="cls-66" d="M16.14,20.7c0,.08.01.16.02.25,0,.28-.15.47-.39.58-.06,0-.13,0-.19,0,.14-.31.27-.62.57-.82Z"/>
        <path class="cls-15" d="M16.14,104.3c0-.08.01-.16.02-.25.38.23.65.52.6,1.01-.2-.25-.41-.51-.61-.76Z"/>
        <path class="cls-110" d="M31.48,112.99c.43-.15.88-.44,1.17.21-.39-.07-.78-.14-1.17-.21Z"/>
        <path class="cls-148" d="M103.48,15.76c0-.06,0-.13,0-.19.31.14.62.27.82.57-.08,0-.17.01-.25.02-.28,0-.46-.15-.57-.4Z"/>
        <path class="cls-103" d="M11.77,87.57c-.06,0-.11,0-.17,0,0-.46,0-.93,0-1.39.06,0,.11,0,.17,0,0,.46,0,.93,0,1.39Z"/>
        <path class="cls-85" d="M113.2,35.23c.02-.13.04-.27.06-.4.24.45.15.93.12,1.4-.27-.29-.09-.67-.18-.99Z"/>
        <path class="cls-129" d="M12,93.33c.06,0,.12,0,.18,0,.23.15.19.38.18.6-.07.07-.09.19-.21.22-.2-.25-.18-.54-.15-.83Z"/>
        <path class="cls-141" d="M16.93,19.93s-.08,0-.12.01c.09-.41.42-.64.72-.88.03.45-.24.69-.6.87Z"/>
        <path class="cls-14" d="M112.8,94.92c-.27-.28-.22-.64-.11-.92.07-.17.11.1.17.16-.02.25-.04.51-.06.76Z"/>
        <path class="cls-126" d="M31.48,12.01c.13.06.25.12.38.18-.15.22-.38.17-.6.18-.1-.15-.33-.04-.41-.22.18-.17.4-.17.63-.13Z"/>
        <path class="cls-126" d="M30.47,12.39c-.29.26-.57.26-.82-.06.12-.13.26-.16.43-.13.11.11.31.02.39.19Z"/>
        <path class="cls-167" d="M27.49,112.2c0-.06,0-.12,0-.17.29.05.7-.14.79.36-.3.1-.51-.17-.79-.19Z"/>
        <path class="cls-62" d="M30.47,12.39c-.13-.06-.26-.12-.39-.19.26-.02.51-.04.77-.06.14.07.27.15.41.22-.26,0-.52.01-.79.02Z"/>
        <path class="cls-4" d="M27.49,12.97c0-.06,0-.12,0-.17.27.03.51-.43.81-.04-.21.29-.53.19-.81.22Z"/>
        <path class="cls-89" d="M30.28,112.81c0-.06,0-.12,0-.17.33,0,.66,0,.99,0-.06.12-.13.24-.19.36-.27-.06-.53-.12-.8-.19Z"/>
        <path class="cls-111" d="M113.24,38.23c.05,0,.11,0,.16,0,0,.4,0,.79,0,1.19-.05,0-.1,0-.15,0-.35-.4-.34-.79,0-1.19Z"/>
        <path class="cls-126" d="M11.74,34.82c.01.41.02.82.03,1.23-.05,0-.1,0-.15,0-.04-.41-.11-.83.11-1.22Z"/>
        <path class="cls-171" d="M90.55,113.23c0-.06,0-.13,0-.19.4,0,.79,0,1.19,0,0,.06,0,.11,0,.17l-1.19.03Z"/>
        <path class="cls-30" d="M38.24,113.4c0-.05,0-.11,0-.16.4,0,.8,0,1.2.01,0,.05,0,.1,0,.15-.4,0-.8,0-1.19,0Z"/>
        <path class="cls-166" d="M113.26,90.18c-.02-.2-.03-.4-.05-.6.04-.2-.02-.43.17-.6.04.41.1.81-.12,1.19Z"/>
        <path class="cls-126" d="M36.04,11.62s0,.1,0,.15c-.4.16-.8.12-1.2.03,0,0,.01-.06.01-.06.38-.23.78-.14,1.18-.11Z"/>
        <path class="cls-143" d="M112.81,31.06h-.08s-.08,0-.08,0c.03-.33-.14-.69.15-.98,0,.33,0,.65.01.98Z"/>
        <path class="cls-54" d="M38.24,11.76c0-.05,0-.11,0-.16.33,0,.66,0,.99,0,0,.05,0,.1,0,.15-.33.3-.66.3-.99,0Z"/>
        <path class="cls-167" d="M112.4,28.27c-.51-.1-.32-.5-.35-.8.31.18.21.55.35.8Z"/>
        <path class="cls-149" d="M12.15,94.16c.07-.07.14-.14.21-.22-.04.33.13.69-.16.97-.02-.25-.04-.51-.05-.76Z"/>
        <path class="cls-85" d="M113.24,38.23c0,.4,0,.8,0,1.19,0,2.45-.02,4.9-.03,7.36-1.19.65-2.23,1.4-2.44,2.89-.05.37-.41.59-.71.79-.53.35-1.03.73-1.44,1.21-.71.85-1.34,1.68-2.57,2-.75.19-1.42.97-1.5,1.94-.05.64-.37.91-.99,1.01-1.68.28-3.36.2-5.04.1-1.09-.06-2.02.18-2.73,1.06-.14.09-.3.19-.46.16-1.75-.3-3.01.89-4.46,1.49-.91.37-1.47,2.2-1.03,3.07.21.41.6.52,1.01.31.32-.16.62-.38.98-.44.14-.03.28-.04.43-.01.62.07,1.25.02,1.87.15.23-.05.46-.08.69-.06.43.05,1.19-.13,1.1.44-.06.4-.17,1.27-1.05,1.26-.61,0-1.2.12-1.41.83-.21.27-.44.57-.76.62-1.76.28-3.15,1.52-4.87,1.88-1.28-.08-2.38.66-3.63.75-.32.02-.65.12-.97.04-.13-.03-.26-.17-.36-.13-1.39.44-2.78-.07-4.18.04-1.04.08-1.83.41-2.02,1.57-1.07.63-2.29.57-3.45.79-.26,0-.54,0-.74-.18-.65-.57-1.22-.42-1.76.15-.1.03-.19.02-.27-.03.07-.45.14-.91.2-1.36.07-.55.39-.82.93-.82.5,0,.99-.02,1.49,0,.89.04,1.87.21,2.64,0,.62-.16.91-1.35,1.52-1.87.84-.72,1.57-1.58,2.54-2.17.52-.32,1.08-.78,1.2-1.46.13-.73.56-.97,1.19-.87,1.3.22,1.94-.54,2.41-1.55.38-.81,1.15-1.09,1.84-1.41.7-.33,1.05-.73.95-1.51-.03-.26,0-.53,0-.79-.04-.8.35-1.23,1.13-1.11,1.34.21,1.97-.57,2.48-1.6.38-.78,1.17-1.04,1.87-1.38.6-.29.96-.62.9-1.34-.04-.54,1.17-2.06,1.68-2.01,1.01.09,1.43-.68,1.7-1.26.46-1,1.3-1.35,2.14-1.78.54-.28.91-.59.84-1.28-.05-.51,1.16-2.08,1.65-2.04.99.08,1.45-.65,1.72-1.24.45-1,1.29-1.37,2.13-1.8.54-.28.93-.56.87-1.26-.04-.52,1.14-2.1,1.62-2.06.98.08,1.45-.62,1.73-1.22.48-1,1.32-1.41,2.2-1.85.29-.15.53-.38.8-.57.16.09.19.24.2.4,0,.66,0,1.32.01,1.99.06,1,.13,1.99.19,2.99Z"/>
        <path class="cls-73" d="M52.76,70.46c.46,0,.93,0,1.39,0,2.67.51,5.36.45,8.06.32,1.55-.08,3.11-.02,4.67-.02,3.55-.05,7.08-.21,10.56-1.06.92-.23,1.89-.26,2.82-.46.32-.07.66-.04.92.22-.02.53-.48.5-.79.56-3.43.72-6.89,1.29-10.39,1.54-2.67.19-5.34.48-8.01.35-3.23-.16-6.47-.21-9.68-.71-1.7-.26-3.4-.48-5.09-.77-.39-.07-.9,0-1.04-.57.28-.29.66-.33,1.01-.25,1.84.43,3.77.3,5.59.84Z"/>
        <path class="cls-142" d="M66.88,71.05c-2.02-.02-4.08-.3-6.04.01-2.28.36-4.38-.2-6.55-.48-.05,0-.1-.08-.15-.13,5.44,0,10.88,0,16.31,0,.07,0,.13,0,.2,0,.34-.21.68-.31,1.02,0-.1.53-.52.25-.8.3-1.33.21-2.67.15-4,.31Z"/>
        <path class="cls-58" d="M52.76,70.46c-1.77-.24-3.57-.1-5.32-.54-.4-.1-.84-.04-1.27-.05-.32.29-.66.22-1,.04-.29-.29-.66-.36-1.05-.42-.38-.06-.79-.12-.73-.67.08-.07.17-.12.27-.15,1.58-.35,3.04.14,4.51.6,1.26.59,2.65.53,3.98.8.2.13.4.26.6.4Z"/>
        <path class="cls-164" d="M48.18,69.26c-1.59-.15-3.15-.61-4.77-.4-1.55-.17-3.01-.62-4.42-1.27-.13-.06-.18-.18-.15-.32,1.48-.09,2.95-.05,4.38.4.24.51.71.38,1.12.4,1.4.04,2.73.28,3.85,1.19Z"/>
        <path class="cls-170" d="M11.79,75.23c0-5.17,0-10.34,0-15.51.79.22,1.18-.09,1.21-.9,0-.16.08-.32.16-.47.13-.24.28-.49.59-.42.25.05.36.28.41.52.11.51.08,1.04.23,1.73.17-.83.31-1.49.31-2.18,0-.37.03-.73.18-1.07.09-.21.19-.44.47-.45.31-.01.47.21.57.47.2.52.2,1.1.42,1.58.29.07.39-.1.41-.25.15-1.26.85-2.36.96-3.63.04-.43.24-.79.68-.89,1.85-.41,2.83-1.87,3.86-3.23,1.01-1.33.95-1.35-.5-2.09-.41-.21-1.16-.32-1.04-.88.14-.64.88-.36,1.38-.42.3-.03.61-.06.89,0,2.82.64,4.35-1.1,5.73-3.11.27-.39.5-.78,1.02-.87.53-.09.7-.45.69-.93-.01-.74.36-1.09,1.05-1.35,1.86-.7,3.09-2.1,3.8-3.91.3-.75.58-1.4,1.44-1.6.4-.1.56-.43.71-.77.72-1.61,1.88-2.78,3.49-3.52.41-.19.7-.43.88-.87.56-1.31,1.38-1.49,2.46-.56.27.24.59.43.74.79.2,2.2.03,4.41.11,6.61,0,.25-.3.69.28.76.68,1.11,1.68,1.38,2.95,1.36,4.2-.07,8.39-.02,12.59-.03.46,0,.93.04,1.38-.06.81-.29,1.26-1.02,1.88-1.56.34-.29.56-.76,1.11-.72-.71,1.24-1.57,2.33-2.98,2.83-1.28.2-2.58.14-3.86.07-3.38-.19-6.72.4-10.09.4-1.11,0-2.11-.19-3.11-.81-.75-.46-1.7-.45-2.61.1-1.57.95-2.74,2.28-3.83,3.69-.46.6-1.02.83-1.72.78-.74-.05-1.26.24-1.68.84-.61.87-1.34,1.64-2.13,2.35-.35.31-.7.64-1.17.73-.84.17-1.05.71-.97,1.46.18,1.61-.61,2.63-1.96,3.36-.86.46-1.4,1.3-2.09,1.96-.74.71-1.15,1.7-1.98,2.34-.24.19-.3.51-.32.81-.02.26-.01.53-.03.79-.09,1.64-.68,2.15-2.33,2.04-.64-.16-1.02-.69-1.52-1.05-.84-.8-1.87-.43-2.83-.48-.14,0-.28.08-.32.2-.34,1-.72,2-.4,3.08.07.22.19.39.49.39,1.54-.03,2.2,1.17,2.92,2.2.39.56-.14,1.28-.9,1.43-1.68.32-1.77.33-1.65,2.05.1,1.4-.69,2.13-1.64,2.82-1.43,1.03-2.77,2.14-3.68,3.7-.25.43-.58.75-1.12.36Z"/>
        <path class="cls-94" d="M22.32,60.31c1.89.22,2.23-.51,2.17-2.24-.03-.81.15-1.42.92-1.8.24-.12.34-.38.5-.59.97-1.35,1.99-2.63,3.47-3.5.88-.51,1.66-1.22,1.5-2.45-.05-.39.03-.8-.02-1.19-.07-.56.23-.81.7-.88,1.45-.24,2.18-1.41,3.02-2.39.4-.46.94-.84,1.14-1.48.07-.22.34-.22.52-.17,1.78.45,2.51-.87,3.36-1.98.93-1.2,2.13-2.15,3.41-2.85.5-.27,1.7-.43,2.36.18.73.67,1.52.88,2.43.86,4.83-.13,9.66-.28,14.49-.19-.3.32-.69.18-1.04.18-2.19.01-4.37.03-6.56,0-.77-.01-1.52.09-2.26.23-.47.09-.98.22-.3.86.47.44.21,1.13.13,1.69-.03.26-.38.19-.6.22-1.14.12-2.42,1.29-2.49,2.38-.04.66-.42.94-.92,1.15-.85.35-1.55.87-2,1.69-.35.65-.86.98-1.57,1.29-.87.39-1.87,1.04-1.88,2.29,0,.62-.41.86-.87,1.08-.76.35-1.46.73-1.9,1.51-.39.69-.88,1.2-1.76,1.53-.81.3-1.82,1.01-1.83,2.21,0,.67-.43.95-.93,1.14-1.04.37-1.67,1.13-2.2,2.04-.18.31-.34.6-.23.92.26.74-.11.93-.72.85-1.2-.15-2.28.65-3.49.41-.73.14-1.34-.28-1.95-.51-1.42-.54-2.84-1.13-4.21-1.79-.26-.13-.51-.32-.4-.69Z"/>
        <path class="cls-5" d="M71.01,30.79c-.59.87-1.33,1.58-2.18,2.19-1.27.72-2.7.86-4.08,1.21-.57.15-1.07.46-1.51.92-.44.46-.87.31-.96-.32-.09-.65-.14-1.32.09-1.96.4-.53.74-1.15,1.58-.82.09.04.24.03.28-.04.46-.91,1.34-.67,2.09-.77.44-.06.74-.27.86-.7.16-.6.57-.88,1.17-.87.79.02,1.47-.3,2.19-.55.65-.23,1.41-.72,2.04.11-.15.15-.3.3-.45.45-.51.26-.87.66-1.15,1.15Z"/>
        <path class="cls-127" d="M62.5,32.86c0,.63,0,1.25,0,1.88,0,.2.01.42.27.46.2.03.26-.13.34-.29.33-.68,1.07-.68,1.63-.99.58-.32,1.08-.69,1.8-.2.35.24.69-.14.95-.47.36-.44.76-.91,1.35-.26-.8,1.19-2.05,1.95-2.93,3.07-.2.26-.42.5-.64.75-.99.64-1.57,1.74-2.61,2.33-.29.03-.49-.09-.58-.38-.21-1.21-.11-2.44-.1-3.66.05-3.44-.03-6.87.06-10.31.07-.25.11-.52.46-.51.5.79.21,1.67.29,2.52-.04.35.01.71,0,1.07-.03.35.02.7,0,1.06,0,.65.03,1.31,0,1.96,0,.67.12,1.36-.28,1.96Z"/>
        <path class="cls-72" d="M62.5,32.86c0-.66,0-1.33,0-1.99,2.13-.74,3.97-2.13,6.34-2.37,1.62-.16,3.04-1.04,4.19-2.25.34-.04.68.1,1.01-.02q1.08.45.18,1.37c-.42.65-.93,1.2-1.61,1.59-.72-.35-1.42-.17-2.06.16-.69.35-1.38.62-2.17.53-.53-.06-.89.1-.91.74-.02.68-.51.76-1.09.88-.63.12-1.69-.54-1.79.81,0,.05-.29.17-.33.13-.8-.7-1.22.07-1.75.42Z"/>
        <path class="cls-112" d="M38.83,67.27c1.17.48,2.34.94,3.59,1.18.34.07.71.13.98.41,0,0,0,0,0,0-.75.53-1.54-.11-2.3.07-1.35-.13-2.63-.51-3.88-1.05-.35-.34-.78-.38-1.24-.37-2.39-.69-4.77-1.43-6.98-2.61-.13-.17-.22-.35-.2-.57.09-.2.22-.34.47-.25.96-.02,1.61.7,2.44.99,1.67.58,3.41.93,5.07,1.57.66.26,1.27.73,2.04.62Z"/>
        <path class="cls-60" d="M74.22,27.6q.41-.68-.18-1.3c-.12-.28-.22-.56-.54-.67-.07-.06-.13-.13-.16-.22-.02-.48.3-.89.67-.8.73.17,1.19-.48,1.83-.44.18,0,.34-.08.34-.27,0-.26-.22-.3-.42-.31-.66-.03-1.32-.01-1.98.02-.81.04-1.62.01-2.42.01-2.11.06-4.23.02-6.34.02-.39,0-.8,0-1.12-.29.05-.54.49-.47.82-.48,4.25-.12,8.5-.05,12.75-.05.33,0,.66.04.92.29.02.07.05.14.07.2-1.23,1.61-2.7,2.98-4.23,4.3Z"/>
        <path class="cls-67" d="M29.28,64.09c-.13.07-.27.13-.4.2-.51.33-.94-.06-1.23-.3-1.01-.85-2.29-.85-3.44-1.27-1.39-.53-2.74-1.16-3.87-2.16-.1-.31-.41-.4-.63-.58-.27-.23-.45-.49-.08-.8.52-.24,1-.05,1.49.14.4.33.8.66,1.19.99.59.82,1.6.96,2.41,1.32,1.35.61,2.79,1.05,4.15,1.66.21.22.48.42.4.8Z"/>
        <path class="cls-72" d="M71.01,30.79c-.11-.59.57-1.27,1.15-1.15-.24.52-.63.9-1.15,1.15Z"/>
        <path class="cls-28" d="M55.94,78.42h-.1s-.1,0-.1,0c-1.12-.16-2.18-.67-3.35-.54-.43.05-.86.01-1.23-.25h0c-.3-.24-.7.04-.99-.2-1.43-.15-2.81-.65-4.27-.62-.75.02-1.1-.93-1.92-.83-.18.02-.38-.03-.57.05-.47-.41-1.33.02-1.63-.75.05-.1.13-.16.23-.21.43-.13.87-.1,1.3-.04,3.93.89,7.86,1.81,11.88,2.23.88.09,1.8-.08,2.65.29.81.3,1.67.32,2.51.39,2,.16,4.01-.01,6-.12,1.14-.06,2.34-.26,3.49-.53.1-.03.21-.06.32-.08.78-.08,1.43.31,2.1.61-.98.19-1.91.6-2.94.6-4.46,0-8.92,0-13.38,0Z"/>
        <path class="cls-124" d="M41.81,75.23c.41.5,1.25.15,1.59.79-1.15.1-2.25-.35-3.38-.4-.36-.48-1.17-.32-1.39-1,1.23-.69,2.22-.12,3.18.6Z"/>
        <path class="cls-85" d="M50.17,77.42c.34.05.72-.13.99.2-.13,0-.27,0-.4,0-.22,0-.45.03-.6-.2Z"/>
        <path class="cls-159" d="M56.73,113.21c-3.32,0-6.63,0-9.95,0-.25-.51-.73-.38-1.14-.38-3.18,0-6.35,0-9.53-.17h11.85c-1.3-.1-2.57-.45-3.87-.44-.28,0-.72.09-.71-.31.01-.38.46-.27.74-.28.29-.01.58,0,.89-.12-.75-.52-1.69-.06-2.47-.62h3.83c-.51-.34-1.28-.04-1.46-.85-.15-.71.72-.44.87-.96-.11-.25-.74-.34-.46-.93.24-.5.62-.51,1.07-.51,1.13,0,2.25-.01,3.38,0,1.11.02,1.94-.25,2.34-1.46.67-2.04,2.49-2.83,4.3-3.46,1.02-.35,1.56-.9,1.72-1.9.35-2.22,2.37-4.04,4.62-4.13.38-.01.74-.1.95-.44.34-.56.91-.87,1.42-1.22.6-.42,1.04-.78,1.01-1.63-.02-.71,1.5-2.03,2.25-2.07.53-.03.85-.23,1.12-.67.58-.94,1.38-1.67,2.32-2.25.29-.18.67-.34.63-.81-.13-1.33.95-1.92,1.78-2.49.91-.63,1.78-1.34,2.8-1.84.43-.21.69-.79.79-1.32.13-.72.56-1.02,1.25-.99,1.14.06,2.3.17,2.65-1.35.06-.24.38-.24.59-.31.51-.16.45-.5.26-.86-.22-.42-.61-.35-.81-.09-.69.87-1.62.57-2.48.6-.52.02-.86-.27-1.03-.77-.11-.32.16-.82-.31-.95-.47-.13-1-.15-1.47.04-.4.16-.79.35-1.24.3.07-.66.68-.58,1.08-.79,1.26-.04,2.49-.3,3.76-.29.59,0,1.13-.06,1.36-.74.12-.35.42-.49.79-.47.31.02.6,0,.81-.27,1.25-.58,2.61-.89,3.82-1.58.34-.19.77-.14,1.15.05.5.39.48,1.3,1.45,1.24,1.06-.06,1.25-.14,1.39-1.18.07-.51-.06-1.06.25-1.53.89-.19,1.85-.3,2.7-.16,1.21.19.73,1.36.79,2.15.05.61.08,1.46-.83,1.39-1.54-.13-2.6.3-3.06,1.87-.09.31-.46.47-.76.62-1.31.63-1.87,1.89-2.53,3.05-.2.35-.28.79-.78.73-.47-.06-.45-.5-.52-.85-.04-.19,0-.41-.3-.54-.31.6-.65,1.18-.79,1.86-.2.94-.66,1.69-1.55,2.2-.76.44-1.26,1.13-1.78,1.9-.52.77-1.13,1.78-2.28,1.98-.49.08-.72.44-.89.85-.33.76-.83,1.32-1.56,1.73-.98.54-1.59,1.29-1.49,2.56.08.99-.2,1.25-1.25,1.18-1.19-.08-1.97.29-2.37,1.45-.2.57-.72.84-1.2,1.13-.99.59-1.66,1.32-1.54,2.63.09.95-.2,1.22-1.17,1.15-1.22-.09-1.94.31-2.48,1.45-.58,1.2-1.95,1.63-2.98,2.39-.49.36-.92.74-1.32,1.18-.39.43-.41.73.09,1.14,1.01.82.88,1.45-.34,1.88-.37.13-.74.29-1.14.34-.49.05-.64.27-.59.8.1.95-.69,1.75-1.68,1.78-1.46.04-2.92,0-4.38.04,1,.06,2,.02,3,.03.25,0,.5.02.74.12.89.48-.05.76-.13,1.13Z"/>
        <path class="cls-6" d="M76.23,77.02c-.26.32-.77.22-.99.6-.98.25-1.98.2-2.98.2-.8.24-1.41-.55-2.2-.4.01-.36.3-.42.55-.43.75-.03,1.47-.3,2.23-.24,1.11.07,2.21-.49,3.32-.03.11.08.14.18.08.31Z"/>
        <path class="cls-101" d="M21.12,59.32c-.53,0-1.06,0-1.59,0-.07.07-.15.12-.24.17-.35.17-.95-.12-1.06.49-.13.69-.11,1.39.49,1.9,1.19,1.02,2.17,2.27,3.57,3.04.17.09.31.24.44.39.06.07.1.15.14.24.07.17.08.36.05.54.17.43.79.7.31,1.37-.19.27.14.68.65.45.66-.3.9.1,1.01.64.26,1.25-.42,2.69-1.58,3.18-1.05.44-1.68,1.34-2.45,2.08-.69.66-1.16,1.47-1.42,2.4-.03.12-.13.3-.21.32-1.12.18-1.6,1.3-2.58,1.71-.87.36-1.42,1.17-2.06,1.81-.67.68-1.26,1.47-1.51,2.47-.15.62-.72.7-1.29.67,0-2.65,0-5.31,0-7.96.44.06.73-.09.95-.51.8-1.57,2.14-2.63,3.54-3.63,1-.72,2-1.44,1.67-2.93-.05-.22,0-.46,0-.69q0-1.38,1.36-1.38c.23,0,.47.03.69-.02.56-.11.91-.8.56-1.2-.62-.72-1.17-1.52-2.08-1.93-.14-.07-.31-.27-.42-.1-.67.96-.76-.05-.88-.31-.56-1.26.07-2.44.39-3.62.03-.1.21-.25.28-.23,1.08.28,2.35-.4,3.27.66Z"/>
        <path class="cls-82" d="M41.81,75.23c-.4-.03-.73-.03-1.11-.39-.53-.51-1.37-.12-2.07-.21-.15-.59-.69-.66-1.14-.79-1.71-.49-3.1-1.57-4.64-2.39.15-.17.34-.18.54-.15.45.15.86.4,1.29.59.33.18.68.31,1.04.4,1.55.33,2.92,1.16,4.45,1.57.44.22.92.36,1.34.63.22.2.54.36.29.74h0Z"/>
        <path class="cls-45" d="M31.07,70.46c-1,.15-1.54-.75-2.34-1.05-.42-.16-.77-.48-1.24-.54-.63-.47-1.53-.62-1.74-1.56.02-.1.06-.18.12-.26.32-.12.59.02.83.18,1.01.66,2.1,1.22,2.99,2.05.36.32.75.58,1.19.78.08.04.15.09.21.16.04.09.03.17-.02.24Z"/>
        <path class="cls-156" d="M25.9,67.07v.21c-.47.38-.93.27-1.4,0-.16-.09-.19-.23-.2-.4-.35-.63-1.04-.82-1.59-1.2,0-.07,0-.13,0-.2-.2-.27-.08-.47.15-.64,1.19.5,2.33,1.05,3.03,2.22Z"/>
        <path class="cls-71" d="M24.5,67.27c.46,0,.93,0,1.39,0,.24.83,1.31.81,1.6,1.58-1.35.14-2.24-.6-2.99-1.59Z"/>
        <path class="cls-104" d="M31.07,70.46c.02-.08.04-.17.05-.25.96.06,1.81.33,2.31,1.24-.19,0-.39,0-.58,0-.66-.22-1.33-.42-1.79-1Z"/>
        <path class="cls-150" d="M22.72,65.68c.74.11,1.36.4,1.59,1.2-.48-.24-.83-.7-1.39-.8-.16-.09-.2-.24-.2-.4Z"/>
        <path class="cls-21" d="M11.96,89.76c-.06,0-.11,0-.16.02,0-.54-.02-1.08-.02-1.62.39.5.12,1.07.19,1.6Z"/>
        <path class="cls-77" d="M113.22,69.26c0,5.11,0,10.21,0,15.32-1.57.38-2.72,1.29-3.36,2.79-.08.18-.09.48-.28.48-.84.02-1.42.31-1.98,1.02-.26.32-.57.52-.52.96.08.65-.16,1-.8,1.26-1.32.54-2.41,1.37-2.84,2.84-.03.11-.15.28-.24.29-.79.04-1.26.57-1.88.94-1.42.86-2.71,1.82-3.92,2.94-.9.84-1.7,1.74-2.06,2.95-.06.19-.05.44-.25.51-1.69.61-2.92,1.87-4.19,3.04-.54.5-1.04,1.08-1.4,1.71-.22.39-.46,1.08.47,1.14.4.02.6.25.57.65-.04.42-.33.53-.7.53-1.06,0-2.12,0-3.18,0-.33,0-.66-.03-.97.16-.15.09-.28.18-.25.38.02.16.15.24.27.23.62-.04.76.22.74.82-.01.41.45.39.79.39,1.02,0,2.04,0,3.07.2-.52,0-1.04,0-1.56,0-3.29,0-6.55.67-9.85.4-.29-.02-.65-.05-.65.4,0,.45.38.4.66.38.95-.05,1.92.16,2.86-.15.26-.08.58-.1.67.22.07.25-.21.38-.4.5-.38.26-.82.23-1.25.23-2.38,0-4.76,0-7.13.2,2.26,0,4.52,0,6.79,0,.38,0,.8-.15,1.14.18-3.18,0-6.37,0-9.55,0-1.21-.19-2.44-.03-3.66-.09-.27-.01-.68.17-.75-.25-.07-.43.36-.51.67-.59.65-.17,1.33-.19,1.97-.07.66.13,1.31.1,1.81.11-.23,0-.63,0-1.03,0-.39,0-.79-.1-.78-.56,0-.38.43-.33.71-.39,1.79-.38,3.6-.48,5.42-.43.39.01,1.02.24,1-.56-.02-1.16-.21-1.43-1-1.47-.69-.04-1.39.04-2.08-.05-.3-.04-.64-.12-.65-.49,0-.35.36-.35.6-.39.7-.11,1.11-.53,1.07-1.21-.07-1.15.38-1.72,1.46-2.23,1.27-.6,2.2-1.77,3.08-2.9.18-.23.31-.55.59-.66.83-.31,1.31-.84,1.34-1.76.01-.32.25-.54.55-.65,1.7-.62,2.8-1.96,3.87-3.3.46-.58.95-.89,1.67-.83.77.06,1.28-.29,1.73-.93.88-1.25,1.99-2.3,3.27-3.16,1.06-.72,1.75-1.6,1.59-2.96-.11-.9.26-1.4,1.16-1.8,1.41-.62,2.41-1.84,3.33-3.05.45-.59.94-.89,1.67-.84.77.05,1.28-.3,1.73-.93.88-1.25,1.99-2.3,3.27-3.16,1.07-.72,1.74-1.6,1.58-2.97-.1-.9.28-1.39,1.16-1.79,1.47-.66,2.48-1.94,3.46-3.2.38-.49.76-.86,1.4-.41Z"/>
        <path class="cls-85" d="M51.16,77.62c1.37-.11,2.72.01,4.05.4.24.07.42.17.53.4-1.07.23-2.13.24-3.23.04-.62-.11-1.04-.32-1.35-.84Z"/>
        <path class="cls-126" d="M45.19,37.86c-.19.43-.34.19-.36-.06-.05-.56-.03-1.12-.03-1.68,0-1.95,0-3.9,0-5.85-.32-.36-.26-.8-.27-1.23,0-1.69.01-3.38-.01-5.07,0-.46.24-1.11-.39-1.3-.66-.2-1.44-.24-1.97.32-.49.51-.95,1-1.69,1.12-.2.03-.37.2-.43.39-.36,1.25-1.36,1.93-2.36,2.58-.72.47-.98,1.07-.98,1.91,0,1.2-.17,1.38-1.42,1.34-.98-.03-1.63.23-1.96,1.24-.31.95-1.27,1.33-2.01,1.86-.7.49-1.03,1.07-.97,1.92.05.68-.12,1.21-.9,1.44-.76.23-.96,1.06-1.44,1.59-.96,1.06-1.84,2.18-3.32,2.56-.64.17-.68.73-.7,1.28-.07,1.65-.11,1.57-1.61,2.16-1.3.5-2.78.79-3.48,2.26-.19.41-.66.38-1.06.42-1.32.15-2.36,1.27-2.4,2.58-.02.86.02,1.72-.03,2.58-.01.26-.02.57-.29.7-.28.14-.51-.08-.7-.25-.82-.77-1.83-1.32-2.63-2.11-.01-3.71-.02-7.42-.03-11.14,0-.46,0-.93,0-1.39,0-.53,0-1.07.01-1.6.07,0,.13,0,.2,0,.41.58.32-.04.42-.18,1.12-1.63,2.3-3.18,4.28-3.87.44-.15.83-.06,1.25.02.54.11,1.11.17,1.53-.4.39-.53.06-.85-.16-1.31-.39-.79-.19-1.56.47-2.16,1.02-.94,1.76-2.23,3.29-2.54.41-.08.76-.08,1.16.01,1.11.27,1.92-.16,2.05-1.26.34-2.87,2.43-3.98,4.76-4.8.98-.34,1.46-.91,1.65-1.85.29-1.44.89-2.77,2.31-3.33,1.41-.56,1.62-1.54,1.46-2.81.01-.12.14-.12.2-.2.53,0,1.07,0,1.6-.01.33,0,.66,0,.99,0,1.97,0,3.94,0,5.91,0,.05.02.1.03.16.01.22.4.18.83.18,1.26,0,7.8,0,15.61,0,23.41,0,.49.1,1-.28,1.42Z"/>
        <path class="cls-31" d="M36.64,11.77c-.07.07-.13.13-.2.2-.53,0-1.06,0-1.6,0,0-.05,0-.11,0-.16.4,0,.8-.02,1.2-.03.2,0,.39,0,.59,0Z"/>
        <path class="cls-146" d="M11.79,50.56c1.04.09,1.51,1.07,2.34,1.49.32.16.51.58.76.87.09-.05.18-.1.27-.14,0-1.11,0-2.21,0-3.32,0-1.36,1.26-2.69,2.6-2.67.62,0,.96-.15,1.18-.75.24-.67.89-.99,1.52-1.19.88-.28,1.62-.89,2.59-.96.46-.03.72-.41.68-.94-.03-.36,0-.73,0-1.09-.02-.69.25-1.16.98-1.26,1.3-.17,2.03-1.18,2.78-2.05.44-.52,1.11-.95,1.24-1.72,0-.06.08-.14.13-.14,1.66-.11,1.11-1.38,1.27-2.32.16-.97,1.16-1.21,1.81-1.69.67-.5,1.21-.98,1.38-1.81.11-.52.49-.77,1.01-.79.2-.01.4,0,.6,0,1.77-.01,1.61.15,1.52-1.53-.08-1.39,1.11-1.62,1.84-2.21.64-.51,1.23-.95,1.4-1.8.09-.47.41-.81.88-.8.58.01.88-.22,1.15-.71.35-.63,2.37-1.03,2.91-.64.29.21.19.54.19.83,0,2.35,0,4.71,0,7.06-.42,0-.62-.35-.88-.59-.77-.69-1.72-.47-1.86.52-.1.66-.43.86-.96,1.08-1.62.68-2.78,1.84-3.45,3.47-.2.48-.35.88-1,.91-.59.03-.84.48-1.02,1.04-.71,2.19-2.08,3.8-4.34,4.48-.64.19-.64.59-.61,1.05.05.73-.08,1.26-.99,1.17-.35-.03-.47.23-.63.52-.71,1.31-1.81,2.31-2.93,3.25-.41.34-1.07.39-1.69.29-1.2-.19-2.4-.1-3.61.04.65.46,1.26.94,2.04,1.06.63.1.86.51.49.96-1.05,1.31-2.01,2.69-3.3,3.81-.44.38-.95.43-1.44.57-.35.1-.68.18-.66.59.07,1.36-.88,2.46-.93,3.79-.01.31-.09.83-.59.77-.44-.06-.44-.5-.49-.87-.05-.32-.14-.64-.19-.97-.04-.26-.02-.6-.37-.59-.34.01-.32.41-.36.63-.13.81-.19,1.63-.26,2.45-.03.4-.11.77-.43,1.19-.26-.75-.32-1.45-.37-2.14-.02-.26.07-.63-.25-.68-.43-.06-.31.42-.44.65-.06.11-.08.25-.1.38-.19,1.31-.38,1.4-1.38.61,0-3.05,0-6.1,0-9.16Z"/>
        <path class="cls-87" d="M113.22,69.26c-1.26-.23-1.36,1.06-2.02,1.6-1.05.86-1.76,2.14-3.23,2.45-.43.09-.57.44-.5.84.29,1.89-.58,3.03-2.16,4.04-1.19.76-2.27,1.81-2.97,3.12-.23.43-.62.75-1.02.65-1.58-.37-2.12.88-2.98,1.73-.92.9-1.65,2.08-3.07,2.34-.42.08-.59.41-.53.83.29,1.88-.54,3.05-2.13,4.05-1.19.75-2.27,1.81-2.98,3.11-.25.46-.66.79-1.11.68-1.45-.34-2,.75-2.76,1.56-.96,1.02-1.79,2.2-3.29,2.53-.45.1-.48.48-.47.87.02.77-.35,1.22-1.1,1.44-.82.24-1,1.15-1.59,1.66-1,.87-1.72,2.08-3.16,2.38-.36.08-.54.34-.52.74.02.36.02.73,0,1.09-.07,1.13-.81,1.4-1.8,1.3,0,.42.28.37.48.38.6.02,1.19,0,1.79,0,.79.02,1.85-.27,1.39,1.21-.02.07.08.17.11.26.37,1.01.3,1.14-.79,1.1-2.15-.08-4.27.07-6.43.54.66.9,1.68.2,2.52.59-1.74.28-3.48-.24-5.1.46,1.4.46,2.87-.08,4.25.4-1.99,0-3.98,0-5.97,0-.95-.2-1.91-.03-2.86-.09-.26-.01-.61.11-.78-.04-.91-.8-2-.52-3.03-.61-.26-.02-.61-.02-.65-.33-.05-.36.3-.47.59-.55.35-.1.71-.19,1.07-.2.83-.01,1.63-.04,2.33-.64.35-.31.89-.18,1.35-.18.53,0,1.06,0,1.59-.03-.79-.09-1.58,0-2.37-.07-.29-.03-.67-.04-.66-.44.01-.39.39-.39.68-.43.56-.08,1.16.08,1.76-.21-.36-.45-1.08-.14-1.14-.61-.07-.5.65-.46.9-.78.45-.6,1.06-.87,1.76-1,.27-.05.5-.19.64-.43.34-.59.76-1.06,1.45-1.27.34-.1.45-.46.59-.76.72-1.57,1.87-2.71,3.44-3.44.06-.03.15-.04.18-.08.71-1.13,2.02-1.73,2.68-2.82.91-1.49,2.07-2.56,3.5-3.54,1.09-.74,2.14-1.76,2.87-2.87.94-1.42,1.92-2.68,3.48-3.41.06-.03.15-.04.18-.08.76-1.12,2.05-1.78,2.74-2.89.9-1.46,1.92-2.68,3.49-3.4.24-.11.59-.19.64-.43.24-1.05,1.22-1.53,1.79-2.32.52-.72,1.47-.96,2.19-1.5.98-.74,1.5-1.53,1.25-2.78-.2-.98.34-1.87.51-2.8.04-.24.27-.48.6-.22.08.13.11.27.11.42-.06.42-.16.83-.23,1.25-.09.51.04.9.5,1.16.5.28.87.11,1.19-.31.15-.14.33-.2.52-.23,1.07-.19,1.53-1.07,2.09-1.83.12-.15.11-.42.26-.53,1.39-1.04,1.54-2.73,2.19-4.15.13-.28.27-.53.5-.73.38-.32.56-.75.57-1.22.03-1.97.27-3.94.1-5.92-.01-.17-.08-.32-.15-.47-.46-.95-1.25-1.37-2.27-1.43-.32-.02-.66.01-.91-.27-.05-.11-.02-.2.07-.27,2.02-.57,3.68.31,4.21,2.25.03.13.03.3.13.37,1.17.82.79,2.05.86,3.17.02.33-.16.82.33.91.41.07.6-.33.78-.65.05-.09.08-.18.12-.27.71-1.64,1.77-2.04,3.44-1.31.01,2.12.02,4.25.03,6.37-.01.33-.02.66-.03.99Z"/>
        <path class="cls-44" d="M98.71,72.05c-.14-.12-.3-.06-.3.07-.02,1.16-.82,2.21-.37,3.46.23.64-.14,1.42-.64,1.75-.87.57-1.78,1.19-2.53,1.82-.67.56-1.82,1.03-1.91,2.2-.03.45-.3.64-.65.77-1.83.69-3.1,1.94-3.79,3.77-.15.39-.34.68-.84.71-.64.03-1.04.43-1.07,1.07-.03.44-.25.67-.61.8-1.87.69-3.16,1.96-3.86,3.84-.15.41-.4.63-.88.66-.59.04-.98.42-1.01,1.02-.03.48-.27.72-.67.87-1.83.69-3.1,1.94-3.79,3.77-.15.39-.35.67-.85.7-.64.03-1.04.44-1.06,1.08-.02.5-.33.69-.71.84-1.79.68-2.8,2.07-3.81,3.65-.6.93-1.59,1.92-2.79,2.4-.52.2-1.17.13-1.37.91-.11.44-.84.12-1.1.62.28.01.53.02.78.04.28.02.69-.09.7.33.01.4-.27.64-.72.66-.66.04-1.34-.11-1.99.19.84.33,1.72.13,2.58.22.35.04.98-.25.96.31-.02.51-.65.24-1.01.27-.56.04-1.13.02-1.69,0-.5,0-.98-.04-1.28.52-.2.39-.64.28-.99.27-.86-.04-1.69.09-2.79.43,1.04.3,1.84.13,2.61.17.4.02.77-.04.95.48.15.43.61.29.96.32.97.09,1.97-.21,2.93.18-3.12,0-6.23,0-9.35,0-.13-.08-.36-.16-.37-.25-.01-.25.23-.12.35-.13.52-.05.34-.33.22-.6-.27-.37-.53-.15-.8,0h-3.97c.32-.62.75-.6,1.16-.6,1.42,0,2.85,0,4.27,0,.85,0,1.46-.87,1.2-1.67-.15-.44-.08-.88.45-.88.63,0,1.13-.3,1.7-.42.34-.07.68-.08.74-.5.06-.43-.19-.67-.53-.87-1-.56-.96-.69-.21-1.56,1-1.17,2.37-1.8,3.58-2.64.57-.4.85-.94,1.05-1.49.27-.73.69-.99,1.41-.92.3.03.6-.03.89.01.81.11,1.14-.25.97-1-.32-1.47.62-2.23,1.68-2.78.75-.39,1.17-.97,1.42-1.67.25-.74.68-.99,1.41-.92.3.03.6-.03.89.01.81.12,1.14-.25.97-1.01-.32-1.42.57-2.2,1.59-2.73.85-.44,1.24-1.12,1.59-1.9.08-.18.2-.49.29-.49,1.27.1,1.53-1.3,2.48-1.64.2-.07.42-.12.4-.36-.08-1.24.99-1.58,1.74-2.05.9-.57,1.38-1.27,1.46-2.28.06-.7.71-1.15.72-1.9,0-.26.51-.21.73.04.1.11.09.3.15.46.12.36-.3,1.02.37,1.03.55.01.42-.54.36-.94-.04-.25.17-.33.37-.38.2-.05.43-.15.44-.35.07-1.3,1.18-1.66,2.03-2.19.69-.43,1.03-1.06,1.16-1.74.12-.65.42-.73.93-.69.07,0,.13,0,.2,0,2.23-.01,2.47-.32,2.11-2.56-.08-.53-.4-.71-.83-.6-.8.21-1.57.34-2.35-.02-.03-.04-.06-.07-.08-.11-.06-.27.09-.44.28-.6.27-.18.57-.32.85-.48,1.42-.36,2.42-1.51,3.76-2,1.35-.37,3.06-1.82,2.9-3.11-.11-.87-.36-1.32-1.23-1.36-1-.04-2.03-.23-2.98.41-.35.24-.85.37-1.31.09.16-.84.74-1.03,1.5-1.01.27,0,.81.2.36-.51-.31-.5.61-.03.58-.6-.58-.16-1.23-.04-1.85-.08.17-.64.71-.48,1.13-.48,1.44-.02,2.88,0,4.33,0,.38-.01.76-.04,1.13.1.12.05.22.13.29.23.41,1.45.07,2.93.17,4.4,0,.35.01.7-.1,1.04-.51,1.24-1.16,2.41-1.57,3.69-.09.28-.19.6-.6.37Z"/>
        <path class="cls-95" d="M75.23,11.78c.99,0,1.99,0,2.98,0,.19.69.07,1.4.08,2.1-.4.49-.97.33-1.48.34-1.3.04-1.3.02-1.3,1.36,0,.46,0,.93-.01,1.39-.01.82-.43,1.2-1.24,1.22-1.06.02-2.12.06-3.18,0-.95-.06-1.56.33-1.81,1.19-.28.99-.93,1.26-1.87,1.22-1.04-.04-1.53-.04-1.48,1.37.02.44-.13,1-.68.89-1.94-.39-2.95,1.14-4.28,1.98-.44.28-.83.55-1.35.49-1.4-.15-2.23.73-2.67,1.8-.34.84-.78.99-1.54,1.04-.63.04-1.33-.51-1.8-.1-.46.41-.12,1.2-.22,1.82-.15.91-.6,1.11-1.38.59-1.09-.73-1.6-.51-1.94.85-.4,1.59-.4,1.6-2.02,1.59-.52,0-1.07.1-1.54-.24-.35-.62-.26-1.29-.13-1.94.15-.68.32-1.35.31-2.06,0-.74.39-1.04,1.11-1.1,1.46-.12,1.45-.14,1.83-1.54.41-1.53.41-1.49,2.05-1.67,1.21-.13,2.34-.66,3.59-.66.65,0,.76-.72.83-1.21.14-.99.66-1.33,1.61-1.31,1.27.03,2.45-.54,3.71-.64.47-.03.51-.44.59-.8.5-2.45.51-2.48,2.98-2.11.88.13,1.7,0,2.55-.18.55-.12.76-.4.81-.94.16-1.48.31-1.63,1.81-1.84.5-.07.97-.18,1.44-.34.74-.16,1.49-.08,2.24-.11.55-.02.83-.26.87-.83.03-.58.05-1.18.48-1.65Z"/>
        <path class="cls-17" d="M45.6,11.79c.53,0,1.06,0,1.59,0,.37.42.25.94.27,1.42.02.69-.02,1.39.02,2.08.02.4.15.72.62.75.43.03.9-.08.92-.54.04-1.36,1.02-1.73,2.04-2.07.94-.31,1.71-.84,2.3-1.64,4.11,0,8.22,0,12.33,0,.4,1,.12,1.5-.93,1.62-.91.11-1.84-.07-2.74.13-.07.34.19.37.33.47.31.22.39.52.31.87-.09.39-.41.48-.75.52-.3.04-.59.04-.89.03-.69-.03-1.33.02-1.64.8-.07.18-.24.34-.43.4-1.16.36-2.25.82-3.27,1.53-.52.36-1.16.57-1.67,1.01-.86.76-1.98,1.05-2.97,1.55-.6.31-1.01.69-1.03,1.43-.01.68-.43,1-1.09,1.03-.23,0-.47.04-.69.01-.84-.1-1.43.1-1.51,1.07-.01.16-.15.29-.28.4-.34.22-.67.34-.97-.06-.17-1.97-.05-3.95-.07-5.93-.02-1.91,0-3.82,0-5.74,0-.39-.09-.8.2-1.14Z"/>
        <path class="cls-69" d="M46.59,32.66c.8,0,1.59,0,2.39,0,.4,0,.82-.1.77-.56-.1-.79.35-1.36.62-2.02.29-.69.83-.83,1.34-.31.14.14.22.36.38.44.25.13.44.49.77.36.38-.16.29-.55.3-.87,0-.5.02-1,0-1.49-.03-.65.25-.89.84-.58.47.24.95.31,1.44.26.51-.05,1.03.29,1.17-.81.1-.78,1.06-1.97,2.23-1.93,1.14.03,1.9-.45,2.72-1.06.4-.3,1.01-.35,1.05-1.05.01-.23.31-.31.56-.32.3,0,.6,0,.9,0,1.55,0,1.58,0,1.63-1.53.02-.65.29-.9.91-.86.33.02.66,0,.99,0,.7.03,1.19.02,1.37-.95.16-.82.71-1.64,1.95-1.47,1.04.14,2.12-.03,3.18.05.95.06,1.24-.32,1.17-1.22-.06-.69,0-1.39-.02-2.09-.02-.52.19-.71.7-.7.76.02,1.52,0,2.29,0,.21,1.17.06,2.35.09,3.53.06,1.8-.09,3.61.08,5.41,0,.07,0,.13-.01.2-4.45,0-8.91,0-13.36.03-.38,0-.8-.15-1.13.19-.46.33-.84.78-1.39.99-.16.09-.19.24-.2.4-.23.37-.02.79-.13,1.18-.26.85-1.35.91-1.64,1.77-.08.25-.41.11-.54-.13-.1-.18-.13-.38-.11-.58.04-.58-.13-1.01-.79-.99-.66.02-1.18.37-1.26,1.04-.06.55-.19,1.1-.11,1.68.11.74-.37,1.44-1.03,1.58-.79.18-1.28-.13-1.43-.95-.07-.39-.34-.55-.73-.52-.44.04-.5.36-.52.71,0,.1,0,.2,0,.3-.08,1.65-.91,2.16-2.33,1.34-.6-.35-.75-.05-.94.38-.11.25-.11.52-.13.78-.07.8-.53,1.17-1.31,1.21-.2,0-.4,0-.6.01-1.17.03-1.24.1-1.27,1.24,0,.13,0,.27,0,.4-.06,1.36-.72,1.7-1.96,1.03-.11-.32-.12-.63.03-.94.6-.35.87-.86.82-1.57-.03-.35-.04-.74.27-1.02Z"/>
        <path class="cls-115" d="M46.59,32.66c0,.56,0,1.12,0,1.68,0,.64-.3.99-.98.91-.25-.23-.2-.54-.2-.83,0-2.96,0-5.92,0-8.87,0-.29-.05-.6.2-.83.29.03.54-.06.79-.2.61-.52,1.34-.5,2.07-.48.55.02.91-.13,1.1-.74.31-1.04.88-1.65,2.15-1.76,1.05-.09,2.08-.57,3.2-.51.42.02.67-.23.75-.64.04-.23.09-.45.13-.68.27-1.73.48-1.92,2.28-2.02,1.06-.06,2.12.08,3.17-.15.51-.11,1.02-.28,1.16-.81.45-1.73,1.91-1.81,3.27-2.02.58-.09,1.19-.02,1.79-.02.6,0,.87-.27.98-.87.12-.67,0-1.41.44-2.01.13,0,.27,0,.4,0,.35.39.28.86.22,1.31-.1.69.22.95.87.99.47.03,1.02-.1,1.3.47-.56.53-1.31.43-1.97.52-.84.12-1.08.52-1.01,1.25.09.93-.14,1.28-1.22,1.51-1.23.26-2.32.11-3.47-.08-1.03-.17-1.34.09-1.49,1.15-.08.58-.05,1.24-.33,1.72-.34.61-1.11.14-1.66.33-1.1.38-2.22.62-3.39.56-.35-.02-.61.1-.57.49.06.57-.36.99-.41,1.52-.05.47-.37.64-.77.57-1.66-.32-3.1.92-4.75.62-.21-.04-.37.08-.43.32-.13.58-.37,1.15-.39,1.73-.02.85-.49,1.07-1.2,1.12-1.5.1-1.42.11-1.64,1.65-.15,1.04-.48,2.05-.37,3.12Z"/>
        <path class="cls-123" d="M68.87,11.78c.12.87-.2,1.7-.21,2.55,0,.47-.31.61-.73.61-.56,0-1.13.06-1.69-.01-1.04-.14-1.91.37-2.85.61-.29.08-.44.25-.49.55-.24,1.61-.84,1.65-2.56,1.82-1.14.11-2.3-.06-3.45.18-.6.13-.79.37-.76.92,0,.07.01.13,0,.2-.47,2.43.18,2.08-2.21,2.09-1.17,0-2.15.73-3.35.71-.5,0-.8.9-.79,1.53.01.65-.28.78-.85.76-.86-.04-1.71-.03-2.55.19.01-.03.02-.07.04-.09.4-.41-.22-1.25.51-1.45.52-.15,1.12-.08,1.68-.04.84.07,1.26-.21,1.15-1.11-.07-.57.24-.84.74-1.13,1.32-.76,2.72-1.34,4.01-2.21,1.2-.81,2.42-1.92,4.07-1.94.33,0,.63-.23.65-.52.08-.93.7-.88,1.36-.86.43.02.86,0,1.29,0,.27,0,.55,0,.59-.37.04-.33-.02-.57-.43-.64-.31-.05-.76-.1-.68-.54.08-.41.53-.43.9-.44.66,0,1.32,0,1.99,0,1.37,0,1.41-.05,1.42-1.38,1.06,0,2.12,0,3.18,0Z"/>
        <path class="cls-97" d="M45.6,24.7c0,3.51,0,7.03,0,10.54,0,.33,0,.66,0,.99.24.26.26.59.26.92,0,.56.21,1.02.7,1.33.49.28,1.02.25,1.55.25,4.2-.02,8.39-.05,12.59-.03.55,0,1.13-.09,1.62.31.12.04.24.08.36.12-.32.43-.78.27-1.19.27-4.55,0-9.11-.03-13.66.03-1.27.01-2.15-.4-2.63-1.58,0-8.27.02-16.54.03-24.81,0-.43.05-.85.08-1.28.1,0,.2.02.3.02,0,4.3,0,8.61,0,12.91Z"/>
        <path class="cls-119" d="M53.35,11.78c-.02.83-.64,1.17-1.26,1.5-.41.21-.83.41-1.27.54-.94.26-1.55.64-1.5,1.81.03.8-.78.71-1.38.72-.64,0-.77-.36-.76-.9.01-1.22,0-2.45,0-3.67,2.06,0,4.11,0,6.17,0Z"/>
        <path class="cls-115" d="M71.65,14.56c-.49-.3-1.03-.18-1.55-.2-.71-.03-1.14-.24-.92-1.1.12-.47.06-.98.08-1.47,1.99,0,3.98,0,5.97,0-.02.72-.27,1.41-.22,2.14.04.52-.36.63-.8.63-.85,0-1.71,0-2.56,0Z"/>
        <path class="cls-115" d="M78.39,22.9c-.3-.3-.17-.69-.17-1.04-.01-2.63,0-5.27,0-7.9,0-.72,0-1.45,0-2.17.24.15.2.39.2.62,0,3.5-.02,6.99-.03,10.49Z"/>
        <path class="cls-159" d="M113.22,61.9c-.23,0-.46,0-.7,0-1.9,0-1.9,0-2.61,1.7-.11.28-.16.58-.49.7-.3.11-.56.45-.9.27-.36-.19-.25-.58-.26-.9-.01-.6-.01-1.19,0-1.79.01-.6.1-1.23-.72-1.4-.24-.05-.24-.27-.27-.47-.27-1.65-1.24-2.48-2.89-2.48-.36,0-.73,0-1.09,0-.29.3-.68.26-1.04.28-1.71-.03-3.43.04-5.13.2-.36.03-.73.03-1.08-.07-.12-.04-.22-.11-.3-.21.28-.77,1.58-1.47,2.45-1.34,1.84.27,3.68.21,5.52-.03.5-.07.56-.29.6-.71.1-1.23,1.18-2.36,2.39-2.48.41-.04.65-.19.86-.54.63-1.03,1.48-1.86,2.52-2.47.37-.22.55-.51.59-.95.13-1.27,1.27-2.32,2.56-2.42,0,5.04,0,10.08,0,15.12Z"/>
        <path class="cls-49" d="M93.34,64.89c1.28-.25,2.42-1.04,3.84-.83.71.1,1.52.08,1.81.74.34.78.35,1.83-.25,2.45-.77.79-1.5,1.79-2.81,1.82-.12-.19-.03-.36.05-.53.44-.63,1.24-.91,1.59-1.63.25-.48.68-.96.23-1.53-.47-.59-1.1-.44-1.71-.25-.78.25-1.48.7-2.31.79-.55-.06-1.01.14-1.4.51-.78.38-1.6.61-2.43.86-.62.03-1.22.41-1.86.1-.04-.04-.07-.08-.11-.11,1.09-.55,2.2-1.02,3.28-1.61.59-.33,1.5-.2,2.1-.78Z"/>
        <path class="cls-70" d="M95.73,57.72c.07,0,.13,0,.2,0-.02.82-.63.78-1.19.82-1.31.1-2.4.7-3.38,1.54-.15.36-.51.5-.78.73-.28.23-.57.48-.31.9.56.27,1.25.24,1.68.79-.67.29-1.2,1.15-2.1.53-.16-.11-.46-.17-.42-.37.14-.72.16-1.44.13-2.16-.03-.97.8-1.12,1.4-1.45.71-.4,1.45-.71,2.15-1.17.63-.42,1.72-.13,2.61-.16Z"/>
        <path class="cls-85" d="M76.63,69.66c-.14-.99.18-1.51,1.28-1.64.99-.11,1.94-.19,2.93-.01.53.09,1.15.3,1.65-.27.43-.48.44.28.71.32.06.46-.28.56-.61.62-.36.07-.71.16-1.03.34-.41.13-.84.12-1.27.11-.73-.01-1.42.1-2.09.45-.47.25-1.03.44-1.57.07Z"/>
        <path class="cls-76" d="M91.95,62.5c-.66-.2-1.32-.41-1.98-.61.5-.43,1.14-.31,1.71-.36,2.56-.25,5.11-.72,7.7-.33.29.04.59.05.87.19.41.29.73.61.26,1.11-.33,0-.66,0-.99,0-.4-.35-.89-.2-1.33-.21-1.95-.04-3.91-.28-5.83.21-.13,0-.26,0-.4,0Z"/>
        <path class="cls-32" d="M76.63,69.66c.64,0,1.21-.02,1.81-.45.93-.68,2.1-.25,3.16-.34.33,0,.68-.08.84.32-.03.09-.08.16-.17.2-.3.11-.61.1-.92.12-.04,0-.09,0-.13-.01-1.74.08-3.43.49-5.14.76-1.65.26-3.31.42-4.98.58-1.41.14-2.82.29-4.24.21,1.22-.39,2.52-.13,3.75-.39.34-.07.73.12,1.02-.2.4-.49.97.13,1.39-.2,1.22-.05,2.39-.39,3.58-.6Z"/>
        <path class="cls-163" d="M82.4,69.24c-.19-.29-.62-.05-.8-.37.16-.35.46-.42.8-.4.34.02.64-.04.8-.4.94-.22,1.94-.06,2.83-.66.55-.37,1.29-.08,1.94-.14,0,0,0,0,0,0,.24.44-.13.57-.38.77-1.36.44-2.68.99-4.1,1.27-.37.07-.76.28-1.1-.08Z"/>
        <path class="cls-106" d="M92.34,62.5c.76-.55,1.67-.58,2.54-.58,1.35,0,2.71.12,4.06.18.29.01.53.05.57.4-1.55,0-3.1,0-4.65,0-.32,0-.67-.11-.93.19-.49-.42-1.12.33-1.59-.2Z"/>
        <path class="cls-85" d="M73.05,70.26c-.42.38-.93.12-1.39.2-.33,0-.66,0-.99,0,.56-1,.93-1.07,1.84-.34.17.14.35.14.55.15Z"/>
        <path class="cls-1" d="M82.4,69.24c1.79-.22,3.45-.93,5.18-1.38.76-.4,1.61-.53,2.42-.77l2.35-.84c.42-.34.96-.4,1.46-.54.77-.29,1.54-.56,2.3-.86.73-.28,1.44-.35,1.97.34.56.72.07,1.29-.38,1.83-1.58,1.55-3.5,2.6-5.42,3.63-3.34,1.79-6.82,3.24-10.45,4.33-.41.12-.86.48-1.26-.05.08-.39.59-.42.7-.79-.18-.28-.47-.21-.72-.24-.62-.08-.92-.43-1-1.04-.23-1.73-.9-2.21-2.63-1.86-1.61.33-3.25.56-4.76,1.29-.54.27-1.1.16-1.66.04-1.12-.23-2.23-.33-3.33.08-.32.12-.66.1-.98.04-.69-.13-1.39-.1-2.08-.12-1.7-.07-3.39.22-5.13-.11-1.21-.23-2.56.04-3.85.07-.54.01-1.07.04-1.56-.18-.78-.35-1.52-.62-2.34-.07-.32.22-.64,0-.85-.29-.28-.4-.66-.64-1.15-.72-.37-.06-.61.05-.77.43-.51,1.23-.92,1.43-2.29,1.24-.49-.07-.96-.26-1.47-.24-.62.02-.88.24-.83.91.07.91.29,1.49,1.37,1.59.95.08,1.84.12,2.68-.36,1-.56,1.68-.37,1.97.72.21.8.62.97,1.37,1.1,2.05.34,4.11-.08,6.15.14,2.4.26,4.83.03,7.23.41.13.02.27.04.39-.03,1.27-.8,2.66-.6,4.03-.44,1.24.15,2.45-.05,3.66-.16.34-.03.56-.21.63-.54.16-.78.73-.86,1.37-.79.4.04.79.12,1.17.22.77.2,1.48.16,2.21-.23.7-.38,1.48-.28,2.24-.15.1.04.18.1.26.18.06.1.05.19-.03.28-.44.26-.95.3-1.41.51-.54.16-1.06.39-1.63.46-1.58.25-3.17.46-4.75.72-.93.04-1.84.19-2.74.41,0,0,0,0,0,0-3.54.57-7.1.76-10.68.51-.55-.04-1.12.12-1.65-.12-2.43-.29-4.86-.49-7.27-.93-2.43-.44-4.82-1.04-7.22-1.65-.63-.12-1.26-.25-1.83-.57-.41-.18-.81-.35-1.22-.53-.08-.37-.9-.37-.49-.98.06-.03.12-.07.18-.08,1.45-.25,1.43-.24,1.46-1.72.01-.75-.15-1.52.18-2.24.07-.09.16-.15.27-.18,1.18.07,2.27.49,3.4.78.3.21.64.19.98.19,2.92.74,5.9,1.05,8.89,1.34,4.45.43,8.91.54,13.37.2,4.31-.33,8.6-.83,12.8-1.91,0,0-.01,0-.01,0,.29-.31.71,0,1.01-.23.07.03.12.01.17-.04Z"/>
        <path class="cls-33" d="M45.19,69.68c-1.12-.21-2.24-.42-3.36-.62-.26-.19-.76.19-.88-.36.83-.19,1.62.22,2.45.17.15.36.48.35.8.42.34.07.81-.1.99.4Z"/>
        <path class="cls-125" d="M30.21,61.1c.32.03.77-.05.75.4-.02.51-.51.38-.84.39-.31,0-.76.05-.75-.39.02-.51.51-.36.84-.4Z"/>
        <path class="cls-125" d="M47.88,40.68c-.08.27-.24.47-.48.46-.33-.01-.52-.26-.57-.57-.04-.25.15-.33.37-.34.34,0,.53.21.68.45Z"/>
        <path class="cls-138" d="M62.31,39.02c-4.88,0-9.76,0-14.64,0-.53,0-1.05-.04-1.48-.4.52-.43,1.14-.23,1.72-.26.86-.04,1.72.02,2.58-.03.67-.04,1.11-.4.96-1.1-.33-1.44.72-2.08,1.58-2.81.32-.27.78-.37,1.12-.64.86-.69,1.78-.55,2.69-.2,1.05.4,1.04.43,1.55-.55.13-.24.3-.59.55-.5.71.26.75-.39,1.04-.74.52.42.11.88.24,1.26-.02-.36-.03-.78.45-.95.39-.14.76,0,1.15.18.06-1.24-.01-2.4.04-3.56,0-.1.06-.25.02-.29-1.33-.98-.02-1.72.23-2.55.06-.4-.16-.84.2-1.19,0,4.77,0,9.54,0,14.32Z"/>
        <path class="cls-59" d="M62.5,24.3c.38-.45.67-1.03,1.39-.99,2.52,0,5.04,0,7.56,0,.58.56-.03.75-.35.92-.94.48-1.96.78-2.96,1.1-1.39.45-2.66,1.13-3.98,1.72-.6.27-1.17.52-1.66-.16,0-.86,0-1.73,0-2.59Z"/>
        <path class="cls-99" d="M73.44,25.5c.07,0,.13,0,.2,0,.76.71-.05.64-.4.8-1.34,1.63-3.13,2.35-5.18,2.6-1.21.15-2.33.63-3.34,1.3-.69.46-1.42.63-2.22.68,0-.66,0-1.33,0-1.99.87.2,1.62-.18,2.33-.55,1.66-.87,3.59-1.1,5.13-2.22.71-.52,1.57-.79,2.26-1.33.34-.26.6-.2.78.19.1.21.2.42.43.53Z"/>
        <path class="cls-116" d="M73.44,25.5c-.77.32-.55-.49-.74-.7-2.02,1.18-3.91,2.45-6.14,3.09-.85.25-1.65.68-2.45,1.05-.56.26-1.09.46-1.61-.07,0-.33,0-.66,0-.99.65.02,1.18-.22,1.73-.56,1.75-1.07,3.66-1.76,5.69-2.08.68-.11,1.16-.6,1.78-.8.21-.07.41-.34.62-.26.91.34,1.3-.27,1.71-.87.62,0,1.25,0,1.87,0,.25,0,.61-.09.65.25.03.27-.09.58-.22.84-.16.32-.37.11-.56,0-.61-.38-.42.97-1.15.5-.61-.4-1.05-.11-1.2.6Z"/>
        <path class="cls-169" d="M74.04,23.31c-.09.32-.17.64-.29.95-.08.21-.22.52-.48.39-1.12-.57-1.81.19-2.57.75-.07.05-.18.08-.28.08-1.94-.03-3.58.92-5.3,1.63-.51.21-1.05.46-1.43.84-.49.49-.81.2-1.19-.07,0-.33,0-.66,0-.99.62.29,1.1.14,1.73-.17,1.22-.59,2.44-1.22,3.75-1.62,1.03-.32,2.04-.71,3.05-1.09.29-.11.68-.22.42-.69.86,0,1.72,0,2.58,0Z"/>
        <path class="cls-116" d="M73.25,26.29c-.06-.36.91-.21.4-.8.55.06.66.33.4.8-.27.2-.53.4-.8,0Z"/>
        <path class="cls-154" d="M40.96,68.7c.29.12.58.24.88.36-.07.01-.15.02-.22.03-.57.41-1.15.1-1.73.04-.36-.04-.71-.14-1.06-.24-.65-.19-1.32-.81-1.99-.25-.35.3.39,2.27.89,2.7.31.26.67.42,1,.65.44.31.81.68.9,1.25.09.35.67.39.57.87-1.53-.55-3.06-1.11-4.59-1.66-.29-.2-.64-.25-.95-.38-.41-.2-.81-.41-1.22-.61-.69-.56-1.51-.9-2.31-1.24,0,0-.01,0-.01,0-.52-.17-.96-.49-1.43-.74-1.2-.89-2.49-1.66-3.78-2.41-1-.71-2-1.43-3-2.14-.64.19-.91-.37-1.3-.66-.2-.26-.42-.5-.7-.69-.8-.64-1.63-1.25-2.33-2-.39-.42-.77-.93-.35-1.49.44-.59,1-.47,1.57-.07.24.17.53.25.73.49,1.19.79,2.44,1.45,3.75,2,1.63.66,3.27,1.31,4.8,2.19,2.26,1.02,4.56,1.93,6.97,2.57.06.09.05.17-.03.24-.85.37-1.61-.08-2.36-.32-1.14-.37-1.4-.27-1.32.87.03.46-.3.7-.43,1.05.2.27.48.26.73.21.63-.12,1.13.03,1.6.51.54.55.96.38,1.18-.4.19-.69.18-1.45.71-2.02.41-.09.77.07,1.12.25,1.2.5,2.43.87,3.72,1.04Z"/>
        <path class="cls-162" d="M29.07,64.71c-1.67-.58-3.27-1.32-4.8-2.19,1.29.31,2.64.5,3.72,1.38.26.21.55.36.89.39.06.14.13.28.19.41Z"/>
        <path class="cls-33" d="M37.24,67.66c-.38-.07-.77-.15-1.15-.22h.01c0-.05-.02-.11-.06-.16.43.03.93-.15,1.2.38Z"/>
        <path class="cls-2" d="M20.52,60.51c-.32-.15-.64-.31-.96-.46-.44-.2-.89-.35-1.22.14-.3.44-.04.83.28,1.13.82.75,1.66,1.47,2.49,2.21.15.24.34.44.6.56.4.27.71.67,1.19.84-.06.18-.13.37-.19.55-1.58-.86-2.78-2.19-4.13-3.33-.79-.67-.69-1.57-.63-2.46.02-.29.24-.37.49-.37.36,0,.72,0,1.09,0,.02.34.19.57.54.59.41.03.47.28.45.61Z"/>
        <path class="cls-10" d="M57.73,77.8c4.12.16,8.23.03,12.33-.39-.32.4-.81.23-1.2.29-3.19.46-6.4.76-9.62.33-.5-.07-1.06.21-1.5-.23Z"/>
        <path class="cls-57" d="M41.42,74.65c.64.1,1.24.31,1.83.57-.48,0-.95,0-1.43.01.03-.31-.27-.39-.4-.59Z"/>
        <path class="cls-7" d="M91.15,72.05c-.01.82.02,1.64-.18,2.45-.1.42-.28.55-.66.53-.1,0-.2-.01-.3,0-1.14.2-1.93-.11-2.05-1.4-.15-.15-.18-.32-.12-.52.04-.09.1-.16.18-.21.55-.23,1.09-.49,1.61-.77.08-.04.17-.08.26-.11.42-.1.84-.35,1.25.01h0Z"/>
        <path class="cls-98" d="M76.23,77.02c0-.07,0-.13,0-.2.25-.27.58-.25.9-.27,1.4-.61,3.07-.37,4.34-1.4.09-.06.19-.1.3-.12.5-.07,1-.19,1.43.19-.09.56-.54.42-.86.37-.42-.05-.74-.08-.73.46,0,.58-.39.72-.85.74-1.51.08-3.02.14-4.53.21Z"/>
        <path class="cls-88" d="M83.19,75.23c-.53,0-1.06,0-1.59,0,.18-.61.8-.47,1.2-.62,1.45-.52,2.92-1,4.34-1.61.27-.12.56-.24.82.03,0,.2,0,.4,0,.6-.72-.07-1.31.19-1.95.53-.88.47-1.88.72-2.83,1.06Z"/>
        <path class="cls-87" d="M56.14,112.24c.18-.41.54-.42.91-.39.15,0,.39-.02.36.2-.03.25-.3.16-.48.19h-.8Z"/>
        <path class="cls-122" d="M77.22,76.82c-.33,0-.66,0-.99,0-1.16-.14-2.29.24-3.44.18,1.6-.37,3.19-.76,4.82-.96.11.38-.85.22-.39.78Z"/>
        <path class="cls-104" d="M34.65,72.07c.38-.04.7.09.95.38-.37.01-.7-.1-.95-.38Z"/>
        <path class="cls-104" d="M29.68,69.48c.56.08,1,.42,1.43.74-.65.09-1.04-.33-1.43-.74Z"/>
        <path class="cls-170" d="M16.15,55.41c-.06.09-.1.21-.16.22-.17.04-.21-.1-.2-.22,0-.07.1-.16.16-.17.06,0,.12.1.2.16Z"/>
        <path class="cls-145" d="M106.67,59.32c.41,1.58.27,3.18.13,4.77-.04.47.08.92.02,1.34-.09.63-.16,1.24-.71,1.84-.79.86-1.08,2.12-1.49,3.24-.05.14.05.41-.03.46-1.35.94-1.76,2.75-3.27,3.54-.17.09-.3.1-.42-.07.24-.88.93-1.45,1.47-2.12.55-.69,1.25-1.27,1.54-2.14.62-1.07,1.1-2.2,1.4-3.4.22-.37.23-.76.14-1.17-.02-.58.19-1.14.23-1.72.02-.1.06-.2.1-.29.07-.14.14-.27.22-.41.37-.96.14-2,.38-2.98.08-.31.02-.66.29-.9Z"/>
        <path class="cls-157" d="M106.67,59.32c-.07,1.14-.13,2.27-.21,3.41-.02.3-.14.57-.38.77-.29-.25-.25-.59-.28-.92-.01-.26-.03-.53.01-.79.22-1.58-.23-2.74-1.91-3.17-.24-.23-.51-.44-.65-.76.01-.05.02-.09.04-.14.86.01,1.7-.06,2.51.5.45.31.62.7.87,1.1Z"/>
        <path class="cls-140" d="M104.08,70.26c.08.55-.36.81-.65,1.15-.85,1-1.69,2.02-2.53,3.02-.16,0-.31.04-.4.2-1.14.35-1.37.24-1.5-.71,1.53-.18,2.33-1.31,3.15-2.41.29-.4.56-.81.94-1.14.31-.19.64-.26.99-.11Z"/>
        <path class="cls-113" d="M98.71,72.05c.21-.03.37-.12.39-.36.11-1.32,1.04-2.31,1.44-3.51.02-.05.11-.07.16-.1.5.55-.21,1.11,0,1.66-.37,1.32-.59,2.71-1.61,3.76-.64-.16-.24-.71-.39-1.05,0-.13,0-.26,0-.4Z"/>
        <path class="cls-64" d="M98.71,72.45c.38.23.02.76.4.99.1.13.12.25,0,.38-.09,1.21.9.58,1.39.81-.34.69-.9.72-1.47.38-.49-.28-.88-.7-.62-1.35.15-.4.04-.85.3-1.22Z"/>
        <path class="cls-157" d="M102.29,57.53c.33,0,.66,0,.99,0,0,.07,0,.13,0,.2,0,0,0,0,0,0-.39.25-.78.43-.99-.2Z"/>
        <path class="cls-159" d="M98.24,68.9c.1.02.6-.2.64.36.03.46.25,1.02-.38,1.3-.36.16-.63.4-.7.77-.13.62-.51.78-1.08.73-.35-.03-.79.07-.93-.37-.16-.49-.09-.97.34-1.35.61-.53.77-1.62,2.12-1.44Z"/>
        <path class="cls-63" d="M100.52,69.7c-.44-.6.43-1.05.18-1.63,0-.33,0-.66,0-.99.11-1.53,1.07-3.05,0-4.58-.07,0-.13,0-.2,0,.1-.31.07-.59-.2-.81.96-.2,1.66.25,1.95,1.26.18.62.06,1.24-.03,1.86-.21,1.41-.6,2.76-1.08,4.09-.12.32-.17.73-.62.8Z"/>
        <path class="cls-168" d="M100.7,62.5c.78.16.83.78.78,1.37-.07,1.04-.42,2.04-.4,3.1,0,.26-.23.12-.38.1,0-1.53,0-3.05,0-4.58Z"/>
        <path class="cls-88" d="M96.12,68.67l-.2.4c-1.25.68-2.29,1.75-3.78,1.99-.01-.05-.03-.09-.04-.14,1.06-1.03,2.44-1.58,3.67-2.36.12-.08.25.02.35.11Z"/>
        <path class="cls-88" d="M91.15,72.05c-.46.07-.93.13-1.39.2.22-.74.83-.85,1.48-.89.04.03.08.07.11.1-.07.2-.13.4-.2.6Z"/>
        <path class="cls-88" d="M92.14,71.06c-.2.26-.48.37-.8.4,0,0,0,0,0,0,.05-.57.34-.64.8-.4h0Z"/>
        <path class="cls-69" d="M62.1,25.89c.11.64-.5,1.05-.52,1.65-.01.26-.34.7.35.56.26-.06.16.22.16.35,0,1.47,0,2.95,0,4.7-.46-.62-.8-1.08-1.41-.84-.63.25-.24.89-.55,1.52v-1.89c-.38.43-.1.84-.3,1.15-1-.56-1.02-.56-1.32.62-.12.46-.38.61-.79.51-.38-.1-.75-.26-1.11-.43-.27-.13-.53-.53-.74.07-.02.05-.21.1-.23.08-.17-.21-.31-.68-.64-.38-.76.7-1.88.83-2.53,1.66-.2.26-.31.59-.61.76-.4.24-.37.59-.25.96.35,1.06-.07,1.69-1.17,1.69-1.42,0-2.85,0-4.27,0-.8-.65-.57-1.55-.59-2.39q1.58.03,1.59-1.58,0-1.4,1.44-1.4c1.57,0,1.6,0,1.73-1.51.05-.6.68-.79.65-1.4.44.31.76.61,1.14.79.94.43,1.57.01,1.6-.99,0-.26.01-.53,0-.79-.03-.51.02-.92.71-.88.55.03,1.12-.03,1.08.78-.04.86.54.95,1.12.78.58-.17.89-.61.84-1.31-.06-.89-.31-1.81.48-2.61.66-.67,1.33-.47,2.04-.29.28.07.14.3.13.49-.03.42-.12.84.21,1.37,0-1.26,1.17-1.19,1.75-1.79Z"/>
        <path class="cls-74" d="M102.29,57.53c.28.33.66.15.99.2.15.25.55.29.58.65-.38.3-.81.17-1.23.14-2.7-.2-5.4-.22-8.04.55-.83.24-1.62.57-2.42.87-.33.13-.65.35-1.03.17,0-.31.02-.67.38-.72,1.28-.17,2.22-1.45,3.67-1.08.34.09.57-.27.74-.57,2.13.06,4.24-.35,6.36-.2Z"/>
        <path class="cls-122" d="M92.14,71.05c-.34-.02-.65.04-.8.4-.62.08-1.16.32-1.59.8,0,0,0,0,0,0-.62.2-1.2.51-1.79.8-1.4.18-2.59.98-3.94,1.32-.83.21-1.62.58-2.42.87,0,0,0,0,0,0-.34.19-.68.32-1.01-.02.02-.05.03-.11.05-.16h-.02c4.07-1.05,7.9-2.7,11.61-4.65,1.9-1,3.67-2.21,5.46-3.38-.22.84-1.15,1-1.57,1.65-1.44.6-2.74,1.44-3.98,2.39Z"/>
        <path class="cls-20" d="M89.99,67.09c-.78.35-1.57.64-2.42.77.12-.2.43-.27.4-.58.69.13,1.33-.27,2.02-.19Z"/>
        <path class="cls-20" d="M93.8,65.71c-.45.28-.93.47-1.46.54.32-.62.88-.61,1.46-.54Z"/>
        <path class="cls-23" d="M91.14,60.09c4.04-2.06,8.31-2.39,12.72-1.72q2.24.76,2.19,4.08c-.23.38.08.86-.2,1.23h0c-.26,1.74-.66,3.45-1.48,5.04-.32.62-.63,1.22-1.12,1.72-.84,1.1-1.6,2.27-2.68,3.17-.44.37-.9.74-1.47.2,0-.13,0-.25,0-.38.52-1.23,1.08-2.44,1.41-3.75.79-1.78,1.3-3.65,1.53-5.58.19-1.57-.3-2.18-1.74-2.43-1.25-.36-2.54-.38-3.82-.28-1.84.15-3.69.34-5.53.49-.33.03-.66,0-.99-.01-.35-.51-.04-.86.32-1.16.27-.23.57-.42.86-.63Z"/>
        <path class="cls-163" d="M82.23,69.27c-.31.22-.66.2-1.01.23.26-.4.67-.18,1.01-.23Z"/>
        <path d="M80.64,75.05c-1.04-.02-2.08-.14-3.05.48-.78.49-1.6-.07-2.4-.16-.8-.1-1.64-.53-1.57.87.02.29-.22.38-.48.38-1.54-.02-3.07.48-4.63.03-.89-.26-1.82.33-2.73.02-.03,0-.09,0-.09.02-.45,1.37-1.32.31-1.99.32-2.48.07-4.94-.15-7.41-.29-1.06-.06-2.17.1-3.25.09-.89,0-1.77-.13-2.66-.19-.47-.03-.56-.33-.62-.74-.19-1.5-.67-1.69-1.86-.9-.71.47-1.65.5-2.36.32-.64-.17-1.28-.18-1.99-.31.1-.41.4-.81.19-1.21-.29-.54-.45-1.26.06-1.5.45-.21,1.17-.38,1.75-.05.4.23.83.19,1.25.22.87.05,1.45-.18,1.37-1.19-.04-.5.24-.66.67-.6.69.1,1.47.05,1.74.95.16.54.56.32.76.1.55-.61,1.07-.46,1.68-.13.74.4,1.57.31,2.37.41,1.65.22,3.33-.67,4.94.2.28.15.74.11,1.07.01.66-.2,1.32-.09,1.97-.17,1.55-.19,3.1.44,4.67-.14.65-.24,1.52-.18,2.24.13,1.25.53,2.31-.22,3.37-.6.5-.18.95-.44,1.47-.36.89.13,1.6-.6,2.5-.43.38.08.78.1,1.17.16.73.12,1,.49,1,1.21,0,1.41.03,1.41,1.41,1.63.26.04.59.08.65.36.08.35-.24.51-.52.61-.28.1-.58.15-.74.44,0,0,.02,0,.02,0Z"/>
        <path d="M39.62,73.24c-.53-.57-1.04-1.14-1.77-1.5-1.33-.65-1.14-2.04-1.36-3.19-.06-.33.09-.67.75-.46,1.42.47,2.83,1.05,4.37,1,0,1.11,0,2.23,0,3.34,0,.64-.04,1.13-.92.85-.33-.11-.71-.03-1.07-.03Z"/>
        <path class="cls-6" d="M80.59,75.21c.34,0,.68.01,1.01.02-.15.31-.38.55-.71.64-1.22.33-2.45.64-3.67.95-.4-.53.07-.61.39-.78.53-.07.95-.49,1.51-.44.49-.12,1.02-.1,1.47-.39h-.01Z"/>
        <path class="cls-122" d="M80.6,75.21c-.39.52-.94.42-1.47.39.47-.21.94-.39,1.47-.39Z"/>
        <path d="M36.08,67.43c-.16.82-.27,1.66-.5,2.46-.19.67-1.07.8-1.48.21-.38-.55-.76-.77-1.4-.49-.36.16-.72-.07-1.04-.2-.32-.12-.56-.36-.02-.56.46-.17.62-.47.42-.92-.18-.41-.18-.78.23-1.04.42-.27.83-.27,1.3-.02.77.42,1.62.64,2.52.57,0,0-.01,0-.01,0Z"/>
        <path class="cls-156" d="M21.72,64.09c-.42.04-.63-.13-.6-.56.24.15.52.25.6.56Z"/>
        <path class="cls-88" d="M87.97,73.04c.48-.52,1.07-.81,1.79-.8-.53.42-1.09.76-1.79.8Z"/>
        <path class="cls-93" d="M103.26,70.45c1.14-2.15,2.01-4.41,2.59-6.77.15.69-.21,1.33-.18,2.01-.23.3.12.71-.2.99-.03,1.36-.69,2.48-1.39,3.58-.27.06-.55.13-.82.19Z"/>
        <path class="cls-157" d="M105.48,66.68c.05-.34-.13-.72.2-.99.01.35.39.77-.2.99Z"/>
        <path class="cls-93" d="M106.42,64.55c-.04.05-.1.17-.17.18-.21.04-.17-.15-.16-.26,0-.08.07-.22.12-.22.16,0,.21.12.21.3Z"/>
        <path class="cls-93" d="M105.85,63.68c.03-.42-.03-.85.2-1.23,0,.35.02.7.02,1.04-.08.06-.15.12-.23.19Z"/>
      </g>
    </g>
  </g>
</svg>