<svg width="23" height="23" viewBox="0 0 23 23" fill="none" xmlns="http://www.w3.org/2000/svg">
<g clip-path="url(#clip0_1274_2209)">
<path d="M10.6559 8.96795L11.482 9.44687C11.482 9.44687 11.494 9.44687 11.506 9.44687L12.3321 8.96795C12.3321 8.96795 12.3441 8.95598 12.3321 8.944L11.7694 4.99294C11.7694 4.99294 11.7694 4.95702 11.7454 4.94505L11.494 4.68164C11.494 4.68164 11.494 4.68164 11.482 4.68164L11.2306 4.94505C11.2306 4.94505 11.2066 4.96899 11.2066 4.99294L10.6439 8.944V8.96795H10.6559Z" fill="black"/>
<path d="M11.494 0L10.7038 3.80739C10.6798 3.92712 10.7277 4.05882 10.8235 4.13066L11.494 4.66944C11.494 4.66944 11.506 4.66944 11.518 4.66944L12.1884 4.14263C12.2842 4.0708 12.3321 3.93909 12.3082 3.81936L11.506 0H11.494Z" fill="black"/>
<path d="M12.7033 9.11117L12.9547 10.0331C12.9547 10.0331 12.9547 10.0451 12.9667 10.0451L13.8886 10.2965H13.9125L16.3071 7.09972C16.3071 7.09972 16.3191 7.0638 16.3191 7.05182V6.68066H15.9479C15.9479 6.68066 15.912 6.69264 15.9001 6.70461L12.7033 9.0992C12.7033 9.0992 12.7033 9.11117 12.7033 9.12314V9.11117Z" fill="black"/>
<path d="M19.6236 3.36426L16.379 5.49544C16.2712 5.56728 16.2233 5.68701 16.2353 5.80674L16.3311 6.65681C16.3311 6.65681 16.3311 6.66879 16.343 6.66879L17.1931 6.76457C17.3128 6.77654 17.4326 6.71668 17.5044 6.6209L19.6356 3.37623L19.6236 3.36426Z" fill="black"/>
<path d="M14.0323 10.656L13.5533 11.4821C13.5533 11.4821 13.5533 11.4941 13.5533 11.5061L14.0323 12.3322C14.0323 12.3322 14.0442 12.3442 14.0562 12.3322L18.0073 11.7695C18.0073 11.7695 18.0432 11.7695 18.0552 11.7456L18.3186 11.4941C18.3186 11.4941 18.3186 11.4941 18.3186 11.4821L18.0552 11.2307C18.0552 11.2307 18.0312 11.2068 18.0073 11.2068L14.0562 10.644H14.0323V10.656Z" fill="black"/>
<path d="M23 11.4941L19.1926 10.7039C19.0729 10.6799 18.9412 10.7278 18.8693 10.8236L18.3306 11.4941C18.3306 11.4941 18.3306 11.506 18.3306 11.518L18.8574 12.1885C18.9292 12.2843 19.0609 12.3322 19.1806 12.3082L22.988 11.518L23 11.4941Z" fill="black"/>
<path d="M13.8886 12.7031L12.9667 12.9546C12.9667 12.9546 12.9547 12.9546 12.9547 12.9665L12.7033 13.8884V13.9124L15.9001 16.307C15.9001 16.307 15.936 16.319 15.9479 16.319H16.3191V15.9478C16.3191 15.9478 16.3071 15.9119 16.2952 15.8999L13.9006 12.7031C13.9006 12.7031 13.8886 12.7031 13.8766 12.7031H13.8886Z" fill="black"/>
<path d="M19.6356 19.6235L17.5044 16.3789C17.4326 16.2711 17.3128 16.2232 17.1931 16.2352L16.343 16.331C16.343 16.331 16.3311 16.331 16.3311 16.3429L16.2353 17.193C16.2233 17.3128 16.2832 17.4325 16.379 17.5043L19.6236 19.6355L19.6356 19.6235Z" fill="black"/>
<path d="M12.3321 14.0321L11.506 13.5532C11.506 13.5532 11.494 13.5532 11.482 13.5532L10.6559 14.0321C10.6559 14.0321 10.6439 14.0441 10.6559 14.0561L11.2186 18.0072C11.2186 18.0072 11.2186 18.0431 11.2426 18.055L11.494 18.3185C11.494 18.3185 11.494 18.3185 11.506 18.3185L11.7574 18.055C11.7574 18.055 11.7814 18.0311 11.7814 18.0072L12.3441 14.0561V14.0321H12.3321Z" fill="black"/>
<path d="M11.506 23L12.2962 19.1926C12.3202 19.0729 12.2723 18.9412 12.1765 18.8693L11.506 18.3306C11.506 18.3306 11.494 18.3306 11.482 18.3306L10.8116 18.8574C10.7158 18.9292 10.6679 19.0609 10.6918 19.1806L11.482 22.988L11.506 23Z" fill="black"/>
<path d="M10.2967 13.8884L10.0453 12.9665C10.0453 12.9665 10.0453 12.9546 10.0333 12.9546L9.11141 12.7031H9.08747L6.69288 15.8999C6.69288 15.8999 6.68091 15.9358 6.68091 15.9478V16.319H7.05207C7.05207 16.319 7.08799 16.307 7.09996 16.295L10.2967 13.9004C10.2967 13.9004 10.2967 13.8884 10.2967 13.8765V13.8884Z" fill="black"/>
<path d="M3.37635 19.6357L6.62102 17.5045C6.72877 17.4327 6.77667 17.313 6.76469 17.1932L6.66891 16.3432C6.66891 16.3432 6.66891 16.3312 6.65694 16.3312L5.80686 16.2354C5.68713 16.2234 5.5674 16.2833 5.49556 16.3791L3.36438 19.6237L3.37635 19.6357Z" fill="black"/>
<path d="M8.96774 12.3319L9.44665 11.5058C9.44665 11.5058 9.44665 11.4938 9.44665 11.4818L8.96774 10.6557C8.96774 10.6557 8.95576 10.6437 8.94379 10.6557L4.99272 11.2184C4.99272 11.2184 4.9568 11.2184 4.94483 11.2424L4.68143 11.4938C4.68143 11.4938 4.68143 11.4938 4.68143 11.5058L4.94483 11.7572C4.94483 11.7572 4.96878 11.7812 4.99272 11.7812L8.94379 12.3439H8.96774V12.3319Z" fill="black"/>
<path d="M0 11.5058L3.80739 12.296C3.92712 12.32 4.05882 12.2721 4.13066 12.1763L4.66944 11.5058C4.66944 11.5058 4.66944 11.4938 4.66944 11.4819L4.14263 10.8114C4.0708 10.7156 3.93909 10.6677 3.81936 10.6916L0 11.4938V11.5058Z" fill="black"/>
<path d="M9.11141 10.2965L10.0333 10.0451C10.0333 10.0451 10.0453 10.0451 10.0453 10.0331L10.2967 9.11117V9.08722L7.09996 6.69264C7.09996 6.69264 7.06404 6.68066 7.05207 6.68066H6.68091V7.05182C6.68091 7.05182 6.69288 7.08774 6.70485 7.09972L9.09944 10.2965C9.09944 10.2965 9.11141 10.2965 9.12339 10.2965H9.11141Z" fill="black"/>
<path d="M3.36438 3.37623L5.49556 6.6209C5.5674 6.72865 5.68713 6.77654 5.80686 6.76457L6.65694 6.66879C6.65694 6.66879 6.66891 6.66879 6.66891 6.65681L6.76469 5.80674C6.77667 5.68701 6.7168 5.56728 6.62102 5.49544L3.37635 3.36426L3.36438 3.37623Z" fill="black"/>
<path d="M10.4763 9.00354L10.0094 4.71724C10.0094 4.71724 9.98542 4.70526 9.98542 4.71724L9.6861 7.05196C9.6861 7.05196 9.6861 7.05196 9.67413 7.05196L7.8303 5.59126C7.8303 5.59126 7.80635 5.59126 7.81832 5.60323L10.4643 9.00354H10.4883H10.4763Z" fill="black"/>
<path d="M8.70434 0.873954L7.92609 2.57411C7.92609 2.57411 7.84228 2.65792 7.78242 2.63397L6.04634 1.95152C5.83083 1.86771 5.59137 2.09519 5.66321 2.31071L6.27383 3.81929C6.27383 3.81929 6.33369 3.92705 6.38159 3.96297L9.26706 6.27375C9.26706 6.27375 9.37482 6.27375 9.38679 6.22585L9.85374 2.56214C9.85374 2.56214 9.85374 2.45438 9.82979 2.40649L9.21917 0.897899C9.12339 0.682387 8.80012 0.69436 8.70434 0.897899V0.873954Z" fill="black"/>
<path d="M12.5476 9.00378L15.2655 5.66333C15.2655 5.66333 15.2655 5.63938 15.2535 5.65136L13.3857 7.07614H13.3738L13.1223 4.72944C13.1223 4.72944 13.0984 4.71747 13.0984 4.72944L12.5476 9.00378C12.5476 9.00378 12.5596 9.02772 12.5716 9.00378H12.5476Z" fill="black"/>
<path d="M17.0854 2.02338L15.3373 2.66992C15.3373 2.66992 15.2176 2.66992 15.1936 2.61005L14.4513 0.897922C14.3555 0.682409 14.0323 0.670436 13.9365 0.873976L13.2899 2.37059C13.2899 2.37059 13.254 2.49032 13.266 2.53821L13.6491 6.2139C13.6491 6.2139 13.721 6.29771 13.7689 6.2618L16.7022 4.01088C16.7022 4.01088 16.7741 3.93905 16.798 3.87918L17.4445 2.38257C17.5284 2.16705 17.2889 1.93957 17.0734 2.02338H17.0854Z" fill="black"/>
<path d="M14.0083 10.4882L18.2946 10.0692C18.2946 10.0692 18.3066 10.0452 18.2946 10.0452L15.9599 9.72195C15.9599 9.72195 15.9599 9.72195 15.9599 9.70998L17.4446 7.87812C17.4446 7.87812 17.4446 7.85417 17.4326 7.86615L14.0083 10.4762V10.5002V10.4882Z" fill="black"/>
<path d="M22.1619 8.81205L20.4737 8.02183C20.4737 8.02183 20.3899 7.93802 20.4138 7.87816L21.1083 6.15406C21.1921 5.93854 20.9766 5.68711 20.7611 5.77092L19.2525 6.36957C19.2525 6.36957 19.1447 6.42943 19.1088 6.47732L16.7741 9.33886C16.7741 9.33886 16.7741 9.44661 16.822 9.45858L20.4857 9.96145C20.4857 9.96145 20.5934 9.96145 20.6413 9.9375L22.1619 9.33886C22.3774 9.25504 22.3654 8.9198 22.1619 8.82402V8.81205Z" fill="black"/>
<path d="M13.9964 12.5476L17.3129 15.3014C17.3129 15.3014 17.3368 15.3014 17.3368 15.2894L15.924 13.3977V13.3857L18.2707 13.1582C18.2707 13.1582 18.2827 13.1343 18.2707 13.1343L14.0083 12.5356C14.0083 12.5356 13.9844 12.5476 14.0083 12.5596L13.9964 12.5476Z" fill="black"/>
<path d="M20.9287 17.169L20.3061 15.409C20.3061 15.409 20.3061 15.2892 20.366 15.2653L22.0901 14.5469C22.3056 14.4631 22.3176 14.1279 22.114 14.0321L20.6294 13.3736C20.6294 13.3736 20.5096 13.3376 20.4617 13.3496L16.7861 13.6968C16.7861 13.6968 16.7022 13.7687 16.7382 13.8166L18.9532 16.7739C18.9532 16.7739 19.025 16.8577 19.0849 16.8697L20.5815 17.5282C20.797 17.612 21.0245 17.3725 20.9526 17.157L20.9287 17.169Z" fill="black"/>
<path d="M12.5237 14.0083L12.8949 18.2946C12.8949 18.2946 12.9188 18.3066 12.9188 18.2946L13.266 15.9719C13.266 15.9719 13.266 15.9719 13.278 15.9719L15.0859 17.4805C15.0859 17.4805 15.1098 17.4805 15.1098 17.4685L12.5357 14.0083H12.5117H12.5237Z" fill="black"/>
<path d="M14.1161 22.1859L14.9303 20.5097C14.9303 20.5097 15.0141 20.4379 15.0739 20.4498L16.798 21.1682C17.0135 21.252 17.265 21.0365 17.1812 20.821L16.6065 19.3004C16.6065 19.3004 16.5466 19.1927 16.4987 19.1568L13.6731 16.7861C13.6731 16.7861 13.5653 16.7861 13.5534 16.834L13.0146 20.4977C13.0146 20.4977 13.0146 20.6055 13.0266 20.6534L13.6013 22.174C13.6851 22.3895 14.0203 22.3895 14.1161 22.174V22.1859Z" fill="black"/>
<path d="M10.4524 13.9965L7.66269 17.2771C7.66269 17.2771 7.66269 17.301 7.67466 17.301L9.57836 15.9122H9.59033L9.79387 18.2588C9.79387 18.2588 9.81782 18.2708 9.81782 18.2588L10.4644 13.9965C10.4644 13.9965 10.4524 13.9725 10.4404 13.9965H10.4524Z" fill="black"/>
<path d="M5.759 20.8806L7.51902 20.2819C7.51902 20.2819 7.63875 20.2819 7.66269 20.3418L8.35712 22.0659C8.44093 22.2814 8.77617 22.3054 8.87196 22.1018L9.54244 20.6292C9.54244 20.6292 9.57836 20.5214 9.57836 20.4615L9.26706 16.7858C9.26706 16.7858 9.19523 16.702 9.14733 16.738L6.16607 18.929C6.16607 18.929 6.08226 19.0008 6.05832 19.0607L5.38783 20.5453C5.29205 20.7609 5.53151 20.9883 5.74702 20.9165L5.759 20.8806Z" fill="black"/>
<path d="M8.96773 12.5356L4.66944 12.8589C4.66944 12.8589 4.65747 12.8829 4.66944 12.8829L6.99219 13.266C6.99219 13.266 6.99219 13.266 6.99219 13.278L5.47163 15.0739C5.47163 15.0739 5.47163 15.0979 5.4836 15.0979L8.96773 12.5596V12.5356Z" fill="black"/>
<path d="M0.778242 14.0441L2.44248 14.8703C2.44248 14.8703 2.51432 14.9541 2.49037 15.0139L1.76002 16.7261C1.66424 16.9416 1.87975 17.193 2.10724 17.1212L3.6278 16.5584C3.6278 16.5584 3.73556 16.4986 3.77148 16.4627L6.16606 13.661C6.16606 13.661 6.17803 13.5532 6.11817 13.5413L2.46643 12.9546C2.46643 12.9546 2.35867 12.9546 2.31078 12.9666L0.778242 13.5293C0.562729 13.6131 0.562729 13.9483 0.778242 14.0441Z" fill="black"/>
<path d="M9.00365 10.4643L5.74701 7.63867C5.74701 7.63867 5.72306 7.63867 5.72306 7.65064L7.08798 9.56631V9.57829L4.74128 9.75788C4.74128 9.75788 4.72931 9.78183 4.74128 9.78183L8.99167 10.4763C8.99167 10.4763 9.01562 10.4643 8.99167 10.4523L9.00365 10.4643Z" fill="black"/>
<path d="M2.16709 5.69901L2.75377 7.471C2.75377 7.471 2.75377 7.59073 2.6939 7.61468L0.957826 8.29713C0.742313 8.38094 0.718367 8.71619 0.921907 8.81197L2.39458 9.5064C2.39458 9.5064 2.50233 9.54232 2.5622 9.54232L6.23789 9.27891C6.23789 9.27891 6.3217 9.20708 6.29775 9.15919L4.14263 6.15398C4.14263 6.15398 4.07079 6.07017 4.0229 6.04622L2.55023 5.35179C2.33471 5.25601 2.10723 5.49547 2.17906 5.71098L2.16709 5.69901Z" fill="black"/>
</g>
<defs>
<clipPath id="clip0_1274_2209">
<rect width="23" height="23" fill="white"/>
</clipPath>
</defs>
</svg>
