<svg width="233" height="147" viewBox="0 0 233 147" fill="none" xmlns="http://www.w3.org/2000/svg">
<path fill-rule="evenodd" clip-rule="evenodd" d="M112.876 14.5223L115.884 0.00799561C115.885 0.00564575 115.886 0.00363159 115.888 0.00219727C115.89 0.000762939 115.893 0 115.895 0L115.897 0.000152588L115.899 0.000518799C115.9 0.00088501 115.901 0.00146484 115.902 0.00219727C115.903 0.00286865 115.904 0.00363159 115.905 0.00448608L115.906 0.00588989L115.907 0.00799561L118.915 14.5269C118.961 14.7535 118.945 14.9886 118.866 15.2063C118.788 15.424 118.651 15.6158 118.47 15.7607L115.933 17.7904C115.922 17.799 115.909 17.8037 115.895 17.8037C115.882 17.8037 115.868 17.799 115.858 17.7904L113.319 15.7545C113.139 15.6097 113.002 15.4181 112.924 15.2007C112.846 14.9833 112.829 14.7485 112.876 14.5223ZM112.697 34.1631L115.855 35.9862C115.868 35.9939 115.883 35.9979 115.898 35.9979C115.913 35.9979 115.928 35.9939 115.941 35.9862L119.099 34.1631C119.103 34.1605 119.107 34.1577 119.111 34.1544L119.115 34.1505C119.118 34.1476 119.121 34.1445 119.123 34.1412C119.127 34.1367 119.13 34.1317 119.132 34.1265C119.14 34.1112 119.142 34.0941 119.14 34.0773L116.994 19.0119C116.984 18.947 116.955 18.8865 116.909 18.839L115.934 17.818C115.931 17.8137 115.926 17.8103 115.921 17.808C115.915 17.8056 115.91 17.8044 115.904 17.8044L115.901 17.8045L115.898 17.8048C115.894 17.8053 115.891 17.8064 115.887 17.808C115.882 17.8103 115.877 17.8137 115.873 17.818L114.895 18.842C114.851 18.8872 114.823 18.945 114.814 19.0074L112.668 34.0773C112.664 34.0929 112.665 34.1092 112.67 34.1244C112.672 34.1318 112.676 34.1388 112.68 34.1452C112.685 34.1519 112.69 34.1579 112.697 34.1631ZM149.45 114.972C149.45 109.069 153.282 104.375 159.286 104.375C160.832 104.332 162.363 104.688 163.731 105.408V97.523C163.731 96.1453 163.17 95.455 160.359 95.3692V94.3773L168.254 94.1202V121.906C168.254 123.026 168.858 123.59 171.32 123.629V124.577L163.808 124.75V122.38C163.069 123.188 162.169 123.831 161.165 124.269C160.162 124.707 159.078 124.929 157.983 124.921C152.599 124.923 149.45 120.615 149.45 114.972ZM163.731 121.174V107.857C163.303 107.15 162.694 106.569 161.967 106.175C161.239 105.782 160.419 105.589 159.592 105.617C156.526 105.617 154.372 108.935 154.372 114.664C154.372 119.316 156.4 122.763 159.981 122.763C160.681 122.76 161.372 122.618 162.016 122.345C162.66 122.073 163.243 121.675 163.731 121.176V121.174ZM35.1237 121.993C35.1237 123.199 34.4768 123.544 31.9749 123.587V124.574H42.7611V123.584C40.1719 123.541 39.6537 123.196 39.6537 121.99V104.629L31.9749 104.935V105.925C34.4768 105.968 35.1237 106.787 35.1237 108.079V121.993ZM34.5547 96.6457C34.422 97.009 34.3663 97.3958 34.3909 97.7817V97.7832C34.3651 98.1633 34.4211 98.5445 34.5551 98.9012C34.6891 99.2579 34.8981 99.5818 35.1679 99.8511C35.4378 100.12 35.7623 100.329 36.1195 100.462C36.4768 100.596 36.8586 100.652 37.2392 100.626C37.6248 100.642 38.0095 100.576 38.3679 100.433C38.7263 100.29 39.0505 100.074 39.3192 99.797C39.588 99.5204 39.7952 99.1903 39.9273 98.8282C40.0595 98.4662 40.1135 98.0803 40.086 97.696C40.1129 97.3137 40.058 96.9301 39.9251 96.5707C39.7921 96.2113 39.5842 95.8842 39.3149 95.6111C39.0457 95.3381 38.7214 95.1254 38.3635 94.9871C38.0056 94.8488 37.6224 94.7881 37.2392 94.809C36.8521 94.8014 36.4676 94.8742 36.11 95.0226C35.7524 95.171 35.4296 95.3919 35.1619 95.6713C34.8942 95.9507 34.6874 96.2825 34.5547 96.6457ZM4.74587 121.176C4.74587 122.726 3.88279 123.374 0.258789 123.502V124.58H13.8059C24.7208 124.58 29.2508 117.343 29.2508 109.46C29.2508 101.237 23.9436 95.3769 13.2448 95.3769H0.258789V96.4484C3.88279 96.5785 4.74587 97.2245 4.74587 98.7751V121.176ZM23.5557 109.802C23.5557 119.582 21.0907 123.287 12.8125 123.287H9.87833V96.6642H12.6837C19.9317 96.6642 23.5557 99.8941 23.5557 109.802ZM44.7141 120.098C44.7014 119.188 44.9405 118.292 45.4049 117.509C45.8693 116.726 46.541 116.086 47.3463 115.659C49.4299 114.506 52.3033 113.959 54.3242 113.574C55.4004 113.369 56.2349 113.211 56.5795 113.031V110.661C56.5795 107.085 55.5064 105.706 52.9111 105.706C52.3642 105.67 51.8157 105.743 51.2973 105.92C50.7788 106.098 50.3009 106.376 49.8911 106.739C50.3986 107.362 50.6869 108.134 50.7112 108.936C50.7219 109.278 50.6642 109.618 50.5413 109.937C50.4185 110.256 50.2331 110.547 49.996 110.793C49.7589 111.039 49.4749 111.236 49.1607 111.371C48.8464 111.506 48.5083 111.577 48.1662 111.58C47.824 111.583 47.4847 111.518 47.1683 111.388C46.8518 111.258 46.5645 111.066 46.3234 110.824C46.0822 110.581 45.8919 110.293 45.7638 109.977C45.6356 109.66 45.5722 109.321 45.5772 108.979C45.5772 106.394 48.8133 104.499 53.6883 104.499C58.5203 104.499 61.0666 106.566 61.0666 110.961V120.605C61.0666 122.716 61.6706 123.405 64.2598 122.716L64.5189 123.492C63.2467 124.284 61.789 124.729 60.2909 124.784C57.8381 124.784 57.0977 123.793 56.7957 121.552H56.6224C55.8544 122.526 54.888 123.325 53.7872 123.896C52.6864 124.468 51.4764 124.8 50.2375 124.869C46.3958 124.88 44.7141 122.511 44.7141 120.098ZM56.5795 120.227V114.196C50.9703 115.267 49.5891 116.349 49.5891 119.192C49.5273 119.629 49.5644 120.075 49.6976 120.497C49.8307 120.918 50.0566 121.304 50.3587 121.627C50.6607 121.95 51.0312 122.201 51.4432 122.363C51.8551 122.524 52.298 122.591 52.7394 122.56C53.5154 122.49 54.2652 122.243 54.9309 121.839C55.5966 121.434 56.1606 120.883 56.5795 120.227ZM81.178 121.993C81.178 123.199 80.7472 123.544 78.7619 123.587L78.7635 124.566H88.3846V123.576C86.1847 123.533 85.7095 123.189 85.7095 121.982V110.481C85.7142 110.236 85.6998 109.991 85.6665 109.749C86.1758 109.029 86.8302 108.423 87.5879 107.97C88.3456 107.517 89.1898 107.228 90.0662 107.121C92.4822 107.121 93.4741 108.543 93.4741 111.731V121.987C93.4741 123.193 93.1292 123.538 91.1455 123.581V124.571H101.11V123.581C98.6081 123.538 98.0041 123.193 98.0041 121.987V110.571C98.0041 106.608 96.235 104.497 92.9559 104.497C91.4893 104.617 90.0651 105.048 88.7781 105.761C87.4911 106.473 86.3708 107.451 85.4918 108.63C85.3613 107.442 84.7775 106.35 83.8618 105.58C82.946 104.81 81.7686 104.423 80.5739 104.497C79.1446 104.589 77.7534 104.996 76.5002 105.689C75.2471 106.381 74.163 107.342 73.3259 108.503V104.626L65.7759 104.932V105.922C68.2778 105.965 68.8818 106.784 68.8818 108.076V121.99C68.8818 123.196 68.2778 123.541 65.7759 123.584V124.574H75.699V123.584C73.7184 123.541 73.4118 123.196 73.4118 121.99V109.755C73.8529 109.01 74.4675 108.382 75.2036 107.924C75.9396 107.466 76.7753 107.193 77.6398 107.127C80.0558 107.127 81.178 108.549 81.178 111.737V121.993ZM102.47 114.713C102.391 113.364 102.594 112.014 103.065 110.747C103.536 109.48 104.264 108.325 105.205 107.353C106.145 106.382 107.277 105.616 108.529 105.103C109.781 104.59 111.126 104.342 112.479 104.375C118.476 104.375 122.488 108.423 122.488 114.542C122.569 115.893 122.369 117.247 121.899 118.517C121.43 119.788 120.703 120.948 119.762 121.923C118.822 122.899 117.689 123.669 116.435 124.185C115.182 124.701 113.834 124.953 112.479 124.923C106.443 124.923 102.47 120.874 102.47 114.713ZM117.527 114.627C117.527 108.295 115.586 105.538 112.262 105.538C109.026 105.538 107.43 108.293 107.43 114.627C107.43 121.003 109.373 123.761 112.65 123.761C115.891 123.76 117.531 121.003 117.531 114.626L117.527 114.627ZM127.775 121.993C127.775 123.199 127.171 123.544 124.669 123.587L124.672 124.58H134.81V123.59C132.869 123.547 132.308 123.202 132.308 121.996V109.761C132.81 109.005 133.48 108.375 134.266 107.919C135.051 107.463 135.931 107.194 136.838 107.133C139.346 107.133 140.419 108.469 140.419 111.701V121.99C140.419 123.196 139.815 123.541 137.83 123.584V124.574H148.012V123.584C145.507 123.541 144.946 123.196 144.946 121.99V110.574C144.946 106.611 143.091 104.5 139.769 104.5C138.297 104.592 136.863 104.998 135.561 105.688C134.258 106.379 133.119 107.34 132.219 108.506V104.629L124.669 104.935V105.925C127.171 105.968 127.775 106.787 127.775 108.079V121.993ZM192.397 96.4025C195.849 96.7056 196.323 98.3419 194.209 101.315L189.899 107.381L185.025 99.6706C183.817 97.7327 184.031 96.5265 187.569 96.3964V95.3631H173.892V96.3964C177.211 96.9153 178.031 97.6026 179.411 99.6706L186.659 110.569L181.396 117.721C178.074 122.203 176.74 123.063 173.674 123.538V124.571H184.503V123.538C181.053 123.236 180.534 121.643 182.648 118.67L187.566 111.782L193.002 120.354C194.203 122.293 194.082 123.326 190.37 123.542V124.576H204.003V123.542C200.681 123.069 200.077 122.466 198.653 120.398L190.756 108.595L195.46 102.219C198.608 98.0403 200.033 96.877 203.138 96.4025V95.3693H192.397V96.4025ZM206.46 123.502C210.084 123.374 210.948 122.726 210.948 121.176V98.7751C210.948 97.2245 210.084 96.5785 206.46 96.4484V95.3769H230.835L230.964 104.554L229.891 104.596C227.82 99.1256 226.353 96.6703 221.306 96.6703H216.085V108.861H218.241C221.521 108.861 223.031 108.042 224.239 103.606H225.232V115.452H224.239C223.031 111.013 221.521 110.153 218.241 110.153H216.085V123.293H221.176C227.13 123.293 229.028 120.537 231.185 114.678L232.307 114.721L232.048 124.586H206.46V123.502ZM28.8139 146.613V143.994L31.7312 139.186H30.3714L28.1731 142.802L25.9962 139.186H24.5215L27.4342 144.011V146.613H28.8139ZM34.1625 146.228C33.5673 145.912 33.0712 145.439 32.7291 144.859C32.3882 144.263 32.2089 143.589 32.2089 142.903C32.2089 142.217 32.3882 141.542 32.7291 140.947C33.0715 140.367 33.5675 139.894 34.1625 139.578C34.797 139.254 35.4995 139.085 36.2121 139.085C36.9248 139.085 37.6273 139.254 38.2617 139.578C38.8554 139.893 39.3511 140.365 39.6951 140.942C40.0358 141.54 40.2149 142.216 40.2149 142.904C40.2149 143.591 40.0358 144.267 39.6951 144.865C39.3509 145.442 38.8552 145.913 38.2617 146.228C37.6273 146.552 36.9248 146.721 36.2121 146.721C35.4994 146.721 34.7969 146.552 34.1625 146.228ZM37.5489 145.178C37.9414 144.959 38.2652 144.636 38.484 144.244C38.7067 143.832 38.8234 143.371 38.8234 142.902C38.8234 142.434 38.7067 141.973 38.484 141.56C38.265 141.169 37.9413 140.845 37.5489 140.627C37.137 140.407 36.6774 140.293 36.2106 140.293C35.7438 140.293 35.2842 140.407 34.8723 140.627C34.48 140.845 34.1563 141.169 33.9372 141.56C33.7141 141.973 33.5972 142.434 33.5972 142.902C33.5972 143.371 33.7141 143.832 33.9372 144.244C34.1561 144.636 34.4799 144.959 34.8723 145.178C35.2842 145.397 35.7438 145.512 36.2106 145.512C36.6774 145.512 37.137 145.397 37.5489 145.178ZM42.2163 144.704C42.364 145.13 42.5956 145.521 42.8975 145.856C43.5712 146.414 44.419 146.719 45.2944 146.719C46.1697 146.719 47.0175 146.414 47.6912 145.856C47.9918 145.52 48.2223 145.129 48.3691 144.703C48.516 144.278 48.5763 143.828 48.5466 143.379V139.191H47.1868V143.324C47.194 144.78 46.5675 145.508 45.3074 145.508C44.0472 145.508 43.4172 144.78 43.4172 143.324V139.191H42.0375V143.379C42.0078 143.828 42.0685 144.279 42.2163 144.704ZM55.767 146.613L54.2478 144.44L54.2198 144.442L54.1986 144.444L54.1759 144.445L54.1603 144.446L54.1374 144.447C54.1218 144.448 54.1062 144.449 54.0906 144.449C54.0474 144.451 54.0043 144.451 53.9612 144.45H52.2887V146.613H50.909V139.191H53.975C54.5532 139.178 55.1277 139.286 55.6612 139.509C56.111 139.699 56.4937 140.019 56.7604 140.428C57.0227 140.85 57.1554 141.34 57.1421 141.837C57.1558 142.349 57.013 142.852 56.7328 143.279C56.4455 143.695 56.0355 144.01 55.5601 144.181L57.2693 146.619L55.767 146.613ZM55.2673 140.738C54.868 140.458 54.3839 140.323 53.8967 140.357H52.2887V143.316H53.9029C54.3909 143.35 54.8755 143.213 55.2734 142.929C55.4304 142.794 55.5542 142.625 55.6353 142.435C55.7164 142.244 55.7525 142.038 55.7409 141.831C55.7523 141.625 55.7155 141.419 55.6333 141.229C55.5511 141.039 55.4257 140.871 55.2673 140.738ZM68.6227 142.819H67.3166L67.3135 145.124C66.846 145.386 66.3165 145.518 65.7805 145.505C65.299 145.512 64.8239 145.395 64.4008 145.165C64.0024 144.948 63.6719 144.625 63.4458 144.232C63.2133 143.825 63.0942 143.365 63.1009 142.897C63.0923 142.422 63.2113 141.953 63.4458 141.539C63.6713 141.149 64.0024 140.831 64.4008 140.621C64.8314 140.396 65.3116 140.283 65.7974 140.291C66.1789 140.286 66.5577 140.358 66.9102 140.504C67.2627 140.649 67.5815 140.866 67.847 141.139L68.7177 140.291C68.3675 139.893 67.9271 139.584 67.4331 139.39C66.8919 139.18 66.3152 139.076 65.7346 139.084C65.0158 139.073 64.3057 139.242 63.6696 139.577C63.0731 139.89 62.575 140.362 62.2301 140.94C61.889 141.538 61.7096 142.214 61.7096 142.902C61.7096 143.59 61.889 144.266 62.2301 144.864C62.574 145.44 63.0698 145.912 63.6635 146.226C64.2942 146.56 64.9992 146.73 65.7131 146.719C66.2463 146.72 66.7764 146.638 67.2844 146.476C67.7697 146.326 68.2234 146.089 68.6227 145.776V142.819ZM75.6392 144.896H71.9202L71.1874 146.613H69.7633L73.1082 139.191H74.468L77.8238 146.613H76.3782L75.6392 144.896ZM75.1793 143.815L73.7782 140.57L72.3862 143.815H75.1793ZM77.8284 140.357H80.2919L80.2934 146.613H81.6731V140.357H84.1366V139.191H77.8284V140.357ZM91.1347 145.458V146.613H85.5593V139.191H90.986V140.347H86.9405V142.277H90.5292V143.411H86.9405V145.458H91.1347ZM101.344 146.613L103.808 139.191H102.497L100.596 144.864L98.7077 139.191H97.4338L95.5114 144.832L93.6642 139.191H92.2309L94.6944 146.613H96.1706L98.0393 141.121L99.8789 146.613H101.344ZM109.888 144.896H106.172L105.439 146.613H104.016L107.361 139.191H108.721L112.077 146.613H110.633L109.888 144.896ZM109.428 143.815L108.027 140.57L106.635 143.815H109.428ZM116.167 146.613V143.994L119.078 139.186H117.718L115.52 142.802L113.343 139.186H111.867L114.787 144.011V146.613H116.167ZM125.21 140.357H122.747V139.191H129.055V140.357H126.591V146.613H125.212L125.21 140.357ZM130.359 144.859C130.701 145.439 131.198 145.912 131.793 146.228C132.427 146.552 133.13 146.721 133.842 146.721C134.555 146.721 135.258 146.552 135.892 146.228C136.486 145.913 136.982 145.442 137.325 144.865C137.666 144.267 137.845 143.591 137.845 142.904C137.845 142.216 137.666 141.54 137.325 140.942C136.981 140.365 136.486 139.893 135.892 139.578C135.258 139.254 134.555 139.085 133.842 139.085C133.13 139.085 132.427 139.254 131.793 139.578C131.198 139.894 130.702 140.367 130.359 140.947C130.019 141.542 129.839 142.217 129.839 142.903C129.839 143.589 130.019 144.263 130.359 144.859ZM136.116 144.244C135.897 144.636 135.573 144.959 135.181 145.178C134.769 145.397 134.309 145.512 133.842 145.512C133.376 145.512 132.916 145.397 132.504 145.178C132.112 144.959 131.788 144.636 131.569 144.244C131.346 143.832 131.23 143.371 131.23 142.902C131.23 142.434 131.346 141.973 131.569 141.56C131.788 141.169 132.112 140.845 132.504 140.627C132.916 140.407 133.376 140.293 133.842 140.293C134.309 140.293 134.769 140.407 135.181 140.627C135.573 140.845 135.897 141.169 136.116 141.56C136.339 141.973 136.456 142.434 136.456 142.902C136.456 143.371 136.339 143.832 136.116 144.244ZM143.02 139.191H146.27C147.001 139.176 147.726 139.334 148.384 139.65C148.978 139.938 149.476 140.391 149.818 140.954C150.151 141.549 150.327 142.219 150.327 142.9C150.327 143.581 150.151 144.251 149.818 144.845C149.476 145.409 148.978 145.862 148.384 146.15C147.726 146.466 147.001 146.623 146.27 146.609H143.02V139.191ZM146.206 145.447C146.703 145.46 147.197 145.355 147.646 145.141C148.046 144.945 148.378 144.635 148.601 144.25C148.82 143.837 148.935 143.376 148.935 142.908C148.935 142.44 148.82 141.98 148.601 141.567C148.378 141.182 148.045 140.871 147.646 140.676C147.197 140.462 146.703 140.357 146.206 140.37H144.4V145.459L146.206 145.447ZM153.569 139.191H152.189V146.613H153.569V139.191ZM160.782 144.896H157.064L156.331 146.613H154.907L158.252 139.191H159.612L162.968 146.613H161.522L160.782 144.896ZM160.322 143.815L158.919 140.57L157.529 143.815H160.322ZM171.103 141.694L171.114 146.613L172.422 146.615L172.413 139.192H171.277L168.376 144.112L165.424 139.192H164.288V146.615H165.605V141.758L168.047 145.765H168.66L171.103 141.694ZM176.081 146.228C175.486 145.912 174.99 145.439 174.648 144.859C174.307 144.263 174.127 143.589 174.127 142.903C174.127 142.217 174.307 141.542 174.648 140.947C174.99 140.367 175.486 139.894 176.081 139.578C176.716 139.254 177.418 139.085 178.131 139.085C178.843 139.085 179.546 139.254 180.18 139.578C180.774 139.893 181.27 140.365 181.614 140.942C181.954 141.54 182.133 142.216 182.133 142.904C182.133 143.591 181.954 144.267 181.614 144.865C181.269 145.442 180.774 145.913 180.18 146.228C179.546 146.552 178.843 146.721 178.131 146.721C177.418 146.721 176.715 146.552 176.081 146.228ZM179.467 145.178C179.86 144.959 180.184 144.636 180.403 144.244C180.625 143.832 180.742 143.371 180.742 142.902C180.742 142.434 180.625 141.973 180.403 141.56C180.184 141.169 179.86 140.845 179.467 140.627C179.056 140.407 178.596 140.293 178.129 140.293C177.662 140.293 177.203 140.407 176.791 140.627C176.398 140.845 176.075 141.169 175.856 141.56C175.633 141.973 175.516 142.434 175.516 142.902C175.516 143.371 175.633 143.832 175.856 144.244C176.075 144.636 176.398 144.959 176.791 145.178C177.203 145.397 177.662 145.512 178.129 145.512C178.596 145.512 179.056 145.397 179.467 145.178ZM190.629 146.613V139.191L189.259 139.186V144.213L185.159 139.186H184.024V146.609H185.394V141.582L189.493 146.613H190.629ZM193.05 139.191H196.3C197.03 139.176 197.754 139.334 198.412 139.65C199.006 139.937 199.504 140.39 199.846 140.954C200.179 141.549 200.354 142.218 200.354 142.9C200.354 143.581 200.179 144.251 199.846 144.845C199.504 145.409 199.006 145.862 198.412 146.15C197.754 146.466 197.03 146.623 196.3 146.609H193.05V139.191ZM196.235 145.447C196.733 145.46 197.226 145.355 197.675 145.141C198.075 144.945 198.407 144.635 198.63 144.25C198.85 143.837 198.965 143.376 198.965 142.908C198.965 142.44 198.85 141.98 198.63 141.567C198.407 141.182 198.075 140.871 197.675 140.676C197.226 140.462 196.733 140.357 196.235 140.37H194.429V145.459L196.235 145.447ZM201.619 145.83C201.993 146.13 202.425 146.35 202.889 146.476C203.426 146.636 203.985 146.717 204.546 146.714C205.113 146.73 205.677 146.629 206.203 146.417C206.611 146.255 206.963 145.979 207.218 145.621C207.439 145.293 207.556 144.905 207.552 144.509C207.574 144.093 207.44 143.685 207.175 143.364C206.928 143.083 206.616 142.867 206.267 142.733C205.824 142.569 205.37 142.436 204.907 142.335C204.504 142.236 204.185 142.148 203.952 142.07C203.74 142.004 203.543 141.896 203.373 141.752C203.299 141.688 203.24 141.608 203.2 141.518C203.161 141.428 203.142 141.331 203.145 141.233C203.143 141.087 203.178 140.943 203.248 140.815C203.318 140.687 203.419 140.579 203.543 140.501C203.912 140.291 204.335 140.195 204.759 140.226C205.108 140.229 205.454 140.281 205.789 140.379C206.146 140.479 206.489 140.625 206.808 140.813L207.245 139.742C206.897 139.517 206.513 139.353 206.109 139.255C205.672 139.142 205.223 139.085 204.771 139.085C204.206 139.069 203.644 139.17 203.12 139.382C202.713 139.546 202.362 139.824 202.11 140.183C201.889 140.514 201.772 140.904 201.776 141.302C201.753 141.722 201.887 142.135 202.153 142.462C202.397 142.743 202.706 142.961 203.054 143.094C203.505 143.258 203.966 143.392 204.434 143.497C204.838 143.596 205.156 143.684 205.39 143.762C205.603 143.828 205.8 143.938 205.968 144.085C206.042 144.15 206.101 144.231 206.141 144.322C206.18 144.413 206.199 144.511 206.197 144.61C206.197 144.752 206.159 144.892 206.087 145.015C206.015 145.138 205.912 145.239 205.787 145.309C205.408 145.511 204.979 145.603 204.55 145.574C204.097 145.573 203.646 145.496 203.218 145.346C202.814 145.215 202.435 145.016 202.097 144.758L201.619 145.83ZM120.483 34.7356L121.424 38.2562C121.428 38.2708 121.435 38.2841 121.446 38.2948C121.456 38.3056 121.469 38.3134 121.484 38.3175L125.01 39.2573C125.026 39.2616 125.044 39.2608 125.06 39.2551C125.076 39.2494 125.09 39.2389 125.1 39.2252L134.246 27.0513C134.265 27.0256 134.28 26.9972 134.291 26.9672C134.298 26.9478 134.303 26.9277 134.306 26.9073C134.307 26.9021 134.307 26.897 134.308 26.8918C134.308 26.8843 134.309 26.8767 134.309 26.8692L134.343 25.4594C134.343 25.4536 134.342 25.4479 134.34 25.4425C134.339 25.4394 134.337 25.4365 134.335 25.4337C134.344 25.4404 134.355 25.4445 134.366 25.4456L137.599 25.8022C137.829 25.8275 138.062 25.7887 138.272 25.6901C138.481 25.5916 138.66 25.437 138.787 25.2435L146.942 12.8539C146.944 12.8513 146.945 12.8481 146.945 12.8449C146.945 12.8417 146.944 12.8386 146.941 12.8363L146.939 12.8345L146.938 12.8336L146.936 12.8326L146.935 12.8323L146.933 12.8319C146.931 12.8317 146.93 12.8318 146.928 12.8322C146.926 12.8326 146.925 12.8331 146.924 12.8339L134.519 20.9744C134.325 21.1013 134.171 21.279 134.072 21.4881C133.973 21.6971 133.934 21.9293 133.959 22.1591L134.312 25.392C134.313 25.3988 134.314 25.4054 134.317 25.4115C134.319 25.4154 134.321 25.419 134.324 25.4224C134.322 25.4208 134.319 25.4195 134.317 25.4184C134.311 25.4161 134.306 25.415 134.3 25.415L132.891 25.4563C132.828 25.4578 132.767 25.4786 132.716 25.516L120.515 34.6407C120.5 34.6511 120.489 34.6659 120.484 34.683C120.48 34.6927 120.479 34.7029 120.479 34.7131C120.479 34.7207 120.481 34.7282 120.483 34.7356ZM125.582 40.6304L123.756 43.7837C123.748 43.7967 123.744 43.8115 123.744 43.8265C123.744 43.8416 123.748 43.8564 123.756 43.8694L125.582 47.0227C125.586 47.0293 125.59 47.0354 125.596 47.0407C125.599 47.0433 125.601 47.0457 125.604 47.0479L125.61 47.0518L125.615 47.0546L125.618 47.0564C125.634 47.0637 125.651 47.0664 125.667 47.064L140.755 44.921C140.82 44.9123 140.881 44.8828 140.928 44.8368L141.951 43.8633C141.955 43.8593 141.958 43.8545 141.96 43.8492L141.962 43.8455C141.964 43.8547 141.968 43.8634 141.974 43.8709L144.008 46.4043C144.153 46.5848 144.345 46.7218 144.563 46.8001C144.781 46.8785 145.017 46.8951 145.244 46.8482L159.784 43.8449C159.787 43.844 159.789 43.8422 159.791 43.8399C159.793 43.8376 159.794 43.8347 159.794 43.8319C159.794 43.829 159.793 43.8262 159.791 43.8239C159.789 43.8216 159.787 43.8199 159.784 43.8189L145.247 40.8156C145.02 40.7692 144.785 40.786 144.567 40.8643C144.35 40.9427 144.158 41.0794 144.013 41.2596L141.974 43.7944C141.968 43.8018 141.964 43.8106 141.962 43.8199L141.96 43.816C141.958 43.8108 141.955 43.806 141.951 43.802L140.925 42.8255C140.88 42.7827 140.822 42.7549 140.76 42.7458L125.667 40.6028C125.652 40.5992 125.636 40.5998 125.621 40.6047C125.606 40.6095 125.592 40.6184 125.582 40.6304ZM125.01 48.4111L121.484 49.351C121.469 49.3548 121.456 49.3625 121.445 49.3732C121.434 49.384 121.426 49.3974 121.423 49.4122L120.481 52.9329L120.48 52.9387L120.479 52.9442C120.479 52.9481 120.478 52.952 120.478 52.9559C120.478 52.965 120.48 52.974 120.483 52.9827C120.485 52.9902 120.489 52.9973 120.494 53.0038C120.499 53.0112 120.505 53.0177 120.512 53.0232L132.704 62.157C132.757 62.1961 132.82 62.218 132.886 62.2198L134.298 62.2534C134.305 62.2534 134.312 62.2517 134.318 62.2485C134.314 62.2556 134.312 62.2636 134.311 62.2718L133.955 65.4986C133.93 65.7286 133.969 65.9611 134.067 66.1704C134.166 66.3797 134.321 66.5578 134.514 66.6849L146.922 74.8284C146.925 74.8294 146.928 74.8297 146.93 74.8292C146.933 74.8287 146.935 74.8275 146.937 74.8258C146.939 74.824 146.94 74.8217 146.941 74.8192C146.942 74.8167 146.942 74.814 146.941 74.8115L138.788 62.4249C138.661 62.2317 138.483 62.0773 138.274 61.9788C138.065 61.8802 137.832 61.8412 137.602 61.8661L134.364 62.2183C134.354 62.2194 134.345 62.2228 134.337 62.2282C134.338 62.226 134.339 62.2237 134.34 62.2213C134.34 62.2194 134.341 62.2174 134.341 62.2154L134.341 62.2106L134.307 60.7962C134.306 60.7333 134.285 60.6723 134.248 60.6217L125.099 48.4448C125.089 48.431 125.075 48.4205 125.059 48.4145C125.043 48.4085 125.026 48.4073 125.01 48.4111ZM119.099 53.5023L115.941 51.6776C115.928 51.6701 115.913 51.6662 115.898 51.6662C115.889 51.6662 115.881 51.6674 115.873 51.6698C115.867 51.6717 115.861 51.6743 115.855 51.6776L112.697 53.5023C112.682 53.5107 112.67 53.5234 112.663 53.5387C112.655 53.554 112.653 53.5712 112.655 53.588L114.802 68.6534C114.804 68.6737 114.809 68.6935 114.816 68.7126C114.831 68.7549 114.855 68.7937 114.886 68.8264L115.861 69.8474C115.865 69.8515 115.87 69.8546 115.875 69.8569C115.88 69.8591 115.886 69.8602 115.892 69.8602C115.894 69.8602 115.896 69.86 115.899 69.8596C115.902 69.859 115.905 69.8581 115.908 69.8569C115.91 69.856 115.912 69.8549 115.914 69.8538C115.917 69.852 115.92 69.8498 115.922 69.8474L116.9 68.8233C116.912 68.8115 116.922 68.7989 116.931 68.7856C116.934 68.7813 116.937 68.777 116.939 68.7727L116.943 68.7657L116.948 68.7571L116.95 68.7531C116.966 68.723 116.977 68.6904 116.981 68.6565L119.128 53.5865C119.13 53.5782 119.13 53.5699 119.129 53.5616C119.129 53.5544 119.127 53.5472 119.125 53.5403C119.123 53.5348 119.121 53.5295 119.118 53.5246C119.113 53.5161 119.106 53.5086 119.099 53.5023ZM118.918 73.1415L115.91 87.6558C115.91 87.6591 115.909 87.6623 115.907 87.6647C115.905 87.6671 115.902 87.6687 115.898 87.6689C115.895 87.6691 115.892 87.668 115.889 87.6658C115.887 87.6637 115.886 87.6606 115.885 87.6574L112.878 73.1384C112.831 72.9117 112.848 72.6765 112.926 72.4587C113.005 72.241 113.143 72.0492 113.324 71.9046L115.861 69.8734C115.863 69.8715 115.866 69.8698 115.868 69.8683C115.872 69.8662 115.875 69.8646 115.879 69.8633C115.885 69.8612 115.892 69.8602 115.898 69.8602C115.912 69.8602 115.925 69.8648 115.936 69.8734L118.475 71.9093C118.655 72.0541 118.792 72.2457 118.87 72.4631C118.948 72.6805 118.965 72.9153 118.918 73.1415ZM111.312 52.9329L110.371 49.4122C110.367 49.3979 110.36 49.3849 110.349 49.3745C110.339 49.364 110.326 49.3564 110.311 49.3524L106.786 48.4126C106.769 48.4082 106.752 48.4088 106.736 48.4142C106.72 48.4196 106.705 48.4297 106.695 48.4432L97.5493 60.6171C97.5092 60.6695 97.4872 60.7333 97.4864 60.7992L97.4526 62.2106C97.4526 62.2137 97.453 62.2167 97.4536 62.2197L97.4545 62.2231L97.4554 62.2257C97.4563 62.2279 97.4573 62.2301 97.4585 62.2321C97.4562 62.2304 97.4538 62.2288 97.4513 62.2273C97.4486 62.2258 97.4458 62.2245 97.443 62.2234C97.4382 62.2216 97.4333 62.2203 97.4282 62.2197L94.1951 61.8646C93.9647 61.8393 93.7318 61.8781 93.5222 61.9767C93.3125 62.0753 93.1342 62.2299 93.007 62.4233L84.853 74.813L84.8521 74.8141L84.8509 74.8162L84.8504 74.8175L84.85 74.8189L84.8498 74.8201L84.8497 74.822C84.8499 74.8253 84.8513 74.8284 84.8538 74.8306C84.8562 74.8329 84.8595 74.834 84.8628 74.8339C84.8661 74.8337 84.8691 74.8323 84.8714 74.8299L97.2763 66.6895C97.4695 66.5624 97.6239 66.3845 97.7224 66.1755C97.8208 65.9664 97.8595 65.7343 97.8344 65.5047L97.4818 62.2733C97.4806 62.2635 97.4771 62.2542 97.4716 62.2461C97.4787 62.2509 97.487 62.2534 97.4956 62.2534L98.9121 62.2198C98.9751 62.2183 99.0361 62.1974 99.0869 62.1601L111.282 53.0247C111.289 53.0193 111.295 53.0129 111.3 53.0058C111.305 52.999 111.309 52.9915 111.311 52.9835C111.317 52.9671 111.317 52.9495 111.312 52.9329ZM106.214 47.0304L108.041 43.8771C108.048 43.864 108.052 43.8493 108.052 43.8342C108.052 43.8192 108.048 43.8044 108.041 43.7914L106.214 40.6381C106.205 40.6233 106.193 40.6115 106.177 40.6042C106.162 40.5968 106.145 40.5942 106.128 40.5967L91.0401 42.7398C90.9751 42.7493 90.9146 42.7787 90.8669 42.8239L89.8444 43.7975C89.8404 43.8015 89.8371 43.8062 89.8349 43.8115C89.8327 43.8167 89.8315 43.8224 89.8315 43.8281C89.8315 43.8338 89.8327 43.8394 89.8349 43.8447C89.8359 43.8471 89.8371 43.8494 89.8386 43.8516C89.8403 43.8542 89.8422 43.8566 89.8444 43.8587L90.87 44.8353C90.9156 44.8787 90.9733 44.907 91.0355 44.9165L106.128 47.0595C106.143 47.0633 106.16 47.0626 106.175 47.0574C106.19 47.0523 106.204 47.0429 106.214 47.0304ZM86.5454 46.8482L72.008 43.8449L72.0022 43.8405L72 43.8334L72.0022 43.8264L72.008 43.822L86.5485 40.8187C86.7754 40.7717 87.0108 40.7884 87.2289 40.8667C87.4469 40.9451 87.6391 41.0821 87.784 41.2626L89.8184 43.7959C89.8267 43.8067 89.8312 43.8199 89.8312 43.8334C89.8312 43.847 89.8267 43.8602 89.8184 43.8709L87.7794 46.4059C87.6343 46.5857 87.4424 46.7221 87.2247 46.8001C87.007 46.8782 86.7719 46.8948 86.5454 46.8482ZM106.786 39.2543L110.311 38.3144C110.326 38.3107 110.339 38.3032 110.35 38.2927C110.356 38.2867 110.361 38.2798 110.366 38.2723C110.368 38.2685 110.369 38.2646 110.371 38.2606L110.373 38.2547L111.314 34.734C111.318 34.7176 111.318 34.7004 111.312 34.6843C111.309 34.6742 111.303 34.6648 111.297 34.6566C111.293 34.6519 111.288 34.6476 111.283 34.6437L99.0915 25.5114C99.039 25.4714 98.975 25.4494 98.909 25.4487L97.4972 25.415C97.4915 25.4148 97.4857 25.4157 97.4804 25.4178C97.4779 25.4188 97.4755 25.42 97.4733 25.4214C97.4708 25.4231 97.4684 25.4249 97.4663 25.4271C97.4623 25.4311 97.4591 25.4359 97.457 25.4412C97.455 25.4465 97.454 25.4521 97.4542 25.4578L97.4879 26.8722C97.4894 26.9352 97.5103 26.9961 97.5477 27.0467L106.695 39.2313C106.706 39.2434 106.721 39.252 106.737 39.2561C106.74 39.2569 106.743 39.2575 106.746 39.2579C106.749 39.2584 106.753 39.2586 106.756 39.2587C106.759 39.2588 106.762 39.2588 106.765 39.2585C106.772 39.258 106.779 39.2566 106.786 39.2543ZM93.0055 25.2374L84.8531 12.8508C84.8508 12.8481 84.8497 12.8447 84.85 12.8413C84.8503 12.8378 84.8519 12.8347 84.8546 12.8324L84.8562 12.8312L84.8581 12.8302C84.86 12.8295 84.8621 12.8292 84.8641 12.8293C84.8676 12.8297 84.8708 12.8313 84.873 12.8339L97.281 20.9759C97.4746 21.103 97.6293 21.281 97.728 21.4904C97.8267 21.6997 97.8657 21.9322 97.8406 22.1622L97.4833 25.3905C97.4817 25.4041 97.4756 25.4168 97.4658 25.4265C97.4561 25.4362 97.4434 25.4424 97.4297 25.4441L94.192 25.7961C93.9619 25.8211 93.7293 25.7822 93.5199 25.6836C93.3106 25.585 93.1326 25.4306 93.0055 25.2374ZM111.999 34.3361L110.212 18.0124C110.212 17.9998 110.207 17.9877 110.198 17.9788C110.189 17.9699 110.177 17.9649 110.164 17.9649C110.159 17.9649 110.154 17.9658 110.149 17.9675C110.145 17.9689 110.141 17.9709 110.137 17.9734C110.135 17.975 110.133 17.9768 110.131 17.9788C110.122 17.9877 110.117 17.9998 110.117 18.0124L108.967 26.9136L108.966 26.9167L108.966 26.9193L108.965 26.9219L108.964 26.9244C108.963 26.9272 108.961 26.9299 108.959 26.9324C108.955 26.9378 108.949 26.942 108.943 26.9445C108.94 26.9458 108.936 26.9466 108.933 26.947C108.929 26.9473 108.926 26.9472 108.923 26.9466C108.916 26.9455 108.909 26.9425 108.904 26.938L101.868 21.3524C101.859 21.3435 101.847 21.3385 101.834 21.3385C101.821 21.3385 101.809 21.3435 101.8 21.3524L101.798 21.3552L101.796 21.3572L101.794 21.3602L101.792 21.3642C101.79 21.3665 101.789 21.369 101.789 21.3715L101.788 21.3741L101.787 21.3794L101.786 21.3837L101.786 21.3861C101.786 21.3987 101.791 21.4109 101.8 21.4198L111.907 34.3743C111.914 34.3829 111.924 34.3889 111.935 34.3916C111.946 34.3943 111.957 34.3934 111.967 34.3891C111.978 34.3848 111.986 34.3774 111.992 34.3678C111.998 34.3583 112 34.3471 111.999 34.3361ZM102.288 9.7832L105.236 3.32199C105.326 3.13895 105.466 2.98444 105.639 2.87531C105.812 2.7662 106.012 2.70673 106.216 2.7034C106.421 2.7001 106.622 2.75305 106.799 2.85651C106.975 2.95993 107.12 3.10986 107.216 3.28986L109.557 9.04999C109.636 9.24393 109.663 9.45474 109.637 9.66229L107.872 23.6485C107.867 23.6989 107.847 23.7468 107.817 23.7872C107.786 23.8275 107.745 23.8588 107.698 23.8778C107.651 23.8968 107.599 23.9027 107.549 23.8949C107.499 23.8872 107.452 23.866 107.412 23.8337L96.4101 15.0428C96.2331 14.9012 96.0954 14.7168 96.0101 14.507L93.6799 8.76987C93.6245 8.57373 93.6242 8.36618 93.6788 8.16983C93.7335 7.97351 93.8411 7.79593 93.9899 7.65649C94.1388 7.51706 94.3231 7.42111 94.5228 7.37909C94.7225 7.33707 94.93 7.35062 95.1225 7.41824L101.745 10.0036C101.847 10.0431 101.959 10.0423 102.06 10.0013C102.161 9.9603 102.243 9.88226 102.288 9.7832ZM119.908 34.3238L130.273 21.5759C130.277 21.5715 130.281 21.5662 130.283 21.5604C130.286 21.5546 130.287 21.5483 130.287 21.542C130.287 21.5357 130.286 21.5294 130.284 21.5236C130.281 21.5177 130.278 21.5123 130.273 21.5078C130.269 21.5033 130.264 21.4997 130.258 21.4972C130.252 21.4947 130.246 21.4934 130.239 21.4933C130.233 21.4932 130.227 21.4944 130.221 21.4968C130.215 21.4991 130.21 21.5026 130.205 21.507L123.06 26.9503C123.054 26.9544 123.048 26.957 123.041 26.9579C123.035 26.9587 123.028 26.9577 123.022 26.9551C123.015 26.9525 123.01 26.9482 123.006 26.9428C123.002 26.9374 122.999 26.931 122.999 26.9243L122.028 18.0002C122.028 17.9875 122.023 17.9755 122.014 17.9666C122.005 17.9577 121.993 17.9527 121.981 17.9527C121.968 17.9527 121.956 17.9577 121.947 17.9666C121.938 17.9755 121.933 17.9875 121.933 18.0002L119.818 34.2855C119.817 34.2963 119.82 34.3069 119.825 34.3161C119.827 34.3182 119.828 34.3203 119.83 34.3222C119.835 34.3284 119.842 34.3333 119.849 34.3365C119.859 34.3408 119.87 34.3418 119.881 34.3395C119.891 34.3372 119.901 34.3317 119.908 34.3238ZM130.561 10.1598L137.235 7.7106C137.429 7.64789 137.636 7.63919 137.834 7.68546C138.032 7.73175 138.213 7.83121 138.359 7.97311C138.504 8.11499 138.608 8.29391 138.659 8.49048C138.71 8.68704 138.706 8.89374 138.647 9.08826L136.195 14.8009C136.111 14.9933 135.981 15.1614 135.814 15.2892L124.614 23.872C124.574 23.9045 124.527 23.9256 124.476 23.933C124.425 23.9403 124.373 23.9336 124.326 23.9135C124.278 23.8935 124.237 23.861 124.207 23.8194C124.177 23.7778 124.159 23.7288 124.154 23.6776L122.677 9.68521C122.652 9.45993 122.687 9.23221 122.776 9.02396L125.229 3.33578C125.33 3.15836 125.477 3.01196 125.656 2.91257C125.834 2.8132 126.036 2.76462 126.24 2.77219C126.444 2.77979 126.642 2.8432 126.813 2.95557C126.983 3.0679 127.119 3.22485 127.207 3.40927L130.024 9.92862C130.067 10.0281 130.147 10.1075 130.247 10.1505C130.346 10.1934 130.459 10.1967 130.561 10.1598ZM125.494 39.9844L141.86 38.3787C141.873 38.3787 141.885 38.3737 141.894 38.3647C141.903 38.3559 141.908 38.3438 141.908 38.3312C141.908 38.3186 141.903 38.3066 141.894 38.2977C141.885 38.2888 141.873 38.2838 141.86 38.2838L132.96 37.0393L132.956 37.0385C132.953 37.0379 132.95 37.0369 132.947 37.0356C132.945 37.0345 132.943 37.0331 132.941 37.0316C132.939 37.0296 132.936 37.0274 132.934 37.025C132.932 37.022 132.93 37.0187 132.929 37.0152C132.926 37.0088 132.926 37.0018 132.927 36.995C132.928 36.9882 132.931 36.9818 132.935 36.9766L138.607 30.0117C138.617 30.003 138.622 29.991 138.622 29.9784C138.622 29.975 138.622 29.9716 138.621 29.9683L138.62 29.9644C138.62 29.9626 138.619 29.9608 138.618 29.9591C138.616 29.9537 138.613 29.9487 138.609 29.9444C138.6 29.9352 138.588 29.93 138.576 29.9297C138.563 29.9294 138.551 29.9341 138.541 29.9428L125.457 39.8926C125.449 39.8996 125.443 39.9091 125.44 39.9198C125.439 39.9229 125.439 39.9261 125.439 39.9292C125.439 39.9333 125.439 39.9374 125.439 39.9414L125.441 39.9466C125.441 39.9484 125.442 39.9501 125.442 39.9518C125.447 39.962 125.454 39.9706 125.463 39.9765C125.468 39.9798 125.474 39.9821 125.48 39.9834C125.485 39.9844 125.489 39.9847 125.494 39.9844ZM150.189 30.5551L156.628 33.5692C156.811 33.6613 156.966 33.8022 157.074 33.9765C157.182 34.1507 157.24 34.3515 157.242 34.5565C157.243 34.7616 157.187 34.9631 157.081 35.1386C156.975 35.3142 156.822 35.4571 156.64 35.5514L150.845 37.8246C150.651 37.9013 150.439 37.9266 150.232 37.898L136.245 35.9831C136.195 35.9766 136.148 35.9569 136.108 35.9259C136.068 35.8949 136.037 35.8538 136.019 35.8069C136 35.7599 135.995 35.709 136.003 35.6592C136.006 35.6408 136.01 35.6228 136.017 35.6055C136.023 35.5897 136.03 35.5744 136.039 35.5599C136.042 35.5546 136.045 35.5494 136.049 35.5443C136.054 35.5373 136.059 35.5305 136.064 35.5239L144.988 24.6343C145.131 24.4586 145.318 24.3227 145.529 24.2394L151.299 21.9754C151.496 21.9223 151.704 21.9241 151.9 21.9808C152.096 22.0374 152.272 22.1467 152.411 22.2968C152.549 22.4467 152.643 22.6317 152.683 22.8315C152.723 23.0312 152.707 23.2382 152.637 23.4296L149.976 30.0117C149.935 30.1123 149.934 30.2248 149.974 30.3259C150.014 30.427 150.091 30.509 150.189 30.5551ZM125.437 47.834L138.089 58.3225C138.098 58.3317 138.11 58.337 138.123 58.3372C138.135 58.3375 138.148 58.3328 138.157 58.324C138.166 58.3153 138.171 58.3033 138.171 58.2907C138.172 58.2834 138.17 58.2764 138.167 58.2699C138.165 58.2651 138.162 58.2606 138.158 58.2567L132.785 51.0623C132.783 51.0598 132.782 51.057 132.78 51.0541L132.78 51.0519L132.779 51.0493C132.778 51.0475 132.778 51.0455 132.778 51.0435C132.777 51.0367 132.778 51.0298 132.781 51.0235C132.784 51.0172 132.788 51.0119 132.794 51.0079C132.799 51.004 132.806 51.0016 132.813 51.001L141.759 50.1301C141.772 50.1301 141.784 50.1251 141.793 50.1162C141.802 50.1073 141.807 50.0952 141.807 50.0826C141.807 50.07 141.802 50.058 141.793 50.0491C141.79 50.0464 141.787 50.0441 141.784 50.0421C141.782 50.0407 141.779 50.0395 141.777 50.0385C141.771 50.0363 141.765 50.0352 141.759 50.0352L125.474 47.7391C125.462 47.7372 125.45 47.7394 125.44 47.7454C125.435 47.7483 125.43 47.7521 125.427 47.7566C125.423 47.761 125.42 47.7661 125.417 47.7717C125.415 47.7784 125.414 47.7854 125.414 47.7924C125.414 47.7971 125.415 47.8018 125.416 47.8064C125.42 47.8177 125.427 47.8274 125.437 47.834ZM149.518 58.7357L151.899 65.4265C151.96 65.6208 151.967 65.8283 151.919 66.0263C151.871 66.2243 151.769 66.4052 151.625 66.5494C151.48 66.6936 151.299 66.7955 151.101 66.8439C150.903 66.8923 150.695 66.8855 150.5 66.8241L144.807 64.3091C144.615 64.2245 144.448 64.0922 144.322 63.9249L135.85 52.6481C135.819 52.608 135.8 52.5606 135.795 52.5108C135.789 52.4609 135.797 52.4104 135.817 52.3646C135.828 52.3387 135.844 52.3148 135.862 52.2937C135.876 52.2773 135.892 52.2626 135.91 52.2498C135.93 52.2355 135.952 52.224 135.974 52.2153C135.987 52.2104 136.001 52.2064 136.015 52.2033C136.02 52.2021 136.026 52.201 136.032 52.2L136.038 52.1993L136.049 52.198L150.077 50.8755C150.303 50.854 150.531 50.8909 150.738 50.9826L156.41 53.4869C156.587 53.5894 156.731 53.7383 156.829 53.9173C156.926 54.0964 156.973 54.2987 156.963 54.5023C156.953 54.7058 156.888 54.9028 156.773 55.0717C156.659 55.2406 156.501 55.3749 156.315 55.46L149.755 58.2015C149.655 58.2431 149.574 58.3218 149.53 58.4212C149.485 58.5207 149.481 58.6333 149.518 58.7357ZM119.81 53.4119L121.24 69.7708C121.24 69.7834 121.245 69.7955 121.254 69.8044L121.256 69.8066C121.258 69.8083 121.26 69.8098 121.263 69.8111C121.264 69.8121 121.266 69.813 121.268 69.8138L121.272 69.8155C121.274 69.8163 121.276 69.8169 121.278 69.8173C121.281 69.8179 121.285 69.8182 121.288 69.8182C121.3 69.8182 121.312 69.8133 121.321 69.8044C121.33 69.7955 121.335 69.7834 121.335 69.7708L122.678 60.8926C122.679 60.8857 122.682 60.8793 122.686 60.8738L122.688 60.8716C122.689 60.8703 122.69 60.869 122.692 60.8679C122.695 60.8653 122.698 60.8631 122.702 60.8616C122.709 60.8591 122.716 60.8584 122.722 60.8595C122.729 60.8607 122.736 60.8636 122.741 60.8681L129.655 66.6068C129.664 66.6159 129.676 66.6212 129.688 66.6215C129.701 66.6218 129.713 66.6171 129.722 66.6083C129.731 66.5996 129.737 66.5876 129.737 66.575C129.737 66.5623 129.732 66.5501 129.724 66.541L119.903 53.3691C119.9 53.364 119.896 53.3596 119.891 53.3561C119.886 53.3524 119.88 53.3497 119.874 53.348C119.862 53.3446 119.85 53.3456 119.838 53.3508C119.827 53.356 119.818 53.365 119.813 53.3762C119.808 53.3874 119.807 53.4 119.81 53.4119ZM128.986 78.1714L125.897 84.5668C125.802 84.747 125.66 84.8979 125.485 85.0027C125.31 85.1076 125.11 85.1626 124.906 85.1617C124.702 85.1607 124.502 85.1039 124.328 84.9973C124.154 84.8909 124.013 84.7388 123.92 84.5576L121.706 78.7408C121.632 78.5458 121.609 78.3351 121.639 78.1286L123.71 64.1852C123.717 64.1357 123.738 64.0891 123.769 64.0501C123.773 64.045 123.778 64.04 123.782 64.0352L123.788 64.0292C123.793 64.0241 123.798 64.0192 123.803 64.0145C123.816 64.0032 123.83 63.9932 123.845 63.9845C123.849 63.9818 123.854 63.9793 123.859 63.9769C123.863 63.9746 123.868 63.9724 123.872 63.9704C123.878 63.9679 123.883 63.9656 123.889 63.9635C123.935 63.9457 123.986 63.9407 124.036 63.949C124.085 63.9573 124.131 63.9786 124.17 64.0107L134.977 73.042C135.151 73.1876 135.285 73.3751 135.367 73.5869L137.57 79.373C137.621 79.5703 137.616 79.7778 137.557 79.9728C137.498 80.1678 137.387 80.3429 137.235 80.479C137.083 80.6151 136.897 80.707 136.696 80.7447C136.496 80.7823 136.289 80.7643 136.098 80.6925L129.534 77.9633C129.433 77.9215 129.32 77.9199 129.219 77.9586C129.117 77.9973 129.034 78.0735 128.986 78.1714ZM111.892 53.3722L101.25 65.8905C101.241 65.899 101.235 65.9109 101.234 65.9235C101.234 65.9361 101.238 65.9485 101.247 65.9578C101.255 65.9672 101.267 65.9727 101.28 65.9733C101.293 65.9738 101.305 65.9694 101.314 65.9608L108.578 60.6753C108.58 60.6732 108.583 60.6714 108.587 60.6702C108.59 60.6689 108.593 60.6682 108.596 60.6678C108.603 60.667 108.61 60.6681 108.616 60.6709C108.618 60.6717 108.62 60.6727 108.622 60.6738C108.623 60.6747 108.624 60.6756 108.625 60.6766C108.628 60.6787 108.63 60.6811 108.632 60.6837C108.633 60.6852 108.634 60.6867 108.635 60.6883C108.637 60.6928 108.639 60.6978 108.639 60.7028L109.415 69.6453C109.415 69.6579 109.42 69.67 109.429 69.6789C109.437 69.6878 109.45 69.6927 109.462 69.6927C109.475 69.6927 109.487 69.6878 109.496 69.6789C109.5 69.6745 109.503 69.6694 109.506 69.6639C109.507 69.6607 109.508 69.6573 109.509 69.6538C109.509 69.651 109.51 69.6482 109.51 69.6453L111.982 53.4104C111.983 53.4073 111.982 53.4041 111.982 53.401C111.982 53.3991 111.981 53.3972 111.981 53.3954C111.98 53.39 111.978 53.3847 111.975 53.3799C111.969 53.3708 111.961 53.3636 111.951 53.3594C111.947 53.3578 111.943 53.3566 111.939 53.356C111.937 53.3557 111.935 53.3554 111.933 53.3553C111.928 53.3551 111.924 53.3555 111.919 53.3565C111.909 53.3588 111.899 53.3643 111.892 53.3722ZM100.712 77.3035L93.985 79.6073C93.7908 79.6658 93.5841 79.6703 93.3875 79.6202C93.1909 79.5701 93.0117 79.4674 92.8692 79.3232C92.7268 79.1789 92.6265 78.9985 92.5792 78.8015C92.5319 78.6044 92.5393 78.3982 92.6007 78.2051L95.1807 72.5414C95.2679 72.351 95.4025 72.186 95.5716 72.0623L106.957 63.726C106.998 63.696 107.045 63.6774 107.095 63.6721C107.145 63.6668 107.196 63.675 107.242 63.6958C107.288 63.7165 107.327 63.7491 107.356 63.7903C107.385 63.8314 107.402 63.8795 107.406 63.9296L108.578 77.951C108.597 78.1772 108.557 78.4044 108.463 78.6107L105.893 84.2438C105.789 84.4192 105.638 84.5624 105.458 84.6581C105.277 84.7536 105.074 84.7979 104.87 84.7859C104.666 84.7738 104.469 84.7061 104.301 84.59C104.133 84.4739 104 84.3139 103.917 84.1275L101.244 77.5453C101.203 77.4447 101.125 77.3635 101.026 77.3185C100.927 77.2735 100.815 77.2682 100.712 77.3035ZM106.241 47.8049L89.8383 49.054C89.8257 49.054 89.8136 49.059 89.8047 49.0679C89.7958 49.0768 89.7908 49.0889 89.7908 49.1014C89.7908 49.114 89.7958 49.1261 89.8047 49.135C89.8085 49.1388 89.813 49.1419 89.8177 49.1442C89.8241 49.1473 89.8311 49.1489 89.8383 49.1489L98.7097 50.5878C98.7128 50.5883 98.7159 50.5892 98.7187 50.5904C98.7221 50.5918 98.7252 50.5937 98.7281 50.596L98.7314 50.5992C98.7324 50.6001 98.7333 50.6012 98.7341 50.6022L98.7358 50.6046C98.7364 50.6056 98.737 50.6066 98.7375 50.6076C98.7384 50.6092 98.7391 50.6107 98.7397 50.6124C98.7409 50.6159 98.7417 50.6196 98.7419 50.6233C98.7421 50.6263 98.7419 50.6294 98.7413 50.6324C98.7401 50.6391 98.7372 50.6454 98.7327 50.6505L92.9074 57.4898C92.898 57.4984 92.8924 57.5102 92.8918 57.5229C92.8913 57.5355 92.8957 57.5478 92.9043 57.5572C92.9128 57.5665 92.9247 57.5721 92.9373 57.5727C92.95 57.5732 92.9624 57.5688 92.9717 57.5602L106.27 47.8983C106.279 47.8918 106.285 47.8829 106.289 47.8727C106.29 47.8669 106.291 47.8608 106.291 47.8548C106.291 47.8503 106.29 47.8458 106.289 47.8414C106.285 47.8312 106.279 47.8223 106.271 47.8157C106.267 47.8131 106.264 47.8109 106.26 47.8092C106.257 47.808 106.254 47.8071 106.251 47.8064C106.248 47.8056 106.245 47.8051 106.241 47.8049ZM81.3394 56.6908L74.9682 53.5359C74.7875 53.439 74.6371 53.294 74.5336 53.1171C74.4301 52.9402 74.3775 52.7383 74.3817 52.5334C74.3858 52.3286 74.4465 52.1289 74.557 51.9563C74.6675 51.7837 74.8236 51.6449 75.0081 51.5552L80.8519 49.4122C81.0479 49.3405 81.259 49.3199 81.4651 49.3525L95.4062 51.5721C95.4553 51.5801 95.5014 51.601 95.5399 51.6327C95.5783 51.6643 95.6077 51.7056 95.625 51.7522C95.6327 51.773 95.6379 51.7945 95.6405 51.8163C95.6438 51.8435 95.6431 51.8711 95.6383 51.8983C95.6298 51.9473 95.6083 51.9932 95.5763 52.0312L86.4167 62.7234C86.2695 62.8953 86.0804 63.0266 85.8678 63.1046L80.0424 65.2476C79.8443 65.2964 79.6366 65.29 79.4419 65.2291C79.2472 65.1682 79.073 65.055 78.9383 64.902C78.8035 64.749 78.7135 64.562 78.6779 64.3613C78.6423 64.1607 78.6625 63.9542 78.7363 63.7643L81.5417 57.2388C81.5844 57.1389 81.5872 57.0265 81.5496 56.9247C81.512 56.8228 81.4368 56.7391 81.3394 56.6908ZM106.361 39.8666L93.9436 29.104C93.9351 29.0947 93.9232 29.0891 93.9106 29.0886C93.8979 29.088 93.8856 29.0924 93.8762 29.101C93.8669 29.1095 93.8613 29.1214 93.8607 29.134C93.8601 29.1466 93.8646 29.159 93.8731 29.1683L99.0853 36.4775C99.0895 36.4831 99.0921 36.4897 99.0928 36.4967C99.0935 36.5036 99.0923 36.5107 99.0893 36.5169C99.0863 36.5233 99.0816 36.5286 99.0758 36.5325C99.07 36.5363 99.0631 36.5385 99.0562 36.5388L90.0912 37.2153C90.0853 37.2153 90.0795 37.2164 90.0742 37.2185C90.068 37.2208 90.0623 37.2245 90.0576 37.2292C90.0487 37.2382 90.0437 37.2502 90.0437 37.2628C90.0437 37.2754 90.0487 37.2875 90.0576 37.2964C90.0665 37.3053 90.0786 37.3102 90.0912 37.3102L106.323 39.9554C106.333 39.9556 106.343 39.9528 106.352 39.9472C106.361 39.9416 106.368 39.9335 106.372 39.9239C106.376 39.9143 106.377 39.9038 106.375 39.8936C106.373 39.8834 106.368 39.874 106.361 39.8666ZM82.5244 28.4366L80.2907 21.7014C80.2328 21.5057 80.23 21.2979 80.2824 21.1006C80.3348 20.9034 80.4406 20.7243 80.5881 20.5831C80.7356 20.4418 80.9192 20.3438 81.1187 20.2997C81.3182 20.2555 81.5261 20.2671 81.7195 20.3329L87.3563 22.9719C87.5459 23.0609 87.7095 23.1968 87.8315 23.3669L96.0545 34.8259C96.0838 34.8665 96.1018 34.9143 96.1065 34.9641C96.1111 35.014 96.1024 35.0643 96.0811 35.1096C96.0599 35.1551 96.0269 35.1939 95.9856 35.2224C95.9443 35.2508 95.8961 35.2677 95.8461 35.2713L81.7915 36.2877C81.5649 36.304 81.3379 36.2618 81.1324 36.1653L75.5186 33.537C75.3446 33.4305 75.2032 33.2785 75.1098 33.0973C75.0165 32.9162 74.9748 32.7129 74.9892 32.5097C75.0035 32.3065 75.0736 32.1111 75.1915 31.9449C75.3095 31.7786 75.4708 31.6479 75.6581 31.567L82.276 28.9647C82.3772 28.9252 82.4593 28.8484 82.5055 28.7501C82.5517 28.6519 82.5585 28.5397 82.5244 28.4366Z" fill="#CFA565"/>
</svg>
