<?xml version="1.0" encoding="utf-8"?>
<!-- Generator: Adobe Illustrator 27.8.0, SVG Export Plug-In . SVG Version: 6.00 Build 0)  -->
<svg version="1.1" id="Layer_1" xmlns="http://www.w3.org/2000/svg" xmlns:xlink="http://www.w3.org/1999/xlink" x="0px" y="0px"
	 viewBox="0 0 118.4 16.4" style="enable-background:new 0 0 118.4 16.4;" xml:space="preserve">
<style type="text/css">
	.st0{fill:#4C0C4B;}
</style>
<g>
	<path class="st0" d="M1.2,15.1C3,15.1,3.4,14.8,3.4,14V2.8c0-0.8-0.4-1.1-2.2-1.2V1.1h6.5c5.3,0,8,2.9,8,7c0,3.9-2.3,7.5-7.7,7.5
		H1.2C1.2,15.7,1.2,15.1,1.2,15.1z M7.4,15c4.1,0,5.3-1.9,5.3-6.7c0-4.9-1.8-6.5-5.4-6.5H6v13.3L7.4,15L7.4,15z"/>
	<path class="st0" d="M17,15.2c1.2,0,1.6-0.2,1.6-0.8V7.5c0-0.6-0.3-1-1.6-1.1V5.9l3.8-0.1v8.7c0,0.6,0.3,0.8,1.6,0.8v0.5H17
		C17,15.7,17,15.2,17,15.2z M18.2,2.3c0-0.9,0.6-1.5,1.4-1.5c0.9,0,1.4,0.6,1.4,1.4c0,0.9-0.6,1.5-1.4,1.5
		C18.7,3.7,18.2,3.2,18.2,2.3z"/>
	<path class="st0" d="M23.4,13.4c0-0.9,0.4-1.7,1.3-2.2c1.6-0.9,4.1-1,4.6-1.3V8.8c0-1.8-0.5-2.5-1.8-2.5c-0.6,0-1.2,0.2-1.5,0.5
		c0.3,0.3,0.4,0.7,0.4,1.1c0,0.7-0.5,1.3-1.3,1.3c-0.8,0-1.2-0.6-1.2-1.3c0-1.3,1.6-2.2,4-2.2c2.4,0,3.7,1,3.7,3.2v4.8
		c0,1,0.3,1.4,1.6,1l0.1,0.4c-0.8,0.4-1.3,0.6-2.1,0.6c-1.2,0-1.6-0.5-1.7-1.6h-0.1c-0.8,0.9-1.9,1.7-3.2,1.7
		C24.2,15.8,23.4,14.7,23.4,13.4z M29.3,13.5v-3c-2.8,0.5-3.5,1.1-3.5,2.5c0,1,0.5,1.7,1.6,1.7C28.2,14.7,28.9,14.1,29.3,13.5z"/>
	<path class="st0" d="M40.4,15.2c1,0,1.2-0.2,1.2-0.8V9.3c0-1.6-0.6-2.3-1.8-2.3c-0.9,0-1.5,0.6-2.1,1.3v6.1c0,0.6,0.1,0.8,1.1,0.8
		v0.5h-4.9v-0.5c1.2,0,1.6-0.2,1.6-0.8V7.5c0-0.6-0.3-1-1.6-1.1V5.9l3.8-0.1v1.9c1-1.2,2.2-2,3.6-2c1.3,0,2.2,0.7,2.4,2.1
		c1-1.2,2.4-2.1,3.7-2.1c1.6,0,2.5,1,2.5,3v5.7c0,0.6,0.3,0.8,1.6,0.8v0.5h-5v-0.5c1,0,1.2-0.2,1.2-0.8V9.3C47.7,7.7,47.2,7,46,7
		c-0.7,0-1.5,0.5-2.2,1.3c0,0.1,0,0.3,0,0.4v5.7c0,0.6,0.2,0.8,1.3,0.8v0.5h-4.8L40.4,15.2L40.4,15.2z"/>
	<path class="st0" d="M52.3,10.8c0-3,2.1-5.2,5-5.2c3,0,5,2,5,5.1c0,3.1-2.1,5.2-5,5.2C54.3,15.9,52.3,13.8,52.3,10.8z M59.8,10.7
		c0-3.2-1-4.5-2.6-4.5c-1.6,0-2.4,1.4-2.4,4.5c0,3.2,1,4.6,2.6,4.6C59,15.3,59.8,13.9,59.8,10.7z"/>
	<path class="st0" d="M63.4,15.2c1.2,0,1.6-0.2,1.6-0.8V7.5c0-0.6-0.3-1-1.6-1.1V5.9l3.8-0.1v1.9c1-1.2,2.3-2,3.8-2
		c1.7,0,2.6,1,2.6,3v5.7c0,0.6,0.3,0.8,1.5,0.8v0.5h-5.1v-0.5c1,0,1.3-0.2,1.3-0.8V9.3c0-1.6-0.5-2.3-1.8-2.3
		c-0.9,0-1.7,0.6-2.3,1.3v6.1c0,0.6,0.3,0.8,1.2,0.8v0.5h-5L63.4,15.2L63.4,15.2z"/>
	<path class="st0" d="M75.8,10.9c0-2.9,1.9-5.3,4.9-5.3c1,0,1.6,0.2,2.2,0.5V2.2c0-0.7-0.3-1-1.7-1.1V0.6l3.9-0.1v13.9
		c0,0.6,0.3,0.8,1.5,0.9v0.5L83,15.8v-1.2c-0.7,0.7-1.7,1.3-2.9,1.3C77.4,15.9,75.8,13.7,75.8,10.9z M82.9,14V7.4
		c-0.5-0.7-1.1-1.1-2.1-1.1c-1.5,0-2.6,1.7-2.6,4.5c0,2.3,1,4,2.8,4C81.8,14.8,82.4,14.5,82.9,14z"/>
	<path class="st0" d="M98.2,4.1c1-1.5,0.8-2.3-0.9-2.4V1.1h5.3v0.5c-1.6,0.2-2.3,0.8-3.8,2.9l-2.3,3.2l3.9,5.9c0.7,1,1,1.3,2.7,1.6
		v0.5h-6.8v-0.5c1.9-0.1,1.9-0.6,1.3-1.6l-2.7-4.3l-2.4,3.4c-1,1.5-0.8,2.3,0.9,2.4v0.5H88v-0.5c1.5-0.2,2.2-0.7,3.8-2.9l2.6-3.6
		l-3.6-5.4c-0.7-1-1.1-1.4-2.7-1.6V1.1h6.8v0.5c-1.8,0.1-1.9,0.7-1.3,1.6l2.4,3.8L98.2,4.1z"/>
	<path class="st0" d="M104.3,15.1c1.8-0.1,2.2-0.4,2.2-1.2V2.8c0-0.8-0.4-1.1-2.2-1.2V1.1h12.1l0.1,4.6l-0.5,0
		c-1-2.7-1.8-3.9-4.3-3.9h-2.6v6.1h1.1c1.6,0,2.4-0.4,3-2.6h0.5v5.9h-0.5c-0.6-2.2-1.3-2.6-3-2.6h-1.1v6.5h2.5c3,0,3.9-1.4,5-4.3
		l0.6,0l-0.1,4.9h-12.7V15.1z"/>
</g>
</svg>
