<?xml version="1.0" encoding="utf-8"?>
<!-- Generator: Adobe Illustrator 27.8.0, SVG Export Plug-In . SVG Version: 6.00 Build 0)  -->
<svg version="1.1" id="Layer_1" xmlns="http://www.w3.org/2000/svg" xmlns:xlink="http://www.w3.org/1999/xlink" x="0px" y="0px"
	 viewBox="0 0 109.33 15.11" style="enable-background:new 0 0 109.33 15.11;" xml:space="preserve">
<style type="text/css">
	.st0{fill:#4C0C4B;}
</style>
<g>
	<path class="st0" d="M0.45,14.07c1.69-0.06,2.09-0.36,2.09-1.08V2.55c0-0.72-0.4-1.02-2.09-1.08v-0.5h6.04
		c4.98,0,7.45,2.73,7.45,6.57c0,3.67-2.11,7.05-7.19,7.05h-6.3V14.07z M6.29,13.97c3.86,0,5-1.73,5-6.28c0-4.62-1.69-6.12-5.06-6.12
		h-1.3v12.41H6.29z"/>
	<path class="st0" d="M15.21,14.11c1.16-0.02,1.47-0.18,1.47-0.74V6.88c0-0.6-0.3-0.98-1.47-1V5.42l3.57-0.14v8.09
		c0,0.56,0.24,0.72,1.45,0.74v0.46h-5.02V14.11z M16.33,2.08c0-0.8,0.54-1.39,1.32-1.39c0.8,0,1.32,0.54,1.32,1.35
		c0,0.8-0.52,1.37-1.32,1.37C16.87,3.41,16.33,2.91,16.33,2.08z"/>
	<path class="st0" d="M21.23,12.48c0-0.8,0.38-1.61,1.22-2.07c1.49-0.82,3.83-0.98,4.3-1.22v-1.1c0-1.67-0.5-2.31-1.71-2.31
		c-0.6,0-1.08,0.16-1.41,0.48c0.24,0.32,0.38,0.66,0.38,1.02c0,0.7-0.44,1.2-1.22,1.2c-0.72,0-1.16-0.52-1.16-1.18
		c0-1.2,1.51-2.09,3.78-2.09c2.25,0,3.43,0.96,3.43,3.01v4.5c0,0.98,0.28,1.31,1.49,0.98l0.12,0.36c-0.72,0.38-1.26,0.6-1.97,0.6
		c-1.14,0-1.49-0.46-1.63-1.51h-0.08c-0.78,0.86-1.77,1.55-2.97,1.55C22.01,14.71,21.23,13.61,21.23,12.48z M26.75,12.54V9.73
		c-2.61,0.5-3.25,1-3.25,2.33c0,0.92,0.46,1.57,1.47,1.57C25.69,13.63,26.35,13.11,26.75,12.54z"/>
	<path class="st0" d="M37.13,14.11c0.92-0.02,1.12-0.18,1.12-0.74V8.59c0-1.49-0.52-2.15-1.65-2.15c-0.84,0-1.43,0.52-1.97,1.22v5.7
		c0,0.56,0.14,0.72,1.06,0.74v0.46h-4.62v-0.46c1.16-0.02,1.45-0.18,1.45-0.74V6.88c0-0.6-0.28-0.98-1.45-1V5.42l3.51-0.14v1.81
		c0.94-1.1,2.05-1.87,3.37-1.87c1.24,0,2.05,0.68,2.29,1.93c0.98-1.14,2.21-1.93,3.47-1.93c1.53,0,2.35,0.98,2.35,2.83v5.32
		c0,0.56,0.28,0.72,1.45,0.74v0.46h-4.64v-0.46c0.92-0.02,1.08-0.18,1.08-0.74V8.59c0-1.49-0.46-2.15-1.59-2.15
		c-0.64,0-1.39,0.44-2.05,1.22c0.02,0.14,0.02,0.24,0.02,0.34v5.36c0,0.56,0.22,0.72,1.25,0.74v0.46h-4.48V14.11z"/>
	<path class="st0" d="M48.23,9.97c0-2.85,1.97-4.82,4.66-4.82c2.79,0,4.66,1.89,4.66,4.74c0,2.87-1.97,4.84-4.66,4.84
		C50.08,14.73,48.23,12.85,48.23,9.97z M55.24,9.94c0-2.95-0.9-4.24-2.45-4.24c-1.51,0-2.25,1.29-2.25,4.24
		c0,2.97,0.9,4.26,2.43,4.26C54.48,14.19,55.24,12.91,55.24,9.94z"/>
	<path class="st0" d="M58.61,14.11c1.16-0.02,1.45-0.18,1.45-0.74V6.88c0-0.6-0.28-0.98-1.45-1V5.42l3.51-0.14v1.81
		c0.96-1.1,2.19-1.87,3.51-1.87c1.55,0,2.41,0.98,2.41,2.83v5.32c0,0.56,0.26,0.72,1.43,0.74v0.46h-4.74v-0.46
		c0.92-0.02,1.21-0.18,1.21-0.74v-4.8c0-1.51-0.5-2.13-1.67-2.13c-0.84,0-1.57,0.52-2.11,1.22v5.7c0,0.56,0.26,0.72,1.16,0.74v0.46
		h-4.72V14.11z"/>
	<path class="st0" d="M70.2,10.1c0-2.75,1.79-4.94,4.58-4.94c0.94,0,1.51,0.2,2.07,0.48V1.96c0-0.64-0.26-0.96-1.57-1V0.5l3.67-0.12
		v12.95c0,0.52,0.28,0.78,1.43,0.8v0.44l-3.49,0.08v-1.1c-0.68,0.7-1.55,1.19-2.71,1.19C71.66,14.73,70.2,12.73,70.2,10.1z
		 M76.84,12.99v-6.2c-0.44-0.64-1-1.04-1.93-1.04c-1.43,0-2.43,1.55-2.43,4.22c0,2.17,0.94,3.77,2.61,3.77
		C75.84,13.73,76.36,13.43,76.84,12.99z"/>
	<path class="st0" d="M91.16,3.73c0.98-1.39,0.76-2.15-0.84-2.29V0.96h5v0.48c-1.45,0.22-2.11,0.76-3.57,2.71l-2.19,2.97l3.67,5.5
		c0.66,0.96,0.94,1.24,2.49,1.47v0.48h-6.34v-0.48c1.73-0.1,1.79-0.58,1.22-1.49l-2.53-4l-2.29,3.21c-0.98,1.39-0.74,2.13,0.86,2.27
		v0.48H81.6v-0.48c1.43-0.22,2.05-0.62,3.59-2.71l2.45-3.33l-3.37-5.08C83.63,2,83.25,1.68,81.7,1.44V0.96h6.36v0.48
		c-1.65,0.06-1.75,0.62-1.18,1.53l2.27,3.59L91.16,3.73z"/>
	<path class="st0" d="M96.86,14.07c1.69-0.06,2.09-0.36,2.09-1.08V2.55c0-0.72-0.4-1.02-2.09-1.08v-0.5h11.34l0.06,4.28l-0.5,0.02
		c-0.96-2.55-1.65-3.69-4-3.69h-2.43v5.68h1c1.53,0,2.23-0.38,2.79-2.45h0.46v5.52h-0.46c-0.56-2.07-1.26-2.47-2.79-2.47h-1v6.12
		h2.37c2.77,0,3.66-1.29,4.66-4.02l0.52,0.02l-0.12,4.6H96.86V14.07z"/>
</g>
</svg>
