<?xml version="1.0" encoding="UTF-8"?>
<svg id="Layer_2" data-name="Layer 2" xmlns="http://www.w3.org/2000/svg" viewBox="0 0 19.31 19.3">
  <defs>
    <style>
      .cls-1 {
        fill: #939393;
        stroke-width: 0px;
      }
    </style>
  </defs>
  <g id="Layer_1-2" data-name="Layer 1">
    <g id="Line">
      <path class="cls-1" d="m9.65,3.52c-3.39,0-6.14,2.75-6.14,6.14s2.75,6.14,6.14,6.14,6.14-2.75,6.14-6.14-2.75-6.14-6.14-6.14Zm0,11.4c-2.9,0-5.26-2.36-5.26-5.26s2.36-5.26,5.26-5.26,5.26,2.36,5.26,5.26-2.36,5.26-5.26,5.26Z"/>
      <path class="cls-1" d="m11.97,7.59l-3.2,3.2-1.44-1.44c-.17-.17-.45-.17-.62,0s-.17.45,0,.62l1.75,1.75c.09.09.2.13.31.13s.22-.04.31-.13l3.51-3.51c.17-.17.17-.45,0-.62s-.45-.17-.62,0h0Z"/>
      <path class="cls-1" d="m18.36,8.23c-.18-.13-.24-.4-.12-.59.43-.68,1.05-2.11-1.09-2.64-.22-.05-.38-.28-.33-.5.21-.96-.08-2.36-2.02-2.02-.22.04-.46-.11-.5-.33-.15-.74-.77-2.23-2.64-1.09-.19.12-.5.05-.59-.12-.29-.55-1.56-1.81-2.85,0-.13.18-.43.23-.59.12-.85-.61-2.22-.76-2.64,1.09-.05.21-.27.38-.5.33-.74-.14-2.37-.09-2.02,2.02.04.22-.11.47-.33.5-.87.13-2.2.82-1.09,2.64.12.19.08.49-.12.59-.77.39-1.65,1.77,0,2.86.19.12.23.39.12.58-1.11,1.81.23,2.51,1.09,2.64.22.03.37.28.33.5-.36,2.11,1.27,2.16,2.02,2.02.22-.04.45.12.5.33.41,1.85,1.79,1.7,2.64,1.09.16-.11.46-.07.59.12,1.3,1.81,2.56.55,2.85,0,.09-.17.4-.23.59-.12,1.87,1.14,2.49-.35,2.64-1.09.04-.22.28-.37.5-.33,1.94.34,2.22-1.06,2.02-2.02-.05-.22.12-.45.33-.5,2.14-.52,1.52-1.96,1.09-2.64-.12-.19-.07-.46.12-.59.57-.4,1.81-1.51,0-2.85h0Zm-.63,4.37c.15.24.06.57-.28.68-.62.21-1.77.37-1.46,2.19.06.35-.13.55-.52.52-.6-.05-1.84-.29-2.19,1.46-.07.35-.41.42-.68.28-1.18-.6-1.65-.67-2.58.51-.18.23-.55.22-.74,0-.5-.57-1.06-1.44-2.58-.51-.26.16-.56.04-.68-.28-.3-.83-.39-1.72-2.19-1.46-.28.04-.57-.15-.52-.52.09-.71.2-1.86-1.46-2.19-.26-.05-.46-.39-.28-.68.67-1.09.57-1.77-.52-2.59-.12-.09-.32-.49,0-.73,1.07-.76,1.18-1.49.51-2.58-.18-.29.03-.63.28-.68,1.67-.33,1.56-1.48,1.46-2.19-.05-.37.24-.56.52-.52,1.8.26,1.89-.63,2.19-1.46.12-.32.42-.44.68-.28,1.52.93,2.08.06,2.58-.51.19-.22.56-.23.74,0,.93,1.19,1.4,1.11,2.58.51.27-.14.61-.06.68.28.35,1.75,1.59,1.51,2.19,1.46.4-.03.58.18.52.52-.31,1.82.84,1.98,1.46,2.19.34.11.43.44.28.68-.98,1.57.06,2.19.51,2.58.18.15.28.52.04.7-.55.38-1.53,1.04-.55,2.61h0Z"/>
    </g>
  </g>
</svg>