<?xml version="1.0" encoding="UTF-8"?>
<svg id="Layer_2" xmlns="http://www.w3.org/2000/svg" xmlns:xlink="http://www.w3.org/1999/xlink" viewBox="0 0 125 125">
  <defs>
    <style>
      .cls-1 {
        fill: #4285f7;
      }

      .cls-1, .cls-2 {
        isolation: isolate;
      }

      .cls-3 {
        fill: #f2f0f0;
      }

      .cls-4 {
        fill: none;
      }

      .cls-2 {
        fill: #e1342a;
      }

      .cls-5 {
        fill: #2da94f;
      }

      .cls-6 {
        fill: #fdbd00;
      }

      .cls-7 {
        clip-path: url(#clippath);
      }
    </style>
    <clipPath id="clippath">
      <rect class="cls-4" x="12.5" y="12.5" width="100" height="100"/>
    </clipPath>
  </defs>
  <g id="Layer_1-2" data-name="Layer_1">
    <g>
      <rect class="cls-3" width="125" height="125" rx="30.35" ry="30.35"/>
      <g id="Layer_1-3" data-name="Layer_1">
        <g class="cls-7">
          <g>
            <path class="cls-2" d="M65.1,70.9l23.5-40.8,12.8,7.4c8.3,4.8,11.1,15.4,6.3,23.6l-13.3,23c-3,5.2-9.6,6.9-14.8,4l-11.9-6.9c-3.6-2.1-4.8-6.7-2.8-10.3h.2Z"/>
            <path class="cls-2" d="M65.1,70.9c-2.1,3.6-.9,8.2,2.8,10.3h0l11.9,6.9c5.2,3,11.8,1.2,14.8-4h0l13.3-23c1.5-2.7,2.3-5.5,2.3-8.4h0v-.5c0-5.9-3.2-11.6-8.7-14.8h0l-12.8-7.4-23.5,40.8-.1.1Z"/>
            <path class="cls-6" d="M62.6,42.6l-29.3,50.7,12.8,7.4c8.3,4.8,18.9,1.9,23.6-6.3l19-32.9c3-5.2,1.2-11.8-4-14.8l-11.9-6.9c-3.6-2.1-8.2-.9-10.3,2.8h.1Z"/>
            <path class="cls-5" d="M88.6,30.1l-9.1-5.2c-10.3-6-23.6-2.4-29.6,7.9l-16.8,29.1c-3,5.2-1.2,11.8,4,14.8l9.1,5.2c5.2,3,11.8,1.2,14.8-4l20.1-34.8h0c4.2-7.2,13.4-9.7,20.6-5.5l-13.1-7.5h0Z"/>
            <path class="cls-1" d="M52.6,41.3l-10-5.8c-4.5-2.6-10.2-1-12.7,3.4l-12,20.8c-5.9,10.2-2.4,23.3,7.8,29.2l7.6,4.4,9.2,5.3,4,2.3c-7.1-4.8-9.4-14.3-5-21.8l3.1-5.4,11.4-19.7c2.6-4.4,1.1-10.1-3.4-12.7h0Z"/>
            <path class="cls-1" d="M29.8,39l-12,20.8c-5.9,10.2-2.4,23.3,7.8,29.2h0l7.6,4.4,9.2,5.3,4,2.3c-7.1-4.8-9.4-14.3-5-21.8h0l3.1-5.4,11.4-19.7c2.6-4.4,1.1-10.1-3.4-12.7h0l-10-5.8c-1.5-.8-3.1-1.2-4.7-1.2h0c-3.2,0-6.4,1.7-8.1,4.7l.1-.1Z"/>
          </g>
        </g>
      </g>
    </g>
  </g>
</svg>