<?xml version="1.0" encoding="UTF-8"?>
<svg id="Layer_2" data-name="Layer 2" xmlns="http://www.w3.org/2000/svg" viewBox="0 0 41.34 36.19">
  <defs>
    <style>
      .cls-1 {
        stroke-dasharray: 0 0 3.48 5.21;
      }

      .cls-1, .cls-2 {
        fill: none;
        stroke: #474747;
        stroke-linecap: round;
        stroke-linejoin: round;
        stroke-width: 1.34px;
      }
    </style>
  </defs>
  <g id="Layer_1-2" data-name="Layer 1">
    <g>
      <g>
        <circle class="cls-2" cx="7.61" cy="22.04" r="2.01"/>
        <path class="cls-2" d="m7.41,35.52c.77-3.38,3.02-6.51,5.23-9.19.96-1.17,1.54-2.67,1.54-4.3,0-3.73-3.03-6.76-6.76-6.76-3.72,0-6.74,3-6.76,6.72,0,1.65.57,3.16,1.55,4.34,2.18,2.64,4.44,5.84,5.2,9.18Z"/>
      </g>
      <path class="cls-2" d="m40.67,33.74v1.79h-1.79"/>
      <path class="cls-2" d="m5.82,2.45V.67h1.79"/>
      <path class="cls-2" d="m38.88.67h1.79v1.79"/>
      <g>
        <path class="cls-1" d="m12.81.67h3.38"/>
        <path class="cls-1" d="m21.51.67h3.38"/>
        <path class="cls-1" d="m30.2.67h3.38"/>
        <path class="cls-1" d="m12.81,35.52h3.38"/>
        <path class="cls-1" d="m21.51,35.52h3.38"/>
        <path class="cls-1" d="m30.2,35.52h3.38"/>
        <path class="cls-1" d="m40.67,28.44v-3.38"/>
        <path class="cls-1" d="m40.67,19.74v-3.38"/>
        <path class="cls-1" d="m40.67,11.05v-3.38"/>
        <path class="cls-1" d="m5.82,11.05v-3.38"/>
      </g>
    </g>
  </g>
</svg>