<?xml version="1.0" encoding="UTF-8"?>
<svg id="Layer_2" xmlns="http://www.w3.org/2000/svg" viewBox="0 0 19.07 19.07">
  <defs>
    <style>
      .cls-1 {
        fill: #b7b7b8;
      }
    </style>
  </defs>
  <g id="Layer_1-2" data-name="Layer_1">
    <g>
      <path class="cls-1" d="M14.75,5.91c-.31-.19-.63-.37-.94-.55l-3.67-2.12c-.24-.14-.5-.21-.74-.21-.37,0-.68.16-.88.45-.39.56-.68,1.07-.88,1.56-.38.94-.32,1.91.17,2.89.11.23.12.44.02.61-.1.17-.28.27-.54.28-.95.06-1.74.42-2.41,1.09-.32.32-.54.72-.8,1.21l-.19.33c-.36.62-.17,1.34.47,1.71,1.55.9,3.1,1.8,4.65,2.68.21.12.43.18.65.18.43,0,.82-.23,1.06-.64.11-.19.53-.91.53-.91.35-.6.49-1.27.43-2.03-.04-.45-.17-.91-.39-1.34-.14-.28-.07-.48-.02-.58.1-.18.29-.27.61-.3.1,0,.2-.01.29-.03,1.01-.16,1.81-.65,2.37-1.44.28-.39.51-.84.73-1.28.05-.1.08-.24.13-.39-.02-.58-.21-.94-.63-1.19ZM14.26,7.23c-.13.22-.26.44-.38.66-.48.89-1.25,1.29-2.22,1.36-.87.06-1.54.79-1.48,1.66.02.21.09.43.18.62.32.67.41,1.37.18,2.08-.12.36-.35.69-.54,1.02-.28.49-.28.49-.78.2-1.42-.82-2.85-1.64-4.27-2.46-.1-.06-.19-.16-.27-.24.05-.11.08-.17.11-.22.19-.34.37-.69.59-1.01.39-.57.96-.88,1.63-1.02.21-.05.44-.04.65-.08,1.02-.2,1.56-1.31,1.09-2.23-.34-.67-.43-1.38-.19-2.09.12-.36.35-.69.54-1.02.28-.49.28-.49.78-.21,1.42.82,2.85,1.64,4.27,2.46.28.16.3.23.13.52Z"/>
      <path class="cls-1" d="M9.62,19.07c-.43,0-.88-.03-1.33-.09C4.14,18.45.79,15.22.13,11.11c-.07-.47-.1-.94-.13-1.41-.01-.23.04-.41.15-.53.08-.09.2-.13.34-.13.44,0,.51.42.51.66.03,1.66.49,3.15,1.36,4.45,1.75,2.59,4.17,3.91,7.19,3.91.21,0,.41,0,.63-.02,2.02-.12,3.82-.93,5.36-2.43l.36-.39-.34-.07h-.6s-.31,0-.31,0c-.24-.01-.45-.17-.49-.39-.05-.24.06-.46.26-.55.08-.04.18-.06.28-.06h1.31s1.17,0,1.17,0c.34,0,.54.2.54.54,0,.82,0,1.64,0,2.46,0,.33-.21.55-.5.55-.3,0-.5-.23-.5-.57v-1.21s-.61.54-.61.54c-.23.2-.44.4-.68.58-1.74,1.34-3.69,2.02-5.79,2.03Z"/>
      <path class="cls-1" d="M18.57,10.04c-.3,0-.5-.23-.5-.59-.04-2.25-.83-4.19-2.34-5.77-1.69-1.77-3.76-2.67-6.14-2.67-.31,0-.62.01-.93.04-1.93.18-3.65.99-5.1,2.39-.04.04-.14.15-.14.15l-.07.29.21.04h.53c.11,0,.22,0,.33,0,.23,0,.39.11.47.32.06.14.09.35-.09.5-.11.1-.25.17-.35.17-.45.01-.9.01-1.35.01h-1.25c-.28,0-.48-.22-.48-.5,0-.85,0-1.71,0-2.56,0-.28.22-.5.5-.5s.5.21.5.5c0,.19,0,.39,0,.59v.73s.5-.47.5-.47C4.43,1.21,6.3.32,8.43.07c.38-.04.75-.07,1.12-.07,4.4,0,8.21,3,9.26,7.29.17.71.26,1.43.26,2.14,0,.38-.18.61-.49.61h-.01Z"/>
    </g>
  </g>
</svg>