<?xml version="1.0" encoding="utf-8"?>
<!-- Generator: Adobe Illustrator 27.8.0, SVG Export Plug-In . SVG Version: 6.00 Build 0)  -->
<svg version="1.1" id="Layer_1" xmlns="http://www.w3.org/2000/svg" xmlns:xlink="http://www.w3.org/1999/xlink" x="0px" y="0px"
	 viewBox="0 0 16.8 15.5" style="enable-background:new 0 0 16.8 15.5;" xml:space="preserve">
<style type="text/css">
	.st0{fill-rule:evenodd;clip-rule:evenodd;fill:#4C0C4B;stroke:#4C0C4B;stroke-width:8.503937e-02;stroke-miterlimit:10;}
</style>
<path class="st0" d="M10,14c0-0.5-0.4-1-1-1H7.8c-0.3,0-0.5,0.1-0.7,0.3C7,13.5,6.9,13.8,6.9,14c0,0.5,0.4,1,1,1H9
	C9.5,15,10,14.6,10,14L10,14z M2.8,11.6c0.2,0,0.4,0,0.5,0c0.1,0.5,0.4,1,0.7,1.4c0.5,0.5,1.2,0.8,1.9,0.8h0.4c0,0.1,0,0.2,0,0.3
	c0,0.1,0,0.2,0,0.3H6c-0.9,0-1.7-0.3-2.3-1C3.2,12.9,2.9,12.2,2.8,11.6L2.8,11.6z M2.5,11c-0.4-0.1-0.8-0.3-1.1-0.6
	C1,10,0.7,9.5,0.7,8.9V7.6c0-0.6,0.2-1.1,0.6-1.5s0.9-0.6,1.5-0.6H3c0.2-2.8,2.6-5,5.4-5s5.2,2.2,5.4,5H14c0.6,0,1.1,0.2,1.5,0.6
	c0.4,0.4,0.6,0.9,0.6,1.5v1.3c0,0.6-0.2,1.1-0.6,1.5C15.1,10.8,14.5,11,14,11h-0.6c-0.3,0-0.5-0.2-0.5-0.5V6c0-2.5-2-4.5-4.5-4.5
	S3.9,3.5,3.9,6v4.6c0,0.2-0.1,0.3-0.3,0.4C3.2,11.1,2.6,11,2.5,11L2.5,11z"/>
</svg>
