<svg width="56" height="64" viewBox="0 0 56 64" fill="none" xmlns="http://www.w3.org/2000/svg">
<path d="M52.7505 9.45371H40.7381V6.71478C40.7381 3.01257 37.7208 0 34.0121 0H6.72406C3.01601 0 0 3.01257 0 6.71478V57.2885C0 60.9887 3.01601 64 6.72406 64H34.0121C37.7201 64 40.7374 60.9887 40.7374 57.2885V21.841H52.7498C54.5427 21.841 56 20.3847 56 18.5959V12.6994C56.0007 10.91 54.5433 9.45371 52.7505 9.45371ZM38.9838 55.5951H1.75296V7.13273H38.9838V9.45371H26.9747C25.1818 9.45371 23.7232 10.91 23.7232 12.7001V18.5966C23.7232 20.3853 25.1818 21.8416 26.9747 21.8416H30.8456L35.1489 25.999C35.3157 26.1603 35.5348 26.2465 35.7585 26.2465C35.8736 26.2465 35.99 26.223 36.1006 26.1767C36.425 26.0389 36.635 25.7215 36.635 25.3701V21.8416H38.9838V55.5951ZM34.9723 16.1515C35.3916 16.3938 35.5341 16.9293 35.2928 17.3479C35.1299 17.6281 34.8356 17.7855 34.5327 17.7855C34.3836 17.7855 34.2338 17.7469 34.0945 17.6666L33.2246 17.1644V18.1708C33.2246 18.6547 32.8314 19.0472 32.3468 19.0472C31.8634 19.0472 31.4703 18.6547 31.4703 18.1708V17.1644L30.6003 17.6666C30.4617 17.7469 30.3112 17.7855 30.1621 17.7855C29.8593 17.7855 29.5649 17.6281 29.402 17.3479C29.1607 16.9293 29.3033 16.3944 29.7225 16.1515L30.5951 15.648L29.7225 15.1445C29.3033 14.9035 29.1607 14.3667 29.402 13.9494C29.6447 13.5308 30.1811 13.3871 30.6003 13.6294L31.4703 14.1316V13.1291C31.4703 12.6452 31.8634 12.254 32.3468 12.254C32.8314 12.254 33.2246 12.6452 33.2246 13.1291V14.1316L34.0945 13.6294C34.5138 13.3871 35.0495 13.5308 35.2928 13.9494C35.5341 14.3667 35.3916 14.9029 34.9723 15.1445L34.0997 15.648L34.9723 16.1515ZM42.4858 16.1515C42.9051 16.3938 43.0477 16.9293 42.8063 17.3479C42.6435 17.6281 42.3491 17.7855 42.0463 17.7855C41.8971 17.7855 41.746 17.7469 41.608 17.6666L40.7381 17.1644V18.1708C40.7381 18.6547 40.345 19.0472 39.8603 19.0472C39.3769 19.0472 38.9838 18.6547 38.9838 18.1708V17.1644L38.1139 17.6666C37.9752 17.7469 37.8248 17.7855 37.6756 17.7855C37.3728 17.7855 37.0785 17.6281 36.9156 17.3479C36.6742 16.9293 36.8168 16.3944 37.2361 16.1515L38.1087 15.648L37.2361 15.1445C36.8168 14.9035 36.6742 14.3667 36.9156 13.9494C37.1583 13.5308 37.6946 13.3871 38.1139 13.6294L38.9838 14.1316V13.1291C38.9838 12.6452 39.3769 12.254 39.8603 12.254C40.345 12.254 40.7381 12.6452 40.7381 13.1291V14.1316L41.608 13.6294C42.0273 13.3871 42.563 13.5308 42.8063 13.9494C43.0477 14.3667 42.9051 14.9029 42.4858 15.1445L41.6133 15.648L42.4858 16.1515ZM49.9987 16.1515C50.418 16.3938 50.5606 16.9293 50.3192 17.3479C50.1564 17.6281 49.862 17.7855 49.5592 17.7855C49.41 17.7855 49.2589 17.7469 49.1209 17.6666L48.251 17.1644V18.1708C48.251 18.6547 47.8579 19.0472 47.3732 19.0472C46.8898 19.0472 46.4967 18.6547 46.4967 18.1708V17.1644L45.6268 17.6666C45.4881 17.7469 45.3377 17.7855 45.1885 17.7855C44.8857 17.7855 44.5913 17.6281 44.4285 17.3479C44.1871 16.9293 44.3297 16.3944 44.749 16.1515L45.6215 15.648L44.749 15.1445C44.3297 14.9035 44.1871 14.3667 44.4285 13.9494C44.6711 13.5308 45.2075 13.3871 45.6268 13.6294L46.4967 14.1316V13.1291C46.4967 12.6452 46.8898 12.254 47.3732 12.254C47.8579 12.254 48.251 12.6452 48.251 13.1291V14.1316L49.1209 13.6294C49.5402 13.3871 50.0759 13.5308 50.3192 13.9494C50.5606 14.3667 50.418 14.9029 49.9987 15.1445L49.1262 15.648L49.9987 16.1515ZM31.0791 26.6364L20.6837 22.6612C20.4822 22.5835 20.2579 22.5835 20.0564 22.6612L9.65896 26.6364C9.31949 26.7664 9.09579 27.0916 9.09579 27.454V39.183C9.09579 39.2633 9.10691 39.343 9.12849 39.4194C10.5924 44.6184 14.1768 48.1221 20.0884 50.1309C20.18 50.1623 20.2749 50.1786 20.3704 50.1786C20.4665 50.1786 20.562 50.1623 20.6536 50.1309C26.5626 48.1221 30.1457 44.6184 31.6096 39.4194C31.6318 39.343 31.6423 39.2633 31.6423 39.183V27.454C31.641 27.0909 31.4166 26.7664 31.0791 26.6364ZM25.3172 39.7427C25.3172 40.9613 24.3217 41.9527 23.0986 41.9527H17.6376C16.4144 41.9527 15.4189 40.9613 15.4189 39.7427V35.55C15.4189 34.4078 16.2901 33.4648 17.4034 33.3486V32.446C17.4034 30.8121 18.7345 29.4838 20.369 29.4838C22.0056 29.4838 23.336 30.8127 23.336 32.446V33.3486C24.448 33.4674 25.3166 34.4085 25.3166 35.55L25.3172 39.7427ZM21.5837 32.446V33.3362H19.1564V32.446C19.1564 31.7786 19.7012 31.2346 20.3697 31.2346C21.0395 31.2353 21.5837 31.7786 21.5837 32.446ZM21.4902 37.6444C21.4902 38.2446 21.0029 38.7318 20.4011 38.7318H20.3396C19.7378 38.7318 19.2506 38.2452 19.2506 37.6444C19.2506 37.0442 19.7378 36.5571 20.3396 36.5571H20.4011C21.0029 36.5571 21.4902 37.0442 21.4902 37.6444Z" fill="#CFA565"/>
</svg>
