<?xml version="1.0" encoding="UTF-8"?>
<svg id="Layer_2" data-name="Layer 2" xmlns="http://www.w3.org/2000/svg" viewBox="0 0 28.71 28.55">
  <defs>
    <style>
      .cls-1 {
        fill: #7e3080;
        stroke-width: 0px;
      }
    </style>
  </defs>
  <g id="Layer_1-2" data-name="Layer 1">
    <g>
      <path class="cls-1" d="m.27,28.55c-.48-.95-.3-1.98.45-2.63.04-.03.12-.05.12-.08.12-.86.79-1.5,1-2.24.26-.92.56-1.54,1.55-1.76,0-2.11,0-4.2-.01-6.29,0-.13-.14-.35-.25-.38-.94-.25-1.24-.92-1.23-1.9-.4,0-.8.03-1.18-.01-.22-.03-.42-.19-.63-.29.12-.22.19-.51.37-.63,1.17-.76,2.36-1.48,3.55-2.22,3.24-2.01,6.48-4.02,9.71-6.05.44-.28.79-.27,1.23,0,4.37,2.73,8.76,5.44,13.13,8.18.23.14.34.47.5.72-.26.1-.51.25-.78.29-.31.05-.64.01-1.01.01-.01.97-.32,1.7-1.32,1.93-.09.02-.18.23-.18.35-.01,2.09,0,4.18,0,6.3,1,.2,1.5.78,1.49,1.78,0,.13.17.26.25.41.22.45.44.9.66,1.35.09.18.15.4.29.53.74.66.92,1.69.44,2.64H.27ZM2.41,12.2s.04.08.07.12h23.88c-.21-.17-.3-.26-.4-.32-3.74-2.32-7.48-4.65-11.24-6.94-.21-.13-.67-.07-.91.08-2.15,1.3-4.28,2.63-6.42,3.95-1.66,1.03-3.33,2.07-4.99,3.11Zm3.81,9.67c1.09.17,1.48.86,1.42,1.88h3.8c.16-1.26.17-1.24,1.24-1.85.15-.08.24-.4.25-.61.02-1.47.02-2.93,0-4.4,0-.82.24-1.68-.91-2.1-.37-.14-.5-.93-.75-1.47h-3.63c.04.94-.25,1.61-1.19,1.85-.11.03-.22.31-.22.47-.01,2.04,0,4.08,0,6.22Zm14.79-8.54h-3.82c-.01.93-.25,1.63-1.23,1.85-.11.02-.23.31-.23.48-.02,1.94-.01,3.88,0,5.82,0,.15.1.4.2.42,1.02.2,1.25.94,1.27,1.86h3.83c-.04-.93.23-1.6,1.19-1.85.12-.03.22-.35.22-.54.02-1.89.01-3.78,0-5.67,0-.17-.08-.48-.18-.5-.98-.24-1.28-.93-1.24-1.86ZM1.01,27.59h26.61c.17-.64,0-.97-.69-.97-8.39,0-16.79,0-25.18,0-.63,0-.87.26-.74.98Zm25.69-1.91c.13-.7-.12-.98-.78-.97-7.72,0-15.45,0-23.17,0-.77,0-.86.14-.74.97h24.7Zm-22.37-3.84c.73.22,1.05.06.99-.7-.05-.77-.01-1.54-.01-2.31,0-1.19,0-2.37,0-3.6h-.98v6.61Zm19.05-6.63v6.66h.92v-6.66h-.92Zm-9.48-.01v6.67h.84v-6.67h-.84Zm2.29-1.88h-3.74c-.06.77.05.94.68.96.79.03,1.58.02,2.37,0,.61,0,.84-.32.68-.96Zm-13.31,0c-.15.72.16.97.75.97.77,0,1.54,0,2.31,0,.66,0,.86-.33.71-.98h-3.76Zm19.11,0c-.16.68.08.97.7.97.79,0,1.59.01,2.38,0,.6-.02.84-.33.67-.97h-3.75ZM2.9,23.76h3.75c.07-.8,0-.91-.68-.93-.79-.02-1.58,0-2.38,0-.63,0-.84.29-.7.93Zm13.32,0c.12-.64-.08-.94-.72-.93-.77.01-1.55,0-2.32,0-.72.01-.83.16-.68.93h3.72Zm9.55,0c.12-.71-.16-.95-.76-.94-.77.02-1.54.01-2.3,0-.67,0-.86.31-.7.94h3.77Z"/>
      <path class="cls-1" d="m28.71,2.22c-.2.22-.37.4-.58.64-1.32-1.25-2.89-1.94-4.7-1.95-1.81,0-3.39.65-4.75,1.91-.14-.12-.25-.2-.35-.3-.09-.08-.16-.18-.24-.27,2.33-2.71,7.49-3.24,10.61-.02Z"/>
      <path class="cls-1" d="m27.35,3.58c-.2.22-.37.4-.53.58-2.75-1.81-4.16-1.81-6.86-.01-.18-.17-.38-.35-.56-.53,2-2.26,5.99-2.27,7.95-.04Z"/>
      <path class="cls-1" d="m24.8,7.14c-.02.77-.69,1.4-1.46,1.37-.79-.03-1.38-.67-1.35-1.47.03-.74.68-1.36,1.41-1.36.75,0,1.43.7,1.4,1.45Zm-1.43.62c.22-.28.5-.49.47-.62-.05-.2-.31-.35-.49-.53-.15.17-.41.33-.43.51-.01.17.23.35.44.64Z"/>
      <path class="cls-1" d="m26.01,4.9c-.2.22-.36.4-.56.62-1.34-1.06-2.7-1.13-4.08-.02-.2-.19-.39-.37-.58-.55,1.26-1.52,3.67-1.55,5.22-.06Z"/>
      <path class="cls-1" d="m14.32,11.36c-1.3,0-2.36-1.07-2.36-2.36,0-1.29,1.08-2.35,2.39-2.34,1.31,0,2.37,1.07,2.36,2.36-.01,1.3-1.07,2.34-2.39,2.33Zm.04-3.8c-.76-.02-1.45.63-1.48,1.38-.03.8.63,1.49,1.43,1.51.77.01,1.45-.61,1.48-1.38.03-.79-.63-1.49-1.43-1.51Z"/>
    </g>
  </g>
</svg>