<?xml version="1.0" encoding="UTF-8"?>
<svg id="Layer_2" data-name="Layer 2" xmlns="http://www.w3.org/2000/svg" viewBox="0 0 126.84 115.06">
  <defs>
    <style>
      .cls-1 {
        fill: #212121;
        font-family: Lato-Regular, Lato;
        font-size: 21.15px;
        letter-spacing: .02em;
      }

      .cls-2 {
        fill: #cea465;
      }

      .cls-2, .cls-3 {
        stroke-width: 0px;
      }

      .cls-3 {
        fill: #7e3080;
      }
    </style>
  </defs>
  <g id="Layer_1-2" data-name="Layer 1">
    <g>
      <text class="cls-1" transform="translate(0 111.19)"><tspan x="0" y="0">Coming Soon</tspan></text>
      <g>
        <path class="cls-2" d="m44.55,35.77h8.2c.45,0,.82-.37.82-.82s-.37-.82-.82-.82h-8.2c-.45,0-.82.37-.82.82s.37.82.82.82Z"/>
        <path class="cls-2" d="m40.45,35.77h.82c.45,0,.82-.37.82-.82s-.37-.82-.82-.82h-.82c-.45,0-.82.37-.82.82s.37.82.82.82Z"/>
        <path class="cls-2" d="m53.57,43.16c0-.45-.37-.82-.82-.82h-8.2c-.45,0-.82.37-.82.82s.37.82.82.82h8.2c.45,0,.82-.37.82-.82Z"/>
        <path class="cls-2" d="m41.27,42.34h-.82c-.45,0-.82.37-.82.82s.37.82.82.82h.82c.45,0,.82-.37.82-.82s-.37-.82-.82-.82Z"/>
        <path class="cls-3" d="m53.57,39.06c0-.45-.37-.82-.82-.82h-14.77c-.45,0-.82.37-.82.82s.37.82.82.82h14.77c.45,0,.82-.37.82-.82Z"/>
        <path class="cls-2" d="m72.63,37.43l5.26-4.31c.35-.29.4-.8.11-1.15-.29-.35-.8-.4-1.15-.12l-5.26,4.3c.41.36.76.79,1.04,1.27Z"/>
        <path class="cls-3" d="m65.07,39.85c0,1.81,1.47,3.28,3.28,3.28,1.81,0,3.28-1.47,3.28-3.28,0-1.81-1.47-3.28-3.28-3.28-1.81,0-3.28,1.47-3.28,3.28Zm4.92,0c0,.91-.74,1.64-1.64,1.64-.91,0-1.64-.74-1.64-1.64,0-.91.73-1.64,1.64-1.64.91,0,1.64.74,1.64,1.64Z"/>
        <path class="cls-3" d="m66.74,20.21l-.23.14c-.39.23-.53.73-.3,1.12s.73.53,1.12.3h0l2.88-1.67c.39-.23.53-.73.3-1.12-.07-.12-.18-.23-.3-.3l-2.88-1.67c-.39-.23-.89-.09-1.12.3s-.09.89.3,1.12l.22.13c-8.32.65-15.5,6.09-18.38,13.93h1.76c2.78-6.9,9.21-11.65,16.63-12.28Z"/>
        <path class="cls-2" d="m67.53,54.64v2.46c0,.45.37.82.82.82s.82-.37.82-.82v-2.46c0-.45-.37-.82-.82-.82s-.82.37-.82.82Z"/>
        <path class="cls-2" d="m83.11,40.7h2.46c.45,0,.82-.37.82-.82s-.37-.82-.82-.82h-2.46c-.45,0-.82.37-.82.82s.37.82.82.82Z"/>
        <path class="cls-3" d="m78.15,51.04l1.74,1.74c.32.32.84.32,1.16,0s.32-.84,0-1.16l-1.74-1.74c-.32-.32-.84-.32-1.16,0-.32.32-.32.84,0,1.16h0Z"/>
        <circle class="cls-3" cx="29.79" cy="60.38" r=".82"/>
        <path class="cls-3" d="m33.48,59.56h-1.23c-.45,0-.82.37-.82.82s.37.82.82.82h1.23c.45,0,.82-.37.82-.82s-.37-.82-.82-.82Z"/>
        <path class="cls-2" d="m77.43,62.85h-3.41c-.45.04-.79.43-.75.89.03.4.35.72.75.75h3.41c.45-.04.79-.43.75-.89-.03-.4-.35-.72-.75-.75Z"/>
        <path class="cls-2" d="m52.82,62.85h-3.41c-.45.04-.79.43-.75.89.03.4.35.72.75.75h3.41c.45-.04.79-.43.75-.89-.03-.4-.35-.72-.75-.75Z"/>
        <path class="cls-2" d="m71.62,62.85h-16.41c-.45,0-.82.37-.82.82s.37.82.82.82h6.54v.82h-3.26c-.45,0-.82.37-.82.82s.37.82.82.82h10.25c.45,0,.82-.37.82-.82s-.37-.82-.82-.82h-3.67v-.82h6.54c.45,0,.82-.37.82-.82s-.37-.82-.82-.82Z"/>
        <g>
          <path class="cls-3" d="m94.59,59.56h-1.23c-.45,0-.82.37-.82.82s.37.82.82.82h1.23c.45,0,.82-.37.82-.82s-.37-.82-.82-.82Z"/>
          <circle class="cls-3" cx="97.05" cy="60.38" r=".82"/>
          <path class="cls-3" d="m90.79,59.56h-14.24c10.89-4.55,16.02-17.06,11.48-27.95-.9-2.15-2.14-4.14-3.68-5.89-.3-.34-.82-.37-1.16-.07-.34.3-.37.82-.07,1.16,0,0,0,0,0,0,7.21,8.14,6.46,20.58-1.67,27.8-8.14,7.21-20.58,6.46-27.8-1.67-1.88-2.12-3.27-4.61-4.1-7.32h-1.7c1.77,6.29,6.32,11.42,12.34,13.95h-24.12c-.45-.06-.87.26-.93.71-.06.45.26.87.71.93.07,0,.14,0,.21,0h54.73c.45.06.87-.26.93-.71s-.26-.87-.71-.93c-.07,0-.14,0-.21,0h0Z"/>
          <path class="cls-3" d="m78.98,9.98c.68,0,1.23-.55,1.23-1.23s-.55-1.23-1.23-1.23-1.23.55-1.23,1.23c0,.68.55,1.23,1.23,1.23Zm0-1.85c.34,0,.62.28.62.62s-.28.62-.62.62-.62-.28-.62-.62c0-.34.28-.61.62-.62Z"/>
          <path class="cls-3" d="m93.9,27.16c-.45,0-.82.37-.82.82s.37.82.82.82.82-.37.82-.82c0-.45-.37-.82-.82-.82Zm0,1.23c-.23,0-.41-.18-.41-.41s.18-.41.41-.41.41.18.41.41c0,.23-.18.41-.41.41Z"/>
          <path class="cls-3" d="m47.42,24.63c-.45,0-.82.37-.82.82s.37.82.82.82.82-.37.82-.82c0-.45-.37-.82-.82-.82Zm0,1.23c-.23,0-.41-.18-.41-.41s.18-.41.41-.41.41.18.41.41c0,.23-.18.41-.41.41Z"/>
          <path class="cls-3" d="m93.9,2.96c-.45,0-.82.37-.82.82s.37.82.82.82.82-.37.82-.82c0-.45-.37-.82-.82-.82Zm0,1.23c-.23,0-.41-.18-.41-.41s.18-.41.41-.41.41.18.41.41c0,.23-.18.41-.41.41Z"/>
          <path class="cls-3" d="m35.65,1.9c0-.45-.37-.82-.82-.82s-.82.37-.82.82.37.82.82.82c.45,0,.82-.37.82-.82Zm-1.23,0c0-.23.18-.41.41-.41s.41.18.41.41-.18.41-.41.41c-.23,0-.41-.18-.41-.41Z"/>
        </g>
        <path class="cls-2" d="m31.6,16.4l.61-.8-.39-.22-.39.9h-.01l-.4-.89-.39.22.6.78h0s-.94-.11-.94-.11v.44l.95-.12h0s-.61.8-.61.8l.37.23.42-.9h.01l.39.9.4-.23-.62-.77h0s.97.1.97.1v-.44l-.97.13h0Z"/>
        <path class="cls-2" d="m50.33,9.46l-.35.45.21.13.24-.52h0l.22.52.23-.13-.35-.44h0s.56.06.56.06v-.25l-.56.07h0s.35-.47.35-.47l-.22-.13-.23.52h0l-.23-.51-.23.13.35.45h0s-.54-.06-.54-.06v.25l.55-.07h0Z"/>
        <path class="cls-2" d="m92.67,18.43v-.43l-.95.13h0s.6-.8.6-.8l-.38-.21-.38.88h-.01l-.39-.87-.38.22.59.77h0s-.93-.11-.93-.11v.43l.93-.12h0s-.6.78-.6.78l.36.23.41-.89h.01l.38.88.4-.23-.6-.76h0s.95.1.95.1Z"/>
        <path class="cls-2" d="m64.53.86l.52-.68-.33-.18-.33.76h-.01l-.34-.75-.33.19.51.66h0s-.8-.09-.8-.09v.37l.8-.1h0s-.52.67-.52.67l.31.2.35-.77h.01l.33.76.34-.2-.52-.65h0s.82.09.82.09v-.37l-.82.11h0Z"/>
      </g>
    </g>
  </g>
</svg>