<?xml version="1.0" encoding="UTF-8"?>
<svg id="Layer_2" data-name="Layer 2" xmlns="http://www.w3.org/2000/svg" viewBox="0 0 13.95 13.95">
  <defs>
    <style>
      .cls-1 {
        fill: #6d6c6d;
        stroke-width: 0px;
      }
    </style>
  </defs>
  <g id="Layer_1-2" data-name="Layer 1">
    <g id="_7" data-name="7">
      <path class="cls-1" d="m9.21,6.74l-1.8,1.8V3.92c0-.24-.2-.44-.44-.44s-.44.2-.44.44v4.62l-1.8-1.8c-.17-.17-.45-.17-.62,0-.17.17-.17.45,0,.62l2.47,2.47c.1.1.25.14.38.11.14.02.28,0,.38-.11l2.47-2.47c.17-.17.17-.45,0-.62-.17-.17-.45-.17-.62,0ZM6.98,0C3.12,0,0,3.12,0,6.98s3.12,6.98,6.98,6.98,6.98-3.12,6.98-6.98S10.83,0,6.98,0Zm0,13.08c-3.37,0-6.1-2.73-6.1-6.1S3.6.87,6.98.87s6.1,2.73,6.1,6.1-2.73,6.1-6.1,6.1Z"/>
    </g>
  </g>
</svg>