<?xml version="1.0" encoding="utf-8"?>
<!-- Generator: Adobe Illustrator 27.8.0, SVG Export Plug-In . SVG Version: 6.00 Build 0)  -->
<svg version="1.1" id="Layer_1" xmlns="http://www.w3.org/2000/svg" xmlns:xlink="http://www.w3.org/1999/xlink" x="0px" y="0px"
	 viewBox="0 0 19 19" style="enable-background:new 0 0 19 19;" xml:space="preserve">
<style type="text/css">
	.st0{fill:#4C0C4B;stroke:#4C0C4B;stroke-width:8.503937e-02;stroke-miterlimit:10;}
</style>
<g>
	<path class="st0" d="M7.6,1.5c1.5,0,3,0,4.5,0c1.1,0,1.7,0.6,1.7,1.7c0,0.5,0,1,0,1.5c0,0.3,0.1,0.4,0.3,0.5c1,0.4,2.1,0.8,3.1,1.2
		c0.5,0.2,0.6,0.2,0.5,0.7c-0.2,2.8-1.4,5.1-3.7,6.7c-0.2,0.1-0.3,0.3-0.3,0.5c0,0.5,0,1.1,0,1.6c0,1-0.7,1.6-1.7,1.6
		c-2,0-4.1,0-6.1,0c-1,0-2.1,0-3.1,0c-1.1,0-1.7-0.6-1.7-1.7c0-4.2,0-8.5,0-12.7c0-1.1,0.6-1.7,1.7-1.7C4.5,1.5,6,1.5,7.6,1.5z
		 M2.1,9.5c0,2.1,0,4.2,0,6.3c0,0.7,0.2,0.9,0.9,0.9c0.6,0,1.3,0,1.9,0c2.3,0,4.6,0,6.9,0c0.9,0,1-0.2,1-1c0-0.5,0-0.9,0-1.4
		c0-0.1-0.1-0.3-0.2-0.4C10.4,12.2,9.2,9.9,9,7.1c0-0.5,0.1-0.6,0.5-0.7c1.1-0.4,2.1-0.8,3.2-1.2C12.9,5.1,13,5,12.9,4.8
		c0-0.5,0-1,0-1.6c0-0.6-0.2-0.9-0.8-0.9c-3,0-6.1,0-9.1,0c-0.6,0-0.9,0.2-0.9,0.9C2.1,5.3,2.1,7.4,2.1,9.5z M9.9,7.3
		c0,0.1,0,0.1,0,0.2c0.3,2.2,1.3,4.1,3.1,5.5c0.3,0.2,0.5,0.2,0.8,0c1.9-1.4,2.8-3.3,3.1-5.5c0-0.1-0.1-0.3-0.2-0.3
		c-1-0.4-2-0.8-3.1-1.2c-0.1,0-0.3-0.1-0.4,0c-1,0.4-2.1,0.8-3.1,1.3C10,7.2,9.9,7.3,9.9,7.3z"/>
	<path class="st0" d="M7.6,3.9c1.1,0,2.2,0,3.3,0c0.4,0,0.7,0.3,0.5,0.5c-0.1,0.2-0.3,0.3-0.5,0.3c-2.3,0-4.6,0-6.9,0
		c-0.3,0-0.5-0.1-0.5-0.4c0-0.3,0.2-0.4,0.5-0.4C5.3,3.9,6.4,3.9,7.6,3.9z"/>
	<path class="st0" d="M7.5,15.1c-1.1,0-2.2,0-3.2,0c-0.1,0-0.3,0-0.3,0c-0.1-0.1-0.3-0.3-0.3-0.4c0-0.1,0.2-0.3,0.3-0.4
		c0.1,0,0.2,0,0.3,0c2.2,0,4.4,0,6.7,0c0,0,0.1,0,0.1,0c0.3,0,0.5,0.1,0.5,0.4c0,0.3-0.2,0.5-0.5,0.5c-0.5,0-0.9,0-1.4,0
		C8.9,15.1,8.2,15.1,7.5,15.1z"/>
	<path class="st0" d="M6.5,12.5c-0.8,0-1.6,0-2.4,0c-0.3,0-0.5-0.1-0.5-0.4c0-0.3,0.2-0.4,0.5-0.4c0.1,0,0.2,0,0.3,0
		c1.4,0,2.9,0,4.3,0c0.1,0,0.2,0,0.3,0c0.3,0,0.5,0.1,0.5,0.4c0,0.3-0.2,0.4-0.5,0.4C8.1,12.5,7.3,12.5,6.5,12.5z"/>
	<path class="st0" d="M5.9,10c-0.6,0-1.2,0-1.8,0c-0.3,0-0.6-0.1-0.6-0.4c0-0.4,0.3-0.4,0.6-0.4c1.2,0,2.4,0,3.5,0
		c0.3,0,0.5,0.1,0.5,0.4C8.2,9.9,8,10,7.7,10C7.1,10,6.5,10,5.9,10z"/>
	<path class="st0" d="M5.7,7.4c-0.5,0-1.1,0-1.6,0C3.8,7.4,3.6,7.3,3.6,7c0-0.3,0.2-0.4,0.5-0.4c1.1,0,2.2,0,3.3,0
		c0.3,0,0.5,0.1,0.5,0.4c0,0.3-0.2,0.4-0.5,0.4C6.8,7.4,6.3,7.4,5.7,7.4z"/>
	<path class="st0" d="M13.2,10.3c0.5-0.9,0.9-1.7,1.4-2.5c0.1-0.1,0.1-0.3,0.2-0.3c0.2-0.1,0.4-0.2,0.5-0.1c0.1,0,0.2,0.3,0.2,0.5
		c0,0.1-0.1,0.2-0.1,0.3c-0.5,1-1.1,2-1.6,3c-0.3,0.5-0.5,0.5-0.9,0.1c-0.4-0.4-0.7-0.8-1-1.2c-0.2-0.2-0.3-0.5,0-0.7
		c0.3-0.2,0.5-0.1,0.7,0.1C12.7,9.7,13,10,13.2,10.3z"/>
</g>
</svg>
