<svg width="24" height="24" viewBox="0 0 24 24" fill="none" xmlns="http://www.w3.org/2000/svg">
<path d="M24 12C24 18.6274 18.6274 24 12 24C5.37258 24 0 18.6274 0 12C0 5.37258 5.37258 0 12 0C18.6274 0 24 5.37258 24 12Z" fill="#E9E9E9"/>
<path d="M14.1332 9.12964H16.7976L13.981 6.20408V8.97803C13.981 9.06169 14.0495 9.12964 14.1332 9.12964Z" fill="#4C0C4B"/>
<path d="M14.1332 10.0926C13.5181 10.0926 13.0186 9.59244 13.0186 8.97794V6H8.40713C7.63073 6 7 6.64218 7 7.43181V17.5682C7 18.3578 7.63135 19 8.40713 19H15.7033C16.4797 19 17.1104 18.3578 17.1104 17.5682V10.0925L14.1332 10.0926ZM13.7408 17.074H9.16664C8.90061 17.074 8.68515 16.8585 8.68515 16.5925C8.68515 16.3265 8.90061 16.111 9.16664 16.111H13.7408C14.0068 16.111 14.2223 16.3265 14.2223 16.5925C14.2223 16.8585 14.0068 17.074 13.7408 17.074ZM14.9445 14.9074H9.16671C8.90069 14.9074 8.68523 14.6919 8.68523 14.4259C8.68523 14.1599 8.90069 13.9444 9.16671 13.9444H14.9445C15.2105 13.9444 15.426 14.1599 15.426 14.4259C15.426 14.6919 15.2105 14.9074 14.9445 14.9074ZM14.9445 12.7408H9.16671C8.90069 12.7408 8.68523 12.5253 8.68523 12.2593C8.68523 11.9933 8.90069 11.7778 9.16671 11.7778H14.9445C15.2105 11.7778 15.426 11.9933 15.426 12.2593C15.426 12.5253 15.2105 12.7408 14.9445 12.7408Z" fill="#4C0C4B"/>
</svg>
