<?xml version="1.0" encoding="UTF-8"?>
<svg id="Layer_2" data-name="Layer 2" xmlns="http://www.w3.org/2000/svg" viewBox="0 0 12.83 17.45">
  <defs>
    <style>
      .cls-1 {
        fill: #7e3080;
        stroke-width: 0px;
      }
    </style>
  </defs>
  <g id="Layer_1-2" data-name="Layer 1">
    <g>
      <path class="cls-1" d="m12.72,4.69L8.14.1c-.06-.06-.15-.1-.24-.1H1.42C.64,0,0,.64,0,1.42v14.6c0,.79.64,1.42,1.42,1.42h9.98c.79,0,1.42-.64,1.42-1.42V4.93c0-.09-.04-.18-.1-.24Zm-4.49-3.51l3.41,3.41h-2.68c-.41,0-.73-.33-.73-.73V1.18h0Zm3.9,14.84c0,.41-.33.73-.73.73H1.42c-.41,0-.73-.33-.73-.73V1.42c0-.41.33-.73.73-.73h6.12v3.17c0,.79.64,1.42,1.42,1.42h3.17v10.74Z"/>
      <path class="cls-1" d="m9.17,8.76H3.65c-.19,0-.34.15-.34.34s.15.34.34.34h5.52c.19,0,.34-.15.34-.34s-.15-.34-.34-.34Z"/>
      <path class="cls-1" d="m9.17,10.3H3.65c-.19,0-.34.15-.34.34s.15.34.34.34h5.52c.19,0,.34-.15.34-.34s-.15-.34-.34-.34Z"/>
      <path class="cls-1" d="m9.17,11.84H3.65c-.19,0-.34.15-.34.34s.15.34.34.34h5.52c.19,0,.34-.15.34-.34s-.15-.34-.34-.34Z"/>
      <path class="cls-1" d="m7.38,13.38h-3.72c-.19,0-.34.15-.34.34s.15.34.34.34h3.72c.19,0,.34-.15.34-.34s-.15-.34-.34-.34Z"/>
    </g>
  </g>
</svg>