<?xml version="1.0" encoding="UTF-8"?>
<svg id="Layer_2" data-name="Layer 2" xmlns="http://www.w3.org/2000/svg" viewBox="0 0 13.26 15.23">
  <defs>
    <style>
      .cls-1 {
        fill: #7e3080;
        stroke-width: 0px;
      }
    </style>
  </defs>
  <g id="Layer_1-2" data-name="Layer 1">
    <path class="cls-1" d="m10.76,10.24c-.73,0-1.39.32-1.84.82l-4.1-2.54c.11-.28.17-.59.17-.9s-.06-.62-.17-.9l4.1-2.54c.46.5,1.11.82,1.84.82,1.37,0,2.49-1.12,2.49-2.49s-1.12-2.49-2.49-2.49-2.49,1.12-2.49,2.49c0,.32.06.62.17.9l-4.1,2.54c-.46-.5-1.11-.82-1.84-.82-1.37,0-2.49,1.12-2.49,2.49s1.12,2.49,2.49,2.49c.73,0,1.39-.32,1.84-.82l4.1,2.54c-.11.28-.17.59-.17.9,0,1.37,1.12,2.49,2.49,2.49s2.49-1.12,2.49-2.49-1.12-2.49-2.49-2.49Zm-1.58-7.75c0-.87.71-1.58,1.58-1.58s1.58.71,1.58,1.58-.71,1.58-1.58,1.58-1.58-.71-1.58-1.58Zm-6.69,6.71c-.87,0-1.58-.71-1.58-1.58s.71-1.58,1.58-1.58,1.58.71,1.58,1.58-.71,1.58-1.58,1.58Zm6.69,3.54c0-.87.71-1.58,1.58-1.58s1.58.71,1.58,1.58-.71,1.58-1.58,1.58-1.58-.71-1.58-1.58Z"/>
  </g>
</svg>