<?xml version="1.0" encoding="utf-8"?>
<!-- Generator: Adobe Illustrator 27.8.0, SVG Export Plug-In . SVG Version: 6.00 Build 0)  -->
<svg version="1.1" id="Layer_1" xmlns="http://www.w3.org/2000/svg" xmlns:xlink="http://www.w3.org/1999/xlink" x="0px" y="0px"
	 viewBox="0 0 14.13 20.95" style="enable-background:new 0 0 14.13 20.95;" xml:space="preserve">
<style type="text/css">
	.st0{fill:#4C0C4B;}
</style>
<g>
	<g>
		<path class="st0" d="M9.2,7.35c1.82,0.66,3.17,1.82,3.99,3.55c0.67,1.4,0.83,2.86,0.49,4.37c-0.67,3.03-3.35,5.24-6.43,5.31
			c-3.14,0.07-5.92-1.98-6.73-5c-0.47-1.73-0.28-3.41,0.57-4.99c0.85-1.57,2.14-2.64,3.84-3.24c-0.06-0.07-0.1-0.12-0.14-0.17
			c-0.53-0.6-1.05-1.2-1.58-1.8C3.04,5.19,3.03,5.13,3.16,4.9c0.27-0.47,0.54-0.93,0.8-1.4c0.09-0.15,0.2-0.22,0.37-0.22
			c1.82,0,3.64,0,5.47,0c0.17,0,0.28,0.06,0.36,0.21c0.27,0.48,0.54,0.95,0.82,1.43c0.1,0.17,0.08,0.3-0.05,0.45
			c-0.53,0.59-1.05,1.2-1.58,1.79C9.31,7.22,9.26,7.28,9.2,7.35z M7.07,7.56c-3.45,0-6.25,2.8-6.25,6.25c0,3.45,2.8,6.24,6.25,6.24
			c3.45,0,6.25-2.81,6.24-6.25C13.3,10.35,10.5,7.55,7.07,7.56z M5.81,5.4c0,0.03-0.01,0.05,0,0.06C6.01,5.96,6.2,6.45,6.4,6.94
			c0.02,0.05,0.11,0.08,0.17,0.09c0.33,0.01,0.65,0,0.98,0.01c0.11,0,0.16-0.03,0.2-0.13C7.92,6.47,8.1,6.03,8.27,5.6
			C8.29,5.54,8.31,5.48,8.34,5.4C7.48,5.4,6.65,5.4,5.81,5.4z M3.95,5.4C4.02,5.48,4.06,5.53,4.1,5.58c0.41,0.47,0.82,0.94,1.23,1.4
			C5.54,7.22,5.54,7.22,5.88,7.1C5.66,6.56,5.45,6.01,5.23,5.47C5.21,5.44,5.15,5.4,5.1,5.4C4.74,5.39,4.37,5.4,3.95,5.4z
			 M10.19,5.4c-0.43,0-0.81,0-1.19,0.01c-0.04,0-0.1,0.08-0.12,0.13c-0.13,0.3-0.24,0.61-0.36,0.91C8.43,6.66,8.34,6.88,8.24,7.16
			C8.41,7.15,8.6,7.19,8.66,7.12C9.17,6.57,9.66,6,10.19,5.4z M6.09,4.84c0.67,0,1.29,0,1.95,0C7.7,4.52,7.39,4.23,7.07,3.93
			C6.74,4.23,6.43,4.52,6.09,4.84z M7.76,3.84c0.33,0.31,0.63,0.58,0.94,0.88c0.22-0.3,0.42-0.57,0.65-0.88
			C8.81,3.84,8.31,3.84,7.76,3.84z M6.37,3.84c-0.55,0-1.05,0-1.59,0C5,4.15,5.21,4.43,5.42,4.72C5.74,4.43,6.04,4.15,6.37,3.84z
			 M3.82,4.84c0.35,0,0.67,0,1.02,0c-0.2-0.27-0.38-0.51-0.57-0.78C4.11,4.33,3.97,4.58,3.82,4.84z M9.29,4.84c0.36,0,0.67,0,1.03,0
			c-0.16-0.27-0.3-0.51-0.45-0.78C9.67,4.33,9.49,4.57,9.29,4.84z"/>
		<path class="st0" d="M5.36,2.57C5.32,2.54,5.23,2.5,5.19,2.42c-0.21-0.34-0.41-0.69-0.6-1.04C4.49,1.22,4.54,1.08,4.68,1
			c0.14-0.07,0.28-0.04,0.36,0.11c0.21,0.35,0.41,0.7,0.61,1.06C5.76,2.36,5.63,2.58,5.36,2.57z"/>
		<path class="st0" d="M8.75,2.57c-0.24,0-0.38-0.21-0.28-0.38c0.21-0.38,0.42-0.75,0.65-1.12C9.19,0.94,9.33,0.93,9.46,1
			c0.13,0.07,0.18,0.2,0.11,0.33C9.36,1.71,9.15,2.09,8.92,2.46C8.88,2.52,8.79,2.55,8.75,2.57z"/>
		<path class="st0" d="M7.33,1.25c0,0.2,0,0.39,0,0.59c0,0.18-0.11,0.29-0.27,0.29c-0.15,0-0.26-0.11-0.26-0.29c0-0.4,0-0.8,0-1.2
			c0-0.17,0.11-0.27,0.26-0.28c0.16,0,0.27,0.1,0.27,0.28C7.34,0.85,7.33,1.05,7.33,1.25z"/>
		<path class="st0" d="M7.07,8.49c2.93,0,5.31,2.39,5.3,5.32c-0.01,2.94-2.39,5.31-5.33,5.3c-2.93-0.01-5.3-2.39-5.29-5.33
			C1.76,10.86,4.15,8.49,7.07,8.49z M7.06,18.58c2.64,0,4.78-2.14,4.78-4.79c0-2.61-2.15-4.76-4.77-4.76
			c-2.63,0-4.78,2.14-4.78,4.77C2.29,16.43,4.43,18.58,7.06,18.58z"/>
	</g>
</g>
</svg>
