<?xml version="1.0" encoding="UTF-8"?>
<svg id="Layer_2" xmlns="http://www.w3.org/2000/svg" viewBox="0 0 346.96 305.67">
  <defs>
    <style>
      .cls-1 {
        fill: #fff;
      }
    </style>
  </defs>
  <g id="Layer_1-2" data-name="Layer_1">
    <g>
      <path d="M76.68,84.34c-1.2-1.1-2.17-2.01-3.18-2.89C50.65,61.48,27.79,41.53,4.95,21.55.38,17.54-.99,12.4,1,7.44,4.18-.46,13.73-2.49,20.56,3.4c9.83,8.48,19.58,17.06,29.37,25.6,90.78,79.24,181.56,158.49,272.34,237.73,6.49,5.67,13.01,11.3,19.45,17.02,5.98,5.31,6.85,12.57,2.26,17.85-4.62,5.31-11.96,5.45-17.96.23-20.25-17.63-40.5-35.26-60.65-52.99-2.16-1.9-3.63-1.97-6.06-.48-21.24,13.09-43.85,22.54-68.77,25.86-20.79,2.77-41.05.4-60.89-6.09-35.79-11.7-65.61-32.97-92.14-59.02-11.91-11.69-22.6-24.64-33.55-37.28-5.36-6.19-5.13-11.46-.11-17.9,19.86-25.47,42.67-47.9,68.93-66.74,1.2-.86,2.39-1.74,3.92-2.86ZM214.04,204.13c-26.08,21.85-58.2,18.27-78.11,2.23-10.22-8.23-17.3-18.64-20.73-31.33-4.82-17.84-1.78-34.56,8.09-50.1-8.8-7.7-17.39-15.13-25.85-22.7-1.86-1.66-3.01-.71-4.5.29-18.26,12.19-34.66,26.57-49.71,42.5-5.46,5.77-10.66,11.79-16.03,17.76,2.89,3.38,5.35,6.36,7.93,9.24,22.39,25,47.18,47.09,77.1,62.81,31.99,16.81,65.15,22.02,100,9.78,10.81-3.8,21.14-8.56,31.35-14.69-9.99-8.73-19.66-17.17-29.52-25.78ZM195.3,187.76c-17.77-15.51-35.51-31-53.29-46.53-9.09,14.19-5.49,34.17,7.97,45.62,12.91,10.98,33.56,11.48,45.32.91Z"/>
      <path d="M320.35,163.46c-27.62-32.25-57.27-59.96-95.33-77.2-28.49-12.9-57.69-15.75-87.75-5.93-7.25,2.37-14.01-.98-16-7.52-2.07-6.8,1.67-13.07,9.21-15.49,38.14-12.26,74.82-7.6,110.34,9.73,32.43,15.82,59.6,38.56,83.85,64.98,6.58,7.17,12.69,14.78,18.81,22.35,4.67,5.78,4.59,11.11.04,17.03-12.28,16-25.99,30.67-40.88,44.24-5.63,5.13-13.07,5.01-17.68-.11-4.59-5.1-3.81-12.27,1.59-17.69,11.25-11.3,22.38-22.74,33.81-34.38Z"/>
      <path class="cls-1" d="M214.04,204.13c9.86,8.61,19.53,17.05,29.52,25.78-10.21,6.13-20.54,10.89-31.35,14.69-34.85,12.24-68.01,7.03-100-9.78-29.92-15.72-54.7-37.8-77.1-62.81-2.58-2.88-5.03-5.86-7.93-9.24,5.37-5.97,10.57-11.98,16.03-17.76,15.06-15.93,31.45-30.32,49.71-42.5,1.5-1,2.65-1.95,4.5-.29,8.46,7.57,17.06,15,25.85,22.7-9.87,15.54-12.91,32.26-8.09,50.1,3.43,12.69,10.51,23.1,20.73,31.33,19.91,16.04,52.03,19.62,78.11-2.23Z"/>
    </g>
  </g>
</svg>