<?xml version="1.0" encoding="UTF-8"?>
<svg id="Layer_2" data-name="Layer 2" xmlns="http://www.w3.org/2000/svg" viewBox="0 0 37 37">
  <defs>
    <style>
      .cls-1 {
        fill: #fff;
        stroke: #7e3080;
        stroke-miterlimit: 10;
      }

      .cls-2 {
        fill: #7e3080;
        stroke-width: 0px;
      }
    </style>
  </defs>
  <g id="Layer_1-2" data-name="Layer 1">
    <g>
      <path class="cls-1" d="m30.86,36.5H6.14c-3.11,0-5.64-2.82-5.64-6.3V6.8C.5,3.32,3.02.5,6.14.5h24.72c3.11,0,5.64,2.82,5.64,6.3v23.4c0,3.48-2.52,6.3-5.64,6.3Z"/>
      <path class="cls-2" d="m28.03,13.91c-.11-.14-.27-.22-.45-.22h-14.09c-.12-.47-.32-1.27-.52-2.07-.41-1.64-1.87-2.78-3.56-2.78-.31,0-.57.25-.57.57s.25.57.57.57c1.17,0,2.18.79,2.46,1.92l2.04,8.15c.16.62.52,1.14,1,1.5-.97.92-.75,2.61.4,3.26-1.02,1.33-.03,3.34,1.67,3.32,1.53.02,2.57-1.68,1.85-3.03h2.96c-.72,1.35.32,3.05,1.85,3.03,2.75-.1,2.75-4.05,0-4.16h-7.27c-1.26-.05-1.26-1.85,0-1.9h7.73c1.23,0,2.3-.84,2.6-2.03l1.41-5.66c.04-.17,0-.35-.1-.48h0Zm-4.38,11.21c.52,0,.95.43.95.95-.05,1.26-1.85,1.26-1.9,0,0-.52.43-.95.95-.95Zm-6.66,0c.52,0,.95.43.95.95-.05,1.26-1.85,1.26-1.9,0,0-.52.43-.95.95-.95Zm8.63-5.33c-.17.69-.79,1.18-1.51,1.18h-7.59c-.71,0-1.33-.48-1.51-1.18l-1.24-4.96h13.08l-1.24,4.96Z"/>
    </g>
  </g>
</svg>