<?xml version="1.0" encoding="UTF-8"?>
<svg id="Layer_2" data-name="Layer 2" xmlns="http://www.w3.org/2000/svg" viewBox="0 0 20.12 17.3">
  <defs>
    <style>
      .cls-1 {
        fill: #4c0c4b;
        stroke-width: 0px;
      }
    </style>
  </defs>
  <g id="Layer_1-2" data-name="Layer 1">
    <g>
      <path class="cls-1" d="m0,6.52c.17-.14.31-.33.5-.41C5.55,4.1,10.59,2.09,15.64.08c.4-.16.55-.09.71.31,1.23,3.08,2.45,6.16,3.68,9.24.17.42.11.57-.31.74-.72.29-1.44.58-2.17.86-.13.05-.17.11-.17.25,0,1.76,0,3.52,0,5.29,0,.42-.12.53-.54.53-5.44,0-10.87,0-16.31,0-.24,0-.42-.06-.53-.28C0,13.52,0,10.02,0,6.52Zm16.58.52H.8v9.45h15.78V7.05Zm-14.16-.85s0,.03.01.04c.74,0,1.48,0,2.22,0,.05,0,.11-.03.15-.06.1-.06.2-.15.31-.2,1.24-.5,2.49-1,3.73-1.49,1.43-.57,2.86-1.13,4.29-1.7.24-.1.37-.05.54.14.52.6,1.17.88,1.96.85.27-.01.38.05.48.3.27.66.53,1.32.8,1.98.03.06.07.16.11.17.31.07.35.28.35.55,0,1.14,0,2.28,0,3.42,0,.07,0,.14,0,.25.63-.25,1.23-.49,1.84-.73-1.17-2.95-2.34-5.87-3.51-8.81-4.44,1.77-8.86,3.53-13.29,5.29Zm4.27,0s0,.02,0,.03h9.42c-.2-.5-.39-.98-.57-1.46-.05-.14-.12-.2-.28-.21-.75-.04-1.4-.33-1.94-.84-.11-.1-.18-.1-.31-.05-1.73.69-3.46,1.38-5.19,2.07-.38.15-.76.3-1.14.46Z"/>
      <path class="cls-1" d="m8.69,7.82c1.59,0,3.18,0,4.77,0,.3,0,.39.08.49.36.26.73.76,1.23,1.49,1.49.28.1.36.19.36.49,0,1.08,0,2.16,0,3.24,0,.27-.08.38-.34.46-.76.26-1.26.77-1.52,1.53-.09.27-.18.33-.5.33-3.18,0-6.35,0-9.53,0-.28,0-.38-.08-.48-.35-.26-.75-.76-1.25-1.51-1.51-.22-.07-.34-.21-.34-.45,0-1.09,0-2.19,0-3.28,0-.29.08-.37.36-.47.73-.26,1.23-.75,1.49-1.49.1-.28.19-.36.49-.36,1.59,0,3.18,0,4.77,0Zm.02,7.11c1.46,0,2.92,0,4.38,0,.12,0,.19-.03.25-.15.32-.7.84-1.21,1.54-1.53.11-.05.14-.11.14-.22,0-.84,0-1.68,0-2.52,0-.12-.03-.18-.15-.23-.7-.32-1.21-.84-1.53-1.53-.05-.1-.1-.14-.22-.14-2.95,0-5.91,0-8.86,0-.11,0-.16.03-.21.13-.32.71-.84,1.22-1.54,1.55-.1.05-.14.1-.14.22,0,.84,0,1.68,0,2.52,0,.12.04.18.15.23.68.32,1.2.82,1.51,1.5.07.15.15.18.3.18,1.46,0,2.92,0,4.38,0Z"/>
      <path class="cls-1" d="m11.06,11.77c0,1.31-1.08,2.38-2.38,2.37-1.31-.01-2.36-1.08-2.36-2.39,0-1.31,1.08-2.36,2.39-2.36,1.3,0,2.35,1.07,2.35,2.38Zm-.79,0c0-.87-.69-1.58-1.56-1.59-.87,0-1.59.7-1.59,1.58,0,.88.71,1.59,1.58,1.59.87,0,1.57-.7,1.57-1.57Z"/>
      <path class="cls-1" d="m4.34,12.36c-.32,0-.59-.27-.59-.59,0-.32.27-.59.59-.59.32,0,.6.28.6.6,0,.32-.27.58-.6.58Zm0-.31c.09-.13.17-.19.18-.27.02-.12-.07-.2-.19-.2-.12,0-.21.08-.18.2.02.08.1.14.19.26Z"/>
      <path class="cls-1" d="m12.45,11.76c0-.32.27-.59.59-.58.32,0,.59.28.59.59,0,.33-.27.6-.61.59-.32,0-.58-.27-.57-.6Zm.81.05s0-.06,0-.08c-.08-.05-.16-.14-.23-.14-.06,0-.16.11-.17.19-.02.12.07.21.19.18.08-.02.14-.1.21-.15Z"/>
    </g>
  </g>
</svg>