<?xml version="1.0" encoding="utf-8"?>
<!-- Generator: Adobe Illustrator 27.8.0, SVG Export Plug-In . SVG Version: 6.00 Build 0)  -->
<svg version="1.1" id="Layer_1" xmlns="http://www.w3.org/2000/svg" xmlns:xlink="http://www.w3.org/1999/xlink" x="0px" y="0px"
	 viewBox="0 0 18.82 19.71" style="enable-background:new 0 0 18.82 19.71;" xml:space="preserve">
<style type="text/css">
	.st0{fill:#4C0C4B;}
</style>
<g>
	<path class="st0" d="M15.83,16.53c-1.32-0.94-3.35-0.44-4.61-2.11c0,0-0.47-0.53,0.59-1.82c1.06-1.29,1.15-3.35,0.88-4.93
		s-1.76-2.64-3.32-2.64S6.31,6.07,6.05,7.66c-0.26,1.59-0.18,3.64,0.88,4.93c1.06,1.29,0.59,1.82,0.59,1.82
		c-1.26,1.67-3.29,1.17-4.61,2.11c-1.32,0.94-1,3.08-1,3.08h7.46h7.46C16.83,19.61,17.15,17.47,15.83,16.53z M9.37,18.61H2.89
		c0.03-0.51,0.17-1.18,0.65-1.52c0.39-0.28,0.91-0.39,1.51-0.52c1-0.22,2.24-0.5,3.15-1.7c0.2-0.26,0.72-1.19-0.59-2.79
		c-0.84-1.03-0.91-2.82-0.68-4.16c0.18-1.08,1.22-1.89,2.43-1.89c1.2,0,2.25,0.81,2.43,1.89c0.22,1.33,0.16,3.12-0.69,4.16
		c-1.31,1.6-0.79,2.53-0.59,2.79c0.91,1.2,2.15,1.48,3.15,1.7c0.6,0.13,1.12,0.25,1.51,0.52c0.48,0.34,0.62,1.01,0.65,1.52H9.37z"/>
	<g>
		<g>
			<path class="st0" d="M9.41,2.85c-0.23,0-0.42-0.19-0.42-0.42v-1.9c0-0.23,0.19-0.42,0.42-0.42c0.23,0,0.42,0.19,0.42,0.42v1.9
				C9.83,2.66,9.64,2.85,9.41,2.85z"/>
		</g>
		<g>
			<path class="st0" d="M12.78,3.78c-0.08,0-0.15-0.02-0.22-0.06c-0.1-0.06-0.17-0.15-0.19-0.26c-0.03-0.11-0.01-0.22,0.05-0.32
				L13.4,1.5c0.08-0.13,0.21-0.21,0.36-0.21c0.08,0,0.15,0.02,0.22,0.06c0.2,0.12,0.27,0.38,0.15,0.58l-0.98,1.64
				C13.07,3.7,12.93,3.78,12.78,3.78z"/>
		</g>
		<g>
			<path class="st0" d="M15.2,6.31c-0.16,0-0.3-0.08-0.37-0.22C14.72,5.88,14.8,5.62,15,5.51l1.68-0.9c0.06-0.03,0.13-0.05,0.2-0.05
				c0.16,0,0.3,0.09,0.37,0.22c0.11,0.21,0.03,0.46-0.17,0.57l-1.68,0.9C15.34,6.29,15.27,6.31,15.2,6.31z"/>
		</g>
		<g>
			<path class="st0" d="M15.97,9.71c-0.11,0-0.22-0.05-0.29-0.14c-0.08-0.08-0.12-0.19-0.11-0.3c0.01-0.23,0.19-0.4,0.42-0.4
				l1.92,0.08c0.11,0,0.22,0.05,0.29,0.14c0.08,0.08,0.12,0.19,0.11,0.3c-0.01,0.23-0.19,0.4-0.42,0.4L15.97,9.71z"/>
		</g>
		<g>
			<path class="st0" d="M6.04,3.78c-0.15,0-0.29-0.08-0.36-0.21L4.7,1.94c-0.06-0.1-0.07-0.21-0.05-0.32
				c0.03-0.11,0.1-0.2,0.19-0.26C4.91,1.32,4.99,1.3,5.06,1.3c0.15,0,0.29,0.08,0.36,0.21L6.4,3.14c0.12,0.2,0.05,0.46-0.15,0.58
				C6.19,3.76,6.11,3.78,6.04,3.78z"/>
		</g>
		<g>
			<path class="st0" d="M3.62,6.31c-0.07,0-0.14-0.02-0.2-0.05l-1.68-0.9C1.64,5.3,1.57,5.21,1.54,5.1
				C1.51,4.99,1.52,4.88,1.57,4.78c0.07-0.14,0.22-0.22,0.37-0.22c0.07,0,0.14,0.02,0.2,0.05l1.68,0.9c0.1,0.05,0.17,0.14,0.2,0.25
				c0.03,0.11,0.02,0.22-0.03,0.32C3.92,6.22,3.77,6.31,3.62,6.31z"/>
		</g>
		<g>
			<path class="st0" d="M0.93,9.8c-0.23,0-0.41-0.18-0.42-0.4c0-0.11,0.03-0.22,0.11-0.3C0.7,9,0.8,8.96,0.91,8.95l1.9-0.08
				c0.25,0,0.43,0.18,0.44,0.4c0,0.11-0.03,0.22-0.11,0.3C3.07,9.66,2.97,9.71,2.85,9.71L0.93,9.8z"/>
		</g>
	</g>
</g>
</svg>
