<?xml version="1.0" encoding="utf-8"?>
<!-- Generator: Adobe Illustrator 27.8.0, SVG Export Plug-In . SVG Version: 6.00 Build 0)  -->
<svg version="1.1" id="Layer_1" xmlns="http://www.w3.org/2000/svg" xmlns:xlink="http://www.w3.org/1999/xlink" x="0px" y="0px"
	 viewBox="0 0 18.82 19.04" style="enable-background:new 0 0 18.82 19.04;" xml:space="preserve">
<style type="text/css">
	.st0{fill:#4C0C4B;}
</style>
<g>
	<path class="st0" d="M17.92,15.41c-0.34-0.63-0.7-1.25-1.06-1.87c-0.05-0.08-0.11-0.16-0.17-0.23c-0.83-0.87-1.65-1.73-2.49-2.59
		c-0.16-0.16-0.34-0.31-0.53-0.43c-0.46-0.3-0.93-0.58-1.39-0.88c-0.28-0.19-0.56-0.31-0.91-0.23c-0.14,0.03-0.29,0.02-0.43,0.03
		c-0.32,0.02-0.64,0.04-0.97,0.06C9.96,9.1,9.94,8.96,9.92,8.81C9.81,7.8,9.7,6.78,9.58,5.76c-0.02-0.22-0.12-0.3-0.34-0.31
		C8.72,5.41,8.2,5.38,7.68,5.34C7.49,5.33,7.29,5.3,7.1,5.28c-0.02,0-0.04,0-0.07,0c-0.1,0.06-0.21,0.11-0.31,0.17
		C6.5,5.59,6.28,5.75,6.05,5.88C5.21,6.34,4.5,6.95,3.87,7.66c-0.55,0.62-1.14,1.2-1.71,1.8C2.08,9.54,2.02,9.62,1.97,9.71
		c-0.37,0.63-0.73,1.27-1.09,1.91c-0.02,0.03-0.04,0.05-0.06,0.08c0,0.09,0,0.18,0,0.27c0.01,0.03,0.02,0.05,0.03,0.08
		c0.07,0.62,0.14,1.24,0.21,1.87c0.03,0.31,0.11,0.39,0.42,0.41c0.73,0.05,1.46,0.1,2.19,0.15c1.41,0.1,2.83,0.2,4.24,0.29
		c0.25,0.02,0.51,0.04,0.77,0.06c-0.05,0.44-0.09,0.85-0.14,1.26c-0.09,0.78-0.18,1.56-0.26,2.33c-0.03,0.25,0.1,0.37,0.34,0.35
		c0.31-0.02,0.61-0.04,0.92-0.06c1.4-0.1,2.79-0.19,4.19-0.29c1.22-0.09,2.45-0.17,3.67-0.26c0.3-0.02,0.36-0.09,0.4-0.41
		c0.07-0.65,0.15-1.3,0.21-1.95C18.01,15.67,17.98,15.52,17.92,15.41z M12.68,10.3c0.36,0.26,0.76,0.47,1.07,0.78
		c0.85,0.84,1.67,1.7,2.47,2.58c0.27,0.3,0.45,0.7,0.67,1.05c-0.02,0.02-0.04,0.04-0.05,0.05c-0.37-0.27-0.77-0.49-1.09-0.81
		c-0.84-0.83-1.67-1.69-2.46-2.57c-0.27-0.3-0.44-0.69-0.66-1.04C12.65,10.34,12.66,10.32,12.68,10.3z M15.31,14.55
		c-0.23,0.38-0.45,0.76-0.68,1.16c-1.02-1.06-2.02-2.11-3.04-3.18c0.44-0.23,0.88-0.46,1.25-0.66c0.28,0.25,0.55,0.47,0.79,0.72
		c0.56,0.57,1.11,1.15,1.66,1.73C15.36,14.4,15.36,14.45,15.31,14.55z M10.69,9.79c0.27-0.02,0.55-0.04,0.82-0.05
		c0.05,0,0.13,0.03,0.16,0.08c0.3,0.51,0.59,1.02,0.89,1.55c-0.44,0.23-0.88,0.46-1.33,0.7c-0.4-0.74-0.8-1.47-1.21-2.23
		C10.26,9.82,10.48,9.81,10.69,9.79z M9.11,6.7C9.2,7.56,9.3,8.37,9.38,9.19c0.01,0.07-0.04,0.15-0.06,0.23
		c-0.04,0.18-0.08,0.36-0.1,0.54c-0.04,0.33-0.07,0.66-0.11,0.98c0,0.03-0.02,0.05-0.04,0.1c-0.06-0.14-0.11-0.26-0.16-0.38
		C8.64,10.03,8.37,9.39,8.1,8.75c-0.03-0.06-0.03-0.16,0-0.21C8.41,7.95,8.72,7.38,9.04,6.8C9.05,6.77,9.07,6.75,9.11,6.7z
		 M6.35,7.4C6.61,6.94,6.88,6.47,7.14,6c0.04-0.08,0.09-0.13,0.19-0.12c0.49,0.04,0.97,0.07,1.49,0.11
		C8.41,6.75,8.02,7.48,7.61,8.22c-0.45-0.23-0.88-0.46-1.32-0.7C6.31,7.48,6.32,7.44,6.35,7.4z M7.26,8.69
		c-1.02,1.06-2.02,2.11-3.04,3.18c-0.25-0.42-0.48-0.83-0.72-1.23c-0.01-0.03,0-0.09,0.02-0.11c0.8-0.84,1.6-1.67,2.4-2.51
		c0,0,0.01,0,0.03-0.01C6.38,8.22,6.8,8.45,7.26,8.69z M2.65,9.78C3.46,8.89,4.3,8.02,5.16,7.17c0.28-0.28,0.66-0.47,1-0.69
		C6.17,6.49,6.18,6.5,6.2,6.51C5.93,6.92,5.74,7.39,5.39,7.75C4.59,8.56,3.83,9.4,3.02,10.2C2.73,10.49,2.34,10.68,2,10.91
		c-0.02-0.02-0.04-0.03-0.05-0.05C2.18,10.5,2.37,10.1,2.65,9.78z M1.45,12.38c-0.07-0.34,0.04-0.52,0.34-0.68
		C2.2,11.47,2.59,11.2,3,10.94c0.02,0.03,0.04,0.05,0.06,0.08c0.23,0.4,0.47,0.8,0.71,1.22c-0.72,0.43-1.44,0.86-2.17,1.31
		C1.55,13.14,1.53,12.75,1.45,12.38z M2.31,13.8c0.06-0.05,0.09-0.07,0.12-0.09c0.55-0.33,1.09-0.66,1.64-0.98
		c0.06-0.04,0.16-0.05,0.23-0.02c1.29,0.48,2.58,0.96,3.86,1.44c0.03,0.01,0.06,0.03,0.09,0.06C6.28,14.07,4.32,13.94,2.31,13.8z
		 M8.93,12.52c-0.05,0.35-0.08,0.7-0.12,1.05c-0.01,0.06-0.02,0.12-0.03,0.2c-1.38-0.52-2.74-1.03-4.12-1.54
		c0.99-1.03,1.97-2.05,2.96-3.09C7.66,9.2,7.69,9.25,7.71,9.3c0.39,0.9,0.77,1.81,1.16,2.71C8.94,12.18,8.96,12.34,8.93,12.52z
		 M9.73,10.55c0.04,0.06,0.07,0.09,0.09,0.13c0.3,0.56,0.61,1.12,0.91,1.68c0.03,0.06,0.04,0.16,0.01,0.23
		c-0.52,1.24-1.05,2.47-1.57,3.7c-0.02,0.04-0.04,0.08-0.06,0.13c-0.01,0-0.02-0.01-0.03-0.01C9.29,14.47,9.51,12.53,9.73,10.55z
		 M9.07,17.98c0.72-1.69,1.42-3.34,2.13-5.01c0.99,1.04,1.97,2.06,2.97,3.1C12.47,16.71,10.79,17.34,9.07,17.98z M10.61,18.05
		c0-0.01,0-0.02-0.01-0.03c0.45-0.17,0.91-0.34,1.36-0.51c0.85-0.32,1.7-0.63,2.54-0.96c0.1-0.04,0.18-0.04,0.28,0.02
		c0.57,0.35,1.15,0.69,1.72,1.07C14.54,17.78,12.58,17.92,10.61,18.05z M17.42,15.87c-0.05,0.5-0.11,1-0.17,1.52
		c-0.73-0.44-1.45-0.87-2.18-1.31c0.25-0.43,0.5-0.86,0.76-1.3c0.52,0.33,1.02,0.64,1.53,0.96C17.39,15.77,17.42,15.83,17.42,15.87z
		"/>
	<g>
		<path class="st0" d="M7.6,1.57c0,0.31,0,0.62,0,0.92c0,0.22-0.12,0.36-0.3,0.36C7.12,2.86,7,2.72,7,2.49c0-0.62,0-1.24,0-1.86
			c0-0.22,0.13-0.36,0.31-0.35c0.18,0,0.29,0.14,0.29,0.35C7.6,0.94,7.6,1.26,7.6,1.57z"/>
		<path class="st0" d="M12.88,2.81c-0.03,0.05-0.07,0.14-0.13,0.21c-0.31,0.32-0.62,0.63-0.93,0.93c-0.16,0.16-0.34,0.17-0.47,0.03
			c-0.12-0.13-0.11-0.3,0.04-0.46c0.31-0.32,0.63-0.63,0.94-0.94c0.1-0.1,0.22-0.15,0.36-0.09C12.81,2.54,12.86,2.64,12.88,2.81z"/>
		<path class="st0" d="M3.36,3.75C3.33,3.99,3.1,4.13,2.9,4.03c-0.05-0.03-0.09-0.06-0.13-0.1c-0.3-0.3-0.61-0.6-0.91-0.91
			C1.8,2.95,1.73,2.85,1.74,2.77c0.01-0.1,0.07-0.22,0.15-0.26c0.08-0.04,0.22-0.03,0.3,0.02c0.13,0.08,0.22,0.2,0.33,0.31
			C2.75,3.06,2.98,3.28,3.2,3.51C3.26,3.58,3.31,3.67,3.36,3.75z"/>
	</g>
</g>
</svg>
