<svg width="27" height="23" viewBox="0 0 27 23" fill="none" xmlns="http://www.w3.org/2000/svg">
<path d="M0.643073 7.48793C0.569608 3.9249 3.41024 0.961835 6.97326 0.888371C9.52003 0.839394 11.7362 2.25971 12.8382 4.37793C13.8422 2.22298 16.0094 0.70471 18.5562 0.643489C22.1314 0.570025 25.0823 3.39841 25.1557 6.97368C25.1557 7.27978 25.1435 7.58588 25.1067 7.89199C25.1067 7.89199 25.1067 8.02667 25.0578 8.25931C25.0578 8.2838 25.0578 8.29604 25.0578 8.32053C24.7394 9.98572 22.9151 16.3159 13.2055 21.6421C1.67158 15.9241 0.728781 8.40624 0.728781 8.40624C0.679805 8.10014 0.643073 7.80628 0.630829 7.48793H0.643073Z" stroke="#212121" stroke-width="1.02" stroke-miterlimit="10"/>
</svg>
