<svg width="22" height="19" viewBox="0 0 22 19" fill="none" xmlns="http://www.w3.org/2000/svg">
<g clip-path="url(#clip0_1188_2818)">
<path d="M0.51 6.10005C0.45 3.19005 2.77 0.770054 5.68 0.710054C7.76 0.670054 9.57 1.83005 10.47 3.56005C11.29 1.80005 13.06 0.560054 15.14 0.510054C18.06 0.450054 20.47 2.76005 20.53 5.68005C20.53 5.93005 20.52 6.18005 20.49 6.43005C20.49 6.43005 20.49 6.54005 20.45 6.73005C20.45 6.75005 20.45 6.76005 20.45 6.78005C20.19 8.14005 18.7 13.3101 10.77 17.6601C1.35 12.9901 0.58 6.85005 0.58 6.85005C0.54 6.60005 0.51 6.36005 0.5 6.10005H0.51Z" stroke="#212121" stroke-width="1.02" stroke-miterlimit="10"/>
</g>
<defs>
<clipPath id="clip0_1188_2818">
<rect width="21.05" height="18.23" fill="white"/>
</clipPath>
</defs>
</svg>
