<?xml version="1.0" encoding="UTF-8"?>
<svg id="Layer_2" data-name="Layer 2" xmlns="http://www.w3.org/2000/svg" viewBox="0 0 11.58 13.45">
  <defs>
    <style>
      .cls-1 {
        fill: none;
        stroke: #6b7377;
        stroke-miterlimit: 10;
        stroke-width: .85px;
      }
    </style>
  </defs>
  <g id="Layer_1-2" data-name="Layer 1">
    <path class="cls-1" d="m11.02,12.02l-.48.62c-.17.21-.42.35-.69.37-.61.04-1.92-.12-3.7-1.15-2.55-1.48-4.46-3.86-5.32-6.68C.26,3.26.41,1.99.58,1.41c.08-.26.26-.47.51-.59l.72-.33c.3-.14.65-.03.83.24l1.79,2.83c.19.31.1.71-.2.9l-.8.5c-.1.06-.14.18-.11.29.01.04.02.08.04.12.52,1.72,1.68,3.18,3.24,4.06.04.02.08.04.11.06.1.05.23.04.31-.04l.67-.67c.26-.26.67-.26.93,0l2.37,2.37c.23.23.26.6.06.86Z"/>
  </g>
</svg>