<?xml version="1.0" encoding="UTF-8"?>
<svg id="Layer_2" data-name="Layer 2" xmlns="http://www.w3.org/2000/svg" viewBox="0 0 53.26 55.47">
  <defs>
    <style>
      .cls-1 {
        stroke-width: 0px;
      }
    </style>
  </defs>
  <g id="Layer_1-2" data-name="Layer 1">
    <g>
      <path class="cls-1" d="m23.16,45.57c-2.73,0-4.95,2.25-4.94,4.99.01,2.71,2.22,4.91,4.93,4.92,2.76.01,4.96-2.19,4.96-4.94,0-2.75-2.21-4.97-4.95-4.96Zm-.01,7.93c-1.63-.02-2.93-1.35-2.92-3,.01-1.66,1.31-2.93,2.97-2.92,1.63.01,2.96,1.35,2.94,2.97-.02,1.61-1.39,2.96-2.99,2.95Z"/>
      <path class="cls-1" d="m22.71,43.03c-3.51,0-6.07-1.94-7.01-5.33l-2.38-8.54c-2.08-7.47-4.17-14.95-6.24-22.43-.25-.9-.74-1.52-1.55-1.96-1.33-.73-2.64-1.48-3.96-2.24l-.97-.56C.12,1.71-.06,1.35.02.87.08.51.28.06.88,0h.04c.31,0,.55.06.74.17,1.78.98,3.55,1.99,5.31,3.01,1.04.6,1.72,1.52,2.08,2.81,1.62,5.83,3.25,11.65,4.88,17.48l2.79,10h23.86c2.8,0,4.63-1.35,5.44-4.02l5.1-16.78c.32-1.06.85-1.06,1.02-1.06.06,0,.12,0,.19.02.36.06.62.21.77.45.18.29.2.69.05,1.17-.55,1.83-2.37,7.82-2.37,7.82l-2.7,8.9c-1.11,3.68-3.72,5.62-7.54,5.63h-23.08s.04.32.04.32c.35,3.17,2.23,5,5.16,5,3.01-.01,5.99-.02,8.96-.02h12.48c.19,0,.39.01.58.03.57.07.9.45.91,1.03,0,.6-.36,1-.95,1.06-.09,0-.18.01-.27.01h-21.67Z"/>
      <path class="cls-1" d="m31.12,1.77c-7.1-.03-12.87,5.73-12.86,12.85,0,7.1,5.72,12.84,12.8,12.85,7.08,0,12.82-5.72,12.83-12.82.02-7.1-5.69-12.85-12.77-12.88Zm-.05,23.6c-5.92,0-10.73-4.83-10.73-10.76,0-5.93,4.82-10.75,10.73-10.75,5.92,0,10.72,4.82,10.73,10.76,0,5.93-4.81,10.75-10.73,10.75Z"/>
      <path class="cls-1" d="m39.33,45.57c-2.73,0-4.95,2.25-4.94,4.99.01,2.71,2.22,4.91,4.93,4.92,2.76.01,4.96-2.19,4.96-4.94,0-2.75-2.21-4.97-4.95-4.96Zm-.01,7.93c-1.63-.02-2.93-1.35-2.92-3,.01-1.66,1.31-2.93,2.97-2.92,1.63.01,2.96,1.35,2.94,2.97-.02,1.61-1.39,2.96-2.99,2.95Z"/>
      <path class="cls-1" d="m35.36,19.94c-.28,0-.55-.11-.76-.31-.59-.57-1.17-1.15-1.75-1.74l-.55-.55c-.22-.22-.43-.44-.66-.68l-.56-.58-2.83,2.86c-.21.21-.41.42-.63.62-.26.24-.56.37-.86.37-.26,0-.51-.1-.71-.3-.43-.43-.41-1.07.06-1.56.81-.83,1.63-1.65,2.46-2.47l.49-.49s.09-.06.16-.1l.17-.1.3-.19-1.14-1.14c-.78-.78-1.53-1.52-2.26-2.28-.27-.28-.43-.53-.49-.75-.16-.59.17-.94.48-1.14.15-.09.33-.14.51-.14.29,0,.57.12.8.35.94.91,1.86,1.84,2.78,2.77.08.09.16.2.24.33l.15.22.19.28,1.16-1.17c.79-.79,1.53-1.54,2.28-2.27.23-.23.48-.39.71-.46.09-.03.19-.05.28-.05.33,0,.66.19.84.5.26.43.2.94-.17,1.32-.66.69-1.35,1.37-2.03,2.05l-.39.38c-.19.19-.39.37-.59.56l-.51.48,1.04,1.03c.77.77,1.52,1.51,2.26,2.27.26.27.43.49.51.71.16.42-.02.93-.42,1.19-.17.11-.36.16-.56.16Z"/>
    </g>
  </g>
</svg>