<?xml version="1.0" encoding="utf-8"?>
<!-- Generator: Adobe Illustrator 27.8.0, SVG Export Plug-In . SVG Version: 6.00 Build 0)  -->
<svg version="1.1" id="Layer_1" xmlns="http://www.w3.org/2000/svg" xmlns:xlink="http://www.w3.org/1999/xlink" x="0px" y="0px"
	 viewBox="0 0 21.63 22.22" style="enable-background:new 0 0 21.63 22.22;" xml:space="preserve">
<style type="text/css">
	.st0{fill:#FF8233;}
	.st1{fill:#008000;}
	.st2{fill:#FFFFFF;}
	.st3{fill:#130080;}
</style>
<g>
	<g>
		<path class="st0" d="M10.81,0.37c-4.67,0-8.65,2.99-10.12,7.15h20.25C19.46,3.36,15.49,0.37,10.81,0.37z"/>
		<path class="st1" d="M0.69,14.7c1.48,4.16,5.45,7.15,10.12,7.15c4.67,0,8.64-2.98,10.12-7.15H0.69z"/>
		<path class="st2" d="M21.55,11.11c0-1.26-0.22-2.46-0.61-3.58H0.69c-0.4,1.12-0.61,2.33-0.61,3.58c0,1.26,0.22,2.47,0.62,3.59
			h20.24C21.33,13.58,21.55,12.37,21.55,11.11z"/>
	</g>
	<g>
		<path class="st3" d="M10.81,7.89c-1.78,0-3.22,1.44-3.22,3.22c0,1.78,1.44,3.22,3.22,3.22s3.22-1.44,3.22-3.22
			C14.03,9.33,12.59,7.89,10.81,7.89 M10.81,8.2l-0.08,1.62l0.09,0.92l0.08-0.92L10.81,8.2c0.09,0,0.17,0,0.25,0.01c0,0,0,0,0,0.01
			c0,0.08,0.06,0.14,0.13,0.14c0.07,0,0.12-0.06,0.13-0.12c0.08,0.02,0.16,0.03,0.24,0.06l-0.5,1.54l-0.16,0.91l0.32-0.87l0.34-1.58
			c0.08,0.03,0.15,0.05,0.23,0.08c0,0.01-0.01,0.03-0.01,0.05c0,0.07,0.06,0.13,0.13,0.13c0.05,0,0.1-0.03,0.12-0.08
			c0.07,0.03,0.14,0.07,0.22,0.12l-0.88,1.35L11,10.8l0.54-0.76l0.74-1.44c0.07,0.04,0.13,0.08,0.2,0.12
			c-0.02,0.03-0.03,0.05-0.03,0.09c0,0.07,0.06,0.13,0.13,0.13c0.04,0,0.08-0.02,0.1-0.06c0.06,0.06,0.12,0.11,0.18,0.17l-1.2,1.08
			l-0.59,0.72l0.71-0.59l1.09-1.2c0.06,0.06,0.11,0.12,0.16,0.18C13,9.26,12.99,9.3,12.99,9.34c0,0.07,0.06,0.13,0.13,0.13
			c0.03,0,0.06-0.01,0.08-0.03c0.05,0.07,0.09,0.14,0.13,0.21l-1.44,0.74l-0.76,0.54l0.84-0.39l1.36-0.89
			c0.04,0.08,0.08,0.16,0.12,0.23c-0.04,0.02-0.08,0.07-0.08,0.13c0,0.07,0.06,0.13,0.13,0.13c0.02,0,0.04,0,0.05-0.01
			c0.03,0.08,0.05,0.15,0.07,0.23l-1.58,0.33l-0.87,0.32l0.91-0.15l1.54-0.49c0.02,0.07,0.04,0.15,0.05,0.23
			c-0.07,0.01-0.12,0.06-0.12,0.13c0,0.07,0.06,0.13,0.13,0.13c0,0,0.01,0,0.01,0c0.01,0.08,0.01,0.16,0.01,0.24l-1.62-0.08
			l-0.93,0.08l0.93,0.09l1.62-0.09c0,0.09,0,0.17-0.01,0.24c0,0-0.01,0-0.01,0c-0.07,0-0.13,0.06-0.13,0.13s0.05,0.12,0.11,0.13
			c-0.02,0.08-0.03,0.16-0.05,0.24l-0.55-0.18l-0.99-0.32l-0.91-0.15h0h0l0.87,0.32l1.58,0.34c-0.02,0.08-0.04,0.16-0.07,0.23
			c0,0-0.01,0-0.02,0l0,0c-0.01,0-0.02,0-0.03,0c-0.08,0-0.14,0.06-0.14,0.13c0,0.02,0,0.03,0.01,0.05l0,0
			c0.01,0.02,0.02,0.04,0.04,0.05l0,0c0,0,0.01,0,0.01,0l0,0c0,0,0.01,0.01,0.01,0.01l0,0c0,0,0.01,0,0.01,0.01
			c-0.03,0.07-0.07,0.15-0.11,0.21l-1.36-0.88h0l-0.84-0.39h0l0.44,0.31l0.31,0.22l0,0l1.44,0.74c-0.04,0.07-0.09,0.15-0.13,0.21
			c-0.02-0.01-0.05-0.02-0.08-0.02c-0.08,0-0.13,0.06-0.13,0.13c0,0.04,0.02,0.08,0.05,0.1c-0.05,0.06-0.11,0.12-0.16,0.18
			l-1.09-1.2l-0.71-0.59l0.59,0.72l1.2,1.08c-0.06,0.06-0.11,0.11-0.17,0.16c-0.03-0.02-0.05-0.03-0.08-0.03
			c-0.07,0-0.13,0.06-0.13,0.13c0,0.03,0,0.04,0.01,0.06c-0.07,0.04-0.14,0.09-0.21,0.14l-0.74-1.44L11,11.43l0,0l0.39,0.84
			l0.88,1.36c-0.07,0.04-0.14,0.08-0.21,0.11c-0.02-0.05-0.07-0.08-0.12-0.08c-0.07,0-0.13,0.06-0.13,0.13c0,0.02,0,0.03,0.01,0.05
			c-0.08,0.03-0.15,0.05-0.23,0.07l-0.34-1.58l-0.32-0.86v0l0.16,0.91l0.5,1.54c-0.08,0.02-0.16,0.04-0.24,0.05
			c-0.01-0.06-0.07-0.11-0.13-0.11c-0.08,0-0.13,0.06-0.13,0.13c0,0.01,0,0.01,0,0.02c-0.08,0.01-0.16,0.01-0.24,0.01l0.08-1.62
			l-0.09-0.93l-0.08,0.93l0.08,1.62c-0.09,0-0.16,0-0.25-0.01c0,0,0-0.01,0-0.02c0-0.07-0.06-0.13-0.13-0.13
			c-0.06,0-0.12,0.05-0.13,0.11c-0.08-0.01-0.16-0.03-0.23-0.05l0.5-1.54l0.15-0.91l-0.32,0.86l-0.34,1.58
			c-0.08-0.02-0.15-0.04-0.23-0.07c0.01-0.02,0.01-0.03,0.01-0.05c0-0.07-0.06-0.13-0.13-0.13c-0.06,0-0.1,0.03-0.13,0.08
			c-0.07-0.03-0.14-0.07-0.21-0.11l0.88-1.36l0.39-0.84l-0.54,0.76l-0.74,1.44c-0.07-0.05-0.14-0.09-0.21-0.14
			c0.01-0.02,0.03-0.04,0.03-0.07c0-0.08-0.06-0.14-0.13-0.14c-0.05,0-0.08,0.02-0.1,0.05c-0.06-0.06-0.12-0.1-0.18-0.16l1.2-1.08
			l0.59-0.72l0,0l-0.71,0.59l-1.09,1.2c-0.06-0.06-0.11-0.12-0.17-0.18c0.03-0.03,0.05-0.06,0.05-0.11c0-0.07-0.06-0.13-0.13-0.13
			c-0.03,0-0.06,0.01-0.08,0.02c-0.05-0.06-0.09-0.13-0.13-0.21l1.44-0.74l0.75-0.53l-0.84,0.39L8.3,12.56
			c-0.04-0.07-0.07-0.14-0.11-0.21c0.05-0.02,0.09-0.06,0.09-0.12c0-0.08-0.06-0.14-0.13-0.14c-0.02,0-0.04,0-0.06,0.01
			c-0.03-0.07-0.05-0.15-0.08-0.24l1.58-0.34l0.87-0.32l-0.92,0.15L8,11.86c-0.02-0.08-0.04-0.15-0.05-0.24
			c0.07-0.01,0.12-0.06,0.12-0.13c0-0.07-0.06-0.13-0.13-0.13c0,0-0.01,0-0.02,0c0-0.08-0.01-0.16-0.01-0.24l1.62,0.09l0.92-0.09
			l-0.92-0.08L7.91,11.1c0-0.08,0.01-0.16,0.01-0.24c0.01,0,0.02,0,0.02,0c0.07,0,0.13-0.06,0.13-0.13c0-0.07-0.05-0.12-0.12-0.13
			c0.02-0.08,0.03-0.16,0.05-0.23l1.54,0.49l0.92,0.15l-0.87-0.32l-1.58-0.34c0.02-0.08,0.05-0.16,0.08-0.23
			c0.01,0,0.03,0.01,0.05,0.01c0.07,0,0.13-0.06,0.13-0.13c0-0.06-0.03-0.1-0.08-0.12C8.22,9.8,8.26,9.73,8.3,9.66l1.36,0.89
			l0.85,0.39l-0.76-0.54L8.3,9.65c0.04-0.07,0.09-0.14,0.13-0.21c0.02,0.02,0.05,0.03,0.08,0.03c0.07,0,0.13-0.06,0.13-0.13
			c0-0.04-0.02-0.08-0.05-0.11c0.05-0.06,0.1-0.12,0.16-0.18l1.09,1.2l0.72,0.59l-0.59-0.72l-1.2-1.08C8.82,9,8.88,8.94,8.94,8.89
			C8.96,8.92,9,8.94,9.05,8.94c0.07,0,0.13-0.06,0.13-0.14c0-0.03-0.01-0.06-0.03-0.08C9.22,8.68,9.29,8.64,9.36,8.6l0.74,1.44
			l0.54,0.75l-0.39-0.84L9.36,8.59c0.07-0.04,0.14-0.08,0.21-0.12C9.6,8.53,9.65,8.56,9.7,8.56c0.08,0,0.13-0.06,0.13-0.13
			c0-0.02,0-0.04-0.01-0.06C9.9,8.35,9.98,8.33,10.06,8.3l0.34,1.58l0.32,0.87l-0.16-0.91l-0.5-1.54c0.08-0.03,0.15-0.04,0.24-0.06
			c0.01,0.06,0.06,0.12,0.13,0.12c0.08,0,0.14-0.06,0.14-0.14c0,0,0-0.01,0-0.01C10.65,8.2,10.73,8.2,10.81,8.2"/>
		<path class="st2" d="M10.82,10.63c0.27,0,0.48,0.22,0.48,0.48c0,0.27-0.21,0.48-0.48,0.48c-0.27,0-0.48-0.22-0.48-0.48
			C10.34,10.85,10.55,10.63,10.82,10.63"/>
		<path class="st3" d="M10.82,10.74c0.2,0,0.37,0.16,0.37,0.37c0,0.21-0.17,0.38-0.37,0.38c-0.21,0-0.38-0.17-0.38-0.38
			C10.44,10.9,10.61,10.74,10.82,10.74"/>
	</g>
</g>
</svg>
