<?xml version="1.0" encoding="utf-8"?>
<!-- Generator: Adobe Illustrator 27.8.0, SVG Export Plug-In . SVG Version: 6.00 Build 0)  -->
<svg version="1.1" id="Layer_1" xmlns="http://www.w3.org/2000/svg" xmlns:xlink="http://www.w3.org/1999/xlink" x="0px" y="0px"
	 viewBox="0 0 26.4 27.1" style="enable-background:new 0 0 26.4 27.1;" xml:space="preserve">
<style type="text/css">
	.st0{fill:#FF8233;}
	.st1{fill:#008000;}
	.st2{fill:#FFFFFF;}
	.st3{fill:#130080;}
</style>
<g>
	<g>
		<path class="st0" d="M13.2,1C7.7,1,3.1,4.5,1.4,9.4H25C23.3,4.5,18.6,1,13.2,1z"/>
		<path class="st1" d="M1.4,17.7c1.7,4.8,6.3,8.3,11.8,8.3s10.1-3.5,11.8-8.3C25,17.7,1.4,17.7,1.4,17.7z"/>
		<path class="st2" d="M25.7,13.5c0-1.5-0.3-2.9-0.7-4.2H1.4c-0.5,1.3-0.7,2.7-0.7,4.2c0,1.5,0.3,2.9,0.7,4.2H25
			C25.4,16.4,25.7,15,25.7,13.5z"/>
	</g>
	<g>
		<path class="st3" d="M13.2,9.8c-2.1,0-3.7,1.7-3.7,3.7s1.7,3.7,3.7,3.7s3.7-1.7,3.7-3.7C16.9,11.5,15.3,9.8,13.2,9.8 M13.2,10.2
			L13.1,12l0.1,1.1l0.1-1.1L13.2,10.2c0.1,0,0.2,0,0.3,0c0,0,0,0,0,0c0,0.1,0.1,0.2,0.2,0.2s0.1-0.1,0.2-0.1c0.1,0,0.2,0,0.3,0.1
			l-0.6,1.8l-0.2,1.1l0.4-1l0.4-1.8c0.1,0,0.2,0.1,0.3,0.1c0,0,0,0,0,0.1c0,0.1,0.1,0.2,0.2,0.2c0.1,0,0.1,0,0.1-0.1
			c0.1,0,0.2,0.1,0.3,0.1l-1,1.6l-0.4,1l0.6-0.9l0.9-1.7c0.1,0,0.2,0.1,0.2,0.1c0,0,0,0.1,0,0.1c0,0.1,0.1,0.2,0.2,0.2
			c0,0,0.1,0,0.1-0.1c0.1,0.1,0.1,0.1,0.2,0.2l-1.4,1.3l-0.7,0.8l0.8-0.7l1.3-1.4c0.1,0.1,0.1,0.1,0.2,0.2c0,0,0,0.1,0,0.1
			c0,0.1,0.1,0.2,0.2,0.2c0,0,0.1,0,0.1,0c0.1,0.1,0.1,0.2,0.2,0.2l-1.7,0.9l-0.9,0.6l1-0.5l1.6-1c0,0.1,0.1,0.2,0.1,0.3
			c0,0-0.1,0.1-0.1,0.2c0,0.1,0.1,0.2,0.2,0.2c0,0,0,0,0.1,0c0,0.1,0.1,0.2,0.1,0.3l-1.8,0.4l-1,0.4l1.1-0.2l1.8-0.6
			c0,0.1,0,0.2,0.1,0.3c-0.1,0-0.1,0.1-0.1,0.2s0.1,0.2,0.2,0.2h0c0,0.1,0,0.2,0,0.3l-1.9-0.1l-1.1,0.1l1.1,0.1l1.9-0.1
			c0,0.1,0,0.2,0,0.3h0c-0.1,0-0.2,0.1-0.2,0.2s0.1,0.1,0.1,0.2c0,0.1,0,0.2-0.1,0.3l-0.6-0.2l-1.2-0.4l-1.1-0.2l0,0l0,0l1,0.4
			l1.8,0.4c0,0.1,0,0.2-0.1,0.3c0,0,0,0,0,0l0,0c0,0,0,0,0,0c-0.1,0-0.2,0.1-0.2,0.2c0,0,0,0,0,0.1l0,0c0,0,0,0,0,0.1l0,0h0l0,0l0,0
			l0,0c0,0,0,0,0,0c0,0.1-0.1,0.2-0.1,0.2l-1.6-1l0,0l-1-0.5l0,0l0.5,0.4l0.4,0.3l0,0l1.7,0.9c0,0.1-0.1,0.2-0.2,0.2
			c0,0-0.1,0-0.1,0c-0.1,0-0.2,0.1-0.2,0.2c0,0,0,0.1,0.1,0.1c-0.1,0.1-0.1,0.1-0.2,0.2l-1.3-1.4l-0.8-0.7l0.7,0.8l1.4,1.3
			c-0.1,0.1-0.1,0.1-0.2,0.2c0,0-0.1,0-0.1,0c-0.1,0-0.2,0.1-0.2,0.2c0,0,0,0,0,0.1c-0.1,0-0.2,0.1-0.2,0.2L14,14.8l-0.6-0.9l0,0
			l0.5,1l1,1.6c-0.1,0-0.2,0.1-0.2,0.1c0-0.1-0.1-0.1-0.1-0.1c-0.1,0-0.2,0.1-0.2,0.2c0,0,0,0,0,0.1c-0.1,0-0.2,0.1-0.3,0.1L13.7,15
			l-0.4-1l0,0l0.2,1.1l0.6,1.8c-0.1,0-0.2,0-0.3,0.1c0-0.1-0.1-0.1-0.2-0.1c-0.1,0-0.2,0.1-0.2,0.2c0,0,0,0,0,0c-0.1,0-0.2,0-0.3,0
			l0.1-1.9L13.2,14L13.1,15l0.1,1.9c-0.1,0-0.2,0-0.3,0c0,0,0,0,0,0c0-0.1-0.1-0.2-0.2-0.2c-0.1,0-0.1,0.1-0.2,0.1
			c-0.1,0-0.2,0-0.3-0.1l0.6-1.8l0.2-1.1l-0.4,1l-0.4,1.8c-0.1,0-0.2,0-0.3-0.1c0,0,0,0,0-0.1c0-0.1-0.1-0.2-0.2-0.2
			c-0.1,0-0.1,0-0.2,0.1c-0.1,0-0.2-0.1-0.2-0.1l1-1.6l0.5-1l-0.6,0.9l-0.9,1.7c-0.1-0.1-0.2-0.1-0.2-0.2c0,0,0,0,0-0.1
			c0-0.1-0.1-0.2-0.2-0.2c-0.1,0-0.1,0-0.1,0.1c-0.1-0.1-0.1-0.1-0.2-0.2l1.4-1.3l0.7-0.8l0,0l-0.8,0.7l-1.3,1.4
			c-0.1-0.1-0.1-0.1-0.2-0.2c0,0,0.1-0.1,0.1-0.1c0-0.1-0.1-0.2-0.2-0.2c0,0-0.1,0-0.1,0c-0.1-0.1-0.1-0.2-0.2-0.2l1.7-0.9l0.9-0.6
			l-1,0.5l-1.6,1c0-0.1-0.1-0.2-0.1-0.2c0.1,0,0.1-0.1,0.1-0.1c0-0.1-0.1-0.2-0.2-0.2c0,0,0,0-0.1,0c0-0.1-0.1-0.2-0.1-0.3l1.8-0.4
			l1-0.4l-1.1,0.2l-1.8,0.6c0-0.1,0-0.2-0.1-0.3c0.1,0,0.1-0.1,0.1-0.2s-0.1-0.2-0.2-0.2c0,0,0,0,0,0c0-0.1,0-0.2,0-0.3l1.9,0.1
			l1.1-0.1l-1.1-0.1l-1.9,0.1c0-0.1,0-0.2,0-0.3c0,0,0,0,0,0c0.1,0,0.2-0.1,0.2-0.2S9.9,13,9.8,13c0-0.1,0-0.2,0.1-0.3l1.8,0.6
			l1.1,0.2l-1-0.4l-1.8-0.4c0-0.1,0.1-0.2,0.1-0.3c0,0,0,0,0.1,0c0.1,0,0.2-0.1,0.2-0.2c0-0.1,0-0.1-0.1-0.1c0-0.1,0.1-0.2,0.1-0.3
			l1.6,1l1,0.5l-0.9-0.6l-1.7-0.9c0-0.1,0.1-0.2,0.2-0.2c0,0,0.1,0,0.1,0c0.1,0,0.2-0.1,0.2-0.2c0,0,0-0.1-0.1-0.1
			c0.1-0.1,0.1-0.1,0.2-0.2l1.3,1.4l0.8,0.7l-0.7-0.8l-1.4-1.3c0.1,0,0.1-0.1,0.2-0.2c0,0,0.1,0.1,0.1,0.1c0.1,0,0.2-0.1,0.2-0.2
			c0,0,0-0.1,0-0.1c0.1,0,0.2-0.1,0.2-0.1l0.9,1.7l0.6,0.9l-0.5-1l-1-1.6c0.1,0,0.2-0.1,0.2-0.1c0,0.1,0.1,0.1,0.2,0.1
			c0.1,0,0.2-0.1,0.2-0.2c0,0,0,0,0-0.1c0.1,0,0.2,0,0.3-0.1l0.4,1.8l0.4,1l-0.2-1.1l-0.6-1.8c0.1,0,0.2,0,0.3-0.1
			c0,0.1,0.1,0.1,0.2,0.1c0.1,0,0.2-0.1,0.2-0.2v0C13,10.2,13.1,10.2,13.2,10.2"/>
		<path class="st2" d="M13.2,13c0.3,0,0.6,0.3,0.6,0.6c0,0.3-0.2,0.6-0.6,0.6c-0.3,0-0.6-0.3-0.6-0.6C12.6,13.2,12.9,13,13.2,13"/>
		<path class="st3" d="M13.2,13.1c0.2,0,0.4,0.2,0.4,0.4c0,0.2-0.2,0.4-0.4,0.4c-0.2,0-0.4-0.2-0.4-0.4
			C12.7,13.3,12.9,13.1,13.2,13.1"/>
	</g>
</g>
</svg>
