<?xml version="1.0" encoding="UTF-8"?>
<svg id="Layer_2" data-name="Layer 2" xmlns="http://www.w3.org/2000/svg" viewBox="0 0 16.84 16.85">
  <defs>
    <style>
      .cls-1 {
        fill: #4c0c4b;
        stroke-width: 0px;
      }
    </style>
  </defs>
  <g id="Layer_1-2" data-name="Layer 1">
    <g>
      <path class="cls-1" d="m16.84,3.83c0-.27-.01-.54-.06-.8C16.42,1.22,14.92,0,13.06,0,9.97,0,6.88,0,3.78,0c-.26,0-.52.02-.77.07C1.22.43,0,1.92,0,3.78,0,6.87,0,9.97,0,13.07c0,.25.02.5.06.75.36,1.8,1.86,3.02,3.72,3.03,3.09,0,6.18,0,9.27,0,.26,0,.52-.02.77-.07,1.8-.36,3.01-1.85,3.02-3.7,0-1.54,0-3.09,0-4.63,0-1.54,0-3.07,0-4.61Zm-3.2,12c-.15.03-.3.03-.45.03-3.18,0-6.36,0-9.54,0-1.36,0-2.41-.89-2.64-2.22-.03-.17-.03-.34-.03-.51,0-1.58,0-3.16,0-4.73,0-1.59,0-3.18,0-4.77,0-1.35.89-2.39,2.22-2.62.15-.03.3-.03.45-.03,3.18,0,6.36,0,9.54,0,1.36,0,2.41.88,2.64,2.22.03.15.03.3.03.45,0,3.18,0,6.36,0,9.54,0,1.36-.88,2.41-2.22,2.64Z"/>
      <path class="cls-1" d="m8.43,3.13c-1.64,0-2.95,1.32-2.94,2.96,0,1.61,1.33,2.92,2.95,2.92,1.61,0,2.93-1.33,2.93-2.94,0-1.62-1.32-2.94-2.93-2.94Zm0,4.84c-1.05,0-1.91-.85-1.91-1.9,0-1.05.86-1.91,1.9-1.91,1.05,0,1.91.85,1.91,1.9,0,1.05-.86,1.91-1.9,1.91Z"/>
      <path class="cls-1" d="m12.36,12.91c-.26,0-.46-.17-.52-.44l-.02-.11c-.04-.2-.09-.4-.18-.59-.39-.79-1.05-1.23-1.91-1.25-.42-.01-.83-.02-1.25-.02s-.87,0-1.31.01c-1.09.02-1.98.8-2.16,1.89-.05.29-.21.48-.45.5h-.02c-.21,0-.34-.06-.44-.17-.1-.12-.15-.28-.12-.45.09-.65.35-1.22.77-1.69.65-.73,1.47-1.11,2.42-1.12.45,0,.9,0,1.35,0,.39,0,.79,0,1.18,0,1.6.03,2.93,1.2,3.16,2.8,0,.38-.19.61-.45.64h-.05Z"/>
    </g>
  </g>
</svg>