<?xml version="1.0" encoding="UTF-8"?>
<svg id="Layer_2" data-name="Layer 2" xmlns="http://www.w3.org/2000/svg" viewBox="0 0 15.28 15.52">
  <defs>
    <style>
      .cls-1 {
        fill: #4c0c4b;
        stroke-width: 0px;
      }
    </style>
  </defs>
  <g id="Layer_1-2" data-name="Layer 1">
    <g>
      <path class="cls-1" d="m4.94,6.66c-.51,0-.86.36-.86.86,0,.98,0,1.96,0,2.94,0,.06,0,.12,0,.17.01.19.05.38.13.55.16.31.43.47.76.54.56.13,1.14.17,1.71.19.7.03,1.41.03,2.11-.01.5-.03,1.01-.07,1.5-.18.37-.08.66-.27.8-.63.07-.18.1-.36.1-.55,0-1.02,0-2.05,0-3.07,0-.13-.03-.26-.1-.38-.16-.28-.4-.42-.72-.43-.05,0-.11,0-.17,0v-.08c0-.36,0-.72,0-1.09,0-.15-.01-.3-.03-.44-.22-1.39-1.51-2.34-2.9-2.14-1.27.19-2.19,1.24-2.21,2.52,0,.38,0,.77,0,1.15,0,.03,0,.05,0,.08-.05,0-.09,0-.13,0Zm1.05-1.21c0-.85.63-1.54,1.47-1.64.92-.11,1.77.58,1.83,1.51.03.44,0,.88.01,1.32,0,0,0,0,0,.02h-3.3s0-.04,0-.07c0-.38,0-.76,0-1.14Zm-.99,2.13h5.28v.07c0,.95,0,1.91,0,2.86,0,.05,0,.1,0,.15,0,.09-.06.14-.14.15-.21.03-.42.08-.63.1-1.01.12-2.02.12-3.03.06-.43-.02-.85-.07-1.28-.15-.16-.03-.2-.07-.2-.23,0-.65,0-1.3,0-1.95,0-.33,0-.66,0-.99v-.07Z"/>
      <path class="cls-1" d="m.88,8.03c-.07-.92.04-1.82.34-2.69.49-1.4,1.35-2.53,2.58-3.35,1.39-.93,2.92-1.28,4.58-1.07,1.13.15,2.15.57,3.07,1.24.12.09.24.18.37.28-.09.01-.16.03-.24.04-.25.04-.5.07-.75.12-.23.04-.37.27-.33.5.04.23.26.38.49.35.63-.1,1.26-.19,1.88-.29.29-.04.44-.25.39-.54-.1-.63-.2-1.26-.3-1.9-.04-.24-.25-.4-.48-.37-.25.03-.41.24-.38.49.02.13.04.25.06.38.02.14.05.29.07.45-.09-.06-.16-.11-.23-.17C10.78.58,9.39.08,7.85,0c-1-.05-1.97.1-2.9.44-1.44.53-2.62,1.41-3.53,2.65-.68.94-1.11,1.98-1.31,3.12-.14.78-.14,1.57-.03,2.36.07.53.22,1.05.41,1.55.07.2.27.31.48.27.26-.05.42-.31.32-.56-.22-.59-.35-1.19-.4-1.81Z"/>
      <path class="cls-1" d="m14.83,5.47c-.02-.06-.04-.12-.08-.17-.12-.19-.36-.25-.56-.15-.2.1-.27.35-.2.53.42,1.12.53,2.27.33,3.44-.19,1.15-.66,2.17-1.4,3.08-.04.05-.09.11-.13.16,0,0-.13.21-.84.8-.12.09-.23.19-.35.27-.99.69-2.09,1.09-3.29,1.19-1.07.09-2.11-.08-3.11-.49-.63-.26-1.19-.62-1.72-1.04,0,0-.02,0-.04-.01,0,0,0-.01.01-.02,0,0,.02,0,.02,0,.31-.05.62-.1.93-.14.24-.04.4-.26.37-.5-.03-.22-.25-.4-.47-.36-.65.1-1.3.2-1.95.31-.23.04-.39.25-.35.48.09.65.19,1.3.29,1.94.04.24.26.4.5.36.22-.03.38-.25.36-.47-.01-.1-.03-.2-.04-.29-.02-.17-.05-.34-.07-.52.04.03.07.05.09.07.38.28.77.55,1.2.77,1.56.8,3.21,1.02,4.92.69,1.35-.27,2.53-.86,3.54-1.77.05-.04.13-.11.22-.2,0,0,.01-.01.02-.02.06-.06.14-.1.17-.18.07-.07.14-.15.22-.24.03-.02.05-.04.05-.06.04-.04.08-.09.11-.13,0,0,0,0,.01-.02.31-.39.58-.8.81-1.24.48-.91.76-1.88.84-2.91.08-1.07-.05-2.12-.43-3.13Z"/>
      <path class="cls-1" d="m7.2,9.53s0,.03,0,.04h0c0,.05,0,.11,0,.16,0,.25.2.43.45.43.24,0,.43-.19.44-.44,0-.11,0-.22,0-.32,0-.03.02-.08.04-.1.23-.25.24-.65,0-.9-.24-.26-.64-.29-.91-.07-.27.23-.33.62-.11.9.07.1.1.19.09.3Z"/>
    </g>
  </g>
</svg>