<?xml version="1.0" encoding="utf-8"?>
<!-- Generator: Adobe Illustrator 27.8.0, SVG Export Plug-In . SVG Version: 6.00 Build 0)  -->
<svg version="1.1" id="Layer_1" xmlns="http://www.w3.org/2000/svg" xmlns:xlink="http://www.w3.org/1999/xlink" x="0px" y="0px"
	 viewBox="0 0 12.4 12.4" style="enable-background:new 0 0 12.4 12.4;" xml:space="preserve">
<style type="text/css">
	.st0{fill:#4C0C4B;}
</style>
<path class="st0" d="M4.9,6.7c-1.3,0-2.6,0-4,0c0-0.3,0-0.6,0-1c1.3,0,2.7,0,4.1,0C4,4.7,3,3.8,2.1,2.8c0.3-0.3,0.5-0.5,0.7-0.7
	C3.7,3,4.7,4,5.7,5c0-1.4,0-2.8,0-4.1c0.3,0,0.6,0,1,0c0,1.3,0,2.7,0,4c1-1,1.9-1.9,2.9-2.9c0.3,0.3,0.5,0.5,0.8,0.8
	C9.4,3.8,8.4,4.7,7.4,5.7c1.4,0,2.7,0,4.1,0c0,0.3,0,0.6,0,1c-1.3,0-2.7,0-4,0c1,1,1.9,1.9,2.8,2.8C10,9.8,9.8,10,9.6,10.3
	C8.6,9.3,7.7,8.4,6.7,7.4c0,1.4,0,2.7,0,4.1c-0.3,0-0.6,0-1,0c0-1.3,0-2.7,0-4c-0.9,0.9-1.9,1.9-2.8,2.8C2.6,10,2.4,9.8,2.2,9.6
	C3.1,8.7,4,7.7,5,6.8C4.9,6.8,4.9,6.7,4.9,6.7z"/>
</svg>
