<?xml version="1.0" encoding="UTF-8"?>
<svg id="Layer_2" data-name="Layer 2" xmlns="http://www.w3.org/2000/svg" viewBox="0 0 16.8 14.79">
  <defs>
    <style>
      .cls-1 {
        fill: #7e3080;
        stroke-width: 0px;
      }
    </style>
  </defs>
  <g id="Layer_1-2" data-name="Layer 1">
    <g>
      <path class="cls-1" d="m1.89,11.64v.16c0,.61.49,1.1,1.1,1.1h4.09c.61,0,1.1-.49,1.1-1.1v-.16c.03-1.12-.71-2.11-1.78-2.42.84-.75.91-2.05.16-2.89s-2.05-.91-2.89-.16c-.84.75-.91,2.05-.16,2.89.05.06.1.11.16.16-1.07.31-1.81,1.3-1.78,2.42Zm3.15-5.35c.78,0,1.42.63,1.42,1.42s-.63,1.42-1.42,1.42-1.42-.63-1.42-1.42.63-1.42,1.42-1.42Zm-.63,3.46h1.26c1.02-.02,1.87.79,1.89,1.81,0,.03,0,.06,0,.08v.16c0,.26-.21.47-.47.47H2.99c-.26,0-.47-.21-.47-.47v-.16c-.02-1.02.79-1.87,1.81-1.89.03,0,.06,0,.08,0Z"/>
      <path class="cls-1" d="m14.79,9.44c-.17,0-.31.14-.31.31v3.93c0,.26-.21.47-.47.47H1.1c-.26,0-.47-.21-.47-.47V4.56c0-.26.21-.47.47-.47h6.92c.17,0,.31-.14.31-.31s-.14-.31-.31-.31H1.1c-.61,0-1.1.49-1.1,1.1v9.13c0,.61.49,1.1,1.1,1.1h12.9c.61,0,1.1-.49,1.1-1.1v-3.93c0-.17-.14-.31-.31-.31Z"/>
      <path class="cls-1" d="m14.51,3.55l-1.98,1.98-1.25-1.25c-.12-.12-.32-.12-.45,0s-.12.32,0,.45l1.47,1.47c.06.06.14.09.22.09.08,0,.16-.03.22-.09l2.2-2.2c.12-.13.11-.33-.02-.44-.12-.11-.3-.11-.42,0Z"/>
      <path class="cls-1" d="m16.72,1.81c-.02-.15-.14-.27-.29-.28-.6-.08-1.19-.24-1.74-.48-.57-.24-1.11-.56-1.58-.96-.12-.11-.3-.11-.42,0-.48.4-1.01.72-1.58.96-.55.24-1.13.41-1.73.48-.15.01-.27.13-.29.28-.01.13-.33,3.28.45,4.83.93,1.85,3.15,2.89,3.24,2.94.08.04.18.04.26,0,.09-.04,2.31-1.08,3.24-2.94.77-1.55.45-4.69.44-4.83Zm-1.01,4.55c-.71,1.41-2.34,2.33-2.81,2.58-.47-.25-2.1-1.17-2.81-2.58-.58-1.16-.46-3.48-.41-4.23.57-.1,1.13-.27,1.67-.5.55-.23,1.07-.53,1.55-.9.48.36,1,.66,1.55.9.53.23,1.09.4,1.67.5.06.76.17,3.08-.41,4.23Z"/>
      <path class="cls-1" d="m9.75,12.9h3.15c.17,0,.31-.14.31-.31s-.14-.31-.31-.31h-3.15c-.17,0-.31.14-.31.31s.14.31.31.31Z"/>
      <path class="cls-1" d="m9.75,11.01h1.89c.17,0,.31-.14.31-.31s-.14-.31-.31-.31h-1.89c-.17,0-.31.14-.31.31s.14.31.31.31Z"/>
    </g>
  </g>
</svg>