<svg width="14" height="19" viewBox="0 0 14 19" fill="none" xmlns="http://www.w3.org/2000/svg">
<g clip-path="url(#clip0_1188_2827)">
<path d="M13.3 18.25C12.96 18.25 12.69 17.98 12.69 17.64C12.69 14.78 10.36 12.45 7.49 12.45H6.42C3.56 12.45 1.22 14.78 1.22 17.64C1.22 17.98 0.95 18.25 0.61 18.25C0.27 18.25 0 17.98 0 17.64C0 14.1 2.88 11.22 6.42 11.22H7.49C11.03 11.22 13.91 14.1 13.91 17.64C13.91 17.98 13.64 18.25 13.3 18.25Z" fill="#212121"/>
<path d="M6.87999 0C4.21999 0 2.03999 2.17 2.03999 4.84C2.03999 7.51 4.20999 9.68 6.87999 9.68C9.54999 9.68 11.72 7.51 11.72 4.84C11.72 2.17 9.54999 0 6.87999 0ZM6.87999 8.53C4.83999 8.53 3.17999 6.87 3.17999 4.83C3.17999 2.79 4.83999 1.13 6.87999 1.13C8.91999 1.13 10.58 2.79 10.58 4.83C10.58 6.87 8.91999 8.53 6.87999 8.53Z" fill="#212121"/>
</g>
<defs>
<clipPath id="clip0_1188_2827">
<rect width="13.91" height="18.25" fill="white"/>
</clipPath>
</defs>
</svg>
