<svg width="16" height="21" viewBox="0 0 16 21" fill="none" xmlns="http://www.w3.org/2000/svg">
<g clip-path="url(#clip0_1274_2204)">
<path d="M15.3041 21C14.9129 21 14.6022 20.6893 14.6022 20.298C14.6022 17.0071 11.9211 14.326 8.61863 14.326H7.3874C4.09644 14.326 1.40384 17.0071 1.40384 20.298C1.40384 20.6893 1.09315 21 0.701918 21C0.310685 21 0 20.6893 0 20.298C0 16.2246 3.31397 12.9106 7.3874 12.9106H8.61863C12.6921 12.9106 16.006 16.2246 16.006 20.298C16.006 20.6893 15.6953 21 15.3041 21Z" fill="#212121"/>
<path d="M7.91673 0C4.85591 0 2.34741 2.49699 2.34741 5.56932C2.34741 8.64164 4.8444 11.1386 7.91673 11.1386C10.9891 11.1386 13.486 8.64164 13.486 5.56932C13.486 2.49699 10.9891 0 7.91673 0ZM7.91673 9.81534C5.56933 9.81534 3.65919 7.90521 3.65919 5.55781C3.65919 3.21041 5.56933 1.30027 7.91673 1.30027C10.2641 1.30027 12.1743 3.21041 12.1743 5.55781C12.1743 7.90521 10.2641 9.81534 7.91673 9.81534Z" fill="#212121"/>
</g>
<defs>
<clipPath id="clip0_1274_2204">
<rect width="16.006" height="21" fill="white"/>
</clipPath>
</defs>
</svg>
