<?xml version="1.0" encoding="UTF-8"?>
<svg id="Layer_2" data-name="Layer 2" xmlns="http://www.w3.org/2000/svg" viewBox="0 0 37 37">
  <defs>
    <style>
      .cls-1 {
        fill: #fff;
        stroke: #7e3080;
        stroke-miterlimit: 10;
      }
    </style>
  </defs>
  <g id="Layer_1-2" data-name="Layer 1">
    <g>
      <path class="cls-1" d="m30.86,36.5H6.14c-3.11,0-5.64-2.82-5.64-6.3V6.8C.5,3.32,3.02.5,6.14.5h24.72c3.11,0,5.64,2.82,5.64,6.3v23.4c0,3.48-2.52,6.3-5.64,6.3Z"/>
      <path class="cls-1" d="m9.79,15.91c-.05-2.54,1.96-4.63,4.5-4.69,1.81-.04,3.39.97,4.17,2.48.72-1.53,2.26-2.61,4.06-2.65,2.54-.05,4.64,1.96,4.69,4.49,0,.22-.01.44-.04.65h0s0,.09-.04.26c0,.01,0,.03,0,.04-.23,1.19-1.53,5.67-8.42,9.46-8.19-4.06-8.87-9.39-8.87-9.39h0c-.03-.21-.06-.43-.07-.65Z"/>
    </g>
  </g>
</svg>