<?xml version="1.0" encoding="utf-8"?>
<!-- Generator: Adobe Illustrator 27.8.0, SVG Export Plug-In . SVG Version: 6.00 Build 0)  -->
<svg version="1.1" id="Layer_1" xmlns="http://www.w3.org/2000/svg" xmlns:xlink="http://www.w3.org/1999/xlink" x="0px" y="0px"
	 viewBox="0 0 16.82 21.06" style="enable-background:new 0 0 16.82 21.06;" xml:space="preserve">
<style type="text/css">
	.st0{fill:#4C0C4B;}
</style>
<g>
	<path class="st0" d="M14.19,0.35H2.63c-1.39,0-2.51,1.13-2.51,2.51V18.2c0,1.39,1.13,2.51,2.51,2.51h11.56
		c1.39,0,2.51-1.13,2.51-2.51V2.86C16.7,1.48,15.58,0.35,14.19,0.35z M16.1,18.2c0,1.06-0.86,1.91-1.91,1.91H2.63
		c-1.06,0-1.91-0.86-1.91-1.91V2.86c0-1.06,0.86-1.91,1.91-1.91h11.56c1.06,0,1.91,0.86,1.91,1.91V18.2z"/>
	<path class="st0" d="M13.11,2.35h-9.3c-0.91,0-1.65,0.74-1.65,1.65V5.4c0,0.91,0.74,1.65,1.65,1.65h9.3c0.91,0,1.65-0.74,1.65-1.65
		V3.99C14.76,3.09,14.02,2.35,13.11,2.35z M14.16,5.4c0,0.58-0.47,1.05-1.05,1.05h-9.3c-0.58,0-1.05-0.47-1.05-1.05V3.99
		c0-0.58,0.47-1.05,1.05-1.05h9.3c0.58,0,1.05,0.47,1.05,1.05V5.4z"/>
	<path class="st0" d="M6.66,10.2H5.7V9.23C5.7,9,5.51,8.82,5.28,8.82C5.05,8.82,4.87,9,4.87,9.23v0.97H3.9
		c-0.23,0-0.41,0.19-0.41,0.41c0,0.23,0.19,0.41,0.41,0.41h0.97v0.97c0,0.23,0.19,0.41,0.41,0.41c0.23,0,0.41-0.19,0.41-0.41v-0.97
		h0.97c0.23,0,0.41-0.19,0.41-0.41C7.08,10.38,6.89,10.2,6.66,10.2z"/>
	<path class="st0" d="M12.93,10.2h-2.74c-0.23,0-0.41,0.18-0.41,0.41c0,0.23,0.18,0.41,0.41,0.41h2.74c0.23,0,0.41-0.18,0.41-0.41
		C13.34,10.39,13.16,10.2,12.93,10.2z"/>
	<path class="st0" d="M6.48,15.37c-0.15-0.15-0.4-0.15-0.55,0l-0.64,0.64l-0.64-0.64c-0.15-0.15-0.4-0.15-0.55,0
		c-0.15,0.15-0.15,0.4,0,0.55l0.64,0.64l-0.64,0.64c-0.15,0.15-0.15,0.4,0,0.55c0.08,0.08,0.18,0.11,0.28,0.11
		c0.1,0,0.2-0.04,0.28-0.11l0.64-0.64l0.64,0.64C6,17.83,6.1,17.87,6.2,17.87s0.2-0.04,0.28-0.11c0.15-0.15,0.15-0.4,0-0.55
		l-0.64-0.64l0.64-0.64C6.63,15.77,6.63,15.52,6.48,15.37z"/>
	<g>
		<path class="st0" d="M12.89,15.56h-2.67c-0.22,0-0.4,0.18-0.4,0.4c0,0.22,0.18,0.4,0.4,0.4h2.67c0.22,0,0.4-0.18,0.4-0.4
			C13.3,15.74,13.12,15.56,12.89,15.56z"/>
		<path class="st0" d="M12.89,16.9h-2.67c-0.22,0-0.4,0.18-0.4,0.4c0,0.22,0.18,0.4,0.4,0.4h2.67c0.22,0,0.4-0.18,0.4-0.4
			C13.3,17.08,13.12,16.9,12.89,16.9z"/>
	</g>
</g>
</svg>
