<?xml version="1.0" encoding="utf-8"?>
<!-- Generator: Adobe Illustrator 27.8.0, SVG Export Plug-In . SVG Version: 6.00 Build 0)  -->
<svg version="1.1" id="Layer_1" xmlns="http://www.w3.org/2000/svg" xmlns:xlink="http://www.w3.org/1999/xlink" x="0px" y="0px"
	 viewBox="0 0 21.71 15.5" style="enable-background:new 0 0 21.71 15.5;" xml:space="preserve">
<style type="text/css">
	.st0{fill:#4C0C4B;}
</style>
<g>
	<g>
		<path class="st0" d="M10.86,7.43C8.97,7.49,7.38,5.82,7.4,3.94C7.41,2.3,8.65,0.5,10.84,0.48c2.08-0.01,3.47,1.66,3.47,3.53
			C14.3,5.89,12.74,7.43,10.86,7.43z M13.41,3.95c0-1.42-1.14-2.58-2.54-2.59C9.46,1.35,8.26,2.54,8.26,3.96
			c0,1.41,1.18,2.63,2.57,2.61C12.51,6.54,13.47,5.16,13.41,3.95z"/>
		<path class="st0" d="M10.92,9.18c0.81,0,1.54-0.03,2.33,0.06c1.56,0.18,2.89,1.48,3.12,3.04c0.11,0.76,0.07,1.55,0.07,2.32
			c0,0.26-0.18,0.42-0.42,0.42c-0.24,0-0.41-0.16-0.42-0.42c-0.02-0.6-0.03-1.2-0.04-1.79c-0.03-1.39-1.33-2.72-2.72-2.74
			c-1.32-0.02-2.65-0.02-3.97,0c-1.27,0.01-2.53,1.12-2.69,2.41c-0.08,0.67-0.04,1.36-0.08,2.04c-0.01,0.16-0.13,0.35-0.26,0.45
			c-0.08,0.06-0.3,0.04-0.39-0.04c-0.11-0.08-0.22-0.26-0.21-0.39c0.02-0.78-0.03-1.59,0.12-2.35c0.35-1.8,1.92-3.02,3.75-3.02
			c0.58,0,1.16,0,1.73,0C10.83,9.18,10.92,9.16,10.92,9.18z"/>
		<path class="st0" d="M4.52,9.13C3.17,9.12,2.12,8.04,2.13,6.69C2.14,5.4,3.24,4.31,4.54,4.31c1.33,0.01,2.39,1.1,2.39,2.46
			C6.92,8.08,5.84,9.14,4.52,9.13z M6.04,6.73c0-0.86-0.67-1.53-1.51-1.53c-0.84,0-1.51,0.68-1.51,1.53c0,0.83,0.7,1.54,1.51,1.54
			C5.36,8.27,6.04,7.57,6.04,6.73z"/>
		<path class="st0" d="M17.18,9.13c-1.34,0-2.39-1.07-2.39-2.41c0-1.32,1.09-2.41,2.41-2.41c1.3,0,2.4,1.12,2.39,2.43
			C19.59,8.07,18.52,9.13,17.18,9.13z M15.69,6.73c0,0.85,0.67,1.54,1.5,1.54c0.82,0.01,1.52-0.7,1.52-1.53
			c0-0.85-0.67-1.53-1.51-1.53C16.36,5.2,15.69,5.87,15.69,6.73z"/>
		<path class="st0" d="M20.31,13.97c-0.04-0.34-0.04-0.69-0.13-1.02c-0.21-0.83-1-1.42-1.86-1.43c-0.26-0.01-0.52,0-0.79,0
			c-0.28,0-0.44-0.17-0.46-0.42c-0.01-0.25,0.15-0.43,0.4-0.45c1.54-0.15,3.1,0.34,3.57,2.19c0.14,0.56,0.1,1.16,0.11,1.75
			c0,0.27-0.25,0.47-0.47,0.45c-0.24-0.02-0.4-0.22-0.4-0.51c0-0.18,0-0.36,0-0.54C20.29,13.97,20.3,13.97,20.31,13.97z"/>
		<path class="st0" d="M0.56,14.07c-0.04-1.06,0.17-1.93,0.88-2.63c0.54-0.52,1.19-0.77,1.92-0.82c0.25-0.02,0.5-0.01,0.76,0
			c0.32,0.01,0.54,0.21,0.53,0.47c-0.01,0.25-0.21,0.41-0.53,0.43c-0.35,0.01-0.72,0-1.06,0.06c-0.96,0.18-1.6,0.96-1.61,1.93
			c-0.01,0.34,0,0.67,0,1.01c0,0.3-0.16,0.49-0.4,0.52c-0.22,0.02-0.45-0.18-0.48-0.45C0.54,14.37,0.56,14.17,0.56,14.07z"/>
	</g>
</g>
</svg>
