<?xml version="1.0" encoding="utf-8"?>
<!-- Generator: Adobe Illustrator 27.8.0, SVG Export Plug-In . SVG Version: 6.00 Build 0)  -->
<svg version="1.1" id="Layer_1" xmlns="http://www.w3.org/2000/svg" xmlns:xlink="http://www.w3.org/1999/xlink" x="0px" y="0px"
	 viewBox="0 0 17.49 17.73" style="enable-background:new 0 0 17.49 17.73;" xml:space="preserve">
<style type="text/css">
	.st0{fill:none;stroke:#4C0C4B;stroke-width:0.9921;stroke-miterlimit:10;}
	.st1{fill:#4C0C4B;}
</style>
<g>
	<path class="st0" d="M8.74,1.62c-4,0-7.25,3.24-7.25,7.25c0,1.47,0.44,2.84,1.2,3.99l-1.2,3.26l3.37-1.12
		c1.12,0.71,2.45,1.12,3.87,1.12c4,0,7.25-3.24,7.25-7.25S12.75,1.62,8.74,1.62z"/>
	<path class="st1" d="M12.74,11.1v1.2c0,0.44-0.36,0.8-0.8,0.81c-0.03,0-0.05,0-0.08,0c-1.24-0.13-2.43-0.56-3.47-1.23
		c-0.97-0.62-1.79-1.44-2.41-2.41C5.3,8.42,4.88,7.23,4.75,5.99C4.71,5.55,5.04,5.16,5.48,5.12c0.02,0,0.05,0,0.07,0h1.21
		c0.4,0,0.75,0.29,0.8,0.69c0.05,0.39,0.15,0.76,0.28,1.13c0.11,0.29,0.04,0.62-0.18,0.85L7.15,8.29c0.57,1,1.41,1.84,2.41,2.41
		l0.51-0.51c0.22-0.22,0.55-0.29,0.85-0.18c0.36,0.14,0.74,0.23,1.13,0.28C12.45,10.34,12.75,10.69,12.74,11.1z"/>
</g>
</svg>
