<svg xmlns="http://www.w3.org/2000/svg" width="30" height="30" viewBox="0 0 30 30">
  <g id="Clear_BT" data-name="Clear BT" transform="translate(-250 -46)">
    <rect id="Rectangle_287" data-name="Rectangle 287" width="30" height="30" rx="9" transform="translate(250 46)" fill="#37083b"/>
    <g id="Clear" transform="translate(245.15 44.45)">
      <path id="Path_1237" data-name="Path 1237" d="M23.808,14.261H21.789l.338-6.13a.552.552,0,0,0-.552-.581H18.208a.552.552,0,0,0-.552.581l.338,6.13H15.976a3.129,3.129,0,0,0-3.126,3.126V25a.552.552,0,0,0,.552.552H26.382A.552.552,0,0,0,26.934,25V17.387a3.129,3.129,0,0,0-3.126-3.126ZM18.789,8.653H21l-.309,5.608H19.1Zm-2.813,6.711h7.832a2.026,2.026,0,0,1,2.022,2.022v.574H13.953v-.574a2.026,2.026,0,0,1,2.022-2.022Zm8.09,9.064V22.744a.552.552,0,0,0-1.1,0v1.684H21.929V20.884a.552.552,0,0,0-1.1,0v3.545H17.009v-2a.552.552,0,0,0-1.1,0v2H13.953V19.063H25.831v5.365Z" transform="translate(0 0)" fill="#fff"/>
    </g>
  </g>
</svg>
