<?xml version="1.0" encoding="UTF-8"?>
<svg id="Layer_2" xmlns="http://www.w3.org/2000/svg" viewBox="0 0 25.18 13.83">
  <defs>
    <style>
      .cls-1 {
        fill: #b7b7b8;
        stroke: #b7b7b8;
        stroke-miterlimit: 10;
        stroke-width: .43px;
      }
    </style>
  </defs>
  <g id="Layer_1-2" data-name="Layer_1">
    <g>
      <path class="cls-1" d="M21.52,13.61c-1.17,0-2.12-.95-2.12-2.12,0-1.17.95-2.12,2.12-2.12,1.17,0,2.12.95,2.12,2.12h0c0,1.17-.95,2.12-2.12,2.12ZM21.52,10.15c-.74,0-1.35.6-1.35,1.35,0,.74.6,1.35,1.35,1.35.74,0,1.35-.6,1.35-1.35h0c0-.74-.6-1.35-1.35-1.35Z"/>
      <path class="cls-1" d="M10.34,13.61c-1.17,0-2.12-.95-2.12-2.12,0-1.17.95-2.12,2.12-2.12,1.17,0,2.12.95,2.12,2.12,0,0,0,0,0,0,0,1.17-.95,2.12-2.12,2.12ZM10.34,10.15c-.74,0-1.35.6-1.35,1.35,0,.74.6,1.35,1.35,1.35.74,0,1.35-.6,1.35-1.35,0,0,0,0,0,0,0-.74-.6-1.35-1.35-1.35Z"/>
      <path class="cls-1" d="M24.31,11.88h-1.06c-.21,0-.39-.17-.39-.39s.17-.39.39-.39h.95v-2.05c0-.28-.07-.55-.21-.79l-2.09-3.75c-.04-.07-.11-.11-.18-.11h-2.85v6.71h.92c.21,0,.39.17.39.39s-.17.39-.39.39h-1.31c-.21,0-.39-.17-.39-.39v-7.48c0-.21.17-.39.39-.39h3.24c.36,0,.68.19.86.5l2.09,3.75c.2.36.3.76.3,1.17v2.16c0,.37-.3.66-.66.66h0Z"/>
      <path class="cls-1" d="M8.61,11.88h-3.71c-.21,0-.39-.17-.39-.39v-2.98c0-.21.17-.39.39-.39s.39.17.39.39h0v2.59h3.32c.21,0,.39.17.39.39s-.17.39-.39.39Z"/>
      <path class="cls-1" d="M4.9,7.15c-.21,0-.39-.17-.39-.39v-2.6c0-.21.17-.39.39-.39s.39.17.39.39v2.6c0,.21-.17.39-.39.39Z"/>
      <path class="cls-1" d="M18.48,11.88h-6.4c-.21,0-.39-.17-.39-.39s.17-.39.39-.39h6.02V.99H5.28v1.59c0,.21-.17.39-.39.39s-.39-.17-.39-.39V.92c0-.39.32-.7.7-.7h12.95c.39,0,.7.31.7.7v10.58c0,.21-.17.39-.39.39Z"/>
      <path class="cls-1" d="M6.43,8.91H1.52c-.21,0-.39-.17-.39-.39s.17-.39.39-.39h4.91c.21,0,.39.17.39.39s-.17.39-.39.39Z"/>
      <path class="cls-1" d="M10.34,7.15H3.49c-.21,0-.39-.17-.39-.39s.17-.39.39-.39h6.85c.21,0,.39.17.39.39s-.17.39-.39.39Z"/>
      <path class="cls-1" d="M3.27,5.1H.6c-.21,0-.39-.17-.39-.39s.17-.39.39-.39h2.68c.21,0,.39.17.39.39s-.17.39-.39.39Z"/>
      <path class="cls-1" d="M7.56,2.97H2.84c-.21,0-.39-.17-.39-.39s.17-.39.39-.39h4.72c.21,0,.39.17.39.39s-.17.39-.39.39Z"/>
    </g>
  </g>
</svg>