<?xml version="1.0" encoding="UTF-8"?>
<svg id="Layer_2" data-name="Layer 2" xmlns="http://www.w3.org/2000/svg" viewBox="0 0 18.55 18.55">
  <defs>
    <style>
      .cls-1 {
        fill: #7e3080;
        stroke-width: 0px;
      }
    </style>
  </defs>
  <g id="Layer_1-2" data-name="Layer 1">
    <path class="cls-1" d="m18.33,17.27l-3.88-3.88c1.18-1.42,1.89-3.24,1.89-5.22C16.34,3.67,12.68,0,8.17,0S0,3.67,0,8.17s3.67,8.17,8.17,8.17c1.98,0,3.8-.71,5.22-1.89l3.88,3.88c.15.15.34.22.53.22s.39-.07.53-.22c.29-.29.29-.77,0-1.07ZM1.51,8.17c0-3.67,2.99-6.66,6.66-6.66s6.66,2.99,6.66,6.66-2.99,6.66-6.66,6.66S1.51,11.84,1.51,8.17Z"/>
  </g>
</svg>