<?xml version="1.0" encoding="UTF-8"?>
<svg id="Layer_2" data-name="Layer 2" xmlns="http://www.w3.org/2000/svg" viewBox="0 0 26.94 18.11">
  <defs>
    <style>
      .cls-1 {
        fill: #fff;
      }

      .cls-1, .cls-2 {
        stroke-width: 0px;
      }

      .cls-2 {
        fill: #7e3080;
      }
    </style>
  </defs>
  <g id="Layer_1-2" data-name="Layer 1">
    <g>
      <g>
        <path class="cls-2" d="m23.18,18.11c-1.27,0-2.31-1.03-2.31-2.31,0-1.27,1.03-2.31,2.31-2.31,1.27,0,2.31,1.03,2.31,2.31h0c0,1.28-1.03,2.31-2.31,2.31Zm0-3.77c-.81,0-1.47.65-1.47,1.46,0,.81.65,1.47,1.46,1.47.81,0,1.47-.65,1.47-1.46h0c0-.81-.66-1.47-1.46-1.47Z"/>
        <path class="cls-2" d="m11.02,18.11c-1.27,0-2.31-1.03-2.31-2.31,0-1.27,1.03-2.31,2.31-2.31,1.27,0,2.31,1.03,2.31,2.31,0,0,0,0,0,0,0,1.27-1.03,2.31-2.31,2.31Zm0-3.77c-.81,0-1.47.65-1.47,1.46,0,.81.65,1.47,1.46,1.47.81,0,1.47-.65,1.47-1.46,0,0,0,0,0,0,0-.81-.66-1.46-1.46-1.47Z"/>
        <path class="cls-2" d="m26.22,16.22h-1.15c-.23,0-.42-.19-.42-.42s.19-.42.42-.42h1.03v-2.23c0-.3-.08-.6-.22-.86l-2.28-4.09c-.04-.07-.11-.12-.2-.12h-3.11v7.3h1c.23,0,.42.19.42.42s-.19.42-.42.42h-1.42c-.23,0-.42-.19-.42-.42V7.66c0-.23.19-.42.42-.42h3.53c.39,0,.74.21.93.55l2.28,4.09c.22.39.33.83.33,1.27v2.35c0,.4-.32.72-.72.72h0Z"/>
        <path class="cls-2" d="m9.13,16.22h-4.04c-.23,0-.42-.19-.42-.42v-3.24c0-.23.19-.42.42-.42s.42.19.42.42h0v2.82h3.61c.23,0,.42.19.42.42s-.19.42-.42.42Z"/>
        <path class="cls-2" d="m5.1,11.07c-.23,0-.42-.19-.42-.42v-2.83c0-.23.19-.42.42-.42s.42.19.42.42v2.83c0,.23-.19.42-.42.42Z"/>
        <path class="cls-2" d="m19.87,16.22h-6.97c-.23,0-.42-.19-.42-.42s.19-.42.42-.42h6.55V4.36H5.52v1.73c0,.23-.19.42-.42.42s-.42-.19-.42-.42v-1.81c0-.42.34-.76.76-.76h14.09c.42,0,.76.34.76.76v11.51c0,.23-.19.42-.42.42Z"/>
        <path class="cls-2" d="m6.76,12.98H1.42c-.23,0-.42-.19-.42-.42s.19-.42.42-.42h5.34c.23,0,.42.19.42.42s-.19.42-.42.42Z"/>
        <path class="cls-2" d="m11.02,11.07H3.56c-.23,0-.42-.19-.42-.42s.19-.42.42-.42h7.45c.23,0,.42.19.42.42s-.19.42-.42.42Z"/>
        <path class="cls-2" d="m3.33,8.84H.42c-.23,0-.42-.19-.42-.42s.19-.42.42-.42h2.91c.23,0,.42.19.42.42s-.19.42-.42.42Z"/>
        <path class="cls-2" d="m8,6.52H2.86c-.23,0-.42-.19-.42-.42s.19-.42.42-.42h5.14c.23,0,.42.19.42.42s-.19.42-.42.42Z"/>
      </g>
      <g>
        <circle class="cls-2" cx="13.45" cy="4.39" r="4.39"/>
        <path class="cls-1" d="m13.45,8.04c-2.01,0-3.65-1.64-3.65-3.65s1.64-3.65,3.65-3.65,3.65,1.64,3.65,3.65-1.64,3.65-3.65,3.65Z"/>
        <path class="cls-2" d="m14.82,5.92c-.08,0-.16-.03-.22-.08l-1.46-1.17c-.09-.07-.13-.17-.13-.28v-2.34c0-.2.16-.36.36-.36s.36.16.36.36v2.2l1.33,1.03c.15.12.18.35.06.5-.07.08-.17.13-.28.13Z"/>
      </g>
    </g>
  </g>
</svg>