<svg xmlns="http://www.w3.org/2000/svg" width="30" height="30" viewBox="0 0 30 30">
  <g id="share" transform="translate(-325 -46)">
    <rect id="Rectangle_287" data-name="Rectangle 287" width="30" height="30" rx="9" transform="translate(325 46)" fill="#37083b"/>
    <path id="Path_1265" data-name="Path 1265" d="M24.136,16.981a3.085,3.085,0,0,0-2.29,1.013l-4.032-2.667a2.92,2.92,0,0,0,0-2.669l4.032-2.667A3.085,3.085,0,0,0,24.136,11,3.007,3.007,0,1,0,21.07,8a2.936,2.936,0,0,0,.323,1.334L17.36,12a3.085,3.085,0,0,0-2.29-1.013,3.007,3.007,0,1,0,0,6.012,3.085,3.085,0,0,0,2.29-1.013l4.032,2.667a2.933,2.933,0,0,0-.323,1.334,3.067,3.067,0,1,0,3.066-3.006Zm0-11.187A2.207,2.207,0,1,1,21.87,8,2.239,2.239,0,0,1,24.136,5.794ZM15.07,16.2a2.207,2.207,0,1,1,2.266-2.206A2.239,2.239,0,0,1,15.07,16.2Zm9.066,5.993A2.207,2.207,0,1,1,26.4,19.987,2.239,2.239,0,0,1,24.135,22.193Z" transform="translate(320.496 47.507)" fill="#fff" stroke="#fff" stroke-width="0.6"/>
  </g>
</svg>
