<?xml version="1.0" encoding="UTF-8"?>
<svg id="Layer_2" data-name="Layer 2" xmlns="http://www.w3.org/2000/svg" viewBox="0 0 45.47 45.47">
  <defs>
    <style>
      .cls-1 {
        fill: #fff;
      }

      .cls-1, .cls-2 {
        stroke-width: 0px;
      }

      .cls-2 {
        fill: #7e3080;
      }
    </style>
  </defs>
  <g id="Layer_1-2" data-name="Layer 1">
    <g>
      <path class="cls-2" d="m32.15,42.81c-.52-.06-1.3-.13-2.08-.23-1.25-.17-2.42,0-3.45.8-.56.44-1.14.85-1.71,1.27-1.55,1.11-2.79,1.11-4.34,0-.59-.42-1.18-.85-1.75-1.29-1-.78-2.14-.93-3.36-.77-.67.09-1.34.18-2.02.23-1.75.14-2.77-.51-3.52-2.19-.29-.66-.58-1.33-.87-2-.44-1.02-1.17-1.74-2.18-2.19-.82-.36-1.67-.69-2.45-1.12-1.45-.79-1.93-1.86-1.72-3.5.12-.91.25-1.81.26-2.73.01-.79-.2-1.5-.64-2.14-.49-.7-1-1.38-1.5-2.07-1.08-1.52-1.08-2.74,0-4.27.19-.27.39-.54.58-.8.24-.33.48-.67.73-.99.79-1,.93-2.14.78-3.36-.09-.75-.19-1.5-.24-2.26-.1-1.45.53-2.5,1.84-3.12.58-.28,1.17-.56,1.78-.78,1.48-.53,2.47-1.52,3.01-3,.21-.59.47-1.17.76-1.73.76-1.53,1.9-2.1,3.6-1.89.94.12,1.87.26,2.82.26.72,0,1.38-.18,1.96-.58.7-.48,1.38-.99,2.07-1.49,1.6-1.17,2.85-1.17,4.46,0,.56.41,1.13.81,1.67,1.24,1.02.8,2.17.95,3.4.78.66-.09,1.31-.17,1.97-.23,1.74-.15,2.79.5,3.53,2.16.26.58.51,1.15.75,1.74.49,1.24,1.36,2.1,2.6,2.6.74.3,1.5.58,2.2.98,1.41.82,1.9,1.86,1.69,3.48-.12.92-.26,1.84-.26,2.77,0,.77.19,1.47.63,2.09.47.67.96,1.33,1.44,1.99,1.17,1.61,1.17,2.86,0,4.46-.41.56-.81,1.13-1.24,1.67-.8,1.01-.95,2.17-.79,3.4.09.66.17,1.31.23,1.97.15,1.74-.49,2.78-2.15,3.54-.52.23-1.04.47-1.57.67-1.4.52-2.34,1.48-2.88,2.88-.27.72-.58,1.43-.95,2.11-.62,1.13-1.58,1.63-3.1,1.6Z"/>
      <g>
        <path class="cls-1" d="m26.49,24.6c-.02,1.13-1.69,2.04-3.75,2.04s-3.73-.91-3.75-2.04c-3.15.29-5.61,2.93-5.61,6.15,0,3.41,2.77,3.41,6.18,3.41h6.37c3.41,0,6.18,0,6.18-3.41,0-3.22-2.46-5.87-5.61-6.15Z"/>
        <path class="cls-1" d="m17.54,20.32c.14.04.28.06.42.06h.29s0,0,0,0c.61,2.76,2.38,4.75,4.47,4.75,1.88,0,3.49-1.61,4.25-3.94.35-.25.65-.54.86-.86.02,0,.04,0,.05,0,.67-.16,1.16-.73,1.16-1.41v-1.14c0-.68-.49-1.25-1.16-1.41v-.18c0-2.68-2.32-4.87-5.18-4.87s-5.18,2.18-5.18,4.87v.18c-.65.17-1.13.74-1.13,1.4v1.14c0,.67.48,1.23,1.13,1.4Zm5.19,4.08c-2.09,0-3.82-2.27-4.09-5.22.18.05.41.14.66.31,0,0-.47-2.77.52-3.16,0,0,1.36.66,2.92.7,1.56-.04,2.92-.7,2.92-.7.99.39.52,3.16.52,3.16.24-.17.47-.26.65-.3v.07c-.03.31-.08.61-.14.9-.64.58-1.75,1-3.02,1.08-.12-.1-.27-.16-.43-.16h-.9c-.37,0-.68.3-.68.68s.3.68.68.68h.9c.18,0,.35-.07.47-.19.94-.05,1.8-.26,2.51-.59-.73,1.66-2.01,2.76-3.47,2.76Zm-.02-12.07c2.08,0,3.8,1.46,4.06,3.35-.83-1.44-2.33-2.41-4.04-2.41s-3.27,1-4.09,2.48c.23-1.92,1.97-3.42,4.07-3.42Z"/>
      </g>
    </g>
  </g>
</svg>