<?xml version="1.0" encoding="UTF-8"?>
<svg id="Layer_2" data-name="Layer 2" xmlns="http://www.w3.org/2000/svg" viewBox="0 0 17.9 10.81">
  <defs>
    <style>
      .cls-1 {
        fill: #6d6c6d;
      }

      .cls-1, .cls-2 {
        stroke: #6d6c6d;
        stroke-miterlimit: 10;
        stroke-width: .28px;
      }

      .cls-2, .cls-3 {
        fill: #fff;
      }

      .cls-3 {
        stroke-width: 0px;
      }
    </style>
  </defs>
  <g id="Layer_1-2" data-name="Layer 1">
    <g>
      <g>
        <path class="cls-1" d="m7.59,5.16s0,0,0,0c0,0,0,0,0,0l4.91,5.43s.09.07.15.07.11-.02.15-.07l4.91-5.43s0,0,0,0c0,0,0,0,0,0,.06-.07.07-.18,0-.25,0,0,0,0,0,0l-1.6-2s-.1-.07-.16-.07h-6.63c-.06,0-.12.03-.16.07l-1.6,2s0,0,0,0c-.06.08-.06.18,0,.25Z"/>
        <polygon class="cls-2" points="11.56 3.23 13.73 3.23 14.69 4.83 10.61 4.83 11.56 3.23"/>
        <polygon class="cls-2" points="10.56 5.23 14.74 5.23 12.65 9.97 10.56 5.23"/>
        <polygon class="cls-2" points="15.18 5.23 17.11 5.23 13.33 9.41 15.18 5.23"/>
        <polygon class="cls-2" points="10.12 5.23 11.97 9.41 8.19 5.23 10.12 5.23"/>
        <polygon class="cls-2" points="17.15 4.83 15.16 4.83 14.2 3.23 15.87 3.23 17.15 4.83"/>
        <polygon class="cls-3" points="9.43 3.23 11.1 3.23 10.14 4.83 8.15 4.83 9.43 3.23"/>
      </g>
      <path class="cls-1" d="m.2,3.01s0,0,0,0c0,0,0,0,0,0l6.04,6.68s.11.08.18.08.14-.03.18-.08l6.04-6.68s0,0,0,0c0,0,0,0,0,0,.08-.09.08-.22,0-.31,0,0,0,0,0,0L10.7.23c-.05-.06-.12-.09-.19-.09H2.35c-.07,0-.15.03-.19.09L.2,2.69s0,0,0,0c-.07.09-.07.22,0,.31Z"/>
      <polygon class="cls-2" points="5.1 .63 7.77 .63 8.95 2.6 3.92 2.6 5.1 .63"/>
      <polygon class="cls-2" points="3.86 3.09 9 3.09 6.43 8.92 3.86 3.09"/>
      <polygon class="cls-2" points="9.54 3.09 11.92 3.09 7.27 8.23 9.54 3.09"/>
      <polygon class="cls-2" points="3.32 3.09 5.59 8.23 .94 3.09 3.32 3.09"/>
      <polygon class="cls-2" points="11.97 2.6 9.52 2.6 8.34 .63 10.39 .63 11.97 2.6"/>
      <polygon class="cls-2" points="2.47 .63 4.52 .63 3.34 2.6 .9 2.6 2.47 .63"/>
    </g>
  </g>
</svg>