<?xml version="1.0" encoding="UTF-8"?>
<svg id="Layer_2" data-name="Layer 2" xmlns="http://www.w3.org/2000/svg" viewBox="0 0 13.87 18.49">
  <defs>
    <style>
      .cls-1 {
        fill: #f5f5f5;
      }

      .cls-1, .cls-2, .cls-3 {
        stroke-width: 0px;
      }

      .cls-2 {
        fill: #7e3080;
      }

      .cls-3 {
        fill: #41479b;
      }
    </style>
  </defs>
  <g id="Layer_1-2" data-name="Layer 1">
    <g>
      <path class="cls-2" d="m11.17,12.14H2.7c-.21,0-.39.17-.39.39s.17.39.39.39h8.48c.21,0,.39-.17.39-.39,0-.21-.17-.39-.39-.39Z"/>
      <path class="cls-2" d="m9.63,14.45h-5.39c-.21,0-.39.17-.39.39s.17.39.39.39h5.39c.21,0,.39-.17.39-.39,0-.21-.17-.39-.39-.39Z"/>
      <path class="cls-2" d="m12.33,0H1.54C.69,0,0,.69,0,1.54v15.41c0,.85.69,1.54,1.54,1.54h10.79c.85,0,1.54-.69,1.54-1.54V1.54c0-.85-.69-1.54-1.54-1.54Zm.77,16.95c0,.42-.35.77-.77.77H1.54c-.42,0-.77-.35-.77-.77V1.54c0-.42.35-.77.77-.77h10.79c.42,0,.77.35.77.77v15.41Z"/>
      <g>
        <path class="cls-2" d="m7.2,8.55c-1.35,0-2.44-1.1-2.44-2.44s1.1-2.44,2.44-2.44,2.44,1.1,2.44,2.44-1.1,2.44-2.44,2.44Zm0-4.43c-1.1,0-1.99.89-1.99,1.99s.89,1.99,1.99,1.99,1.99-.89,1.99-1.99-.89-1.99-1.99-1.99Z"/>
        <circle class="cls-2" cx="7.2" cy="6.1" r=".28"/>
        <polygon class="cls-2" points="7.2 6.15 6.5 6.22 4.98 6.15 4.98 6.06 6.5 5.99 7.2 6.06 7.2 6.15"/>
        <polygon class="cls-2" points="7.2 6.15 7.91 6.22 9.42 6.15 9.42 6.06 7.91 5.99 7.2 6.06 7.2 6.15"/>
        <polygon class="cls-2" points="7.16 6.1 7.09 5.4 7.16 3.89 7.24 3.89 7.31 5.4 7.24 6.1 7.16 6.1"/>
        <polygon class="cls-2" points="7.16 6.1 7.09 6.81 7.16 8.32 7.24 8.32 7.31 6.81 7.24 6.1 7.16 6.1"/>
        <polygon class="cls-2" points="7.17 6.13 6.62 5.69 5.6 4.57 5.66 4.51 6.78 5.53 7.23 6.08 7.17 6.13"/>
        <polygon class="cls-2" points="7.17 6.13 7.62 6.68 8.74 7.7 8.8 7.64 7.78 6.52 7.23 6.08 7.17 6.13"/>
        <polygon class="cls-2" points="7.17 6.08 7.62 5.53 8.74 4.51 8.8 4.57 7.78 5.69 7.23 6.13 7.17 6.08"/>
        <polygon class="cls-2" points="7.17 6.08 6.62 6.52 5.6 7.64 5.66 7.7 6.78 6.68 7.23 6.13 7.17 6.08"/>
        <polygon class="cls-2" points="7.22 6.14 6.59 6.48 5.17 6.99 5.14 6.91 6.51 6.27 7.19 6.07 7.22 6.14"/>
        <polygon class="cls-2" points="7.22 6.14 7.9 5.94 9.27 5.29 9.23 5.22 7.81 5.73 7.19 6.07 7.22 6.14"/>
        <polygon class="cls-2" points="7.16 6.12 6.83 5.5 6.32 4.07 6.39 4.04 7.04 5.41 7.24 6.09 7.16 6.12"/>
        <polygon class="cls-2" points="7.16 6.12 7.37 6.8 8.01 8.17 8.09 8.14 7.58 6.71 7.24 6.09 7.16 6.12"/>
        <polygon class="cls-2" points="7.19 6.14 6.51 5.94 5.14 5.29 5.17 5.22 6.59 5.73 7.22 6.07 7.19 6.14"/>
        <polygon class="cls-2" points="7.19 6.14 7.81 6.48 9.23 6.99 9.27 6.91 7.9 6.27 7.22 6.07 7.19 6.14"/>
        <polygon class="cls-2" points="7.16 6.09 7.37 5.41 8.01 4.04 8.09 4.07 7.58 5.5 7.24 6.12 7.16 6.09"/>
        <polygon class="cls-2" points="7.16 6.09 6.83 6.71 6.32 8.14 6.39 8.17 7.04 6.8 7.24 6.12 7.16 6.09"/>
      </g>
      <circle class="cls-1" cx="7.2" cy="6.1" r=".13"/>
      <circle class="cls-3" cx="7.2" cy="6.1" r=".08"/>
    </g>
  </g>
</svg>