<?xml version="1.0" encoding="utf-8"?>
<!-- Generator: Adobe Illustrator 27.8.0, SVG Export Plug-In . SVG Version: 6.00 Build 0)  -->
<svg version="1.1" id="Layer_1" xmlns="http://www.w3.org/2000/svg" xmlns:xlink="http://www.w3.org/1999/xlink" x="0px" y="0px"
	 viewBox="0 0 17.17 19.76" style="enable-background:new 0 0 17.17 19.76;" xml:space="preserve">
<style type="text/css">
	.st0{fill-rule:evenodd;clip-rule:evenodd;fill:#4C0C4B;stroke:#4C0C4B;stroke-width:0.4252;stroke-miterlimit:10;}
</style>
<g>
	<g>
		<path class="st0" d="M7.5,13.46c-0.46,0-0.83,0.34-0.83,0.76c0,0.85,0.94,1.78,1.9,2.68c0.96-0.9,1.9-1.83,1.9-2.68
			c0-0.42-0.37-0.76-0.83-0.76c-0.4,0-0.61,0.15-0.86,0.63c-0.04,0.08-0.12,0.13-0.21,0.13c-0.09,0-0.17-0.05-0.21-0.13
			C8.1,13.61,7.89,13.46,7.5,13.46L7.5,13.46z M8.56,17.47c-0.06,0-0.12-0.02-0.16-0.07c-1.09-1.02-2.21-2.07-2.21-3.18
			c0-0.68,0.59-1.24,1.31-1.24c0.52,0,0.82,0.21,1.07,0.54c0.24-0.33,0.55-0.54,1.07-0.54c0.72,0,1.31,0.56,1.31,1.24
			c0,1.1-1.12,2.16-2.21,3.18C8.68,17.45,8.62,17.47,8.56,17.47L8.56,17.47z"/>
		<path class="st0" d="M9.3,13.5c-0.13,0-0.24-0.11-0.24-0.24v-0.25c0-0.28-0.31-0.36-0.5-0.36c-0.19,0-0.49,0.07-0.49,0.36v0.25
			c0,0.13-0.11,0.24-0.24,0.24c-0.13,0-0.24-0.11-0.24-0.24v-0.25c0-0.55,0.49-0.83,0.97-0.83c0.48,0,0.97,0.28,0.97,0.83v0.25
			C9.53,13.4,9.42,13.5,9.3,13.5L9.3,13.5z"/>
		<path class="st0" d="M1.97,7.86L1.97,7.86L1.97,7.86z M6.6,1.02c-0.45,0-0.82,0.37-0.82,0.82c0,0.66,0.02,1.2,0.04,1.67
			C5.85,4.74,5.88,5.42,5.42,6C4.99,6.56,4.15,6.99,2.48,7.86l-0.4,0.21c-0.07,0.04-0.14,0.07-0.2,0.1
			c-0.35,0.18-0.58,0.3-0.66,0.44C1.14,8.75,1.15,8.98,1.26,9.44c0.13,0.61,0.66,3.26,1.81,5.31c1.47,2.6,3.33,3.94,5.52,3.99
			c2.2-0.05,4.06-1.39,5.53-3.99c1.15-2.05,1.68-4.69,1.81-5.31c0.1-0.46,0.11-0.7,0.03-0.83c-0.08-0.14-0.31-0.26-0.66-0.44
			c-0.06-0.03-0.13-0.07-0.2-0.1l-0.4-0.21C13.02,6.99,12.18,6.56,11.75,6c-0.45-0.59-0.43-1.26-0.39-2.49
			c0.02-0.47,0.04-1.01,0.04-1.67c0-0.45-0.37-0.82-0.82-0.82L6.6,1.02L6.6,1.02z M8.59,19.22L8.59,19.22
			c-1.31-0.03-2.51-0.48-3.59-1.35c-0.87-0.7-1.66-1.67-2.35-2.89c-1.19-2.11-1.72-4.81-1.86-5.44C0.67,9.02,0.64,8.66,0.81,8.38
			c0.15-0.26,0.43-0.41,0.85-0.63c0.06-0.03,0.13-0.07,0.2-0.1l0.4-0.21C3.87,6.6,4.68,6.18,5.04,5.71
			c0.35-0.45,0.33-0.99,0.29-2.18C5.31,3.08,5.29,2.51,5.29,1.84c0-0.72,0.58-1.3,1.3-1.3h3.98c0.72,0,1.3,0.58,1.3,1.3
			c0,0.67-0.02,1.24-0.04,1.69c-0.04,1.19-0.06,1.73,0.29,2.18c0.37,0.47,1.18,0.89,2.79,1.73l0.4,0.21c0.07,0.04,0.14,0.07,0.2,0.1
			c0.42,0.22,0.7,0.36,0.86,0.63c0.16,0.29,0.13,0.65,0.02,1.17c-0.14,0.63-0.67,3.33-1.86,5.44c-0.68,1.22-1.48,2.19-2.35,2.89
			C11.1,18.74,9.89,19.19,8.59,19.22C8.59,19.22,8.59,19.22,8.59,19.22L8.59,19.22z"/>
		<path class="st0" d="M7.56,10.32c-0.01,0-0.02,0-0.03,0c-2-0.24-3.77-1.09-5.25-2.53c-0.09-0.09-0.1-0.24,0-0.33
			c0.09-0.09,0.24-0.1,0.33,0c1.41,1.36,3.09,2.17,4.98,2.4c0.13,0.02,0.22,0.13,0.21,0.26C7.78,10.23,7.68,10.32,7.56,10.32
			L7.56,10.32z M9.61,10.32c-0.12,0-0.22-0.09-0.23-0.21C9.36,9.97,9.46,9.86,9.58,9.84c1.89-0.23,3.57-1.04,4.98-2.4
			c0.09-0.09,0.24-0.09,0.33,0c0.09,0.09,0.09,0.24,0,0.33c-1.49,1.44-3.26,2.29-5.25,2.53C9.63,10.32,9.62,10.32,9.61,10.32
			L9.61,10.32z"/>
		<path class="st0" d="M8.59,9.29c-0.44,0-0.79,0.35-0.79,0.79s0.35,0.79,0.79,0.79c0.44,0,0.79-0.35,0.79-0.79
			C9.37,9.65,9.02,9.29,8.59,9.29L8.59,9.29z M8.59,11.35c-0.7,0-1.27-0.56-1.27-1.27c0-0.7,0.57-1.27,1.27-1.27
			c0.7,0,1.27,0.57,1.27,1.27C9.85,10.78,9.28,11.35,8.59,11.35L8.59,11.35z"/>
		<path class="st0" d="M8.58,12.66c-0.13,0-0.24-0.11-0.24-0.24v-1.31c0-0.13,0.11-0.24,0.24-0.24c0.13,0,0.24,0.11,0.24,0.24v1.31
			C8.82,12.55,8.71,12.66,8.58,12.66L8.58,12.66z"/>
	</g>
</g>
</svg>
