<?xml version="1.0" encoding="utf-8"?>
<!-- Generator: Adobe Illustrator 27.8.0, SVG Export Plug-In . SVG Version: 6.00 Build 0)  -->
<svg version="1.1" id="Layer_1" xmlns="http://www.w3.org/2000/svg" xmlns:xlink="http://www.w3.org/1999/xlink" x="0px" y="0px"
	 viewBox="0 0 22.6 22.6" style="enable-background:new 0 0 22.6 22.6;" xml:space="preserve">
<style type="text/css">
	.st0{fill:#4C0C4B;}
</style>
<g>
	<g>
		<g>
			<path class="st0" d="M18.09,12.43C17.4,11.55,16.7,10.67,16,9.8c-0.12-0.15-0.23-0.29-0.35-0.45c0.56-0.3,0.9-0.74,0.97-1.36
				c0.07-0.62-0.18-1.13-0.65-1.54c0.04-0.06,0.07-0.11,0.11-0.16c0.46-0.7,0.21-1.64-0.56-1.99c-0.16-0.08-0.19-0.16-0.19-0.32
				c0.01-0.19,0.13-0.24,0.27-0.31c0.56-0.27,0.89-0.72,0.94-1.34c0.05-0.63-0.2-1.14-0.73-1.49c-0.19-0.13-0.43-0.19-0.64-0.28
				c-0.16,0-0.32,0-0.49,0c-0.04,0.01-0.09,0.03-0.13,0.04c-0.7,0.17-1.22,0.79-1.25,1.49c-0.01,0.29,0.13,0.47,0.36,0.49
				c0.25,0.02,0.42-0.15,0.45-0.44c0.04-0.43,0.34-0.74,0.74-0.77c0.39-0.03,0.74,0.22,0.85,0.6c0.11,0.39-0.08,0.79-0.48,0.96
				c-0.48,0.21-0.73,0.57-0.71,1.09c0.01,0.14-0.05,0.19-0.17,0.25c-0.53,0.26-0.8,0.68-0.8,1.27c0,0.34,0.14,0.63,0.33,0.89
				C12.94,7.24,13,8.69,14.2,9.36c-0.04,0.05-0.07,0.1-0.11,0.14c-0.78,0.98-1.55,1.95-2.33,2.93c-0.74,0.93-1.04,1.98-0.88,3.16
				c0.35,2.69,3.28,4.3,5.76,3.15C19.08,17.62,19.78,14.57,18.09,12.43z M14.93,4.97c0.31,0,0.57,0.25,0.57,0.56
				c0,0.31-0.25,0.57-0.56,0.57c-0.31,0-0.57-0.25-0.57-0.56C14.36,5.23,14.61,4.98,14.93,4.97z M14.04,7.81
				c0-0.49,0.38-0.89,0.88-0.89c0.5-0.01,0.91,0.39,0.9,0.89c0,0.49-0.4,0.89-0.89,0.89C14.45,8.7,14.04,8.3,14.04,7.81z
				 M14.77,18.3c-1.25-0.05-2.2-0.67-2.76-1.79c-0.57-1.12-0.53-2.28,0.21-3.3c0.85-1.18,1.79-2.3,2.71-3.46
				c0.59,0.75,1.16,1.46,1.73,2.18c0.29,0.36,0.58,0.71,0.85,1.08c0.82,1.11,0.95,2.31,0.32,3.54C17.2,17.76,16.14,18.36,14.77,18.3
				z"/>
			<path class="st0" d="M15.31,11.8c-0.25-0.31-0.51-0.32-0.76,0c-0.48,0.59-0.95,1.19-1.42,1.79c-0.33,0.42-0.51,0.9-0.51,1.44
				c0,1.5,1.39,2.61,2.83,2.26c1.67-0.4,2.34-2.33,1.27-3.71C16.26,12.97,15.78,12.39,15.31,11.8z M15.92,16.16
				c-0.57,0.49-1.39,0.5-1.97,0.01c-0.56-0.48-0.71-1.33-0.29-1.94c0.39-0.55,0.82-1.06,1.26-1.62c0.44,0.55,0.87,1.06,1.25,1.61
				C16.61,14.82,16.48,15.67,15.92,16.16z"/>
		</g>
	</g>
	<g>
		<g>
			<path class="st0" d="M9.73,15.09c-0.69-0.88-1.39-1.75-2.09-2.63c-0.12-0.15-0.23-0.29-0.35-0.45c0.56-0.3,0.9-0.74,0.97-1.36
				c0.07-0.62-0.18-1.13-0.65-1.54c0.04-0.06,0.07-0.11,0.11-0.16c0.46-0.7,0.21-1.64-0.56-1.99C6.99,6.89,6.96,6.8,6.97,6.65
				C6.97,6.46,7.1,6.4,7.24,6.34C7.8,6.07,8.13,5.62,8.18,5c0.05-0.63-0.2-1.14-0.73-1.49C7.26,3.38,7.03,3.33,6.81,3.24
				c-0.16,0-0.32,0-0.49,0C6.28,3.25,6.24,3.27,6.19,3.28c-0.7,0.17-1.22,0.79-1.25,1.49C4.94,5.06,5.07,5.24,5.31,5.26
				c0.25,0.02,0.42-0.15,0.45-0.44C5.79,4.39,6.09,4.08,6.5,4.05c0.39-0.03,0.74,0.22,0.85,0.6c0.11,0.39-0.08,0.79-0.48,0.96
				C6.39,5.82,6.14,6.18,6.16,6.7C6.17,6.85,6.11,6.9,5.99,6.95c-0.53,0.26-0.8,0.68-0.8,1.27c0,0.34,0.14,0.63,0.33,0.89
				c-0.95,0.79-0.89,2.25,0.31,2.91c-0.04,0.05-0.07,0.1-0.11,0.14c-0.78,0.98-1.55,1.95-2.33,2.93c-0.74,0.93-1.04,1.98-0.88,3.16
				c0.35,2.69,3.28,4.3,5.76,3.15C10.71,20.29,11.42,17.24,9.73,15.09z M6.56,7.64c0.31,0,0.57,0.25,0.57,0.56
				c0,0.31-0.25,0.57-0.56,0.57C6.26,8.77,6,8.52,6,8.21C6,7.89,6.24,7.64,6.56,7.64z M5.68,10.48c0-0.49,0.38-0.89,0.88-0.89
				c0.5-0.01,0.91,0.39,0.9,0.89c0,0.49-0.4,0.89-0.89,0.89C6.08,11.36,5.68,10.97,5.68,10.48z M6.4,20.97
				c-1.25-0.05-2.2-0.67-2.76-1.79c-0.57-1.12-0.53-2.28,0.21-3.3c0.85-1.18,1.79-2.3,2.71-3.46c0.59,0.75,1.16,1.46,1.73,2.18
				c0.29,0.36,0.58,0.71,0.85,1.08c0.82,1.11,0.95,2.31,0.32,3.54C8.83,20.43,7.77,21.03,6.4,20.97z"/>
			<path class="st0" d="M6.95,14.46c-0.25-0.31-0.51-0.32-0.76,0c-0.48,0.59-0.95,1.19-1.42,1.79c-0.33,0.42-0.51,0.9-0.51,1.44
				c0,1.5,1.39,2.61,2.83,2.26c1.67-0.4,2.34-2.33,1.27-3.71C7.89,15.64,7.42,15.05,6.95,14.46z M7.55,18.83
				c-0.57,0.49-1.39,0.5-1.97,0.01C5.02,18.36,4.88,17.5,5.3,16.9c0.39-0.55,0.82-1.06,1.26-1.62c0.44,0.55,0.87,1.06,1.25,1.61
				C8.25,17.49,8.11,18.34,7.55,18.83z"/>
		</g>
	</g>
</g>
</svg>
