<?xml version="1.0" encoding="UTF-8"?>
<svg id="Layer_2" xmlns="http://www.w3.org/2000/svg" viewBox="0 0 18.57 20.13">
  <defs>
    <style>
      .cls-1 {
        fill: #b7b7b8;
      }
    </style>
  </defs>
  <g id="Layer_1-2" data-name="Layer_1">
    <path class="cls-1" d="M14.65,10.17l-.5-5.48c-.02-.25-.23-.44-.48-.44h-2.93v-1.11c0-1.73-1.41-3.14-3.14-3.14s-3.14,1.41-3.14,3.14v1.11H1.53c-.25,0-.45.19-.48.44L0,16.02c-.04.44.1.84.39,1.17.3.33.69.5,1.13.5h7.68c.88,1.46,2.49,2.45,4.32,2.45,2.78,0,5.04-2.26,5.04-5.04,0-2.4-1.68-4.41-3.92-4.92h0ZM5.41,3.14c0-1.2.98-2.18,2.18-2.18s2.18.98,2.18,2.18v1.11h-4.37v-1.11ZM1.53,16.73c-.17,0-.3-.06-.42-.18-.11-.13-.16-.26-.15-.43L1.96,5.21h2.49v.87c0,.26.21.48.48.48s.48-.21.48-.48v-.87h4.37v.87c0,.26.21.48.48.48s.48-.21.48-.48v-.87h2.49l.44,4.83s-.1,0-.14,0c-2.78,0-5.04,2.26-5.04,5.04,0,.57.1,1.12.27,1.64H1.53ZM13.53,19.17c-2.25,0-4.08-1.83-4.08-4.08s1.83-4.08,4.08-4.08,4.08,1.83,4.08,4.08-1.83,4.08-4.08,4.08h0ZM15.78,13.59c.18.19.18.49-.01.68l-2.45,2.34c-.09.09-.21.13-.33.13s-.23-.04-.32-.13l-1.36-1.25c-.19-.18-.21-.48-.03-.68.18-.2.48-.21.68-.03l1.03.95,2.12-2.03c.19-.18.49-.18.68.01h0Z"/>
  </g>
</svg>