<svg width="29" height="30" viewBox="0 0 29 30" fill="none" xmlns="http://www.w3.org/2000/svg">
<path d="M27.8575 14.42C26.7975 13.55 25.2275 13.59 24.2175 14.51L20.7675 17.65C20.2775 16.98 19.4975 16.57 18.6375 16.57H14.9875C14.5275 16.57 14.0775 16.49 13.6675 16.34C12.6375 15.96 10.5975 15.44 8.5475 16.29C8.1575 16.45 7.7675 16.69 7.3875 17.01L3.8175 19.99C3.2575 19.66 2.5375 19.73 2.0575 20.21L0.4275 21.84C-0.1425 22.41 -0.1425 23.32 0.4275 23.89L5.8775 29.34C6.4375 29.9 7.3575 29.9 7.9275 29.34L9.5575 27.71C10.1175 27.15 10.1175 26.23 9.5575 25.66L9.4975 25.6L9.8975 25.2C10.6375 24.46 11.6375 24.07 12.6475 24.13C15.1975 24.3 20.3175 24.14 22.1275 22.33L27.9675 16.49C28.5575 15.9 28.5075 14.94 27.8675 14.41L27.8575 14.42ZM8.9075 27.05L7.2775 28.68C7.0675 28.89 6.7375 28.89 6.5275 28.68L1.0775 23.23C0.867498 23.02 0.867498 22.69 1.0775 22.48L2.7075 20.85C2.9175 20.64 3.2475 20.64 3.4575 20.85C3.6275 21.02 8.9975 26.39 8.9075 26.3C9.1175 26.51 9.1175 26.84 8.9075 27.05ZM27.3075 15.85L21.4675 21.69C19.8975 23.26 14.8875 23.36 12.6975 23.22C11.4275 23.14 10.1675 23.62 9.2375 24.55L8.8375 24.95C2.9075 18.98 4.9575 21.04 4.5175 20.59L7.9675 17.71C8.2775 17.45 8.5875 17.26 8.8875 17.14C10.6475 16.41 12.4275 16.87 13.3375 17.2C13.8575 17.39 14.4075 17.49 14.9775 17.49H18.6275C19.5875 17.49 20.3475 18.27 20.3375 19.21C20.3375 19.5 20.0975 19.73 19.7975 19.73H11.5875C11.3375 19.73 11.1275 19.94 11.1275 20.19C11.1275 20.44 11.3375 20.65 11.5875 20.65H19.7975C20.5975 20.65 21.2475 20.01 21.2475 19.22C21.2475 18.98 21.2175 18.75 21.1575 18.53L24.8175 15.2C25.4975 14.58 26.5475 14.55 27.2575 15.14C27.4775 15.32 27.4975 15.66 27.2875 15.86L27.3075 15.85Z" fill="#7E3080"/>
<path d="M14.2276 9.70998C14.3876 9.85998 14.4576 10.09 14.4176 10.3L14.1776 11.71C13.9576 13 15.3176 14 16.4876 13.38L17.7576 12.71C17.9576 12.61 18.1876 12.61 18.3876 12.71L19.6476 13.38C20.8176 14 22.1776 13.01 21.9576 11.71L21.7176 10.29C21.6776 10.07 21.7576 9.85 21.9076 9.7L22.9276 8.7C23.8676 7.78 23.3476 6.17998 22.0476 5.98998L20.6276 5.77999C20.4076 5.74999 20.2176 5.60999 20.1176 5.40999L19.4876 4.13C18.9076 2.95 17.2176 2.95 16.6376 4.13L15.9976 5.42C15.8976 5.62 15.7076 5.75 15.4976 5.79L14.0876 5.99999C12.7876 6.18999 12.2676 7.78998 13.2076 8.70998L14.2276 9.70998ZM14.2176 6.90999L15.6276 6.7C16.1476 6.63 16.5876 6.29998 16.8276 5.82998L17.4676 4.54C17.7176 4.04 18.4276 4.04 18.6676 4.54L19.2976 5.82C19.5276 6.29 19.9776 6.60999 20.4976 6.68999L21.9176 6.89998C22.4676 6.97998 22.6876 7.65998 22.2876 8.04998L21.2676 9.04998C20.8976 9.40998 20.7276 9.94 20.8076 10.45L21.0476 11.87C21.1376 12.42 20.5676 12.84 20.0676 12.58L18.8076 11.91C18.3476 11.66 17.7876 11.66 17.3276 11.91L16.0576 12.58C15.5676 12.84 14.9876 12.42 15.0776 11.87L15.3176 10.46C15.4076 9.93998 15.2376 9.41998 14.8576 9.04998L13.8376 8.04998C13.4376 7.65998 13.6576 6.98998 14.2076 6.89998L14.2176 6.90999Z" fill="#7E3080"/>
<path d="M18.0674 1.95999C18.3174 1.95999 18.5274 1.75 18.5274 1.5V0.839996C18.5274 0.589996 18.3174 0.380005 18.0674 0.380005C17.8174 0.380005 17.6074 0.589996 17.6074 0.839996V1.5C17.6074 1.75 17.8174 1.95999 18.0674 1.95999Z" fill="#7E3080"/>
<path d="M14.2173 2.65996C14.3473 2.87996 14.6273 2.94994 14.8473 2.82994C15.0673 2.69994 15.1373 2.41997 15.0173 2.19997L14.6873 1.62996C14.5573 1.40996 14.2773 1.32995 14.0573 1.45995C13.8373 1.58995 13.7673 1.86995 13.8873 2.08995L14.2173 2.65996Z" fill="#7E3080"/>
<path d="M11.2775 5.02996L11.8475 5.35995C12.0675 5.48995 12.3475 5.40997 12.4775 5.18997C12.6075 4.96997 12.5275 4.68996 12.3075 4.55996L11.7375 4.22998C11.5175 4.09998 11.2375 4.17996 11.1075 4.39996C10.9775 4.61996 11.0575 4.89996 11.2775 5.02996Z" fill="#7E3080"/>
<path d="M10.4873 8.87997H11.1473C11.3973 8.87997 11.6073 8.66998 11.6073 8.41998C11.6073 8.16998 11.3973 7.95996 11.1473 7.95996H10.4873C10.2373 7.95996 10.0273 8.16998 10.0273 8.41998C10.0273 8.66998 10.2373 8.87997 10.4873 8.87997Z" fill="#7E3080"/>
<path d="M24.5273 8.41998C24.5273 8.66998 24.7373 8.87997 24.9873 8.87997H25.6473C25.8973 8.87997 26.1073 8.66998 26.1073 8.41998C26.1073 8.16998 25.8973 7.95996 25.6473 7.95996H24.9873C24.7373 7.95996 24.5273 8.16998 24.5273 8.41998Z" fill="#7E3080"/>
<path d="M24.2873 5.35995L24.8573 5.02996C25.0773 4.89996 25.1473 4.61996 25.0273 4.39996C24.8973 4.17996 24.6173 4.09998 24.3973 4.22998L23.8273 4.55996C23.6073 4.68996 23.5373 4.96997 23.6573 5.18997C23.7873 5.40997 24.0673 5.47995 24.2873 5.35995Z" fill="#7E3080"/>
<path d="M21.2976 2.82994C21.5176 2.95994 21.7976 2.87996 21.9276 2.65996L22.2576 2.08995C22.3876 1.86995 22.3076 1.58995 22.0876 1.45995C21.8676 1.32995 21.5876 1.40996 21.4576 1.62996L21.1276 2.19997C20.9976 2.41997 21.0776 2.69994 21.2976 2.82994Z" fill="#7E3080"/>
</svg>
