<svg width="19" height="18" viewBox="0 0 19 18" fill="none" xmlns="http://www.w3.org/2000/svg">
<path d="M4.55159 5.83623C4.55159 5.70596 4.65675 5.60079 4.78702 5.60079H13.5764C13.7067 5.60079 13.8118 5.70595 13.8118 5.83623C13.8118 5.9665 13.7067 6.07166 13.5764 6.07166H4.78702C4.65675 6.07166 4.55159 5.9665 4.55159 5.83623ZM4.78702 3.87432H13.5764C13.7067 3.87432 13.8118 3.76916 13.8118 3.63888C13.8118 3.50861 13.7067 3.40345 13.5764 3.40345H4.78702C4.65675 3.40345 4.55159 3.50861 4.55159 3.63888C4.55159 3.76916 4.65675 3.87432 4.78702 3.87432ZM18.0496 12.4282C18.0496 15.5006 15.5502 18 12.4779 18H1.49106C0.668615 18 0 17.3314 0 16.5089V12.7421C0 12.6118 0.105159 12.5066 0.235435 12.5066H2.51123V0.732083C2.51123 0.533538 2.61403 0.356179 2.78668 0.257296C2.95933 0.156846 3.1665 0.158415 3.33916 0.258866L4.31306 0.830968C4.34053 0.847448 4.36721 0.847449 4.39389 0.831753L5.68562 0.0775947C5.85984 -0.0259954 6.06938 -0.0259953 6.24436 0.0783795L7.5298 0.830971C7.55727 0.847451 7.58395 0.847451 7.61063 0.831756L8.89922 0.0775972C9.07344 -0.0259929 9.28298 -0.0259929 9.45877 0.0783819L10.7442 0.830973C10.7725 0.847453 10.7991 0.847453 10.8258 0.831758L12.1207 0.0775996C12.2886 -0.0252049 12.5029 -0.0259905 12.6763 0.0799537L13.968 0.830978C13.9947 0.847458 14.019 0.847458 14.041 0.834117L15.0282 0.259664C15.1985 0.159214 15.4041 0.158428 15.576 0.257309C15.7495 0.35619 15.853 0.53433 15.853 0.733663V8.00604C17.1856 9.02467 18.0505 10.6264 18.0505 12.4299L18.0496 12.4282ZM1.49106 17.5293C2.05374 17.5293 2.51125 17.0718 2.51125 16.5091V12.9777H0.47091V16.5091C0.47091 17.0718 0.928379 17.5293 1.49106 17.5293ZM10.2443 17.5293C9.03417 16.9972 8.05165 16.0461 7.47326 14.8611H4.78783C4.65756 14.8611 4.55239 14.756 4.55239 14.6257C4.55239 14.4954 4.65755 14.3903 4.78783 14.3903H7.26995C7.06513 13.8496 6.94427 13.2696 6.91837 12.6638H4.78783C4.65756 12.6638 4.55239 12.5586 4.55239 12.4283C4.55239 12.2981 4.65755 12.1929 4.78783 12.1929H6.91837C6.94349 11.5871 7.06512 11.0071 7.26995 10.4664H4.78783C4.65756 10.4664 4.55239 10.3613 4.55239 10.231C4.55239 10.1007 4.65755 9.99554 4.78783 9.99554H7.47326C7.79502 9.33635 8.24076 8.75169 8.78381 8.26905H4.78771C4.65744 8.26905 4.55227 8.16389 4.55227 8.03361C4.55227 7.90334 4.65743 7.79818 4.78771 7.79818H9.3833C10.2693 7.20412 11.3334 6.85646 12.4784 6.85646C13.5433 6.85646 14.5352 7.16173 15.382 7.68204L15.3812 0.732103C15.3812 0.692866 15.3561 0.673246 15.3419 0.664613C15.3278 0.656765 15.2988 0.644994 15.2658 0.664613L14.2817 1.23672C14.113 1.33952 13.8988 1.33952 13.7261 1.23358L12.4344 0.483336C12.4077 0.466856 12.3834 0.466856 12.3622 0.480197L11.0642 1.23671C10.8908 1.33951 10.6804 1.33951 10.5055 1.23592L9.22002 0.483329C9.19177 0.466849 9.16587 0.466849 9.13919 0.482544L7.8506 1.2367C7.67638 1.33951 7.46684 1.34029 7.29186 1.23592L6.00563 0.483327C5.97817 0.466847 5.95149 0.466846 5.9248 0.482542L4.63308 1.2367C4.45886 1.34029 4.24932 1.3395 4.07434 1.23592L3.10202 0.665399C3.06749 0.644996 3.03688 0.656767 3.02197 0.665399C3.00706 0.674032 2.98273 0.69365 2.98273 0.732104V16.509C2.98273 16.9045 2.825 17.2624 2.57308 17.5292L10.2443 17.5293ZM17.5787 12.4282C17.5787 9.61564 15.2903 7.32719 12.4777 7.32719C9.66508 7.32719 7.37663 9.61564 7.37663 12.4282C7.37663 15.2408 9.66508 17.5293 12.4777 17.5293C15.2903 17.5293 17.5787 15.2408 17.5787 12.4282ZM15.1971 10.4859L11.8673 13.8157C11.8367 13.8463 11.7873 13.8463 11.7567 13.8157L9.75868 11.8176C9.66686 11.7258 9.51776 11.7258 9.42595 11.8176C9.33413 11.9095 9.33413 12.0586 9.42595 12.1504L11.424 14.1484C11.5307 14.2559 11.672 14.3093 11.8124 14.3093C11.9529 14.3093 12.0941 14.2559 12.2009 14.1484L15.5306 10.8187C15.6224 10.7269 15.6224 10.5778 15.5306 10.4859C15.4388 10.3941 15.2897 10.3941 15.1979 10.4859H15.1971Z" fill="#7E3080"/>
</svg>
