<?xml version="1.0" encoding="UTF-8"?>
<svg id="Layer_2" xmlns="http://www.w3.org/2000/svg" viewBox="0 0 400 125">
  <defs>
    <style>
      .cls-1 {
        fill: #f2f0f0;
      }

      .cls-2 {
        fill: #20336b;
      }

      .cls-3 {
        fill: #00baf2;
      }
    </style>
  </defs>
  <g id="Layer_1-2" data-name="Layer_1">
    <g>
      <rect class="cls-1" width="400" height="125" rx="30.35" ry="30.35"/>
      <g>
        <path class="cls-3" d="M358.42,41.99c-2.91-8.28-10.8-14.23-20.04-14.23h-.21c-6.02,0-11.45,2.52-15.32,6.54-3.87-4.02-9.29-6.54-15.32-6.54h-.18c-5.3,0-10.15,1.95-13.86,5.14v-1.61c-.13-1.64-1.45-2.91-3.12-2.91h-14.23c-1.74,0-3.14,1.4-3.14,3.14v77.21c0,1.74,1.4,3.14,3.14,3.14h14.23c1.58,0,2.91-1.19,3.09-2.7v-55.43c0-.21,0-.36.03-.55.23-2.47,2.05-4.52,4.91-4.75h2.62c1.19.1,2.21.52,2.99,1.17,1.25.99,1.92,2.49,1.92,4.15l.05,55.14c0,1.74,1.4,3.17,3.14,3.17h14.23c1.69,0,3.04-1.32,3.12-2.99v-55.37c0-1.82.83-3.48,2.31-4.44.73-.47,1.61-.78,2.62-.88h2.62c3.09.26,4.93,2.6,4.93,5.32l.05,55.09c0,1.74,1.4,3.14,3.14,3.14h14.23c1.66,0,3.04-1.3,3.14-2.93v-60.41c-.08-3.4-.52-4.98-1.09-6.62h0ZM262.16,28.6h-8.13v-13.24c0-1.56-1.27-2.86-2.88-2.86-.18,0-.36.03-.55.05-9.01,2.47-7.22,14.95-23.68,16.02h-1.58c-.23,0-.47.03-.7.08h-.03.03c-1.38.34-2.44,1.58-2.44,3.09v14.23c0,1.74,1.4,3.14,3.14,3.14h8.57l-.03,60.28c0,1.71,1.4,3.12,3.12,3.12h14.07c1.71,0,3.12-1.4,3.12-3.12v-60.28h7.97c1.71,0,3.14-1.43,3.14-3.14v-14.23c0-1.74-1.4-3.14-3.14-3.14h0Z"/>
        <path class="cls-2" d="M211.02,28.6h-14.23c-1.71,0-3.14,1.4-3.14,3.14v29.41c-.03,1.82-1.51,3.27-3.32,3.27h-5.94c-1.84,0-3.35-1.48-3.35-3.32l-.05-29.36c0-1.74-1.4-3.14-3.14-3.14h-14.23c-1.74,0-3.14,1.4-3.14,3.14v32.22c0,12.23,8.72,20.98,20.98,20.98,0,0,9.19,0,9.48.05,1.66.18,2.93,1.58,2.93,3.3s-1.25,3.09-2.91,3.3c-.08,0-.16.03-.23.05l-20.79.08c-1.74,0-3.14,1.4-3.14,3.14v14.2c0,1.74,1.4,3.14,3.14,3.14h23.23c12.25,0,20.98-8.72,20.98-20.95V31.74c.03-1.74-1.38-3.14-3.12-3.14h0ZM130.13,28.67h-19.73c-1.74,0-3.17,1.32-3.17,2.93v13.34c0,1.71,1.51,3.14,3.35,3.14h18.8c1.48.23,2.65,1.32,2.83,3.01v1.84c-.16,1.61-1.32,2.78-2.75,2.91h-9.29c-12.38,0-21.18,8.23-21.18,19.76v16.54c0,11.47,7.58,19.63,19.86,19.63h25.78c4.62,0,8.39-3.5,8.39-7.81v-53.95c0-13.08-6.75-21.34-22.87-21.34h0ZM132.39,88.02v2.23c0,.18-.03.36-.05.52-.03.16-.08.31-.13.47-.44,1.25-1.69,2.15-3.17,2.15h-5.92c-1.84,0-3.35-1.4-3.35-3.14v-12.18c0-1.71,1.51-3.12,3.35-3.12h5.92c1.84,0,3.35,1.4,3.35,3.14v9.92h0ZM74.65,28.57h-31.07c-1.71,0-3.09,1.4-3.09,3.09v77.26c0,1.71,1.27,3.12,2.88,3.14h14.49c1.74,0,3.14-1.4,3.14-3.14l.05-21.6h13.6c11.37,0,19.31-7.89,19.31-19.34v-20.04c0-11.42-7.94-19.37-19.31-19.37h0ZM73.4,54.63v8.77c0,1.84-1.48,3.35-3.32,3.35h-9.01v-17.58h9.01c1.84,0,3.32,1.48,3.32,3.32v2.13h0Z"/>
      </g>
    </g>
  </g>
</svg>