<?xml version="1.0" encoding="UTF-8"?>
<svg id="Layer_2" data-name="Layer 2" xmlns="http://www.w3.org/2000/svg" xmlns:xlink="http://www.w3.org/1999/xlink" viewBox="0 0 97.22 97.22">
  <defs>
    <style>
      .cls-1 {
        fill: url(#linear-gradient);
      }

      .cls-1, .cls-2, .cls-3 {
        stroke-width: 0px;
      }

      .cls-2 {
        fill: url(#linear-gradient-2);
      }

      .cls-3 {
        fill: url(#linear-gradient-3);
      }
    </style>
    <linearGradient id="linear-gradient" x1="0" y1="48.61" x2="97.22" y2="48.61" gradientUnits="userSpaceOnUse">
      <stop offset="0" stop-color="#541355"/>
      <stop offset="1" stop-color="#7e3080"/>
    </linearGradient>
    <linearGradient id="linear-gradient-2" x1="37.41" y1="48.61" x2="59.81" y2="48.61" xlink:href="#linear-gradient"/>
    <linearGradient id="linear-gradient-3" x1="37.41" y1="48.61" x2="59.81" y2="48.61" xlink:href="#linear-gradient"/>
  </defs>
  <g id="Layer_1-2" data-name="Layer 1">
    <g>
      <path class="cls-1" d="m48.61,0C21.8,0,0,21.8,0,48.61s21.8,48.61,48.61,48.61,48.61-21.8,48.61-48.61S75.41,0,48.61,0Zm0,94.97c-25.57,0-46.36-20.79-46.36-46.36S23.04,2.25,48.61,2.25s46.36,20.79,46.36,46.36-20.79,46.36-46.36,46.36Z"/>
      <g id="_02_User" data-name=" 02 User">
        <path class="cls-2" d="m38.5,59.81c-.6,0-1.09-.49-1.09-1.09,0-.29.12-.57.32-.77l20.21-20.21c.43-.43,1.12-.43,1.55,0,.43.43.43,1.12,0,1.55l-20.21,20.21c-.2.21-.48.32-.77.32Z"/>
        <path class="cls-3" d="m58.71,59.81c-.29,0-.57-.11-.77-.32l-20.21-20.21c-.43-.43-.43-1.12,0-1.55.43-.43,1.12-.43,1.55,0l20.21,20.21c.43.43.43,1.12,0,1.55-.21.21-.48.32-.77.32Z"/>
      </g>
    </g>
  </g>
</svg>