<?xml version="1.0" encoding="UTF-8"?>
<svg id="Layer_2" data-name="Layer 2" xmlns="http://www.w3.org/2000/svg" viewBox="0 0 14.75 14.77">
  <defs>
    <style>
      .cls-1 {
        fill: #4c0c4b;
        stroke-width: 0px;
      }
    </style>
  </defs>
  <g id="Layer_1-2" data-name="Layer 1">
    <g>
      <path class="cls-1" d="m14.75,6.94v.92s-.02.07-.02.11c-.13,1.62-.72,3.04-1.79,4.26-1.14,1.31-2.58,2.12-4.3,2.43-.27.05-.54.08-.81.11h-.92s-.08-.02-.13-.03c-.44-.07-.89-.12-1.32-.23C1.92,13.58-.37,10.2.05,6.53c.2-1.7.89-3.17,2.12-4.35C4.19.23,6.62-.46,9.32.3c2.93.82,4.69,2.83,5.31,5.82.06.27.08.54.11.81Zm-13.6.45c0,3.43,2.77,6.22,6.21,6.23,3.43.01,6.23-2.77,6.24-6.22,0-3.43-2.77-6.22-6.21-6.23-3.44-.01-6.23,2.77-6.24,6.22Z"/>
      <path class="cls-1" d="m6.8,8.63c0-.6,0-1.2,0-1.8,0-.37.25-.64.58-.63.33,0,.57.27.57.63,0,1.2,0,2.41,0,3.61,0,.37-.24.62-.57.62-.34,0-.58-.26-.58-.62,0-.6,0-1.21,0-1.81Z"/>
      <path class="cls-1" d="m7.38,3.94c.43,0,.78.35.77.78,0,.43-.36.78-.78.77-.43,0-.78-.36-.77-.78,0-.43.35-.77.78-.77Z"/>
    </g>
  </g>
</svg>