<svg width="25" height="17" viewBox="0 0 25 17" fill="none" xmlns="http://www.w3.org/2000/svg">
<path d="M4.17998 2.38H3.22998V3.32999H4.17998V2.38Z" fill="#7E3080"/>
<path d="M22.24 2.38H21.29V3.32999H22.24V2.38Z" fill="#7E3080"/>
<path d="M22.24 13.83H21.29V14.78H22.24V13.83Z" fill="#7E3080"/>
<path d="M4.17998 13.83H3.22998V14.78H4.17998V13.83Z" fill="#7E3080"/>
<path d="M23.68 6.19998C23.94 6.19998 24.16 5.98997 24.16 5.71997V0.949982C24.16 0.689982 23.95 0.469971 23.68 0.469971H1.43996C1.17996 0.469971 0.959961 0.679982 0.959961 0.949982V5.71997C0.959961 5.97997 1.16996 6.19998 1.43996 6.19998C2.75996 6.19998 3.82996 7.26997 3.82996 8.58997C3.82996 9.90997 2.75996 10.98 1.43996 10.98C1.17996 10.98 0.959961 11.19 0.959961 11.46V16.23C0.959961 16.49 1.16996 16.71 1.43996 16.71H23.68C23.94 16.71 24.16 16.5 24.16 16.23V11.46C24.16 11.2 23.95 10.98 23.68 10.98C22.36 10.98 21.29 9.90997 21.29 8.58997C21.29 7.26997 22.36 6.19998 23.68 6.19998ZM20.37 9.04996C20.58 10.52 21.73 11.67 23.2 11.88V15.73H1.90996V11.88C3.73996 11.62 4.99996 9.92998 4.73996 8.09998C4.52996 6.62998 3.37996 5.47996 1.90996 5.26996V1.41998H23.2V5.26996C21.37 5.52996 20.11 7.21996 20.37 9.04996Z" fill="#7E3080"/>
<path d="M9.84018 3.80994C8.79018 3.80994 7.93018 4.65994 7.93018 5.71994C7.93018 6.77994 8.78018 7.62994 9.84018 7.62994C10.9002 7.62994 11.7502 6.77994 11.7502 5.71994C11.7502 4.65994 10.9002 3.80994 9.84018 3.80994ZM9.84018 6.66995C9.31018 6.66995 8.89018 6.23994 8.89018 5.71994C8.89018 5.19994 9.32018 4.76993 9.84018 4.76993C10.3602 4.76993 10.7902 5.19994 10.7902 5.71994C10.7902 6.23994 10.3602 6.66995 9.84018 6.66995Z" fill="#7E3080"/>
<path d="M15.5702 9.53003C14.5202 9.53003 13.6602 10.38 13.6602 11.44C13.6602 12.5 14.5102 13.35 15.5702 13.35C16.6302 13.35 17.4802 12.5 17.4802 11.44C17.4802 10.38 16.6302 9.53003 15.5702 9.53003ZM15.5702 12.4C15.0402 12.4 14.6202 11.97 14.6202 11.45C14.6202 10.93 15.0502 10.5 15.5702 10.5C16.0902 10.5 16.5202 10.93 16.5202 11.45C16.5202 11.97 16.0902 12.4 15.5702 12.4Z" fill="#7E3080"/>
<path d="M16.177 4.42403L8.54736 12.0537L9.2191 12.7254L16.8488 5.09577L16.177 4.42403Z" fill="#7E3080"/>
</svg>
