<?xml version="1.0" encoding="UTF-8"?>
<svg id="Layer_2" data-name="Layer 2" xmlns="http://www.w3.org/2000/svg" viewBox="0 0 15.81 16.75">
  <defs>
    <style>
      .cls-1 {
        fill: #606060;
        stroke-width: 0px;
      }
    </style>
  </defs>
  <g id="Layer_1-2" data-name="Layer 1">
    <g>
      <path class="cls-1" d="m5.77.04c.35,0,.64.29.64.64v15.38c0,.35-.29.64-.64.64s-.64-.29-.64-.64V.68c0-.35.29-.64.64-.64Z"/>
      <path class="cls-1" d="m6.22.19c-.25-.25-.66-.25-.91,0L.19,5.32c-.25.25-.25.66,0,.91.25.25.66.25.91,0L6.22,1.09c.25-.25.25-.66,0-.91h0Z"/>
      <path class="cls-1" d="m10.04.09c.35,0,.64.29.64.64v15.38c0,.35-.29.64-.64.64s-.64-.29-.64-.64V.73c0-.35.29-.64.64-.64h0Z"/>
      <path class="cls-1" d="m15.62,10.53c.25.25.25.66,0,.91l-5.13,5.13c-.25.25-.66.25-.91,0s-.25-.66,0-.91l5.13-5.13c.25-.25.66-.25.91,0h0Z"/>
    </g>
  </g>
</svg>