<?xml version="1.0" encoding="utf-8"?>
<!-- Generator: Adobe Illustrator 27.8.0, SVG Export Plug-In . SVG Version: 6.00 Build 0)  -->
<svg version="1.1" id="Layer_1" xmlns="http://www.w3.org/2000/svg" xmlns:xlink="http://www.w3.org/1999/xlink" x="0px" y="0px"
	 viewBox="0 0 16.82 15.5" style="enable-background:new 0 0 16.82 15.5;" xml:space="preserve">
<style type="text/css">
	.st0{fill:none;stroke:#4C0C4B;stroke-width:1.1339;stroke-linecap:round;stroke-miterlimit:320;}
</style>
<g>
	<g>
		<path class="st0" d="M5.52,6.53H3.3c-0.86,0-1.56-0.7-1.56-1.56V2.75c0-0.86,0.7-1.56,1.56-1.56h2.22c0.86,0,1.56,0.7,1.56,1.56
			v2.22C7.08,5.83,6.38,6.53,5.52,6.53z"/>
		<path class="st0" d="M13.52,6.53H11.3c-0.86,0-1.56-0.7-1.56-1.56V2.75c0-0.86,0.7-1.56,1.56-1.56h2.22c0.86,0,1.56,0.7,1.56,1.56
			v2.22C15.08,5.83,14.38,6.53,13.52,6.53z"/>
	</g>
	<g>
		<path class="st0" d="M5.52,14.31H3.3c-0.86,0-1.56-0.7-1.56-1.56v-2.22c0-0.86,0.7-1.56,1.56-1.56h2.22c0.86,0,1.56,0.7,1.56,1.56
			v2.22C7.08,13.61,6.38,14.31,5.52,14.31z"/>
		<path class="st0" d="M13.52,14.31H11.3c-0.86,0-1.56-0.7-1.56-1.56v-2.22c0-0.86,0.7-1.56,1.56-1.56h2.22
			c0.86,0,1.56,0.7,1.56,1.56v2.22C15.08,13.61,14.38,14.31,13.52,14.31z"/>
	</g>
</g>
</svg>
