<?xml version="1.0" encoding="UTF-8"?>
<svg id="Layer_2" data-name="Layer 2" xmlns="http://www.w3.org/2000/svg" viewBox="0 0 17.37 15.72">
  <defs>
    <style>
      .cls-1 {
        fill: #fff;
        fill-rule: evenodd;
        stroke-width: 0px;
      }
    </style>
  </defs>
  <g id="Layer_3" data-name="Layer 3">
    <path class="cls-1" d="M.54,2.23h8.09c-.04-.17-.05-.35-.06-.53v-.02c0-.18.02-.36.05-.54H.54C.24,1.15,0,1.39,0,1.69s.24.54.54.54ZM7.79,7.86h0c0,.94-.76,1.69-1.69,1.69-.93,0-1.69-.76-1.69-1.68h0c0-.94.76-1.7,1.69-1.7.93,0,1.69.76,1.69,1.69h0ZM16.83,7.31h-8.09c.04.17.05.35.05.54h0c0,.2-.02.38-.06.55h8.09c.3,0,.54-.24.54-.54s-.24-.54-.54-.54h0ZM3.45,7.31H.54c-.3,0-.54.24-.54.54s.24.54.54.54h2.91c-.04-.17-.05-.35-.06-.53v-.02c0-.18.02-.36.05-.54ZM11.28,15.72c-.93,0-1.69-.76-1.69-1.69h0c0-.94.76-1.69,1.69-1.69s1.69.76,1.69,1.68h0c0,.94-.76,1.7-1.69,1.7ZM16.83,13.48h-2.91c.04.17.05.35.05.54h0c0,.2-.02.38-.06.55h2.91c.3,0,.54-.24.54-.54s-.24-.54-.54-.54h0ZM8.63,13.48H.54C.24,13.48,0,13.73,0,14.03s.24.54.54.54h8.09c-.04-.17-.05-.35-.06-.53v-.02c0-.18.02-.36.05-.54ZM9.59,1.69h0C9.59.76,10.35,0,11.28,0c.93,0,1.69.76,1.69,1.68h0c0,.94-.76,1.7-1.69,1.7s-1.69-.76-1.69-1.69h0ZM13.93,2.23h2.91c.3,0,.54-.24.54-.54s-.24-.54-.54-.54h-2.91c.04.17.05.35.05.54h0c0,.2-.02.38-.05.55Z"/>
  </g>
</svg>