<?xml version="1.0" encoding="UTF-8"?>
<svg id="Layer_2" data-name="Layer 2" xmlns="http://www.w3.org/2000/svg" viewBox="0 0 18.83 17.53">
  <defs>
    <style>
      .cls-1 {
        fill: #7d2282;
        stroke-width: 0px;
      }
    </style>
  </defs>
  <g id="Layer_1-2" data-name="Layer 1">
    <g>
      <path class="cls-1" d="m18.51,4.31H.31c-.17,0-.31.14-.31.31v12.59c0,.17.14.31.31.31h18.2c.17,0,.31-.14.31-.31V4.63c0-.17-.14-.31-.31-.31Zm-.31.63v9.94H.63V4.94h17.57ZM.63,16.9v-1.4h17.57v1.4H.63Z"/>
      <path class="cls-1" d="m3.2,13.65h6.21c.17,0,.31-.14.31-.31v-5.56c0-.17-.14-.31-.31-.31H3.2c-.17,0-.31.14-.31.31v5.56c0,.17.14.31.31.31Zm.31-5.56h5.58v4.94H3.52v-4.94Z"/>
      <path class="cls-1" d="m11.01,3.82c.17,0,.31-.14.31-.31V.31c0-.17-.14-.31-.31-.31h-3.19c-.17,0-.31.14-.31.31v3.19c0,.17.14.31.31.31h3.19Zm-2.88-3.19h2.56v2.56h-2.56V.63Z"/>
      <path class="cls-1" d="m12.23,9.78h3.7c.57,0,1.03-.46,1.03-1.03s-.46-1.03-1.03-1.03h-3.7c-.57,0-1.03.46-1.03,1.03s.46,1.03,1.03,1.03Zm0-1.43h3.7c.22,0,.4.18.4.4s-.18.4-.4.4h-3.7c-.22,0-.4-.18-.4-.4s.18-.4.4-.4Z"/>
      <path class="cls-1" d="m12.23,12.99h3.7c.57,0,1.03-.46,1.03-1.03s-.46-1.03-1.03-1.03h-3.7c-.57,0-1.03.46-1.03,1.03s.46,1.03,1.03,1.03Zm0-1.43h3.7c.22,0,.4.18.4.4s-.18.4-.4.4h-3.7c-.22,0-.4-.18-.4-.4s.18-.4.4-.4Z"/>
    </g>
  </g>
</svg>