<?xml version="1.0" encoding="UTF-8"?>
<svg id="Layer_2" data-name="Layer 2" xmlns="http://www.w3.org/2000/svg" viewBox="0 0 23.19 27.23">
  <defs>
    <style>
      .cls-1 {
        fill: #7e3080;
        stroke-width: 0px;
      }
    </style>
  </defs>
  <g id="Layer_1-2" data-name="Layer 1">
    <path id="Shape" class="cls-1" d="m1.01,21.59v3.12c0,1.39,1.13,2.52,2.52,2.52h17.14c1.39,0,2.52-1.13,2.52-2.52V7.56c0-1.39-1.13-2.52-2.52-2.52h-2.2c-.7-2.95-3.34-5.04-6.37-5.04s-5.67,2.09-6.37,5.04h-2.2c-1.39,0-2.52,1.13-2.52,2.52v7.15c-.6.21-1.01.78-1.01,1.42v4.03c0,.64.41,1.21,1.01,1.42h0ZM22.18,7.56c0,.4-.16.79-.44,1.07s-.67.44-1.07.44h-2.52c.33-.8.5-1.66.5-2.52,0-.17,0-.34-.02-.5h2.04c.84,0,1.51.68,1.51,1.51h0Zm-15.55-1.93c.35-2.16,1.95-3.91,4.07-4.47s4.37.19,5.74,1.9c1.37,1.71,1.6,4.07.6,6.01h-1.93l-.24-1.46s0-.06.02-.08l1.19-1.2c.29-.3.39-.73.26-1.13-.12-.38-.45-.66-.85-.73l-1.64-.25s-.04-.02-.04-.04l-.75-1.57c-.17-.37-.54-.61-.95-.61s-.78.24-.95.61l-.75,1.57s-.02.03-.03.03l-1.66.25c-.4.06-.72.34-.84.73-.13.39-.03.83.26,1.13l1.18,1.19s.03.06.03.09l-.24,1.46h-1.93c-.55-1.06-.74-2.27-.54-3.45h0s0,0,0,0Zm3.4,1.19l-1.18-1.2s-.03-.07-.02-.1c0-.02.02-.04.04-.04l1.66-.25c.34-.06.64-.28.78-.6l.75-1.57.04-.04.78,1.6c.15.32.45.54.8.6l1.65.25s.03.03.04.05c.01.03,0,.07-.02.1l-1.19,1.21c-.24.25-.35.61-.29.95l.22,1.3h-3.96l.22-1.3c.06-.35-.06-.7-.3-.96h0Zm-6.5-.77h2.04c-.01.17-.02.34-.02.5,0,.87.17,1.72.5,2.52h-2.52c-.55,0-1.08.18-1.51.52v-2.03c0-.84.68-1.51,1.51-1.51h0Zm0,4.03h17.14c.55,0,1.08-.18,1.51-.52v15.14c0,.84-.68,1.51-1.51,1.51H3.53c-.84,0-1.51-.68-1.51-1.51v-3.03h4.54c1.95,0,3.53-1.58,3.53-3.53s-1.58-3.53-3.53-3.53H2.02v-3.03c0-.84.68-1.51,1.51-1.51h0Zm-2.52,6.05c0-.28.23-.5.5-.5h5.04c1.39,0,2.52,1.13,2.52,2.52s-1.13,2.52-2.52,2.52H1.51c-.28,0-.5-.23-.5-.5v-4.03Z"/>
  </g>
</svg>