<svg width="16" height="16" viewBox="0 0 16 16" fill="none" xmlns="http://www.w3.org/2000/svg">
<path d="M8.01953 15.9947C9.10188 15.993 10.174 15.7715 11.1677 15.3436C11.7216 15.1067 11.979 14.4641 11.7404 13.9102C11.5034 13.3562 10.8609 13.1005 10.3069 13.3375C7.94618 14.3533 5.19862 13.6988 3.54881 11.7284C1.89891 9.75639 1.73698 6.9374 3.15167 4.79146C4.56808 2.64553 7.22362 1.68252 9.68503 2.42225C12.1464 3.16198 13.8303 5.43062 13.8269 8.00089V8.73722V8.7662V8.79858C13.8712 9.48037 13.3803 10.0786 12.7036 10.1656C12.419 10.1604 12.148 10.0428 11.9503 9.83659C11.7542 9.63206 11.6469 9.35592 11.6537 9.07299V5.74248C11.6537 5.1408 11.1645 4.65162 10.5628 4.65162C10.3157 4.65673 10.0804 4.74536 9.89124 4.90388C9.32705 4.55276 8.67424 4.36696 8.00952 4.36356C6.84706 4.35503 5.75109 4.90388 5.0608 5.83791C4.3688 6.77195 4.16595 7.9787 4.51367 9.08832C4.86138 10.1962 5.71702 11.0723 6.81808 11.4456C7.91915 11.8171 9.13105 11.6399 10.0804 10.97C10.7026 11.8291 11.6963 12.3387 12.7547 12.3438C14.6211 12.2109 16.0512 10.6325 15.9983 8.76276C16 8.75424 16 8.74572 15.9983 8.73549V7.99916V8.00087C15.9983 5.8771 15.1546 3.842 13.6547 2.34194C12.1531 0.84201 10.1162 0 7.99403 0C5.87196 0.00170435 3.83686 0.847115 2.33684 2.34875C0.838617 3.85038 -0.0033932 5.88722 1.02778e-05 8.00942C0.00171507 10.1332 0.848828 12.1666 2.35046 13.6649C3.85379 15.1648 5.89064 16.0034 8.01419 16L8.01953 15.9947ZM8.0093 9.44436C7.42124 9.44436 6.89118 9.08983 6.6662 8.5461C6.44121 8.00238 6.56563 7.37684 6.98153 6.96096C7.39742 6.54508 8.02294 6.42063 8.56667 6.64563C9.1087 6.87062 9.46323 7.40242 9.46323 7.99044C9.46323 8.37565 9.30982 8.74553 9.03711 9.01824C8.76439 9.29096 8.39451 9.44436 8.0093 9.44436Z" fill="#70576E"/>
</svg>
