<svg width="262" height="106" viewBox="0 0 262 106" fill="none" xmlns="http://www.w3.org/2000/svg">
<g filter="url(#filter0_d_2_2138)">
<rect x="31" y="27" width="200" height="44" rx="22" fill="#4C0C4B" shape-rendering="crispEdges"/>
<path d="M77.0781 50.2969H79.0312C78.9688 51.0417 78.7604 51.7057 78.4062 52.2891C78.0521 52.8672 77.5547 53.3229 76.9141 53.6562C76.2734 53.9896 75.4948 54.1562 74.5781 54.1562C73.875 54.1562 73.2422 54.0312 72.6797 53.7812C72.1172 53.526 71.6354 53.1667 71.2344 52.7031C70.8333 52.2344 70.526 51.6693 70.3125 51.0078C70.1042 50.3464 70 49.6068 70 48.7891V47.8438C70 47.026 70.1068 46.2865 70.3203 45.625C70.5391 44.9635 70.8516 44.3984 71.2578 43.9297C71.6641 43.4557 72.151 43.0938 72.7188 42.8438C73.2917 42.5938 73.9349 42.4688 74.6484 42.4688C75.5547 42.4688 76.3203 42.6354 76.9453 42.9688C77.5703 43.3021 78.0547 43.763 78.3984 44.3516C78.7474 44.9401 78.9609 45.6146 79.0391 46.375H77.0859C77.0339 45.8854 76.9193 45.4661 76.7422 45.1172C76.5703 44.7682 76.3151 44.5026 75.9766 44.3203C75.638 44.1328 75.1953 44.0391 74.6484 44.0391C74.2005 44.0391 73.8099 44.1224 73.4766 44.2891C73.1432 44.4557 72.8646 44.7005 72.6406 45.0234C72.4167 45.3464 72.2474 45.7448 72.1328 46.2188C72.0234 46.6875 71.9688 47.224 71.9688 47.8281V48.7891C71.9688 49.362 72.0182 49.8828 72.1172 50.3516C72.2214 50.8151 72.3776 51.2135 72.5859 51.5469C72.7995 51.8802 73.0703 52.138 73.3984 52.3203C73.7266 52.5026 74.1198 52.5938 74.5781 52.5938C75.1354 52.5938 75.5859 52.5052 75.9297 52.3281C76.2786 52.151 76.5417 51.8932 76.7188 51.5547C76.901 51.2109 77.0208 50.7917 77.0781 50.2969ZM83.5156 47.1562V54H81.6328V45.5469H83.4297L83.5156 47.1562ZM86.1016 45.4922L86.0859 47.2422C85.9714 47.2214 85.8464 47.2057 85.7109 47.1953C85.5807 47.1849 85.4505 47.1797 85.3203 47.1797C84.9974 47.1797 84.7135 47.2266 84.4688 47.3203C84.224 47.4089 84.0182 47.5391 83.8516 47.7109C83.6901 47.8776 83.5651 48.0807 83.4766 48.3203C83.388 48.5599 83.3359 48.8281 83.3203 49.125L82.8906 49.1562C82.8906 48.625 82.9427 48.1328 83.0469 47.6797C83.151 47.2266 83.3073 46.8281 83.5156 46.4844C83.7292 46.1406 83.9948 45.8724 84.3125 45.6797C84.6354 45.487 85.0078 45.3906 85.4297 45.3906C85.5443 45.3906 85.6667 45.401 85.7969 45.4219C85.9323 45.4427 86.0339 45.4661 86.1016 45.4922ZM91.8516 54.1562C91.2266 54.1562 90.6615 54.0547 90.1562 53.8516C89.6562 53.6432 89.2292 53.3542 88.875 52.9844C88.526 52.6146 88.2578 52.1797 88.0703 51.6797C87.8828 51.1797 87.7891 50.6406 87.7891 50.0625V49.75C87.7891 49.0885 87.8854 48.4896 88.0781 47.9531C88.2708 47.4167 88.5391 46.9583 88.8828 46.5781C89.2266 46.1927 89.6328 45.8984 90.1016 45.6953C90.5703 45.4922 91.0781 45.3906 91.625 45.3906C92.2292 45.3906 92.7578 45.4922 93.2109 45.6953C93.6641 45.8984 94.0391 46.1849 94.3359 46.5547C94.638 46.9193 94.862 47.3542 95.0078 47.8594C95.1589 48.3646 95.2344 48.9219 95.2344 49.5312V50.3359H88.7031V48.9844H93.375V48.8359C93.3646 48.4974 93.2969 48.1797 93.1719 47.8828C93.0521 47.5859 92.8672 47.3464 92.6172 47.1641C92.3672 46.9818 92.0339 46.8906 91.6172 46.8906C91.3047 46.8906 91.026 46.9583 90.7812 47.0938C90.5417 47.224 90.3411 47.4141 90.1797 47.6641C90.0182 47.9141 89.8932 48.2161 89.8047 48.5703C89.7214 48.9193 89.6797 49.3125 89.6797 49.75V50.0625C89.6797 50.4323 89.7292 50.776 89.8281 51.0938C89.9323 51.4062 90.0833 51.6797 90.2812 51.9141C90.4792 52.1484 90.7188 52.3333 91 52.4688C91.2812 52.599 91.6016 52.6641 91.9609 52.6641C92.4141 52.6641 92.8177 52.5729 93.1719 52.3906C93.526 52.2083 93.8333 51.9505 94.0938 51.6172L95.0859 52.5781C94.9036 52.8438 94.6667 53.099 94.375 53.3438C94.0833 53.5833 93.7266 53.7786 93.3047 53.9297C92.888 54.0807 92.4036 54.1562 91.8516 54.1562ZM102.469 52.3047V48.2734C102.469 47.9714 102.414 47.7109 102.305 47.4922C102.195 47.2734 102.029 47.1042 101.805 46.9844C101.586 46.8646 101.31 46.8047 100.977 46.8047C100.669 46.8047 100.404 46.8568 100.18 46.9609C99.9557 47.0651 99.7812 47.2057 99.6562 47.3828C99.5312 47.5599 99.4688 47.7604 99.4688 47.9844H97.5938C97.5938 47.651 97.6745 47.3281 97.8359 47.0156C97.9974 46.7031 98.2318 46.4245 98.5391 46.1797C98.8464 45.9349 99.2135 45.7422 99.6406 45.6016C100.068 45.4609 100.547 45.3906 101.078 45.3906C101.714 45.3906 102.276 45.4974 102.766 45.7109C103.26 45.9245 103.648 46.2474 103.93 46.6797C104.216 47.1068 104.359 47.6432 104.359 48.2891V52.0469C104.359 52.4323 104.385 52.7786 104.438 53.0859C104.495 53.388 104.576 53.651 104.68 53.875V54H102.75C102.661 53.7969 102.591 53.5391 102.539 53.2266C102.492 52.9089 102.469 52.6016 102.469 52.3047ZM102.742 48.8594L102.758 50.0234H101.406C101.057 50.0234 100.75 50.0573 100.484 50.125C100.219 50.1875 99.9974 50.2812 99.8203 50.4062C99.6432 50.5312 99.5104 50.6823 99.4219 50.8594C99.3333 51.0365 99.2891 51.237 99.2891 51.4609C99.2891 51.6849 99.3411 51.8906 99.4453 52.0781C99.5495 52.2604 99.7005 52.4036 99.8984 52.5078C100.102 52.612 100.346 52.6641 100.633 52.6641C101.018 52.6641 101.354 52.5859 101.641 52.4297C101.932 52.2682 102.161 52.0729 102.328 51.8438C102.495 51.6094 102.583 51.388 102.594 51.1797L103.203 52.0156C103.141 52.2292 103.034 52.4583 102.883 52.7031C102.732 52.9479 102.534 53.1823 102.289 53.4062C102.049 53.625 101.76 53.8047 101.422 53.9453C101.089 54.0859 100.703 54.1562 100.266 54.1562C99.7135 54.1562 99.2214 54.0469 98.7891 53.8281C98.3568 53.6042 98.0182 53.3047 97.7734 52.9297C97.5286 52.5495 97.4062 52.1198 97.4062 51.6406C97.4062 51.1927 97.4896 50.7969 97.6562 50.4531C97.8281 50.1042 98.0781 49.8125 98.4062 49.5781C98.7396 49.3438 99.1458 49.1667 99.625 49.0469C100.104 48.9219 100.651 48.8594 101.266 48.8594H102.742ZM111.203 45.5469V46.9219H106.438V45.5469H111.203ZM107.812 43.4766H109.695V51.6641C109.695 51.9245 109.732 52.125 109.805 52.2656C109.883 52.401 109.99 52.4922 110.125 52.5391C110.26 52.5859 110.419 52.6094 110.602 52.6094C110.732 52.6094 110.857 52.6016 110.977 52.5859C111.096 52.5703 111.193 52.5547 111.266 52.5391L111.273 53.9766C111.117 54.0234 110.935 54.0651 110.727 54.1016C110.523 54.138 110.289 54.1562 110.023 54.1562C109.591 54.1562 109.208 54.0807 108.875 53.9297C108.542 53.7734 108.281 53.5208 108.094 53.1719C107.906 52.8229 107.812 52.3594 107.812 51.7812V43.4766ZM117.383 54.1562C116.758 54.1562 116.193 54.0547 115.688 53.8516C115.188 53.6432 114.76 53.3542 114.406 52.9844C114.057 52.6146 113.789 52.1797 113.602 51.6797C113.414 51.1797 113.32 50.6406 113.32 50.0625V49.75C113.32 49.0885 113.417 48.4896 113.609 47.9531C113.802 47.4167 114.07 46.9583 114.414 46.5781C114.758 46.1927 115.164 45.8984 115.633 45.6953C116.102 45.4922 116.609 45.3906 117.156 45.3906C117.76 45.3906 118.289 45.4922 118.742 45.6953C119.195 45.8984 119.57 46.1849 119.867 46.5547C120.169 46.9193 120.393 47.3542 120.539 47.8594C120.69 48.3646 120.766 48.9219 120.766 49.5312V50.3359H114.234V48.9844H118.906V48.8359C118.896 48.4974 118.828 48.1797 118.703 47.8828C118.583 47.5859 118.398 47.3464 118.148 47.1641C117.898 46.9818 117.565 46.8906 117.148 46.8906C116.836 46.8906 116.557 46.9583 116.312 47.0938C116.073 47.224 115.872 47.4141 115.711 47.6641C115.549 47.9141 115.424 48.2161 115.336 48.5703C115.253 48.9193 115.211 49.3125 115.211 49.75V50.0625C115.211 50.4323 115.26 50.776 115.359 51.0938C115.464 51.4062 115.615 51.6797 115.812 51.9141C116.01 52.1484 116.25 52.3333 116.531 52.4688C116.812 52.599 117.133 52.6641 117.492 52.6641C117.945 52.6641 118.349 52.5729 118.703 52.3906C119.057 52.2083 119.365 51.9505 119.625 51.6172L120.617 52.5781C120.435 52.8438 120.198 53.099 119.906 53.3438C119.615 53.5833 119.258 53.7786 118.836 53.9297C118.419 54.0807 117.935 54.1562 117.383 54.1562ZM132.836 44.1406L129.438 54H127.383L131.664 42.625H132.977L132.836 44.1406ZM135.68 54L132.273 44.1406L132.125 42.625H133.445L137.742 54H135.68ZM135.516 49.7812V51.3359H129.328V49.7812H135.516ZM143.281 52.6562C143.589 52.6562 143.865 52.5964 144.109 52.4766C144.359 52.3516 144.56 52.1797 144.711 51.9609C144.867 51.7422 144.953 51.4896 144.969 51.2031H146.742C146.732 51.75 146.57 52.2474 146.258 52.6953C145.945 53.1432 145.531 53.5 145.016 53.7656C144.5 54.026 143.93 54.1562 143.305 54.1562C142.659 54.1562 142.096 54.0469 141.617 53.8281C141.138 53.6042 140.74 53.2969 140.422 52.9062C140.104 52.5156 139.865 52.0651 139.703 51.5547C139.547 51.0443 139.469 50.4974 139.469 49.9141V49.6406C139.469 49.0573 139.547 48.5104 139.703 48C139.865 47.4844 140.104 47.0312 140.422 46.6406C140.74 46.25 141.138 45.9453 141.617 45.7266C142.096 45.5026 142.656 45.3906 143.297 45.3906C143.974 45.3906 144.568 45.526 145.078 45.7969C145.589 46.0625 145.99 46.4349 146.281 46.9141C146.578 47.388 146.732 47.9401 146.742 48.5703H144.969C144.953 48.2578 144.875 47.9766 144.734 47.7266C144.599 47.4714 144.406 47.2682 144.156 47.1172C143.911 46.9661 143.617 46.8906 143.273 46.8906C142.893 46.8906 142.578 46.9688 142.328 47.125C142.078 47.276 141.883 47.4844 141.742 47.75C141.602 48.0104 141.5 48.3047 141.438 48.6328C141.38 48.9557 141.352 49.2917 141.352 49.6406V49.9141C141.352 50.263 141.38 50.6016 141.438 50.9297C141.495 51.2578 141.594 51.5521 141.734 51.8125C141.88 52.0677 142.078 52.2734 142.328 52.4297C142.578 52.5807 142.896 52.6562 143.281 52.6562ZM152.641 52.6562C152.948 52.6562 153.224 52.5964 153.469 52.4766C153.719 52.3516 153.919 52.1797 154.07 51.9609C154.227 51.7422 154.312 51.4896 154.328 51.2031H156.102C156.091 51.75 155.93 52.2474 155.617 52.6953C155.305 53.1432 154.891 53.5 154.375 53.7656C153.859 54.026 153.289 54.1562 152.664 54.1562C152.018 54.1562 151.456 54.0469 150.977 53.8281C150.497 53.6042 150.099 53.2969 149.781 52.9062C149.464 52.5156 149.224 52.0651 149.062 51.5547C148.906 51.0443 148.828 50.4974 148.828 49.9141V49.6406C148.828 49.0573 148.906 48.5104 149.062 48C149.224 47.4844 149.464 47.0312 149.781 46.6406C150.099 46.25 150.497 45.9453 150.977 45.7266C151.456 45.5026 152.016 45.3906 152.656 45.3906C153.333 45.3906 153.927 45.526 154.438 45.7969C154.948 46.0625 155.349 46.4349 155.641 46.9141C155.938 47.388 156.091 47.9401 156.102 48.5703H154.328C154.312 48.2578 154.234 47.9766 154.094 47.7266C153.958 47.4714 153.766 47.2682 153.516 47.1172C153.271 46.9661 152.977 46.8906 152.633 46.8906C152.253 46.8906 151.938 46.9688 151.688 47.125C151.438 47.276 151.242 47.4844 151.102 47.75C150.961 48.0104 150.859 48.3047 150.797 48.6328C150.74 48.9557 150.711 49.2917 150.711 49.6406V49.9141C150.711 50.263 150.74 50.6016 150.797 50.9297C150.854 51.2578 150.953 51.5521 151.094 51.8125C151.24 52.0677 151.438 52.2734 151.688 52.4297C151.938 52.5807 152.255 52.6562 152.641 52.6562ZM158.188 49.8672V49.6875C158.188 49.0781 158.276 48.513 158.453 47.9922C158.63 47.4661 158.885 47.0104 159.219 46.625C159.557 46.2344 159.969 45.9323 160.453 45.7188C160.943 45.5 161.495 45.3906 162.109 45.3906C162.729 45.3906 163.281 45.5 163.766 45.7188C164.255 45.9323 164.669 46.2344 165.008 46.625C165.346 47.0104 165.604 47.4661 165.781 47.9922C165.958 48.513 166.047 49.0781 166.047 49.6875V49.8672C166.047 50.4766 165.958 51.0417 165.781 51.5625C165.604 52.0833 165.346 52.5391 165.008 52.9297C164.669 53.3151 164.258 53.6172 163.773 53.8359C163.289 54.0495 162.74 54.1562 162.125 54.1562C161.505 54.1562 160.951 54.0495 160.461 53.8359C159.977 53.6172 159.565 53.3151 159.227 52.9297C158.888 52.5391 158.63 52.0833 158.453 51.5625C158.276 51.0417 158.188 50.4766 158.188 49.8672ZM160.07 49.6875V49.8672C160.07 50.2474 160.109 50.6068 160.188 50.9453C160.266 51.2839 160.388 51.5807 160.555 51.8359C160.721 52.0911 160.935 52.2917 161.195 52.4375C161.456 52.5833 161.766 52.6562 162.125 52.6562C162.474 52.6562 162.776 52.5833 163.031 52.4375C163.292 52.2917 163.505 52.0911 163.672 51.8359C163.839 51.5807 163.961 51.2839 164.039 50.9453C164.122 50.6068 164.164 50.2474 164.164 49.8672V49.6875C164.164 49.3125 164.122 48.9583 164.039 48.625C163.961 48.2865 163.836 47.987 163.664 47.7266C163.497 47.4661 163.284 47.263 163.023 47.1172C162.768 46.9661 162.464 46.8906 162.109 46.8906C161.755 46.8906 161.448 46.9661 161.188 47.1172C160.932 47.263 160.721 47.4661 160.555 47.7266C160.388 47.987 160.266 48.2865 160.188 48.625C160.109 48.9583 160.07 49.3125 160.07 49.6875ZM173.711 52.0078V45.5469H175.602V54H173.82L173.711 52.0078ZM173.977 50.25L174.609 50.2344C174.609 50.8021 174.547 51.3255 174.422 51.8047C174.297 52.2786 174.104 52.6927 173.844 53.0469C173.583 53.3958 173.25 53.6693 172.844 53.8672C172.438 54.0599 171.951 54.1562 171.383 54.1562C170.971 54.1562 170.594 54.0964 170.25 53.9766C169.906 53.8568 169.609 53.6719 169.359 53.4219C169.115 53.1719 168.924 52.8464 168.789 52.4453C168.654 52.0443 168.586 51.5651 168.586 51.0078V45.5469H170.469V51.0234C170.469 51.3307 170.505 51.5885 170.578 51.7969C170.651 52 170.75 52.1641 170.875 52.2891C171 52.4141 171.146 52.5026 171.312 52.5547C171.479 52.6068 171.656 52.6328 171.844 52.6328C172.38 52.6328 172.802 52.5286 173.109 52.3203C173.422 52.1068 173.643 51.8203 173.773 51.4609C173.909 51.1016 173.977 50.6979 173.977 50.25ZM180.398 47.3516V54H178.516V45.5469H180.289L180.398 47.3516ZM180.062 49.4609L179.453 49.4531C179.458 48.8542 179.542 48.3047 179.703 47.8047C179.87 47.3047 180.099 46.875 180.391 46.5156C180.688 46.1562 181.042 45.8802 181.453 45.6875C181.865 45.4896 182.323 45.3906 182.828 45.3906C183.234 45.3906 183.602 45.4479 183.93 45.5625C184.263 45.6719 184.547 45.8516 184.781 46.1016C185.021 46.3516 185.203 46.6771 185.328 47.0781C185.453 47.474 185.516 47.9609 185.516 48.5391V54H183.625V48.5312C183.625 48.125 183.565 47.8047 183.445 47.5703C183.331 47.3307 183.161 47.1615 182.938 47.0625C182.719 46.9583 182.445 46.9062 182.117 46.9062C181.794 46.9062 181.505 46.974 181.25 47.1094C180.995 47.2448 180.779 47.4297 180.602 47.6641C180.43 47.8984 180.297 48.1693 180.203 48.4766C180.109 48.7839 180.062 49.112 180.062 49.4609ZM192.312 45.5469V46.9219H187.547V45.5469H192.312ZM188.922 43.4766H190.805V51.6641C190.805 51.9245 190.841 52.125 190.914 52.2656C190.992 52.401 191.099 52.4922 191.234 52.5391C191.37 52.5859 191.529 52.6094 191.711 52.6094C191.841 52.6094 191.966 52.6016 192.086 52.5859C192.206 52.5703 192.302 52.5547 192.375 52.5391L192.383 53.9766C192.227 54.0234 192.044 54.0651 191.836 54.1016C191.633 54.138 191.398 54.1562 191.133 54.1562C190.701 54.1562 190.318 54.0807 189.984 53.9297C189.651 53.7734 189.391 53.5208 189.203 53.1719C189.016 52.8229 188.922 52.3594 188.922 51.7812V43.4766Z" fill="white"/>
</g>
<defs>
<filter id="filter0_d_2_2138" x="0" y="0" width="262" height="106" filterUnits="userSpaceOnUse" color-interpolation-filters="sRGB">
<feFlood flood-opacity="0" result="BackgroundImageFix"/>
<feColorMatrix in="SourceAlpha" type="matrix" values="0 0 0 0 0 0 0 0 0 0 0 0 0 0 0 0 0 0 127 0" result="hardAlpha"/>
<feOffset dy="4"/>
<feGaussianBlur stdDeviation="15.5"/>
<feComposite in2="hardAlpha" operator="out"/>
<feColorMatrix type="matrix" values="0 0 0 0 0 0 0 0 0 0 0 0 0 0 0 0 0 0 0.25 0"/>
<feBlend mode="normal" in2="BackgroundImageFix" result="effect1_dropShadow_2_2138"/>
<feBlend mode="normal" in="SourceGraphic" in2="effect1_dropShadow_2_2138" result="shape"/>
</filter>
</defs>
</svg>
