<?xml version="1.0" encoding="UTF-8"?>
<svg id="Layer_2" data-name="Layer 2" xmlns="http://www.w3.org/2000/svg" viewBox="0 0 18.78 17.65">
  <defs>
    <style>
      .cls-1 {
        fill: #4c0c4b;
        stroke-width: 0px;
      }
    </style>
  </defs>
  <g id="Layer_1-2" data-name="Layer 1">
    <g>
      <path class="cls-1" d="m8.96,17.64c-2.36,0-4.72,0-7.08,0-.87,0-1.54-.45-1.78-1.21-.06-.2-.09-.42-.09-.63C0,12.48,0,9.15,0,5.82c0-1.08.76-1.83,1.84-1.84.21,0,.41-.02.62,0,.2.02.27-.06.34-.24.37-.95.75-1.89,1.13-2.84.33-.82,1.04-1.12,1.85-.78,3.02,1.26,6.04,2.52,9.07,3.77.11.05.24.07.37.07.41.02.82-.01,1.22.04.82.1,1.46.8,1.48,1.63.02.67,0,1.35,0,2.02,0,.11.02.16.14.19.44.09.71.41.72.86,0,1.39,0,2.79,0,4.18,0,.44-.28.79-.69.86-.16.03-.17.1-.17.23,0,.59-.02,1.17,0,1.76.05,1.01-.71,1.91-1.91,1.9-2.35-.02-4.71,0-7.06,0Zm8.11-9.82c0-.08,0-.15,0-.21,0-.57,0-1.15,0-1.72,0-.7-.35-1.05-1.04-1.05-2.27,0-4.53,0-6.8,0-2.46,0-4.92,0-7.38,0-.61,0-.99.36-.99.93,0,3.36,0,6.72,0,10.08,0,.45.26.8.68.9.12.03.25.03.38.03,2.7,0,5.4,0,8.1,0,2,0,4-.01,6,0,.71,0,1.09-.48,1.06-1.06-.03-.57,0-1.13,0-1.7v-.23c-.1,0-.18,0-.26,0-1.17,0-2.35,0-3.52,0-1.88-.01-3.21-1.5-3.02-3.37.14-1.45,1.45-2.6,2.97-2.61,1.19,0,2.39,0,3.58,0,.08,0,.16,0,.26,0Zm.83,5.11v-4.23c-.14,0-.27,0-.39,0-1.47,0-2.94-.04-4.42-.01-1.26.02-2.2,1.25-1.96,2.49.2,1.05,1.05,1.75,2.14,1.75,1.49,0,2.97,0,4.46,0,.05,0,.1,0,.17,0ZM12.69,3.98s0-.02.01-.04c-.03-.01-.05-.03-.08-.04-2.38-.99-4.76-1.98-7.15-2.97-.39-.16-.59-.08-.75.32-.34.85-.68,1.69-1.01,2.54-.02.06-.04.12-.07.2.27,0,.52,0,.76,0,.15,0,.22-.04.28-.18.13-.37.28-.73.42-1.1.16-.41.32-.49.74-.35,1.58.53,3.15,1.05,4.73,1.58.08.02.15.05.23.05.63,0,1.27,0,1.9,0Zm-6.89-.74c-.09.25-.18.48-.27.72h2.37s0-.02,0-.03c-.7-.23-1.39-.46-2.1-.7Z"/>
      <path class="cls-1" d="m4.69,8.25c.55,0,1.09,0,1.64,0,.3,0,.5.17.5.42,0,.26-.19.42-.5.42-1.09,0-2.19,0-3.28,0-.3,0-.5-.18-.49-.43,0-.25.2-.41.49-.41.55,0,1.09,0,1.64,0Z"/>
      <path class="cls-1" d="m3.85,6.54c.27,0,.53,0,.8,0,.28,0,.46.17.47.41,0,.26-.17.44-.46.44-.55,0-1.09,0-1.64,0-.27,0-.46-.19-.46-.43,0-.24.19-.42.46-.42.27,0,.55,0,.82,0Z"/>
      <path class="cls-1" d="m13.23,9.53c.71,0,1.28.57,1.28,1.28,0,.7-.57,1.27-1.27,1.27-.71,0-1.29-.57-1.29-1.28,0-.71.57-1.28,1.28-1.28Zm0,.85c-.23,0-.43.21-.42.44,0,.23.2.41.43.41.24,0,.43-.21.42-.44,0-.22-.21-.42-.43-.41Z"/>
    </g>
  </g>
</svg>