<svg width="34" height="34" viewBox="0 0 34 34" fill="none" xmlns="http://www.w3.org/2000/svg">
<g clip-path="url(#clip0_1071_10679)">
<g opacity="0.5">
<path d="M17 24C21.9706 24 26 19.9706 26 15C26 10.0294 21.9706 6 17 6C12.0294 6 8 10.0294 8 15C8 19.9706 12.0294 24 17 24Z" fill="black" fill-opacity="0.68"/>
<path d="M17 24C21.9706 24 26 19.9706 26 15C26 10.0294 21.9706 6 17 6C12.0294 6 8 10.0294 8 15C8 19.9706 12.0294 24 17 24Z" fill="url(#paint0_radial_1071_10679)"/>
</g>
<g filter="url(#filter0_diiiii_1071_10679)">
<path d="M17 26C23.0751 26 28 21.0751 28 15C28 8.92487 23.0751 4 17 4C10.9249 4 6 8.92487 6 15C6 21.0751 10.9249 26 17 26Z" fill="white"/>
<path d="M17 26C23.0751 26 28 21.0751 28 15C28 8.92487 23.0751 4 17 4C10.9249 4 6 8.92487 6 15C6 21.0751 10.9249 26 17 26Z" fill="url(#paint1_radial_1071_10679)"/>
</g>
<path d="M17 10V20" stroke="#70576E" stroke-width="2" stroke-linecap="round" stroke-linejoin="round"/>
<path d="M12 15H22" stroke="#70576E" stroke-width="2" stroke-linecap="round" stroke-linejoin="round"/>
</g>
<defs>
<filter id="filter0_diiiii_1071_10679" x="-4" y="-8" width="38" height="43" filterUnits="userSpaceOnUse" color-interpolation-filters="sRGB">
<feFlood flood-opacity="0" result="BackgroundImageFix"/>
<feColorMatrix in="SourceAlpha" type="matrix" values="0 0 0 0 0 0 0 0 0 0 0 0 0 0 0 0 0 0 127 0" result="hardAlpha"/>
<feOffset dy="2"/>
<feGaussianBlur stdDeviation="3"/>
<feColorMatrix type="matrix" values="0 0 0 0 0.886239 0 0 0 0 0.848296 0 0 0 0 0.857561 0 0 0 0.5 0"/>
<feBlend mode="normal" in2="BackgroundImageFix" result="effect1_dropShadow_1071_10679"/>
<feBlend mode="normal" in="SourceGraphic" in2="effect1_dropShadow_1071_10679" result="shape"/>
<feColorMatrix in="SourceAlpha" type="matrix" values="0 0 0 0 0 0 0 0 0 0 0 0 0 0 0 0 0 0 127 0" result="hardAlpha"/>
<feOffset dx="3" dy="4"/>
<feGaussianBlur stdDeviation="4"/>
<feComposite in2="hardAlpha" operator="arithmetic" k2="-1" k3="1"/>
<feColorMatrix type="matrix" values="0 0 0 0 1 0 0 0 0 1 0 0 0 0 1 0 0 0 0.7 0"/>
<feBlend mode="normal" in2="shape" result="effect2_innerShadow_1071_10679"/>
<feColorMatrix in="SourceAlpha" type="matrix" values="0 0 0 0 0 0 0 0 0 0 0 0 0 0 0 0 0 0 127 0" result="hardAlpha"/>
<feOffset dx="-10" dy="-12"/>
<feGaussianBlur stdDeviation="9"/>
<feComposite in2="hardAlpha" operator="arithmetic" k2="-1" k3="1"/>
<feColorMatrix type="matrix" values="0 0 0 0 0.770361 0 0 0 0 0.770361 0 0 0 0 0.770361 0 0 0 0.25 0"/>
<feBlend mode="normal" in2="effect2_innerShadow_1071_10679" result="effect3_innerShadow_1071_10679"/>
<feColorMatrix in="SourceAlpha" type="matrix" values="0 0 0 0 0 0 0 0 0 0 0 0 0 0 0 0 0 0 127 0" result="hardAlpha"/>
<feOffset dy="2"/>
<feGaussianBlur stdDeviation="1"/>
<feComposite in2="hardAlpha" operator="arithmetic" k2="-1" k3="1"/>
<feColorMatrix type="matrix" values="0 0 0 0 1 0 0 0 0 1 0 0 0 0 1 0 0 0 0.6 0"/>
<feBlend mode="normal" in2="effect3_innerShadow_1071_10679" result="effect4_innerShadow_1071_10679"/>
<feColorMatrix in="SourceAlpha" type="matrix" values="0 0 0 0 0 0 0 0 0 0 0 0 0 0 0 0 0 0 127 0" result="hardAlpha"/>
<feOffset dx="6" dy="9"/>
<feGaussianBlur stdDeviation="4.5"/>
<feComposite in2="hardAlpha" operator="arithmetic" k2="-1" k3="1"/>
<feColorMatrix type="matrix" values="0 0 0 0 1 0 0 0 0 1 0 0 0 0 1 0 0 0 0.6 0"/>
<feBlend mode="normal" in2="effect4_innerShadow_1071_10679" result="effect5_innerShadow_1071_10679"/>
<feColorMatrix in="SourceAlpha" type="matrix" values="0 0 0 0 0 0 0 0 0 0 0 0 0 0 0 0 0 0 127 0" result="hardAlpha"/>
<feOffset dy="-3"/>
<feGaussianBlur stdDeviation="4"/>
<feComposite in2="hardAlpha" operator="arithmetic" k2="-1" k3="1"/>
<feColorMatrix type="matrix" values="0 0 0 0 1 0 0 0 0 1 0 0 0 0 1 0 0 0 0.25 0"/>
<feBlend mode="normal" in2="effect5_innerShadow_1071_10679" result="effect6_innerShadow_1071_10679"/>
</filter>
<radialGradient id="paint0_radial_1071_10679" cx="0" cy="0" r="1" gradientUnits="userSpaceOnUse" gradientTransform="translate(12.75 9.75) rotate(51.0441) scale(15.11)">
<stop stop-color="white" stop-opacity="0.59"/>
<stop offset="0.697917" stop-color="white" stop-opacity="0"/>
<stop offset="1" stop-color="white" stop-opacity="0"/>
</radialGradient>
<radialGradient id="paint1_radial_1071_10679" cx="0" cy="0" r="1" gradientUnits="userSpaceOnUse" gradientTransform="translate(17 15) rotate(24.9048) scale(46.306)">
<stop stop-color="white"/>
<stop offset="0.697917" stop-color="white" stop-opacity="0"/>
<stop offset="1" stop-color="white" stop-opacity="0"/>
</radialGradient>
<clipPath id="clip0_1071_10679">
<rect width="34" height="34" fill="white"/>
</clipPath>
</defs>
</svg>
