<svg xmlns="http://www.w3.org/2000/svg" width="21.848" height="22" viewBox="0 0 21.848 22">
  <g id="Group_631" data-name="Group 631" transform="translate(-103.194 -486)">
    <path id="Path_1239" data-name="Path 1239" d="M2.212,16.033l6.277,7.578a5.133,5.133,0,0,1,1.733-1.3L8.419,16H6.66l.475,2.488a.72.72,0,0,1-.414.8.741.741,0,0,1-.309.068.721.721,0,0,1-.567-.279L3.406,16H2.194C2.2,16.011,2.2,16.023,2.212,16.033Z" transform="translate(101 475.73)" fill="#37083b"/>
    <path id="Path_1240" data-name="Path 1240" d="M34.8,6.006,36.519,2H31.943Z" transform="translate(83.178 484)" fill="#37083b"/>
    <path id="Path_1241" data-name="Path 1241" d="M23.052,22.052a5.044,5.044,0,0,1,2.88,0L27.66,16H21.325Z" transform="translate(89.625 475.663)" fill="#37083b"/>
    <path id="Path_1242" data-name="Path 1242" d="M17.24,6.006,20.1,2H15.525Z" transform="translate(93.014 484)" fill="#37083b"/>
    <path id="Path_1243" data-name="Path 1243" d="M21.945,6.839h5.882L24.886,2.72Z" transform="translate(89.232 483.543)" fill="#37083b"/>
    <path id="Path_1244" data-name="Path 1244" d="M43.849,16H37.624l-1.8,6.311a5.133,5.133,0,0,1,1.733,1.3l6.28-7.581q.008-.015.015-.03Z" transform="translate(81.193 475.73)" fill="#37083b"/>
    <path id="Path_1245" data-name="Path 1245" d="M9.657,11.48l-.228-1.2-.267-.25.267.25-1.124,1.2Z" transform="translate(97.12 478.902)" fill="#37083b"/>
    <path id="Path_1246" data-name="Path 1246" d="M10.144,18.624,9.644,16H8.066Z" transform="translate(97.272 475.557)" fill="#37083b"/>
    <path id="Path_1247" data-name="Path 1247" d="M2.929,6.713h.962l1.592-1.7a.73.73,0,0,1,1.251.363l.256,1.336H8.611l-1.8-4.191Z" transform="translate(100.533 483.669)" fill="#37083b"/>
    <path id="Path_1248" data-name="Path 1248" d="M22.382,42.763A4.382,4.382,0,1,0,18,38.382,4.382,4.382,0,0,0,22.382,42.763Zm0-8.033a3.651,3.651,0,1,1-3.651,3.651A3.651,3.651,0,0,1,22.382,34.73Z" transform="translate(91.736 465.237)" fill="#37083b"/>
    <path id="Path_1249" data-name="Path 1249" d="M24.921,43.842A2.921,2.921,0,1,0,22,40.921,2.921,2.921,0,0,0,24.921,43.842Zm-.365-4.68V39.1a.365.365,0,1,1,.73,0v.073a1.093,1.093,0,0,1,.584.475.365.365,0,0,1-.632.365.365.365,0,1,0-.317.548,1.093,1.093,0,0,1,.365,2.124v.067a.365.365,0,0,1-.73,0v-.073a1.093,1.093,0,0,1-.584-.475.365.365,0,0,1,.632-.365.365.365,0,1,0,.317-.548,1.093,1.093,0,0,1-.365-2.124Z" transform="translate(89.197 462.697)" fill="#37083b"/>
    <path id="Path_1250" data-name="Path 1250" d="M43.307,2.522,41.513,6.713h5.68Z" transform="translate(77.58 483.669)" fill="#37083b"/>
  </g>
</svg>
