<?xml version="1.0" encoding="utf-8"?>
<!-- Generator: Adobe Illustrator 27.8.0, SVG Export Plug-In . SVG Version: 6.00 Build 0)  -->
<svg version="1.1" id="Layer_1" xmlns="http://www.w3.org/2000/svg" xmlns:xlink="http://www.w3.org/1999/xlink" x="0px" y="0px"
	 viewBox="0 0 16.82 17.62" style="enable-background:new 0 0 16.82 17.62;" xml:space="preserve">
<style type="text/css">
	.st0{fill:#4C0C4B;}
</style>
<g>
	<g>
		<path class="st0" d="M0.91,15.81c-0.04,0-0.07,0-0.11-0.01c-0.01,0-0.02,0-0.02-0.01c-0.11-0.03-0.21-0.11-0.26-0.2
			c-0.01-0.01-0.01-0.02-0.02-0.04c0,0,0,0,0,0c0,0,0,0,0,0c-0.05-0.1-0.06-0.22-0.03-0.33c0,0,0,0,0,0c0,0,0,0,0,0c0,0,0,0,0,0
			c0,0,0,0,0,0l0.98-3.63c0.22-0.81,0.96-1.38,1.8-1.38h3.29c0,0,0.01,0,0.01,0c0.21,0,0.38-0.14,0.44-0.33
			C5.9,9.35,5.14,8.23,5.14,6.94V4.53C4.6,4.33,4.21,3.82,4.21,3.21V2.27c0-0.26,0.21-0.47,0.47-0.47h5.6c0.77,0,1.4,0.63,1.4,1.4
			v3.73c0,1.29-0.75,2.41-1.85,2.94c0.06,0.19,0.23,0.32,0.44,0.33c0,0,0.01,0,0.01,0h3.29c0.84,0,1.58,0.57,1.8,1.38l0.98,3.63
			c0,0,0,0,0,0c0,0,0,0,0,0c0,0,0,0,0,0c0,0,0,0,0,0c0,0,0,0,0,0c0,0,0,0,0,0c0.03,0.11,0.02,0.23-0.03,0.33
			c-0.01,0.01-0.02,0.03-0.02,0.04c-0.06,0.09-0.15,0.16-0.26,0.2c0,0,0,0,0,0c-0.01,0-0.02,0.01-0.03,0.01
			c-0.04,0.01-0.08,0.01-0.12,0.01H0.92C0.92,15.81,0.92,15.81,0.91,15.81z M13.58,14.88h1.72l-0.82-3.05
			c-0.11-0.41-0.48-0.69-0.9-0.69V14.88z M4.18,14.88h8.46v-3.73h-2.12L8.8,13.73c-0.09,0.13-0.23,0.21-0.39,0.21
			s-0.3-0.08-0.39-0.21l-1.73-2.59H4.18V14.88z M1.52,14.88h1.72v-3.73c-0.42,0-0.79,0.28-0.9,0.69c0,0,0,0,0,0L1.52,14.88z
			 M7.28,10.93l1.13,1.7l1.13-1.7c-0.28-0.17-0.5-0.45-0.6-0.77c-0.17,0.03-0.35,0.04-0.53,0.04s-0.36-0.01-0.53-0.04
			C7.78,10.49,7.56,10.76,7.28,10.93z M6.08,4.61v2.33c0,1.29,1.05,2.33,2.33,2.33s2.33-1.05,2.33-2.33V4.61H6.08z M5.14,2.74v0.47
			c0,0.26,0.21,0.47,0.47,0.47h5.13V3.21c0-0.26-0.21-0.47-0.47-0.47H5.14z M11.21,13.94h-0.47c-0.26,0-0.47-0.21-0.47-0.47
			s0.21-0.47,0.47-0.47h0.47c0.26,0,0.47,0.21,0.47,0.47S11.47,13.94,11.21,13.94z"/>
	</g>
</g>
</svg>
