<?xml version="1.0" encoding="UTF-8"?>
<svg id="Layer_2" xmlns="http://www.w3.org/2000/svg" xmlns:xlink="http://www.w3.org/1999/xlink" viewBox="0 0 125 125">
  <defs>
    <style>
      .cls-1 {
        fill: #f2f0f0;
      }

      .cls-2 {
        fill: none;
      }

      .cls-3 {
        fill: #200b4f;
      }

      .cls-4 {
        clip-path: url(#clippath);
      }
    </style>
    <clipPath id="clippath">
      <rect class="cls-2" x="12.5" y="12.5" width="100" height="100"/>
    </clipPath>
  </defs>
  <g id="Layer_1-2" data-name="Layer_1">
    <g>
      <rect class="cls-1" width="125" height="125" rx="30.35" ry="30.35"/>
      <g id="katman_1">
        <g class="cls-4">
          <g>
            <g>
              <path class="cls-3" d="M62.5,72.6c-.3,0-.6,0-.9-.2l-21.7-12.2c-.5-.3-.9-.9-.9-1.5V21.1c0-.9.7-1.7,1.7-1.7h43.4c.9,0,1.7.7,1.7,1.7v37.6c0,.6-.4,1.2-.9,1.5l-21.7,12.2c-.3.2-.5.2-.8.2h.1ZM42.5,57.7l20,11.3,20-11.3V22.8h-40v34.9Z"/>
              <path class="cls-3" d="M62.5,55.6c-.3,0-.6,0-.9-.2l-6.9-3.9c-.5-.3-.9-.9-.9-1.5v-7.1h3.4v6.1l5.2,2.9,6-3.4,1.7,3-6.9,3.9c-.3.2-.5.2-.9.2h.2Z"/>
              <path class="cls-3" d="M62.5,64.2c-.3,0-.6,0-.9-.2l-14.3-8c-.5-.3-.9-.9-.9-1.5v-18.4c0-.9.7-1.7,1.7-1.7h21v3.4h-19.3v15.8l12.6,7.1,12.6-7.1v-7.4h3.5v8.3c0,.6-.4,1.2-.9,1.5l-14.3,8c-.2.2-.5.2-.8.2h0Z"/>
              <path class="cls-3" d="M78.5,39.5h-3.4v-9.3h-22.6v-3.4h24.3c.9,0,1.7.7,1.7,1.7v11h0Z"/>
            </g>
            <g>
              <path class="cls-3" d="M12.3,92.7c0-7.3,5.4-12.9,12.9-12.9s8.4,2.2,10.6,5.7l-4.9,2.8c-1.1-1.9-3.2-3-5.7-3-4.4,0-7.2,2.9-7.2,7.4s2.8,7.4,7.2,7.4,4.7-1.1,5.7-3l4.9,2.8c-2.1,3.5-6.1,5.7-10.6,5.7-7.4,0-12.9-5.6-12.9-12.9h0Z"/>
              <polygon class="cls-3" points="84.4 100.1 84.4 105.6 67.7 105.6 67.7 79.9 84.4 79.9 84.4 85.4 73.6 85.4 73.6 89.8 83.1 89.8 83.1 95.3 73.6 95.3 73.6 100 84.4 100 84.4 100.1"/>
              <path class="cls-3" d="M56.6,96.2c2.8-1.4,4.8-4.3,4.8-7.5,0-4.9-3.9-8.8-8.8-8.8h-10.3v25.7h5.9v-8.4h2.8l4.8,8.4h6.3l-5.5-9.4ZM52.5,92h-4.4v-6.6h4.4c1.6,0,2.9,1.5,2.9,3.3s-1.3,3.3-2.9,3.3Z"/>
              <path class="cls-3" d="M100.2,79.9h-9.5v25.7h9.5c7.1,0,12.5-5.6,12.5-12.9s-5.4-12.8-12.5-12.8ZM100.2,100.1h-3.6v-14.7h3.6c4,0,6.8,2.9,6.8,7.3s-2.7,7.4-6.8,7.4Z"/>
            </g>
          </g>
        </g>
      </g>
    </g>
  </g>
</svg>