<?xml version="1.0" encoding="utf-8"?>
<!-- Generator: Adobe Illustrator 27.8.0, SVG Export Plug-In . SVG Version: 6.00 Build 0)  -->
<svg version="1.1" id="Layer_1" xmlns="http://www.w3.org/2000/svg" xmlns:xlink="http://www.w3.org/1999/xlink" x="0px" y="0px"
	 viewBox="0 0 17.49 17.73" style="enable-background:new 0 0 17.49 17.73;" xml:space="preserve">
<style type="text/css">
	.st0{fill:#4C0C4B;}
</style>
<g>
	<path class="st0" d="M12.62,4.1c-0.43,0-0.85,0.43-0.85,0.85c0,0.51,0.43,0.94,0.85,0.94c0.51,0,0.85-0.43,0.85-0.94
		C13.47,4.52,13.13,4.1,12.62,4.1L12.62,4.1z"/>
	<path class="st0" d="M8.79,11.16c-1.28,0-2.3-1.02-2.3-2.3c0-1.28,1.02-2.3,2.3-2.3c1.28,0,2.3,1.02,2.3,2.3
		C11.09,10.14,10.06,11.16,8.79,11.16L8.79,11.16z M8.79,5.2c-1.96,0-3.58,1.62-3.58,3.66c0,1.96,1.62,3.58,3.58,3.58
		c2.04,0,3.66-1.62,3.66-3.58C12.45,6.82,10.83,5.2,8.79,5.2L8.79,5.2z"/>
	<path class="st0" d="M5.81,2.9c-1.62,0-2.98,1.36-2.98,2.98v5.87c0,1.7,1.36,3.06,2.98,3.06h5.87c1.7,0,2.98-1.36,2.98-3.06V5.88
		c0-1.62-1.28-2.98-2.98-2.98H5.81z M11.68,16.18H5.81c-2.38,0-4.43-1.96-4.43-4.43V5.88c0-2.38,2.04-4.34,4.43-4.34h5.87
		c2.38,0,4.43,1.96,4.43,4.34v5.87C16.11,14.23,14.06,16.18,11.68,16.18L11.68,16.18z"/>
</g>
</svg>
