<?xml version="1.0" encoding="UTF-8"?>
<svg id="Layer_2" xmlns="http://www.w3.org/2000/svg" viewBox="0 0 355.26 239.61">
  <g id="Layer_1-2" data-name="Layer_1">
    <g>
      <path d="M175.69,0c77.39,3.31,135.42,36.06,174.23,101.61,7.23,12.21,7.06,24.77-.09,37.01-31.61,54.08-78.19,87.2-139.74,98.1-81.48,14.44-165.36-26.36-205.16-98.93-6.52-11.89-6.65-24,.13-35.73C35.97,48.63,81.73,15.74,142.24,3.91c11.56-2.26,23.47-2.78,33.45-3.91ZM177.03,22.75c-8.27.83-17.53,1.19-26.59,2.75-55.19,9.47-96.86,38.68-125.33,86.93-3.02,5.12-2.88,10.04,0,15.22,34.81,62.38,106.93,98.28,177.13,87.37,56.01-8.7,98.47-37.98,127.53-86.78,3.37-5.66,3.36-10.88-.03-16.5-34.5-57.24-85.51-85.97-152.72-88.99Z"/>
      <path d="M177.79,50.9c38.15.09,68.85,30.95,68.82,69.18-.03,38.36-30.99,69.19-69.33,69.04-38.1-.15-68.76-31.13-68.64-69.37.12-38.2,31-68.95,69.15-68.86ZM177.62,73.52c-25.55,0-46.41,20.9-46.41,46.49,0,25.58,20.88,46.5,46.41,46.5,25.54,0,46.41-20.92,46.4-46.51,0-25.61-20.85-46.49-46.41-46.49Z"/>
    </g>
  </g>
</svg>