<?xml version="1.0" encoding="UTF-8"?>
<svg id="Layer_2" data-name="Layer 2" xmlns="http://www.w3.org/2000/svg" viewBox="0 0 15.03 15.03">
  <defs>
    <style>
      .cls-1 {
        fill: #6d6c6d;
        stroke-width: 0px;
      }
    </style>
  </defs>
  <g id="Layer_1-2" data-name="Layer 1">
    <g>
      <g>
        <path class="cls-1" d="m5.72,1.01C3.12,1.01,1.01,3.12,1.01,5.72s2.11,4.71,4.71,4.71,4.71-2.11,4.71-4.71c0-2.6-2.11-4.71-4.71-4.71Zm0,8.92c-2.33,0-4.21-1.89-4.21-4.21S3.39,1.51,5.72,1.51s4.21,1.89,4.21,4.21c0,2.33-1.89,4.21-4.21,4.21Z"/>
        <path class="cls-1" d="m14.66,12.91l-3.16-3.16c-.1-.09-.25-.09-.35,0l-.18.18-.74-.74c1.92-2.5,1.45-6.09-1.05-8.01C6.69-.74,3.1-.27,1.18,2.23c-1.92,2.5-1.45,6.09,1.05,8.01,2.05,1.57,4.9,1.57,6.95,0l.74.74-.18.18c-.1.1-.1.25,0,.35l3.15,3.16c.48.49,1.26.5,1.75.02.49-.48.5-1.26.02-1.75,0,0-.01-.01-.02-.02ZM.51,5.72C.51,2.84,2.84.51,5.72.51s5.21,2.33,5.21,5.21-2.33,5.21-5.21,5.21c-2.87,0-5.2-2.33-5.21-5.21Zm9.41,3.85l.71.71-.35.35-.71-.71c.12-.11.24-.23.35-.35Zm4.39,4.74c-.29.29-.76.29-1.05,0l-2.98-2.98,1.05-1.05,2.98,2.98c.29.29.29.76,0,1.05h0Z"/>
      </g>
      <path class="cls-1" d="m4.21,3.12h3.48c-.2.32-.32.49-.35.51h-.93c.13.15.21.33.26.55h.99s.02,0,.02.01c-.22.33-.34.5-.34.5h-.64c-.01.17-.1.38-.25.62-.2.24-.39.4-.57.47-.34.16-.66.24-.97.24h0s.7.86,2.09,2.49h-.92c-1.36-1.58-2.04-2.38-2.04-2.39v-.5c.13.02.27.03.43.03.76,0,1.24-.25,1.42-.74.03-.07.04-.15.04-.22h-2.07s-.01,0-.01-.01c.23-.33.35-.5.35-.5h1.64c-.09-.2-.28-.35-.55-.45-.19-.06-.37-.09-.52-.09h-.92v-.02c.22-.33.34-.5.34-.5Z"/>
    </g>
  </g>
</svg>