<svg xmlns="http://www.w3.org/2000/svg" width="30" height="30" viewBox="0 0 30 30">
  <g id="Jewellery" transform="translate(-209 -46)">
    <rect id="Rectangle_287" data-name="Rectangle 287" width="30" height="30" rx="9" transform="translate(209 46)" fill="#37083b"/>
    <path id="Jewellery-2" data-name="Jewellery" d="M15.628,3.9,11.933,2.425a.817.817,0,0,1-.512-.758V.512A.509.509,0,0,0,10.91,0H6.268a.509.509,0,0,0-.512.512V1.667a.807.807,0,0,1-.512.758L1.55,3.9A2.467,2.467,0,0,0,.129,6.973l1.478,4.509a5.579,5.579,0,0,0,4.585,3.789v1.705H5.131a.512.512,0,1,0,0,1.023h6.935a.512.512,0,0,0,0-1.023H11V15.272a5.6,5.6,0,0,0,4.585-3.789l1.478-4.509A2.5,2.5,0,0,0,15.628,3.9Zm-10-.512A1.856,1.856,0,0,0,6.779,1.667V1.023h3.6v.644a1.856,1.856,0,0,0,1.156,1.724l.265.114A8.336,8.336,0,0,1,9.224,6.651l-.3-.3a.527.527,0,0,0-.72,0l-.3.3A8.294,8.294,0,0,1,5.339,3.505ZM7.878,8.128l.7-.7.7.7V9.189l-.7.7-.7-.7ZM7.2,16.977V15.328H9.944v1.648ZM16.083,6.651,14.6,11.16a4.586,4.586,0,0,1-4.358,3.145H6.912a4.588,4.588,0,0,1-4.339-3.126L1.1,6.669a1.453,1.453,0,0,1,.834-1.8l2.463-.985A9.51,9.51,0,0,0,7.177,7.371l-.171.17a.518.518,0,0,0-.152.36V9.379a.518.518,0,0,0,.152.36l1.213,1.213a.5.5,0,0,0,.72,0l1.213-1.213a.518.518,0,0,0,.152-.36V7.9a.518.518,0,0,0-.152-.36l-.189-.189a9.473,9.473,0,0,0,2.785-3.486l2.463.985A1.465,1.465,0,0,1,16.083,6.651Z" transform="translate(215 52)" fill="#fff"/>
  </g>
</svg>
