<svg xmlns="http://www.w3.org/2000/svg" width="27.961" height="17.856" viewBox="0 0 27.961 17.856">
  <path id="Path_1264" data-name="Path 1264" d="M5.05,37.551l1.177-3.989A1.207,1.207,0,0,1,7.38,32.7H9.3a1.2,1.2,0,0,1-.081-.868L10.4,27.837a1.208,1.208,0,0,1,1.152-.864H13.7a1.171,1.171,0,0,1-.081-.87l1.19-4.007a1.209,1.209,0,0,1,1.153-.858h3.772a1.2,1.2,0,0,1,1.149.858L22.058,26.1a1.183,1.183,0,0,1-.081.87h1.662c.991-.04,1.354,1.482,1.529,2.153l1.5-.074h.018a.3.3,0,0,1,.137.034h.024a.251.251,0,0,1,.093.081h.018l4.387,6.215V35.4a.42.42,0,0,1,.041.1.2.2,0,0,1,0,.038.314.314,0,0,1-.016.142l-.97,2.73h2.222a.33.33,0,0,1,.335.345.335.335,0,0,1-.335.335H6.2A1.2,1.2,0,0,1,5.05,37.541Zm11.345-9.907a1.2,1.2,0,0,1,.075.193L17.6,31.68l1.133-3.843a1.186,1.186,0,0,1,.072-.193Zm9.969,2.1-2.262.115,2.274,3.222Zm.675.711.018,3.449,3.152,1.034Zm3.606,5.337-3.063-1.01L29.852,38Zm-1.338,2.594L27.787,36.24l-5.635,2.093Zm-1.917-2.718-.954-1.332-1.056-1.494-4.038,5.08Zm-2.4-3.4-1.408-1.988-2.3,6.639Zm-1.83-2.824.016-.022h0a.035.035,0,0,1,0-.016.09.09,0,0,1,.019-.024.26.26,0,0,1,.08-.09.062.062,0,0,1,.032-.022.3.3,0,0,1,.152-.05l1-.053c-.211-.544-.621-1.519-.808-1.519h-3.76a.528.528,0,0,0-.51.382l-1.175,4a.521.521,0,0,0,.081.466.533.533,0,0,0,.425.209h.774a1.21,1.21,0,0,1,1.155.866l.559,1.535ZM14.118,38.21a.525.525,0,0,0,.422.214h5.508l.795-2.324v-.024L20,33.745a.534.534,0,0,0-.513-.379H15.718a.533.533,0,0,0-.51.379L14.033,37.74a.514.514,0,0,0,.085.47ZM12.3,33.55,13.434,37.4l1.131-3.843a1.842,1.842,0,0,1,.072-.193H12.223a1.019,1.019,0,0,1,.078.193Z" transform="translate(-4.998 -21.238)" fill="#37083b"/>
</svg>
