<?xml version="1.0" encoding="utf-8"?>
<!-- Generator: Adobe Illustrator 27.8.0, SVG Export Plug-In . SVG Version: 6.00 Build 0)  -->
<svg version="1.1" id="Layer_1" xmlns="http://www.w3.org/2000/svg" xmlns:xlink="http://www.w3.org/1999/xlink" x="0px" y="0px"
	 viewBox="0 0 16.38 17.16" style="enable-background:new 0 0 16.38 17.16;" xml:space="preserve">
<style type="text/css">
	.st0{fill:#4C0C4B;}
</style>
<path class="st0" d="M15.74,15.24l-3.24-3.24c0.98-1.18,1.57-2.7,1.57-4.35c0-3.76-3.06-6.82-6.82-6.82c-3.76,0-6.82,3.06-6.82,6.82
	c0,3.76,3.06,6.82,6.82,6.82c1.65,0,3.17-0.59,4.35-1.57l3.24,3.24c0.12,0.12,0.28,0.18,0.44,0.18c0.16,0,0.32-0.06,0.44-0.18
	C15.99,15.89,15.99,15.49,15.74,15.24z M1.71,7.66c0-3.06,2.49-5.56,5.56-5.56s5.56,2.49,5.56,5.56s-2.49,5.56-5.56,5.56
	S1.71,10.72,1.71,7.66z"/>
</svg>
