<?xml version="1.0" encoding="utf-8"?>
<!-- Generator: Adobe Illustrator 27.8.0, SVG Export Plug-In . SVG Version: 6.00 Build 0)  -->
<svg version="1.1" id="Layer_1" xmlns="http://www.w3.org/2000/svg" xmlns:xlink="http://www.w3.org/1999/xlink" x="0px" y="0px"
	 viewBox="0 0 21.93 21.93" style="enable-background:new 0 0 21.93 21.93;" xml:space="preserve">
<style type="text/css">
	.st0{fill:#7E3080;}
</style>
<g>
	<g>
		<g>
			<path class="st0" d="M10.19,8.61l0.77,0.44c0.01,0,0.01,0,0.02,0l0.77-0.44c0.01,0,0.01-0.01,0.01-0.02l-0.52-3.67
				c0-0.02-0.01-0.03-0.02-0.04l-0.24-0.25c0,0-0.01,0-0.01,0l-0.24,0.25c-0.01,0.01-0.02,0.03-0.02,0.04l-0.52,3.67
				C10.17,8.6,10.18,8.61,10.19,8.61z"/>
			<path class="st0" d="M10.96,0.3l-0.73,3.53c-0.02,0.11,0.02,0.23,0.11,0.3l0.62,0.5c0.01,0,0.01,0,0.02,0l0.62-0.49
				c0.09-0.07,0.13-0.19,0.11-0.3L10.96,0.3C10.97,0.3,10.96,0.3,10.96,0.3z"/>
		</g>
		<g>
			<path class="st0" d="M12.08,8.75l0.23,0.86c0,0.01,0.01,0.01,0.01,0.01l0.86,0.23c0.01,0,0.02,0,0.02-0.01l2.22-2.96
				c0.01-0.01,0.01-0.03,0.02-0.04l0.01-0.34c0-0.01,0-0.01-0.01-0.01l-0.34,0.01c-0.02,0-0.03,0.01-0.04,0.01l-2.96,2.22
				C12.08,8.73,12.07,8.74,12.08,8.75z"/>
			<path class="st0" d="M18.5,3.42L15.49,5.4c-0.1,0.06-0.15,0.17-0.14,0.29l0.09,0.79c0,0.01,0.01,0.01,0.01,0.01l0.79,0.09
				c0.11,0.01,0.23-0.04,0.29-0.14L18.5,3.42C18.51,3.42,18.5,3.42,18.5,3.42z"/>
		</g>
		<g>
			<path class="st0" d="M13.32,10.19l-0.44,0.77c0,0.01,0,0.01,0,0.02l0.44,0.77c0,0.01,0.01,0.01,0.02,0.01L17,11.23
				c0.02,0,0.03-0.01,0.04-0.02l0.25-0.24c0,0,0-0.01,0-0.01l-0.25-0.24c-0.01-0.01-0.03-0.02-0.04-0.02l-3.67-0.52
				C13.33,10.17,13.32,10.18,13.32,10.19z"/>
			<path class="st0" d="M21.63,10.96l-3.53-0.73c-0.11-0.02-0.23,0.02-0.3,0.11l-0.5,0.62c0,0.01,0,0.01,0,0.02l0.49,0.62
				c0.07,0.09,0.19,0.13,0.3,0.11L21.63,10.96C21.63,10.97,21.63,10.96,21.63,10.96z"/>
		</g>
		<g>
			<path class="st0" d="M13.18,12.08l-0.86,0.23c-0.01,0-0.01,0.01-0.01,0.01l-0.23,0.86c0,0.01,0,0.02,0.01,0.02l2.96,2.22
				c0.01,0.01,0.03,0.01,0.04,0.02l0.34,0.01c0.01,0,0.01,0,0.01-0.01l-0.01-0.34c0-0.02-0.01-0.03-0.01-0.04l-2.22-2.96
				C13.19,12.08,13.19,12.07,13.18,12.08z"/>
			<path class="st0" d="M18.51,18.5l-1.98-3.01c-0.06-0.1-0.17-0.15-0.29-0.14l-0.79,0.09c-0.01,0-0.01,0.01-0.01,0.01l-0.09,0.79
				c-0.01,0.11,0.04,0.23,0.14,0.29L18.51,18.5C18.5,18.51,18.51,18.5,18.51,18.5z"/>
		</g>
		<g>
			<path class="st0" d="M11.74,13.32l-0.77-0.44c-0.01,0-0.01,0-0.02,0l-0.77,0.44c-0.01,0-0.01,0.01-0.01,0.02L10.7,17
				c0,0.02,0.01,0.03,0.02,0.04l0.24,0.25c0,0,0.01,0,0.01,0l0.24-0.25c0.01-0.01,0.02-0.03,0.02-0.04l0.52-3.67
				C11.75,13.33,11.75,13.32,11.74,13.32z"/>
			<path class="st0" d="M10.97,21.63l0.73-3.53c0.02-0.11-0.02-0.23-0.11-0.3l-0.62-0.5c-0.01,0-0.01,0-0.02,0l-0.62,0.49
				c-0.09,0.07-0.13,0.19-0.11,0.3L10.97,21.63C10.96,21.63,10.97,21.63,10.97,21.63z"/>
		</g>
		<g>
			<path class="st0" d="M9.85,13.18l-0.23-0.86c0-0.01-0.01-0.01-0.01-0.01l-0.86-0.23c-0.01,0-0.02,0-0.02,0.01L6.5,15.05
				c-0.01,0.01-0.01,0.03-0.02,0.04l-0.01,0.34c0,0.01,0,0.01,0.01,0.01l0.34-0.01c0.02,0,0.03-0.01,0.04-0.01l2.96-2.22
				C9.85,13.19,9.85,13.19,9.85,13.18z"/>
			<path class="st0" d="M3.42,18.51l3.01-1.98c0.1-0.06,0.15-0.17,0.14-0.29l-0.09-0.79c0-0.01-0.01-0.01-0.01-0.01l-0.79-0.09
				c-0.11-0.01-0.23,0.04-0.29,0.14L3.42,18.51C3.42,18.5,3.42,18.51,3.42,18.51z"/>
		</g>
		<g>
			<path class="st0" d="M8.61,11.74l0.44-0.77c0-0.01,0-0.01,0-0.02l-0.44-0.77c0-0.01-0.01-0.01-0.02-0.01L4.92,10.7
				c-0.02,0-0.03,0.01-0.04,0.02l-0.25,0.24c0,0,0,0.01,0,0.01l0.25,0.24c0.01,0.01,0.03,0.02,0.04,0.02l3.67,0.52
				C8.6,11.75,8.61,11.75,8.61,11.74z"/>
			<path class="st0" d="M0.3,10.97l3.53,0.73c0.11,0.02,0.23-0.02,0.3-0.11l0.5-0.62c0-0.01,0-0.01,0-0.02l-0.49-0.62
				c-0.07-0.09-0.19-0.13-0.3-0.11L0.3,10.97C0.3,10.96,0.3,10.97,0.3,10.97z"/>
		</g>
		<g>
			<path class="st0" d="M8.75,9.85l0.86-0.23c0.01,0,0.01-0.01,0.01-0.01l0.23-0.86c0-0.01,0-0.02-0.01-0.02L6.88,6.5
				C6.87,6.5,6.85,6.49,6.84,6.49L6.49,6.48c-0.01,0-0.01,0-0.01,0.01l0.01,0.34c0,0.02,0.01,0.03,0.01,0.04l2.22,2.96
				C8.73,9.85,8.74,9.85,8.75,9.85z"/>
			<path class="st0" d="M3.42,3.42L5.4,6.44c0.06,0.1,0.17,0.15,0.29,0.14l0.79-0.09c0.01,0,0.01-0.01,0.01-0.01l0.09-0.79
				C6.59,5.58,6.54,5.46,6.44,5.4L3.42,3.42C3.42,3.42,3.42,3.42,3.42,3.42z"/>
		</g>
	</g>
	<g>
		<path class="st0" d="M10.02,8.65L9.58,4.68c0-0.01-0.02-0.01-0.02,0L9.28,6.85c0,0.01-0.01,0.01-0.02,0.01L7.55,5.49
			C7.54,5.48,7.53,5.5,7.54,5.51l2.46,3.15C10,8.67,10.02,8.67,10.02,8.65z"/>
		<path class="st0" d="M8.37,1.11L7.66,2.68C7.63,2.73,7.58,2.75,7.52,2.73L5.92,2.1c-0.2-0.08-0.43,0.13-0.35,0.33l0.57,1.4
			c0.02,0.05,0.05,0.1,0.1,0.13L8.9,6.1c0.04,0.03,0.1,0.01,0.11-0.04l0.43-3.4c0.01-0.05,0-0.1-0.02-0.15L8.85,1.1
			C8.77,0.9,8.46,0.91,8.37,1.11z"/>
	</g>
	<g>
		<path class="st0" d="M11.94,8.65l2.52-3.1c0.01-0.01-0.01-0.03-0.02-0.02L12.7,6.85c-0.01,0-0.01,0-0.02-0.01l-0.24-2.17
			c0-0.01-0.02-0.01-0.02,0l-0.51,3.96C11.91,8.65,11.93,8.66,11.94,8.65z"/>
		<path class="st0" d="M16.15,2.17l-1.62,0.6c-0.05,0.02-0.11-0.01-0.13-0.06l-0.68-1.59c-0.08-0.2-0.39-0.21-0.48-0.02l-0.59,1.38
			c-0.02,0.05-0.03,0.11-0.02,0.16l0.36,3.4c0.01,0.05,0.07,0.08,0.11,0.05l2.72-2.09c0.04-0.03,0.07-0.07,0.09-0.12l0.6-1.39
			C16.57,2.31,16.35,2.1,16.15,2.17z"/>
	</g>
	<g>
		<path class="st0" d="M13.29,10.03l3.98-0.39c0.01,0,0.01-0.02,0-0.02l-2.16-0.3c-0.01,0-0.01-0.01-0.01-0.02l1.38-1.69
			c0.01-0.01-0.01-0.03-0.02-0.02L13.29,10C13.28,10.01,13.28,10.03,13.29,10.03z"/>
		<path class="st0" d="M20.86,8.47L19.3,7.73c-0.05-0.02-0.07-0.08-0.05-0.13L19.89,6c0.08-0.2-0.13-0.43-0.33-0.35l-1.4,0.55
			c-0.05,0.02-0.1,0.05-0.13,0.1l-2.17,2.65c-0.03,0.04-0.01,0.1,0.04,0.11l3.4,0.47c0.05,0.01,0.1,0,0.15-0.02l1.41-0.55
			C21.06,8.86,21.05,8.56,20.86,8.47z"/>
	</g>
	<g>
		<path class="st0" d="M13.28,11.94l3.07,2.55c0.01,0.01,0.03,0,0.02-0.02l-1.31-1.75c0-0.01,0-0.01,0.01-0.01l2.17-0.21
			c0.01,0,0.01-0.02,0-0.02l-3.96-0.56C13.28,11.91,13.27,11.93,13.28,11.94z"/>
		<path class="st0" d="M19.71,16.22l-0.58-1.63c-0.02-0.05,0.01-0.11,0.06-0.13l1.59-0.67c0.2-0.08,0.22-0.39,0.02-0.48l-1.38-0.61
			c-0.05-0.02-0.11-0.03-0.16-0.03L15.86,13c-0.05,0.01-0.08,0.07-0.05,0.11l2.06,2.74c0.03,0.04,0.07,0.07,0.12,0.09l1.38,0.61
			C19.57,16.64,19.78,16.42,19.71,16.22z"/>
	</g>
	<g>
		<path class="st0" d="M11.91,13.29l0.35,3.98c0,0.01,0.02,0.01,0.02,0l0.33-2.16c0-0.01,0.01-0.01,0.02-0.01l1.68,1.4
			c0.01,0.01,0.03,0,0.02-0.02l-2.39-3.21C11.93,13.27,11.91,13.28,11.91,13.29z"/>
		<path class="st0" d="M13.39,20.88l0.75-1.56c0.02-0.05,0.08-0.07,0.13-0.05l1.6,0.66c0.2,0.08,0.43-0.12,0.36-0.32l-0.54-1.41
			c-0.02-0.05-0.05-0.1-0.09-0.13l-2.63-2.2c-0.04-0.03-0.1-0.01-0.11,0.04l-0.5,3.39c-0.01,0.05,0,0.1,0.02,0.15l0.54,1.41
			C12.99,21.07,13.3,21.07,13.39,20.88z"/>
	</g>
	<g>
		<path class="st0" d="M9.99,13.28L7.4,16.33c-0.01,0.01,0,0.03,0.02,0.02l1.76-1.29c0.01,0,0.01,0,0.01,0.01l0.19,2.18
			c0,0.01,0.02,0.01,0.02,0l0.6-3.95C10.01,13.28,10,13.27,9.99,13.28z"/>
		<path class="st0" d="M5.64,19.67l1.63-0.56c0.05-0.02,0.11,0.01,0.13,0.06l0.65,1.6c0.08,0.2,0.39,0.22,0.48,0.03l0.62-1.37
			c0.02-0.05,0.03-0.11,0.03-0.16L8.9,15.85c0-0.05-0.07-0.08-0.11-0.05l-2.77,2.03c-0.04,0.03-0.07,0.07-0.09,0.12L5.3,19.32
			C5.22,19.52,5.44,19.74,5.64,19.67z"/>
	</g>
	<g>
		<path class="st0" d="M8.62,11.93l-3.98,0.3c-0.01,0-0.01,0.02,0,0.02l2.16,0.35c0.01,0,0.01,0.01,0.01,0.02l-1.41,1.66
			c-0.01,0.01,0,0.03,0.02,0.02l3.23-2.35C8.63,11.94,8.63,11.93,8.62,11.93z"/>
		<path class="st0" d="M1.02,13.32l1.55,0.77c0.05,0.02,0.07,0.08,0.05,0.13l-0.68,1.59c-0.08,0.2,0.12,0.43,0.32,0.36l1.41-0.52
			c0.05-0.02,0.1-0.05,0.13-0.09l2.23-2.6c0.03-0.04,0.01-0.1-0.04-0.11l-3.39-0.54c-0.05-0.01-0.1,0-0.15,0.01l-1.42,0.52
			C0.83,12.92,0.83,13.23,1.02,13.32z"/>
	</g>
	<g>
		<path class="st0" d="M8.65,10L5.63,7.38c-0.01-0.01-0.03,0-0.02,0.02l1.27,1.78c0,0.01,0,0.01-0.01,0.01L4.69,9.35
			c-0.01,0-0.01,0.02,0,0.02l3.94,0.64C8.65,10.02,8.66,10.01,8.65,10z"/>
		<path class="st0" d="M2.31,5.58l0.54,1.64c0.02,0.05-0.01,0.11-0.06,0.13L1.19,7.98c-0.2,0.08-0.22,0.38-0.03,0.48L2.52,9.1
			c0.05,0.02,0.11,0.03,0.16,0.03l3.41-0.25c0.05,0,0.08-0.06,0.05-0.11l-2-2.79c-0.03-0.04-0.07-0.07-0.12-0.1L2.66,5.25
			C2.46,5.16,2.24,5.38,2.31,5.58z"/>
	</g>
</g>
</svg>
