<?xml version="1.0" encoding="utf-8"?>
<!-- Generator: Adobe Illustrator 27.8.0, SVG Export Plug-In . SVG Version: 6.00 Build 0)  -->
<svg version="1.1" id="Layer_1" xmlns="http://www.w3.org/2000/svg" xmlns:xlink="http://www.w3.org/1999/xlink" x="0px" y="0px"
	 viewBox="0 0 16.05 13.16" style="enable-background:new 0 0 16.05 13.16;" xml:space="preserve">
<style type="text/css">
	.st0{fill:#4C0C4B;stroke:#4C0C4B;stroke-width:0.2268;stroke-miterlimit:10;}
</style>
<g>
	<path class="st0" d="M15.83,4.61c-2.61,2.75-5.22,5.49-7.84,8.26c-0.38-0.4-0.74-0.78-1.11-1.17C4.71,9.41,2.53,7.11,0.35,4.83
		c-0.17-0.18-0.19-0.29-0.04-0.5C1.16,3.06,2,1.79,2.83,0.51c0.1-0.15,0.2-0.22,0.37-0.22c3.19,0,6.38,0,9.57,0.01
		c0.12,0,0.27,0.07,0.34,0.17c0.89,1.33,1.77,2.67,2.65,4.01C15.79,4.51,15.8,4.55,15.83,4.61z M5,4.9c1,2.26,1.99,4.48,3,6.77
		c1.02-2.29,2.02-4.51,3.02-6.77C9,4.9,7.03,4.9,5,4.9z M1.39,4.89C1.38,4.92,1.37,4.94,1.36,4.97c1.83,1.93,3.66,3.86,5.5,5.79
		c0.03-0.06,0.02-0.1,0.01-0.13C6.05,8.77,5.23,6.92,4.41,5.06C4.34,4.91,4.25,4.89,4.12,4.89c-0.76,0-1.53,0-2.29,0
		C1.68,4.89,1.53,4.89,1.39,4.89z M9.09,10.7c0.02,0.02,0.03,0.03,0.05,0.05c1.83-1.93,3.66-3.86,5.54-5.83
		c-0.13-0.01-0.2-0.02-0.27-0.02c-0.83,0-1.65,0-2.48-0.01c-0.18,0-0.27,0.07-0.35,0.24c-0.45,1.02-0.9,2.03-1.35,3.04
		C9.84,9.02,9.47,9.86,9.09,10.7z M5.33,4.19c1.78,0,3.55,0,5.27,0c-0.88-1-1.76-2.01-2.63-3C7.12,2.17,6.23,3.17,5.33,4.19z
		 M11.4,3.94C11.73,2.97,12.07,2,12.41,1c-1.23,0-2.43,0-3.59,0C9.67,1.97,10.53,2.95,11.4,3.94z M3.78,0.99
		c0.29,1,0.58,1.96,0.85,2.88c0.86-0.97,1.7-1.93,2.54-2.88C6.07,0.99,4.94,0.99,3.78,0.99z M4.1,4.2c-0.3-1.03-0.6-2.04-0.91-3.1
		c-0.7,1.06-1.36,2.06-2.04,3.1C2.16,4.2,3.11,4.2,4.1,4.2z M12.94,1.31c-0.34,1-0.66,1.93-0.99,2.88c0.98,0,1.91,0,2.89,0
		C14.2,3.22,13.59,2.3,12.94,1.31z"/>
</g>
</svg>
