<?xml version="1.0" encoding="UTF-8"?>
<svg id="Layer_2" data-name="Layer 2" xmlns="http://www.w3.org/2000/svg" viewBox="0 0 17.64 17.64">
  <defs>
    <style>
      .cls-1 {
        fill: #939393;
        stroke-width: 0px;
      }
    </style>
  </defs>
  <g id="Layer_1-2" data-name="Layer 1">
    <path class="cls-1" d="m14.89,5.9c-.72-.3-1.55-.54-2.44-.71-.18-.91-.42-1.75-.73-2.49-.73-1.74-1.76-2.7-2.89-2.7s-2.18.98-2.91,2.75c-.68,1.63-1.05,3.78-1.05,6.07,0,.87.05,1.72.16,2.54-2.46-.55-3.98-1.58-3.98-2.54,0-.55.51-1.13,1.41-1.62l.26.71,1.64-1.99-2.54-.42.27.73c-1.34.7-2.07,1.62-2.07,2.6,0,1.14.98,2.18,2.75,2.91.72.3,1.55.54,2.44.71.17.89.41,1.72.71,2.44.74,1.77,1.77,2.75,2.91,2.75,1.63,0,3-1.98,3.63-5.19.89-.17,1.72-.41,2.44-.71,1.77-.74,2.75-1.77,2.75-2.91s-.98-2.18-2.75-2.91ZM8.82,1.03c.68,0,1.39.76,1.94,2.07.24.57.44,1.21.59,1.91-.81-.1-1.66-.16-2.53-.16s-1.72.05-2.54.16c.55-2.46,1.58-3.98,2.54-3.98Zm1.49,14.38c-.47.76-1,1.18-1.49,1.18-.96,0-1.99-1.53-2.54-3.98.81.1,1.66.16,2.54.16s1.72-.05,2.53-.16c-.25,1.13-.6,2.08-1.04,2.8Zm-1.49-3.67c-.98,0-1.9-.07-2.73-.19-.12-.84-.19-1.75-.19-2.73s.07-1.9.19-2.73c.87-.13,1.79-.2,2.73-.2s1.9.07,2.73.19c.1.7.17,1.45.19,2.21l-.77-.02,1.22,2.27,1.36-2.19-.77-.02c-.02-.7-.07-1.39-.15-2.04,2.46.55,3.98,1.58,3.98,2.54,0,1.38-3.2,2.93-7.78,2.93Z"/>
  </g>
</svg>