<svg xmlns="http://www.w3.org/2000/svg" width="16.359" height="20" viewBox="0 0 16.359 20">
  <path id="Add_Notes" data-name="Add Notes" d="M29.547,8.332H20.468a.931.931,0,0,0-.65.27l-3.63,3.63a.931.931,0,0,0-.27.651V25.6a2.73,2.73,0,0,0,2.73,2.73h10.9a2.73,2.73,0,0,0,2.73-2.73V11.062a2.73,2.73,0,0,0-2.73-2.73Zm-.91,11.82H25.008v3.63a.91.91,0,1,1-1.821,0v-3.63h-3.63a.91.91,0,0,1,0-1.82h3.63v-3.64a.91.91,0,0,1,1.821,0v3.64h3.63a.91.91,0,0,1,0,1.82ZM19.818,9.883l.64-.64v1.82a1.82,1.82,0,0,1-1.809,1.821H16.827l.64-.65Z" transform="translate(-15.918 -8.332)" fill="#37083b"/>
</svg>
