<?xml version="1.0" encoding="UTF-8"?>
<svg id="Layer_2" data-name="Layer 2" xmlns="http://www.w3.org/2000/svg" viewBox="0 0 13.92 13.92">
  <defs>
    <style>
      .cls-1 {
        fill: #7e3080;
        stroke-width: 0px;
      }
    </style>
  </defs>
  <g id="Layer_1-2" data-name="Layer 1">
    <g>
      <path class="cls-1" d="m13.28,7.02v-1.96c0-.66-.51-1.2-1.16-1.25l-1.82-3.17c-.17-.29-.44-.5-.77-.59-.32-.09-.66-.04-.95.13L2.36,3.8h-1.09c-.7,0-1.27.57-1.27,1.27v7.59c0,.7.57,1.27,1.27,1.27h10.75c.7,0,1.27-.57,1.27-1.27v-1.96c.37-.13.63-.48.63-.89v-1.9c0-.41-.27-.76-.63-.89Zm-1.9-3.22h-2.76l2.07-1.2.69,1.2Zm-1-1.75l-3.01,1.75h-1.25l3.95-2.3.31.55Zm-1.48-1.33c.14-.08.31-.11.47-.06.16.04.3.15.38.29h0s-4.89,2.85-4.89,2.85h-1.25L8.9.72Zm3.75,11.93c0,.35-.28.63-.63.63H1.27c-.35,0-.63-.28-.63-.63v-7.59c0-.35.28-.63.63-.63h10.75c.35,0,.63.28.63.63v1.9h-1.9c-1.05,0-1.9.85-1.9,1.9s.85,1.9,1.9,1.9h1.9v1.9h0Zm.63-2.85c0,.17-.14.32-.32.32h-2.21c-.7,0-1.27-.57-1.27-1.27s.57-1.27,1.27-1.27h2.21c.17,0,.32.14.32.32v1.9Z"/>
      <path class="cls-1" d="m10.75,8.22c-.35,0-.63.28-.63.63s.28.63.63.63.63-.28.63-.63c0-.35-.28-.63-.63-.63Z"/>
    </g>
  </g>
</svg>