<svg width="13" height="16" viewBox="0 0 13 16" fill="none" xmlns="http://www.w3.org/2000/svg">
<path d="M11.1835 0.620239H10.5949V1.32277C10.5949 2.13923 9.93038 2.80378 9.11392 2.80378H3.56962C2.75316 2.80378 2.08861 2.13923 2.08861 1.32277V0.620239H1.5C0.664557 0.620239 0 1.2848 0 2.12024V14.5C0 15.3354 0.683544 16 1.5 16H11.1835C12.019 16 12.6835 15.3354 12.6835 14.5V2.12024C12.6835 1.2848 12 0.620239 11.1835 0.620239ZM5.31646 13.9683H2.48734C2.22152 13.9683 1.99367 13.7405 1.99367 13.4747C1.99367 13.2088 2.22152 12.981 2.48734 12.981H5.31646C5.58228 12.981 5.81013 13.2088 5.81013 13.4747C5.81013 13.7405 5.60127 13.9683 5.31646 13.9683ZM5.31646 11.1582H2.48734C2.22152 11.1582 1.99367 10.9304 1.99367 10.6645C1.99367 10.3987 2.22152 10.1709 2.48734 10.1709H5.31646C5.58228 10.1709 5.81013 10.3987 5.81013 10.6645C5.82911 10.9304 5.60127 11.1582 5.31646 11.1582ZM5.31646 8.34809H2.48734C2.22152 8.34809 1.99367 8.12024 1.99367 7.85442C1.99367 7.58859 2.22152 7.36075 2.48734 7.36075H5.31646C5.58228 7.36075 5.81013 7.58859 5.81013 7.85442C5.82911 8.12024 5.60127 8.34809 5.31646 8.34809ZM9.28481 13.2088V13.8164C9.28481 13.8924 9.22785 13.9683 9.13291 13.9683H8.44937C8.37342 13.9683 8.29747 13.9114 8.29747 13.8164V13.2088C7.57595 13.1519 6.98734 12.5823 6.91139 11.8797C6.89241 11.7848 6.96835 11.7088 7.0443 11.7088H7.72785C7.78481 11.7088 7.86076 11.7468 7.86076 11.8228C7.91772 12.0696 8.12658 12.2595 8.3924 12.2595H9.11392C9.43671 12.2595 9.68354 11.9937 9.64557 11.6519C9.60759 11.3671 9.36076 11.1582 9.07595 11.1582H8.44937C7.67089 11.1582 6.98734 10.6076 6.8924 9.8291C6.77848 8.95568 7.42405 8.21518 8.25949 8.13923V7.53163C8.25949 7.45568 8.31645 7.39872 8.41139 7.39872H9.09494C9.17089 7.39872 9.24684 7.45568 9.24684 7.53163V8.13923C9.96835 8.19619 10.538 8.76581 10.6329 9.46834C10.6519 9.56328 10.5759 9.63923 10.5 9.63923H9.81646C9.75949 9.63923 9.70253 9.60125 9.68354 9.5253C9.62658 9.27847 9.41772 9.08859 9.1519 9.08859H8.46835C8.18354 9.08859 7.91772 9.29745 7.89873 9.58226C7.86076 9.90505 8.12658 10.1899 8.43038 10.1899H9.09494C9.87342 10.1899 10.557 10.7405 10.6519 11.519C10.7658 12.3924 10.1203 13.1329 9.28481 13.2088ZM10.1962 5.53796H2.48734C2.22152 5.53796 1.99367 5.31011 1.99367 5.04429C1.99367 4.77847 2.22152 4.55062 2.48734 4.55062H10.1772C10.443 4.55062 10.6709 4.77847 10.6709 5.04429C10.6899 5.31011 10.462 5.53796 10.1962 5.53796Z" fill="#7E3080"/>
</svg>
