<svg width="15" height="18" viewBox="0 0 15 18" fill="none" xmlns="http://www.w3.org/2000/svg">
<path d="M6.83996 1.89353C8.04996 1.94353 9.24995 2.12353 10.39 2.56353C11.51 2.99353 12.5499 3.56353 13.4099 4.42353C14.1199 5.14353 14.54 6.02353 14.72 7.01353C15.02 8.67353 14.72 10.2235 13.74 11.6135C13.48 11.9835 13.15 12.3035 12.78 12.5735C12.68 12.6435 12.5699 12.6935 12.4499 12.7235C12.3199 12.7535 12.16 12.6735 12.12 12.5735C12.07 12.4435 12.0699 12.3135 12.1699 12.2135C12.3499 12.0235 12.5399 11.8535 12.6999 11.6535C13.3399 10.8835 13.6399 10.0135 13.4799 9.01353C13.3099 7.98353 12.77 7.16353 12 6.48353C11.33 5.88353 10.5399 5.51353 9.69995 5.23353C9.01995 5.01353 8.32994 4.80353 7.62994 4.68353C6.75994 4.52353 5.86996 4.49354 4.98996 4.49354C4.71996 4.49354 4.45995 4.49354 4.16995 4.49354C4.16995 4.53354 4.16995 4.58353 4.16995 4.62353C4.16995 5.12353 4.15996 5.62353 4.14996 6.12353C4.14996 6.31353 4.06994 6.35354 3.90994 6.24354C3.65994 6.08354 3.41994 5.91354 3.18994 5.72354C2.15994 4.91354 1.13996 4.10353 0.119961 3.29353C-0.0100385 3.18353 -0.0200385 3.12353 0.119961 3.01353C0.669961 2.57353 1.20996 2.13354 1.76996 1.69354C2.42996 1.17354 3.09996 0.653534 3.76996 0.143534C3.82996 0.103534 3.87995 0.0535392 3.94995 0.0235392C4.05995 -0.0364608 4.15995 0.0235343 4.16995 0.143534C4.17995 0.263534 4.18994 0.383529 4.18994 0.513529C4.18994 0.903529 4.18994 1.29353 4.18994 1.68353C4.18994 1.73353 4.18994 1.77353 4.18994 1.84353" fill="#7E3080"/>
<path d="M5.90997 14.5336C5.90997 13.7436 5.90997 12.9436 5.90997 12.1536C5.90997 12.0636 5.93999 12.0336 6.01999 12.0036C7.43999 11.5136 8.84998 11.0136 10.26 10.5236C10.51 10.4336 10.55 10.4636 10.55 10.7336C10.55 12.2836 10.55 13.8336 10.55 15.3736C10.55 15.4936 10.47 15.5436 10.39 15.5736C10.05 15.7036 9.69998 15.8436 9.34998 15.9736C8.35998 16.3236 7.36997 16.6636 6.37997 17.0136C6.27997 17.0536 6.17 17.0736 6.06 17.1136C5.96 17.1536 5.91997 17.0936 5.90997 17.0136C5.90997 16.9636 5.90997 16.9236 5.90997 16.8736C5.90997 16.1036 5.90997 15.3236 5.90997 14.5536V14.5336Z" fill="#7E3080"/>
<path d="M4.60999 17.1335C4.29999 17.0335 4.00998 16.9436 3.72998 16.8436C2.58998 16.4336 1.45 16.0235 0.309998 15.6135C0.0899976 15.5335 0.029989 15.5335 0.019989 15.2035C-1.09859e-05 14.3635 0 13.5335 0 12.6935C0 12.0135 0.00998901 11.3235 0.019989 10.6435C0.019989 10.4535 0.0899792 10.4135 0.259979 10.4735C1.13998 10.7835 2.02997 11.0936 2.90997 11.4036C3.45997 11.5936 4.01 11.7935 4.56 11.9835C4.63 12.0135 4.64999 12.0436 4.64999 12.1236C4.64999 13.6936 4.63997 15.2736 4.62997 16.8436C4.62997 16.9236 4.60998 17.0035 4.59998 17.1135L4.60999 17.1335Z" fill="#7E3080"/>
<path d="M5.39001 7.66357C5.58001 7.71357 5.77003 7.76356 5.97003 7.82356C7.39003 8.25356 8.82002 8.68356 10.24 9.10356C10.3 9.12356 10.36 9.14356 10.42 9.16356C10.51 9.18356 10.57 9.23357 10.55 9.30357C10.53 9.35357 10.47 9.41358 10.42 9.43358C9.93001 9.58358 9.44001 9.73356 8.95001 9.88356C7.78001 10.2236 6.62001 10.5736 5.45001 10.9136C5.40001 10.9336 5.33003 10.9336 5.28003 10.9136C3.64003 10.4136 2.00003 9.92356 0.370026 9.41356C0.290026 9.38356 0.220024 9.32357 0.150024 9.27357C0.220024 9.22357 0.280016 9.16356 0.360016 9.13356C1.06002 8.91356 1.76003 8.68357 2.47003 8.47357C3.37003 8.20357 4.27001 7.95357 5.17001 7.70357C5.24001 7.68357 5.31002 7.67356 5.40002 7.65356L5.39001 7.66357Z" fill="#7E3080"/>
</svg>
