<?xml version="1.0" encoding="UTF-8"?>
<svg id="Layer_2" data-name="Layer 2" xmlns="http://www.w3.org/2000/svg" viewBox="0 0 29.82 26.55">
  <defs>
    <style>
      .cls-1 {
        fill: #7e3080;
        stroke-width: 0px;
      }
    </style>
  </defs>
  <g id="Layer_1-2" data-name="Layer 1">
    <g>
      <path class="cls-1" d="m14.31,22.04H2.59c-1.45,0-2.59-1.14-2.59-2.59V2.59C0,1.14,1.14,0,2.59,0h23.34c1.45,0,2.59,1.14,2.59,2.59v11.25h-1.3V2.59c0-.73-.57-1.3-1.3-1.3H2.59c-.73,0-1.3.57-1.3,1.3v16.86c0,.73.57,1.3,1.3,1.3h11.72v1.3Z"/>
      <path class="cls-1" d="m.67,5.81h27.23v1.3H.67v-1.3Z"/>
      <path class="cls-1" d="m3.89,16.8h5.86v1.3H3.89v-1.3Z"/>
      <path class="cls-1" d="m21.42,26.55c-4.67,0-8.45-3.79-8.45-8.45s3.79-8.4,8.45-8.4,8.4,3.79,8.4,8.45-3.79,8.4-8.4,8.4Zm0-15.56c-3.94,0-7.11,3.22-7.11,7.11s3.16,7.16,7.11,7.16,7.11-3.22,7.11-7.11-3.22-7.16-7.11-7.16Z"/>
      <path class="cls-1" d="m3.89,12.97h2.59v1.3h-2.59v-1.3Z"/>
      <path class="cls-1" d="m9.08,12.97h2.59v1.3h-2.59v-1.3Z"/>
      <path class="cls-1" d="m20.75,22.3l-4.72-4.72.93-.93,3.79,3.79,5.08-5.08.93.93-6.02,6.02Z"/>
    </g>
  </g>
</svg>