<?xml version="1.0" encoding="UTF-8"?>
<svg id="Layer_2" data-name="Layer 2" xmlns="http://www.w3.org/2000/svg" viewBox="0 0 20.66 11.18">
  <defs>
    <style>
      .cls-1 {
        fill: #7e3080;
        stroke-width: 0px;
      }
    </style>
  </defs>
  <g id="Layer_1-2" data-name="Layer 1">
    <g>
      <path class="cls-1" d="m17.78,11.18c-.98,0-1.77-.79-1.77-1.77,0-.98.79-1.77,1.77-1.77.98,0,1.77.79,1.77,1.77h0c0,.98-.79,1.77-1.77,1.77Zm0-2.89c-.62,0-1.12.5-1.13,1.12,0,.62.5,1.12,1.12,1.13.62,0,1.12-.5,1.13-1.12h0c0-.62-.5-1.12-1.12-1.13Z"/>
      <path class="cls-1" d="m8.45,11.18c-.98,0-1.77-.79-1.77-1.77,0-.98.79-1.77,1.77-1.77.98,0,1.77.79,1.77,1.77,0,0,0,0,0,0,0,.98-.79,1.77-1.77,1.77Zm0-2.89c-.62,0-1.12.5-1.13,1.12,0,.62.5,1.12,1.12,1.13.62,0,1.12-.5,1.13-1.12,0,0,0,0,0,0,0-.62-.5-1.12-1.12-1.12Z"/>
      <path class="cls-1" d="m20.1,9.74h-.88c-.18,0-.32-.14-.32-.32s.14-.32.32-.32h.79v-1.71c0-.23-.06-.46-.17-.66l-1.75-3.13c-.03-.05-.09-.09-.15-.09h-2.38v5.59h.77c.18,0,.32.14.32.32s-.14.32-.32.32h-1.09c-.18,0-.32-.14-.32-.32V3.17c0-.18.14-.32.32-.32h2.7c.3,0,.57.16.71.42l1.75,3.13c.17.3.25.63.25.98v1.8c0,.31-.25.55-.55.55h0Z"/>
      <path class="cls-1" d="m7,9.74h-3.09c-.18,0-.32-.14-.32-.32v-2.48c0-.18.14-.32.32-.32s.32.14.32.32h0v2.16h2.77c.18,0,.32.14.32.32s-.14.32-.32.32Z"/>
      <path class="cls-1" d="m3.91,5.79c-.18,0-.32-.14-.32-.32v-2.17c0-.18.14-.32.32-.32s.32.14.32.32v2.17c0,.18-.15.32-.32.32Z"/>
      <path class="cls-1" d="m15.24,9.74h-5.34c-.18,0-.32-.14-.32-.32s.14-.32.32-.32h5.02V.65H4.23v1.33c0,.18-.14.32-.32.32s-.32-.14-.32-.32V.59c0-.32.26-.59.59-.59h10.8c.32,0,.59.26.59.59v8.83c0,.18-.14.32-.32.32Z"/>
      <path class="cls-1" d="m5.19,7.25H1.09c-.18,0-.32-.14-.32-.32s.14-.32.32-.32h4.1c.18,0,.32.14.32.32s-.14.32-.32.32Z"/>
      <path class="cls-1" d="m8.45,5.79H2.73c-.18,0-.32-.14-.32-.32s.14-.32.32-.32h5.72c.18,0,.32.14.32.32s-.14.32-.32.32Z"/>
      <path class="cls-1" d="m2.56,4.08H.32c-.18,0-.32-.14-.32-.32s.14-.32.32-.32h2.23c.18,0,.32.14.32.32s-.14.32-.32.32Z"/>
      <path class="cls-1" d="m6.13,2.3h-3.94c-.18,0-.32-.14-.32-.32s.14-.32.32-.32h3.94c.18,0,.32.14.32.32s-.14.32-.32.32Z"/>
    </g>
  </g>
</svg>