<?xml version="1.0" encoding="UTF-8"?>
<svg id="Layer_2" data-name="Layer 2" xmlns="http://www.w3.org/2000/svg" viewBox="0 0 13.68 15.83">
  <defs>
    <style>
      .cls-1 {
        fill: #7e3080;
        stroke-width: 0px;
      }
    </style>
  </defs>
  <g id="Layer_1-2" data-name="Layer 1">
    <g>
      <path class="cls-1" d="m6.31,1.76c1.12.05,2.22.21,3.28.62,1.04.4,2,.92,2.78,1.72.66.66,1.05,1.47,1.21,2.39.28,1.53,0,2.96-.91,4.24-.24.34-.54.64-.89.88-.09.06-.2.11-.3.14-.12.03-.26-.04-.3-.14-.05-.12-.05-.24.05-.34.16-.17.34-.33.49-.51.59-.71.87-1.51.72-2.44-.16-.95-.66-1.71-1.36-2.34-.62-.55-1.35-.9-2.12-1.15-.63-.21-1.26-.39-1.91-.51-.81-.15-1.62-.17-2.44-.18-.25,0-.49,0-.75,0,0,.04,0,.08,0,.12,0,.46-.01.93-.02,1.39,0,.17-.07.21-.22.12-.23-.15-.45-.31-.66-.48-.95-.74-1.89-1.49-2.84-2.24-.12-.1-.13-.16,0-.26.5-.41,1.01-.81,1.52-1.21.61-.48,1.23-.96,1.85-1.43.05-.04.11-.08.16-.11.1-.05.19,0,.2.11.01.11.02.23.02.34,0,.36,0,.72,0,1.08,0,.04,0,.09,0,.15"/>
      <g>
        <path class="cls-1" d="m5.45,13.43c0-.73,0-1.47,0-2.2,0-.08.02-.11.1-.14,1.31-.45,2.61-.91,3.92-1.37.23-.08.27-.05.27.19,0,1.43,0,2.86,0,4.29,0,.11-.07.15-.15.19-.32.12-.64.25-.96.37-.91.32-1.83.64-2.75.96-.1.03-.2.05-.29.09-.1.03-.13-.02-.14-.1,0-.04,0-.09,0-.13,0-.71,0-1.43,0-2.14,0,0,0,0,0,0Z"/>
        <path class="cls-1" d="m4.25,15.83c-.29-.09-.55-.17-.81-.27-1.05-.38-2.11-.75-3.16-1.13-.2-.07-.26-.07-.26-.38C0,13.28,0,12.51,0,11.73c0-.63.01-1.26.02-1.89,0-.17.06-.21.22-.16.82.29,1.63.57,2.44.86.51.18,1.01.36,1.52.54.07.02.09.06.09.13,0,1.45-.01,2.91-.02,4.36,0,.07-.01.15-.03.25Z"/>
        <path class="cls-1" d="m4.97,7.09c.17.05.35.09.53.15,1.32.39,2.63.79,3.95,1.19.06.02.11.04.17.05.08.02.14.06.12.13-.02.05-.07.1-.12.12-.45.14-.9.28-1.35.41-1.08.32-2.16.63-3.23.95-.05.01-.11.02-.16,0-1.51-.46-3.03-.92-4.54-1.38-.08-.02-.14-.09-.21-.13.06-.04.12-.1.2-.13.65-.21,1.29-.41,1.95-.6.83-.24,1.66-.48,2.49-.72.07-.02.13-.03.21-.05Z"/>
      </g>
    </g>
  </g>
</svg>