<?xml version="1.0" encoding="utf-8"?>
<!-- Generator: Adobe Illustrator 27.8.0, SVG Export Plug-In . SVG Version: 6.00 Build 0)  -->
<svg version="1.1" id="Layer_1" xmlns="http://www.w3.org/2000/svg" xmlns:xlink="http://www.w3.org/1999/xlink" x="0px" y="0px"
	 viewBox="0 0 25.49 9.04" style="enable-background:new 0 0 25.49 9.04;" xml:space="preserve">
<style type="text/css">
	.st0{fill:#4C0C4B;}
</style>
<path class="st0" d="M18.85,5.74c-0.5,1.12-1.74,1.11-2.22,0.1c-0.25,0.15-0.48,0.4-0.75,0.44c-0.27,0.04-0.57-0.12-0.9-0.21
	c-0.36,0.94-1.08,1.58-2.22,1.59c-1.14,0-1.87-0.63-2.27-1.67c-0.73,0.49-1.04,0.45-1.58-0.2C8.34,6.91,7.16,6.82,6.66,5.74
	C6.33,6.14,6,6.16,5.54,5.9C5.2,5.72,4.75,5.76,4.36,5.66C3.57,5.45,2.79,5.22,2,4.99C1.89,4.96,1.78,4.89,1.67,4.83
	C0.71,4.26,0.68,3.39,1.68,2.89c0.74-0.36,1.55-0.62,2.36-0.78c3.58-0.71,7.21-0.8,10.85-0.69c2.22,0.07,4.44,0.22,6.61,0.68
	c0.67,0.14,1.33,0.34,1.97,0.58c0.53,0.2,1.08,0.47,1.08,1.16c0,0.67-0.52,0.98-1.04,1.14c-1.05,0.32-2.13,0.55-3.19,0.82
	c-0.13,0.03-0.27,0.04-0.38,0.1C19.43,6.18,19.29,6.16,18.85,5.74z M23.55,3.98c0-0.07-0.01-0.13-0.01-0.2
	c-0.2-0.1-0.39-0.22-0.6-0.29c-1.85-0.64-3.78-0.84-5.71-0.98c-3.55-0.26-7.11-0.27-10.64,0.18C5.23,2.86,3.9,3.21,2.56,3.5
	c-0.21,0.05-0.4,0.19-0.65,0.32c0.4,0.37,1.04,0.38,1.18,0.96C3.05,4.65,3,4.52,2.93,4.31C3.1,4.44,3.18,4.55,3.29,4.57
	c0.44,0.07,0.89,0.11,1.33,0.17c0.37,0.05,0.76,0.19,1.11,0.13c0.4-0.07,0.68-0.01,0.92,0.3c0.53-1.13,1.76-1.1,2.24-0.11
	c0.24-0.15,0.46-0.38,0.72-0.42c0.27-0.04,0.57,0.1,0.87,0.17c0.35-1.08,1.09-1.76,2.08-1.8c1.32-0.06,2.13,0.63,2.51,1.87
	c0.66-0.43,0.97-0.37,1.54,0.25c0.68-1.09,1.5-1.08,2.26,0.04c0.24-0.31,0.54-0.43,0.92-0.27c0.07,0.03,0.16,0.01,0.24,0
	c0.54-0.1,1.09-0.17,1.63-0.31C22.3,4.41,22.92,4.18,23.55,3.98z M12.77,6.8c0.82-0.01,1.46-0.65,1.46-1.46
	c0-0.83-0.66-1.49-1.49-1.48c-0.82,0.01-1.47,0.68-1.46,1.51C11.3,6.17,11.96,6.81,12.77,6.8z M8.68,5.47
	C8.68,4.97,8.32,4.6,7.83,4.58c-0.52-0.01-0.9,0.35-0.91,0.86c0,0.49,0.37,0.88,0.85,0.89C8.26,6.36,8.67,5.96,8.68,5.47z
	 M16.84,5.46c0,0.49,0.41,0.89,0.91,0.88c0.48-0.01,0.85-0.4,0.85-0.89c0-0.51-0.38-0.88-0.9-0.87C17.21,4.6,16.84,4.97,16.84,5.46z
	 M10.37,5.46c0-0.35-0.27-0.62-0.61-0.61c-0.33,0-0.59,0.26-0.6,0.58c-0.01,0.34,0.26,0.63,0.6,0.63
	C10.09,6.07,10.36,5.8,10.37,5.46z M15.75,4.85c-0.35,0.01-0.61,0.28-0.6,0.63c0.01,0.33,0.27,0.59,0.6,0.59
	c0.34,0,0.62-0.27,0.62-0.61C16.37,5.11,16.1,4.84,15.75,4.85z M12.13,3.35c-0.93,0.19-1.57,1.03-1.55,2.02
	c0.01,0.9,0.64,1.74,1.39,1.88C10.2,6.15,10.59,4.03,12.13,3.35z M6.49,5.56c0-0.06,0-0.11,0.01-0.17C6.36,5.28,6.23,5.11,6.07,5.08
	c-0.25-0.05-0.44,0.14-0.4,0.37C5.7,5.6,5.9,5.79,6.04,5.81C6.18,5.83,6.34,5.65,6.49,5.56z M20.04,5.46
	c-0.26-0.19-0.4-0.36-0.56-0.38c-0.25-0.04-0.43,0.15-0.38,0.39c0.03,0.14,0.24,0.33,0.38,0.35C19.62,5.83,19.78,5.64,20.04,5.46z"
	/>
</svg>
