<?xml version="1.0" encoding="UTF-8"?>
<svg id="Layer_2" data-name="Layer 2" xmlns="http://www.w3.org/2000/svg" viewBox="0 0 141.06 72.41">
  <defs>
    <style>
      .cls-1 {
        fill: #e4dfe3;
        stroke-width: 0px;
      }
    </style>
  </defs>
  <g id="Layer_3" data-name="Layer 3">
    <g>
      <g>
        <path class="cls-1" d="m86.48,5.26l-6.02,1.61c-.05.01-.09.05-.1.1l-1.61,6.02c-.02.06,0,.12.05.16l20.82,15.62c.09.07.2.11.31.11l2.41.06s.07-.03.07-.07l-.06-2.42c0-.11-.04-.21-.1-.3l-15.63-20.83s-.1-.07-.16-.05Z"/>
        <path class="cls-1" d="m123.94,50.42l-13.93-21.19c-.44-.67-1.23-1.04-2.03-.96l-5.53.6s-.09.04-.09.09l-.61,5.52c-.09.8.28,1.59.96,2.03l21.2,13.93s.04-.01.03-.03Z"/>
      </g>
      <g>
        <path class="cls-1" d="m76.38,13.97l-5.39-3.12s-.1-.03-.15,0l-5.39,3.12c-.05.03-.08.09-.07.15l3.68,25.77c.02.11.07.21.14.3l1.67,1.75s.08.03.1,0l1.67-1.75c.07-.08.12-.18.14-.28l3.68-25.78c0-.06-.02-.12-.07-.15Z"/>
        <path class="cls-1" d="m70.94,72.4l5.14-24.83c.16-.79-.13-1.6-.76-2.11l-4.34-3.48s-.09-.03-.13,0l-4.33,3.47c-.63.5-.92,1.32-.76,2.11l5.14,24.84s.04.02.04,0Z"/>
      </g>
      <g>
        <path class="cls-1" d="m63.09,12.99l-1.61-6.02c-.01-.05-.05-.09-.1-.1l-6.02-1.61c-.06-.02-.12,0-.16.05l-15.62,20.82c-.07.09-.11.2-.11.31l-.06,2.41s.03.07.07.07l2.42-.06c.11,0,.21-.04.3-.1l20.83-15.63s.07-.1.05-.16Z"/>
        <path class="cls-1" d="m17.92,50.45l21.19-13.93c.67-.44,1.04-1.23.96-2.03l-.6-5.53s-.04-.09-.09-.09l-5.52-.61c-.8-.09-1.59.28-2.03.96l-13.93,21.2s.01.04.03.03Z"/>
      </g>
      <g>
        <path class="cls-1" d="m87.21,4.27l21.61,17.94c.07.06.18-.03.12-.11l-9.18-12.31s0-.1.05-.11l15.28-1.49c.1,0,.1-.15,0-.16l-27.82-3.92c-.09-.01-.14.1-.07.16Z"/>
        <path class="cls-1" d="m132.41,34.37l-4.07-11.45c-.13-.36.05-.76.4-.91l11.21-4.69c1.38-.58,1.52-2.74.16-3.38l-9.68-4.28c-.35-.16-.74-.22-1.13-.18l-23.96,2.26c-.38.04-.57.47-.34.77l14.47,19.29c.21.29.5.51.83.66l9.73,4.3c1.38.58,2.89-.98,2.39-2.39Z"/>
      </g>
      <g>
        <path class="cls-1" d="m77.61,13.81l2.44,27.98c0,.1.15.1.16,0l2.3-15.18c0-.05.07-.07.11-.04l11.81,9.82c.07.06.18-.03.12-.11l-16.78-22.53c-.05-.07-.17-.03-.16.06Z"/>
        <path class="cls-1" d="m88,67.11l5.28-10.94c.17-.35.58-.5.93-.36l11.21,4.67c1.38.58,3.02-.85,2.51-2.26l-3.76-9.9c-.14-.36-.37-.68-.66-.93l-18.46-15.45c-.29-.24-.73-.07-.79.3l-3.54,23.85c-.05.35-.01.72.11,1.05l3.78,9.94c.56,1.39,2.73,1.37,3.38.02Z"/>
      </g>
      <g>
        <path class="cls-1" d="m64.07,13.75l-18.18,21.42c-.06.07.03.18.11.12l12.41-9.04s.1,0,.1.05l1.32,15.3c0,.1.15.1.16,0l4.22-27.77c.01-.09-.1-.14-.16-.07Z"/>
        <path class="cls-1" d="m33.49,58.61l11.49-3.94c.36-.13.76.06.91.41l4.57,11.26c.56,1.39,2.72,1.55,3.37.2l4.39-9.64c.16-.35.23-.74.2-1.13l-2-23.99c-.03-.38-.46-.57-.77-.35l-19.45,14.26c-.29.21-.52.49-.67.82l-4.41,9.68c-.59,1.38.95,2.9,2.36,2.41Z"/>
      </g>
      <g>
        <path class="cls-1" d="m54.41,4.22l-28.01,2.14c-.1,0-.1.15,0,.16l15.15,2.46c.05,0,.07.07.04.11l-9.95,11.7c-.06.07.03.18.11.12L54.47,4.38c.07-.05.03-.17-.06-.16Z"/>
        <path class="cls-1" d="m1,14.03l10.88,5.4c.35.17.5.58.34.94l-4.79,11.16c-.59,1.38.81,3.03,2.23,2.54l9.94-3.66c.36-.13.69-.36.94-.65l15.65-18.29c.24-.29.08-.73-.29-.79l-23.81-3.8c-.35-.06-.72-.02-1.05.1L1.05,10.65c-1.39.55-1.4,2.71-.05,3.38Z"/>
      </g>
      <path class="cls-1" d="m33.44,0l20.79,2.97c.06,0,.12-.02.15-.07l1.67-2.89h-22.61Z"/>
      <path class="cls-1" d="m108.49,0l-20.79,2.97c-.06,0-.12-.02-.15-.07l-1.67-2.89h22.61Z"/>
    </g>
  </g>
</svg>