<svg width="20" height="20" viewBox="0 0 20 20" fill="none" xmlns="http://www.w3.org/2000/svg">
<path d="M8.67794 17.3559C13.4706 17.3559 17.3559 13.4706 17.3559 8.67794C17.3559 3.88525 13.4706 0 8.67794 0C3.88525 0 0 3.88525 0 8.67794C0 13.4706 3.88525 17.3559 8.67794 17.3559ZM8.67794 15.4394C4.94371 15.4394 1.91652 12.4122 1.91652 8.67794C1.91652 4.94371 4.94371 1.91652 8.67794 1.91652C12.4122 1.91652 15.4394 4.94371 15.4394 8.67794C15.4394 12.4122 12.4122 15.4394 8.67794 15.4394Z" fill="white"/>
<path d="M13.5966 15.2371L18.3856 19.7402C18.7712 20.1027 19.3776 20.0841 19.7402 19.6985C20.1027 19.313 20.084 18.7065 19.6985 18.344L14.9094 13.8408C14.5239 13.4783 13.9174 13.497 13.5549 13.8825C13.1924 14.2681 13.211 14.8745 13.5966 15.2371Z" fill="white"/>
</svg>
