<?xml version="1.0" encoding="UTF-8"?>
<svg id="Layer_2" data-name="Layer 2" xmlns="http://www.w3.org/2000/svg" viewBox="0 0 20.71 21.82">
  <defs>
    <style>
      .cls-1 {
        fill: #4c0c4b;
        stroke-width: 0px;
      }
    </style>
  </defs>
  <g id="Layer_1-2" data-name="Layer 1">
    <g>
      <path class="cls-1" d="m7.58,15.11c.06.08.1.15.14.21.84,1.24,1.68,2.48,2.52,3.71.25.37.39.76.34,1.21-.09.8-.58,1.35-1.34,1.53-.68.16-1.43-.15-1.87-.8-.96-1.41-1.92-2.83-2.89-4.24-.05-.07-.1-.14-.13-.18-.37.12-.71.29-1.06.35C1.29,17.27-.06,15.52,0,14.06c.04-.93.44-1.65,1.2-2.18.57-.4,1.16-.78,1.73-1.18.12-.08.22-.2.29-.33,1.09-2.2,2.18-4.4,3.27-6.6.27-.54.71-.82,1.3-.89.73-.08,1.38.16,2,.5,1.15.62,2.08,1.5,2.89,2.5,1.17,1.43,2.08,3.01,2.57,4.81.21.77.32,1.55.15,2.35-.1.49-.31.92-.71,1.23-.25.2-.54.31-.86.33-2.02.16-4.04.32-6.06.48-.05,0-.11.02-.19.04Zm-.61-9.82s-.01,0-.02,0c.07.41.11.82.22,1.22.71,2.52,2.11,4.59,4.13,6.25.56.46,1.19.83,1.92.99.37.08.67-.04.94-.28.22-.21.34-.48.39-.77.11-.55.05-1.09-.06-1.63-.24-1.1-.73-2.09-1.32-3.04-.79-1.28-1.72-2.43-2.92-3.35-.54-.41-1.11-.76-1.77-.92-.79-.19-1.34.18-1.46.98-.03.18-.03.37-.04.55Zm4.48,8.65c-2.68-1.95-4.43-4.51-5.24-7.7-.01.02-.03.04-.05.07-.72,1.46-1.44,2.93-2.15,4.39-.03.07-.01.19.03.26.73,1.08,1.47,2.16,2.19,3.24.08.12.17.15.3.14,1.28-.1,2.56-.2,3.84-.3.35-.03.7-.06,1.07-.09Zm-5.9.74c-.74-1.09-1.47-2.16-2.21-3.24-.59.41-1.17.78-1.73,1.19-.78.57-.98,1.63-.49,2.46.56.94,1.59,1.33,2.48.85.68-.36,1.29-.83,1.94-1.26Zm-.5,1.35s0,.05.02.06c1.03,1.51,2.06,3.03,3.09,4.54.15.22.38.33.64.34.37.02.66-.13.84-.45.19-.34.15-.67-.07-.98-.95-1.4-1.9-2.79-2.85-4.19-.12-.17-.31-.23-.49-.11-.4.26-.79.53-1.18.8Z"/>
      <path class="cls-1" d="m16.24,5.93c-.27,0-.41-.1-.48-.28-.07-.18,0-.37.19-.5.41-.28.83-.55,1.25-.82.53-.35,1.06-.7,1.59-1.04.26-.17.51-.15.66.07.15.22.08.47-.19.65-.92.61-1.85,1.21-2.77,1.81-.09.06-.2.09-.25.12Z"/>
      <path class="cls-1" d="m16.94,7.88c.57.1,1.17.21,1.78.32.53.09,1.05.19,1.58.28.28.05.45.24.41.47-.04.26-.27.41-.56.36-1.03-.18-2.05-.37-3.07-.55-.11-.02-.21-.04-.31-.06-.22-.06-.35-.26-.32-.46.04-.22.22-.37.5-.35Z"/>
      <path class="cls-1" d="m13.63,3.41c.1-1,.2-1.99.31-2.99.03-.28.21-.44.46-.42.25.02.4.23.37.5-.1,1.01-.21,2.02-.32,3.03-.03.32-.2.48-.47.46-.26-.02-.39-.22-.36-.54,0-.01,0-.03,0-.04,0,0,0,0,0,0Z"/>
      <path class="cls-1" d="m9.83,6.98c1.2,0,2.06.61,2.38,1.53.32.91.03,1.93-.74,2.54-.07.06-.15.11-.23.15-.18.08-.4,0-.51-.17-.1-.16-.08-.38.06-.51.05-.06.12-.1.18-.15.56-.48.68-1.3.26-1.91-.41-.6-1.21-.81-1.86-.47-.07.04-.13.08-.21.11-.21.1-.44.03-.55-.17-.11-.19-.05-.43.14-.56.38-.26.81-.38,1.06-.39Z"/>
    </g>
  </g>
</svg>