<?xml version="1.0" encoding="UTF-8"?>
<svg id="Layer_2" data-name="Layer 2" xmlns="http://www.w3.org/2000/svg" viewBox="0 0 13.87 18.49">
  <defs>
    <style>
      .cls-1 {
        fill: #7e3080;
        stroke-width: 0px;
      }
    </style>
  </defs>
  <g id="Layer_1-2" data-name="Layer 1">
    <g>
      <path class="cls-1" d="m11.17,13.1H2.7c-.21,0-.39.17-.39.39s.17.39.39.39h8.48c.21,0,.39-.17.39-.39,0-.21-.17-.39-.39-.39Z"/>
      <path class="cls-1" d="m9.63,15.41h-5.39c-.21,0-.39.17-.39.39s.17.39.39.39h5.39c.21,0,.39-.17.39-.39,0-.21-.17-.39-.39-.39Z"/>
      <path class="cls-1" d="m6.93,2.31c-2.55,0-4.62,2.07-4.62,4.62s2.07,4.62,4.62,4.62,4.62-2.07,4.62-4.62-2.07-4.62-4.62-4.62Zm-3.81,5.01h1.89c.04,1.24.27,2.44.69,3.25-1.4-.48-2.43-1.73-2.58-3.25Zm1.89-.77h-1.89c.15-1.52,1.18-2.77,2.58-3.25-.41.81-.65,2.01-.69,3.25Zm1.92,4.24c-.43,0-1.07-1.37-1.14-3.47h2.28c-.07,2.09-.71,3.47-1.14,3.47Zm-1.14-4.24c.07-2.09.71-3.47,1.14-3.47s1.07,1.37,1.14,3.47h-2.28Zm2.38,4.02c.41-.81.65-2.01.69-3.25h1.89c-.15,1.52-1.18,2.77-2.58,3.25Zm.69-4.02c-.04-1.24-.27-2.44-.69-3.25,1.4.48,2.43,1.73,2.58,3.25h-1.89Z"/>
      <path class="cls-1" d="m12.33,0H1.54C.69,0,0,.69,0,1.54v15.41c0,.85.69,1.54,1.54,1.54h10.79c.85,0,1.54-.69,1.54-1.54V1.54c0-.85-.69-1.54-1.54-1.54Zm.77,16.95c0,.42-.35.77-.77.77H1.54c-.42,0-.77-.35-.77-.77V1.54c0-.42.35-.77.77-.77h10.79c.42,0,.77.35.77.77v15.41Z"/>
    </g>
  </g>
</svg>