<?xml version="1.0" encoding="utf-8"?>
<!-- Generator: Adobe Illustrator 27.8.0, SVG Export Plug-In . SVG Version: 6.00 Build 0)  -->
<svg version="1.1" id="Layer_1" xmlns="http://www.w3.org/2000/svg" xmlns:xlink="http://www.w3.org/1999/xlink" x="0px" y="0px"
	 viewBox="0 0 414 896" style="enable-background:new 0 0 414 896;" xml:space="preserve">
<style type="text/css">
	.st0{fill:#F3F1F1;}
	.st1{opacity:5.000000e-02;clip-path:url(#SVGID_00000088838528874857578760000017705447988349655988_);}
	.st2{fill:#692570;}
</style>
<g>
	<g>
		<rect id="SVGID_1_" y="0" class="st0" width="414" height="896"/>
	</g>
	<g>
		<g>
			<defs>
				<rect id="SVGID_00000176037887593737573610000009736387380103145406_" y="0" width="414" height="896"/>
			</defs>
			<clipPath id="SVGID_00000158022986432017076010000000937422104803228811_">
				<use xlink:href="#SVGID_00000176037887593737573610000009736387380103145406_"  style="overflow:visible;"/>
			</clipPath>
			<g style="opacity:5.000000e-02;clip-path:url(#SVGID_00000158022986432017076010000000937422104803228811_);">
				<g>
					<g>
						<path class="st2" d="M341.8,26.7l6,3.4c0.1,0,0.1,0,0.2,0l6-3.4c0.1,0,0.1-0.1,0.1-0.2l-4.1-28.4c0-0.1-0.1-0.2-0.1-0.3
							l-1.8-1.9c0,0-0.1,0-0.1,0L346-2.3c-0.1,0.1-0.1,0.2-0.1,0.3l-4.1,28.5C341.7,26.6,341.7,26.6,341.8,26.7z"/>
						<path class="st2" d="M347.8-37.8l-5.7,27.4c-0.2,0.9,0.1,1.8,0.8,2.3l4.8,3.8c0,0,0.1,0,0.1,0l4.8-3.8c0.7-0.6,1-1.5,0.8-2.3
							L347.8-37.8C347.9-37.8,347.8-37.8,347.8-37.8z"/>
					</g>
					<g>
						<path class="st2" d="M356.5,27.8l1.8,6.6c0,0.1,0.1,0.1,0.1,0.1l6.6,1.8c0.1,0,0.1,0,0.2-0.1l17.2-23c0.1-0.1,0.1-0.2,0.1-0.3
							l0.1-2.7c0,0,0-0.1-0.1-0.1l-2.7,0.1c-0.1,0-0.2,0-0.3,0.1l-23,17.2C356.5,27.6,356.5,27.7,356.5,27.8z"/>
						<path class="st2" d="M406.4-13.6L383,1.8c-0.7,0.5-1.1,1.4-1.1,2.2l0.7,6.1c0,0.1,0,0.1,0.1,0.1l6.1,0.7
							c0.9,0.1,1.8-0.3,2.2-1.1L406.4-13.6C406.4-13.6,406.4-13.6,406.4-13.6z"/>
					</g>
					<g>
						<path class="st2" d="M366.1,38.9l-3.4,6c0,0.1,0,0.1,0,0.2l3.4,6c0,0.1,0.1,0.1,0.2,0.1l28.5-4.1c0.1,0,0.2-0.1,0.3-0.2
							L397,45c0,0,0-0.1,0-0.1l-1.9-1.8c-0.1-0.1-0.2-0.1-0.3-0.2l-28.5-4.1C366.2,38.8,366.1,38.8,366.1,38.9z"/>
						<path class="st2" d="M430.6,44.9l-27.4-5.7c-0.9-0.2-1.8,0.1-2.3,0.8l-3.8,4.8c0,0,0,0.1,0,0.1l3.8,4.8c0.5,0.7,1.5,1,2.3,0.8
							L430.6,44.9C430.6,45,430.6,44.9,430.6,44.9z"/>
					</g>
					<g>
						<path class="st2" d="M365,53.6l-6.6,1.8c-0.1,0-0.1,0.1-0.1,0.1l-1.8,6.6c0,0.1,0,0.1,0.1,0.2l23,17.2
							c0.1,0.1,0.2,0.1,0.3,0.1l2.7,0.1c0,0,0.1,0,0.1-0.1l-0.1-2.7c0-0.1,0-0.2-0.1-0.3l-17.3-23C365.1,53.6,365.1,53.6,365,53.6z"
							/>
						<path class="st2" d="M406.4,103.4L391,80c-0.5-0.7-1.4-1.2-2.2-1.1l-6.1,0.7c-0.1,0-0.1,0-0.1,0.1l-0.7,6.1
							c-0.1,0.9,0.3,1.8,1.1,2.2L406.4,103.4C406.4,103.5,406.4,103.4,406.4,103.4z"/>
					</g>
					<g>
						<path class="st2" d="M353.9,63.2l-6-3.4c-0.1,0-0.1,0-0.2,0l-6,3.4c-0.1,0-0.1,0.1-0.1,0.2l4.1,28.4c0,0.1,0.1,0.2,0.1,0.3
							l1.8,1.9c0,0,0.1,0,0.1,0l1.8-1.9c0.1-0.1,0.1-0.2,0.1-0.3l4.1-28.5C354,63.3,353.9,63.2,353.9,63.2z"/>
						<path class="st2" d="M347.9,127.7l5.7-27.4c0.2-0.9-0.1-1.8-0.8-2.3l-4.8-3.8c0,0-0.1,0-0.1,0l-4.8,3.8
							c-0.7,0.6-1,1.5-0.8,2.3L347.9,127.7C347.8,127.7,347.9,127.7,347.9,127.7z"/>
					</g>
					<g>
						<path class="st2" d="M339.2,62.1l-1.8-6.6c0-0.1-0.1-0.1-0.1-0.1l-6.6-1.8c-0.1,0-0.1,0-0.2,0.1l-17.2,23
							c-0.1,0.1-0.1,0.2-0.1,0.3l-0.1,2.7c0,0,0,0.1,0.1,0.1l2.7-0.1c0.1,0,0.2,0,0.3-0.1l23-17.2C339.2,62.2,339.2,62.2,339.2,62.1
							z"/>
						<path class="st2" d="M289.3,103.5l23.4-15.4c0.7-0.5,1.1-1.4,1.1-2.2l-0.7-6.1c0-0.1,0-0.1-0.1-0.1l-6.1-0.7
							c-0.9-0.1-1.8,0.3-2.2,1.1L289.3,103.5C289.3,103.4,289.3,103.5,289.3,103.5z"/>
					</g>
					<g>
						<path class="st2" d="M329.6,51l3.4-6c0-0.1,0-0.1,0-0.2l-3.4-6c0-0.1-0.1-0.1-0.2-0.1L301,42.9c-0.1,0-0.2,0.1-0.3,0.2
							l-1.9,1.8c0,0,0,0.1,0,0.1l1.9,1.8c0.1,0.1,0.2,0.1,0.3,0.2l28.5,4.1C329.5,51,329.5,51,329.6,51z"/>
						<path class="st2" d="M265.1,45l27.4,5.7c0.9,0.2,1.8-0.1,2.3-0.8l3.8-4.8c0,0,0-0.1,0-0.1l-3.8-4.8c-0.5-0.7-1.5-1-2.3-0.8
							L265.1,45C265,44.9,265,45,265.1,45z"/>
					</g>
					<g>
						<path class="st2" d="M330.7,36.3l6.6-1.8c0.1,0,0.1-0.1,0.1-0.1l1.8-6.6c0-0.1,0-0.1-0.1-0.2l-23-17.2
							c-0.1-0.1-0.2-0.1-0.3-0.1l-2.7-0.1c0,0-0.1,0-0.1,0.1l0.1,2.7c0,0.1,0,0.2,0.1,0.3l17.3,23C330.5,36.3,330.6,36.3,330.7,36.3
							z"/>
						<path class="st2" d="M289.3-13.6l15.4,23.4c0.5,0.7,1.4,1.1,2.2,1.1l6.1-0.7c0.1,0,0.1,0,0.1-0.1l0.7-6.1
							c0.1-0.9-0.3-1.8-1.1-2.2L289.3-13.6C289.3-13.6,289.3-13.6,289.3-13.6z"/>
					</g>
				</g>
				<g>
					<path class="st2" d="M340.5,27l-3.4-30.8c0-0.1-0.2-0.1-0.2,0L334.8,13c0,0.1-0.1,0.1-0.1,0L321.4,2.5c-0.1-0.1-0.2,0-0.1,0.1
						l19.1,24.5C340.4,27.1,340.5,27.1,340.5,27z"/>
					<path class="st2" d="M327.7-31.6l-5.6,12.2c-0.2,0.4-0.6,0.6-1,0.4l-12.5-4.9c-1.5-0.6-3.3,1-2.7,2.5l4.4,10.8
						c0.2,0.4,0.4,0.8,0.8,1l20.7,16.6c0.3,0.3,0.8,0.1,0.9-0.3l3.3-26.4c0-0.4,0-0.8-0.1-1.2l-4.4-10.9
						C330.8-33.2,328.4-33.1,327.7-31.6z"/>
				</g>
				<g>
					<path class="st2" d="M355.4,27l19.5-24.1c0.1-0.1,0-0.2-0.1-0.1l-13.5,10.3c0,0-0.1,0-0.1-0.1l-1.8-16.9c0-0.1-0.2-0.1-0.2,0
						l-4,30.8C355.2,27,355.3,27,355.4,27z"/>
					<path class="st2" d="M388.1-23.3l-12.6,4.6c-0.4,0.1-0.9,0-1-0.4l-5.3-12.3c-0.6-1.5-3-1.6-3.7-0.1l-4.6,10.7
						c-0.2,0.4-0.2,0.8-0.2,1.2l2.8,26.4c0,0.4,0.5,0.6,0.9,0.4L385.4-9c0.3-0.2,0.6-0.6,0.7-0.9l4.6-10.8
						C391.4-22.2,389.6-23.9,388.1-23.3z"/>
				</g>
				<g>
					<path class="st2" d="M365.9,37.7l30.9-3c0.1,0,0.1-0.2,0-0.2L380,32.1c-0.1,0-0.1-0.1,0-0.1l10.7-13.1c0.1-0.1,0-0.2-0.1-0.1
						l-24.7,18.8C365.8,37.5,365.8,37.7,365.9,37.7z"/>
					<path class="st2" d="M424.6,25.5l-12.1-5.7c-0.4-0.2-0.6-0.6-0.4-1l5-12.4c0.6-1.5-1-3.3-2.5-2.8l-10.9,4.3
						c-0.4,0.2-0.8,0.4-1,0.7l-16.8,20.6c-0.3,0.3-0.1,0.8,0.3,0.9l26.4,3.6c0.4,0.1,0.8,0,1.2-0.1l10.9-4.3
						C426.2,28.6,426.1,26.2,424.6,25.5z"/>
				</g>
				<g>
					<path class="st2" d="M365.8,52.5l23.9,19.8c0.1,0.1,0.2,0,0.1-0.1l-10.1-13.6c0,0,0-0.1,0.1-0.1l16.9-1.6c0.1,0,0.1-0.2,0-0.2
						l-30.7-4.3C365.8,52.3,365.8,52.4,365.8,52.5z"/>
					<path class="st2" d="M415.7,85.7l-4.5-12.6c-0.1-0.4,0.1-0.8,0.4-1l12.4-5.2c1.5-0.6,1.7-3,0.2-3.7l-10.7-4.7
						c-0.4-0.2-0.8-0.2-1.2-0.2l-26.5,2.5c-0.4,0-0.6,0.5-0.4,0.8l16,21.3c0.2,0.3,0.5,0.6,0.9,0.7l10.7,4.8
						C414.6,89,416.3,87.2,415.7,85.7z"/>
				</g>
				<g>
					<path class="st2" d="M355.2,63l2.7,30.9c0,0.1,0.2,0.1,0.2,0l2.5-16.8c0-0.1,0.1-0.1,0.1,0l13,10.8c0.1,0.1,0.2,0,0.1-0.1
						L355.4,63C355.3,62.9,355.2,62.9,355.2,63z"/>
					<path class="st2" d="M366.7,121.8l5.8-12.1c0.2-0.4,0.6-0.6,1-0.4l12.4,5.2c1.5,0.6,3.3-0.9,2.8-2.5l-4.1-10.9
						c-0.1-0.4-0.4-0.8-0.7-1l-20.4-17c-0.3-0.3-0.8-0.1-0.9,0.3l-3.9,26.3c-0.1,0.4,0,0.8,0.1,1.2l4.2,11
						C363.6,123.4,366,123.3,366.7,121.8z"/>
				</g>
				<g>
					<path class="st2" d="M340.3,62.9l-20.1,23.6c-0.1,0.1,0,0.2,0.1,0.1l13.7-10c0,0,0.1,0,0.1,0.1l1.5,16.9c0,0.1,0.2,0.1,0.2,0
						l4.7-30.7C340.5,62.9,340.4,62.9,340.3,62.9z"/>
					<path class="st2" d="M306.5,112.5l12.7-4.3c0.4-0.1,0.8,0.1,1,0.4l5,12.4c0.6,1.5,3,1.7,3.7,0.2l4.9-10.6
						c0.2-0.4,0.2-0.8,0.2-1.2l-2.2-26.5c0-0.4-0.5-0.6-0.9-0.4l-21.5,15.8c-0.3,0.2-0.6,0.5-0.7,0.9l-4.9,10.7
						C303.3,111.3,305,113,306.5,112.5z"/>
				</g>
				<g>
					<path class="st2" d="M329.6,52.4l-30.9,2.4c-0.1,0-0.1,0.2,0,0.2l16.7,2.7c0.1,0,0.1,0.1,0,0.1l-11,12.9
						c-0.1,0.1,0,0.2,0.1,0.1l25.1-18.2C329.8,52.5,329.7,52.4,329.6,52.4z"/>
					<path class="st2" d="M270.6,63.2l12,6c0.4,0.2,0.5,0.6,0.4,1l-5.3,12.3c-0.6,1.5,0.9,3.3,2.5,2.8l11-4c0.4-0.1,0.8-0.4,1-0.7
						l17.3-20.2c0.3-0.3,0.1-0.8-0.3-0.9l-26.3-4.2c-0.4-0.1-0.8,0-1.2,0.1l-11,4C269.2,60.1,269.2,62.5,270.6,63.2z"/>
				</g>
				<g>
					<path class="st2" d="M329.9,37.4l-23.4-20.3c-0.1-0.1-0.2,0-0.1,0.1l9.8,13.8c0,0,0,0.1-0.1,0.1l-16.9,1.3
						c-0.1,0-0.1,0.2,0,0.2l30.6,5C329.9,37.6,329.9,37.5,329.9,37.4z"/>
					<path class="st2" d="M280.7,3.1l4.2,12.7c0.1,0.4-0.1,0.8-0.5,1L272,21.8c-1.5,0.6-1.7,3-0.3,3.7l10.6,5
						c0.4,0.2,0.8,0.3,1.2,0.2l26.5-1.9c0.4,0,0.6-0.5,0.4-0.8L294.9,6.3c-0.2-0.3-0.5-0.6-0.9-0.8l-10.6-5
						C281.9-0.1,280.2,1.6,280.7,3.1z"/>
				</g>
			</g>
		</g>
	</g>
</g>
</svg>
