<?xml version="1.0" encoding="utf-8"?>
<!-- Generator: Adobe Illustrator 27.8.0, SVG Export Plug-In . SVG Version: 6.00 Build 0)  -->
<svg version="1.1" id="Layer_1" xmlns="http://www.w3.org/2000/svg" xmlns:xlink="http://www.w3.org/1999/xlink" x="0px" y="0px"
	 viewBox="0 0 414 896" style="enable-background:new 0 0 414 896;" xml:space="preserve">
<style type="text/css">
	.st0{fill:#EEECEC;}
	.st1{opacity:0.05;clip-path:url(#SVGID_00000142154583938575941870000015073049432465468071_);}
	.st2{fill:#692570;}
</style>
<g>
	<g>
		<rect id="SVGID_1_" class="st0" width="414" height="896"/>
	</g>
	<g>
		<defs>
			<rect id="SVGID_00000041265313477882825070000000576916118827280285_" width="414" height="896"/>
		</defs>
		<clipPath id="SVGID_00000088816219092008338660000012527550753683685287_">
			<use xlink:href="#SVGID_00000041265313477882825070000000576916118827280285_"  style="overflow:visible;"/>
		</clipPath>
		<g style="opacity:0.05;clip-path:url(#SVGID_00000088816219092008338660000012527550753683685287_);">
			<g>
				<g>
					<path class="st2" d="M341.8,26.67l5.95,3.44c0.06,0.03,0.11,0.03,0.17,0l5.95-3.44c0.06-0.03,0.09-0.1,0.08-0.17l-4.06-28.44
						c-0.02-0.12-0.08-0.23-0.15-0.33l-1.84-1.93c-0.03-0.03-0.09-0.03-0.11,0l-1.84,1.93c-0.08,0.09-0.13,0.2-0.15,0.31
						l-4.06,28.46C341.71,26.57,341.74,26.63,341.8,26.67z"/>
					<path class="st2" d="M347.82-37.83l-5.67,27.41c-0.18,0.87,0.14,1.77,0.84,2.33l4.79,3.84c0.04,0.03,0.1,0.03,0.14,0l4.78-3.83
						c0.7-0.55,1.02-1.46,0.84-2.33l-5.67-27.42C347.86-37.85,347.82-37.85,347.82-37.83z"/>
				</g>
				<g>
					<path class="st2" d="M356.48,27.75l1.78,6.64c0.01,0.06,0.06,0.1,0.11,0.11l6.65,1.78c0.07,0.02,0.13-0.01,0.18-0.06
						l17.24-22.98c0.08-0.1,0.12-0.22,0.12-0.34l0.07-2.66c0-0.04-0.03-0.08-0.08-0.08l-2.67,0.07c-0.12,0-0.23,0.04-0.33,0.11
						l-23,17.25C356.49,27.62,356.46,27.68,356.48,27.75z"/>
					<path class="st2" d="M406.35-13.61L382.96,1.77c-0.74,0.49-1.15,1.36-1.06,2.24l0.66,6.1c0.01,0.06,0.04,0.1,0.1,0.1l6.09,0.67
						c0.88,0.1,1.76-0.31,2.24-1.06l15.38-23.4C406.39-13.6,406.37-13.62,406.35-13.61z"/>
				</g>
				<g>
					<path class="st2" d="M366.1,38.89l-3.44,5.95c-0.03,0.06-0.03,0.11,0,0.17l3.44,5.95c0.03,0.06,0.1,0.09,0.17,0.08l28.45-4.06
						c0.12-0.02,0.23-0.08,0.33-0.15l1.93-1.84c0.03-0.03,0.03-0.09,0-0.11l-1.93-1.84c-0.09-0.08-0.2-0.13-0.31-0.15l-28.46-4.06
						C366.2,38.8,366.13,38.83,366.1,38.89z"/>
					<path class="st2" d="M430.6,44.9l-27.41-5.67c-0.87-0.18-1.77,0.14-2.33,0.84l-3.84,4.79c-0.03,0.04-0.03,0.1,0,0.14l3.83,4.78
						c0.55,0.7,1.46,1.02,2.33,0.84l27.42-5.67C430.63,44.95,430.63,44.9,430.6,44.9z"/>
				</g>
				<g>
					<path class="st2" d="M365.02,53.57l-6.65,1.78c-0.06,0.01-0.1,0.06-0.11,0.11l-1.78,6.64c-0.02,0.07,0.01,0.13,0.06,0.18
						l22.99,17.24c0.1,0.08,0.22,0.12,0.34,0.12l2.66,0.07c0.04,0,0.08-0.03,0.08-0.08l-0.07-2.67c0-0.12-0.04-0.23-0.11-0.33
						l-17.26-22.99C365.15,53.58,365.08,53.56,365.02,53.57z"/>
					<path class="st2" d="M406.38,103.42L391,80.04c-0.49-0.74-1.36-1.15-2.24-1.06l-6.11,0.66c-0.06,0.01-0.1,0.04-0.1,0.1
						l-0.67,6.09c-0.1,0.88,0.31,1.76,1.06,2.24l23.4,15.38C406.37,103.47,406.39,103.45,406.38,103.42z"/>
				</g>
				<g>
					<path class="st2" d="M353.88,63.18l-5.95-3.44c-0.06-0.03-0.11-0.03-0.17,0l-5.95,3.44c-0.06,0.03-0.09,0.1-0.08,0.17
						l4.06,28.44c0.02,0.12,0.08,0.23,0.15,0.33l1.84,1.93c0.03,0.03,0.09,0.03,0.11,0l1.84-1.93c0.08-0.09,0.13-0.2,0.15-0.31
						l4.06-28.46C353.96,63.28,353.93,63.21,353.88,63.18z"/>
					<path class="st2" d="M347.86,127.67l5.67-27.41c0.18-0.87-0.14-1.77-0.84-2.33l-4.79-3.84c-0.04-0.03-0.1-0.03-0.14,0
						l-4.78,3.83c-0.7,0.55-1.02,1.46-0.84,2.33l5.67,27.42C347.82,127.71,347.86,127.71,347.86,127.67z"/>
				</g>
				<g>
					<path class="st2" d="M339.19,62.1l-1.78-6.64c-0.01-0.06-0.06-0.1-0.11-0.11l-6.65-1.78c-0.07-0.02-0.13,0.01-0.18,0.06
						L313.24,76.6c-0.08,0.1-0.12,0.22-0.12,0.34l-0.07,2.66c0,0.04,0.03,0.08,0.08,0.08l2.67-0.07c0.12,0,0.23-0.04,0.33-0.11
						l23-17.25C339.18,62.23,339.2,62.16,339.19,62.1z"/>
					<path class="st2" d="M289.33,103.46l23.39-15.38c0.74-0.49,1.15-1.36,1.06-2.24l-0.66-6.1c-0.01-0.06-0.04-0.1-0.1-0.1
						l-6.09-0.67c-0.88-0.1-1.76,0.31-2.24,1.06l-15.38,23.4C289.28,103.45,289.3,103.47,289.33,103.46z"/>
				</g>
				<g>
					<path class="st2" d="M329.58,50.96l3.44-5.95c0.03-0.06,0.03-0.11,0-0.17l-3.44-5.95c-0.03-0.06-0.1-0.09-0.17-0.08
						l-28.45,4.06c-0.12,0.02-0.23,0.08-0.33,0.15l-1.93,1.84c-0.03,0.03-0.03,0.09,0,0.11l1.93,1.84c0.09,0.08,0.2,0.13,0.31,0.15
						l28.46,4.06C329.48,51.05,329.54,51.02,329.58,50.96z"/>
					<path class="st2" d="M265.07,44.95l27.41,5.67c0.87,0.18,1.77-0.14,2.33-0.84l3.84-4.79c0.03-0.04,0.03-0.1,0-0.14l-3.83-4.78
						c-0.55-0.7-1.46-1.02-2.33-0.84l-27.42,5.67C265.05,44.9,265.05,44.95,265.07,44.95z"/>
				</g>
				<g>
					<path class="st2" d="M330.66,36.28l6.65-1.78c0.06-0.01,0.1-0.06,0.11-0.11l1.78-6.64c0.02-0.07-0.01-0.13-0.06-0.18
						l-22.99-17.24c-0.1-0.08-0.22-0.12-0.34-0.12l-2.66-0.07c-0.04,0-0.08,0.03-0.08,0.08l0.07,2.67c0,0.12,0.04,0.23,0.11,0.33
						l17.26,22.99C330.53,36.27,330.59,36.3,330.66,36.28z"/>
					<path class="st2" d="M289.29-13.58l15.38,23.39c0.49,0.74,1.36,1.15,2.24,1.06l6.11-0.66c0.06-0.01,0.1-0.04,0.1-0.1l0.67-6.09
						c0.1-0.88-0.31-1.76-1.06-2.24l-23.4-15.38C289.3-13.62,289.28-13.6,289.29-13.58z"/>
				</g>
			</g>
			<g>
				<path class="st2" d="M340.48,27l-3.37-30.82c-0.01-0.11-0.17-0.11-0.18,0l-2.16,16.81c-0.01,0.06-0.08,0.09-0.12,0.04
					L321.39,2.48c-0.09-0.07-0.2,0.04-0.13,0.12l19.07,24.46C340.37,27.14,340.5,27.1,340.48,27z"/>
				<path class="st2" d="M327.73-31.57l-5.56,12.2c-0.18,0.39-0.63,0.57-1.03,0.42l-12.49-4.88c-1.55-0.61-3.31,1-2.72,2.55
					l4.39,10.83c0.17,0.4,0.42,0.75,0.75,1.02l20.74,16.6c0.32,0.26,0.81,0.07,0.86-0.35l3.32-26.41c0.04-0.4,0-0.79-0.15-1.16
					l-4.42-10.88C330.8-33.15,328.42-33.08,327.73-31.57z"/>
			</g>
			<g>
				<path class="st2" d="M355.4,26.97l19.55-24.07c0.07-0.09-0.04-0.2-0.12-0.13l-13.48,10.28c-0.04,0.03-0.11,0.01-0.12-0.06
					L359.4-3.87c-0.01-0.11-0.17-0.11-0.18,0l-3.99,30.75C355.21,26.99,355.33,27.04,355.4,26.97z"/>
				<path class="st2" d="M388.08-23.28l-12.59,4.62c-0.4,0.14-0.85-0.04-1.02-0.43l-5.31-12.31c-0.65-1.52-3.05-1.64-3.73-0.14
					l-4.61,10.74c-0.17,0.4-0.23,0.83-0.19,1.25l2.78,26.42c0.04,0.41,0.52,0.62,0.85,0.36l21.12-16.2
					c0.31-0.24,0.56-0.56,0.72-0.92l4.64-10.78C391.37-22.21,389.62-23.85,388.08-23.28z"/>
			</g>
			<g>
				<path class="st2" d="M365.93,37.66l30.87-3.04c0.11-0.01,0.11-0.17,0-0.18l-16.78-2.35c-0.06-0.01-0.08-0.08-0.04-0.12
					l10.7-13.15c0.07-0.09-0.04-0.2-0.12-0.13l-24.67,18.79C365.79,37.54,365.83,37.66,365.93,37.66z"/>
				<path class="st2" d="M424.65,25.54l-12.14-5.7c-0.39-0.18-0.56-0.63-0.41-1.03l5.02-12.43c0.62-1.53-0.97-3.32-2.53-2.75
					l-10.89,4.27c-0.4,0.15-0.75,0.41-1.03,0.74l-16.82,20.56c-0.26,0.32-0.08,0.81,0.34,0.86l26.37,3.62
					c0.39,0.06,0.79,0.01,1.16-0.14l10.93-4.29C426.2,28.64,426.14,26.25,424.65,25.54z"/>
			</g>
			<g>
				<path class="st2" d="M365.82,52.48l23.86,19.8c0.08,0.07,0.2-0.03,0.13-0.12l-10.13-13.59c-0.03-0.04,0-0.11,0.06-0.12
					l16.87-1.64c0.11-0.01,0.11-0.17,0-0.18l-30.71-4.33C365.8,52.3,365.76,52.42,365.82,52.48z"/>
				<path class="st2" d="M415.72,85.7l-4.49-12.64c-0.14-0.4,0.06-0.84,0.44-1l12.38-5.18c1.52-0.64,1.68-3.02,0.18-3.73
					l-10.69-4.72c-0.39-0.18-0.82-0.24-1.25-0.2l-26.45,2.49c-0.42,0.04-0.63,0.52-0.38,0.85l15.97,21.29
					c0.23,0.32,0.55,0.56,0.92,0.73l10.74,4.75C414.62,88.98,416.29,87.25,415.72,85.7z"/>
			</g>
			<g>
				<path class="st2" d="M355.22,63.01l2.69,30.88c0.01,0.11,0.17,0.11,0.18,0.01l2.54-16.76c0.01-0.06,0.08-0.08,0.12-0.04
					l13.04,10.84c0.08,0.07,0.2-0.03,0.13-0.12L355.4,62.96C355.34,62.86,355.21,62.92,355.22,63.01z"/>
				<path class="st2" d="M366.69,121.85l5.83-12.08c0.19-0.39,0.64-0.55,1.03-0.4l12.38,5.15c1.52,0.64,3.33-0.94,2.77-2.49
					l-4.15-10.93c-0.15-0.4-0.41-0.75-0.73-1.03l-20.38-17.05c-0.32-0.26-0.81-0.08-0.87,0.33l-3.91,26.33
					c-0.06,0.39-0.01,0.79,0.12,1.16l4.17,10.97C363.58,123.36,365.98,123.33,366.69,121.85z"/>
			</g>
			<g>
				<path class="st2" d="M340.29,62.94l-20.07,23.64c-0.07,0.08,0.03,0.2,0.12,0.13l13.7-9.98c0.04-0.03,0.11,0,0.11,0.06
					l1.46,16.89c0.01,0.11,0.17,0.11,0.18,0.01l4.66-30.65C340.47,62.92,340.35,62.86,340.29,62.94z"/>
				<path class="st2" d="M306.51,112.46l12.68-4.35c0.4-0.14,0.84,0.07,1,0.45l5.05,12.43c0.62,1.53,3,1.71,3.72,0.22l4.85-10.64
					c0.18-0.39,0.25-0.82,0.22-1.25l-2.21-26.48c-0.03-0.42-0.51-0.63-0.85-0.39L309.51,98.2c-0.32,0.23-0.57,0.54-0.74,0.91
					l-4.87,10.68C303.26,111.32,304.95,112.99,306.51,112.46z"/>
			</g>
			<g>
				<path class="st2" d="M329.61,52.43l-30.92,2.36c-0.11,0.01-0.11,0.17-0.01,0.18l16.73,2.72c0.06,0.01,0.08,0.08,0.04,0.12
					l-10.98,12.91c-0.07,0.08,0.03,0.2,0.12,0.13l25.08-18.25C329.75,52.54,329.71,52.42,329.61,52.43z"/>
				<path class="st2" d="M270.65,63.25l12.01,5.96c0.39,0.19,0.55,0.64,0.38,1.04l-5.29,12.32c-0.65,1.52,0.89,3.34,2.46,2.8
					l10.97-4.04c0.4-0.14,0.76-0.4,1.04-0.72l17.28-20.19c0.26-0.32,0.09-0.81-0.32-0.87l-26.29-4.19
					c-0.39-0.07-0.79-0.02-1.16,0.11l-11.02,4.05C269.17,60.12,269.17,62.52,270.65,63.25z"/>
			</g>
			<g>
				<path class="st2" d="M329.85,37.44l-23.43-20.32c-0.08-0.07-0.2,0.03-0.13,0.12l9.84,13.8c0.03,0.04,0,0.11-0.06,0.11
					l-16.9,1.28c-0.11,0.01-0.11,0.17-0.01,0.18l30.61,5C329.86,37.63,329.93,37.51,329.85,37.44z"/>
				<path class="st2" d="M280.69,3.13l4.22,12.73c0.13,0.41-0.07,0.84-0.46,0.99l-12.49,4.9c-1.53,0.61-1.74,2.99-0.26,3.72
					l10.59,4.96c0.39,0.18,0.82,0.26,1.25,0.23l26.51-1.92c0.42-0.03,0.64-0.51,0.4-0.84L294.92,6.27
					c-0.23-0.32-0.54-0.57-0.89-0.75L283.4,0.54C281.87-0.11,280.17,1.57,280.69,3.13z"/>
			</g>
		</g>
	</g>
</g>
</svg>
