<?xml version="1.0" encoding="UTF-8"?>
<svg id="Layer_2" data-name="Layer 2" xmlns="http://www.w3.org/2000/svg" viewBox="0 0 9.99 12.51">
  <defs>
    <style>
      .cls-1 {
        fill: #4c0c4b;
        stroke-width: 0px;
      }
    </style>
  </defs>
  <g id="Layer_1-2" data-name="Layer 1">
    <path class="cls-1" d="m7.21,12.46c-.51-.1-.98-.3-1.44-.53-.67-.35-1.27-.8-1.83-1.32-.8-.74-1.47-1.58-2.06-2.49-.33-.52-.66-1.05-.95-1.6-.38-.7-.68-1.43-.83-2.21-.14-.69-.14-1.37.02-2.05.13-.56.37-1.07.76-1.5.24-.26.52-.45.82-.63.45-.26.94-.13,1.23.3.44.65.88,1.3,1.33,1.95.17.24.23.5.15.79-.06.24-.21.41-.41.55-.32.21-.63.43-.95.64-.04.03-.06.05-.04.1.17.46.33.92.52,1.37.41.92.99,1.72,1.72,2.41.27.25.55.48.82.72.04.04.07.02.11,0,.32-.22.65-.44.97-.66.35-.24.79-.22,1.11.04.07.06.13.13.18.2.45.66.89,1.32,1.35,1.97.33.47.17,1.05-.27,1.33-.11.07-.21.14-.32.21-.51.34-1.08.48-1.69.46-.06,0-.11,0-.17-.01-.06,0-.11-.02-.17-.03ZM2.35,4.18c.15-.11.31-.21.46-.31.29-.2.59-.4.88-.6.23-.16.27-.36.13-.57-.45-.66-.9-1.31-1.34-1.97-.13-.2-.33-.24-.53-.11-.13.09-.26.17-.39.27-.25.19-.45.42-.61.7-.17.3-.26.62-.33.95-.09.41-.11.83-.06,1.25.07.66.28,1.27.55,1.87.29.65.65,1.26,1.03,1.85.53.83,1.11,1.63,1.81,2.33.86.86,1.81,1.57,2.97,1.97.41.14.82.18,1.24.09.42-.09.78-.3,1.11-.56.19-.14.21-.33.07-.53-.24-.36-.49-.72-.74-1.08-.2-.3-.41-.6-.61-.9-.08-.13-.2-.19-.34-.17-.08.01-.16.05-.23.09-.43.29-.85.58-1.28.87-.03.02-.06.05-.1,0-.33-.29-.67-.57-1-.87-.64-.57-1.17-1.23-1.61-1.97-.36-.6-.63-1.24-.85-1.9-.08-.24-.16-.49-.25-.74Z"/>
  </g>
</svg>