<?xml version="1.0" encoding="UTF-8"?>
<svg id="Layer_2" data-name="Layer 2" xmlns="http://www.w3.org/2000/svg" viewBox="0 0 53.61 45.39">
  <defs>
    <style>
      .cls-1 {
        stroke-width: 0px;
      }
    </style>
  </defs>
  <g id="Layer_1-2" data-name="Layer 1">
    <g>
      <path class="cls-1" d="m23.57,28.61c-.32,0-.61-.15-.86-.44-.42-.5-.37-1.12.14-1.68,1.01-1.1,2.32-1.66,3.99-1.73,1.75.11,3.08.7,4.05,1.8.47.54.48,1.08.03,1.61-.24.28-.52.42-.84.42h0c-.26,0-.55-.1-.83-.3-1.03-.72-1.72-1.11-2.43-1.11s-1.38.38-2.38,1.09c-.31.22-.61.33-.89.33Z"/>
      <path class="cls-1" d="m15.34,19.23c-.03.38-.02.82-.1,1.23-.15.78-.63,1.26-1.44,1.29-.73.02-1.35-.61-1.4-1.43-.05-.76-.05-1.53,0-2.29.06-.85.64-1.42,1.38-1.46.74-.04,1.34.48,1.48,1.34.07.42.05.85.08,1.33Z"/>
      <path class="cls-1" d="m38.45,19.1c0-.46-.06-.93.01-1.37.12-.77.66-1.18,1.42-1.17.72.01,1.25.43,1.31,1.17.07.94.07,1.9,0,2.84-.05.75-.61,1.14-1.32,1.16-.76.03-1.3-.39-1.42-1.16-.07-.48-.01-.98-.01-1.46Z"/>
      <path class="cls-1" d="m53.46,13.87C52.38,5.8,45.81.46,38.31.05c-4.04-.22-7.71.91-11.04,3.16-.34.23-.55.24-.89,0C22.48.6,18.21-.57,13.56.26,7.25,1.39,2.86,4.96.8,11.11-.62,15.34-.03,19.51,1.61,23.57c2.1,5.18,5.6,9.29,9.91,12.75,4.51,3.62,9.55,6.37,14.68,8.96.34.17.93.16,1.28-.02,4.56-2.28,9.03-4.72,13.13-7.77,3.85-2.86,7.22-6.18,9.66-10.36,2.01-3.45,3.29-7.11,3.34-11.44-.03-.41-.05-1.11-.14-1.81Zm-1.83,3.47c-.48,4.65-2.61,8.58-5.49,12.14-3.04,3.75-6.83,6.63-10.92,9.11-2.6,1.58-5.31,3-7.98,4.46-.2.11-.56.14-.75.04-4.26-2.17-8.44-4.48-12.29-7.34-3.99-2.96-7.43-6.42-9.79-10.86-1.56-2.94-2.54-6.02-2.49-9.39.08-5.99,4.13-11.25,9.98-12.88.64-.18,1.3-.33,1.96-.43.72-.11,1.44-.13,1.81-.16,3.93.01,7.08,1.24,9.92,3.35,1.07.8,1.4.79,2.46,0,3.14-2.33,6.63-3.59,10.57-3.31,7.87.56,13.87,7,13.01,15.28Z"/>
    </g>
  </g>
</svg>