<?xml version="1.0" encoding="UTF-8"?>
<svg id="Layer_2" data-name="Layer 2" xmlns="http://www.w3.org/2000/svg" viewBox="0 0 16.87 16.88">
  <defs>
    <style>
      .cls-1 {
        fill: #4c0c4b;
        stroke-width: 0px;
      }
    </style>
  </defs>
  <g id="Layer_1-2" data-name="Layer 1">
    <g>
      <path class="cls-1" d="m16.87,7.44c0-.25-.07-.34-.32-.41-.49-.12-.98-.25-1.48-.36-.13-.03-.17-.09-.22-.2-.16-.4-.32-.8-.49-1.19-.05-.12-.05-.19.02-.3.26-.41.51-.83.76-1.25.05-.08.08-.17.14-.29-.06-.1-.11-.21-.19-.29-.45-.46-.91-.92-1.37-1.38-.2-.2-.32-.22-.58-.06-.42.26-.84.51-1.26.78-.1.06-.18.06-.28.01-.4-.18-.8-.34-1.2-.5-.11-.04-.16-.09-.19-.21-.11-.49-.23-.99-.36-1.48-.06-.26-.16-.33-.42-.33-.66,0-1.32,0-1.98,0-.26,0-.35.07-.42.33-.12.48-.24.97-.35,1.46-.03.13-.1.19-.22.23-.39.15-.79.31-1.17.48-.12.06-.21.05-.31-.02-.41-.26-.82-.51-1.23-.75-.28-.17-.38-.15-.61.07-.44.44-.89.89-1.33,1.33-.23.23-.24.34-.08.61.26.42.52.84.77,1.26.04.06.04.17.02.24-.16.42-.33.83-.51,1.24-.03.07-.11.16-.19.18-.48.13-.97.24-1.46.36C.06,7.09,0,7.17,0,7.48c0,.63,0,1.26,0,1.89,0,.35.06.42.4.5.47.11.93.23,1.4.33.13.03.17.09.22.21.16.4.32.8.49,1.19.05.11.05.19-.02.3-.26.41-.51.83-.77,1.24-.16.26-.15.38.07.59.45.45.9.9,1.35,1.35.22.22.33.23.59.08.42-.26.84-.52,1.27-.77.07-.04.18-.05.26-.02.41.16.82.34,1.23.5.11.04.16.09.19.21.11.49.23.99.36,1.48.06.26.16.33.42.33.66,0,1.32,0,1.98,0,.26,0,.35-.07.42-.33.12-.47.23-.93.33-1.4.04-.16.11-.24.27-.3.38-.14.75-.29,1.12-.46.14-.06.23-.06.35.02.4.25.81.5,1.21.75.27.17.38.15.61-.07.45-.44.89-.89,1.33-1.33.23-.23.24-.34.08-.61-.26-.42-.52-.84-.77-1.26-.04-.06-.04-.17-.02-.24.16-.42.33-.83.51-1.24.03-.07.12-.15.19-.17.49-.13.98-.24,1.47-.36.26-.07.33-.15.34-.42,0-.67,0-1.33,0-2Zm-.91,1.64c0,.1-.03.14-.13.16-.46.1-.91.22-1.36.32-.19.04-.31.14-.36.33-.13.54-.34,1.05-.63,1.53-.1.16-.09.31,0,.47.25.39.48.78.72,1.18.03.04.05.09.07.14-.03.04-.05.07-.08.1-.3.3-.6.6-.9.9-.09.09-.16.06-.24,0-.39-.24-.78-.47-1.16-.72-.17-.11-.33-.12-.5-.02-.47.28-.96.49-1.49.62-.21.05-.31.17-.36.38-.1.45-.22.9-.32,1.34-.02.11-.07.14-.18.14-.42,0-.83,0-1.25,0-.1,0-.15-.03-.18-.14-.1-.46-.22-.91-.32-1.36-.04-.19-.14-.31-.33-.35-.54-.13-1.05-.35-1.53-.63-.16-.1-.31-.09-.47.01-.39.25-.79.48-1.18.73-.1.06-.17.07-.26-.02-.28-.3-.58-.59-.87-.87-.08-.08-.09-.15-.03-.24.25-.4.49-.8.74-1.19.1-.16.11-.31,0-.47-.29-.48-.5-.99-.63-1.53-.05-.19-.17-.29-.36-.33-.46-.1-.91-.22-1.36-.32-.1-.02-.13-.06-.13-.16,0-.43,0-.86,0-1.29,0-.05.07-.13.12-.14.46-.12.92-.23,1.38-.33.18-.04.3-.13.34-.32.14-.55.35-1.06.64-1.55.09-.16.09-.3,0-.45-.24-.39-.48-.79-.73-1.18-.07-.12-.07-.19.03-.29.28-.27.56-.55.83-.83.09-.1.17-.11.29-.04.38.24.78.47,1.16.72.17.11.33.11.5,0,.46-.28.95-.49,1.48-.61.22-.05.32-.18.37-.39.09-.44.21-.88.31-1.33.03-.12.08-.15.19-.14.41,0,.82,0,1.23,0,.11,0,.16.03.19.15.1.46.22.91.32,1.36.04.18.13.29.31.34.56.14,1.09.36,1.58.65.14.09.28.07.42-.01.4-.25.8-.48,1.19-.74.12-.08.19-.06.29.04.27.28.55.56.83.83.1.1.1.17.03.29-.24.38-.47.78-.72,1.16-.11.17-.11.32,0,.49.28.47.49.96.62,1.5.05.22.18.32.39.36.44.09.88.21,1.33.31.11.02.14.07.14.18,0,.42,0,.85,0,1.27Z"/>
      <path class="cls-1" d="m14.54,8.09c-.38.01-.75,0-1.15,0,0-.08-.01-.12-.01-.17-.06-1.01-.78-1.7-1.8-1.71-.36,0-.72,0-1.08,0-.31,0-.43.12-.44.43,0,.17,0,.34,0,.54-.4,0-.78,0-1.16,0-.18,0-.23.05-.23.22,0,.46,0,.46.47.46h.91c0,.34,0,.66,0,.97,0,.04-.09.09-.14.1-.24.01-.49,0-.73,0-.59.01-.49-.12-.5.53,0,.13.05.16.17.16.24,0,.49,0,.73,0q.48,0,.48.47c0,.06,0,.12,0,.17,0,.25.13.38.38.38.42,0,.83.01,1.25,0,.84-.03,1.52-.64,1.65-1.48.02-.12.03-.25.05-.39h.89c.48,0,.47,0,.48-.47,0-.19-.06-.23-.23-.22Zm-1.9.81c-.02.58-.44.98-1.02.99-.26,0-.52,0-.8,0,0-.08,0-.14,0-.19,0-.84,0-1.67,0-2.51,0-.16.05-.21.21-.2.2.01.4,0,.6,0,.59.01,1.01.41,1.03,1,.01.3.01.61,0,.91Z"/>
      <path class="cls-1" d="m7.31,6.65c0-.3-.12-.43-.42-.43-.41,0-.82,0-1.23,0-.78.03-1.45.59-1.61,1.36-.03.16-.04.33-.06.51h-1.35v.69h1.36c0,.07,0,.11.01.15.04,1,.76,1.7,1.75,1.72.38,0,.76,0,1.14,0,.29,0,.42-.13.42-.43,0-.29,0-.58,0-.87,0-.9,0-1.81,0-2.71Zm-.95,3.15c-.21,0-.42,0-.63,0-.53-.02-.92-.41-.93-.94,0-.28,0-.57,0-.85.01-.51.4-.9.91-.92.22,0,.44,0,.66,0,.12,0,.14.05.14.15,0,.41,0,.82,0,1.23s0,.79,0,1.19c0,.12-.03.16-.16.16Z"/>
    </g>
  </g>
</svg>