<?xml version="1.0" encoding="utf-8"?>
<!-- Generator: Adobe Illustrator 27.8.0, SVG Export Plug-In . SVG Version: 6.00 Build 0)  -->
<svg version="1.1" id="Layer_1" xmlns="http://www.w3.org/2000/svg" xmlns:xlink="http://www.w3.org/1999/xlink" x="0px" y="0px"
	 viewBox="0 0 87 73" style="enable-background:new 0 0 87 73;" xml:space="preserve">
<style type="text/css">
	.st0{fill:#FFFFFF;}
	.st1{fill:#CEA465;}
</style>
<g>
	<rect y="0.5" class="st0" width="87" height="73"/>
	<g>
		<g>
			<g>
				<path class="st1" d="M41.5,31l2,1.1c0,0,0,0,0.1,0l2-1.1c0,0,0,0,0-0.1l-1.3-9.3c0,0,0-0.1-0.1-0.1l-0.6-0.6c0,0,0,0,0,0
					l-0.6,0.6c0,0,0,0.1,0,0.1L41.5,31C41.5,31,41.5,31,41.5,31z"/>
				<path class="st1" d="M43.5,9.9l-1.9,9c-0.1,0.3,0,0.6,0.3,0.8l1.6,1.3c0,0,0,0,0,0l1.6-1.3c0.2-0.2,0.3-0.5,0.3-0.8L43.5,9.9
					C43.5,9.9,43.5,9.9,43.5,9.9z"/>
			</g>
			<g>
				<path class="st1" d="M46.3,31.4l0.6,2.2c0,0,0,0,0,0l2.2,0.6c0,0,0,0,0.1,0l5.6-7.5c0,0,0-0.1,0-0.1l0-0.9c0,0,0,0,0,0l-0.9,0
					c0,0-0.1,0-0.1,0L46.3,31.4C46.3,31.3,46.3,31.4,46.3,31.4z"/>
				<path class="st1" d="M62.7,17.8l-7.7,5c-0.2,0.2-0.4,0.4-0.3,0.7l0.2,2c0,0,0,0,0,0l2,0.2c0.3,0,0.6-0.1,0.7-0.3L62.7,17.8
					C62.7,17.8,62.7,17.8,62.7,17.8z"/>
			</g>
			<g>
				<path class="st1" d="M49.5,35l-1.1,2c0,0,0,0,0,0.1l1.1,2c0,0,0,0,0.1,0l9.3-1.3c0,0,0.1,0,0.1-0.1l0.6-0.6c0,0,0,0,0,0L59,36.4
					c0,0-0.1,0-0.1,0L49.5,35C49.5,35,49.5,35,49.5,35z"/>
				<path class="st1" d="M70.6,37l-9-1.9c-0.3-0.1-0.6,0-0.8,0.3L59.6,37c0,0,0,0,0,0l1.3,1.6c0.2,0.2,0.5,0.3,0.8,0.3L70.6,37
					C70.6,37,70.6,37,70.6,37z"/>
			</g>
			<g>
				<path class="st1" d="M49.1,39.8L47,40.4c0,0,0,0,0,0l-0.6,2.2c0,0,0,0,0,0.1l7.5,5.6c0,0,0.1,0,0.1,0l0.9,0c0,0,0,0,0,0l0-0.9
					c0,0,0-0.1,0-0.1L49.1,39.8C49.2,39.8,49.1,39.8,49.1,39.8z"/>
				<path class="st1" d="M62.7,56.2l-5-7.7c-0.2-0.2-0.4-0.4-0.7-0.3l-2,0.2c0,0,0,0,0,0l-0.2,2c0,0.3,0.1,0.6,0.3,0.7L62.7,56.2
					C62.7,56.2,62.7,56.2,62.7,56.2z"/>
			</g>
			<g>
				<path class="st1" d="M45.5,43l-2-1.1c0,0,0,0-0.1,0l-2,1.1c0,0,0,0,0,0.1l1.3,9.3c0,0,0,0.1,0.1,0.1l0.6,0.6c0,0,0,0,0,0
					l0.6-0.6c0,0,0-0.1,0-0.1L45.5,43C45.5,43,45.5,43,45.5,43z"/>
				<path class="st1" d="M43.5,64.1l1.9-9c0.1-0.3,0-0.6-0.3-0.8l-1.6-1.3c0,0,0,0,0,0l-1.6,1.3c-0.2,0.2-0.3,0.5-0.3,0.8L43.5,64.1
					C43.5,64.1,43.5,64.1,43.5,64.1z"/>
			</g>
			<g>
				<path class="st1" d="M40.7,42.6l-0.6-2.2c0,0,0,0,0,0l-2.2-0.6c0,0,0,0-0.1,0l-5.6,7.5c0,0,0,0.1,0,0.1l0,0.9c0,0,0,0,0,0l0.9,0
					c0,0,0.1,0,0.1,0L40.7,42.6C40.7,42.7,40.7,42.6,40.7,42.6z"/>
				<path class="st1" d="M24.3,56.2l7.7-5c0.2-0.2,0.4-0.4,0.3-0.7l-0.2-2c0,0,0,0,0,0l-2-0.2c-0.3,0-0.6,0.1-0.7,0.3L24.3,56.2
					C24.3,56.2,24.3,56.2,24.3,56.2z"/>
			</g>
			<g>
				<path class="st1" d="M37.5,39l1.1-2c0,0,0,0,0-0.1l-1.1-2c0,0,0,0-0.1,0l-9.3,1.3c0,0-0.1,0-0.1,0.1L27.4,37c0,0,0,0,0,0
					l0.6,0.6c0,0,0.1,0,0.1,0L37.5,39C37.5,39,37.5,39,37.5,39z"/>
				<path class="st1" d="M16.4,37l9,1.9c0.3,0.1,0.6,0,0.8-0.3l1.3-1.6c0,0,0,0,0,0l-1.3-1.6c-0.2-0.2-0.5-0.3-0.8-0.3L16.4,37
					C16.4,37,16.4,37,16.4,37z"/>
			</g>
			<g>
				<path class="st1" d="M37.9,34.2l2.2-0.6c0,0,0,0,0,0l0.6-2.2c0,0,0,0,0-0.1l-7.5-5.6c0,0-0.1,0-0.1,0l-0.9,0c0,0,0,0,0,0l0,0.9
					c0,0,0,0.1,0,0.1L37.9,34.2C37.8,34.2,37.9,34.2,37.9,34.2z"/>
				<path class="st1" d="M24.3,17.8l5,7.7c0.2,0.2,0.4,0.4,0.7,0.3l2-0.2c0,0,0,0,0,0l0.2-2c0-0.3-0.1-0.6-0.3-0.7L24.3,17.8
					C24.3,17.8,24.3,17.8,24.3,17.8z"/>
			</g>
		</g>
		<g>
			<g>
				<path class="st1" d="M41.1,31.1L40,21c0,0-0.1,0-0.1,0l-0.7,5.5c0,0,0,0,0,0l-4.3-3.5c0,0-0.1,0,0,0L41.1,31.1
					C41.1,31.2,41.1,31.2,41.1,31.1z"/>
			</g>
			<path class="st1" d="M36.9,11.9l-1.8,4c-0.1,0.1-0.2,0.2-0.3,0.1l-4.1-1.6c-0.5-0.2-1.1,0.3-0.9,0.8l1.4,3.5
				c0.1,0.1,0.1,0.2,0.2,0.3l6.8,5.4c0.1,0.1,0.3,0,0.3-0.1l1.1-8.7c0-0.1,0-0.3,0-0.4l-1.4-3.6C37.9,11.4,37.1,11.5,36.9,11.9z"/>
		</g>
		<g>
			<g>
				<path class="st1" d="M46,31.1l6.4-7.9c0,0,0-0.1,0,0l-4.4,3.4c0,0,0,0,0,0L47.3,21c0,0-0.1,0-0.1,0L46,31.1
					C45.9,31.1,46,31.1,46,31.1z"/>
			</g>
			<path class="st1" d="M56.7,14.7l-4.1,1.5c-0.1,0-0.3,0-0.3-0.1l-1.7-4c-0.2-0.5-1-0.5-1.2,0l-1.5,3.5c-0.1,0.1-0.1,0.3-0.1,0.4
				l0.9,8.7c0,0.1,0.2,0.2,0.3,0.1l6.9-5.3c0.1-0.1,0.2-0.2,0.2-0.3l1.5-3.5C57.8,15,57.2,14.5,56.7,14.7z"/>
		</g>
		<g>
			<g>
				<path class="st1" d="M49.4,34.6l10.1-1c0,0,0-0.1,0-0.1L54,32.8c0,0,0,0,0,0l3.5-4.3c0,0,0-0.1,0,0L49.4,34.6
					C49.4,34.6,49.4,34.6,49.4,34.6z"/>
			</g>
			<path class="st1" d="M68.7,30.7l-4-1.9c-0.1-0.1-0.2-0.2-0.1-0.3l1.6-4.1c0.2-0.5-0.3-1.1-0.8-0.9l-3.6,1.4
				c-0.1,0.1-0.2,0.1-0.3,0.2L56,31.9c-0.1,0.1,0,0.3,0.1,0.3l8.6,1.2c0.1,0,0.3,0,0.4,0l3.6-1.4C69.2,31.7,69.1,30.9,68.7,30.7z"/>
		</g>
		<g>
			<g>
				<path class="st1" d="M49.4,39.5l7.8,6.5c0,0,0.1,0,0,0l-3.3-4.4c0,0,0,0,0,0l5.5-0.5c0,0,0-0.1,0-0.1L49.4,39.5
					C49.4,39.4,49.4,39.5,49.4,39.5z"/>
			</g>
			<path class="st1" d="M65.7,50.4l-1.5-4.1c0-0.1,0-0.3,0.1-0.3l4.1-1.7c0.5-0.2,0.5-1,0.1-1.2L65,41.4c-0.1-0.1-0.3-0.1-0.4-0.1
				l-8.7,0.8c-0.1,0-0.2,0.2-0.1,0.3l5.2,7c0.1,0.1,0.2,0.2,0.3,0.2l3.5,1.6C65.4,51.4,65.9,50.9,65.7,50.4z"/>
		</g>
		<g>
			<g>
				<path class="st1" d="M45.9,42.9L46.8,53c0,0,0.1,0,0.1,0l0.8-5.5c0,0,0,0,0,0l4.3,3.5c0,0,0.1,0,0,0L45.9,42.9
					C46,42.9,45.9,42.9,45.9,42.9z"/>
			</g>
			<path class="st1" d="M49.7,62.2l1.9-4c0.1-0.1,0.2-0.2,0.3-0.1l4.1,1.7c0.5,0.2,1.1-0.3,0.9-0.8l-1.4-3.6c0-0.1-0.1-0.2-0.2-0.3
				l-6.7-5.6c-0.1-0.1-0.3,0-0.3,0.1L47,58.2c0,0.1,0,0.3,0,0.4l1.4,3.6C48.7,62.7,49.4,62.7,49.7,62.2z"/>
		</g>
		<g>
			<g>
				<path class="st1" d="M41,42.9l-6.6,7.7c0,0,0,0.1,0,0l4.5-3.3c0,0,0,0,0,0l0.5,5.5c0,0,0.1,0,0.1,0L41,42.9
					C41.1,42.9,41,42.9,41,42.9z"/>
			</g>
			<path class="st1" d="M30,59.1l4.2-1.4c0.1,0,0.3,0,0.3,0.1l1.7,4.1c0.2,0.5,1,0.6,1.2,0.1l1.6-3.5c0.1-0.1,0.1-0.3,0.1-0.4
				l-0.7-8.7c0-0.1-0.2-0.2-0.3-0.1l-7,5.2c-0.1,0.1-0.2,0.2-0.2,0.3l-1.6,3.5C28.9,58.7,29.5,59.3,30,59.1z"/>
		</g>
		<g>
			<g>
				<path class="st1" d="M37.5,39.5l-10.1,0.8c0,0,0,0.1,0,0.1l5.5,0.9c0,0,0,0,0,0l-3.6,4.2c0,0,0,0.1,0,0L37.5,39.5
					C37.6,39.5,37.6,39.5,37.5,39.5z"/>
			</g>
			<path class="st1" d="M30.9,42.1c0.1-0.1,0-0.3-0.1-0.3l-8.6-1.4c-0.1,0-0.3,0-0.4,0l-3.6,1.3c-0.5,0.2-0.5,1,0,1.2l3.9,2
				c0.1,0.1,0.2,0.2,0.1,0.3l-1.7,4c-0.2,0.5,0.3,1.1,0.8,0.9l3.6-1.3c0.1,0,0.2-0.1,0.3-0.2L30.9,42.1"/>
		</g>
		<g>
			<g>
				<path class="st1" d="M37.6,34.5l-7.7-6.7c0,0-0.1,0,0,0l3.2,4.5c0,0,0,0,0,0l-5.5,0.4c0,0,0,0.1,0,0.1L37.6,34.5
					C37.6,34.6,37.6,34.6,37.6,34.5z"/>
			</g>
			<path class="st1" d="M21.5,23.3l1.4,4.2c0,0.1,0,0.3-0.2,0.3l-4.1,1.6c-0.5,0.2-0.6,1-0.1,1.2l3.5,1.6c0.1,0.1,0.3,0.1,0.4,0.1
				l8.7-0.6c0.1,0,0.2-0.2,0.1-0.3l-5.1-7.1c-0.1-0.1-0.2-0.2-0.3-0.2l-3.5-1.6C21.9,22.2,21.3,22.8,21.5,23.3z"/>
		</g>
	</g>
</g>
</svg>
