<?xml version="1.0" encoding="UTF-8"?>
<svg id="Layer_2" data-name="Layer 2" xmlns="http://www.w3.org/2000/svg" viewBox="0 0 21.04 16.11">
  <defs>
    <style>
      .cls-1 {
        fill: #939393;
        stroke-width: 0px;
      }
    </style>
  </defs>
  <g id="Layer_1-2" data-name="Layer 1">
    <g>
      <path class="cls-1" d="m12.99,5.75c-.23,0-.41.18-.41.41s.18.41.41.41.41-.18.41-.41-.18-.41-.41-.41Z"/>
      <path class="cls-1" d="m.1,4.79s0,0,0,0c0,0,0,0,0,0l10.11,11.18c.08.08.19.14.3.14s.23-.05.3-.14l10.11-11.18s0,0,0,0c0,0,0,0,0,0,.13-.15.14-.37.02-.52,0,0,0,0,0,0L17.67.15c-.08-.1-.2-.15-.32-.15H3.7c-.12,0-.24.06-.32.15L.09,4.26s0,0,0,0c-.12.15-.11.38.02.52ZM8.29.82h4.47l1.97,3.29H6.32l1.97-3.29Zm-2.07,4.11h8.6l-4.3,9.75L6.22,4.93Zm9.5,0h3.99l-7.78,8.6,3.8-8.6Zm-10.4,0l3.8,8.6L1.34,4.93h3.99Zm14.46-.82h-4.09l-1.97-3.29h3.43l2.63,3.29ZM3.9.82h3.43l-1.97,3.29H1.27L3.9.82Z"/>
      <path class="cls-1" d="m11.34,5.75h-3.05c-.23,0-.41.18-.41.41s.18.41.41.41h3.05c.23,0,.41-.18.41-.41s-.18-.41-.41-.41Z"/>
    </g>
  </g>
</svg>