<?xml version="1.0" encoding="UTF-8"?>
<svg id="Layer_2" data-name="Layer 2" xmlns="http://www.w3.org/2000/svg" viewBox="0 0 14.72 15.48">
  <defs>
    <style>
      .cls-1 {
        fill: #4c0c4b;
        stroke-width: 0px;
      }
    </style>
  </defs>
  <g id="Layer_1-2" data-name="Layer 1">
    <g>
      <path class="cls-1" d="m10.26,15.48h-5.8c-1.2-.02-2.19-.96-2.26-2.16L1.51,2.87c0-.15.05-.3.15-.42.11-.12.26-.19.42-.19h10.57c.31,0,.57.25.57.56,0,.01,0,.03,0,.04l-.66,10.45c-.08,1.21-1.08,2.16-2.29,2.16h0ZM2.71,3.4l.58,9.85c.04.62.55,1.1,1.17,1.09h5.8c.62,0,1.13-.48,1.17-1.09l.61-9.81-9.33-.04Z"/>
      <path class="cls-1" d="m14.15,3.4H.57c-.31,0-.57-.25-.57-.57s.25-.57.57-.57h13.59c.31,0,.57.25.57.57s-.25.57-.57.57Z"/>
      <path class="cls-1" d="m9.62,3.4h-4.53c-.31,0-.56-.26-.57-.57v-1.36c.02-.8.67-1.45,1.47-1.47h2.72c.82.02,1.47.69,1.47,1.51v1.32c0,.31-.26.56-.57.57h0Zm-3.96-1.13h3.4v-.75c0-.19-.15-.34-.34-.34h-2.72c-.19,0-.34.15-.34.34v.75Z"/>
      <path class="cls-1" d="m9.62,12.46c-.31,0-.56-.26-.57-.57v-6.04c0-.31.25-.57.57-.57s.57.25.57.57v6.04c0,.31-.26.56-.57.57Z"/>
      <path class="cls-1" d="m5.1,12.46c-.31,0-.56-.26-.57-.57v-6.04c0-.31.25-.57.57-.57s.57.25.57.57v6.04c0,.31-.26.56-.57.57Z"/>
      <path class="cls-1" d="m7.36,12.46c-.31,0-.56-.26-.57-.57v-6.04c0-.31.25-.57.57-.57s.57.25.57.57v6.04c0,.31-.26.56-.57.57Z"/>
    </g>
  </g>
</svg>