<?xml version="1.0" encoding="UTF-8"?>
<svg id="Layer_2" data-name="Layer 2" xmlns="http://www.w3.org/2000/svg" viewBox="0 0 20.81 16.65">
  <defs>
    <style>
      .cls-1 {
        fill: #7e3080;
        stroke-width: 0px;
      }
    </style>
  </defs>
  <g id="Layer_1-2" data-name="Layer 1">
    <g>
      <path class="cls-1" d="m18.73,16.65H2.08c-1.15,0-2.08-.93-2.08-2.08V2.08C0,.93.93,0,2.08,0h16.65c1.15,0,2.08.93,2.08,2.08v12.49c0,1.15-.93,2.08-2.08,2.08ZM2.08,1.04c-.57,0-1.04.47-1.04,1.04v12.49c0,.57.47,1.04,1.04,1.04h16.65c.57,0,1.04-.47,1.04-1.04V2.08c0-.57-.47-1.04-1.04-1.04H2.08Z"/>
      <path class="cls-1" d="m5.2,7.28c-1.15,0-2.08-.93-2.08-2.08s.93-2.08,2.08-2.08,2.08.93,2.08,2.08-.93,2.08-2.08,2.08Zm0-3.12c-.57,0-1.04.47-1.04,1.04s.47,1.04,1.04,1.04,1.04-.47,1.04-1.04-.47-1.04-1.04-1.04Z"/>
      <path class="cls-1" d="m.59,15.54c-.13,0-.27-.05-.37-.15-.2-.2-.2-.53,0-.74l4.92-4.92c.59-.59,1.62-.59,2.21,0l1.46,1.46,4.05-4.86c.29-.35.73-.56,1.19-.56h.01c.46,0,.89.2,1.19.54l5.44,6.35c.19.22.16.55-.06.73-.22.19-.55.16-.73-.06l-5.44-6.35c-.1-.12-.24-.18-.4-.18-.11,0-.3.07-.4.19l-4.42,5.3c-.09.11-.23.18-.38.19-.15.01-.29-.05-.39-.15l-1.87-1.87c-.2-.2-.54-.2-.74,0L.96,15.39c-.1.1-.23.15-.37.15h0Z"/>
    </g>
  </g>
</svg>