<?xml version="1.0" encoding="UTF-8"?>
<svg id="Layer_2" data-name="Layer 2" xmlns="http://www.w3.org/2000/svg" viewBox="0 0 14.38 18.88">
  <defs>
    <style>
      .cls-1 {
        fill: #4c0c4b;
        stroke-width: 0px;
      }
    </style>
  </defs>
  <g id="Layer_1-2" data-name="Layer 1">
    <g>
      <path class="cls-1" d="m2.67,16.39c-.3-.18-.34-.4-.34-.61V6.07s-1.81,0-1.81,0c-.1,0-.37,0-.49-.27-.12-.27.08-.46.14-.53L5.42.19c.08-.08.21-.19.37-.19s.29.11.38.19l5.23,5.08c.08.08.26.26.15.52-.12.28-.39.28-.5.28h-1.8s0,.96,0,.96c0,.09,0,.19-.04.28-.06.18-.21.29-.41.29-.28-.03-.43-.17-.45-.38,0-.05,0-.1,0-.15v-1.31c0-.42.15-.56.59-.56h.99S5.77,1.15,5.77,1.15L1.61,5.2h1.06c.41,0,.57.15.57.56v10.02c0,.21-.02.42-.23.59l-.04.03h-.3Z"/>
      <g>
        <path class="cls-1" d="m14.35,13.19c-.3-3.05-3.21-5.18-6.21-4.54-2.3.49-3.89,2.41-4.08,4.59-.23,2.57,1.39,4.67,3.48,5.36.39.13.81.19,1.21.29h.89s.09-.03.14-.03c2.83-.33,4.85-2.83,4.57-5.66Zm-5.16,4.86c-2.39,0-4.34-1.97-4.32-4.35.01-2.4,1.95-4.33,4.34-4.33,2.41,0,4.36,1.96,4.34,4.37-.01,2.38-1.97,4.32-4.36,4.31Z"/>
        <g>
          <path class="cls-1" d="m8.72,11.15c-.46-.57-1.24-.59-1.73-.05-.25.27-.36.6-.36.96,0,.34.1.65.32.92.48.58,1.3.56,1.77-.03.41-.52.41-1.29,0-1.8Zm-.88,1.5c-.26,0-.48-.26-.48-.59,0-.33.21-.59.47-.6.26,0,.49.27.48.6,0,.31-.21.58-.47.58Z"/>
          <path class="cls-1" d="m11.47,14.46c-.46-.57-1.24-.59-1.73-.05-.25.27-.36.6-.36.96,0,.34.1.65.32.92.48.58,1.3.56,1.77-.03.41-.52.41-1.29,0-1.8Zm-.88,1.5c-.26,0-.48-.26-.48-.59,0-.33.21-.59.47-.6.26,0,.49.27.48.6,0,.31-.21.58-.47.58Z"/>
          <path class="cls-1" d="m8.22,16.51c-.14,0-.27-.06-.35-.17-.08-.11-.1-.26-.06-.4.04-.12.09-.24.14-.36l1.85-4.41c.03-.07.06-.13.09-.19.09-.12.21-.19.34-.19.06,0,.13.01.2.04.2.09.3.28.24.49-.04.12-.09.24-.14.36l-1.87,4.45c-.06.14-.16.37-.44.37h-.01Z"/>
        </g>
      </g>
    </g>
  </g>
</svg>