<?xml version="1.0" encoding="UTF-8"?>
<svg id="Layer_2" data-name="Layer 2" xmlns="http://www.w3.org/2000/svg" viewBox="0 0 14.22 16.86">
  <defs>
    <style>
      .cls-1 {
        fill: #7e3080;
        stroke-width: 0px;
      }
    </style>
  </defs>
  <g id="Layer_1-2" data-name="Layer 1">
    <g>
      <path class="cls-1" d="m13.41,2.23h-1.42V.81c0-.45-.37-.81-.81-.81H.81c-.45,0-.81.37-.81.81v13c0,.45.37.81.81.81h1.42v1.42c0,.45.37.81.81.81h6.91c.45,0,1.08-.25,1.4-.56l2.27-2.14c.33-.31.59-.92.59-1.37V3.05c0-.45-.37-.81-.81-.81Zm-11.17.81v10.97H.81c-.11,0-.2-.09-.2-.2V.81c0-.11.09-.2.2-.2h10.36c.11,0,.2.09.2.2v1.42H3.05c-.45,0-.81.37-.81.81Zm10.98,10.68l-2.27,2.14s-.11.09-.17.13v-1.87c0-.14.06-.27.15-.36.09-.09.22-.15.36-.15h2.03s-.06.08-.1.11Zm.4-.93c0,.06-.01.13-.03.2h-2.31c-.62,0-1.12.5-1.12,1.12v2.11c-.07.01-.14.02-.2.02H3.05c-.11,0-.2-.09-.2-.2V3.05c0-.11.09-.2.2-.2h10.36c.11,0,.2.09.2.2v9.75Z"/>
      <path class="cls-1" d="m11.17,5.08h-5.89c-.17,0-.3.14-.3.3s.14.3.3.3h5.89c.17,0,.3-.14.3-.3s-.14-.3-.3-.3Z"/>
      <path class="cls-1" d="m11.17,9.14h-5.89c-.17,0-.3.14-.3.3s.14.3.3.3h5.89c.17,0,.3-.14.3-.3,0-.17-.14-.3-.3-.3Z"/>
      <path class="cls-1" d="m8.53,11.17h-3.25c-.17,0-.3.14-.3.3s.14.3.3.3h3.25c.17,0,.3-.14.3-.3s-.14-.3-.3-.3Z"/>
      <path class="cls-1" d="m11.17,7.11h-5.89c-.17,0-.3.14-.3.3s.14.3.3.3h5.89c.17,0,.3-.14.3-.3s-.14-.3-.3-.3Z"/>
    </g>
  </g>
</svg>