<?xml version="1.0" encoding="UTF-8"?>
<svg id="Layer_2" xmlns="http://www.w3.org/2000/svg" viewBox="0 0 125 125">
  <defs>
    <style>
      .cls-1 {
        fill: #0c8d48;
      }

      .cls-2 {
        fill: #f07a25;
      }

      .cls-3 {
        fill: #f2f0f0;
      }
    </style>
  </defs>
  <g id="Layer_1-2" data-name="Layer_1">
    <g>
      <rect class="cls-3" width="125" height="125" rx="30.35" ry="30.35"/>
      <g>
        <path class="cls-2" d="M49.21,93.98l-22.56,20.99-.74-.57c2.57-9.55,5.15-19.15,7.77-28.71,6.54-23.78,13.09-47.51,19.68-71.29v-.22c0-1.18.61-2.27,1.66-2.84,1.57-.26,1.53,1.53,2.09,2.53,3.36,6.2,5.89,12.78,9.82,18.67,3.71,8.99,8.03,17.93,12.7,26.44.57.87.92,1.88.92,2.92,0,1.79-.92,3.49-2.44,4.45-9.82,9.12-19.33,18.41-28.88,27.62h0Z"/>
        <path class="cls-1" d="M49.21,93.98c9.6-9.21,19.11-18.5,28.84-27.57,1.53-.96,2.44-2.66,2.44-4.45,0-1.05-.31-2.09-.92-2.92-4.71-8.51-8.99-17.45-12.7-26.44l6.72-22.56c2.79,5.37,5.1,9.77,7.33,14.22,5.63,11.21,11.13,22.51,16.97,33.64.79,1.09,1.18,2.4,1.18,3.75,0,2.23-1.13,4.32-3.05,5.5-15.97,14.79-31.63,29.93-47.38,44.94-1,1.31-2.36,2.31-3.93,2.84,2.01-6.85,3.53-13.87,4.49-20.94h0Z"/>
      </g>
    </g>
  </g>
</svg>